<svg width="254" height="240" viewBox="0 0 254 240" fill="none" xmlns="http://www.w3.org/2000/svg">
<path d="M103.71 15.877C103.71 17.361 103.463 18.7377 102.968 20.007C102.483 21.267 101.792 22.359 100.896 23.283C100 24.207 98.9224 24.9304 97.6624 25.453C96.4024 25.9664 95.0024 26.223 93.4624 26.223C91.9317 26.223 90.5364 25.9664 89.2764 25.453C88.0164 24.9304 86.9337 24.207 86.0284 23.283C85.1324 22.359 84.4371 21.267 83.9424 20.007C83.4477 18.7377 83.2004 17.361 83.2004 15.877C83.2004 14.393 83.4477 13.021 83.9424 11.761C84.4371 10.4917 85.1324 9.39502 86.0284 8.47102C86.9337 7.54702 88.0164 6.82836 89.2764 6.31502C90.5364 5.79236 91.9317 5.53102 93.4624 5.53102C94.4891 5.53102 95.4551 5.65236 96.3604 5.89502C97.2657 6.12836 98.0964 6.46436 98.8524 6.90302C99.6084 7.33236 100.285 7.85969 100.882 8.48502C101.489 9.10102 102.002 9.79169 102.422 10.557C102.842 11.3224 103.16 12.153 103.374 13.049C103.598 13.945 103.71 14.8877 103.71 15.877ZM99.8604 15.877C99.8604 14.7664 99.7111 13.7724 99.4124 12.895C99.1137 12.0084 98.6891 11.257 98.1384 10.641C97.5877 10.025 96.9157 9.55369 96.1224 9.22702C95.3384 8.90036 94.4517 8.73702 93.4624 8.73702C92.4731 8.73702 91.5817 8.90036 90.7884 9.22702C90.0044 9.55369 89.3324 10.025 88.7724 10.641C88.2217 11.257 87.7971 12.0084 87.4984 12.895C87.1997 13.7724 87.0504 14.7664 87.0504 15.877C87.0504 16.9877 87.1997 17.9864 87.4984 18.873C87.7971 19.7504 88.2217 20.497 88.7724 21.113C89.3324 21.7197 90.0044 22.1864 90.7884 22.513C91.5817 22.8397 92.4731 23.003 93.4624 23.003C94.4517 23.003 95.3384 22.8397 96.1224 22.513C96.9157 22.1864 97.5877 21.7197 98.1384 21.113C98.6891 20.497 99.1137 19.7504 99.4124 18.873C99.7111 17.9864 99.8604 16.9877 99.8604 15.877ZM112.664 11.411C113.728 11.411 114.694 11.5837 115.562 11.929C116.439 12.2744 117.186 12.7644 117.802 13.399C118.427 14.0337 118.908 14.8084 119.244 15.723C119.58 16.6377 119.748 17.6597 119.748 18.789C119.748 19.9277 119.58 20.9544 119.244 21.869C118.908 22.7837 118.427 23.563 117.802 24.207C117.186 24.851 116.439 25.3457 115.562 25.691C114.694 26.0364 113.728 26.209 112.664 26.209C111.59 26.209 110.615 26.0364 109.738 25.691C108.86 25.3457 108.109 24.851 107.484 24.207C106.868 23.563 106.387 22.7837 106.042 21.869C105.706 20.9544 105.538 19.9277 105.538 18.789C105.538 17.6597 105.706 16.6377 106.042 15.723C106.387 14.8084 106.868 14.0337 107.484 13.399C108.109 12.7644 108.86 12.2744 109.738 11.929C110.615 11.5837 111.59 11.411 112.664 11.411ZM112.664 23.549C113.858 23.549 114.74 23.1477 115.31 22.345C115.888 21.5424 116.178 20.3664 116.178 18.817C116.178 17.2677 115.888 16.087 115.31 15.275C114.74 14.463 113.858 14.057 112.664 14.057C111.45 14.057 110.55 14.4677 109.962 15.289C109.383 16.101 109.094 17.277 109.094 18.817C109.094 20.357 109.383 21.533 109.962 22.345C110.55 23.1477 111.45 23.549 112.664 23.549ZM128.742 11.411C129.806 11.411 130.772 11.5837 131.64 11.929C132.517 12.2744 133.264 12.7644 133.88 13.399C134.505 14.0337 134.986 14.8084 135.322 15.723C135.658 16.6377 135.826 17.6597 135.826 18.789C135.826 19.9277 135.658 20.9544 135.322 21.869C134.986 22.7837 134.505 23.563 133.88 24.207C133.264 24.851 132.517 25.3457 131.64 25.691C130.772 26.0364 129.806 26.209 128.742 26.209C127.668 26.209 126.693 26.0364 125.816 25.691C124.938 25.3457 124.187 24.851 123.562 24.207C122.946 23.563 122.465 22.7837 122.12 21.869C121.784 20.9544 121.616 19.9277 121.616 18.789C121.616 17.6597 121.784 16.6377 122.12 15.723C122.465 14.8084 122.946 14.0337 123.562 13.399C124.187 12.7644 124.938 12.2744 125.816 11.929C126.693 11.5837 127.668 11.411 128.742 11.411ZM128.742 23.549C129.936 23.549 130.818 23.1477 131.388 22.345C131.966 21.5424 132.256 20.3664 132.256 18.817C132.256 17.2677 131.966 16.087 131.388 15.275C130.818 14.463 129.936 14.057 128.742 14.057C127.528 14.057 126.628 14.4677 126.04 15.289C125.461 16.101 125.172 17.277 125.172 18.817C125.172 20.357 125.461 21.533 126.04 22.345C126.628 23.1477 127.528 23.549 128.742 23.549ZM141.922 22.275C142.314 22.751 142.739 23.087 143.196 23.283C143.663 23.479 144.167 23.577 144.708 23.577C145.231 23.577 145.702 23.479 146.122 23.283C146.542 23.087 146.897 22.7884 147.186 22.387C147.485 21.9857 147.713 21.4817 147.872 20.875C148.031 20.259 148.11 19.5357 148.11 18.705C148.11 17.865 148.04 17.1557 147.9 16.577C147.769 15.989 147.578 15.513 147.326 15.149C147.074 14.785 146.766 14.519 146.402 14.351C146.047 14.183 145.641 14.099 145.184 14.099C144.465 14.099 143.854 14.253 143.35 14.561C142.846 14.8597 142.37 15.2844 141.922 15.835V22.275ZM141.74 13.595C142.328 12.9324 142.995 12.3957 143.742 11.985C144.489 11.5744 145.366 11.369 146.374 11.369C147.158 11.369 147.872 11.5324 148.516 11.859C149.169 12.1857 149.729 12.6617 150.196 13.287C150.672 13.903 151.036 14.6684 151.288 15.583C151.549 16.4884 151.68 17.529 151.68 18.705C151.68 19.7784 151.535 20.7724 151.246 21.687C150.957 22.6017 150.541 23.395 150 24.067C149.468 24.739 148.819 25.2664 148.054 25.649C147.298 26.0224 146.449 26.209 145.506 26.209C144.703 26.209 144.017 26.0877 143.448 25.845C142.879 25.593 142.37 25.2477 141.922 24.809V30.689H138.464V11.635H140.578C141.026 11.635 141.32 11.845 141.46 12.265L141.74 13.595ZM163.142 14.435C163.049 14.5844 162.951 14.6917 162.848 14.757C162.745 14.813 162.615 14.841 162.456 14.841C162.288 14.841 162.106 14.7944 161.91 14.701C161.723 14.6077 161.504 14.505 161.252 14.393C161 14.2717 160.711 14.1644 160.384 14.071C160.067 13.9777 159.689 13.931 159.25 13.931C158.569 13.931 158.032 14.0757 157.64 14.365C157.257 14.6544 157.066 15.0324 157.066 15.499C157.066 15.807 157.164 16.0684 157.36 16.283C157.565 16.4884 157.831 16.6704 158.158 16.829C158.494 16.9877 158.872 17.1324 159.292 17.263C159.712 17.3844 160.137 17.5197 160.566 17.669C161.005 17.8184 161.434 17.991 161.854 18.187C162.274 18.3737 162.647 18.6164 162.974 18.915C163.31 19.2044 163.576 19.5544 163.772 19.965C163.977 20.3757 164.08 20.8704 164.08 21.449C164.08 22.1397 163.954 22.779 163.702 23.367C163.459 23.9457 163.095 24.4497 162.61 24.879C162.125 25.299 161.523 25.6304 160.804 25.873C160.095 26.1064 159.273 26.223 158.34 26.223C157.845 26.223 157.36 26.1764 156.884 26.083C156.417 25.999 155.965 25.8777 155.526 25.719C155.097 25.5604 154.695 25.3737 154.322 25.159C153.958 24.9444 153.636 24.711 153.356 24.459L154.154 23.143C154.257 22.9844 154.378 22.863 154.518 22.779C154.658 22.695 154.835 22.653 155.05 22.653C155.265 22.653 155.465 22.7137 155.652 22.835C155.848 22.9564 156.072 23.087 156.324 23.227C156.576 23.367 156.87 23.4977 157.206 23.619C157.551 23.7404 157.985 23.801 158.508 23.801C158.919 23.801 159.269 23.7544 159.558 23.661C159.857 23.5584 160.099 23.4277 160.286 23.269C160.482 23.1104 160.622 22.9284 160.706 22.723C160.799 22.5084 160.846 22.289 160.846 22.065C160.846 21.729 160.743 21.4537 160.538 21.239C160.342 21.0244 160.076 20.8377 159.74 20.679C159.413 20.5204 159.035 20.3804 158.606 20.259C158.186 20.1284 157.752 19.9884 157.304 19.839C156.865 19.6897 156.431 19.517 156.002 19.321C155.582 19.1157 155.204 18.859 154.868 18.551C154.541 18.243 154.275 17.865 154.07 17.417C153.874 16.969 153.776 16.4277 153.776 15.793C153.776 15.205 153.893 14.645 154.126 14.113C154.359 13.581 154.7 13.119 155.148 12.727C155.605 12.3257 156.17 12.0084 156.842 11.775C157.523 11.5324 158.307 11.411 159.194 11.411C160.183 11.411 161.084 11.5744 161.896 11.901C162.708 12.2277 163.385 12.657 163.926 13.189L163.142 14.435ZM170.547 5.75502V13.763C170.547 14.6124 170.505 15.4477 170.421 16.269C170.337 17.081 170.229 17.9444 170.099 18.859H167.747C167.616 17.9444 167.509 17.081 167.425 16.269C167.341 15.4477 167.299 14.6124 167.299 13.763V5.75502H170.547ZM166.753 24.095C166.753 23.8057 166.804 23.5304 166.907 23.269C167.019 23.0077 167.168 22.7837 167.355 22.597C167.551 22.4104 167.779 22.261 168.041 22.149C168.302 22.037 168.582 21.981 168.881 21.981C169.17 21.981 169.445 22.037 169.707 22.149C169.968 22.261 170.192 22.4104 170.379 22.597C170.575 22.7837 170.729 23.0077 170.841 23.269C170.953 23.5304 171.009 23.8057 171.009 24.095C171.009 24.3937 170.953 24.6737 170.841 24.935C170.729 25.187 170.575 25.4064 170.379 25.593C170.192 25.7797 169.968 25.9244 169.707 26.027C169.445 26.139 169.17 26.195 168.881 26.195C168.582 26.195 168.302 26.139 168.041 26.027C167.779 25.9244 167.551 25.7797 167.355 25.593C167.168 25.4064 167.019 25.187 166.907 24.935C166.804 24.6737 166.753 24.3937 166.753 24.095Z" fill="#464646"/>
<path d="M45.3901 229.809C45.8834 229.809 46.3134 229.749 46.6801 229.629C47.0467 229.502 47.3501 229.326 47.5901 229.099C47.8367 228.866 48.0201 228.586 48.1401 228.259C48.2601 227.926 48.3201 227.556 48.3201 227.149C48.3201 226.762 48.2601 226.412 48.1401 226.099C48.0201 225.786 47.8401 225.519 47.6001 225.299C47.3601 225.079 47.0567 224.912 46.6901 224.799C46.3234 224.679 45.8901 224.619 45.3901 224.619H43.3801V229.809H45.3901ZM45.3901 222.539C46.3567 222.539 47.1934 222.652 47.9001 222.879C48.6067 223.106 49.1901 223.422 49.6501 223.829C50.1101 224.236 50.4501 224.722 50.6701 225.289C50.8967 225.856 51.0101 226.476 51.0101 227.149C51.0101 227.849 50.8934 228.492 50.6601 229.079C50.4267 229.659 50.0767 230.159 49.6101 230.579C49.1434 230.999 48.5567 231.326 47.8501 231.559C47.1501 231.792 46.3301 231.909 45.3901 231.909H43.3801V236.999H40.6901V222.539H45.3901ZM59.6973 231.539L57.9373 226.729C57.8506 226.516 57.7606 226.262 57.6673 225.969C57.5739 225.676 57.4806 225.359 57.3873 225.019C57.3006 225.359 57.2106 225.679 57.1173 225.979C57.0239 226.272 56.9339 226.529 56.8473 226.749L55.0973 231.539H59.6973ZM64.4473 236.999H62.3673C62.1339 236.999 61.9439 236.942 61.7973 236.829C61.6506 236.709 61.5406 236.562 61.4673 236.389L60.3873 233.439H54.3973L53.3173 236.389C53.2639 236.542 53.1606 236.682 53.0073 236.809C52.8539 236.936 52.6639 236.999 52.4373 236.999H50.3373L56.0273 222.539H58.7673L64.4473 236.999ZM77.4343 229.749V235.599C76.701 236.139 75.9176 236.536 75.0843 236.789C74.2576 237.036 73.371 237.159 72.4243 237.159C71.2443 237.159 70.1743 236.976 69.2143 236.609C68.261 236.242 67.4443 235.732 66.7643 235.079C66.091 234.426 65.571 233.646 65.2043 232.739C64.8376 231.832 64.6543 230.842 64.6543 229.769C64.6543 228.682 64.831 227.686 65.1843 226.779C65.5376 225.872 66.0376 225.092 66.6843 224.439C67.3376 223.786 68.1276 223.279 69.0543 222.919C69.981 222.559 71.021 222.379 72.1743 222.379C72.761 222.379 73.3076 222.426 73.8143 222.519C74.3276 222.612 74.801 222.742 75.2343 222.909C75.6743 223.069 76.0743 223.266 76.4343 223.499C76.7943 223.732 77.1243 223.989 77.4243 224.269L76.6543 225.489C76.5343 225.682 76.3776 225.802 76.1843 225.849C75.991 225.889 75.781 225.839 75.5543 225.699C75.3343 225.572 75.1143 225.446 74.8943 225.319C74.6743 225.192 74.4276 225.082 74.1543 224.989C73.8876 224.896 73.5843 224.819 73.2443 224.759C72.911 224.699 72.5243 224.669 72.0843 224.669C71.371 224.669 70.7243 224.789 70.1443 225.029C69.571 225.269 69.081 225.612 68.6743 226.059C68.2676 226.506 67.9543 227.042 67.7343 227.669C67.5143 228.296 67.4043 228.996 67.4043 229.769C67.4043 230.596 67.521 231.336 67.7543 231.989C67.9943 232.636 68.3276 233.186 68.7543 233.639C69.1876 234.086 69.7076 234.429 70.3143 234.669C70.921 234.902 71.5976 235.019 72.3443 235.019C72.8776 235.019 73.3543 234.962 73.7743 234.849C74.1943 234.736 74.6043 234.582 75.0043 234.389V231.769H73.1843C73.011 231.769 72.8743 231.722 72.7743 231.629C72.681 231.529 72.6343 231.409 72.6343 231.269V229.749H77.4343ZM82.726 224.679V228.689H87.786V230.759H82.726V234.849H89.146V236.999H80.026V222.539H89.146V224.679H82.726ZM108.583 222.539V236.999H107.203C106.99 236.999 106.81 236.966 106.663 236.899C106.523 236.826 106.387 236.706 106.253 236.539L98.7032 226.899C98.7432 227.339 98.7632 227.746 98.7632 228.119V236.999H96.3932V222.539H97.8032C97.9165 222.539 98.0132 222.546 98.0932 222.559C98.1799 222.566 98.2532 222.586 98.3132 222.619C98.3799 222.646 98.4432 222.689 98.5032 222.749C98.5632 222.802 98.6299 222.876 98.7032 222.969L106.283 232.649C106.263 232.416 106.247 232.186 106.233 231.959C106.22 231.732 106.213 231.522 106.213 231.329V222.539H108.583ZM125.593 229.769C125.593 230.829 125.417 231.812 125.063 232.719C124.717 233.619 124.223 234.399 123.583 235.059C122.943 235.719 122.173 236.236 121.273 236.609C120.373 236.976 119.373 237.159 118.273 237.159C117.18 237.159 116.183 236.976 115.283 236.609C114.383 236.236 113.61 235.719 112.963 235.059C112.323 234.399 111.827 233.619 111.473 232.719C111.12 231.812 110.943 230.829 110.943 229.769C110.943 228.709 111.12 227.729 111.473 226.829C111.827 225.922 112.323 225.139 112.963 224.479C113.61 223.819 114.383 223.306 115.283 222.939C116.183 222.566 117.18 222.379 118.273 222.379C119.007 222.379 119.697 222.466 120.343 222.639C120.99 222.806 121.583 223.046 122.123 223.359C122.663 223.666 123.147 224.042 123.573 224.489C124.007 224.929 124.373 225.422 124.673 225.969C124.973 226.516 125.2 227.109 125.353 227.749C125.513 228.389 125.593 229.062 125.593 229.769ZM122.843 229.769C122.843 228.976 122.737 228.266 122.523 227.639C122.31 227.006 122.007 226.469 121.613 226.029C121.22 225.589 120.74 225.252 120.173 225.019C119.613 224.786 118.98 224.669 118.273 224.669C117.567 224.669 116.93 224.786 116.363 225.019C115.803 225.252 115.323 225.589 114.923 226.029C114.53 226.469 114.227 227.006 114.013 227.639C113.8 228.266 113.693 228.976 113.693 229.769C113.693 230.562 113.8 231.276 114.013 231.909C114.227 232.536 114.53 233.069 114.923 233.509C115.323 233.942 115.803 234.276 116.363 234.509C116.93 234.742 117.567 234.859 118.273 234.859C118.98 234.859 119.613 234.742 120.173 234.509C120.74 234.276 121.22 233.942 121.613 233.509C122.007 233.069 122.31 232.536 122.523 231.909C122.737 231.276 122.843 230.562 122.843 229.769ZM137.567 224.749H133.207V236.999H130.517V224.749H126.157V222.539H137.567V224.749ZM146.417 224.679V228.959H151.837V231.109H146.417V236.999H143.717V222.539H152.837V224.679H146.417ZM168.699 229.769C168.699 230.829 168.522 231.812 168.169 232.719C167.822 233.619 167.329 234.399 166.689 235.059C166.049 235.719 165.279 236.236 164.379 236.609C163.479 236.976 162.479 237.159 161.379 237.159C160.285 237.159 159.289 236.976 158.389 236.609C157.489 236.236 156.715 235.719 156.069 235.059C155.429 234.399 154.932 233.619 154.579 232.719C154.225 231.812 154.049 230.829 154.049 229.769C154.049 228.709 154.225 227.729 154.579 226.829C154.932 225.922 155.429 225.139 156.069 224.479C156.715 223.819 157.489 223.306 158.389 222.939C159.289 222.566 160.285 222.379 161.379 222.379C162.112 222.379 162.802 222.466 163.449 222.639C164.095 222.806 164.689 223.046 165.229 223.359C165.769 223.666 166.252 224.042 166.679 224.489C167.112 224.929 167.479 225.422 167.779 225.969C168.079 226.516 168.305 227.109 168.459 227.749C168.619 228.389 168.699 229.062 168.699 229.769ZM165.949 229.769C165.949 228.976 165.842 228.266 165.629 227.639C165.415 227.006 165.112 226.469 164.719 226.029C164.325 225.589 163.845 225.252 163.279 225.019C162.719 224.786 162.085 224.669 161.379 224.669C160.672 224.669 160.035 224.786 159.469 225.019C158.909 225.252 158.429 225.589 158.029 226.029C157.635 226.469 157.332 227.006 157.119 227.639C156.905 228.266 156.799 228.976 156.799 229.769C156.799 230.562 156.905 231.276 157.119 231.909C157.332 232.536 157.635 233.069 158.029 233.509C158.429 233.942 158.909 234.276 159.469 234.509C160.035 234.742 160.672 234.859 161.379 234.859C162.085 234.859 162.719 234.742 163.279 234.509C163.845 234.276 164.325 233.942 164.719 233.509C165.112 233.069 165.415 232.536 165.629 231.909C165.842 231.276 165.949 230.562 165.949 229.769ZM176.881 234.829C177.401 234.829 177.865 234.742 178.271 234.569C178.685 234.396 179.031 234.152 179.311 233.839C179.591 233.526 179.805 233.146 179.951 232.699C180.105 232.252 180.181 231.752 180.181 231.199V222.539H182.871V231.199C182.871 232.059 182.731 232.856 182.451 233.589C182.178 234.316 181.781 234.946 181.261 235.479C180.748 236.006 180.121 236.419 179.381 236.719C178.641 237.012 177.808 237.159 176.881 237.159C175.948 237.159 175.111 237.012 174.371 236.719C173.631 236.419 173.001 236.006 172.481 235.479C171.968 234.946 171.571 234.316 171.291 233.589C171.018 232.856 170.881 232.059 170.881 231.199V222.539H173.571V231.189C173.571 231.742 173.645 232.242 173.791 232.689C173.945 233.136 174.161 233.519 174.441 233.839C174.728 234.152 175.075 234.396 175.481 234.569C175.895 234.742 176.361 234.829 176.881 234.829ZM198.095 222.539V236.999H196.715C196.502 236.999 196.322 236.966 196.175 236.899C196.035 236.826 195.898 236.706 195.765 236.539L188.215 226.899C188.255 227.339 188.275 227.746 188.275 228.119V236.999H185.905V222.539H187.315C187.428 222.539 187.525 222.546 187.605 222.559C187.692 222.566 187.765 222.586 187.825 222.619C187.892 222.646 187.955 222.689 188.015 222.749C188.075 222.802 188.142 222.876 188.215 222.969L195.795 232.649C195.775 232.416 195.758 232.186 195.745 231.959C195.732 231.732 195.725 231.522 195.725 231.329V222.539H198.095ZM214.155 229.769C214.155 230.829 213.978 231.802 213.625 232.689C213.272 233.576 212.775 234.339 212.135 234.979C211.495 235.619 210.725 236.116 209.825 236.469C208.925 236.822 207.925 236.999 206.825 236.999H201.315V222.539H206.825C207.925 222.539 208.925 222.719 209.825 223.079C210.725 223.432 211.495 223.929 212.135 224.569C212.775 225.202 213.272 225.962 213.625 226.849C213.978 227.736 214.155 228.709 214.155 229.769ZM211.395 229.769C211.395 228.976 211.288 228.266 211.075 227.639C210.868 227.006 210.565 226.472 210.165 226.039C209.772 225.599 209.292 225.262 208.725 225.029C208.165 224.796 207.532 224.679 206.825 224.679H204.015V234.859H206.825C207.532 234.859 208.165 234.742 208.725 234.509C209.292 234.276 209.772 233.942 210.165 233.509C210.565 233.069 210.868 232.536 211.075 231.909C211.288 231.276 211.395 230.562 211.395 229.769Z" fill="#464646"/>
<path d="M63.5956 142.679H26V125.707L63.5956 81.0127H81.5872V126.671H90.9104V142.679H81.5872V156.568H63.5956V142.679ZM63.5956 126.671V103.292L43.7259 126.671H63.5956Z" fill="#209FAE"/>
<path d="M97.3441 119.121C97.3441 104.997 99.8855 95.1115 104.968 89.4644C110.051 83.8174 117.797 80.9959 128.205 81C133.202 81 137.306 81.6178 140.519 82.8535C143.437 83.9052 146.11 85.5431 148.372 87.6665C150.278 89.4866 151.893 91.5892 153.16 93.9005C154.414 96.3137 155.358 98.8753 155.971 101.525C157.368 107.185 158.065 112.995 158.047 118.824C158.047 132.301 155.767 142.164 151.207 148.413C146.648 154.661 138.795 157.787 127.649 157.791C121.397 157.791 116.345 156.795 112.494 154.801C108.611 152.775 105.341 149.748 103.022 146.034C101.23 143.299 99.836 139.557 98.8393 134.808C97.8044 129.644 97.3034 124.387 97.3441 119.121ZM117.819 119.17C117.819 128.644 118.653 135.104 120.322 138.552C121.99 141.999 124.414 143.731 127.594 143.748C128.603 143.759 129.604 143.57 130.539 143.191C131.475 142.813 132.326 142.252 133.043 141.542C134.583 140.072 135.716 137.749 136.441 134.573C137.166 131.397 137.528 126.455 137.528 119.745C137.528 109.884 136.692 103.255 135.02 99.8565C133.348 96.4584 130.839 94.7614 127.495 94.7655C124.084 94.7655 121.613 96.4975 120.081 99.9615C118.548 103.426 117.795 109.828 117.819 119.17Z" fill="#209FAE"/>
<path d="M202.029 142.679H164.434V125.707L202.029 81.0127H220.021V126.671H229.375V142.679H220.021V156.568H202.029V142.679ZM202.029 126.671V103.292L182.166 126.671H202.029Z" fill="#209FAE"/>
<g opacity="0.3">
<path opacity="0.3" d="M90.9181 51.1544C90.9181 51.3832 90.8502 51.6068 90.723 51.7969C90.5958 51.9871 90.415 52.1351 90.2035 52.2224C89.992 52.3097 89.7594 52.3322 89.5351 52.2871C89.3108 52.242 89.105 52.1314 88.9436 51.9692C88.7823 51.807 88.6728 51.6005 88.6289 51.376C88.585 51.1515 88.6088 50.919 88.6971 50.708C88.7855 50.497 88.9346 50.3169 89.1254 50.1907C89.3162 50.0645 89.5402 49.9978 89.769 49.999C89.9204 49.999 90.0703 50.029 90.2102 50.0871C90.35 50.1452 90.477 50.2304 90.5838 50.3378C90.6905 50.4452 90.7751 50.5726 90.8325 50.7127C90.8898 50.8529 90.919 51.003 90.9181 51.1544Z" fill="#209FAE"/>
<path opacity="0.3" d="M11.8156 95.5325C12.266 95.5325 12.6311 95.1673 12.6311 94.7169C12.6311 94.2665 12.266 93.9014 11.8156 93.9014C11.3651 93.9014 11 94.2665 11 94.7169C11 95.1673 11.3651 95.5325 11.8156 95.5325Z" fill="#209FAE"/>
<path opacity="0.3" d="M146.552 214.635C147.197 214.635 147.72 214.112 147.72 213.468C147.72 212.823 147.197 212.3 146.552 212.3C145.908 212.3 145.385 212.823 145.385 213.468C145.385 214.112 145.908 214.635 146.552 214.635Z" fill="#209FAE"/>
<path opacity="0.3" d="M174.634 167.124C175.084 167.124 175.449 166.759 175.449 166.309C175.449 165.858 175.084 165.493 174.634 165.493C174.183 165.493 173.818 165.858 173.818 166.309C173.818 166.759 174.183 167.124 174.634 167.124Z" fill="#209FAE"/>
<path opacity="0.3" d="M228.799 20.2638C228.799 20.4251 228.751 20.5828 228.662 20.7169C228.572 20.851 228.445 20.9555 228.296 21.0173C228.147 21.079 227.983 21.0951 227.824 21.0637C227.666 21.0322 227.521 20.9545 227.407 20.8405C227.293 20.7264 227.215 20.5811 227.184 20.4229C227.152 20.2647 227.168 20.1007 227.23 19.9517C227.292 19.8027 227.396 19.6753 227.53 19.5857C227.665 19.4961 227.822 19.4482 227.984 19.4482C228.2 19.4482 228.407 19.5342 228.56 19.6871C228.713 19.8401 228.799 20.0475 228.799 20.2638Z" fill="#209FAE"/>
<path opacity="0.3" d="M73.4651 3.81555C73.4651 3.97685 73.4173 4.13453 73.3276 4.26865C73.238 4.40276 73.1107 4.50729 72.9616 4.56902C72.8126 4.63075 72.6486 4.6469 72.4904 4.61543C72.3322 4.58396 72.1869 4.50629 72.0729 4.39223C71.9588 4.27817 71.8811 4.13286 71.8497 3.97466C71.8182 3.81646 71.8343 3.65247 71.8961 3.50345C71.9578 3.35443 72.0623 3.22706 72.1964 3.13744C72.3306 3.04783 72.4882 3 72.6495 3C72.8653 3.00162 73.0718 3.08806 73.2244 3.24066C73.377 3.39325 73.4635 3.59975 73.4651 3.81555Z" fill="#209FAE"/>
<path opacity="0.3" d="M138.306 46.6067C138.756 46.6067 139.121 46.2416 139.121 45.7911C139.121 45.3407 138.756 44.9756 138.306 44.9756C137.855 44.9756 137.49 45.3407 137.49 45.7911C137.49 46.2416 137.855 46.6067 138.306 46.6067Z" fill="#209FAE"/>
</g>
<path d="M53.9881 46.6119C61.4643 46.6119 67.525 40.5512 67.525 33.075C67.525 25.5988 61.4643 19.5381 53.9881 19.5381C46.5118 19.5381 40.4512 25.5988 40.4512 33.075C40.4512 40.5512 46.5118 46.6119 53.9881 46.6119Z" fill="#209FAE"/>
<path opacity="0.7" d="M53.9881 46.6119C61.4643 46.6119 67.525 40.5512 67.525 33.075C67.525 25.5988 61.4643 19.5381 53.9881 19.5381C46.5118 19.5381 40.4512 25.5988 40.4512 33.075C40.4512 40.5512 46.5118 46.6119 53.9881 46.6119Z" fill="white"/>
<path opacity="0.2" d="M49.3242 22.8624C47.4807 22.8567 45.6555 23.2289 43.9614 23.9559C41.8793 26.2444 40.6434 29.1767 40.4595 32.2651C40.2756 35.3535 41.1547 38.4118 42.9505 40.9312C44.7463 43.4505 47.3506 45.2791 50.3301 46.1126C53.3096 46.9461 56.4847 46.7343 59.3271 45.5124C61.0894 43.5703 62.2499 41.1583 62.6677 38.5693C63.0855 35.9804 62.7427 33.3258 61.6808 30.9279C60.6189 28.53 58.8837 26.492 56.6859 25.0613C54.488 23.6307 51.922 22.8689 49.2995 22.8685L49.3242 22.8624Z" fill="#209FAE"/>
<path opacity="0.2" d="M47.9772 26.4378C47.9772 26.6822 47.9047 26.9211 47.769 27.1243C47.6332 27.3275 47.4402 27.4859 47.2144 27.5794C46.9886 27.673 46.7402 27.6974 46.5005 27.6498C46.2608 27.6021 46.0406 27.4844 45.8678 27.3116C45.695 27.1388 45.5773 26.9186 45.5296 26.6789C45.4819 26.4392 45.5064 26.1907 45.5999 25.965C45.6934 25.7392 45.8518 25.5462 46.055 25.4104C46.2582 25.2746 46.4971 25.2021 46.7415 25.2021C47.0693 25.2021 47.3836 25.3323 47.6153 25.5641C47.847 25.7958 47.9772 26.1101 47.9772 26.4378Z" fill="#209FAE"/>
<path opacity="0.2" d="M62.5358 25.2044C62.5358 25.4488 62.4633 25.6877 62.3276 25.8909C62.1918 26.0941 61.9988 26.2525 61.773 26.3461C61.5472 26.4396 61.2988 26.464 61.0591 26.4164C60.8194 26.3687 60.5992 26.251 60.4264 26.0782C60.2536 25.9054 60.1359 25.6852 60.0882 25.4455C60.0405 25.2058 60.065 24.9573 60.1585 24.7316C60.252 24.5058 60.4104 24.3128 60.6136 24.177C60.8168 24.0412 61.0557 23.9688 61.3001 23.9688C61.6279 23.9688 61.9422 24.0989 62.1739 24.3307C62.4056 24.5624 62.5358 24.8767 62.5358 25.2044Z" fill="#209FAE"/>
<path opacity="0.2" d="M60.0609 34.0255C60.0609 34.4263 59.942 34.8182 59.7193 35.1514C59.4966 35.4847 59.1801 35.7444 58.8098 35.8978C58.4396 36.0512 58.0321 36.0913 57.639 36.0131C57.2459 35.9349 56.8848 35.7419 56.6014 35.4585C56.318 35.1751 56.1249 34.814 56.0468 34.4209C55.9686 34.0278 56.0087 33.6203 56.1621 33.25C56.3155 32.8797 56.5752 32.5632 56.9085 32.3406C57.2417 32.1179 57.6335 31.999 58.0343 31.999C58.5718 31.999 59.0872 32.2125 59.4673 32.5926C59.8473 32.9726 60.0609 33.4881 60.0609 34.0255Z" fill="#209FAE"/>
<path opacity="0.2" d="M53.6232 39.8028C53.6232 40.338 53.4645 40.8612 53.1672 41.3063C52.8698 41.7513 52.4472 42.0981 51.9527 42.303C51.4582 42.5078 50.9141 42.5614 50.3891 42.457C49.8642 42.3525 49.382 42.0948 49.0036 41.7164C48.6251 41.3379 48.3674 40.8557 48.2629 40.3308C48.1585 39.8058 48.2121 39.2617 48.4169 38.7672C48.6218 38.2727 48.9686 37.8501 49.4136 37.5527C49.8587 37.2554 50.3819 37.0967 50.9171 37.0967C51.6348 37.0967 52.3231 37.3818 52.8306 37.8893C53.3381 38.3968 53.6232 39.0851 53.6232 39.8028Z" fill="#209FAE"/>
<path d="M214.422 196.36C215.93 189.974 211.974 183.575 205.588 182.067C199.202 180.56 192.803 184.515 191.296 190.901C189.788 197.288 193.744 203.687 200.13 205.194C206.516 206.701 212.915 202.746 214.422 196.36Z" fill="#209FAE"/>
<path opacity="0.3" d="M214.422 196.36C215.93 189.974 211.974 183.575 205.588 182.067C199.202 180.56 192.803 184.515 191.296 190.901C189.788 197.288 193.744 203.687 200.13 205.194C206.516 206.701 212.915 202.746 214.422 196.36Z" fill="white"/>
<path opacity="0.4" d="M210.363 184.432C207.729 183.637 204.901 183.782 202.362 184.84C199.822 185.899 197.73 187.807 196.441 190.237C195.152 192.668 194.747 195.47 195.295 198.166C195.843 200.862 197.31 203.284 199.446 205.019C200.553 205.355 201.705 205.526 202.862 205.525C205.315 205.525 207.708 204.765 209.711 203.351C211.715 201.936 213.232 199.936 214.054 197.625C214.876 195.314 214.962 192.805 214.301 190.443C213.64 188.081 212.265 185.981 210.363 184.432Z" fill="#209FAE"/>
<path d="M191.52 197.2C178.836 203.168 188.295 207.771 206.169 201.345C222.721 195.396 229.029 187.895 214.201 190.224C214.998 193.344 194.269 201.419 191.52 197.2Z" fill="#209FAE"/>
</svg>
