<svg width="526" height="526" viewBox="0 0 526 526" fill="none" xmlns="http://www.w3.org/2000/svg">
<path fill-rule="evenodd" clip-rule="evenodd" d="M83.3949 442.605C62.054 421.264 55.9315 388.711 62.6242 345.998C27.6892 320.528 9 293.181 9 263C9 232.819 27.6892 205.472 62.6242 180.002C55.9315 137.289 62.054 104.736 83.3949 83.3949C104.736 62.054 137.289 55.9315 180.002 62.6242C205.472 27.6892 232.819 9 263 9C293.181 9 320.528 27.6892 345.998 62.6242C388.711 55.9315 421.264 62.054 442.605 83.3949C463.946 104.736 470.068 137.289 463.376 180.002C498.311 205.472 517 232.819 517 263C517 293.181 498.311 320.528 463.376 345.998C470.068 388.711 463.946 421.264 442.605 442.605C421.264 463.946 388.711 470.068 345.998 463.376C320.528 498.311 293.181 517 263 517C232.819 517 205.472 498.311 180.002 463.376C137.289 470.068 104.736 463.946 83.3949 442.605ZM110.606 340.254C110.529 340.613 110.451 340.971 110.373 341.328C110.409 341.155 110.446 340.981 110.483 340.807C110.522 340.622 110.562 340.436 110.601 340.25C112.232 332.634 109.903 324.843 104.655 319.395C109.905 324.843 112.237 332.636 110.606 340.254ZM55.1409 262.959C55.1409 271.29 59.7017 280.772 69.4554 291.157C59.6989 280.77 55.1367 271.287 55.1367 262.955C55.1367 248.353 69.1464 230.218 100.569 209.88C108.616 204.672 112.609 195.033 110.601 185.66C102.763 149.06 105.68 126.33 116.005 116.005C126.33 105.68 149.06 102.763 185.66 110.601C195.033 112.609 204.672 108.616 209.88 100.569C230.218 69.1464 248.353 55.1367 262.955 55.1367C271.063 55.1367 280.261 59.457 290.321 68.6799C280.263 59.4597 271.066 55.1409 262.959 55.1409C248.357 55.1409 230.222 69.1506 209.885 100.573C204.676 108.62 195.037 112.613 185.664 110.606C149.064 102.767 126.335 105.684 116.009 116.009C105.684 126.335 102.767 149.064 110.606 185.664C112.613 195.037 108.62 204.676 100.573 209.885C69.1506 230.222 55.1409 248.357 55.1409 262.959ZM340.254 110.606C332.833 112.195 325.246 110.023 319.822 105.056C325.245 110.02 332.831 112.19 340.25 110.601C376.85 102.763 399.579 105.68 409.905 116.005L409.906 116.007C399.58 105.684 376.851 102.768 340.254 110.606ZM425.345 209.885C424.231 209.164 423.195 208.358 422.242 207.48C423.194 208.356 424.229 209.161 425.341 209.88C435.619 216.533 444.035 222.95 450.706 229.085C444.035 222.951 435.621 216.536 425.345 209.885ZM209.885 425.345C216.796 436.024 223.453 444.691 229.804 451.481C223.452 444.691 216.793 436.022 209.88 425.341C209.148 424.209 208.328 423.158 207.433 422.192C208.33 423.159 209.151 424.212 209.885 425.345ZM338.87 179.756L239.743 278.883L186.798 225.938L154.143 258.594L239.743 344.194L371.526 212.412L338.87 179.756Z" fill="#209FAE"/>
</svg>
