<svg width="20" height="20" viewBox="0 0 20 20" fill="none" xmlns="http://www.w3.org/2000/svg">
<path d="M12.1318 9.40242C13.0278 8.69461 13.6035 7.60139 13.6035 6.37672C13.6035 4.24784 11.8642 2.51587 9.72628 2.51587C7.58834 2.51587 5.84898 4.24784 5.84898 6.37672C5.84898 6.51625 5.85664 6.65406 5.87121 6.7898C5.43051 6.54914 4.92509 6.41199 4.38799 6.41199C2.68125 6.41199 1.29276 7.7949 1.29276 9.49472C1.29276 10.381 1.67072 11.1805 2.27388 11.7434C0.936511 12.3305 0 13.6674 0 15.2191V18.8039C0 19.4631 0.536321 19.9995 1.19557 19.9995H5.53891H5.92953H13.9136C14.6776 19.9995 15.2992 19.3779 15.2992 18.6139V13.9119C15.2992 11.8393 13.977 10.0699 12.1318 9.40242ZM9.72628 3.68773C11.2181 3.68773 12.4317 4.894 12.4317 6.37672C12.4317 7.85943 11.2181 9.0657 9.72628 9.0657C8.2345 9.0657 7.02084 7.85943 7.02084 6.37672C7.02084 4.894 8.2345 3.68773 9.72628 3.68773ZM4.38799 7.58385C5.44856 7.58385 6.3114 8.44106 6.3114 9.49472C6.3114 9.64753 6.29296 9.79917 6.25726 9.94593C5.7184 10.3126 5.25778 10.786 4.90615 11.3356C4.73845 11.382 4.56482 11.4056 4.38799 11.4056C3.32746 11.4056 2.46462 10.5484 2.46462 9.49472C2.46462 8.4411 3.32746 7.58385 4.38799 7.58385ZM1.17186 18.8039V15.2191C1.17186 13.7733 2.34813 12.597 3.79397 12.597H4.33674C4.21733 13.015 4.15334 13.4561 4.15334 13.9119V18.6139C4.15334 18.6866 4.15905 18.7579 4.16987 18.8276H1.19557C1.18385 18.8276 1.17186 18.8156 1.17186 18.8039ZM14.1273 18.6139C14.1273 18.7297 14.0294 18.8276 13.9136 18.8276H5.92957H5.53895C5.42309 18.8276 5.3252 18.7297 5.3252 18.6139V13.9119C5.3252 11.9148 6.94999 10.29 8.94711 10.29H10.5054C12.5025 10.29 14.1273 11.9148 14.1273 13.9119V18.6139Z" fill="black"/>
<path d="M19.4137 1.65459H18.3367V0.58593C18.3367 0.26234 18.0743 0 17.7508 0C17.4272 0 17.1648 0.26234 17.1648 0.58593V1.65459H16.0879C15.7643 1.65459 15.502 1.91693 15.502 2.24052C15.502 2.56411 15.7643 2.82645 16.0879 2.82645H17.1648V3.89514C17.1648 4.21873 17.4272 4.48107 17.7508 4.48107C18.0743 4.48107 18.3367 4.21873 18.3367 3.89514V2.82645H19.4137C19.7372 2.82645 19.9996 2.56411 19.9996 2.24052C19.9996 1.91693 19.7372 1.65459 19.4137 1.65459Z" fill="black"/>
</svg>
