<svg width="326" height="327" viewBox="0 0 326 327" fill="none" xmlns="http://www.w3.org/2000/svg">
<circle cx="162.5" cy="163.5" r="151.5" fill="#D75995"/>
<path d="M169.973 213.355H108.44C97.4622 213.355 88.5137 204.395 88.5137 193.401V143.24C88.5137 132.247 97.4622 123.286 108.44 123.286H121.264L125.968 112.755C128.459 107.212 133.994 103.609 139.991 103.609H166.191C172.28 103.609 177.722 107.212 180.213 112.663L184.918 123.286H197.741C208.72 123.286 217.668 132.247 217.668 143.24V165.688C217.668 168.274 215.639 170.307 213.055 170.307C210.472 170.307 208.443 168.274 208.443 165.688V143.24C208.443 137.328 203.646 132.524 197.741 132.524H182.058C180.213 132.524 178.553 131.415 177.815 129.753L171.818 116.45C170.803 114.233 168.589 112.847 166.191 112.847H139.991C137.592 112.847 135.378 114.233 134.363 116.45L128.367 129.753C127.629 131.415 125.968 132.524 124.123 132.524H108.44C102.536 132.524 97.739 137.328 97.739 143.24V193.401C97.739 199.314 102.536 204.117 108.44 204.117H169.973C172.556 204.117 174.586 206.15 174.586 208.736C174.586 211.323 172.556 213.355 169.973 213.355Z" fill="white"/>
<path d="M153.094 148.847C162.134 148.847 169.515 156.238 169.515 165.291C169.515 174.344 162.134 181.734 153.094 181.734C144.053 181.734 136.673 174.344 136.673 165.291C136.673 156.238 144.053 148.847 153.094 148.847ZM153.094 139.609C138.979 139.609 127.447 151.064 127.447 165.291C127.447 179.517 138.887 190.972 153.094 190.972C167.208 190.972 178.74 179.517 178.74 165.291C178.74 151.064 167.301 139.609 153.094 139.609Z" fill="white"/>
<path d="M231.879 213.312H194.517C191.934 213.312 189.904 211.28 189.904 208.693C189.904 206.107 191.934 204.074 194.517 204.074H231.879C234.463 204.074 236.492 206.107 236.492 208.693C236.492 211.28 234.37 213.312 231.879 213.312Z" fill="white"/>
<path d="M213.15 232.065C210.567 232.065 208.537 230.033 208.537 227.446V190.033C208.537 187.446 210.567 185.414 213.15 185.414C215.733 185.414 217.762 187.446 217.762 190.033V227.446C217.762 230.033 215.733 232.065 213.15 232.065Z" fill="white"/>
</svg>
