<svg width="44" height="40" viewBox="0 0 44 40" fill="none" xmlns="http://www.w3.org/2000/svg">
<path fill-rule="evenodd" clip-rule="evenodd" d="M15.3031 10.1818H9.71222V15.7727H5.98495V10.1818H0.394043V6.45455H5.98495V0.863647H9.71222V6.45455H15.3031V10.1818ZM33.6215 10.1818H39.5292C41.5792 10.1818 43.2565 11.8591 43.2565 13.9091V36.2727C43.2565 38.3227 41.5792 40 39.5292 40H9.71106C7.66106 40 5.98379 38.3227 5.98379 36.2727V19.5H9.71106V36.2727H39.5292V13.9091H31.9815L28.5711 10.1818H19.0292V6.45455H30.2111L33.6215 10.1818ZM24.6206 34.4091C19.4769 34.4091 15.3024 30.2346 15.3024 25.0909C15.3024 19.9473 19.4769 15.7727 24.6206 15.7727C29.7642 15.7727 33.9387 19.9473 33.9387 25.0909C33.9387 30.2346 29.7642 34.4091 24.6206 34.4091ZM24.6204 19.5C27.6954 19.5 30.2113 22.0159 30.2113 25.0909C30.2113 28.1659 27.6954 30.6818 24.6204 30.6818C21.5454 30.6818 19.0295 28.1659 19.0295 25.0909C19.0295 22.0159 21.5454 19.5 24.6204 19.5Z" fill="white"/>
</svg>
