<svg width="16" height="14" viewBox="0 0 16 14" fill="none" xmlns="http://www.w3.org/2000/svg">
<path fill-rule="evenodd" clip-rule="evenodd" d="M14.1232 1.48789H3.23979C2.85815 1.48789 2.54878 1.79726 2.54878 2.1789V2.7259H11.9984C12.7451 2.7259 13.3503 3.34852 13.3503 4.11656V7.06578L8.26145 10.1974C8.07479 10.3123 7.83508 10.2922 7.67014 10.1479L5.07288 7.87527C4.57176 7.43679 3.84157 7.38115 3.27981 7.73864L0 9.82579V4.11656C0 3.34852 0.605281 2.7259 1.35193 2.7259H1.85777V2.1789C1.85777 1.41563 2.47652 0.796875 3.23979 0.796875H14.1232C14.8865 0.796875 15.5052 1.41563 15.5052 2.1789V10.471C15.5052 11.2343 14.8865 11.8531 14.1232 11.8531H13.3503V12.4605C13.3503 13.2286 12.7451 13.8512 11.9984 13.8512H1.35193C0.605282 13.8512 0 13.2286 0 12.4605V11.0111L3.81669 8.5823C4.00394 8.46314 4.24734 8.48168 4.41437 8.62784L7.01164 10.9004C7.50646 11.3334 8.22558 11.3937 8.78554 11.0491L13.3503 8.23996V11.162H14.1232C14.5049 11.162 14.8142 10.8527 14.8142 10.471V2.1789C14.8142 1.79726 14.5049 1.48789 14.1232 1.48789ZM9.97425 5.78188C9.97425 6.48409 9.405 7.05334 8.70279 7.05334C8.00058 7.05334 7.43133 6.48409 7.43133 5.78188C7.43133 5.07967 8.00058 4.51042 8.70279 4.51042C9.405 4.51042 9.97425 5.07967 9.97425 5.78188Z" fill="#209FAE"/>
</svg>
