<svg width="17" height="15" viewBox="0 0 17 15" fill="none" xmlns="http://www.w3.org/2000/svg">
<path fill-rule="evenodd" clip-rule="evenodd" d="M15.2042 0.743897H3.48779C3.07695 0.743897 2.7439 1.07695 2.7439 1.48779V2.07812H12.9167C13.7205 2.07812 14.3721 2.7484 14.3721 3.57522V6.79932L8.86577 10.1878C8.67912 10.3027 8.43941 10.2826 8.27447 10.1383L5.39284 7.61685C4.89172 7.17837 4.16153 7.12274 3.59977 7.48022L0 9.77098V3.57522C0 2.7484 0.651605 2.07812 1.4554 2.07812H2V1.48779C2 0.666108 2.66611 0 3.48779 0H15.2042C16.0259 0 16.692 0.666108 16.692 1.48779V10.4146C16.692 11.2362 16.0259 11.9024 15.2042 11.9024H14.3721V12.5578C14.3721 13.3846 13.7205 14.0549 12.9167 14.0549H1.4554C0.651606 14.0549 0 13.3846 0 12.5578V10.9563L4.13664 8.32388C4.3239 8.20472 4.56729 8.22327 4.73433 8.36942L7.61597 10.8909C8.11079 11.3238 8.8299 11.3841 9.38987 11.0395L14.3721 7.9735V11.1585H15.2042C15.615 11.1585 15.9481 10.8254 15.9481 10.4146V1.48779C15.9481 1.07695 15.615 0.743897 15.2042 0.743897ZM10.7375 5.36877C10.7375 6.12472 10.1247 6.73754 9.36877 6.73754C8.61282 6.73754 8 6.12472 8 5.36877C8 4.61282 8.61282 4 9.36877 4C10.1247 4 10.7375 4.61282 10.7375 5.36877Z" fill="white"/>
</svg>
