<svg width="386" height="386" viewBox="0 0 386 386" fill="none" xmlns="http://www.w3.org/2000/svg">
<path d="M338.513 99.0406H309.805V70.5139C309.805 61.432 302.369 54.043 293.228 54.043H55.1467C46.0066 54.043 38.5703 61.432 38.5703 70.5139V270.122C38.5703 279.204 46.0066 286.593 55.1467 286.593H83.8565V315.12C83.8565 324.202 91.2928 331.591 100.432 331.591H338.513C347.655 331.591 355.09 324.202 355.09 315.12V115.513C355.09 106.43 347.655 99.0406 338.513 99.0406ZM341.51 115.513V206.065L306.419 169.912C305.165 168.621 303.445 167.878 301.639 167.849C299.817 167.773 298.091 168.508 296.795 169.76L200.095 263.27L156.121 217.963C153.56 215.326 148.907 215.326 146.345 217.963L97.4373 268.352V115.513C97.4373 113.87 98.7802 112.535 100.433 112.535H338.514C340.165 112.534 341.51 113.87 341.51 115.513ZM55.1467 273.099C53.4948 273.099 52.1504 271.763 52.1504 270.122V70.5139C52.1504 68.8725 53.4948 67.5368 55.1467 67.5368H293.228C294.88 67.5368 296.225 68.8725 296.225 70.5139V99.0406H100.432C91.2928 99.0406 83.8565 106.43 83.8565 115.512V273.098H55.1467V273.099ZM338.513 318.098H100.432C98.7802 318.098 97.4366 316.762 97.4366 315.121V287.792L151.232 232.367L195.055 277.517C196.31 278.808 198.03 279.551 199.836 279.579C201.615 279.595 203.384 278.919 204.68 277.669L301.38 184.158L341.511 225.504V315.121C341.51 316.762 340.165 318.098 338.513 318.098Z" fill="#6C6C6C"/>
<path d="M170.348 136.258C153.041 136.258 138.961 150.247 138.961 167.444C138.961 184.641 153.041 198.632 170.348 198.632C187.655 198.632 201.734 184.641 201.734 167.444C201.734 150.247 187.655 136.258 170.348 136.258ZM170.348 185.138C160.529 185.138 152.542 177.2 152.542 167.444C152.542 157.689 160.529 149.752 170.348 149.752C180.166 149.752 188.154 157.688 188.154 167.444C188.154 177.201 180.166 185.138 170.348 185.138Z" fill="#6C6C6C"/>
</svg>
