<svg width="268" height="236" viewBox="0 0 268 236" fill="none" xmlns="http://www.w3.org/2000/svg">
<path d="M253.422 38.2617H229.166V14.0053C229.166 6.28292 222.883 0 215.16 0H14.0053C6.28294 0 0 6.28292 0 14.0053V183.732C0 191.455 6.28294 197.738 14.0053 197.738H38.2622V221.995C38.2622 229.717 44.5452 236 52.267 236H253.422C261.145 236 267.427 229.717 267.427 221.995V52.2681C267.427 44.5446 261.145 38.2617 253.422 38.2617ZM255.954 52.2681V129.265L226.306 98.5238C225.246 97.4259 223.793 96.794 222.267 96.7701C220.727 96.7053 219.269 97.3301 218.174 98.3947L136.472 177.907L99.3185 139.382C97.1544 137.139 93.2231 137.139 91.0589 139.382L49.7367 182.228V52.2681C49.7367 50.8713 50.8713 49.7361 52.2676 49.7361H253.422C254.817 49.7355 255.954 50.8713 255.954 52.2681ZM14.0053 186.264C12.6097 186.264 11.4738 185.128 11.4738 183.732V14.0053C11.4738 12.6096 12.6097 11.4738 14.0053 11.4738H215.16C216.556 11.4738 217.692 12.6096 217.692 14.0053V38.2617H52.267C44.5452 38.2617 38.2622 44.5446 38.2622 52.2676V186.263H14.0053V186.264ZM253.422 224.527H52.267C50.8713 224.527 49.7361 223.391 49.7361 221.995V198.758L95.1881 151.629L132.214 190.021C133.274 191.118 134.728 191.75 136.253 191.774C137.756 191.788 139.251 191.213 140.346 190.15L222.048 110.637L255.954 145.794V221.995C255.954 223.391 254.817 224.527 253.422 224.527Z" fill="#464646"/>
<path d="M111.365 69.8984C96.7423 69.8984 84.8457 81.7939 84.8457 96.4164C84.8457 111.039 96.7423 122.936 111.365 122.936C125.987 122.936 137.882 111.039 137.882 96.4164C137.882 81.7939 125.987 69.8984 111.365 69.8984ZM111.365 111.461C103.068 111.461 96.3201 104.712 96.3201 96.4164C96.3201 88.1212 103.068 81.3723 111.365 81.3723C119.66 81.3723 126.409 88.1206 126.409 96.4164C126.409 104.712 119.66 111.461 111.365 111.461Z" fill="#464646"/>
</svg>
