<svg width="20" height="19" viewBox="0 0 20 19" fill="none" xmlns="http://www.w3.org/2000/svg">
<path fill-rule="evenodd" clip-rule="evenodd" d="M5.44515 3.02344H17.5376C18.3724 3.02344 19.0491 3.70018 19.0491 4.53499V16.6274C19.0491 17.4622 18.3724 18.139 17.5376 18.139H5.44515C4.61034 18.139 3.93359 17.4622 3.93359 16.6274V4.53499C3.93359 3.70018 4.61034 3.02344 5.44515 3.02344ZM5.44535 4.53427V13.2894L8.46825 10.2665L11.1134 12.9117L16.0262 7.9989L17.5378 9.51051V4.53427H5.44535ZM5.44535 16.6267V15.4271L8.46825 12.4042L12.6908 16.6267H5.44535ZM17.5378 16.6267H14.8284L12.1822 13.9805L16.0262 10.1366L17.5378 11.6482V16.6267ZM13.0032 7.55716C13.0032 6.30495 11.9881 5.28983 10.7359 5.28983C9.48365 5.28983 8.46853 6.30495 8.46853 7.55716C8.46853 8.80937 9.48365 9.82449 10.7359 9.82449C11.9881 9.82449 13.0032 8.80937 13.0032 7.55716ZM9.97965 7.55767C9.97965 7.14026 10.318 6.80189 10.7354 6.80189C11.1528 6.80189 11.4912 7.14026 11.4912 7.55767C11.4912 7.97507 11.1528 8.31345 10.7354 8.31345C10.318 8.31345 9.97965 7.97507 9.97965 7.55767Z" fill="#6C6C6C"/>
<path fill-rule="evenodd" clip-rule="evenodd" d="M2.42171 1.51155H14.5141V3.02318H16.0257V1.51155C16.0257 0.676746 15.349 0 14.5141 0H2.42171C1.5869 0 0.910156 0.676747 0.910156 1.51156V13.604C0.910156 14.4388 1.5869 15.1155 2.42171 15.1155H3.93325V13.604H2.42171V1.51155Z" fill="#6C6C6C"/>
</svg>
