<svg width="38" height="38" viewBox="0 0 38 38" fill="none" xmlns="http://www.w3.org/2000/svg">
<path fill-rule="evenodd" clip-rule="evenodd" d="M38 26.8701V11.1299L26.8701 0H11.1299L0 11.1299V26.8701L11.1299 38H26.8701L38 26.8701ZM12.5609 3.45455H25.4391L34.5455 12.5609V25.4391L25.4391 34.5455H12.5609L3.45455 25.4391V12.5609L12.5609 3.45455ZM19.0006 29.3611C19.9548 29.3611 20.7284 28.5878 20.7284 27.6338C20.7284 26.6799 19.9548 25.9066 19.0006 25.9066C18.0463 25.9066 17.2727 26.6799 17.2727 27.6338C17.2727 28.5878 18.0463 29.3611 19.0006 29.3611ZM20.7335 8.63383H17.2778V22.452H20.7335V8.63383Z" fill="#D75995"/>
</svg>
