<svg width="18" height="18" viewBox="0 0 18 18" fill="none" xmlns="http://www.w3.org/2000/svg">
<path fill-rule="evenodd" clip-rule="evenodd" d="M2.63604 15.364C1.87986 14.6078 1.66293 13.4543 1.90007 11.9409C0.662217 11.0384 0 10.0694 0 9C0 7.93061 0.662217 6.9616 1.90007 6.05911C1.66293 4.54567 1.87986 3.39221 2.63604 2.63604C3.39221 1.87986 4.54567 1.66293 6.05911 1.90007C6.9616 0.662217 7.93061 0 9 0C10.0694 0 11.0384 0.662217 11.9409 1.90007C13.4543 1.66293 14.6078 1.87986 15.364 2.63604C16.1201 3.39221 16.3371 4.54567 16.0999 6.05911C17.3378 6.9616 18 7.93061 18 9C18 10.0694 17.3378 11.0384 16.0999 11.9409C16.3371 13.4543 16.1201 14.6078 15.364 15.364C14.6078 16.1201 13.4543 16.3371 11.9409 16.0999C11.0384 17.3378 10.0694 18 9 18C7.93061 18 6.9616 17.3378 6.05911 16.0999C4.54567 16.3371 3.39221 16.1201 2.63604 15.364ZM6.2612 14.3984C6.59333 14.3272 6.93486 14.4687 7.11941 14.7538C7.84003 15.8672 8.48261 16.3636 9 16.3636C9.51739 16.3636 10.16 15.8672 10.8806 14.7538C11.0651 14.4687 11.4067 14.3272 11.7388 14.3984C13.0356 14.6761 13.841 14.5727 14.2069 14.2069C14.5727 13.841 14.6761 13.0356 14.3984 11.7388C14.3272 11.4067 14.4687 11.0651 14.7538 10.8806C15.8672 10.16 16.3636 9.51739 16.3636 9C16.3636 8.48261 15.8672 7.84003 14.7538 7.11941C14.4687 6.93486 14.3272 6.59333 14.3984 6.2612C14.6761 4.96436 14.5727 4.15897 14.2069 3.79312C13.841 3.42727 13.0356 3.32391 11.7388 3.60165C11.4067 3.67278 11.0651 3.53131 10.8806 3.24617C10.16 2.13277 9.51739 1.63636 9 1.63636C8.48261 1.63636 7.84003 2.13277 7.11941 3.24617C6.93486 3.53131 6.59333 3.67278 6.2612 3.60165C4.96436 3.32391 4.15897 3.42727 3.79312 3.79312C3.42727 4.15897 3.32391 4.96436 3.60165 6.2612C3.67278 6.59333 3.53131 6.93486 3.24617 7.11941C2.13277 7.84003 1.63636 8.48261 1.63636 9C1.63636 9.51739 2.13277 10.16 3.24617 10.8806C3.53131 11.0651 3.67278 11.4067 3.60165 11.7388C3.32391 13.0356 3.42727 13.841 3.79312 14.2069C4.15897 14.5727 4.96436 14.6761 6.2612 14.3984ZM11.6942 5.96697L8.18183 9.47934L6.30583 7.60334L5.14874 8.76042L8.18183 11.7935L12.8513 7.12406L11.6942 5.96697Z" fill="#209FAE"/>
</svg>
