<svg width="17" height="18" viewBox="0 0 17 18" fill="none" xmlns="http://www.w3.org/2000/svg">
<path fill-rule="evenodd" clip-rule="evenodd" d="M1.64112 0.964844H14.7701C15.6764 0.964844 16.4112 1.6996 16.4112 2.60596V15.7349C16.4112 16.6413 15.6764 17.376 14.7701 17.376H1.64112C0.734753 17.376 0 16.6413 0 15.7349V2.60596C0 1.6996 0.734753 0.964844 1.64112 0.964844ZM1.64129 2.60434V12.1141L4.92355 8.83181L7.79619 11.7045L13.1289 6.37176L14.7702 8.0131V2.60434H1.64129ZM1.64129 15.7333V14.435L4.92355 11.1527L9.50412 15.7333H1.64129ZM14.7702 15.7333H11.825L8.95664 12.8649L13.1289 8.69265L14.7702 10.334V15.7333ZM9.84722 5.89326C9.84722 4.53371 8.74509 3.43159 7.38555 3.43159C6.026 3.43159 4.92387 4.53371 4.92387 5.89326C4.92387 7.25281 6.026 8.35493 7.38555 8.35493C8.74509 8.35493 9.84722 7.25281 9.84722 5.89326ZM6.56422 5.89335C6.56422 5.44016 6.9316 5.07279 7.38478 5.07279C7.83796 5.07279 8.20534 5.44016 8.20534 5.89335C8.20534 6.34653 7.83796 6.7139 7.38478 6.7139C6.9316 6.7139 6.56422 6.34653 6.56422 5.89335Z" fill="#6C6C6C"/>
</svg>
