<svg width="326" height="327" viewBox="0 0 326 327" fill="none" xmlns="http://www.w3.org/2000/svg">
<path d="M282.422 83.2617H258.166V59.0053C258.166 51.2829 251.883 45 244.16 45H43.0053C35.2829 45 29 51.2829 29 59.0053V228.732C29 236.455 35.2829 242.738 43.0053 242.738H67.2622V266.995C67.2622 274.717 73.5452 281 81.267 281H282.422C290.145 281 296.427 274.717 296.427 266.995V97.2681C296.427 89.5446 290.145 83.2617 282.422 83.2617ZM284.954 97.2681V174.265L255.306 143.524C254.246 142.426 252.793 141.794 251.267 141.77C249.727 141.705 248.269 142.33 247.174 143.395L165.472 222.907L128.319 184.382C126.154 182.139 122.223 182.139 120.059 184.382L78.7367 227.228V97.2681C78.7367 95.8713 79.8713 94.7361 81.2676 94.7361H282.422C283.817 94.7355 284.954 95.8713 284.954 97.2681ZM43.0053 231.264C41.6097 231.264 40.4738 230.128 40.4738 228.732V59.0053C40.4738 57.6096 41.6097 56.4738 43.0053 56.4738H244.16C245.556 56.4738 246.692 57.6096 246.692 59.0053V83.2617H81.267C73.5452 83.2617 67.2622 89.5446 67.2622 97.2676V231.263H43.0053V231.264ZM282.422 269.527H81.267C79.8713 269.527 78.7361 268.391 78.7361 266.995V243.758L124.188 196.629L161.214 235.021C162.274 236.118 163.728 236.75 165.253 236.774C166.756 236.788 168.251 236.213 169.346 235.15L251.048 155.637L284.954 190.794V266.995C284.954 268.391 283.817 269.527 282.422 269.527Z" fill="#219FAE"/>
<path d="M140.367 114.898C125.744 114.898 113.848 126.794 113.848 141.416C113.848 156.039 125.744 167.936 140.367 167.936C154.989 167.936 166.884 156.039 166.884 141.416C166.884 126.794 154.989 114.898 140.367 114.898ZM140.367 156.461C132.07 156.461 125.322 149.712 125.322 141.416C125.322 133.121 132.07 126.372 140.367 126.372C148.662 126.372 155.41 133.121 155.41 141.416C155.41 149.712 148.662 156.461 140.367 156.461Z" fill="#219FAE"/>
</svg>
