<svg width="13" height="13" viewBox="0 0 13 13" fill="none" xmlns="http://www.w3.org/2000/svg">
<path fill-rule="evenodd" clip-rule="evenodd" d="M1.3 0H11.7C12.418 0 13 0.582031 13 1.3V11.7C13 12.418 12.418 13 11.7 13H1.3C0.58203 13 0 12.418 0 11.7V1.3C0 0.582031 0.58203 0 1.3 0ZM1.29999 1.30003V8.831L3.90005 6.23094L6.17501 8.5059L10.4 4.28085L11.7 5.58082V1.30003H1.29999ZM1.29999 11.7V10.6695L3.90005 8.06942L7.53065 11.7H1.29999ZM11.7 11.7H9.36913L7.09424 9.42513L10.4 6.11933L11.7 7.41929V11.7ZM7.79999 3.90009C7.79999 2.82312 6.92694 1.95007 5.84999 1.95007C4.77304 1.95007 3.89999 2.82312 3.89999 3.90009C3.89999 4.97705 4.77304 5.8501 5.84999 5.8501C6.92694 5.8501 7.79999 4.97705 7.79999 3.90009ZM5.20001 3.90037C5.20001 3.54121 5.49102 3.25006 5.85001 3.25006C6.20899 3.25006 6.5 3.54121 6.5 3.90037C6.5 4.25952 6.20899 4.55067 5.85001 4.55067C5.49102 4.55067 5.20001 4.25952 5.20001 3.90037Z" fill="white"/>
</svg>
