<svg width="24" height="24" viewBox="0 0 24 24" fill="none" xmlns="http://www.w3.org/2000/svg">
<path fill-rule="evenodd" clip-rule="evenodd" d="M12 24C5.37258 24 0 18.6274 0 12C0 5.37258 5.37258 0 12 0C18.6274 0 24 5.37258 24 12C24 18.6274 18.6274 24 12 24ZM12.0002 21.8184C17.4226 21.8184 21.8184 17.4226 21.8184 12.0002C21.8184 6.57778 17.4226 2.18203 12.0002 2.18203C6.57778 2.18203 2.18203 6.57778 2.18203 12.0002C2.18203 17.4226 6.57778 21.8184 12.0002 21.8184ZM6.54551 13.0908H13.73L11.2287 15.5921L12.7714 17.1349L17.9065 11.9999L12.7714 6.86484L11.2287 8.40762L13.73 10.909H6.54551V13.0908Z" fill="#209FAE"/>
</svg>
