<svg width="16" height="16" viewBox="0 0 16 16" fill="none" xmlns="http://www.w3.org/2000/svg">
<path fill-rule="evenodd" clip-rule="evenodd" d="M8 16C3.58172 16 0 12.4183 0 8C0 3.58172 3.58172 0 8 0C12.4183 0 16 3.58172 16 8C16 12.4183 12.4183 16 8 16ZM8.00118 14.544C11.6161 14.544 14.5466 11.6135 14.5466 7.99858C14.5466 4.38362 11.6161 1.45312 8.00118 1.45312C4.38623 1.45312 1.45573 4.38362 1.45573 7.99858C1.45573 11.6135 4.38623 14.544 8.00118 14.544ZM4.36458 8.72875H9.15425L7.48669 10.3963L8.51521 11.4248L11.9386 8.00148L8.51521 4.57812L7.48669 5.60664L9.15425 7.2742H4.36458V8.72875Z" fill="white"/>
</svg>
