<svg width="207" height="292" viewBox="0 0 207 292" fill="none" xmlns="http://www.w3.org/2000/svg">
<rect opacity="0.75" width="207" height="291.094" rx="19.4062" fill="black"/>
<path d="M101.73 155.25C99.2743 155.25 97.2444 153.425 96.9232 151.057L96.8789 150.398L96.8789 53.3672C96.8789 50.6877 99.051 48.5156 101.73 48.5156C104.187 48.5156 106.216 50.3408 106.538 52.7089L106.582 53.3672L106.582 150.398C106.582 153.078 104.41 155.25 101.73 155.25Z" fill="white"/>
<path d="M66.1913 95.931C64.3007 97.8297 61.2289 97.8363 59.3302 95.9458C57.604 94.2271 57.4417 91.5321 58.8468 89.6298L59.3154 89.0846L98.2831 49.9487C100.007 48.2174 102.712 48.0599 104.614 49.4763L105.159 49.9484L144.133 89.0843C146.024 90.9829 146.017 94.0548 144.119 95.9455C142.393 97.6643 139.697 97.8153 137.801 96.4021L137.258 95.9313L101.719 60.2494L66.1913 95.931Z" fill="white"/>
<path d="M82.3944 193.658H67.6123V234.656H61.5795V193.658H46.8289V188.667H82.3944V193.658ZM83.5947 217.253C83.5947 213.904 84.2475 210.893 85.553 208.219C86.8796 205.545 88.7116 203.481 91.0489 202.028C93.4073 200.575 96.0921 199.849 99.1033 199.849C103.757 199.849 107.516 201.46 110.379 204.681C113.264 207.903 114.707 212.188 114.707 217.537V217.947C114.707 221.274 114.064 224.265 112.78 226.918C111.516 229.55 109.695 231.603 107.316 233.077C104.957 234.551 102.241 235.288 99.1664 235.288C94.5339 235.288 90.7752 233.677 87.8904 230.455C85.0266 227.234 83.5947 222.97 83.5947 217.663V217.253ZM89.4696 217.947C89.4696 221.738 90.3435 224.78 92.0912 227.076C93.86 229.371 96.2184 230.519 99.1664 230.519C102.135 230.519 104.494 229.36 106.242 227.044C107.989 224.707 108.863 221.443 108.863 217.253C108.863 213.504 107.968 210.472 106.178 208.156C104.41 205.819 102.051 204.65 99.1033 204.65C96.2184 204.65 93.8916 205.797 92.1228 208.093C90.354 210.388 89.4696 213.673 89.4696 217.947ZM150.904 217.947C150.904 223.149 149.714 227.339 147.335 230.519C144.955 233.698 141.733 235.288 137.669 235.288C133.521 235.288 130.257 233.972 127.878 231.34V247.796H122.034V200.481H127.372L127.657 204.271C130.036 201.323 133.342 199.849 137.575 199.849C141.681 199.849 144.924 201.397 147.303 204.492C149.704 207.587 150.904 211.893 150.904 217.41V217.947ZM145.06 217.284C145.06 213.431 144.239 210.388 142.597 208.156C140.954 205.924 138.701 204.808 135.837 204.808C132.3 204.808 129.647 206.377 127.878 209.514V225.844C129.626 228.96 132.3 230.519 135.901 230.519C138.701 230.519 140.923 229.413 142.565 227.202C144.229 224.97 145.06 221.664 145.06 217.284Z" fill="white"/>
</svg>
