<svg width="18" height="17" viewBox="0 0 18 17" fill="none" xmlns="http://www.w3.org/2000/svg">
<path fill-rule="evenodd" clip-rule="evenodd" d="M12.7639 3.40372H15.3167C16.2613 3.40372 17.0186 4.16105 17.0186 5.10558V14.4658C17.0186 15.4103 16.2613 16.1677 15.3167 16.1677H1.70186C0.757328 16.1677 0 15.4103 0 14.4658V5.10558C0 4.16105 0.757328 3.40372 1.70186 3.40372H4.25465V1.70186C4.25465 0.757327 5.01198 0 5.95651 0H11.0621C12.0066 0 12.7639 0.757327 12.7639 1.70186V3.40372ZM11.0642 1.7021H5.95867V3.40396H11.0642V1.7021ZM15.3169 14.466H1.70203V12.7642H15.3169V14.466ZM1.70203 10.2114H15.3169V5.10584H12.7641V6.8077H11.0623V5.10584H5.95667V6.8077H4.25482V5.10584H1.70203V10.2114Z" fill="#464646"/>
</svg>
