<svg width="108" height="121" viewBox="0 0 108 121" fill="none" xmlns="http://www.w3.org/2000/svg">
<path fill-rule="evenodd" clip-rule="evenodd" d="M107.182 120.045H17.8636C7.99782 120.045 0 112.047 0 102.182V18.818C0 8.95217 7.99782 0.954346 17.8636 0.954346H107.182V96.2271C103.893 96.2271 101.227 98.893 101.227 102.182C101.227 105.47 103.893 108.136 107.182 108.136V120.045ZM89.318 102.182C89.318 100.094 89.6762 98.0896 90.3345 96.2271H17.8634C14.5748 96.2271 11.9089 98.8931 11.9089 102.182C11.9089 105.47 14.5748 108.136 17.8634 108.136H90.3345C89.6762 106.274 89.318 104.27 89.318 102.182ZM17.8634 12.8632H95.2725V84.3178H17.8634C15.7756 84.3178 13.7713 84.676 11.9089 85.3342V18.8178C11.9089 15.5292 14.5748 12.8632 17.8634 12.8632Z" fill="white"/>
</svg>
