<svg width="108" height="133" viewBox="0 0 108 133" fill="none" xmlns="http://www.w3.org/2000/svg">
<path d="M104.396 59.4952C102.945 59.4952 101.769 60.6712 101.769 62.1219V62.1726C101.769 63.6233 102.945 64.7993 104.396 64.7993C105.846 64.7993 107.022 63.6233 107.022 62.1726V62.1219C107.022 60.6712 105.846 59.4952 104.396 59.4952Z" fill="white" stroke="white" stroke-width="0.1"/>
<mask id="path-2-outside-1" maskUnits="userSpaceOnUse" x="0.057373" y="0" width="108" height="133" fill="black">
<rect fill="white" x="0.057373" width="108" height="133"/>
<path d="M106.97 18.9373C106.912 18.3508 106.645 17.7887 106.228 17.3722L90.6099 1.75453C90.1778 1.25944 89.4292 1 88.788 1H19.4485C15.4848 1 12.2599 4.2246 12.2599 8.18786V13.2969H8.246C4.28222 13.2971 1.05737 16.5245 1.05737 20.4921V124.804C1.05737 128.772 4.28222 132 8.246 132H88.5853C92.5529 132 95.7806 128.772 95.7806 124.804V119.696H99.7879C103.755 119.696 106.983 116.471 106.983 112.508V72.3837C106.983 70.9609 105.829 69.807 104.407 69.807C102.983 69.807 101.83 70.9607 101.83 72.3837V112.508C101.83 113.63 100.914 114.542 99.7879 114.542H19.4485C18.3261 114.542 17.4132 113.63 17.4132 112.508V8.18786C17.4132 7.06617 18.3261 6.15326 19.4485 6.15326H86.2112V14.5756C86.2112 18.5433 89.4358 21.7712 93.3993 21.7712H101.83V51.9521C101.83 53.3752 102.983 54.5289 104.406 54.5289C105.829 54.5289 106.983 53.3752 106.983 51.9521V19.1944C106.983 19.1079 106.979 19.0222 106.97 18.9373C106.979 19.0222 106.964 18.8746 106.97 18.9373C106.979 19.0222 106.912 18.3508 106.97 18.9373ZM19.4485 119.696H90.6273V124.804C90.6273 125.93 89.7114 126.846 88.5853 126.846H8.246C7.12354 126.846 6.21089 125.93 6.21089 124.804V20.4921C6.21089 19.3664 7.12354 18.4504 8.246 18.4504H12.2599V112.508C12.2599 116.471 15.4848 119.696 19.4485 119.696ZM93.3993 16.6177C92.2774 16.6177 91.3647 15.7014 91.3647 14.5756V9.79696L98.1854 16.6177H93.3993Z"/>
</mask>
<path d="M106.97 18.9373C106.912 18.3508 106.645 17.7887 106.228 17.3722L90.6099 1.75453C90.1778 1.25944 89.4292 1 88.788 1H19.4485C15.4848 1 12.2599 4.2246 12.2599 8.18786V13.2969H8.246C4.28222 13.2971 1.05737 16.5245 1.05737 20.4921V124.804C1.05737 128.772 4.28222 132 8.246 132H88.5853C92.5529 132 95.7806 128.772 95.7806 124.804V119.696H99.7879C103.755 119.696 106.983 116.471 106.983 112.508V72.3837C106.983 70.9609 105.829 69.807 104.407 69.807C102.983 69.807 101.83 70.9607 101.83 72.3837V112.508C101.83 113.63 100.914 114.542 99.7879 114.542H19.4485C18.3261 114.542 17.4132 113.63 17.4132 112.508V8.18786C17.4132 7.06617 18.3261 6.15326 19.4485 6.15326H86.2112V14.5756C86.2112 18.5433 89.4358 21.7712 93.3993 21.7712H101.83V51.9521C101.83 53.3752 102.983 54.5289 104.406 54.5289C105.829 54.5289 106.983 53.3752 106.983 51.9521V19.1944C106.983 19.1079 106.979 19.0222 106.97 18.9373C106.979 19.0222 106.964 18.8746 106.97 18.9373C106.979 19.0222 106.912 18.3508 106.97 18.9373ZM19.4485 119.696H90.6273V124.804C90.6273 125.93 89.7114 126.846 88.5853 126.846H8.246C7.12354 126.846 6.21089 125.93 6.21089 124.804V20.4921C6.21089 19.3664 7.12354 18.4504 8.246 18.4504H12.2599V112.508C12.2599 116.471 15.4848 119.696 19.4485 119.696ZM93.3993 16.6177C92.2774 16.6177 91.3647 15.7014 91.3647 14.5756V9.79696L98.1854 16.6177H93.3993Z" fill="white"/>
<path d="M106.228 17.3722L106.299 17.3015L106.299 17.3015L106.228 17.3722ZM90.6099 1.75453L90.5344 1.82044L90.5392 1.82524L90.6099 1.75453ZM12.2599 13.2969V13.3969H12.3599V13.2969H12.2599ZM8.246 13.2969L8.246 13.1969L8.24599 13.1969L8.246 13.2969ZM95.7806 119.696V119.596H95.6806V119.696H95.7806ZM86.2112 6.15326H86.3112V6.05326H86.2112V6.15326ZM101.83 21.7712H101.93V21.6712H101.83V21.7712ZM106.983 19.1944L106.883 19.1941V19.1944H106.983ZM90.6273 119.696H90.7273V119.596H90.6273V119.696ZM12.2599 18.4504H12.3599V18.3504H12.2599V18.4504ZM91.3647 9.79696L91.4354 9.72625L91.2647 9.55554V9.79696H91.3647ZM98.1854 16.6177V16.7177H98.4268L98.2561 16.5469L98.1854 16.6177ZM107.07 18.9274C107.009 18.3179 106.732 17.7343 106.299 17.3015L106.158 17.4429C106.558 17.8431 106.815 18.3838 106.871 18.9472L107.07 18.9274ZM106.299 17.3015L90.6807 1.68382L90.5392 1.82524L106.158 17.4429L106.299 17.3015ZM90.6853 1.68877C90.2295 1.16663 89.4502 0.9 88.788 0.9V1.1C89.4081 1.1 90.1261 1.35225 90.5346 1.82029L90.6853 1.68877ZM88.788 0.9H19.4485V1.1H88.788V0.9ZM19.4485 0.9C15.4296 0.9 12.1599 4.16936 12.1599 8.18786H12.3599C12.3599 4.27983 15.54 1.1 19.4485 1.1V0.9ZM12.1599 8.18786V13.2969H12.3599V8.18786H12.1599ZM12.2599 13.1969H8.246V13.3969H12.2599V13.1969ZM8.24599 13.1969C4.22692 13.1971 0.957373 16.4694 0.957373 20.4921H1.15737C1.15737 16.5797 4.33753 13.3971 8.246 13.3969L8.24599 13.1969ZM0.957373 20.4921V124.804H1.15737V20.4921H0.957373ZM0.957373 124.804C0.957373 128.827 4.22691 132.1 8.246 132.1V131.9C4.33754 131.9 1.15737 128.717 1.15737 124.804H0.957373ZM8.246 132.1H88.5853V131.9H8.246V132.1ZM88.5853 132.1C92.6082 132.1 95.8806 128.827 95.8806 124.804H95.6806C95.6806 128.717 92.4977 131.9 88.5853 131.9V132.1ZM95.8806 124.804V119.696H95.6806V124.804H95.8806ZM95.7806 119.796H99.7879V119.596H95.7806V119.796ZM99.7879 119.796C103.811 119.796 107.083 116.526 107.083 112.508H106.883C106.883 116.416 103.7 119.596 99.7879 119.596V119.796ZM107.083 112.508V72.3837H106.883V112.508H107.083ZM107.083 72.3837C107.083 70.9057 105.884 69.707 104.407 69.707V69.907C105.774 69.907 106.883 71.0161 106.883 72.3837H107.083ZM104.407 69.707C102.928 69.707 101.73 70.9054 101.73 72.3837H101.93C101.93 71.0159 103.039 69.907 104.407 69.907V69.707ZM101.73 72.3837V112.508H101.93V72.3837H101.73ZM101.73 112.508C101.73 113.574 100.859 114.442 99.7879 114.442V114.642C100.969 114.642 101.93 113.685 101.93 112.508H101.73ZM99.7879 114.442H19.4485V114.642H99.7879V114.442ZM19.4485 114.442C18.3813 114.442 17.5132 113.575 17.5132 112.508H17.3132C17.3132 113.685 18.2709 114.642 19.4485 114.642V114.442ZM17.5132 112.508V8.18786H17.3132V112.508H17.5132ZM17.5132 8.18786C17.5132 7.12142 18.3813 6.25326 19.4485 6.25326V6.05326C18.2709 6.05326 17.3132 7.01092 17.3132 8.18786H17.5132ZM19.4485 6.25326H86.2112V6.05326H19.4485V6.25326ZM86.1112 6.15326V14.5756H86.3112V6.15326H86.1112ZM86.1112 14.5756C86.1112 18.5984 89.3805 21.8712 93.3993 21.8712V21.6712C89.4911 21.6712 86.3112 18.4881 86.3112 14.5756H86.1112ZM93.3993 21.8712H101.83V21.6712H93.3993V21.8712ZM101.73 21.7712V51.9521H101.93V21.7712H101.73ZM101.73 51.9521C101.73 53.4304 102.928 54.6289 104.406 54.6289V54.4289C103.039 54.4289 101.93 53.32 101.93 51.9521H101.73ZM104.406 54.6289C105.884 54.6289 107.083 53.4304 107.083 51.9521H106.883C106.883 53.32 105.774 54.4289 104.406 54.4289V54.6289ZM107.083 51.9521V19.1944H106.883V51.9521H107.083ZM107.083 19.1947C107.083 19.1045 107.078 19.0154 107.07 18.9274L106.871 18.9472C106.879 19.0291 106.883 19.1114 106.883 19.1941L107.083 19.1947ZM107.07 18.9275C107.069 18.9197 107.068 18.9152 107.068 18.9132C107.068 18.9126 107.068 18.9124 107.068 18.9122C107.068 18.9121 107.068 18.9123 107.068 18.9125C107.068 18.9126 107.068 18.9127 107.068 18.9128C107.068 18.913 107.068 18.9133 107.068 18.9138C107.068 18.9141 107.068 18.9147 107.068 18.9151C107.068 18.9158 107.069 18.9182 107.069 18.9199C107.068 18.9276 106.98 19.0206 106.875 18.9572C106.872 18.9486 106.87 18.938 106.87 18.9363C106.87 18.9355 106.869 18.9344 106.869 18.934C106.869 18.9337 106.869 18.9333 106.869 18.9331C106.869 18.9327 106.869 18.9325 106.869 18.9324C106.869 18.9321 106.869 18.9319 106.869 18.9319C106.869 18.9318 106.869 18.9318 106.869 18.9319C106.869 18.932 106.869 18.9323 106.869 18.9328C106.87 18.9364 106.871 18.9462 106.871 18.9555C106.872 18.9601 106.872 18.9645 106.873 18.9679C106.873 18.9696 106.873 18.971 106.873 18.972C106.873 18.9732 106.873 18.9736 106.873 18.9734C106.873 18.9734 106.873 18.9731 106.873 18.9727C106.873 18.9726 106.873 18.9717 106.873 18.9706C106.873 18.9697 106.873 18.966 106.873 18.9632C106.906 18.8901 107.039 18.8898 107.071 18.9441C107.071 18.9466 107.072 18.9501 107.072 18.951C107.072 18.9514 107.072 18.9521 107.072 18.9524C107.072 18.9528 107.072 18.9532 107.072 18.9533C107.072 18.9536 107.072 18.9538 107.072 18.9538C107.072 18.9539 107.072 18.9538 107.072 18.9534C107.072 18.9526 107.072 18.9513 107.072 18.9492C107.071 18.945 107.071 18.938 107.07 18.9274L106.871 18.9472C106.872 18.9578 106.872 18.9648 106.873 18.969C106.873 18.9712 106.873 18.9726 106.873 18.9735C106.873 18.9739 106.873 18.9744 106.873 18.9748C106.873 18.9748 106.873 18.9751 106.873 18.9754C106.873 18.9755 106.873 18.9759 106.874 18.9764C106.874 18.9766 106.874 18.9773 106.874 18.9778C106.874 18.9787 106.874 18.9821 106.875 18.9847C106.906 19.039 107.04 19.0386 107.073 18.9656C107.073 18.9628 107.073 18.9591 107.073 18.9582C107.073 18.957 107.072 18.9561 107.072 18.9561C107.072 18.9556 107.072 18.9552 107.072 18.9552C107.072 18.9538 107.071 18.9447 107.07 18.9358C107.07 18.9266 107.069 18.9166 107.068 18.9128C107.068 18.9123 107.068 18.9119 107.068 18.9115C107.068 18.9114 107.068 18.9111 107.068 18.9109C107.068 18.9108 107.068 18.9106 107.068 18.9103C107.068 18.9101 107.068 18.9099 107.068 18.9095C107.068 18.9093 107.068 18.9089 107.068 18.9086C107.068 18.9082 107.068 18.907 107.067 18.9063C107.067 18.9045 107.065 18.8939 107.062 18.8853C106.957 18.8219 106.869 18.915 106.869 18.9227C106.869 18.9244 106.869 18.9267 106.869 18.9275C106.869 18.9279 106.869 18.9285 106.869 18.9288C106.869 18.9296 106.869 18.9302 106.869 18.9302C106.869 18.9305 106.869 18.9308 106.869 18.931C106.869 18.9313 106.869 18.9318 106.869 18.9324C106.869 18.9346 106.87 18.9392 106.871 18.947L107.07 18.9275ZM107.07 18.9274C107.055 18.7808 107.048 18.7128 107.046 18.6919C107.046 18.6893 107.046 18.6874 107.046 18.6862C107.046 18.6856 107.046 18.6852 107.045 18.6849C107.045 18.6848 107.045 18.6847 107.045 18.6846C107.045 18.6846 107.045 18.6846 107.045 18.6845C107.045 18.6844 106.936 18.595 106.846 18.704C106.846 18.7042 106.846 18.7043 106.846 18.7044C106.846 18.7046 106.847 18.7073 106.847 18.7119C106.848 18.7211 106.85 18.7381 106.852 18.7591C106.856 18.8011 106.862 18.8587 106.866 18.9005C106.868 18.9215 106.87 18.9384 106.871 18.9475C106.871 18.9519 106.871 18.9547 106.871 18.955C106.871 18.9554 106.981 19.0443 107.07 18.9356C107.07 18.9354 107.07 18.9351 107.07 18.9351C107.07 18.935 107.07 18.935 107.07 18.9349C107.07 18.9348 107.07 18.9347 107.07 18.9346C107.07 18.9343 107.07 18.9338 107.07 18.9332C107.07 18.932 107.07 18.93 107.07 18.9274L106.871 18.9472C106.871 18.9498 106.871 18.9517 106.871 18.953C106.871 18.9536 106.871 18.954 106.871 18.9543C106.871 18.9545 106.871 18.9545 106.871 18.9546C106.871 18.9546 106.871 18.9546 106.871 18.9546C106.871 18.9545 106.871 18.9543 106.871 18.9541C106.961 18.8453 107.07 18.9343 107.07 18.9346C107.07 18.9347 107.07 18.9324 107.07 18.9277C107.069 18.9186 107.067 18.9017 107.065 18.8807C107.061 18.8389 107.055 18.7813 107.051 18.7393C107.049 18.7183 107.047 18.7013 107.046 18.6921C107.046 18.6898 107.046 18.688 107.046 18.6867C107.046 18.6861 107.046 18.6856 107.046 18.6852C107.046 18.6851 107.045 18.6849 107.045 18.6848C107.045 18.6847 107.045 18.6847 107.045 18.6847C107.045 18.6847 107.045 18.6849 107.046 18.685C106.956 18.794 106.846 18.7046 106.846 18.7045C106.846 18.7045 106.846 18.7045 106.846 18.7045C106.846 18.7046 106.846 18.7046 106.846 18.7048C106.847 18.705 106.847 18.7055 106.847 18.7061C106.847 18.7072 106.847 18.7091 106.847 18.7117C106.849 18.7326 106.856 18.8006 106.871 18.9472L107.07 18.9274ZM19.4485 119.796H90.6273V119.596H19.4485V119.796ZM90.5273 119.696V124.804H90.7273V119.696H90.5273ZM90.5273 124.804C90.5273 125.875 89.6561 126.746 88.5853 126.746V126.946C89.7666 126.946 90.7273 125.985 90.7273 124.804H90.5273ZM88.5853 126.746H8.246V126.946H88.5853V126.746ZM8.246 126.746C7.17911 126.746 6.31089 125.875 6.31089 124.804H6.11089C6.11089 125.985 7.06798 126.946 8.246 126.946V126.746ZM6.31089 124.804V20.4921H6.11089V124.804H6.31089ZM6.31089 20.4921C6.31089 19.4213 7.17909 18.5504 8.246 18.5504V18.3504C7.068 18.3504 6.11089 19.3114 6.11089 20.4921H6.31089ZM8.246 18.5504H12.2599V18.3504H8.246V18.5504ZM12.1599 18.4504V112.508H12.3599V18.4504H12.1599ZM12.1599 112.508C12.1599 116.527 15.4296 119.796 19.4485 119.796V119.596C15.54 119.596 12.3599 116.416 12.3599 112.508H12.1599ZM93.3993 16.5177C92.333 16.5177 91.4647 15.6465 91.4647 14.5756H91.2647C91.2647 15.7563 92.2218 16.7177 93.3993 16.7177V16.5177ZM91.4647 14.5756V9.79696H91.2647V14.5756H91.4647ZM91.294 9.86767L98.1147 16.6884L98.2561 16.5469L91.4354 9.72625L91.294 9.86767ZM98.1854 16.5177H93.3993V16.7177H98.1854V16.5177Z" fill="white" mask="url(#path-2-outside-1)"/>
<path d="M30.3595 52.8316H30.3595C28.909 52.8319 27.733 54.0079 27.733 55.4584V102.666C27.733 104.117 28.909 105.293 30.3595 105.293H89.0042C90.4547 105.293 91.6307 104.117 91.6307 102.666V55.4584C91.6307 54.0077 90.4547 52.8316 89.0042 52.8316H30.3595ZM32.9862 64.6282V58.0854H57.0547V64.6282H32.9862ZM32.9862 76.4323V69.8818H57.0547V76.4323H32.9862ZM32.9862 88.2361V81.6858H57.0547V88.2361H32.9862ZM32.9862 100.04V93.4894H57.0547V100.04H32.9862ZM86.3775 100.04H62.308V93.4894H86.3775V100.04ZM86.3775 88.2359H62.308V81.6856H86.3775V88.2359ZM86.3775 76.4323H62.308V69.8818H86.3775V76.4323ZM86.3775 64.6282H62.308V58.0854H86.3775V64.6282Z" fill="white" stroke="white" stroke-width="0.1"/>
<path d="M91.6423 30.4454H91.6426V30.3954C91.6426 28.9447 90.4665 27.7686 89.016 27.7686H56.8292C55.3785 27.7686 54.2027 28.9447 54.2027 30.3954V40.8216C54.2027 42.2723 55.3787 43.4484 56.8292 43.4484H89.0158C90.4662 43.4484 91.6423 42.2723 91.6423 40.8216V30.4454ZM86.389 38.1951H59.4562V33.0224H86.389V38.1951Z" fill="white" stroke="white" stroke-width="0.1"/>
<path d="M35.5273 35.9067L35.5276 35.907C36.4115 36.8908 37.7116 37.0505 38.7752 37.0505C39.7884 37.0505 40.5381 36.8413 41.034 36.4322C41.528 36.0246 41.7783 35.4117 41.7786 34.5847C41.7786 34.0108 41.4147 33.5605 40.6558 33.2313C39.8905 32.9065 38.9578 32.61 37.8656 32.3493C37.8655 32.3492 37.8655 32.3492 37.8655 32.3492L37.8771 32.3006C36.7746 32.0396 35.6795 31.6917 34.577 31.2493L35.5273 35.9067ZM35.5273 35.9067C35.378 35.7439 35.2399 35.5842 35.1079 35.4316L35.0823 35.402C34.9429 35.2408 34.8098 35.0877 34.6783 34.9491L34.6782 34.949C33.5789 33.7976 32.0859 34.0242 31.1584 34.9065C30.2292 35.7904 29.8622 37.3343 30.9988 38.8203M35.5273 35.9067L30.9988 38.8203M42.0451 27.7649C41.0571 27.4742 40.1486 27.2707 39.3193 27.147C38.5059 27.0245 37.817 26.7802 37.2587 26.4151C36.7117 26.0461 36.4395 25.5748 36.4395 24.9922C36.4395 24.2864 36.698 23.7831 37.1108 23.4457C37.5255 23.1069 38.1007 22.9315 38.7392 22.8934C40.0173 22.8171 41.5272 23.2921 42.4483 24.0662L42.4484 24.0662C43.1471 24.6527 43.8704 24.8272 44.5125 24.7153C45.1534 24.6037 45.7076 24.2077 46.0713 23.664C46.7998 22.5749 46.7663 20.891 45.1515 19.6824L44.7837 19.3505L44.7838 19.3504L44.7806 19.3479C44.5293 19.156 44.0833 18.9074 43.4522 18.6029C42.8282 18.3018 42.1412 18.0712 41.385 17.9111V17.3574V16.1538V15.1388C41.385 14.3274 41.0756 13.7153 40.6089 13.3067C40.1432 12.8989 39.5237 12.6961 38.906 12.6961C38.2883 12.6961 37.6689 12.8989 37.2031 13.3067C36.7364 13.7153 36.427 14.3274 36.427 15.1388V17.3574V17.8746C34.6509 18.2301 33.1752 19.117 32.1528 20.4299L42.031 27.8128M42.0451 27.7649L42.031 27.8128M42.0451 27.7649C42.045 27.7648 42.045 27.7648 42.045 27.7648L42.031 27.8128M42.0451 27.7649C43.0404 28.0554 43.9424 28.3896 44.7713 28.7751C45.6095 29.1649 46.3049 29.8544 46.8743 30.8326L46.8744 30.8328C47.4454 31.8211 47.7219 33.0413 47.7219 34.5048C47.7219 36.6539 47.1028 38.3853 45.8589 39.687L45.8589 39.6871C44.6216 40.9752 43.1321 41.8255 41.3848 42.2442M42.031 27.8128C43.0242 28.1027 43.9238 28.4361 44.7502 28.8204C45.5769 29.205 46.2654 29.8861 46.8311 30.8578C47.3966 31.8365 47.6719 33.0474 47.6719 34.5048C47.6719 36.6438 47.056 38.3619 45.8228 39.6525C44.5832 40.943 43.0895 41.7914 41.3348 42.2047M41.3848 42.2442V42.2047H41.3348M41.3848 42.2442C41.3719 42.2472 41.3591 42.2503 41.3462 42.2533L41.3348 42.2047M41.3848 42.2442V43.8506C41.3848 44.2492 41.3705 44.5912 41.3344 44.8906M41.3348 42.2047V43.8506C41.3348 44.2495 41.3204 44.5903 41.2844 44.8876M41.2844 44.8876H41.3344C41.3344 44.8886 41.3344 44.8896 41.3344 44.8906M41.2844 44.8876C41.2844 48.5057 36.433 48.1869 36.433 45.1051V42.2267M41.2844 44.8876L41.334 44.8936C41.3341 44.8926 41.3342 44.8916 41.3344 44.8906M41.3344 44.8906C41.3337 45.8054 41.0263 46.4767 40.5607 46.9177C40.0953 47.3585 39.4758 47.5653 38.8582 47.5588C37.6238 47.5459 36.383 46.6789 36.383 45.1051V42.2666M36.433 42.2267L36.422 42.2754C36.409 42.2725 36.396 42.2696 36.383 42.2666M36.433 42.2267C35.3382 41.9803 34.3526 41.5742 33.4679 41.0088M36.433 42.2267H36.383V42.2666M36.383 42.2666C35.2985 42.0182 34.3204 41.613 33.441 41.051M33.4679 41.0088L33.4411 41.051C33.4411 41.051 33.4411 41.051 33.441 41.051M33.4679 41.0088L33.4409 41.0509C33.441 41.0509 33.441 41.0509 33.441 41.051M33.4679 41.0088C32.5616 40.4359 31.9301 39.9283 31.5676 39.4859L30.9988 38.8203M33.441 41.051C32.5335 40.4773 31.8966 39.9662 31.5289 39.5176L31.5278 39.5162L31.5278 39.5162L30.9988 38.8203M30.9988 38.8203L31.0385 38.79L30.9987 38.8202L30.9988 38.8203Z" fill="white" stroke="white" stroke-width="0.1"/>
</svg>
