<svg width="134" height="134" viewBox="0 0 134 134" fill="none" xmlns="http://www.w3.org/2000/svg">
<path d="M0 67C0 29.9969 29.9969 0 67 0V0C104.003 0 134 29.9969 134 67V67C134 104.003 104.003 134 67 134V134C29.9969 134 0 104.003 0 67V67Z" fill="#E2ECF8" fill-opacity="0.3"/>
<path d="M111.18 116.749C111.18 117.741 110.381 118.541 109.388 118.541L25.2738 118.321C24.281 118.321 23.4812 117.521 23.4812 116.528V111.509C23.4812 110.516 24.281 109.716 25.2738 109.716L109.388 109.937C110.381 109.937 111.18 110.736 111.18 111.729V116.749Z" fill="#C6DBDC"/>
<path d="M46.7569 118.375L46.7293 125.49C46.7293 126.814 45.6262 127.917 44.3024 127.917L32.3334 127.862C31.0096 127.862 29.9065 126.759 29.9065 125.435L29.9341 118.32L46.7569 118.375Z" fill="#C6DBDC"/>
<path d="M87.6279 118.458L87.6003 125.573C87.6003 126.897 88.6759 128 90.0272 128L102.024 128.028C103.348 128.028 104.451 126.952 104.451 125.601L104.478 118.486L87.6279 118.458Z" fill="#C6DBDC"/>
<path d="M93.8888 32.1658C93.8888 32.1658 91.4895 27.836 90.7724 26.6225C89.4762 24.4162 89.4762 24.4438 87.2975 24.4162C83.6572 24.4162 67.7169 24.3611 67.5514 24.3611C67.386 24.3611 51.4457 24.3059 47.8053 24.3059C45.6266 24.3059 45.6266 24.2783 44.3305 26.4846C43.6134 27.6705 41.1865 32.0003 41.1865 32.0003L33.437 31.9727C29.6312 31.9727 26.5148 35.0615 26.5148 38.8673L26.3218 109.689L108.367 109.909L108.56 39.1155C108.56 35.3097 105.472 32.1933 101.666 32.1933L93.8888 32.1658Z" fill="#F4F4F4"/>
<path d="M115.124 70.4723C114.462 70.4723 113.938 69.9207 113.938 69.2589L113.966 54.3665C113.966 53.7047 114.517 53.1807 115.179 53.1807H119.867C120.529 53.1807 121.053 53.7322 121.053 54.3941L121.026 69.2864C121.026 69.9483 120.474 70.4723 119.812 70.4723H115.124Z" fill="#F4F4F4"/>
<path d="M19.758 70.224C20.4199 70.224 20.9714 69.7 20.9714 69.0381L20.999 54.1458C20.999 53.4839 20.475 52.9324 19.8131 52.9324H15.1248C14.4629 52.9324 13.9114 53.4564 13.9114 54.1182L13.8838 69.0106C13.8838 69.6724 14.4078 70.224 15.0697 70.224H19.758Z" fill="#F4F4F4"/>
<path d="M104.534 82.8817L30.293 82.6887L30.3757 44.4375L104.644 44.6305L104.534 82.8817Z" fill="url(#paint0_linear)"/>
<path d="M109.499 119.452H25.3845C23.8125 119.452 22.5439 118.183 22.5439 116.611V111.592C22.5439 110.02 23.8125 108.751 25.3845 108.751H109.499C111.07 108.751 112.339 110.02 112.339 111.592V116.611C112.312 118.183 111.043 119.452 109.499 119.452ZM25.3845 110.82C24.9708 110.82 24.6123 111.151 24.6123 111.592V116.611C24.6123 117.025 24.9433 117.383 25.3845 117.383H109.499C109.912 117.383 110.271 117.052 110.271 116.611V111.592C110.271 111.178 109.94 110.82 109.499 110.82H25.3845Z" fill="#6F7273"/>
<path d="M44.7168 128.993H32.7202C30.8173 128.993 29.2729 127.449 29.2729 125.546V118.431C29.2729 117.852 29.7418 117.383 30.3209 117.383C30.9001 117.383 31.3689 117.852 31.3689 118.431V125.546C31.3689 126.318 32.0032 126.925 32.7478 126.925H44.7444C45.5166 126.925 46.1233 126.291 46.1233 125.546V118.431C46.1233 117.852 46.5922 117.383 47.1713 117.383C47.7504 117.383 48.1917 117.852 48.1917 118.431V125.546C48.1641 127.421 46.6197 128.993 44.7168 128.993Z" fill="#6F7273"/>
<path d="M102.135 128.993H90.1382C88.2353 128.993 86.6909 127.449 86.6909 125.546V118.431C86.6909 117.852 87.1598 117.383 87.7389 117.383C88.318 117.383 88.7869 117.852 88.7869 118.431V125.546C88.7869 126.318 89.4212 126.925 90.1658 126.925H102.162C102.935 126.925 103.541 126.291 103.541 125.546V118.431C103.541 117.852 104.01 117.383 104.589 117.383C105.168 117.383 105.637 117.852 105.637 118.431V125.546C105.61 127.421 104.038 128.993 102.135 128.993Z" fill="#6F7273"/>
<path d="M67.4413 83.8198C66.8621 83.8198 66.3933 83.351 66.3933 82.7718V44.5206C66.3933 43.9415 66.8621 43.4727 67.4413 43.4727C68.0204 43.4727 68.4893 43.9415 68.4893 44.5206V82.7718C68.4617 83.351 67.9929 83.8198 67.4413 83.8198Z" fill="#6F7273"/>
<path d="M104.562 83.8198H30.2931C29.714 83.8198 29.2451 83.351 29.2451 82.7718V44.5206C29.2451 43.9415 29.714 43.4727 30.2931 43.4727H104.562C105.141 43.4727 105.61 43.9415 105.61 44.5206V82.7718C105.61 83.351 105.141 83.8198 104.562 83.8198ZM31.3411 81.7514H103.541V45.5686H31.3411V81.7514Z" fill="#6F7273"/>
<path d="M108.45 110.82H26.4047C25.8255 110.82 25.3567 110.351 25.3567 109.772V39.0056C25.3843 34.6206 28.9419 31.063 33.3268 31.063H40.4696C41.1315 29.8771 42.7586 27.009 43.3102 26.0437C44.7167 23.6444 45.0476 23.3411 47.5573 23.3411H87.2977C89.8073 23.3411 90.1383 23.6444 91.5448 26.0437C92.0963 27.009 93.6959 29.8771 94.3853 31.063H101.528C105.913 31.063 109.471 34.6206 109.471 39.0056V109.799C109.498 110.378 109.029 110.82 108.45 110.82ZM27.4526 108.751H107.43V39.0056C107.43 35.7513 104.782 33.1314 101.556 33.1314H93.8062C93.4201 33.1314 93.0891 32.9383 92.8961 32.6074C92.8685 32.5522 90.4692 28.2776 89.7797 27.0917C89.3109 26.2644 88.9524 25.6852 88.7318 25.5198C88.5663 25.4094 88.0147 25.4094 87.3253 25.4094H47.5573C46.8678 25.4094 46.3162 25.4094 46.1508 25.5198C45.9301 25.6576 45.5716 26.2644 45.1028 27.0917C44.4133 28.2776 42.014 32.5522 41.9864 32.6074C41.7934 32.9383 41.4625 33.1314 41.0764 33.1314H33.3268C30.0726 33.1314 27.4526 35.7789 27.4526 39.0056V108.751V108.751Z" fill="#6F7273"/>
<path d="M79.0793 36.8543H55.8032C54.5345 36.8543 53.4866 35.8064 53.4866 34.5377V29.5185C53.4866 28.2499 54.5345 27.2019 55.8032 27.2019H79.0793C80.3479 27.2019 81.3959 28.2499 81.3959 29.5185V34.5377C81.3959 35.8064 80.3479 36.8543 79.0793 36.8543ZM55.7756 29.2703C55.6377 29.2703 55.5274 29.3806 55.5274 29.5185V34.5377C55.5274 34.6756 55.6377 34.786 55.7756 34.786H79.0517C79.1896 34.786 79.2999 34.6756 79.2999 34.5377V29.5185C79.2999 29.3806 79.1896 29.2703 79.0517 29.2703H55.7756Z" fill="#6F7273"/>
<path d="M119.812 71.3827H115.124C113.883 71.3827 112.89 70.3899 112.89 69.1489V54.2566C112.89 53.0155 113.883 52.0227 115.124 52.0227H119.812C121.053 52.0227 122.046 53.0155 122.046 54.2566V69.1489C122.046 70.3899 121.053 71.3827 119.812 71.3827ZM115.124 54.0911C115.041 54.0911 114.959 54.1738 114.959 54.2566V69.1489C114.959 69.2316 115.041 69.3143 115.124 69.3143H119.812C119.895 69.3143 119.978 69.2316 119.978 69.1489V54.2566C119.978 54.1738 119.895 54.0911 119.812 54.0911H115.124Z" fill="#6F7273"/>
<path d="M117.468 54.0911C116.889 54.0911 116.42 53.6223 116.42 53.0431V50.175C116.42 50.0371 116.31 49.9268 116.172 49.9268H108.422C107.843 49.9268 107.374 49.4579 107.374 48.8788C107.374 48.2996 107.843 47.8308 108.422 47.8308H116.172C117.44 47.8308 118.488 48.8788 118.488 50.1474V53.0431C118.516 53.6498 118.047 54.0911 117.468 54.0911Z" fill="#6F7273"/>
<path d="M19.7305 71.3827H15.0422C13.8012 71.3827 12.8083 70.3899 12.8083 69.1489V54.2566C12.8083 53.0155 13.8012 52.0227 15.0422 52.0227H19.7305C20.9715 52.0227 21.9644 53.0155 21.9644 54.2566V69.1489C21.9644 70.3899 20.9715 71.3827 19.7305 71.3827ZM15.0422 54.0911C14.9595 54.0911 14.8767 54.1738 14.8767 54.2566V69.1489C14.8767 69.2316 14.9595 69.3143 15.0422 69.3143H19.7305C19.8133 69.3143 19.896 69.2316 19.896 69.1489V54.2566C19.896 54.1738 19.8133 54.0911 19.7305 54.0911H15.0422Z" fill="#6F7273"/>
<path d="M17.3866 54.0904C16.8075 54.0904 16.3662 53.6215 16.3662 53.0424V50.1742C16.3662 48.9056 17.4142 47.8577 18.6828 47.8577H26.4323C27.0115 47.8577 27.4803 48.3265 27.4803 48.9056C27.4803 49.4848 27.0115 49.9536 26.4323 49.9536H18.6828C18.5449 49.9536 18.4346 50.0639 18.4346 50.2018V53.0976C18.4346 53.6491 17.9658 54.0904 17.3866 54.0904Z" fill="#6F7273"/>
<path d="M84.1808 105.167H50.6731C48.5771 105.167 48.0807 103.457 47.8601 102.629L47.8325 102.574C47.0603 99.8991 45.5435 95.128 44.9643 93.3354C43.9991 90.3845 43.5303 88.8126 44.33 87.7094C44.7437 87.1579 45.4056 86.8545 46.3432 86.8545H88.5657C89.4758 86.8545 90.1653 87.1303 90.5789 87.7094C91.3787 88.8126 90.9099 90.3845 89.9446 93.3354C89.3379 95.2107 87.8487 99.8991 87.0765 102.574L87.0489 102.629C86.7731 103.429 86.2767 105.167 84.1808 105.167ZM45.9847 88.9229C45.8744 89.4744 46.5087 91.4601 46.9224 92.6735C47.5291 94.4937 49.0459 99.2923 49.8181 101.995L49.8457 102.05C50.1215 103.015 50.2318 103.098 50.6731 103.098H84.2083C84.6496 103.098 84.7599 103.015 85.0357 102.05L85.0633 101.995C85.863 99.2923 87.3523 94.5764 87.959 92.6735C88.3451 91.4877 89.007 89.502 88.8967 88.9229C88.8415 88.9229 88.7312 88.8953 88.5657 88.8953H46.3157C46.1502 88.8953 46.0399 88.9229 45.9847 88.9229Z" fill="#6F7273"/>
<path d="M99.4595 103.374C96.0398 103.374 93.2544 100.588 93.2544 97.1685C93.2544 93.7488 96.0398 90.9634 99.4595 90.9634C102.879 90.9634 105.665 93.7488 105.665 97.1685C105.665 100.588 102.879 103.374 99.4595 103.374ZM99.4595 93.0318C97.1705 93.0318 95.3228 94.8795 95.3228 97.1685C95.3228 99.4575 97.1705 101.305 99.4595 101.305C101.749 101.305 103.596 99.4575 103.596 97.1685C103.596 94.8795 101.749 93.0318 99.4595 93.0318Z" fill="#6F7273"/>
<path d="M35.4781 103.374C32.0584 103.374 29.2729 100.588 29.2729 97.1685C29.2729 93.7488 32.0584 90.9634 35.4781 90.9634C38.8978 90.9634 41.6832 93.7488 41.6832 97.1685C41.6556 100.588 38.8978 103.374 35.4781 103.374ZM35.4781 93.0318C33.1891 93.0318 31.3413 94.8795 31.3413 97.1685C31.3413 99.4575 33.1891 101.305 35.4781 101.305C37.7671 101.305 39.6148 99.4575 39.6148 97.1685C39.5873 94.8795 37.7395 93.0318 35.4781 93.0318Z" fill="#6F7273"/>
<path d="M33.1613 83.8204C32.7476 83.8204 32.3891 83.5722 32.1961 83.1861C31.9754 82.6621 32.2236 82.0554 32.7476 81.8347L54.507 72.6236C55.0309 72.4029 55.6377 72.6511 55.8583 73.1751C56.0789 73.6991 55.8307 74.3058 55.3067 74.5265L33.575 83.7376C33.4371 83.7928 33.2992 83.8204 33.1613 83.8204Z" fill="#6F7273"/>
<path d="M59.8847 78.0291C59.6917 78.0291 59.4711 77.9739 59.278 77.836L50.5908 71.7412C50.122 71.4103 50.0117 70.776 50.3426 70.3071C50.6736 69.8383 51.3079 69.728 51.7767 70.0589L60.4915 76.1813C60.9603 76.5123 61.0706 77.1466 60.7397 77.6154C60.519 77.8912 60.2157 78.0291 59.8847 78.0291Z" fill="#6F7273"/>
<path d="M70.2822 83.8204C69.8685 83.8204 69.51 83.5722 69.3169 83.1861C69.0963 82.6621 69.3445 82.0554 69.8685 81.8347L91.6278 72.6236C92.1518 72.4029 92.7585 72.6511 92.9792 73.1751C93.1998 73.6991 92.9516 74.3058 92.4276 74.5265L70.6958 83.7376C70.5579 83.7928 70.42 83.8204 70.2822 83.8204Z" fill="#6F7273"/>
<path d="M97.0051 78.0291C96.812 78.0291 96.5914 77.9739 96.3984 77.836L87.6836 71.7136C87.2148 71.3827 87.1045 70.7484 87.4354 70.2795C87.7663 69.8107 88.4006 69.7004 88.8695 70.0313L97.5842 76.1537C98.0531 76.4847 98.1634 77.119 97.8324 77.5878C97.667 77.8912 97.336 78.0291 97.0051 78.0291Z" fill="#6F7273"/>
<path d="M88.842 94.3279H46.0404C45.4613 94.3279 44.9924 93.8591 44.9924 93.2799C44.9924 92.7008 45.4613 92.2319 46.0404 92.2319H88.842C89.4212 92.2319 89.89 92.7008 89.89 93.2799C89.89 93.8591 89.3936 94.3279 88.842 94.3279Z" fill="#6F7273"/>
<path d="M87.132 99.7332H47.7501C47.171 99.7332 46.7021 99.2643 46.7021 98.6852C46.7021 98.106 47.171 97.6372 47.7501 97.6372H87.132C87.7112 97.6372 88.18 98.106 88.18 98.6852C88.1524 99.2643 87.6836 99.7332 87.132 99.7332Z" fill="#6F7273"/>
<path d="M30.2935 64.8195C29.9626 64.8195 29.6592 64.654 29.4386 64.3782C29.1076 63.9094 29.2179 63.2751 29.6868 62.9441L48.964 49.3756C49.4329 49.0446 50.0672 49.155 50.3981 49.6238C50.7291 50.0926 50.6187 50.7269 50.1499 51.0579L30.8726 64.6264C30.7072 64.7643 30.5141 64.8195 30.2935 64.8195Z" fill="#6F7273"/>
<path d="M43.2825 65.7291C42.9516 65.7291 42.6482 65.5637 42.4276 65.2879C42.0966 64.819 42.207 64.1847 42.6758 63.8538L60.9051 50.9747C61.3739 50.6438 62.0082 50.7541 62.3392 51.2229C62.6701 51.6917 62.5598 52.326 62.091 52.657L43.8617 65.5361C43.6962 65.6464 43.4756 65.7291 43.2825 65.7291Z" fill="#6F7273"/>
<path d="M83.6294 59.3028C83.2985 59.3028 82.9951 59.1649 82.7745 58.8615C82.4436 58.3927 82.5539 57.7584 83.0227 57.4275L98.3563 46.4789C98.8251 46.1479 99.4594 46.2582 99.7904 46.7271C100.121 47.1959 100.011 47.8302 99.5421 48.1611L84.2362 59.1097C84.0431 59.2201 83.8501 59.3028 83.6294 59.3028Z" fill="#6F7273"/>
<path d="M92.3448 65.5363C92.0138 65.5363 91.7105 65.3984 91.4898 65.095C91.1589 64.6262 91.2692 63.9919 91.738 63.661L101.666 56.5733C102.135 56.2424 102.769 56.3527 103.1 56.8215C103.431 57.2904 103.321 57.9247 102.852 58.2556L92.9239 65.3433C92.7584 65.4811 92.5654 65.5363 92.3448 65.5363Z" fill="#6F7273"/>
<defs>
<linearGradient id="paint0_linear" x1="67.4645" y1="44.4318" x2="67.4645" y2="82.8748" gradientUnits="userSpaceOnUse">
<stop stop-color="#E1EEEE"/>
<stop offset="1" stop-color="#C6DBDC"/>
</linearGradient>
</defs>
</svg>
