<svg width="27" height="35" viewBox="0 0 27 35" fill="none" xmlns="http://www.w3.org/2000/svg">
<path d="M16.2106 33.3347H15.0914C14.8969 33.3347 14.7393 33.4924 14.7393 33.6869V34.0003C14.7393 34.1949 14.897 34.3525 15.0914 34.3525H16.2106C16.4052 34.3525 16.5628 34.1949 16.5628 34.0003V33.6869C16.5629 33.4924 16.4052 33.3347 16.2106 33.3347Z" fill="#3C5A73"/>
<path d="M20.6642 33.3348H19.5451C19.3505 33.3348 19.1929 33.4925 19.1929 33.687V34.0004C19.1929 34.195 19.3506 34.3526 19.5451 34.3526H20.6642C20.8588 34.3526 21.0164 34.195 21.0164 34.0004V33.687C21.0164 33.4925 20.8588 33.3348 20.6642 33.3348Z" fill="#3C5A73"/>
<path d="M18.9153 21.5971H16.8448C16.4104 21.5971 16.0571 21.2437 16.0571 20.8094V19.9533C16.0571 19.5189 16.4105 19.1656 16.8448 19.1656H18.9153C19.3497 19.1656 19.703 19.519 19.703 19.9533V20.8094C19.703 21.2438 19.3497 21.5971 18.9153 21.5971ZM16.8594 20.7949H18.9008V19.9678H16.8594V20.7949Z" fill="#A5C8CD"/>
<path d="M21.1592 20.5929H14.5955C13.9721 20.5929 13.4668 21.0983 13.4668 21.7216V32.5699C13.4668 33.1933 13.9721 33.6986 14.5955 33.6986H21.1592C21.7826 33.6986 22.2879 33.1933 22.2879 32.5699V21.7216C22.2879 21.0983 21.7826 20.5929 21.1592 20.5929Z" fill="#1C9585"/>
<path d="M17.8791 32.4673C17.6577 32.4673 17.478 32.2878 17.478 32.0662V22.3545C17.478 22.1329 17.6577 21.9534 17.8791 21.9534C18.1006 21.9534 18.2803 22.1329 18.2803 22.3545V32.0662C18.2803 32.2878 18.1006 32.4673 17.8791 32.4673Z" fill="#177D74"/>
<path d="M20.0847 32.4673C19.8632 32.4673 19.6836 32.2878 19.6836 32.0662V22.3545C19.6836 22.1329 19.8632 21.9534 20.0847 21.9534C20.3062 21.9534 20.4858 22.1329 20.4858 22.3545V32.0662C20.4858 32.2878 20.3062 32.4673 20.0847 32.4673Z" fill="#177D74"/>
<path d="M15.7375 32.4673C15.5161 32.4673 15.3364 32.2878 15.3364 32.0662V22.3545C15.3364 22.1329 15.5161 21.9534 15.7375 21.9534C15.959 21.9534 16.1387 22.1329 16.1387 22.3545V32.0662C16.1387 32.2878 15.959 32.4673 15.7375 32.4673Z" fill="#177D74"/>
<path d="M23.3601 27.1906H21.2896C20.8553 27.1906 20.502 26.8373 20.502 26.403V25.5468C20.502 25.1124 20.8553 24.7591 21.2896 24.7591H23.3601C23.7945 24.7591 24.1479 25.1124 24.1479 25.5468V26.403C24.1479 26.8373 23.7945 27.1906 23.3601 27.1906ZM21.3042 26.3884H23.3456V25.5613H21.3042V26.3884Z" fill="#853C26"/>
<path d="M20.66 33.335H19.5474C19.351 33.335 19.1919 33.4942 19.1919 33.6905V33.9973C19.1919 34.1937 19.3511 34.3528 19.5474 34.3528H20.66C20.8563 34.3528 21.0155 34.1937 21.0155 33.9973V33.6905C21.0155 33.4942 20.8563 33.335 20.66 33.335Z" fill="#853C26"/>
<path d="M25.1151 33.3351H24.0024C23.8061 33.3351 23.647 33.4943 23.647 33.6906V33.9974C23.647 34.1938 23.8061 34.3529 24.0024 34.3529H25.1151C25.3114 34.3529 25.4705 34.1938 25.4705 33.9974V33.6906C25.4705 33.4943 25.3114 33.3351 25.1151 33.3351Z" fill="#853C26"/>
<path d="M25.6075 26.3557H19.0437C18.4204 26.3557 17.915 26.8611 17.915 27.4844V32.5834C17.915 33.2067 18.4204 33.712 19.0437 33.712H25.6075C26.2308 33.712 26.7362 33.2067 26.7362 32.5834V27.4844C26.7362 26.8611 26.2308 26.3557 25.6075 26.3557Z" fill="#A85B38"/>
<path d="M21.6399 27.965H19.5544C19.3534 27.965 19.1904 28.128 19.1904 28.329V29.2861C19.1904 29.4872 19.3534 29.6502 19.5544 29.6502H21.6399C21.8409 29.6502 22.0039 29.4872 22.0039 29.2861V28.329C22.0039 28.128 21.8409 27.965 21.6399 27.965Z" fill="#55879B"/>
<path d="M25.394 29.5163C25.4193 29.0561 25.0668 28.6625 24.6066 28.6372C24.1464 28.6118 23.7528 28.9644 23.7275 29.4245C23.7022 29.8847 24.0547 30.2783 24.5149 30.3036C24.9751 30.329 25.3686 29.9765 25.394 29.5163Z" fill="#87AFB9"/>
<path d="M21.7381 29.2637C21.1856 29.2637 20.7378 29.7116 20.7378 30.2641C20.7378 30.8165 21.1856 31.2644 21.7381 31.2644C22.2906 31.2644 22.7384 30.8165 22.7384 30.2641C22.7384 29.7117 22.2906 29.2637 21.7381 29.2637Z" fill="#A5C8CD"/>
<path d="M7.85937 5.81307C9.40947 5.7028 10.5767 4.3568 10.4664 2.8067C10.3561 1.2566 9.01012 0.0893967 7.46002 0.199674C5.90992 0.309952 4.74272 1.65595 4.853 3.20605C4.96327 4.75615 6.30927 5.92335 7.85937 5.81307Z" fill="#FFB69E"/>
<path d="M9.63567 34.3603C8.73636 34.3603 8.00732 33.6312 8.00732 32.7319V19.7163C8.00732 18.817 8.73636 18.0879 9.63567 18.0879C10.535 18.0879 11.264 18.817 11.264 19.7163V32.7319C11.264 33.6312 10.5349 34.3603 9.63567 34.3603Z" fill="#414B82"/>
<path d="M5.67376 34.3609C4.77445 34.3609 4.04541 33.6319 4.04541 32.7326V19.7169C4.04541 18.8176 4.77445 18.0886 5.67376 18.0886C6.57307 18.0886 7.30211 18.8176 7.30211 19.7169V32.7326C7.30211 33.6319 6.57307 34.3609 5.67376 34.3609Z" fill="#5F6E9B"/>
<path d="M8.97348 6.70982H6.43118L6.37188 7.19444C6.27468 7.98813 6.89401 8.68795 7.69371 8.68795C8.47536 8.68795 9.08894 8.01788 9.02021 7.23923L8.97348 6.70982Z" fill="#FFB69E"/>
<path d="M0.746582 12.9V19.8862C0.746582 20.6357 1.35415 21.2432 2.10357 21.2432C2.853 21.2432 3.46057 20.6357 3.46057 19.8862V12.9L2.10357 12.5107L0.746582 12.9Z" fill="#FFB69E"/>
<path d="M13.2003 12.2422L11.8433 12.8902V19.8764C11.8433 20.6259 12.4508 21.2334 13.2003 21.2334C13.9497 21.2334 14.5572 20.6259 14.5572 19.8764V12.8902L13.2003 12.2422Z" fill="#FFB69E"/>
<path d="M14.5592 9.90325C14.5504 8.14146 13.0874 6.70812 11.298 6.70812H8.97337C9.00105 7.3927 8.36547 7.9748 7.70202 7.9748C6.9909 7.9748 6.46416 7.39491 6.43113 6.70812H4.01318C2.22083 6.70812 0.755407 8.14146 0.746582 9.90325V9.91007V12.8929H3.4605V9.91502C3.46304 9.65683 3.72591 9.42211 4.01318 9.42211H4.04614V19.7123H11.2631L11.2505 9.42204H11.2981C11.5824 9.42204 11.8426 9.6565 11.8455 9.91455V12.8929H14.5594V9.91007C14.5593 9.9078 14.5593 9.90552 14.5592 9.90325Z" fill="#64AFFF"/>
</svg>
