<svg width="99" height="152" viewBox="0 0 99 152" fill="none" xmlns="http://www.w3.org/2000/svg">
<path d="M82.9851 106.319H15.3675C13.677 106.319 12.2939 107.69 12.2939 109.365C12.2939 111.04 13.677 112.41 15.3675 112.41H82.9851C84.6756 112.41 86.0587 111.04 86.0587 109.365C86.0587 107.69 84.6756 106.319 82.9851 106.319Z" fill="white"/>
<path d="M82.9855 115.456H73.7649C72.0745 115.456 70.6914 116.826 70.6914 118.501C70.6914 120.176 72.0745 121.546 73.7649 121.546H82.9855C84.676 121.546 86.0591 120.176 86.0591 118.501C86.0591 116.826 84.676 115.456 82.9855 115.456Z" fill="white"/>
<path d="M64.5439 115.456H15.3675C13.677 115.456 12.2939 116.826 12.2939 118.501C12.2939 120.176 13.677 121.546 15.3675 121.546H64.5439C66.2344 121.546 67.6175 120.176 67.6175 118.501C67.6175 116.826 66.2344 115.456 64.5439 115.456Z" fill="white"/>
<path d="M58.3969 124.592H15.3675C13.677 124.592 12.2939 125.962 12.2939 127.637C12.2939 129.312 13.677 130.682 15.3675 130.682H58.3969C60.0873 130.682 61.4704 129.312 61.4704 127.637C61.4704 125.962 60.0873 124.592 58.3969 124.592Z" fill="white"/>
<path d="M24.5884 14.9587C26.2788 14.9587 27.6619 13.5883 27.6619 11.9134C27.6619 10.2384 26.2788 8.86804 24.5884 8.86804H12.2942C10.6038 8.86804 9.2207 10.2384 9.2207 11.9134C9.2207 13.5883 10.6038 14.9587 12.2942 14.9587H24.5884Z" fill="white"/>
<path d="M98.3529 75.7145V69.5858V59.1936V53.9404V45.3754V8.86952C98.3529 4.56799 95.3562 0.989732 91.3222 0H6.99228C2.99669 0.989732 0 4.56799 0 8.86952V142.864C0 147.927 4.11085 152 9.22059 152H89.1323C94.2421 152 98.3529 147.927 98.3529 142.864V124.592V82.0716V75.7145ZM92.2059 142.864C92.2059 144.539 90.8228 145.909 89.1323 145.909H9.22059C7.53015 145.909 6.14706 144.539 6.14706 142.864V8.86952C6.14706 7.19459 7.53015 5.82419 9.22059 5.82419H89.1323C90.8228 5.82419 92.2059 7.19459 92.2059 8.86952V142.864Z" fill="white"/>
<path d="M51.3657 92.8828L49.1758 94.7861L46.986 92.9208C28.7369 77.1232 19.4395 63.305 19.4395 51.1998C19.4395 33.9937 33.0014 21.6982 49.1758 21.6982C65.3503 21.6982 78.9122 33.9556 78.9122 51.1617C78.9122 63.2669 69.6148 77.0851 51.3657 92.8828ZM26.0475 51.1617C26.0475 60.4881 33.6545 72.2126 49.1758 86.0688C64.6587 72.2126 72.3042 60.4881 72.3042 51.1617C72.3042 37.7242 61.8542 28.2456 49.1758 28.2456C36.4975 28.2456 26.0475 37.7242 26.0475 51.1617ZM45.8718 38.0668V47.888H35.9597V54.4355H45.8718V64.2567H52.4799V54.4355H62.392V47.888H52.4799V38.0668H45.8718Z" fill="white"/>
</svg>
