<svg width="11" height="11" viewBox="0 0 11 11" fill="none" xmlns="http://www.w3.org/2000/svg">
<path fill-rule="evenodd" clip-rule="evenodd" d="M3.3 2.2H2.2V1.64995H1.1V3.3H9.9V1.64995H8.8V2.2H7.7V1.64995H3.3V2.2ZM1.1 9.89995V4.4H9.9V9.89995H1.1ZM7.7 0.55H3.3V0H2.2V0.55H1.1C0.492487 0.55 0 1.04249 0 1.65V9.9C0 10.5075 0.492487 11 1.1 11H9.9C10.5075 11 11 10.5075 11 9.9V1.65C11 1.04249 10.5075 0.55 9.9 0.55H8.8V0H7.7V0.55ZM7.31113 5.11113L4.95004 7.47222L3.68895 6.21113L2.91113 6.98895L4.95004 9.02786L8.08895 5.88895L7.31113 5.11113Z" fill="#209FAE"/>
</svg>
