<svg width="568" height="568" viewBox="0 0 568 568" fill="none" xmlns="http://www.w3.org/2000/svg">
<path d="M501.389 44.3707H474.766V0H430.396V44.3707H137.549V0H93.1784V44.3707H66.556C29.857 44.3707 0 74.2277 0 110.927V501.389C0 538.088 29.857 567.945 66.556 567.945H501.389C538.088 567.945 567.945 538.088 567.945 501.389V110.927C567.945 74.2277 538.088 44.3707 501.389 44.3707ZM523.574 501.389C523.574 513.622 513.622 523.574 501.389 523.574H66.556C54.323 523.574 44.3707 513.622 44.3707 501.389V208.542H523.574V501.389ZM523.574 164.172H44.3707V110.927C44.3707 98.6937 54.323 88.7414 66.556 88.7414H93.1784V133.112H137.549V88.7414H430.396V133.112H474.766V88.7414H501.389C513.622 88.7414 523.574 98.6937 523.574 110.927V164.172Z" fill="#3E3E3E"/>
<path d="M128.675 255.131H84.3042V299.502H128.675V255.131Z" fill="#3E3E3E"/>
<path d="M217.415 255.131H173.045V299.502H217.415V255.131Z" fill="#3E3E3E"/>
<path d="M306.159 255.131H261.788V299.502H306.159V255.131Z" fill="#3E3E3E"/>
<path d="M394.899 255.131H350.529V299.502H394.899V255.131Z" fill="#3E3E3E"/>
<path d="M483.64 255.131H439.269V299.502H483.64V255.131Z" fill="#3E3E3E"/>
<path d="M128.675 343.874H84.3042V388.245H128.675V343.874Z" fill="#3E3E3E"/>
<path d="M217.415 343.874H173.045V388.245H217.415V343.874Z" fill="#3E3E3E"/>
<path d="M306.159 343.874H261.788V388.245H306.159V343.874Z" fill="#3E3E3E"/>
<path d="M394.899 343.874H350.529V388.245H394.899V343.874Z" fill="#3E3E3E"/>
<path d="M128.675 432.615H84.3042V476.985H128.675V432.615Z" fill="#3E3E3E"/>
<path d="M217.415 432.615H173.045V476.985H217.415V432.615Z" fill="#3E3E3E"/>
<path d="M306.159 432.615H261.788V476.985H306.159V432.615Z" fill="#3E3E3E"/>
<path d="M394.899 432.615H350.529V476.985H394.899V432.615Z" fill="#3E3E3E"/>
<path d="M483.64 343.874H439.269V388.245H483.64V343.874Z" fill="#3E3E3E"/>
</svg>
