<svg width="254" height="266" viewBox="0 0 254 266" fill="none" xmlns="http://www.w3.org/2000/svg">
<path d="M229.347 36.0849H196.841V25.0477C196.841 21.7215 194.119 19 190.793 19C187.467 19 184.745 21.7215 184.745 25.0477V36.0849H133.34V25.0477C133.34 21.7215 130.618 19 127.292 19C123.966 19 121.244 21.7215 121.244 25.0477V36.0849H69.8382V25.0477C69.8382 21.7215 67.1167 19 63.7904 19C60.4642 19 57.7427 21.7215 57.7427 25.0477V36.0849H25.2361C15.7109 36.0849 8 43.7958 8 53.321V89.4562V229.764C8 239.289 15.7109 247 25.2361 247H229.347C238.873 247 246.584 239.289 246.584 229.764V89.4562V53.321C246.584 43.7958 238.873 36.0849 229.347 36.0849ZM20.0955 53.321C20.0955 50.4483 22.3634 48.1804 25.2361 48.1804H57.7427V59.2175C57.7427 62.5438 60.4642 65.2653 63.7904 65.2653C67.1167 65.2653 69.8382 62.5438 69.8382 59.2175V48.1804H121.244V59.2175C121.244 62.5438 123.966 65.2653 127.292 65.2653C130.618 65.2653 133.34 62.5438 133.34 59.2175V48.1804H184.745V59.2175C184.745 62.5438 187.467 65.2653 190.793 65.2653C194.119 65.2653 196.841 62.5438 196.841 59.2175V48.1804H229.347C232.22 48.1804 234.488 50.4483 234.488 53.321V83.4085H20.0955V53.321ZM229.347 234.753H25.2361C22.3634 234.753 20.0955 232.485 20.0955 229.613V95.504H234.488V229.764C234.488 232.485 232.22 234.753 229.347 234.753Z" fill="#58595B"/>
<path d="M139.235 121.508H115.347C112.02 121.508 109.299 124.229 109.299 127.556C109.299 130.882 112.02 133.603 115.347 133.603H139.386C142.713 133.603 145.434 130.882 145.434 127.556C145.434 124.229 142.561 121.508 139.235 121.508Z" fill="#58595B"/>
<path d="M202.737 121.508H178.849C175.522 121.508 172.801 124.229 172.801 127.556C172.801 130.882 175.522 133.603 178.849 133.603H202.888C206.215 133.603 208.936 130.882 208.936 127.556C208.936 124.229 206.063 121.508 202.737 121.508Z" fill="#58595B"/>
<path d="M139.235 159.762H115.347C112.02 159.762 109.299 162.483 109.299 165.809C109.299 169.136 112.02 171.857 115.347 171.857H139.386C142.713 171.857 145.434 169.136 145.434 165.809C145.434 162.483 142.561 159.762 139.235 159.762Z" fill="#58595B"/>
<path d="M202.737 159.762H178.849C175.522 159.762 172.801 162.483 172.801 165.809C172.801 169.136 175.522 171.857 178.849 171.857H202.888C206.215 171.857 208.936 169.136 208.936 165.809C208.936 162.483 206.063 159.762 202.737 159.762Z" fill="#58595B"/>
<path d="M75.7352 159.762H51.8466C48.5203 159.762 45.7988 162.483 45.7988 165.809C45.7988 169.136 48.5203 171.857 51.8466 171.857H75.8864C79.2126 171.857 81.9341 169.136 81.9341 165.809C81.9341 162.483 79.0614 159.762 75.7352 159.762Z" fill="#58595B"/>
<path d="M139.235 198.012H115.347C112.02 198.012 109.299 200.733 109.299 204.059C109.299 207.386 112.02 210.107 115.347 210.107H139.386C142.713 210.107 145.434 207.386 145.434 204.059C145.434 200.733 142.561 198.012 139.235 198.012Z" fill="#58595B"/>
<path d="M75.7352 198.012H51.8466C48.5203 198.012 45.7988 200.733 45.7988 204.059C45.7988 207.386 48.5203 210.107 51.8466 210.107H75.8864C79.2126 210.107 81.9341 207.386 81.9341 204.059C81.9341 200.733 79.0614 198.012 75.7352 198.012Z" fill="#58595B"/>
</svg>
