<svg width="32" height="26" viewBox="0 0 32 26" fill="none" xmlns="http://www.w3.org/2000/svg">
<path d="M16.33 20.3163C19.035 20.3163 21.2277 18.1236 21.2277 15.4187C21.2277 12.7138 19.035 10.521 16.33 10.521C13.6251 10.521 11.4324 12.7138 11.4324 15.4187C11.4324 18.1236 13.6251 20.3163 16.33 20.3163Z" fill="#209FAE"/>
<path d="M23.4848 3.02326L23.1717 1.45824C23.0028 0.613297 22.2547 0 21.393 0H11.2708C10.4092 0 9.66104 0.613297 9.49211 1.45824L9.17908 3.02326H23.4848Z" fill="#209FAE"/>
<path d="M29.0888 4.8374C26.959 4.8374 4.5692 4.8374 3.57249 4.8374C2.07217 4.8374 0.851562 6.05801 0.851562 7.55833V23.2793C0.851562 24.7796 2.07217 26.0002 3.57249 26.0002H29.0888C30.5891 26.0002 31.8097 24.7796 31.8097 23.2793V7.55833C31.8097 6.05801 30.5891 4.8374 29.0888 4.8374ZM8.5911 10.5211H5.68877C5.18788 10.5211 4.7818 10.115 4.7818 9.61415C4.7818 9.11325 5.18788 8.70717 5.68877 8.70717H8.5911C9.09199 8.70717 9.49807 9.11325 9.49807 9.61415C9.49807 10.115 9.09199 10.5211 8.5911 10.5211ZM16.3306 22.1304C12.6298 22.1304 9.619 19.1196 9.619 15.4188C9.619 11.718 12.6298 8.70717 16.3306 8.70717C20.0315 8.70717 23.0423 11.718 23.0423 15.4188C23.0423 19.1196 20.0315 22.1304 16.3306 22.1304Z" fill="#209FAE"/>
</svg>
