<svg width="125" height="105" viewBox="0 0 125 105" fill="none" xmlns="http://www.w3.org/2000/svg">
<path d="M62.4985 82.0312C73.4202 82.0312 82.2739 73.1775 82.2739 62.2559C82.2739 51.3342 73.4202 42.4805 62.4985 42.4805C51.5769 42.4805 42.7231 51.3342 42.7231 62.2559C42.7231 73.1775 51.5769 82.0312 62.4985 82.0312Z" fill="#464646"/>
<path d="M91.3867 12.207L90.1228 5.88794C89.4407 2.47632 86.4202 0 82.9409 0H42.0703C38.5913 0 35.5706 2.47632 34.8884 5.88794L33.6245 12.207H91.3867Z" fill="#464646"/>
<path d="M114.014 19.5322C105.414 19.5322 15.0107 19.5322 10.9863 19.5322C4.92847 19.5322 0 24.4607 0 30.5186V93.9951C0 100.053 4.92847 104.981 10.9863 104.981H114.014C120.072 104.981 125 100.053 125 93.9951V30.5186C125 24.4607 120.072 19.5322 114.014 19.5322ZM31.25 42.4814H19.5312C17.5088 42.4814 15.8691 40.8418 15.8691 38.8193C15.8691 36.7969 17.5088 35.1572 19.5312 35.1572H31.25C33.2725 35.1572 34.9121 36.7969 34.9121 38.8193C34.9121 40.8418 33.2725 42.4814 31.25 42.4814ZM62.5 89.3564C47.5571 89.3564 35.4004 77.1997 35.4004 62.2568C35.4004 47.314 47.5571 35.1572 62.5 35.1572C77.4429 35.1572 89.5996 47.314 89.5996 62.2568C89.5996 77.1997 77.4429 89.3564 62.5 89.3564Z" fill="#464646"/>
</svg>
