<svg width="204" height="204" viewBox="0 0 204 204" fill="none" xmlns="http://www.w3.org/2000/svg">
<path fill-rule="evenodd" clip-rule="evenodd" d="M136.555 44.2263L130.711 31.8575C129.236 28.7376 126.055 26.7216 122.607 26.7216H81.3987C77.9505 26.7216 74.7695 28.7376 73.2948 31.8575L67.4507 44.2263H136.555ZM60.0227 44.2263L67.2246 28.9838C69.8033 23.5261 75.3668 20 81.3987 20H122.607C128.639 20 134.203 23.5261 136.781 28.9838L143.983 44.2263H181.38C191.096 44.2263 199 52.138 199 61.8629V165.363C199 175.088 191.095 183 181.38 183H22.62C12.9044 183 5 175.088 5 165.363V61.8629C5 52.138 12.9044 44.2263 22.62 44.2263H60.0227ZM11.7155 61.8629C11.7155 55.8444 16.607 50.9479 22.62 50.9479H181.38C187.393 50.9479 192.284 55.8444 192.284 61.8629V165.363C192.284 171.382 187.393 176.278 181.38 176.278H22.62C16.607 176.278 11.7155 171.382 11.7155 165.363V61.8629ZM37.9128 77.1558C41.3171 73.7481 41.3171 68.2233 37.9128 64.816C34.5085 61.4082 28.9891 61.4082 25.5848 64.816C22.1805 68.2233 22.1805 73.7481 25.5848 77.1558C28.9891 80.5631 34.5085 80.5631 37.9128 77.1558ZM58.0666 113.587C58.0666 137.834 77.7743 157.56 101.998 157.56C126.223 157.56 145.93 137.834 145.93 113.587C145.93 89.3397 126.223 69.6132 101.998 69.6132C77.7743 69.6132 58.0666 89.3397 58.0666 113.587ZM64.7817 113.586C64.7817 93.0457 81.4771 76.3344 101.998 76.3344C122.52 76.3344 139.215 93.0457 139.215 113.586C139.215 134.128 122.52 150.838 101.998 150.838C81.4766 150.838 64.7817 134.127 64.7817 113.586Z" fill="#219FAE"/>
</svg>
