<svg width="19" height="18" viewBox="0 0 19 18" fill="none" xmlns="http://www.w3.org/2000/svg">
<path d="M5.89446 17.0536C5.81144 17.0536 5.72842 17.034 5.6454 16.9947C5.4586 16.8965 5.35483 16.71 5.37558 16.5136L5.72842 13.0185H3.03025C1.35946 13.0185 0 11.7323 0 10.1517V2.86681C0 1.28614 1.35946 0 3.03025 0H15.0786C16.7494 0 18.1089 1.28614 18.1089 2.86681V10.1517C18.1089 11.7323 16.7494 13.0185 15.0786 13.0185H11.4984L6.21617 16.9456C6.12277 17.0143 6.00861 17.0536 5.89446 17.0536ZM3.04063 0.971968C1.94061 0.971968 1.04814 1.8163 1.04814 2.85699V10.1418C1.04814 11.1825 1.94061 12.0269 3.04063 12.0269H6.30956C6.45485 12.0269 6.60014 12.0858 6.69353 12.1839C6.78693 12.2821 6.83882 12.4196 6.82844 12.557L6.53787 15.4533L11.0106 12.125C11.104 12.0563 11.2182 12.017 11.3323 12.017H15.0994C16.1994 12.017 17.0919 11.1727 17.0919 10.132V2.84718C17.0919 1.80649 16.1994 0.962152 15.0994 0.962152H3.04063V0.971968Z" fill="#219FAE"/>
<path d="M5.62405 7.76731C6.1456 7.76731 6.5684 7.36731 6.5684 6.87389C6.5684 6.38047 6.1456 5.98047 5.62405 5.98047C5.10249 5.98047 4.67969 6.38047 4.67969 6.87389C4.67969 7.36731 5.10249 7.76731 5.62405 7.76731Z" fill="#219FAE"/>
<path d="M9.05764 7.76731C9.57919 7.76731 10.002 7.36731 10.002 6.87389C10.002 6.38047 9.57919 5.98047 9.05764 5.98047C8.53608 5.98047 8.11328 6.38047 8.11328 6.87389C8.11328 7.36731 8.53608 7.76731 9.05764 7.76731Z" fill="#219FAE"/>
<path d="M12.4951 7.76731C13.0167 7.76731 13.4395 7.36731 13.4395 6.87389C13.4395 6.38047 13.0167 5.98047 12.4951 5.98047C11.9736 5.98047 11.5508 6.38047 11.5508 6.87389C11.5508 7.36731 11.9736 7.76731 12.4951 7.76731Z" fill="#219FAE"/>
</svg>
