<svg width="512" height="422" viewBox="0 0 512 422" fill="none" xmlns="http://www.w3.org/2000/svg">
<path d="M407 0H105C47.1016 0 0 47.1016 0 105V267.172C0 313.371 30.332 353.609 74.2852 366.488L124.996 417.203C127.812 420.016 131.625 421.598 135.605 421.598C139.582 421.598 143.398 420.016 146.211 417.203L192.73 370.68H407C464.898 370.68 512 323.578 512 265.68V105C512 47.1016 464.898 0 407 0ZM145.758 211.852C145.758 203.566 152.473 196.852 160.758 196.852H351.242C359.527 196.852 366.242 203.566 366.242 211.852C366.242 220.137 359.527 226.852 351.242 226.852H160.758C152.473 226.852 145.758 220.137 145.758 211.852ZM351.242 173.828H160.758C152.473 173.828 145.758 167.113 145.758 158.828C145.758 150.547 152.473 143.828 160.758 143.828H351.242C359.527 143.828 366.242 150.547 366.242 158.828C366.242 167.113 359.527 173.828 351.242 173.828Z" fill="#209FAE"/>
</svg>
