<svg width="326" height="327" viewBox="0 0 326 327" fill="none" xmlns="http://www.w3.org/2000/svg">
<path fill-rule="evenodd" clip-rule="evenodd" d="M263.298 20H252.098H65.9873H61.7017C33.7475 20 11 41.6518 11 68.2494V72.2532V188.441V190.843C11 217.457 33.7475 239.093 61.7017 239.093H103.333C103.987 239.705 104.601 240.365 105.171 241.055C105.637 241.605 106.073 242.186 106.478 242.783L100.945 297.909C100.598 301.222 102.335 304.362 105.46 306.011C106.85 306.67 108.238 307 109.628 307C111.536 307 113.446 306.341 115.01 305.194L203.391 239.093H263.298C291.252 239.093 314 217.457 314 190.843V68.2494C314 41.6518 291.252 20 263.298 20ZM120.911 135.67C120.911 143.976 113.837 150.696 105.111 150.696C96.3827 150.696 89.3089 143.976 89.3089 135.67C89.3089 127.364 96.3827 120.628 105.111 120.628C113.837 120.628 120.911 127.364 120.911 135.67ZM175.006 144.965C177.125 142.406 178.386 139.187 178.386 135.67C178.386 131.792 176.842 128.243 174.303 125.574C171.412 122.528 167.234 120.628 162.585 120.628C153.859 120.628 146.785 127.364 146.785 135.67C146.785 143.976 153.859 150.696 162.585 150.696C167.624 150.696 172.112 148.451 175.006 144.965ZM235.862 135.67C235.862 143.976 228.787 150.696 220.061 150.696C211.335 150.696 204.259 143.976 204.259 135.67C204.259 127.364 211.335 120.628 220.061 120.628C228.787 120.628 235.862 127.364 235.862 135.67Z" fill="#209FAE"/>
</svg>
