<svg width="326" height="327" viewBox="0 0 326 327" fill="none" xmlns="http://www.w3.org/2000/svg">
<path d="M110.674 311.041C109.312 311.041 107.951 310.7 106.589 310.018C103.526 308.314 101.823 305.076 102.164 301.667L107.951 240.993H63.6986C36.2963 240.993 14 218.666 14 191.227V64.7662C14 37.3266 36.2963 15 63.6986 15H261.301C288.704 15 311 37.3266 311 64.7662V191.227C311 218.666 288.704 240.993 261.301 240.993H202.582L115.95 309.166C114.418 310.359 112.546 311.041 110.674 311.041ZM63.8688 31.8728C45.8275 31.8728 31.1903 46.5299 31.1903 64.5958V191.056C31.1903 209.122 45.8275 223.779 63.8688 223.779H117.482C119.865 223.779 122.248 224.802 123.779 226.506C125.311 228.211 126.162 230.597 125.992 232.983L121.226 283.26L194.583 225.484C196.115 224.291 197.987 223.609 199.859 223.609H261.642C279.683 223.609 294.32 208.952 294.32 190.886V64.4253C294.32 46.3595 279.683 31.7024 261.642 31.7024H63.8688V31.8728Z" fill="#464646"/>
<path d="M106.246 149.815C114.8 149.815 121.734 142.872 121.734 134.306C121.734 125.741 114.8 118.797 106.246 118.797C97.6921 118.797 90.7578 125.741 90.7578 134.306C90.7578 142.872 97.6921 149.815 106.246 149.815Z" fill="#464646"/>
<path d="M162.582 149.815C171.136 149.815 178.07 142.872 178.07 134.306C178.07 125.741 171.136 118.797 162.582 118.797C154.028 118.797 147.094 125.741 147.094 134.306C147.094 142.872 154.028 149.815 162.582 149.815Z" fill="#464646"/>
<path d="M218.918 149.815C227.472 149.815 234.406 142.872 234.406 134.306C234.406 125.741 227.472 118.797 218.918 118.797C210.364 118.797 203.43 125.741 203.43 134.306C203.43 142.872 210.364 149.815 218.918 149.815Z" fill="#464646"/>
</svg>
