<svg width="26" height="23" viewBox="0 0 26 23" fill="none" xmlns="http://www.w3.org/2000/svg">
<path d="M16.0977 0H2.28516C1.02065 0 0 1.02065 0 2.28516V11.4258C0 12.6902 1.02065 13.7109 2.28516 13.7109H3.04688V15.9961C3.04688 16.5464 3.61669 16.9449 4.17422 16.6664C4.18945 16.6512 4.21997 16.6512 4.23521 16.6359C8.42547 13.8259 7.48637 14.4524 8.42466 13.8328C8.54648 13.7566 8.68359 13.7109 8.83594 13.7109H16.0977C17.3622 13.7109 18.3828 12.6902 18.3828 11.4258V2.28516C18.3828 1.02065 17.3622 0 16.0977 0ZM10.0039 9.14062H3.80859C2.8045 9.14062 2.80038 7.61719 3.80859 7.61719H10.0039C11.008 7.61719 11.0121 9.14062 10.0039 9.14062ZM14.5742 6.09375H3.80859C2.8045 6.09375 2.80038 4.57031 3.80859 4.57031H14.5742C15.5783 4.57031 15.5824 6.09375 14.5742 6.09375Z" fill="#464646"/>
<path d="M23.7148 6.09375H19.9062V11.4258C19.9062 13.5281 18.2 15.2344 16.0977 15.2344H9.06445L7.61719 16.1941V17.5195C7.61719 18.7839 8.63784 19.8047 9.90234 19.8047H17.3925L21.7648 22.7296C22.3616 23.061 22.9531 22.658 22.9531 22.0898V19.8047H23.7148C24.9793 19.8047 26 18.7839 26 17.5195V8.37891C26 7.11445 24.9793 6.09375 23.7148 6.09375Z" fill="#464646"/>
</svg>
