<svg width="12" height="12" viewBox="0 0 12 12" fill="none" xmlns="http://www.w3.org/2000/svg">
<path fill-rule="evenodd" clip-rule="evenodd" d="M6 12C2.68629 12 0 9.31371 0 6C0 2.68629 2.68629 0 6 0C9.31371 0 12 2.68629 12 6C12 9.31371 9.31371 12 6 12ZM5.99991 10.9093C8.71113 10.9093 10.909 8.71145 10.909 6.00024C10.909 3.28902 8.71113 1.09115 5.99991 1.09115C3.2887 1.09115 1.09082 3.28902 1.09082 6.00024C1.09082 8.71145 3.2887 10.9093 5.99991 10.9093ZM7.79613 3.97786L4.9091 6.8649L3.65843 5.61423L2.88704 6.38562L4.9091 8.40768L8.56752 4.74925L7.79613 3.97786Z" fill="#209FAE"/>
</svg>
