<svg width="15" height="15" viewBox="0 0 15 15" fill="none" xmlns="http://www.w3.org/2000/svg">
<path d="M11.1771 10.691C9.22756 12.6406 6.05564 12.6406 4.10607 10.691C2.1565 8.74146 2.1565 5.56953 4.10607 3.61996C6.05564 1.67039 9.22756 1.67039 11.1771 3.61996C13.1267 5.56953 13.1267 8.74146 11.1771 10.691ZM7.49432 3.64532C7.37941 3.64532 7.27508 3.69182 7.19966 3.76724C7.12424 3.84266 7.07768 3.94705 7.07774 4.0619L7.07768 7.00816C7.07736 7.11865 7.12133 7.22444 7.19966 7.30277L9.11476 9.21787C9.27768 9.38079 9.54133 9.38052 9.70398 9.21787C9.86663 9.05522 9.8669 8.79157 9.70398 8.62865L7.91086 6.83553L7.91091 4.0619C7.91086 3.83149 7.72468 3.64532 7.49432 3.64532Z" fill="#6C6C6C"/>
</svg>
