<svg width="36" height="41" viewBox="0 0 36 41" fill="none" xmlns="http://www.w3.org/2000/svg">
<path d="M11.8953 32.6568H5.74372C5.04185 32.6568 4.4729 32.1019 4.4729 31.4173V27.6094H13.1661V31.4173C13.1661 32.1019 12.5971 32.6568 11.8953 32.6568Z" fill="#C3D5EF"/>
<path d="M11.5611 27.6094V31.4172C11.5611 32.1018 10.9922 32.6568 10.2903 32.6568H11.8964C12.5983 32.6568 13.1672 32.1018 13.1672 31.4172V27.6094H11.5611Z" fill="#B7C8EA"/>
<path d="M35.9408 40.4967V4.58282C35.9408 2.06908 33.8515 0.03125 31.2743 0.03125H25.333C22.7558 0.03125 20.6666 2.06908 20.6666 4.58282V36.4483C20.6666 37.6863 19.6376 38.6899 18.3684 38.6899H12.3031C11.0338 38.6899 10.0049 37.6863 10.0049 36.4483V32.6562H7.63672V36.4483C7.63672 38.962 9.7259 40.9998 12.3031 40.9998H18.3684C20.9455 40.9998 23.0347 38.962 23.0347 36.4483V4.58282C23.0347 3.34473 24.0637 2.34111 25.333 2.34111H31.2744C32.5436 2.34111 33.5726 3.34473 33.5726 4.58274V40.4967C33.5726 40.7745 33.8035 40.9998 34.0883 40.9998H35.425C35.7098 40.9998 35.9408 40.7745 35.9408 40.4967Z" fill="#14646E"/>
<path d="M7.63672 32.6572H10.0049V34.505H7.63672V32.6572Z" fill="#2B4D66"/>
<path d="M12.1841 29.951H5.45625C2.44287 29.951 0 27.5683 0 24.6291V13.0302C0 12.7773 0.210174 12.5723 0.469445 12.5723H17.1709C17.4301 12.5723 17.6403 12.7773 17.6403 13.0302V24.6292C17.6403 27.5684 15.1974 29.951 12.1841 29.951Z" fill="#209FAE"/>
<path d="M17.1707 12.5723H15.126C15.3852 12.5723 15.5954 12.7773 15.5954 13.0302V24.6292C15.5954 27.5684 13.1525 29.9511 10.1392 29.9511H12.1839C15.1973 29.9511 17.6402 27.5684 17.6402 24.6292V13.0302C17.6402 12.7773 17.43 12.5723 17.1707 12.5723Z" fill="#14646E"/>
<path d="M16.3226 12.5721H1.31641V10.8862C1.31641 10.3913 1.72772 9.99023 2.23502 9.99023H15.404C15.9114 9.99023 16.3226 10.3914 16.3226 10.8862V12.5721Z" fill="#C3D5EF"/>
<path d="M15.4052 9.99023H13.2253C13.7327 9.99023 14.144 10.3914 14.144 10.8862V12.5721H16.3238V10.8862C16.3238 10.3913 15.9125 9.99023 15.4052 9.99023Z" fill="#B7C8EA"/>
<path d="M6.33623 9.99121H3.96118V1.15825C3.96118 0.518587 4.49286 0 5.14867 0C5.80448 0 6.33615 0.518587 6.33615 1.15825V9.99121H6.33623Z" fill="#EAB14D"/>
<path d="M13.68 9.99121H11.3049V1.15825C11.3049 0.518587 11.8366 0 12.4924 0C13.1482 0 13.6799 0.518587 13.6799 1.15825V9.99121H13.68Z" fill="#EAB14D"/>
<path d="M3.96118 8.53418H6.33623V9.99016H3.96118V8.53418Z" fill="#E49542"/>
<path d="M11.3047 8.53418H13.6797V9.99016H11.3047V8.53418Z" fill="#E49542"/>
<path d="M12.8294 16.1319H4.81106C4.46066 16.1319 4.17676 15.8549 4.17676 15.5132C4.17676 15.1714 4.46074 14.8945 4.81106 14.8945H12.8294C13.1798 14.8945 13.4637 15.1715 13.4637 15.5132C13.4637 15.8549 13.1798 16.1319 12.8294 16.1319Z" fill="#D8E2F1"/>
<path d="M11.5601 19.0723H6.07912C5.72872 19.0723 5.44482 18.7953 5.44482 18.4536C5.44482 18.112 5.72881 17.835 6.07912 17.835H11.5602C11.9106 17.835 12.1945 18.112 12.1945 18.4536C12.1945 18.7953 11.9105 19.0723 11.5601 19.0723Z" fill="#D8E2F1"/>
</svg>
