<svg width="22" height="17" viewBox="0 0 22 17" fill="none" xmlns="http://www.w3.org/2000/svg">
<path d="M6.71645 17H2.45793C1.10035 17 0 15.8981 0 14.5387V2.46128C0 1.10185 1.10035 0 2.45793 0H14.519C15.8765 0 16.9769 1.10185 16.9769 2.46128V4.43602C16.9769 4.8367 16.6625 5.15151 16.2624 5.15151C15.8622 5.15151 15.5479 4.8367 15.5479 4.43602V2.46128C15.5479 1.88889 15.0763 1.43098 14.519 1.43098H2.45793C1.88632 1.43098 1.42903 1.9032 1.42903 2.46128V14.5387C1.42903 15.1111 1.90061 15.569 2.45793 15.569H6.71645C7.11657 15.569 7.43096 15.8838 7.43096 16.2845C7.43096 16.6852 7.11657 17 6.71645 17Z" fill="#D65B94"/>
<path d="M12.3341 16.3306C12.134 16.3306 11.9339 16.2448 11.791 16.0874L6.17495 9.67658C5.91773 9.37608 5.94631 8.93248 6.2464 8.66059C6.5465 8.40302 6.9895 8.43163 7.26101 8.73213L12.3198 14.5133L20.1509 5.12608C20.4081 4.82557 20.8654 4.78265 21.1512 5.04022C21.4513 5.2978 21.4942 5.7414 21.2369 6.0419L12.8771 16.0587C12.7485 16.2448 12.5484 16.3306 12.3341 16.3306Z" fill="#D65B94"/>
</svg>
