<svg width="40" height="28" viewBox="0 0 40 28" fill="none" xmlns="http://www.w3.org/2000/svg">
<path d="M39.2168 14.7932V6.02309C39.2168 3.15438 36.9217 0.859375 34.053 0.859375H9.87381C5.20188 0.941364 1.34961 4.79363 1.34961 9.46556V14.7932H39.2168Z" fill="#F2F2F2"/>
<path d="M1.34961 13.973V22.5791H39.2168V10.6944H13.3983C12.0049 10.6944 10.6115 11.2682 9.62792 12.3336C8.64443 13.3992 7.33298 13.973 5.85764 13.973H1.34961Z" fill="#FF7058"/>
<path d="M13.3983 10.6944C12.0049 10.6944 10.6115 11.2682 9.62792 12.3336C8.64443 13.3992 7.33298 13.973 5.85764 13.973H1.34961V14.7926H5.85764C7.25099 14.7926 8.64443 14.2189 9.62799 13.1534C10.6116 12.0879 11.923 11.5141 13.3983 11.5141H39.2169V10.6944H13.3983Z" fill="#84DBFF"/>
<path d="M2.41467 18.8905H1.34912V15.8578H2.41467C3.23434 15.8578 3.89002 16.5135 3.89002 17.3331V17.497C3.80803 18.2347 3.15235 18.8905 2.41467 18.8905Z" fill="#F2F2F2"/>
<path d="M39.2166 15.8578H37.8232V18.8905H39.2166V15.8578Z" fill="#F2F2F2"/>
<path d="M39.7889 21.5964C39.7889 22.1702 39.3791 22.58 38.8053 22.58H1.42985C0.856082 22.58 0.446289 22.1702 0.446289 21.5964C0.446289 21.1046 0.856082 20.6128 1.42985 20.6128H38.8053C39.3791 20.6128 39.7889 21.1046 39.7889 21.5964Z" fill="#FFD15C"/>
<path d="M36.7532 22.5782H25.8521C25.8521 21.9225 26.016 21.2667 26.1799 20.6111C26.9995 18.5619 28.9666 17.0866 31.2617 17.0866C33.5567 17.0866 35.5238 18.5619 36.3434 20.6111C36.5893 21.2667 36.7532 21.9224 36.7532 22.5782Z" fill="#F1543F"/>
<path d="M36.7537 22.58H25.8525C25.8525 21.9243 26.0164 21.2685 26.1804 20.6128H36.262C36.5898 21.2685 36.7537 21.9242 36.7537 22.58Z" fill="#F8B64C"/>
<path d="M14.6249 22.5782H3.80566C3.80566 21.9225 3.88765 21.2667 4.13354 20.6111C4.87122 18.5619 6.92034 17.0866 9.21527 17.0866C11.5102 17.0866 13.4774 18.5619 14.297 20.6111C14.543 21.2667 14.6249 21.9224 14.6249 22.5782Z" fill="#F1543F"/>
<path d="M14.6254 22.58H3.80615C3.80615 21.9243 3.88814 21.2685 4.13403 20.6128H14.2156C14.5434 21.2685 14.6254 21.9242 14.6254 22.58Z" fill="#F8B64C"/>
<path d="M31.3453 27.1698C33.8803 27.1698 35.9353 25.1148 35.9353 22.5799C35.9353 20.0449 33.8803 17.9899 31.3453 17.9899C28.8104 17.9899 26.7554 20.0449 26.7554 22.5799C26.7554 25.1148 28.8104 27.1698 31.3453 27.1698Z" fill="#40596B"/>
<path d="M31.3451 24.5471C32.4315 24.5471 33.3122 23.6664 33.3122 22.58C33.3122 21.4936 32.4315 20.6128 31.3451 20.6128C30.2586 20.6128 29.3779 21.4936 29.3779 22.58C29.3779 23.6664 30.2586 24.5471 31.3451 24.5471Z" fill="#F2F2F2"/>
<path d="M9.21934 27.1698C11.7543 27.1698 13.8093 25.1148 13.8093 22.5799C13.8093 20.0449 11.7543 17.9899 9.21934 17.9899C6.68438 17.9899 4.62939 20.0449 4.62939 22.5799C4.62939 25.1148 6.68438 27.1698 9.21934 27.1698Z" fill="#40596B"/>
<path d="M9.21566 24.5471C10.3021 24.5471 11.1828 23.6664 11.1828 22.58C11.1828 21.4936 10.3021 20.6128 9.21566 20.6128C8.12925 20.6128 7.24854 21.4936 7.24854 22.58C7.24854 23.6664 8.12925 24.5471 9.21566 24.5471Z" fill="#F2F2F2"/>
<path d="M10.3624 2.98972V10.2026C9.70669 10.5304 9.2149 10.9402 8.72312 11.432C7.98545 12.2517 6.91989 12.6615 5.85442 12.6615H3.39551V9.38289C3.39551 5.77651 6.3462 2.90773 9.87066 2.90773H10.3624V2.98972H10.3624Z" fill="#54C0EB"/>
<path d="M28.885 2.99117H20.8525V9.46633H28.885V2.99117Z" fill="#54C0EB"/>
<path d="M37.1647 6.02385V9.46633H30.1978V2.99117H34.05C35.7713 2.99117 37.1647 4.38461 37.1647 6.02385Z" fill="#54C0EB"/>
<path d="M19.6267 2.99117V9.46633H13.3975C12.8237 9.46633 12.168 9.54832 11.5942 9.71222V2.99117H19.6267Z" fill="#54C0EB"/>
<path d="M30.1147 8.56616L34.7047 3.07457C34.4588 2.99258 34.2949 2.99258 34.049 2.99258H33.1474L30.1147 6.68095V8.56616Z" fill="#84DBFF"/>
<path d="M20.853 9.22185L26.0167 2.99258H24.3775L20.853 7.25472V9.22185Z" fill="#84DBFF"/>
<path d="M11.5874 9.30384L16.833 2.99258H15.2758L11.5874 7.41862V9.30384Z" fill="#84DBFF"/>
<path d="M9.29587 2.99317C8.5582 3.07516 7.90252 3.23906 7.24676 3.48495L3.4764 8.07489C3.39441 8.56667 3.3125 8.97647 3.3125 9.46825V10.2059L9.29587 2.99317Z" fill="#84DBFF"/>
</svg>
