<svg width="20" height="20" viewBox="0 0 20 20" fill="none" xmlns="http://www.w3.org/2000/svg">
<path d="M20 15H16.6667V5.83333C16.6667 5.17029 16.4033 4.53441 15.9344 4.06557C15.4656 3.59673 14.8297 3.33333 14.1667 3.33333H5V0H3.33333V3.33333H0V5H3.33333V14.1667C3.33333 14.8297 3.59673 15.4656 4.06557 15.9344C4.53441 16.4033 5.17029 16.6667 5.83333 16.6667H15V20H16.6667V16.6667H20V15ZM5.83333 15C5.61232 15 5.40036 14.9122 5.24408 14.7559C5.0878 14.5996 5 14.3877 5 14.1667V5H14.1667C14.3877 5 14.5996 5.0878 14.7559 5.24408C14.9122 5.40036 15 5.61232 15 5.83333V15H5.83333Z" fill="#464646"/>
</svg>
