<svg width="245" height="245" viewBox="0 0 245 245" fill="none" xmlns="http://www.w3.org/2000/svg">
<path d="M245 122.5C245 190.155 190.155 245 122.5 245C54.8451 245 0 190.155 0 122.5C0 54.8451 54.8451 0 122.5 0C190.155 0 245 54.8451 245 122.5Z" fill="#C4C4C4"/>
<mask id="mask0" mask-type="alpha" maskUnits="userSpaceOnUse" x="0" y="0" width="245" height="245">
<path d="M245 122.5C245 190.155 190.155 245 122.5 245C54.8451 245 0 190.155 0 122.5C0 54.8451 54.8451 0 122.5 0C190.155 0 245 54.8451 245 122.5Z" fill="#C4C4C4"/>
</mask>
<g mask="url(#mask0)">
<path d="M167.917 188.163C143.155 178.198 135.001 165.817 137.115 148H121.964H120.152H109.885C111.999 165.817 103.845 178.198 79.0832 188.163C54.3217 198.128 51 209 51 209H117.273H121.964H196C196 209 192.678 198.128 167.917 188.163Z" fill="#898989"/>
<path d="M147 175.748C138.443 168.144 135.641 159.148 136.991 148H121.68H119.849H109.474C110.74 158.456 108.36 167.02 101 174.316C104.634 191.693 113.627 204 124.154 204C134.391 203.999 143.181 192.366 147 175.748Z" fill="#F26227"/>
<path opacity="0.6" d="M122.124 148H120.326H110.139C111.311 157.913 109.294 166.135 103 173.191C109.106 177.476 116.533 180 124.553 180C132.095 180 139.112 177.767 145 173.938C138.162 166.715 135.941 158.267 137.156 148H122.124Z" fill="#F26227"/>
<path d="M147 175.748C138.443 168.144 135.641 159.148 136.991 148H121.68H119.849H109.474C110.74 158.456 108.36 167.02 101 174.316C104.634 191.693 113.627 204 124.154 204C134.391 203.999 143.181 192.366 147 175.748Z" fill="#E0E0DE"/>
<path d="M175.346 65.5386C175.355 65.5196 175.374 65.4856 175.374 65.4843C175.244 65.2698 175.101 65.0621 174.966 64.8503C174.933 64.7974 174.907 64.7376 174.875 64.6861C174.655 64.3331 174.432 64.0005 174.208 63.6734C171.02 58.9209 167.033 54.7141 162.415 51.2349C164.902 49.5001 166.51 45.2457 164.226 35.5276L158.644 45.1073C157.337 33.281 149.973 27 149.973 27V44.2602C143.826 41.8358 137.099 40.4892 130.043 40.4892C94.8204 41.4163 81.6215 52.1716 76.9845 62.4232C74.8484 65.9241 73.5224 70.1024 73.6013 75.1087C73.6013 75.1087 56.8069 90.9287 70.1529 116.103L70.4674 116.691C74.5298 124.276 76.5515 132.746 76.64 141.345C76.6945 146.535 77.22 151.237 78.0586 153.652C79.2689 157.141 82.4669 159.837 86.1073 161.289C89.7478 162.742 93.8035 163.078 97.7679 162.986C112.403 162.648 109.317 149.548 123.639 152.351C128.236 153.251 141.603 161.593 146.254 162.223C150.904 162.853 160.912 164.193 166.42 157.965C169.892 154.039 171.599 147.55 171.988 142.354C172.299 138.19 173.354 134.111 175.019 130.28C183.717 110.267 184.801 81.7834 175.346 65.5386Z" fill="#A8A8A8"/>
<path d="M88.5223 115.49C93.081 124.161 91.1711 134.104 84.2553 137.7C77.3394 141.294 68.0365 137.18 63.4777 128.509C58.919 119.838 60.8289 109.896 67.7447 106.301C74.6606 102.705 83.9635 106.819 88.5223 115.49Z" fill="#EAEAEA"/>
<path d="M84 132C83.973 131.646 83.9069 131.337 83.8691 130.994C83.9204 131.243 83.9514 131.449 83.9703 131.614C83.9271 129.839 83.6708 128.388 83.2255 127.247C79.6609 112.486 66 111 66 111C72.9202 115.22 77.2404 119.876 79.9159 123.734C75.0047 121.713 67.4126 125.994 67.4126 125.994C76.4201 123.581 80.5177 125.578 82.3985 127.897C83.6398 130.393 84 132 84 132Z" fill="#E0E0DE"/>
<path d="M158.477 115.49C153.919 124.161 155.83 134.104 162.745 137.7C169.661 141.294 178.964 137.18 183.522 128.509C188.081 119.838 186.171 109.896 179.255 106.301C172.338 102.705 163.036 106.819 158.477 115.49Z" fill="#EAEAEA"/>
<path d="M162 132C162.027 131.646 162.093 131.337 162.13 130.994C162.078 131.243 162.047 131.449 162.028 131.614C162.072 129.839 162.328 128.388 162.773 127.247C166.339 112.486 180 111 180 111C173.079 115.22 168.759 119.876 166.083 123.734C170.995 121.713 178.587 125.994 178.587 125.994C169.579 123.581 165.481 125.578 163.6 127.897C162.36 130.393 162 132 162 132Z" fill="#E0E0DE"/>
<path d="M82.0622 132C82.0622 132 70.5551 110.911 76.918 85L90 93.6042L82.0622 132Z" fill="#A8A8A8"/>
<path d="M162.747 131C162.747 131 175.451 111.092 172.577 85L160 92.5349L162.747 131Z" fill="#A8A8A8"/>
<path d="M164.295 108.185L165 93.1328C164.959 78.1362 152.771 66 137.747 66H110.175C94.1808 66 81.1674 78.8564 81 94.8232L82.1693 122.591C82.1693 128.806 81.1184 134.965 81.5322 140.979C80.7046 156.769 94.6341 170.251 115.53 169.996C120.921 169.931 126.308 169.931 131.7 169.996C154.521 170.275 167.641 154.17 163.632 136.567C163.699 134.871 163.719 133.153 163.712 131.429C164.11 126.5 164.645 117.567 164.295 108.185Z" fill="#EAEAEA"/>
<path d="M164.295 108.185L165 93.1328C164.959 78.1362 152.771 66 137.747 66H110.175C94.1808 66 81.1674 78.8564 81 94.8232L82.1693 122.591C82.1693 128.806 81.1184 134.965 81.5322 140.979C80.7046 156.769 94.6341 170.251 115.53 169.996C120.921 169.931 126.308 169.931 131.7 169.996C154.521 170.275 167.641 154.17 163.632 136.567C163.699 134.871 163.719 133.153 163.712 131.429C164.11 126.5 164.645 117.567 164.295 108.185Z" fill="#EAEAEA"/>
<path d="M175 65.3189C171.636 59.8407 167.216 55.0289 162.005 51.1294C164.499 49.402 166.112 45.166 163.821 35.4896L158.221 45.0281C156.911 33.254 149.526 27 149.526 27V44.1861C143.361 41.772 136.615 40.4312 129.539 40.4312C61.7829 42.2019 75.2723 79.9774 74.7945 81.156C78.1982 87.8588 80.9521 93.7019 80.948 92.9315C80.948 92.9315 80.8238 82.6037 96.5319 81.7183C111.2 80.8925 126.54 72.6029 132.156 69.113L121.55 82.0022C121.55 82.0022 138.776 86.7707 143.518 70.0915L144.059 82.6374C144.059 82.6374 155.698 80.7695 150.648 69.6928C156.352 71.1891 160.749 73.0138 164.131 74.8953C165.13 75.4508 166.009 76.1388 166.808 76.893C170.107 74.237 175.005 65.327 175 65.3189Z" fill="#A8A8A8"/>
<path d="M196 209H51V245H196V209Z" fill="#898989"/>
</g>
</svg>
