<svg width="17" height="18" viewBox="0 0 17 18" fill="none" xmlns="http://www.w3.org/2000/svg">
<path fill-rule="evenodd" clip-rule="evenodd" d="M5.72724 0H10.6363C11.5401 0 12.2727 0.732626 12.2727 1.63637V2.45452H14.7273C15.631 2.45452 16.3637 3.18715 16.3637 4.09089V5.72726C16.3637 6.631 15.631 7.36362 14.7273 7.36362H14.6592L13.9066 16.3635C13.9066 17.2673 13.174 17.9999 12.2702 17.9999H4.08841C3.18467 17.9999 2.45204 17.2673 2.45487 16.4315L1.69921 7.36362H1.63637C0.732626 7.36362 0 6.631 0 5.72726V4.09089C0 3.18715 0.732626 2.45452 1.63637 2.45452H4.09087V1.63637C4.09087 0.732626 4.82349 0 5.72724 0ZM4.09087 4.09092V4.0908H1.63635V5.72717H14.7273V4.0908H12.2727V4.09092H4.09087ZM4.09077 16.3641L3.34335 7.36406H13.0198L12.2754 16.2961L12.2726 16.3641H4.09077ZM10.6363 1.63635V2.45453H5.72722V1.63635H10.6363ZM5.14874 9.57852L6.30583 8.42144L8.18184 10.2974L10.0578 8.42144L11.2149 9.57852L9.33892 11.4545L11.2149 13.3305L10.0578 14.4876L8.18184 12.6116L6.30583 14.4876L5.14874 13.3305L7.02475 11.4545L5.14874 9.57852Z" fill="#E65D79"/>
</svg>
