<svg width="22" height="22" viewBox="0 0 22 22" fill="none" xmlns="http://www.w3.org/2000/svg">
<path fill-rule="evenodd" clip-rule="evenodd" d="M11.2269 20.1667C9.9848 20.1667 8.77388 20.1529 7.5758 20.1282C6.04313 20.0979 4.98255 19.1043 4.8093 17.5349C4.52055 14.9316 4.02647 8.79542 4.02188 8.734C3.99072 8.35542 4.27305 8.02359 4.65163 7.99334C5.02472 7.98325 5.36205 8.24542 5.3923 8.62309C5.39688 8.68542 5.89005 14.8005 6.17605 17.3837C6.27413 18.2756 6.75538 18.7358 7.60422 18.7532C9.89588 18.8018 12.2343 18.8045 14.7551 18.7587C15.6571 18.7413 16.1448 18.2903 16.2456 17.3773C16.5298 14.8161 17.0248 8.68542 17.0303 8.62309C17.0605 8.24542 17.3951 7.98142 17.77 7.99334C18.1486 8.0245 18.431 8.35542 18.4007 8.734C18.3952 8.79634 17.8984 14.9481 17.6124 17.5285C17.4345 19.1299 16.3767 20.1043 14.7799 20.1337C13.558 20.1548 12.3791 20.1667 11.2269 20.1667Z" fill="white"/>
<path fill-rule="evenodd" clip-rule="evenodd" d="M18.9823 6.40686H3.4375C3.058 6.40686 2.75 6.09886 2.75 5.71936C2.75 5.33986 3.058 5.03186 3.4375 5.03186H18.9823C19.3618 5.03186 19.6698 5.33986 19.6698 5.71936C19.6698 6.09886 19.3618 6.40686 18.9823 6.40686Z" fill="white"/>
<path fill-rule="evenodd" clip-rule="evenodd" d="M15.988 6.40687C14.9448 6.40687 14.0392 5.66345 13.8338 4.64045L13.6111 3.52578C13.5643 3.3562 13.3709 3.20862 13.1509 3.20862H9.27068C9.05068 3.20862 8.85726 3.3562 8.80134 3.56795L8.58776 4.64045C8.38334 5.66345 7.47676 6.40687 6.43359 6.40687C6.05409 6.40687 5.74609 6.09887 5.74609 5.71937C5.74609 5.33987 6.05409 5.03187 6.43359 5.03187C6.82409 5.03187 7.16326 4.7532 7.24026 4.37003L7.46301 3.25537C7.68943 2.40103 8.42918 1.83362 9.27068 1.83362H13.1509C13.9924 1.83362 14.7322 2.40103 14.9494 3.21412L15.1823 4.37003C15.2583 4.7532 15.5975 5.03187 15.988 5.03187C16.3675 5.03187 16.6755 5.33987 16.6755 5.71937C16.6755 6.09887 16.3675 6.40687 15.988 6.40687Z" fill="white"/>
</svg>
