<svg width="236" height="236" viewBox="0 0 236 236" fill="none" xmlns="http://www.w3.org/2000/svg">
<path opacity="0.35" d="M187.067 213.075C187.067 204.279 156.153 197.152 118.034 197.152C79.9143 197.152 49 204.279 49 213.075C49 221.865 79.9143 228.998 118.034 228.998C156.153 228.992 187.067 221.865 187.067 213.075Z" fill="#D1D1D1"/>
<path d="M180.144 69.0898C180.144 118.828 118.04 180.735 118.04 180.735C118.04 180.735 55.9355 118.474 55.9355 69.0898C55.9355 34.7923 83.7423 7 118.04 7C152.337 7 180.144 34.7923 180.144 69.0898Z" fill="#209FAE"/>
<path d="M147.829 68.9478C147.829 52.4994 134.494 39.168 118.046 39.168C101.597 39.168 88.2617 52.4994 88.2617 68.9478C88.2617 85.3962 101.597 98.7277 118.046 98.7277C134.494 98.7277 147.829 85.3907 147.829 68.9478Z" fill="#F6F6F6"/>
</svg>
