<?xml version="1.0" encoding="utf-8"?>
<!-- Generator: Adobe Illustrator 24.1.1, SVG Export Plug-In . SVG Version: 6.00 Build 0)  -->
<!DOCTYPE svg PUBLIC "-//W3C//DTD SVG 1.1//EN" "http://www.w3.org/Graphics/SVG/1.1/DTD/svg11.dtd" [
	<!ENTITY ns_extend "http://ns.adobe.com/Extensibility/1.0/">
	<!ENTITY ns_ai "http://ns.adobe.com/AdobeIllustrator/10.0/">
	<!ENTITY ns_graphs "http://ns.adobe.com/Graphs/1.0/">
	<!ENTITY ns_vars "http://ns.adobe.com/Variables/1.0/">
	<!ENTITY ns_imrep "http://ns.adobe.com/ImageReplacement/1.0/">
	<!ENTITY ns_sfw "http://ns.adobe.com/SaveForWeb/1.0/">
	<!ENTITY ns_custom "http://ns.adobe.com/GenericCustomNamespace/1.0/">
	<!ENTITY ns_adobe_xpath "http://ns.adobe.com/XPath/1.0/">
]>
<svg version="1.1" xmlns:x="&ns_extend;" xmlns:i="&ns_ai;" xmlns:graph="&ns_graphs;"
	 xmlns="http://www.w3.org/2000/svg" xmlns:xlink="http://www.w3.org/1999/xlink" x="0px" y="0px" viewBox="0 0 512 512"
	 style="enable-background:new 0 0 512 512;" xml:space="preserve">
<style type="text/css">
	.st0{display:none;}
	.st1{display:inline;}
	.st2{fill:url(#SVGID_1_);}
	.st3{fill:#F4F4F4;}
	.st4{fill:#FFFFFF;}
	.st5{fill:#464646;}
	.st6{fill:url(#SVGID_2_);}
	.st7{fill:url(#SVGID_3_);}
	.st8{fill:url(#SVGID_4_);}
	.st9{fill:url(#SVGID_5_);}
	.st10{fill:none;stroke:#464646;stroke-width:8;stroke-linecap:round;stroke-linejoin:round;stroke-miterlimit:10;}
	.st11{fill:url(#SVGID_6_);}
	.st12{fill:url(#SVGID_7_);}
	.st13{fill:url(#SVGID_8_);}
	.st14{fill:url(#SVGID_9_);}
	.st15{fill:#464646;stroke:#464646;stroke-miterlimit:10;}
	.st16{fill:none;stroke:#464646;stroke-width:12;stroke-linecap:round;stroke-linejoin:round;stroke-miterlimit:10;}
	.st17{fill:#464646;stroke:#464646;stroke-width:2;stroke-linecap:round;stroke-linejoin:round;stroke-miterlimit:10;}
	.st18{fill:none;stroke:#464646;stroke-width:6;stroke-linecap:round;stroke-linejoin:round;stroke-miterlimit:10;}
	.st19{fill:url(#SVGID_10_);}
	.st20{fill:url(#SVGID_11_);}
	.st21{fill:#E1EEEE;}
	.st22{fill:url(#SVGID_12_);}
	
		.st23{fill:none;stroke:#464646;stroke-width:8;stroke-linecap:round;stroke-linejoin:round;stroke-miterlimit:10;stroke-dasharray:26,20;}
	.st24{fill:url(#SVGID_13_);}
	.st25{fill:url(#SVGID_14_);}
	.st26{fill:url(#SVGID_15_);}
	.st27{fill:url(#SVGID_16_);}
	.st28{fill:url(#SVGID_17_);}
	.st29{fill:url(#SVGID_18_);}
	.st30{fill:url(#SVGID_19_);}
	.st31{fill:url(#SVGID_20_);}
	.st32{fill:url(#SVGID_21_);}
	.st33{fill:url(#SVGID_22_);}
	.st34{fill:url(#SVGID_23_);}
	.st35{fill:url(#SVGID_24_);}
	.st36{fill:url(#SVGID_25_);}
	.st37{fill:url(#SVGID_26_);}
	.st38{fill:url(#SVGID_27_);}
	.st39{fill:url(#SVGID_28_);}
	.st40{fill:url(#SVGID_29_);}
</style>
<metadata>
	<sfw  xmlns="&ns_sfw;">
		<slices></slices>
		<sliceSourceBounds  bottomLeftOrigin="true" height="2327" width="7523.8" x="12.9" y="-1531.5"></sliceSourceBounds>
	</sfw>
</metadata>
<g id="icon_merged" class="st0">
</g>
<g id="Layer_2">
	<g>
		<linearGradient id="SVGID_1_" gradientUnits="userSpaceOnUse" x1="111.9092" y1="212.9546" x2="111.9092" y2="477.8355">
			<stop  offset="0" style="stop-color:#E1EEEE"/>
			<stop  offset="1" style="stop-color:#FFFFFF"/>
		</linearGradient>
		<path class="st2" d="M206.6,307.6c0,75.8-94.7,170.2-94.7,170.2s-94.7-94.9-94.7-170.2c0-52.3,42.4-94.7,94.7-94.7
			C164.2,213,206.6,255.3,206.6,307.6z"/>
		<path class="st3" d="M157.3,307.4c0-25.1-20.3-45.4-45.4-45.4c-25.1,0-45.4,20.3-45.4,45.4c0,25.1,20.3,45.4,45.4,45.4
			C137,352.8,157.3,332.5,157.3,307.4z"/>
		<path class="st21" d="M153.6,467.1c19.5,3.9,32.3,10.4,32.3,17.7c0,11.8-33.1,21.4-74,21.4c-40.8,0-74-9.6-74-21.4
			c0-7.4,12.8-13.9,32.3-17.7"/>
		<linearGradient id="SVGID_2_" gradientUnits="userSpaceOnUse" x1="400.0915" y1="5.7548" x2="400.0915" y2="270.6357">
			<stop  offset="0" style="stop-color:#E1EEEE"/>
			<stop  offset="1" style="stop-color:#FFFFFF"/>
		</linearGradient>
		<path class="st6" d="M494.7,100.4c0,75.8-94.7,170.2-94.7,170.2s-94.7-94.9-94.7-170.2c0-52.3,42.4-94.7,94.7-94.7
			C452.4,5.8,494.7,48.1,494.7,100.4z"/>
		<path class="st3" d="M445.5,100.2c0-25.1-20.3-45.4-45.4-45.4c-25.1,0-45.4,20.3-45.4,45.4c0,25.1,20.3,45.4,45.4,45.4
			C425.2,145.6,445.5,125.3,445.5,100.2z"/>
		<path class="st21" d="M441.7,259.9c19.5,3.9,32.3,10.4,32.3,17.7c0,11.8-33.1,21.4-74,21.4s-74-9.6-74-21.4
			c0-7.4,12.8-13.9,32.3-17.7"/>
		<g>
			<g>
				<g>
					<path class="st5" d="M111.9,483.6c-1.5,0-3-0.6-4.1-1.7c-3.9-3.9-96.3-97.5-96.3-174.3c0-55.4,45-100.4,100.4-100.4
						c55.4,0,100.4,45,100.4,100.4c0,77.3-92.4,170.4-96.3,174.3C114.8,483,113.4,483.6,111.9,483.6z M111.9,218.7
						c-49,0-88.9,39.9-88.9,88.9c0,63.3,71,142.8,88.9,161.9c17.9-19,88.9-98.2,88.9-161.9C200.8,258.6,160.9,218.7,111.9,218.7z"/>
				</g>
				<g>
					<path class="st5" d="M111.9,358.6c-28.2,0-51.1-22.9-51.1-51.2c0-28.2,22.9-51.2,51.1-51.2c28.2,0,51.2,23,51.2,51.2
						C163.1,335.6,140.1,358.6,111.9,358.6z M111.9,267.8c-21.9,0-39.6,17.8-39.6,39.6c0,21.9,17.8,39.6,39.6,39.6
						c21.9,0,39.6-17.8,39.6-39.6C151.5,285.6,133.8,267.8,111.9,267.8z"/>
				</g>
			</g>
			<g>
				<path class="st5" d="M111.9,512c-38.4,0-79.7-8.5-79.7-27.2c0-13.3,20.1-20,36.9-23.4c3.1-0.6,6.1,1.4,6.8,4.5
					c0.6,3.1-1.4,6.1-4.5,6.8c-22.7,4.5-27.7,10.8-27.7,12.1c0,1,3,5.4,17.5,9.6c13.5,3.9,31.5,6.1,50.7,6.1
					c19.2,0,37.2-2.1,50.7-6.1c14.5-4.2,17.5-8.7,17.5-9.6c0-1.3-4.9-7.6-27.7-12.1c-3.1-0.6-5.1-3.6-4.5-6.8
					c0.6-3.1,3.6-5.1,6.8-4.5c16.9,3.3,36.9,10.1,36.9,23.4C191.6,503.5,150.3,512,111.9,512z"/>
			</g>
			<g>
				<g>
					<path class="st5" d="M400.1,276.4c-1.5,0-3-0.6-4.1-1.7c-3.9-3.9-96.3-97.5-96.3-174.3C299.7,45,344.7,0,400.1,0
						c55.4,0,100.4,45,100.4,100.4c0,77.3-92.4,170.4-96.3,174.3C403,275.8,401.6,276.4,400.1,276.4z M400.1,11.5
						c-49,0-88.9,39.9-88.9,88.9c0,63.3,71,142.8,88.9,161.9c17.9-19,88.9-98.2,88.9-161.9C489,51.4,449.1,11.5,400.1,11.5z"/>
				</g>
				<g>
					<path class="st5" d="M400.1,151.4c-28.2,0-51.2-22.9-51.2-51.2c0-28.2,22.9-51.2,51.2-51.2c28.2,0,51.2,23,51.2,51.2
						C451.2,128.4,428.3,151.4,400.1,151.4z M400.1,60.6c-21.9,0-39.6,17.8-39.6,39.6c0,21.9,17.8,39.6,39.6,39.6
						c21.9,0,39.6-17.8,39.6-39.6C439.7,78.4,421.9,60.6,400.1,60.6z"/>
				</g>
			</g>
			<g>
				<path class="st5" d="M400.1,304.8c-38.4,0-79.7-8.5-79.7-27.2c0-13.3,20.1-20,36.9-23.4c3.1-0.6,6.1,1.4,6.8,4.5
					c0.6,3.1-1.4,6.1-4.5,6.8c-22.7,4.5-27.7,10.8-27.7,12.1c0,1,3,5.4,17.5,9.6c13.5,3.9,31.5,6.1,50.7,6.1
					c19.2,0,37.2-2.1,50.7-6.1c14.5-4.2,17.5-8.7,17.5-9.6c0-1.3-4.9-7.6-27.7-12.1c-3.1-0.6-5.1-3.6-4.5-6.8
					c0.6-3.1,3.6-5.1,6.8-4.5c16.9,3.3,36.9,10.1,36.9,23.4C479.8,296.3,438.5,304.8,400.1,304.8z"/>
			</g>
			<g>
				<path class="st5" d="M375.5,498.7h-34.1c-3.2,0-5.8-2.6-5.8-5.8c0-3.2,2.6-5.8,5.8-5.8h34.1c0.9,0,1.9,0,2.8-0.1
					c3.1-0.3,6,2.1,6.2,5.2c0.3,3.2-2.1,6-5.2,6.2C378.1,498.6,376.8,498.7,375.5,498.7z M312.6,498.7h-37.4c-3.2,0-5.8-2.6-5.8-5.8
					c0-3.2,2.6-5.8,5.8-5.8h37.4c3.2,0,5.8,2.6,5.8,5.8C318.4,496.1,315.8,498.7,312.6,498.7z M246.4,498.7h-29.6
					c-3.2,0-5.8-2.6-5.8-5.8c0-3.2,2.6-5.8,5.8-5.8h29.6c3.2,0,5.8,2.6,5.8,5.8C252.2,496.1,249.6,498.7,246.4,498.7z M403.7,485.7
					c-1.3,0-2.7-0.5-3.7-1.4c-2.4-2.1-2.7-5.7-0.6-8.1c4.8-5.7,7.5-12.9,7.5-20.4c0-3.2-0.5-6.3-1.4-9.3c-0.9-3,0.8-6.3,3.8-7.2
					c3-0.9,6.3,0.8,7.2,3.8c1.3,4.1,1.9,8.4,1.9,12.7c0,10.2-3.6,20.1-10.3,27.8C407,485,405.3,485.7,403.7,485.7z M393.1,428.9
					c-0.9,0-1.9-0.2-2.7-0.7c-4.5-2.5-9.7-3.8-14.9-3.8h-19c-3.2,0-5.8-2.6-5.8-5.8s2.6-5.8,5.8-5.8h19c7.1,0,14.1,1.8,20.4,5.1
					c2.8,1.5,3.8,5,2.3,7.8C397.1,427.8,395.2,428.9,393.1,428.9z M327.7,424.5h-37.4c-3.2,0-5.8-2.6-5.8-5.8s2.6-5.8,5.8-5.8h37.4
					c3.2,0,5.8,2.6,5.8,5.8S330.9,424.5,327.7,424.5z M262.5,419.1c-1,0-2-0.3-2.9-0.8c-12.6-7.5-20.7-20.7-21.6-35.2
					c-0.2-3.2,2.2-5.9,5.4-6.1c3.2-0.2,5.9,2.2,6.1,5.4c0.7,10.8,6.7,20.5,16,26.1c2.7,1.6,3.6,5.2,2,7.9
					C266.4,418.1,264.4,419.1,262.5,419.1z M252.3,361.6c-1.3,0-2.6-0.4-3.6-1.3c-2.5-2-2.8-5.6-0.8-8.1c8.5-10.4,21-16.3,34.3-16.3
					h3.2c3.2,0,5.8,2.6,5.8,5.8c0,3.2-2.6,5.8-5.8,5.8h-3.2c-9.9,0-19.1,4.4-25.4,12.1C255.6,360.9,253.9,361.6,252.3,361.6z
					 M386.2,347.4h-5.9c-3.2,0-5.8-2.6-5.8-5.8c0-3.2,2.6-5.8,5.8-5.8h5.9c7.9,0,14.3-6.4,14.3-14.3c0-3.2,2.6-5.8,5.8-5.8
					c3.2,0,5.8,2.6,5.8,5.8C412,335.9,400.5,347.4,386.2,347.4z M351.5,347.4h-37.4c-3.2,0-5.8-2.6-5.8-5.8c0-3.2,2.6-5.8,5.8-5.8
					h37.4c3.2,0,5.8,2.6,5.8,5.8C357.3,344.9,354.7,347.4,351.5,347.4z"/>
			</g>
		</g>
	</g>
</g>
</svg>
