<svg width="15" height="17" viewBox="0 0 15 17" fill="none" xmlns="http://www.w3.org/2000/svg">
<path fill-rule="evenodd" clip-rule="evenodd" d="M9.55509 1.61677H12.9341C13.8234 1.61677 14.5509 2.34431 14.5509 3.23353V14.5509C14.5509 15.4401 13.8234 16.1677 12.9341 16.1677H1.61677C1.50359 16.1677 1.3985 16.1596 1.29341 16.1434C0.978144 16.0787 0.69521 15.9171 0.476946 15.6988C0.331437 15.5452 0.21018 15.3755 0.129341 15.1814C0.048503 14.9874 0 14.7692 0 14.5509V3.23353C0 3.00719 0.048503 2.79701 0.129341 2.61108C0.21018 2.41707 0.331437 2.23922 0.476946 2.09371C0.69521 1.87545 0.978144 1.71377 1.29341 1.6491C1.3985 1.62485 1.50359 1.61677 1.61677 1.61677H4.99581C5.33533 0.679042 6.22455 0 7.27545 0C8.32635 0 9.21557 0.679042 9.55509 1.61677ZM3.23353 4.8503H11.3174V6.46707H3.23353V4.8503ZM11.3174 8.08383H3.23353V9.7006H11.3174V8.08383ZM8.89222 11.3174H3.23353V12.9341H8.89222V11.3174ZM7.27545 1.41467C7.60689 1.41467 7.88174 1.68952 7.88174 2.02096C7.88174 2.3524 7.60689 2.62725 7.27545 2.62725C6.94401 2.62725 6.66916 2.3524 6.66916 2.02096C6.66916 1.68952 6.94401 1.41467 7.27545 1.41467ZM1.61677 14.5509H12.9341V3.23353H1.61677V14.5509Z" fill="#464646"/>
</svg>
