<svg width="512" height="512" viewBox="0 0 512 512" fill="none" xmlns="http://www.w3.org/2000/svg">
<path d="M512 256C512 397.385 397.385 512 256 512C114.615 512 0 397.385 0 256C0 114.615 114.615 0 256 0C397.385 0 512 114.615 512 256Z" fill="#F6F6F6"/>
<path fill-rule="evenodd" clip-rule="evenodd" d="M256 482C380.816 482 482 380.816 482 256C482 131.184 380.816 30 256 30C131.184 30 30 131.184 30 256C30 380.816 131.184 482 256 482ZM256 512C397.385 512 512 397.385 512 256C512 114.615 397.385 0 256 0C114.615 0 0 114.615 0 256C0 397.385 114.615 512 256 512Z" fill="#209FAE"/>
<path fill-rule="evenodd" clip-rule="evenodd" d="M217.009 301.865L361.944 170L384 190.068L217.009 342L128 261.017L150.056 240.949L217.009 301.865Z" fill="#209FAE"/>
</svg>
