<svg width="11" height="10" viewBox="0 0 11 10" fill="none" xmlns="http://www.w3.org/2000/svg">
<path fill-rule="evenodd" clip-rule="evenodd" d="M10 9V5.5H9V9H1V1H4.5V0H1C0.447715 0 0 0.447715 0 1V9C0 9.55229 0.447715 10 1 10H9C9.55229 10 10 9.55229 10 9ZM8.59025 0.361711C8.36106 0.13071 8.04725 0 7.71988 0C7.39288 0 7.0794 0.130415 6.8489 0.362314L2.66445 4.54671C2.29054 4.87617 2.04542 5.36642 2.00283 5.89365L2.0012 7.50116V8.00116H4.0685C4.63565 7.96227 5.13071 7.71475 5.47996 7.31188L9.64071 3.15292C9.87154 2.92208 10.0012 2.609 10.0012 2.28254C10.0012 1.95608 9.87154 1.643 9.64071 1.41216L8.59025 0.361711ZM4.03079 7.0024C4.2979 6.98349 4.54654 6.85918 4.74619 6.6308L7.77786 3.59914L6.40072 2.22191L3.34685 5.27479C3.14427 5.45395 3.01895 5.70461 2.9988 5.93391V7.00146L4.03079 7.0024ZM7.10794 1.51492L8.48497 2.89203L8.9312 2.4458C8.9745 2.4025 8.99882 2.34377 8.99882 2.28253C8.99882 2.22129 8.9745 2.16256 8.93119 2.11926L7.87936 1.06742C7.83654 1.02426 7.77827 0.999991 7.71747 0.999991C7.65668 0.999991 7.5984 1.02426 7.55559 1.06742L7.10794 1.51492Z" fill="white"/>
</svg>
