<svg width="512" height="512" viewBox="0 0 512 512" fill="none" xmlns="http://www.w3.org/2000/svg">
<path d="M256.069 486.139C194.615 486.139 136.84 462.208 93.386 418.753C49.931 375.299 26 317.523 26 256.07C26 194.616 49.931 136.841 93.386 93.387C136.84 49.931 194.616 26 256.069 26C317.522 26 375.298 49.931 418.752 93.386C462.207 136.84 486.138 194.616 486.138 256.069C486.138 317.523 462.206 375.299 418.752 418.752C375.299 462.207 317.523 486.139 256.069 486.139ZM256.069 41.008C137.484 41.008 41.007 137.484 41.007 256.07C41.007 374.656 137.483 471.132 256.069 471.132C374.655 471.132 471.131 374.656 471.131 256.07C471.131 137.484 374.655 41.008 256.069 41.008Z" fill="#219FAE"/>
<path d="M256.066 372.502C224.462 372.502 198.095 360.119 179.818 336.692C164.021 316.444 155.321 289.105 155.321 259.711C155.321 255.567 158.68 252.207 162.825 252.207H349.315C353.459 252.207 356.819 255.566 356.819 259.711C356.819 289.104 348.117 316.443 332.318 336.693C314.038 360.119 287.671 372.502 256.066 372.502ZM170.539 267.215C173.14 313.304 199.883 357.494 256.066 357.494C312.254 357.494 338.999 313.304 341.6 267.215H170.539Z" fill="#219FAE"/>
<path d="M341.736 198.799C351.603 198.799 359.602 190.068 359.602 179.298C359.602 168.528 351.603 159.797 341.736 159.797C331.869 159.797 323.87 168.528 323.87 179.298C323.87 190.068 331.869 198.799 341.736 198.799Z" fill="#219FAE"/>
<path d="M170.402 198.799C180.269 198.799 188.268 190.068 188.268 179.298C188.268 168.528 180.269 159.797 170.402 159.797C160.535 159.797 152.536 168.528 152.536 179.298C152.536 190.068 160.535 198.799 170.402 198.799Z" fill="#219FAE"/>
</svg>
