<svg width="407" height="407" viewBox="0 0 407 407" fill="none" xmlns="http://www.w3.org/2000/svg">
<circle cx="203.5" cy="203.5" r="203.5" fill="white"/>
<path d="M169.574 127.124C189.924 93.2074 200.664 90.381 203.491 93.2074H211.972L220.451 101.719C248.715 141.289 306.938 223.819 313.722 237.386C320.505 250.953 299.59 271.303 288.284 279.782H127.178C86.4783 279.782 93.2616 251.518 101.741 237.386C115.873 214.764 149.224 161.041 169.574 127.124Z" fill="#D75995"/>
<path fill-rule="evenodd" clip-rule="evenodd" d="M316.16 226.751L240.563 104.89C232.973 92.483 218.827 84.7825 203.529 84.7657C188.229 84.7488 174.078 92.4174 166.395 104.89L90.7687 226.796C82.9268 239.23 82.7494 254.809 90.3451 267.516C97.9472 280.232 112.181 288.146 127.664 288.265L279.153 288.266C294.797 288.122 309.004 280.232 316.605 267.527C324.197 254.837 324.028 239.291 316.16 226.751ZM109.359 237.136L185.041 115.14C188.873 108.918 195.903 105.109 203.504 105.117C211.104 105.126 218.131 108.951 221.9 115.112L297.558 237.07C301.523 243.392 301.608 251.174 297.807 257.528C294.001 263.891 286.885 267.842 279.048 267.914L127.752 267.914C120.084 267.854 112.954 263.89 109.147 257.522C105.344 251.16 105.433 243.361 109.359 237.136ZM203.486 247.579C209.448 247.579 214.281 243.023 214.281 237.403C214.281 231.783 209.448 227.227 203.486 227.227C197.524 227.227 192.691 231.783 192.691 237.403C192.691 243.023 197.524 247.579 203.486 247.579ZM214.312 145.821H192.722V217.052H214.312V145.821Z" fill="#D75995"/>
<circle cx="203.474" cy="237.365" r="16.9583" fill="white"/>
<rect x="186.516" y="135.641" width="33.9167" height="67.8333" fill="white"/>
</svg>
