<svg width="512" height="440" viewBox="0 0 512 440" fill="none" xmlns="http://www.w3.org/2000/svg">
<path fill-rule="evenodd" clip-rule="evenodd" d="M335.983 43.4664L499.013 306.679C515.979 333.766 516.345 367.343 499.973 394.753C483.581 422.196 452.943 439.237 419.206 439.547L92.5131 439.546C59.1235 439.289 28.4266 422.196 12.0325 394.728C-4.34805 367.284 -3.96546 333.632 12.9459 306.777L176.036 43.4675C192.607 16.5274 223.124 -0.0364167 256.119 6.01229e-05C289.11 0.036533 319.616 16.669 335.983 43.4664Z" fill="#D75995"/>
<path fill-rule="evenodd" clip-rule="evenodd" d="M292.227 111.094H219.774V255.999H292.227V111.094ZM256 367.094C276.007 367.094 292.227 350.335 292.227 329.66C292.227 308.986 276.007 292.226 256 292.226C235.993 292.226 219.774 308.986 219.774 329.66C219.774 350.335 235.993 367.094 256 367.094Z" fill="white"/>
</svg>
