<svg width="512" height="512" viewBox="0 0 512 512" fill="none" xmlns="http://www.w3.org/2000/svg">
<path d="M512 256C512 397.385 397.385 512 256 512C114.615 512 0 397.385 0 256C0 114.615 114.615 0 256 0C397.385 0 512 114.615 512 256Z" fill="#F2DAE6"/>
<path fill-rule="evenodd" clip-rule="evenodd" d="M362.128 277.427L284.903 162.676C277.15 150.994 262.7 143.742 247.073 143.727C231.443 143.711 216.988 150.932 209.139 162.677L131.885 277.47C123.875 289.177 123.694 303.848 131.453 315.813C139.218 327.788 153.759 335.24 169.575 335.352L324.325 335.352C340.305 335.217 354.818 327.788 362.583 315.824C370.338 303.874 370.164 289.236 362.128 277.427ZM150.876 287.206L228.186 172.328C232.101 166.47 239.282 162.883 247.047 162.891C254.811 162.899 261.989 166.501 265.839 172.302L343.125 287.144C347.176 293.097 347.263 300.425 343.38 306.408C339.491 312.399 332.222 316.121 324.217 316.189L169.665 316.188C161.831 316.132 154.548 312.399 150.659 306.402C146.774 300.412 146.865 293.068 150.876 287.206ZM247.028 297.04C253.119 297.04 258.056 292.75 258.056 287.458C258.056 282.166 253.119 277.876 247.028 277.876C240.938 277.876 236.001 282.166 236.001 287.458C236.001 292.75 240.938 297.04 247.028 297.04ZM258.088 201.219H236.033V268.294H258.088V201.219Z" fill="#D75995"/>
</svg>
