<svg width="134" height="134" viewBox="0 0 134 134" fill="none" xmlns="http://www.w3.org/2000/svg">
<rect width="134" height="134" rx="67" fill="#E2ECF8" fill-opacity="0.3"/>
<path d="M100.942 42.0584C101.58 44.2705 103.892 45.5659 106.124 44.9282L107.519 49.8108C105.307 50.4485 104.011 52.7603 104.649 54.9923C105.287 57.2045 107.598 58.4999 109.83 57.8621L111.225 62.7448C109.013 63.3825 107.718 65.6943 108.356 67.9064C108.993 70.1185 111.305 71.4139 113.537 70.7762L115.211 76.6154L31.0707 100.69L29.3967 94.8505C31.6088 94.2128 32.9042 91.901 32.2665 89.6689C31.6287 87.4568 29.317 86.1614 27.0849 86.7991L25.6899 81.9165C27.902 81.2788 29.1974 78.967 28.5597 76.7549C27.9219 74.5428 25.6102 73.2474 23.3781 73.8851L21.9831 69.0025C24.1952 68.3648 25.4906 66.053 24.8529 63.8209C24.2151 61.6088 21.9034 60.3134 19.6713 60.9511L18.0371 55.1119L102.138 31.0376L103.812 36.8768C101.6 37.5145 100.304 39.8462 100.942 42.0584Z" fill="#F4F4F4"/>
<path d="M98.9892 74.9214L43.9252 90.6853L34.2197 56.8059L89.3037 41.042L98.9892 74.9214Z" fill="url(#paint0_linear)"/>
<path d="M68.6568 73.028C68.6568 73.028 63.3956 78.07 63.1365 78.3092C62.8774 78.5483 62.3991 78.6281 62.3393 78.0302C62.2795 77.4323 61.5023 70.4173 61.5023 70.4173C61.5023 70.4173 55.2844 67.0692 54.9257 66.8699C54.567 66.6706 54.3478 66.1325 54.9656 65.8535C55.5834 65.5745 61.7813 62.7844 61.7813 62.7844C61.7813 62.7844 62.997 56.168 63.0966 55.5502C63.1963 54.9124 63.7543 54.7929 64.1329 55.2114C64.5315 55.6498 69.1152 60.6919 69.1152 60.6919C69.1152 60.6919 76.1303 59.7552 76.5687 59.6755C77.2263 59.5559 77.3658 60.0342 77.2064 60.3132C77.047 60.5922 73.38 67.0094 73.38 67.0094C73.38 67.0094 76.4292 73.4863 76.6285 73.8451C76.8278 74.2038 76.5687 74.6821 75.8911 74.5426C75.2135 74.4031 68.6568 73.028 68.6568 73.028Z" fill="#F4F4F4"/>
<path d="M112.321 78.0898C112.321 80.3817 114.195 82.255 116.487 82.255V87.2971C114.195 87.2971 112.321 89.1704 112.321 91.4622C112.321 93.7541 114.195 95.6274 116.487 95.6274V100.669C114.195 100.669 112.321 102.523 112.321 104.835C112.321 107.126 114.195 109 116.487 109V115.058H29.3965V109C31.6883 109 33.5617 107.126 33.5617 104.835C33.5617 102.543 31.6883 100.669 29.3965 100.669V95.6274C31.6883 95.6274 33.5617 93.774 33.5617 91.4622C33.5617 89.1704 31.6883 87.2971 29.3965 87.2971V82.255C31.6883 82.255 33.5617 80.3817 33.5617 78.0898C33.5617 75.798 31.6883 73.9246 29.3965 73.9246V67.8662H116.487V73.9246C114.195 73.9246 112.321 75.798 112.321 78.0898Z" fill="#F4F4F4"/>
<path d="M101.46 73.9248H44.4429V109H101.46V73.9248Z" fill="url(#paint1_linear)"/>
<path d="M72.9416 98.896C72.9416 98.896 66.5244 102.284 66.2055 102.443C65.8867 102.603 65.4084 102.543 65.508 101.945C65.6077 101.347 66.8034 94.4319 66.8034 94.4319C66.8034 94.4319 61.7813 89.5293 61.4823 89.2503C61.2033 88.9713 61.1236 88.3934 61.7813 88.2937C62.4389 88.1941 69.1351 87.2176 69.1351 87.2176C69.1351 87.2176 72.1045 81.2189 72.3835 80.641C72.6626 80.063 73.2206 80.0829 73.4597 80.6011C73.7188 81.1193 76.7281 87.1976 76.7281 87.1976C76.7281 87.1976 83.7033 88.214 84.1417 88.2738C84.7994 88.3535 84.7994 88.8318 84.5602 89.051C84.3211 89.2703 79.0598 94.412 79.0598 94.412C79.0598 94.412 80.2356 101.427 80.3352 101.826C80.4349 102.224 80.0363 102.623 79.4384 102.304C78.8406 101.985 72.9416 98.896 72.9416 98.896Z" fill="#F4F4F4"/>
<path d="M23.398 74.8815C22.9396 74.8815 22.5411 74.5825 22.4015 74.1242L21.0065 69.2415C20.9268 68.9825 20.9667 68.7035 21.1062 68.4643C21.2457 68.2252 21.4649 68.0458 21.724 67.9661C23.398 67.4878 24.3745 65.734 23.8962 64.06C23.4179 62.3859 21.6642 61.4094 19.9901 61.8877C19.4321 62.0471 18.8741 61.7283 18.7147 61.1703L17.0406 55.3709C16.9609 55.1118 17.0008 54.8328 17.1403 54.5937C17.2798 54.3545 17.499 54.1752 17.7581 54.0954L101.919 30.041C102.457 29.8816 103.035 30.2005 103.194 30.7585L104.868 36.6176C104.948 36.8767 104.908 37.1557 104.768 37.3949C104.629 37.634 104.41 37.8134 104.151 37.8931C103.334 38.1322 102.676 38.6504 102.257 39.3878C101.839 40.1252 101.759 40.9821 101.978 41.7793C102.217 42.5964 102.736 43.254 103.473 43.6725C104.21 44.091 105.067 44.1708 105.865 43.9515C106.403 43.7921 106.981 44.111 107.14 44.669L108.535 49.5516C108.694 50.0897 108.376 50.6676 107.818 50.8271C106.144 51.3054 105.167 53.0591 105.645 54.7332C106.124 56.4072 107.877 57.3837 109.551 56.9054C109.81 56.8257 110.089 56.8656 110.329 57.0051C110.568 57.1446 110.747 57.3638 110.827 57.6229L112.023 61.8479C112.182 62.3859 111.863 62.9639 111.305 63.1233C110.747 63.2827 110.189 62.9639 110.03 62.4059L109.073 59.0777C106.642 59.277 104.33 57.7425 103.652 55.3111C102.955 52.8798 104.111 50.3687 106.263 49.2527L105.386 46.1637C102.955 46.363 100.643 44.8284 99.9655 42.3971C99.5869 41.0618 99.7463 39.6469 100.424 38.4312C100.922 37.5144 101.679 36.797 102.596 36.3386L101.46 32.3727L19.3125 55.7894L20.4485 59.7553C21.4649 59.6756 22.4813 59.8948 23.398 60.393C24.6137 61.0706 25.4906 62.1866 25.8891 63.5219C26.5867 65.9532 25.4308 68.4643 23.2784 69.5803L24.4144 73.5662C24.5738 74.1042 24.255 74.6822 23.6969 74.8416C23.5774 74.8815 23.4777 74.8815 23.398 74.8815Z" fill="#6F7273"/>
<path d="M35.9334 63.7411C35.475 63.7411 35.0764 63.4422 34.9369 62.9838L33.2429 57.0449C33.0835 56.5068 33.4024 55.9289 33.9604 55.7695L89.0643 40.0255C89.3234 39.9458 89.6024 39.9856 89.8415 40.1251C90.0807 40.2646 90.26 40.4839 90.3397 40.7429L96.3384 61.7283C96.4978 62.2663 96.179 62.8443 95.621 63.0037C95.0629 63.1632 94.5049 62.8443 94.3455 62.2863L88.6258 42.2974L35.5149 57.4834L36.9298 62.4258C37.0893 62.9639 36.7704 63.5418 36.2124 63.7012C36.1127 63.7411 36.0131 63.7411 35.9334 63.7411Z" fill="#6F7273"/>
<path d="M87.6292 59.8747C87.968 61.0904 87.2705 62.3459 86.0748 62.6847C84.8591 63.0235 83.6036 62.326 83.2648 61.1303C82.926 59.9146 83.6235 58.6591 84.8193 58.3203C86.015 57.9615 87.2905 58.6591 87.6292 59.8747Z" fill="#6F7273"/>
<path d="M85.1981 51.3454C85.5369 52.561 84.8394 53.8166 83.6436 54.1554C82.428 54.4942 81.1724 53.7966 80.8336 52.6009C80.4948 51.3852 81.1924 50.1297 82.3881 49.7909C83.5838 49.4322 84.8593 50.1496 85.1981 51.3454Z" fill="#6F7273"/>
<path d="M61.7813 63.8408C61.7215 63.8408 61.6618 63.8408 61.602 63.8208C61.044 63.7212 60.6653 63.1831 60.7649 62.6251C60.7849 62.5653 61.9806 56.0087 62.0803 55.3909C62.1998 54.6933 62.6184 54.1752 63.2162 53.9958C63.7942 53.8165 64.4518 54.0357 64.8903 54.514C65.2091 54.8727 68.4177 58.4001 69.4939 59.5959C72.284 59.2172 76.0904 58.719 76.3893 58.6592C77.0669 58.5396 77.6847 58.7589 78.0235 59.2571C78.3424 59.7155 78.3623 60.3333 78.0833 60.8315C78.0235 60.9311 77.5652 61.7482 76.9673 62.7845C76.6883 63.2828 76.0506 63.4422 75.5523 63.1632C75.0541 62.8842 74.8947 62.2465 75.1737 61.7482C75.373 61.4094 75.5523 61.1105 75.6918 60.8315C73.7388 61.0906 69.7928 61.6287 69.2149 61.7084C68.8761 61.7482 68.5373 61.6286 68.3181 61.3696C68.3181 61.3696 65.2689 58.0215 63.9337 56.5467C63.5949 58.4599 62.7977 62.7447 62.7579 62.9639C62.718 63.4821 62.2796 63.8408 61.7813 63.8408Z" fill="#6F7273"/>
<path d="M47.5719 62.0868C47.9107 63.3025 47.2131 64.558 46.0174 64.8968C44.8017 65.2356 43.5462 64.5381 43.2074 63.3424C42.8686 62.1267 43.5661 60.8712 44.7619 60.5324C45.9775 60.1936 47.2331 60.8911 47.5719 62.0868Z" fill="#6F7273"/>
<path d="M116.487 116.095H29.3969C28.819 116.095 28.3606 115.637 28.3606 115.059V109C28.3606 108.422 28.819 107.964 29.3969 107.964C31.1307 107.964 32.5258 106.549 32.5258 104.835C32.5258 103.101 31.1108 101.706 29.3969 101.706C28.819 101.706 28.3606 101.248 28.3606 100.67V95.6278C28.3606 95.0499 28.819 94.5915 29.3969 94.5915C31.1307 94.5915 32.5258 93.1965 32.5258 91.4626C32.5258 89.7288 31.1108 88.3338 29.3969 88.3338C28.819 88.3338 28.3606 87.8754 28.3606 87.2975V82.2554C28.3606 81.6775 28.819 81.2191 29.3969 81.2191C31.1307 81.2191 32.5258 79.8041 32.5258 78.0902C32.5258 76.3564 31.1108 74.9614 29.3969 74.9614C28.819 74.9614 28.3606 74.503 28.3606 73.9251V67.8666C28.3606 67.2887 28.819 66.8303 29.3969 66.8303H116.487C117.065 66.8303 117.523 67.2887 117.523 67.8666V73.9251C117.523 74.503 117.065 74.9614 116.487 74.9614C114.753 74.9614 113.358 76.3564 113.358 78.0902C113.358 79.8241 114.773 81.2191 116.487 81.2191C117.065 81.2191 117.523 81.6775 117.523 82.2554V87.2975C117.523 87.8754 117.065 88.3338 116.487 88.3338C114.753 88.3338 113.358 89.7487 113.358 91.4626C113.358 93.1965 114.773 94.5915 116.487 94.5915C117.065 94.5915 117.523 95.0499 117.523 95.6278V100.67C117.523 101.248 117.065 101.706 116.487 101.706C114.753 101.706 113.358 103.101 113.358 104.835C113.358 106.569 114.773 107.964 116.487 107.964C117.065 107.964 117.523 108.422 117.523 109V115.059C117.523 115.637 117.065 116.095 116.487 116.095ZM30.4332 114.022H115.451V109.917C113.079 109.439 111.285 107.346 111.285 104.835C111.285 102.324 113.079 100.231 115.451 99.7531V96.5645C113.099 96.0663 111.305 93.9737 111.305 91.4626C111.305 88.9516 113.099 86.859 115.471 86.3807V83.1921C113.099 82.7138 111.305 80.6212 111.305 78.0902C111.305 75.5792 113.099 73.4866 115.471 73.0083V68.9229H30.4332V73.0083C32.8048 73.4866 34.5984 75.5792 34.5984 78.0902C34.5984 80.6013 32.8048 82.6939 30.4332 83.1921V86.3807C32.8048 86.859 34.5984 88.9516 34.5984 91.4626C34.5984 93.9737 32.8048 96.0663 30.4332 96.5446V99.7332C32.8048 100.212 34.5984 102.304 34.5984 104.815C34.5984 107.326 32.8048 109.419 30.4332 109.897V114.022V114.022Z" fill="#6F7273"/>
<path d="M101.46 110.036H44.4433C43.8654 110.036 43.407 109.578 43.407 109V73.925C43.407 73.347 43.8654 72.8887 44.4433 72.8887H101.46C102.038 72.8887 102.497 73.347 102.497 73.925V109C102.497 109.578 102.018 110.036 101.46 110.036ZM45.4796 107.964H100.424V74.9613H45.4796V107.964Z" fill="#6F7273"/>
<path d="M92.4123 93.7343C93.667 93.7343 94.6842 92.7171 94.6842 91.4623C94.6842 90.2076 93.667 89.1904 92.4123 89.1904C91.1576 89.1904 90.1404 90.2076 90.1404 91.4623C90.1404 92.7171 91.1576 93.7343 92.4123 93.7343Z" fill="#6F7273"/>
<path d="M92.4123 84.9257C93.667 84.9257 94.6842 83.9085 94.6842 82.6538C94.6842 81.399 93.667 80.3818 92.4123 80.3818C91.1576 80.3818 90.1404 81.399 90.1404 82.6538C90.1404 83.9085 91.1576 84.9257 92.4123 84.9257Z" fill="#6F7273"/>
<path d="M93.2825 102.371C94.4418 101.891 94.9923 100.562 94.5121 99.4028C94.0319 98.2436 92.7029 97.6931 91.5436 98.1733C90.3843 98.6535 89.8339 99.9825 90.314 101.142C90.7942 102.301 92.1233 102.851 93.2825 102.371Z" fill="#6F7273"/>
<path d="M65.9066 103.539C65.5877 103.539 65.2888 103.44 65.0297 103.26C64.8304 103.101 64.3521 102.643 64.5115 101.766C64.5913 101.287 65.4283 96.4248 65.7073 94.7906C64.5315 93.6347 61.004 90.2069 60.7649 89.9877C60.3065 89.5293 60.1271 88.8717 60.3264 88.3136C60.5058 87.7556 61.004 87.377 61.6617 87.2773L68.4774 86.2809C69.1949 84.846 71.2476 80.6808 71.4668 80.2224C71.7657 79.5847 72.3237 79.2061 72.9415 79.2061C73.5593 79.2061 74.1174 79.5648 74.4163 80.1627L77.4455 86.2809C80.2157 86.6795 83.9822 87.2375 84.2812 87.2773C84.9787 87.357 85.4969 87.7357 85.6961 88.2937C85.8755 88.8318 85.736 89.4297 85.3175 89.8283C85.1182 90.0076 81.4313 93.6148 80.2156 94.8105C80.674 97.481 81.3117 101.327 81.3915 101.626C81.531 102.204 81.3118 102.802 80.8534 103.161C80.3552 103.559 79.6576 103.579 79 103.241L72.9814 100.072C71.407 100.889 66.9827 103.241 66.7037 103.38C66.4247 103.48 66.1657 103.539 65.9066 103.539ZM62.8973 89.1706C64.3322 90.5656 67.5408 93.6945 67.5408 93.6945C67.7799 93.9336 67.8995 94.2724 67.8397 94.6112C67.8397 94.6112 67.1023 98.896 66.7436 101.008C68.1187 100.291 70.6497 98.9558 72.4832 97.9792C72.7821 97.8198 73.1408 97.8198 73.4398 97.9792L79.1594 100.989C78.8405 99.1351 78.2227 95.508 78.0832 94.6112C78.0234 94.2724 78.143 93.9336 78.3822 93.6945C78.3822 93.6945 81.4712 90.6852 83.0256 89.1706C81.0925 88.8916 77.1665 88.3136 76.6085 88.2339C76.2697 88.1941 75.9907 87.9748 75.8313 87.6759L72.9615 81.8765C72.1045 83.6104 70.1913 87.4766 70.0917 87.6958C69.9323 87.9948 69.6532 88.214 69.3144 88.2539L62.8973 89.1706Z" fill="#6F7273"/>
<path d="M53.4909 93.7343C54.7457 93.7343 55.7628 92.7171 55.7628 91.4623C55.7628 90.2076 54.7457 89.1904 53.4909 89.1904C52.2362 89.1904 51.219 90.2076 51.219 91.4623C51.219 92.7171 52.2362 93.7343 53.4909 93.7343Z" fill="#6F7273"/>
<path d="M53.4909 84.9257C54.7457 84.9257 55.7628 83.9085 55.7628 82.6538C55.7628 81.399 54.7457 80.3818 53.4909 80.3818C52.2362 80.3818 51.219 81.399 51.219 82.6538C51.219 83.9085 52.2362 84.9257 53.4909 84.9257Z" fill="#6F7273"/>
<path d="M55.6946 100.803C55.983 99.5815 55.2268 98.3579 54.0057 98.0695C52.7846 97.7812 51.5609 98.5373 51.2726 99.7585C50.9842 100.98 51.7404 102.203 52.9615 102.492C54.1826 102.78 55.4063 102.024 55.6946 100.803Z" fill="#6F7273"/>
<defs>
<linearGradient id="paint0_linear" x1="50.1918" y1="94.3065" x2="83.0317" y2="37.4261" gradientUnits="userSpaceOnUse">
<stop stop-color="#E1EEEE"/>
<stop offset="1" stop-color="#C6DBDC"/>
</linearGradient>
<linearGradient id="paint1_linear" x1="72.9518" y1="73.9284" x2="72.9518" y2="109.003" gradientUnits="userSpaceOnUse">
<stop stop-color="#E1EEEE"/>
<stop offset="1" stop-color="#C6DBDC"/>
</linearGradient>
</defs>
</svg>
