<svg width="236" height="236" viewBox="0 0 236 236" fill="none" xmlns="http://www.w3.org/2000/svg">
<path opacity="0.35" d="M190.11 213.401C190.11 204.619 159.244 197.504 121.186 197.504C83.1269 197.504 52.2617 204.619 52.2617 213.401C52.2617 222.178 83.1269 229.298 121.186 229.298C159.244 229.293 190.11 222.178 190.11 213.401Z" fill="#D1D1D1"/>
<path d="M201.24 81.0097C201.221 88.4338 207.225 94.4714 214.651 94.4923L214.603 111.948C207.177 111.927 201.139 117.929 201.119 125.353C201.1 132.777 207.102 138.804 214.528 138.824L214.469 160.317L24 159.757L24.0593 138.265C31.4855 138.286 37.5206 132.294 37.5452 124.871C37.5647 117.447 31.5603 111.409 24.1341 111.388L24.1824 93.9325C31.6085 93.9534 37.6466 87.9516 37.6662 80.5274C37.6858 73.1032 31.6833 67.0771 24.2571 67.0562L24.3149 45L214.784 45.5598L214.726 67.616C207.3 67.5951 201.26 73.5855 201.24 81.0097Z" fill="#209FAE"/>
<path d="M178.551 63.7219L60.6055 63.207L60.2774 141.537L178.223 142.051L178.551 63.7219Z" fill="#F6F6F6"/>
<path d="M132.772 107.431C132.772 107.431 135.637 124.712 135.748 125.57C135.86 126.428 135.376 127.457 134.101 126.774C132.831 126.094 117.874 118.1 117.874 118.1C117.874 118.1 102.803 125.894 101.936 126.342C101.072 126.785 99.6851 126.505 99.9699 124.905C100.255 123.305 103.13 107.231 103.13 107.231C103.13 107.231 91.6609 95.8623 90.5516 94.8014C89.4454 93.7363 89.911 92.4733 91.2945 92.2819C92.678 92.0906 108.912 89.8394 108.912 89.8394C108.912 89.8394 116.574 74.654 117.024 73.6651C117.687 72.2116 118.804 72.587 119.144 73.2829C119.484 73.9789 127.226 89.9608 127.226 89.9608C127.226 89.9608 144.173 92.6057 145.166 92.6976C146.153 92.7906 146.758 93.965 145.559 95.1171C144.366 96.2794 132.772 107.431 132.772 107.431Z" fill="#209FAE"/>
</svg>
