<svg width="51" height="55" viewBox="0 0 51 55" fill="none" xmlns="http://www.w3.org/2000/svg">
<path d="M8.17523 5.10575C8.42579 2.7627 10.5223 1.06576 12.858 1.31552L46.1618 4.87694C48.4974 5.12671 50.1877 7.2286 49.9371 9.57165L47.2151 35.0265C46.9645 37.3695 44.868 39.0665 42.5323 38.8167L9.22854 35.2553C6.8929 35.0055 5.2026 32.9036 5.45316 30.5606L8.17523 5.10575Z" fill="#C6DBDC"/>
<path fill-rule="evenodd" clip-rule="evenodd" d="M46.1278 6.18963L12.0757 2.61585C10.8816 2.49053 9.81206 3.35692 9.68674 4.55098L6.96387 30.4954C6.83855 31.6895 7.70494 32.7591 8.899 32.8844L42.9511 36.4582C44.1452 36.5835 45.2147 35.7171 45.3401 34.523L48.0629 8.57857C48.1882 7.38451 47.3219 6.31494 46.1278 6.18963ZM12.3026 0.453813C9.91447 0.203179 7.77534 1.93596 7.5247 4.32408L4.80183 30.2685C4.55119 32.6567 6.28397 34.7958 8.67209 35.0464L42.7242 38.6202C45.1123 38.8708 47.2515 37.1381 47.5021 34.7499L50.225 8.80548C50.4756 6.41735 48.7428 4.27822 46.3547 4.02759L12.3026 0.453813Z" fill="#464646"/>
<path opacity="0.35" d="M49.4821 52.8263C49.4821 51.6253 38.4027 50.6523 24.7411 50.6523C11.0794 50.6523 0 51.6253 0 52.8263C0 54.0264 11.0794 55.0002 24.7411 55.0002C38.4027 54.9994 49.4821 54.0264 49.4821 52.8263Z" fill="#D1D1D1"/>
<path d="M1 13.375C1 10.9588 2.90421 9 5.25316 9H38.7468C41.0958 9 43 10.9588 43 13.375V39.625C43 42.0412 41.0958 44 38.7468 44H5.25317C2.90421 44 1 42.0412 1 39.625V13.375Z" fill="#F4F4F4"/>
<path fill-rule="evenodd" clip-rule="evenodd" d="M5.25316 11.1875H38.7468C39.9213 11.1875 40.8734 12.1669 40.8734 13.375V24.1528L26.8941 32.6392C26.3181 32.9889 25.5912 32.9317 25.0735 32.4961L16.4424 25.232C15.1062 24.1074 13.1935 24.0758 11.8229 25.1557L3.12658 32.0075V13.375C3.12658 12.1669 4.07869 11.1875 5.25316 11.1875ZM3.12658 34.7629L13.116 26.8923C13.7034 26.4295 14.5231 26.443 15.0958 26.925L23.7269 34.1891C24.9348 35.2057 26.631 35.339 27.975 34.5231L40.8734 26.6928V39.625C40.8734 40.8331 39.9213 41.8125 38.7468 41.8125H5.25317C4.07869 41.8125 3.12658 40.8331 3.12658 39.625V34.7629ZM1 33.683V39.625C1 42.0412 2.90421 44 5.25317 44H38.7468C41.0958 44 43 42.0412 43 39.625V13.375C43 10.9588 41.0958 9 38.7468 9H5.25316C2.90421 9 1 10.9588 1 13.375V33.683Z" fill="#464646"/>
<circle cx="26" cy="21" r="4" fill="#C6DBDC"/>
<path fill-rule="evenodd" clip-rule="evenodd" d="M26 23.8947C27.5987 23.8947 28.8947 22.5987 28.8947 21C28.8947 19.4013 27.5987 18.1053 26 18.1053C24.4013 18.1053 23.1053 19.4013 23.1053 21C23.1053 22.5987 24.4013 23.8947 26 23.8947ZM26 26C28.7614 26 31 23.7614 31 21C31 18.2386 28.7614 16 26 16C23.2386 16 21 18.2386 21 21C21 23.7614 23.2386 26 26 26Z" fill="#464646"/>
</svg>
