<svg width="52" height="52" viewBox="0 0 52 52" fill="none" xmlns="http://www.w3.org/2000/svg">
<circle cx="26" cy="26" r="26" fill="#F6F6F6"/>
<path d="M33.3598 10.0062L29.2823 10C24.7013 10 21.7409 12.8978 21.7409 17.383V20.7871H17.6412C17.2869 20.7871 17 21.0611 17 21.3991V26.3313C17 26.6693 17.2872 26.943 17.6412 26.943H21.7409V39.3883C21.7409 39.7263 22.0278 40 22.3821 40H27.7311C28.0854 40 28.3723 39.726 28.3723 39.3883V26.943H33.1658C33.5201 26.943 33.807 26.6693 33.807 26.3313L33.809 21.3991C33.809 21.2369 33.7413 21.0814 33.6212 20.9666C33.5011 20.8517 33.3376 20.7871 33.1675 20.7871H28.3723V17.9014C28.3723 16.5145 28.7187 15.8104 30.6124 15.8104L33.3592 15.8094C33.7131 15.8094 34 15.5354 34 15.1977V10.618C34 10.2806 33.7134 10.0069 33.3598 10.0062Z" fill="#3870C5"/>
</svg>
