<svg width="28" height="35" viewBox="0 0 28 35" fill="none" xmlns="http://www.w3.org/2000/svg">
<path d="M22.3599 9.75839C22.2024 9.05798 21.5069 8.61768 20.8066 8.7751L15.2777 10.0175L13.7593 9.51499L12.6309 10.5773L13.0515 12.0209L14.8049 12.599C15.0348 12.6749 15.2745 12.6828 15.497 12.6328L21.3765 11.3116C22.0771 11.1543 22.5173 10.4589 22.3599 9.75839Z" fill="#FAA78C"/>
<path d="M13.7601 9.52114L9.99931 8.28292C9.31731 8.05799 8.58252 8.42862 8.35772 9.11037C8.13292 9.79218 8.50336 10.5272 9.18516 10.752L12.8387 11.9567L13.7601 9.52114Z" fill="#4699F2"/>
<path d="M3.59681 34.4034C2.74468 34.2767 2.15658 33.4831 2.28329 32.631L3.37122 25.3132L2.59394 18.8986C2.49034 18.0434 3.09966 17.266 3.95487 17.1624C4.80988 17.0586 5.58743 17.6681 5.69109 18.5233L6.49365 25.1468C6.51041 25.2855 6.50851 25.4257 6.48802 25.5638L5.36911 33.0898C5.24266 33.9409 4.45005 34.5303 3.59681 34.4034Z" fill="#5F6E9B"/>
<path d="M8.47196 34.4035C7.61983 34.2768 7.03173 33.4833 7.15844 32.6312L8.22922 25.4292L6.50852 19.1216C6.28175 18.2905 6.77176 17.433 7.60287 17.2063C8.43392 16.9795 9.29155 17.4694 9.51825 18.3006L11.3251 24.9241C11.382 25.1325 11.3949 25.3504 11.3632 25.564L10.2443 33.09C10.118 33.9395 9.32658 34.5306 8.47196 34.4035Z" fill="#414B82"/>
<path d="M16.6271 33.7014L14.8116 29.1239C14.7583 28.9895 14.731 28.8462 14.731 28.7016V24.1241C14.731 23.4915 15.2438 22.9787 15.8763 22.9787C16.5089 22.9787 17.0217 23.4915 17.0217 24.1241V28.4828L18.7565 32.8568C18.9897 33.4448 18.7021 34.1106 18.1141 34.3438C17.5248 34.5775 16.8598 34.2882 16.6271 33.7014Z" fill="#FFB69E"/>
<path d="M10.5924 34.3896C9.97925 34.234 9.60835 33.6108 9.764 32.9976L11.0731 27.8402C11.0887 27.7789 11.1093 27.7189 11.1348 27.6609L12.893 23.6632C13.1478 23.0842 13.8235 22.8214 14.4026 23.0759C14.9816 23.3306 15.2446 24.0064 14.9899 24.5855L13.27 28.496L11.9843 33.5611C11.8287 34.1741 11.2057 34.5452 10.5924 34.3896Z" fill="#FFB69E"/>
<path d="M24.8179 33.334L23.5016 27.7731C23.4762 27.666 23.4634 27.5563 23.4634 27.4463V21.6659C23.4634 20.8822 24.0986 20.247 24.8823 20.247C25.6659 20.247 26.3011 20.8822 26.3011 21.6659V27.2806L27.5793 32.6803C27.7598 33.4429 27.2879 34.2074 26.5254 34.3878C25.7614 34.5687 24.9981 34.0949 24.8179 33.334Z" fill="#FFB69E"/>
<path d="M20.5445 34.4228C20.5241 34.4228 20.5036 34.4223 20.483 34.4214C19.7001 34.3881 19.0925 33.7264 19.1258 32.9435L19.3808 26.9583C19.3852 26.8559 19.4007 26.7544 19.4268 26.6554L20.8457 21.2992C21.0464 20.5417 21.8236 20.0903 22.5806 20.2911C23.3381 20.4917 23.7895 21.2685 23.5889 22.026L22.2095 27.2331L21.9611 33.0643C21.9286 33.8265 21.3002 34.4227 20.5445 34.4228Z" fill="#FFB69E"/>
<path d="M14.8717 17.1954C14.7369 17.1954 14.6001 17.1649 14.4715 17.1005L11.4514 15.5904C11.4061 15.5678 11.3626 15.5413 11.3219 15.5113L7.55894 12.7495C7.15982 12.4566 7.07377 11.8955 7.36668 11.4964C7.65958 11.0973 8.22064 11.0112 8.61976 11.3041L12.3213 14.0209L15.2733 15.497C15.7162 15.7184 15.8956 16.2569 15.6742 16.6997C15.517 17.0138 15.2005 17.1954 14.8717 17.1954Z" fill="#FFB69E"/>
<path d="M2.59619 18.4518L10.0921 20.4293L12.1039 10.4703C12.3589 9.20853 11.5378 7.9804 10.2744 7.73359L6.99292 7.09251C5.72006 6.84381 4.49042 7.68677 4.26345 8.96376L2.59619 18.4518Z" fill="#64AFFF"/>
<path d="M14.6199 14.205C15.9569 14.205 17.0406 13.1212 17.0406 11.7843C17.0406 10.4473 15.9569 9.36354 14.6199 9.36354C13.283 9.36354 12.1992 10.4473 12.1992 11.7843C12.1992 13.1212 13.283 14.205 14.6199 14.205Z" fill="#FFB69E"/>
<path d="M12.4943 16.1888C12.6012 15.6047 13.0748 15.1826 13.6252 15.1826H15.6194C16.171 15.1826 16.6433 15.6035 16.7503 16.1888L18.5131 25.8228C18.5416 25.9785 18.5041 26.1397 18.411 26.2624C18.318 26.385 18.179 26.4566 18.0323 26.4566C16.5425 26.4566 12.7011 26.4566 11.2124 26.4566C11.0656 26.4566 10.9265 26.3854 10.8334 26.2627C10.7403 26.14 10.703 25.9785 10.7315 25.8228L12.4943 16.1888Z" fill="#E64937"/>
<path d="M12.9503 4.90622C13.5778 3.45158 12.9073 1.76367 11.4526 1.13618C9.99797 0.508685 8.31006 1.17922 7.68257 2.63387C7.05507 4.08851 7.72561 5.77642 9.18026 6.40391C10.6349 7.03141 12.3228 6.36087 12.9503 4.90622Z" fill="#FFB69E"/>
<path d="M19.3938 12.074C19.4569 11.3412 19.9912 10.7648 20.67 10.7C21.5442 10.6165 22.159 10.5578 23.1293 10.4652C23.8095 10.4002 24.4415 10.8638 24.6424 11.573L27.9505 23.2461C28.0638 23.6458 27.8096 24.0483 27.4321 24.0843C25.5949 24.2597 20.8578 24.7119 19.0218 24.8872C18.6408 24.9236 18.3189 24.5738 18.3542 24.1622L19.3938 12.074Z" fill="#FF6473"/>
<path d="M20.7173 9.94273C22.1396 9.71217 23.1057 8.37228 22.8751 6.95001C22.6445 5.52774 21.3047 4.56166 19.8824 4.79222C18.4601 5.02278 17.494 6.36267 17.7246 7.78494C17.9552 9.20721 19.295 10.1733 20.7173 9.94273Z" fill="#FFB69E"/>
<path d="M5.68468 20.3589H3.53861C3.08841 20.3589 2.72217 19.9926 2.72217 19.5424V18.655C2.72217 18.2048 3.08841 17.8386 3.53861 17.8386H5.68475C6.13495 17.8386 6.50119 18.2048 6.50119 18.655V19.5424C6.50119 19.9926 6.13488 20.3589 5.68468 20.3589ZM3.55367 19.5274H5.66962V18.6701H3.55367V19.5274Z" fill="#853C26"/>
<path d="M2.88449 26.718H1.7312C1.52774 26.718 1.36279 26.883 1.36279 27.0864V27.4045C1.36279 27.608 1.52774 27.7729 1.7312 27.7729H2.88449C3.08794 27.7729 3.25289 27.608 3.25289 27.4045V27.0864C3.25289 26.883 3.08794 26.718 2.88449 26.718Z" fill="#853C26"/>
<path d="M7.50265 26.718H6.34936C6.14591 26.718 5.98096 26.883 5.98096 27.0864V27.4045C5.98096 27.608 6.14591 27.7729 6.34936 27.7729H7.50265C7.70611 27.7729 7.87106 27.608 7.87106 27.4045V27.0864C7.87106 26.883 7.70611 26.718 7.50265 26.718Z" fill="#853C26"/>
<path d="M8.01178 19.4711H1.20843C0.562307 19.4711 0.0385742 19.9949 0.0385742 20.641V25.926C0.0385742 26.5721 0.562373 27.0958 1.20843 27.0958H8.01178C8.65791 27.0958 9.18164 26.5721 9.18164 25.926V20.641C9.18164 19.9948 8.65791 19.4711 8.01178 19.4711Z" fill="#A85B38"/>
<path d="M4.34208 13.1744L5.48994 12.0535L4.90268 10.3962L3.74809 10.1207L1.92838 11.8976C1.56443 12.253 1.44125 12.7881 1.61308 13.2668L3.47935 18.4664C3.72032 19.1378 4.46192 19.4949 5.14196 19.2508C5.81768 19.0082 6.1688 18.2639 5.92631 17.5882L4.34208 13.1744Z" fill="#FFB69E"/>
<path d="M7.87337 7.91596C7.37177 7.40231 6.54878 7.39255 6.0352 7.89409L3.74951 10.1261L5.49136 12.0589L7.85156 9.75413C8.36515 9.2526 8.3749 8.42961 7.87337 7.91596Z" fill="#4699F2"/>
<path d="M13.4318 17.7765L12.4752 17.5098L11.3181 18.6292L8.2889 17.9663C7.8055 17.8605 7.32741 18.1668 7.22159 18.6504C7.11577 19.1341 7.42203 19.6119 7.90569 19.7178L11.4043 20.4834C11.6964 20.5474 12.0028 20.4614 12.2192 20.252L13.7675 18.7542L13.4318 17.7765Z" fill="#FFB69E"/>
<path d="M15.3773 15.9509C15.0331 15.595 14.4656 15.5857 14.1098 15.9299L12.4746 17.5117L13.7669 18.7561L15.3563 17.2184C15.7122 16.8742 15.7216 16.3067 15.3773 15.9509Z" fill="#D13D2C"/>
<path d="M21.5583 13.5791L20.1598 13.7026L19.1336 15.3976L15.515 15.8266C14.906 15.8989 14.4708 16.4512 14.543 17.0601C14.61 17.6248 15.0895 18.04 15.6444 18.04C15.688 18.04 15.7321 18.0374 15.7765 18.0322L19.9336 17.5393C20.2733 17.499 20.5756 17.3043 20.7528 17.0116L22.0995 14.7872L21.5583 13.5791Z" fill="#FFB69E"/>
<path d="M22.989 11.1786C22.4641 10.8608 21.7815 11.0288 21.4639 11.5534L20.1626 13.7028L22.1023 14.7875L23.3639 12.7036C23.6815 12.179 23.5136 11.4963 22.989 11.1786Z" fill="#FA5565"/>
</svg>
