<?xml version="1.0" encoding="utf-8"?>
<!-- Generator: Adobe Illustrator 24.1.1, SVG Export Plug-In . SVG Version: 6.00 Build 0)  -->
<!DOCTYPE svg PUBLIC "-//W3C//DTD SVG 1.1//EN" "http://www.w3.org/Graphics/SVG/1.1/DTD/svg11.dtd" [
	<!ENTITY ns_extend "http://ns.adobe.com/Extensibility/1.0/">
	<!ENTITY ns_ai "http://ns.adobe.com/AdobeIllustrator/10.0/">
	<!ENTITY ns_graphs "http://ns.adobe.com/Graphs/1.0/">
	<!ENTITY ns_vars "http://ns.adobe.com/Variables/1.0/">
	<!ENTITY ns_imrep "http://ns.adobe.com/ImageReplacement/1.0/">
	<!ENTITY ns_sfw "http://ns.adobe.com/SaveForWeb/1.0/">
	<!ENTITY ns_custom "http://ns.adobe.com/GenericCustomNamespace/1.0/">
	<!ENTITY ns_adobe_xpath "http://ns.adobe.com/XPath/1.0/">
]>
<svg version="1.1" xmlns:x="&ns_extend;" xmlns:i="&ns_ai;" xmlns:graph="&ns_graphs;"
	 xmlns="http://www.w3.org/2000/svg" xmlns:xlink="http://www.w3.org/1999/xlink" x="0px" y="0px" viewBox="0 0 512 512"
	 style="enable-background:new 0 0 512 512;" xml:space="preserve">
<style type="text/css">
	.st0{display:none;}
	.st1{display:inline;}
	.st2{fill:url(#SVGID_1_);}
	.st3{fill:#F4F4F4;}
	.st4{fill:#C6DBDC;}
	.st5{fill:#6F7273;}
	.st6{fill:url(#SVGID_2_);}
	.st7{fill:url(#SVGID_3_);}
	.st8{fill:url(#SVGID_4_);}
	.st9{fill:url(#SVGID_5_);}
	.st10{fill:none;stroke:#6F7273;stroke-width:8;stroke-linecap:round;stroke-linejoin:round;stroke-miterlimit:10;}
	.st11{fill:url(#SVGID_6_);}
	.st12{fill:url(#SVGID_7_);}
	.st13{fill:url(#SVGID_8_);}
	.st14{fill:url(#SVGID_9_);}
	.st15{fill:#6F7273;stroke:#6F7273;stroke-miterlimit:10;}
	.st16{fill:none;stroke:#6F7273;stroke-width:12;stroke-linecap:round;stroke-linejoin:round;stroke-miterlimit:10;}
	.st17{fill:#6F7273;stroke:#6F7273;stroke-width:2;stroke-linecap:round;stroke-linejoin:round;stroke-miterlimit:10;}
	.st18{fill:none;stroke:#6F7273;stroke-width:6;stroke-linecap:round;stroke-linejoin:round;stroke-miterlimit:10;}
	.st19{fill:url(#SVGID_10_);}
	.st20{fill:url(#SVGID_11_);}
	.st21{fill:#E1EEEE;}
	.st22{fill:url(#SVGID_12_);}
	
		.st23{fill:none;stroke:#6F7273;stroke-width:8;stroke-linecap:round;stroke-linejoin:round;stroke-miterlimit:10;stroke-dasharray:26,20;}
	.st24{fill:url(#SVGID_13_);}
	.st25{fill:url(#SVGID_14_);}
	.st26{fill:url(#SVGID_15_);}
	.st27{fill:url(#SVGID_16_);}
	.st28{fill:url(#SVGID_17_);}
	.st29{fill:url(#SVGID_18_);}
	.st30{fill:url(#SVGID_19_);}
	.st31{fill:url(#SVGID_20_);}
	.st32{fill:url(#SVGID_21_);}
	.st33{fill:url(#SVGID_22_);}
	.st34{fill:#FFFFFF;}
	.st35{fill:#231F20;}
	.st36{fill:#1F9FAE;}
	.st37{fill:#229FAE;}
	.st38{fill:#03626E;}
</style>
<metadata>
	<sfw  xmlns="&ns_sfw;">
		<slices></slices>
		<sliceSourceBounds  bottomLeftOrigin="true" height="3651.8" width="7523.8" x="12.9" y="-1531.5"></sliceSourceBounds>
	</sfw>
</metadata>
<g id="icon_merged" class="st0">
</g>
<g id="Layer_2">
	<path class="st35" d="M497.3,476.6c-1.3-5.2-3.1-10.8-5.4-16.7c-4.3-10.7-9.8-19.9-16.4-27.4c0.5-1.7,0.8-3.5,0.8-5.4
		c0-10.6-8.6-19.1-19.1-19.1c-4.3,0-8.3,1.4-11.5,3.9c-2.6-0.9-5.3-1.7-8-2.3c-23.9-5.4-38.5-2.3-50.5,2c-3.4-3.1-7.9-5.1-12.9-5.1
		c-9.1,0-16.8,6.4-18.7,15c-5.8,0.5-12.4,0.1-20.7-1.7c-7.6-1.6-13.6-4.2-18.4-7.6c0.8-2.1,1.3-4.4,1.3-6.8
		c0-10.4-8.2-18.8-18.5-19.1c-2.1-8-2.5-15.9-2.8-21.9c-0.1-2.7-0.3-4.9-0.5-6.7L281.7,49.5c-0.2-3.8-3-7-6.7-7.6L59.6,4.2
		c-0.1,0-0.1,0-0.2,0c-0.1,0-0.2,0-0.3,0c-0.1,0-0.2,0-0.2,0c-0.1,0-0.2,0-0.3,0c-0.1,0-0.2,0-0.3,0c-0.1,0-0.1,0-0.2,0
		c-0.1,0-0.2,0-0.3,0c-0.1,0-0.2,0-0.3,0c-0.1,0-0.1,0-0.2,0c-0.1,0-0.2,0-0.3,0c-0.1,0-0.2,0-0.2,0c-0.1,0-0.2,0-0.2,0
		c-0.1,0-0.2,0-0.3,0.1c-0.1,0-0.2,0-0.2,0.1c-0.1,0-0.2,0-0.2,0.1c-0.1,0-0.2,0.1-0.3,0.1c-0.1,0-0.2,0.1-0.2,0.1
		c-0.1,0-0.1,0.1-0.2,0.1c-0.1,0-0.2,0.1-0.3,0.1c-0.1,0-0.2,0.1-0.3,0.1c-0.1,0-0.1,0.1-0.2,0.1c-0.1,0-0.2,0.1-0.2,0.1
		c-0.1,0.1-0.2,0.1-0.3,0.2c0,0-0.1,0-0.1,0c0,0-0.1,0-0.1,0.1c-0.1,0-0.1,0.1-0.2,0.1c-0.1,0.1-0.2,0.1-0.3,0.2
		C53.1,5.9,53.1,6,53,6c-0.1,0-0.1,0.1-0.2,0.1c-0.1,0.1-0.2,0.2-0.3,0.2c-0.1,0.1-0.1,0.1-0.2,0.2c0,0-0.1,0.1-0.1,0.1
		c-0.1,0.1-0.2,0.2-0.2,0.3C52,7,52,7.1,51.9,7.2c0,0-0.1,0.1-0.1,0.2c-0.1,0.1-0.2,0.2-0.2,0.3c0,0.1-0.1,0.1-0.1,0.2
		c0,0.1-0.1,0.1-0.1,0.2c-0.1,0.1-0.1,0.2-0.2,0.3c0,0.1-0.1,0.1-0.1,0.2C51,8.5,51,8.6,51,8.7c-0.1,0.1-0.1,0.2-0.1,0.3
		c0,0.1-0.1,0.1-0.1,0.2c0,0.1-0.1,0.2-0.1,0.2c0,0.1-0.1,0.2-0.1,0.3c0,0.1,0,0.1-0.1,0.2c0,0.1,0,0.2-0.1,0.3c0,0.1,0,0.1-0.1,0.2
		L1.2,223.5c-0.9,3.7,1,7.5,4.4,9.1l274.5,131.2c0,0.5,0.1,1,0.1,1.5c0.3,6.7,0.9,16.9,4,27.5c-3,3.4-4.8,7.8-4.8,12.6
		c0,10.6,8.6,19.1,19.1,19.1c2,0,4-0.3,5.9-0.9c7.4,5.7,16.4,9.8,27.1,12c11,2.3,20,2.6,27.6,1.7c3.5,4.5,8.9,7.4,15.1,7.4
		c10.3,0,18.6-8.1,19.1-18.2c10-3.6,21.5-5.6,40.7-1.2c1.4,0.3,2.7,0.7,4,1.1c0,0.2,0,0.5,0,0.7c0,10.6,8.6,19.1,19.1,19.1
		c2.6,0,5.1-0.5,7.4-1.5c8.6,10.7,13.7,23.6,16.6,34.3c-5.1,3.4-8.4,9.3-8.4,15.8c0,10.6,8.6,19.1,19.1,19.1
		c10.6,0,19.1-8.6,19.1-19.1C511,486.3,505.2,479,497.3,476.6z M278.4,329.6L127.5,102.1c64-39.1,131.6-36.3,138.7-35.9L278.4,329.6
		z M118.6,88.6L75.4,23.5L232.6,51C203.6,53.8,160.7,62.7,118.6,88.6z M61.9,32.4l43.2,65.1C64.8,126.2,40,162.2,26,187.9L61.9,32.4
		z M114,111.1l150.8,227.5L26.9,224.9C29.3,218.1,53.1,154.7,114,111.1z"/>
</g>
</svg>
