<svg width="131" height="118" viewBox="0 0 131 118" fill="none" xmlns="http://www.w3.org/2000/svg">
<path fill-rule="evenodd" clip-rule="evenodd" d="M47.0228 32.671C49.9188 43.9439 60.1327 52.2735 72.2886 52.2735C86.6964 52.2735 98.3763 40.5717 98.3763 26.1368C98.3763 11.7018 86.6964 0 72.2886 0C60.1328 0 49.9188 8.3296 47.0228 19.6025H0.557617V32.671H47.0228ZM130.991 19.6025H111.425V32.671H130.991V19.6025ZM14.4335 98.0128C17.3295 109.285 27.5435 117.616 39.6993 117.616C54.1072 117.616 65.7871 105.913 65.7871 91.4787C65.7871 77.0437 54.1072 65.3419 39.6993 65.3419C27.5435 65.3419 17.3295 73.6715 14.4335 84.9444H0.557617V98.0128H14.4335ZM130.996 98.0128H78.8207V84.9444H130.996V98.0128ZM39.6943 104.547C46.8982 104.547 52.7381 98.696 52.7381 91.4786C52.7381 84.2611 46.8982 78.4102 39.6943 78.4102C32.4903 78.4102 26.6504 84.2611 26.6504 91.4786C26.6504 98.696 32.4903 104.547 39.6943 104.547ZM85.3427 26.1369C85.3427 33.3543 79.5027 39.2052 72.2987 39.2052C65.0948 39.2052 59.2549 33.3543 59.2549 26.1369C59.2549 18.9194 65.0948 13.0685 72.2987 13.0685C79.5027 13.0685 85.3427 18.9194 85.3427 26.1369Z" fill="#0095A7"/>
</svg>
