<svg width="17" height="13" viewBox="0 0 17 13" fill="none" xmlns="http://www.w3.org/2000/svg">
<path fill-rule="evenodd" clip-rule="evenodd" d="M13.886 2.85366C13.5612 3.68493 12.6848 4.28049 11.6546 4.28049C10.6245 4.28049 9.74809 3.68493 9.42329 2.85366H0V1.58537H9.36895C9.63914 0.672348 10.5601 0 11.6546 0C12.7492 0 13.6701 0.672348 13.9403 1.58537H17V2.85366H13.886ZM11.6546 3.4878C12.4774 3.4878 13.1443 2.88449 13.1443 2.14024C13.1443 1.396 12.4774 0.792683 11.6546 0.792683C10.8319 0.792683 10.1649 1.396 10.1649 2.14024C10.1649 2.88449 10.8319 3.4878 11.6546 3.4878Z" fill="#209FAE"/>
<path fill-rule="evenodd" clip-rule="evenodd" d="M4.81959 8.56098C5.84975 8.56098 6.72614 7.96542 7.05094 7.13415H17V5.86585H7.10528C6.83509 4.95284 5.91413 4.28049 4.81959 4.28049C3.72504 4.28049 2.80409 4.95284 2.5339 5.86585H0V7.13415H2.58824C2.91304 7.96542 3.78943 8.56098 4.81959 8.56098ZM4.81959 7.76829C5.64232 7.76829 6.30928 7.16498 6.30928 6.42073C6.30928 5.67649 5.64232 5.07317 4.81959 5.07317C3.99685 5.07317 3.3299 5.67649 3.3299 6.42073C3.3299 7.16498 3.99685 7.76829 4.81959 7.76829Z" fill="#209FAE"/>
<path fill-rule="evenodd" clip-rule="evenodd" d="M11.4324 11.5732C11.1076 12.4044 10.2312 13 9.20103 13C8.17087 13 7.29448 12.4044 6.96968 11.5732H0V10.3049H6.91534C7.18553 9.39186 8.10649 8.71951 9.20103 8.71951C10.2956 8.71951 11.2165 9.39186 11.4867 10.3049H17V11.5732H11.4324ZM10.6907 10.8598C10.6907 11.604 10.0238 12.2073 9.20103 12.2073C8.3783 12.2073 7.71134 11.604 7.71134 10.8598C7.71134 10.1155 8.3783 9.51219 9.20103 9.51219C10.0238 9.51219 10.6907 10.1155 10.6907 10.8598Z" fill="#209FAE"/>
</svg>
