<svg width="13" height="12" viewBox="0 0 13 12" fill="none" xmlns="http://www.w3.org/2000/svg">
<path fill-rule="evenodd" clip-rule="evenodd" d="M4.54212 3.18903C4.82576 4.288 5.82372 5.09985 7.0113 5.09985C8.41958 5.09985 9.56122 3.95821 9.56122 2.54993C9.56122 1.14164 8.41958 0 7.0113 0C5.82255 0 4.8238 0.813441 4.54129 1.91406H0V3.18903H4.54212ZM10.8369 1.91406V3.18903H12.7494V1.91406H10.8369ZM1.35671 9.56384C1.64034 10.6628 2.6383 11.4747 3.82588 11.4747C5.23417 11.4747 6.37581 10.333 6.37581 8.92475C6.37581 7.51646 5.23417 6.37482 3.82588 6.37482C2.63714 6.37482 1.63838 7.18826 1.35588 8.28888H0V9.56384H1.35671ZM7.64941 9.56384V8.28888H12.7493V9.56384H7.64941ZM3.82574 10.1982C4.52989 10.1982 5.10071 9.62736 5.10071 8.92322C5.10071 8.21908 4.52989 7.64826 3.82574 7.64826C3.1216 7.64826 2.55078 8.21908 2.55078 8.92322C2.55078 9.62736 3.1216 10.1982 3.82574 10.1982ZM8.28723 2.5484C8.28723 3.25254 7.71641 3.82336 7.01227 3.82336C6.30813 3.82336 5.7373 3.25254 5.7373 2.5484C5.7373 1.84426 6.30813 1.27344 7.01227 1.27344C7.71641 1.27344 8.28723 1.84426 8.28723 2.5484Z" fill="#464646"/>
</svg>
