<svg width="25" height="15" viewBox="0 0 25 15" fill="none" xmlns="http://www.w3.org/2000/svg">
<path d="M8.96747 7.07793C9.10483 7.07793 9.21619 6.9678 9.21619 6.83194C9.21619 6.69607 9.10483 6.58594 8.96747 6.58594C8.83011 6.58594 8.71875 6.69607 8.71875 6.83194C8.71875 6.9678 8.83011 7.07793 8.96747 7.07793Z" fill="#6F7273"/>
<path d="M8.96775 7.15778C8.83257 7.15778 8.71362 7.07756 8.66496 6.95456C8.63251 6.87435 8.63251 6.78343 8.66496 6.70322C8.6974 6.623 8.76228 6.55883 8.84339 6.52674C8.88123 6.5107 8.92449 6.5 8.96775 6.5C9.10292 6.5 9.22187 6.58022 9.27053 6.70322C9.30298 6.78343 9.30298 6.87435 9.27053 6.95456C9.23809 7.03478 9.17321 7.09895 9.09211 7.13104C9.04885 7.14708 9.011 7.15778 8.96775 7.15778ZM8.96234 6.66578C8.94071 6.66578 8.91908 6.67113 8.89746 6.67648C8.8542 6.69252 8.82176 6.72461 8.80554 6.76739C8.78932 6.81017 8.78932 6.85295 8.80554 6.89574C8.83257 6.95991 8.89205 6.99735 8.96234 6.99735C8.98397 6.99735 9.00559 6.992 9.02722 6.98665C9.07048 6.97061 9.10292 6.93852 9.11914 6.89574C9.13536 6.85295 9.13536 6.81017 9.11914 6.76739C9.09211 6.70856 9.03263 6.66578 8.96234 6.66578Z" fill="#6F7273"/>
<path d="M10.9287 6.03037C10.9828 6.15337 10.9233 6.29776 10.7936 6.35124C10.6692 6.40471 10.5232 6.34589 10.4692 6.21754C10.4151 6.09454 10.4746 5.95015 10.6043 5.89667C10.7287 5.8432 10.8747 5.90202 10.9287 6.03037Z" fill="#6F7273"/>
<path d="M10.6982 6.44879C10.563 6.44879 10.4441 6.36858 10.3954 6.24558C10.363 6.16536 10.363 6.07445 10.3954 5.99423C10.4279 5.91402 10.4928 5.84984 10.5739 5.81775C10.6117 5.80171 10.655 5.79102 10.6982 5.79102C10.8334 5.79102 10.9523 5.87123 11.001 5.99423C11.0713 6.16001 10.9902 6.35253 10.8226 6.42206C10.7847 6.44345 10.7415 6.44879 10.6982 6.44879ZM10.6982 5.9568C10.6766 5.9568 10.655 5.96215 10.6333 5.96749C10.5901 5.98354 10.5576 6.01562 10.5414 6.05841C10.5252 6.10119 10.5252 6.14397 10.5414 6.18675C10.5684 6.25093 10.6279 6.28836 10.6982 6.28836C10.7198 6.28836 10.7415 6.28301 10.7631 6.27767C10.8496 6.24023 10.8875 6.14397 10.855 6.06375C10.828 5.99958 10.7685 5.9568 10.6982 5.9568Z" fill="#6F7273"/>
<path d="M12.4323 5.65801C12.5697 5.65801 12.681 5.54788 12.681 5.41201C12.681 5.27615 12.5697 5.16602 12.4323 5.16602C12.2949 5.16602 12.1836 5.27615 12.1836 5.41201C12.1836 5.54788 12.2949 5.65801 12.4323 5.65801Z" fill="#6F7273"/>
<path d="M12.4326 5.73981C12.2974 5.73981 12.1785 5.65959 12.1298 5.53659C12.0974 5.45638 12.0974 5.36546 12.1298 5.28525C12.1622 5.20503 12.2271 5.14086 12.3082 5.10877C12.3461 5.09273 12.3893 5.08203 12.4326 5.08203C12.5678 5.08203 12.6867 5.16225 12.7354 5.28525C12.8057 5.45103 12.7246 5.64355 12.5569 5.71307C12.5191 5.72911 12.4758 5.73981 12.4326 5.73981ZM12.4326 5.24781C12.411 5.24781 12.3893 5.25316 12.3677 5.25851C12.3244 5.27455 12.292 5.30664 12.2758 5.34942C12.2596 5.3922 12.2596 5.43499 12.2758 5.47777C12.3028 5.54194 12.3623 5.57938 12.4326 5.57938C12.4542 5.57938 12.4758 5.57403 12.4975 5.56868C12.584 5.53125 12.6218 5.43499 12.5894 5.35477C12.5624 5.28525 12.5029 5.24781 12.4326 5.24781Z" fill="#6F7273"/>
<path d="M14.1667 4.95293C14.3041 4.95293 14.4154 4.8428 14.4154 4.70694C14.4154 4.57107 14.3041 4.46094 14.1667 4.46094C14.0293 4.46094 13.918 4.57107 13.918 4.70694C13.918 4.8428 14.0293 4.95293 14.1667 4.95293Z" fill="#6F7273"/>
<path d="M14.168 5.03278C14.0328 5.03278 13.9139 4.95256 13.8652 4.82956C13.7949 4.66378 13.876 4.47126 14.0436 4.40174C14.0815 4.3857 14.1247 4.375 14.168 4.375C14.3032 4.375 14.4221 4.45522 14.4708 4.57822C14.5411 4.744 14.46 4.93652 14.2923 5.00604C14.2545 5.02208 14.2112 5.03278 14.168 5.03278ZM14.168 4.54078C14.1464 4.54078 14.1247 4.54613 14.1031 4.55148C14.0166 4.58891 13.9787 4.68517 14.0112 4.76539C14.0382 4.82956 14.0977 4.867 14.168 4.867C14.1896 4.867 14.2112 4.86165 14.2329 4.8563C14.3194 4.81887 14.3572 4.72261 14.3248 4.64239C14.2978 4.58356 14.2383 4.54078 14.168 4.54078Z" fill="#6F7273"/>
<path d="M16.1319 3.90341C16.1859 4.02641 16.1265 4.1708 15.9967 4.22428C15.8723 4.27776 15.7264 4.21893 15.6723 4.09059C15.6182 3.96759 15.6777 3.8232 15.8075 3.76972C15.9372 3.71624 16.0832 3.77507 16.1319 3.90341Z" fill="#6F7273"/>
<path d="M15.9063 4.31989C15.7711 4.31989 15.6521 4.23967 15.6035 4.11667C15.5332 3.95089 15.6143 3.75837 15.7819 3.68885C15.8198 3.6728 15.863 3.66211 15.9063 3.66211C16.0414 3.66211 16.1604 3.74233 16.2091 3.86533C16.2793 4.03111 16.1982 4.22363 16.0306 4.29315C15.9928 4.31454 15.9495 4.31989 15.9063 4.31989ZM15.9063 3.82789C15.8846 3.82789 15.863 3.83324 15.8414 3.83859C15.7549 3.87602 15.717 3.97228 15.7495 4.0525C15.7765 4.11667 15.836 4.15411 15.9063 4.15411C15.9279 4.15411 15.9495 4.14876 15.9712 4.14341C16.0577 4.10598 16.0955 4.00972 16.0631 3.9295C16.036 3.87067 15.9712 3.82789 15.9063 3.82789Z" fill="#6F7273"/>
<path d="M17.6393 3.53497C17.7767 3.53497 17.8881 3.42483 17.8881 3.28897C17.8881 3.15311 17.7767 3.04297 17.6393 3.04297C17.502 3.04297 17.3906 3.15311 17.3906 3.28897C17.3906 3.42483 17.502 3.53497 17.6393 3.53497Z" fill="#6F7273"/>
<path d="M17.6406 3.61481C17.5055 3.61481 17.3865 3.53459 17.3379 3.41159C17.2676 3.24581 17.3487 3.05329 17.5163 2.98377C17.5541 2.96773 17.5974 2.95703 17.6406 2.95703C17.7758 2.95703 17.8948 3.03725 17.9434 3.16025C17.9759 3.24046 17.9759 3.33138 17.9434 3.41159C17.911 3.49181 17.8461 3.55598 17.765 3.58807C17.7272 3.60411 17.6839 3.61481 17.6406 3.61481ZM17.6406 3.12281C17.619 3.12281 17.5974 3.12816 17.5758 3.13351C17.4892 3.17094 17.4514 3.2672 17.4838 3.34742C17.5109 3.41159 17.5704 3.44903 17.6406 3.44903C17.6623 3.44903 17.6839 3.44368 17.7055 3.43833C17.7488 3.42229 17.7812 3.3902 17.7974 3.34742C17.8137 3.30464 17.8137 3.26186 17.7974 3.21907C17.7704 3.16025 17.7055 3.12281 17.6406 3.12281Z" fill="#6F7273"/>
<path d="M3.50226 12.2953C3.42115 12.2953 3.34546 12.2579 3.29679 12.1937C3.2211 12.0974 3.24272 11.9744 3.25354 11.9317L3.90778 9.25241C3.91859 9.19358 3.97807 8.97432 4.20516 8.87806C4.35656 8.81389 6.03271 8.12937 6.22736 8.04915C6.28684 8.02776 6.3355 8.01172 6.38416 8.01172C6.47608 8.01172 6.55178 8.0545 6.59503 8.12402C6.66532 8.24167 6.61125 8.37002 6.58422 8.4235C6.58422 8.42885 6.57881 8.42885 6.57881 8.43419L4.63772 11.7017C4.61068 11.7552 4.52417 11.9049 4.32411 11.9851C4.16191 12.0493 3.81586 12.1937 3.64825 12.2632C3.59958 12.2846 3.55092 12.2953 3.50226 12.2953ZM6.03271 8.56789C5.47579 8.7925 4.47551 9.20428 4.36196 9.25241C4.31871 9.26845 4.30789 9.32728 4.30789 9.32728C4.30789 9.33797 4.30789 9.33262 4.30789 9.33797L3.70772 11.8087C3.87534 11.7391 4.06999 11.6589 4.17813 11.6161C4.24842 11.5894 4.27545 11.5359 4.27545 11.5359C4.28086 11.5252 4.28627 11.5145 4.29167 11.5092L6.03271 8.56789Z" fill="#6F7273"/>
<path d="M12.0635 4.34036C12.031 4.34036 11.9932 4.32967 11.9661 4.31362L6.49973 1.27608C6.42944 1.23864 6.22397 1.11564 6.23479 0.917774C6.24019 0.832209 6.28345 0.70921 6.4781 0.628993L7.90553 0.0460836C8.14344 -0.0501767 8.40838 0.0300402 8.46786 0.0567791L16.2106 2.27611C16.3187 2.3082 16.3782 2.4205 16.3512 2.52211C16.3187 2.62907 16.2052 2.68789 16.1025 2.66115L8.3435 0.44182C8.33809 0.44182 8.33268 0.436473 8.32727 0.436473C8.28943 0.420429 8.14885 0.382995 8.05693 0.420429L6.74845 0.955208L12.1608 3.96067C12.2581 4.01415 12.2906 4.13715 12.2365 4.23341C12.2041 4.30293 12.1338 4.34036 12.0635 4.34036Z" fill="#6F7273"/>
<path d="M12.288 14.9561C12.1853 14.9561 12.0934 14.9134 12.0339 14.8385C11.9311 14.7048 11.969 14.523 11.9852 14.4588L13.6938 6.51198C13.71 6.35689 13.8019 6.0895 14.0885 5.9772L17.4679 4.59212C17.5273 4.56538 17.5868 4.55469 17.6355 4.55469C17.7274 4.55469 17.8085 4.59212 17.868 4.66164C17.9653 4.78999 17.9329 4.96647 17.9166 5.01995C17.9166 5.03064 17.9112 5.03599 17.9058 5.04668L14.2399 13.8812C14.2183 13.9775 14.121 14.2449 13.7317 14.4L12.4989 14.9027C12.4232 14.9401 12.3529 14.9561 12.288 14.9561ZM17.4841 5.01995L14.2399 6.3462C14.1101 6.39968 14.0993 6.54941 14.0939 6.54941C14.0939 6.56011 14.0939 6.57081 14.0885 6.5815L12.3853 14.523L13.5803 14.0363C13.7965 13.9454 13.8398 13.8224 13.8452 13.801C13.8452 13.7796 13.8506 13.7743 13.8614 13.7529L17.4841 5.01995Z" fill="#6F7273"/>
<path d="M23.2847 3.62792C23.2469 3.62792 23.2144 3.61723 23.182 3.60118C23.1604 3.58514 22.598 3.24823 22.3439 2.63858C22.0898 2.02893 22.2466 1.39789 22.252 1.37115C22.279 1.2642 22.3872 1.20003 22.5007 1.22676C22.6088 1.2535 22.6737 1.36046 22.6467 1.47276C22.6467 1.47811 22.5169 2.00754 22.717 2.48884C22.9225 2.97549 23.3874 3.25358 23.3929 3.25893C23.4902 3.31775 23.5226 3.44075 23.4631 3.53166C23.4199 3.59584 23.3496 3.62792 23.2847 3.62792Z" fill="#6F7273"/>
<path d="M19.77 2.70046C19.6943 2.70046 19.6186 2.68442 19.5429 2.64698C19.424 2.58816 19.3267 2.4812 19.2726 2.35285C19.2185 2.22451 19.2131 2.08012 19.251 1.95712C19.2942 1.81807 19.397 1.71112 19.5267 1.65764L21.484 0.85547C21.5868 0.812688 21.7057 0.860818 21.749 0.962426C21.7922 1.06403 21.7436 1.18169 21.6408 1.22447L19.6835 2.02664C19.6619 2.03733 19.6457 2.05338 19.6349 2.08012C19.624 2.11755 19.624 2.16033 19.6457 2.19777C19.6619 2.24055 19.6943 2.27264 19.7268 2.28868C19.7538 2.29937 19.7754 2.30472 19.7971 2.29403C19.8079 2.28868 19.8133 2.28868 19.8187 2.28333C19.8241 2.27798 19.8295 2.27798 19.8349 2.27264L22.36 1.24051C22.4627 1.19773 22.5816 1.24586 22.6249 1.34747C22.6682 1.44908 22.6195 1.56673 22.5168 1.60951L19.9971 2.64163C19.9809 2.65233 19.9647 2.65768 19.9485 2.66302C19.8944 2.68976 19.8295 2.70046 19.77 2.70046Z" fill="#6F7273"/>
<path d="M4.04135 9.74586C3.99268 9.74586 3.94943 9.72982 3.91158 9.69773L0.126718 6.48371C0.0564273 6.43023 -0.013863 6.32862 0.00235788 6.20562C0.0131718 6.13075 0.0618343 6.0238 0.22945 5.95428L0.737703 5.74571C0.93776 5.66549 1.10537 5.69758 1.2027 5.75641L4.34954 7.07196L19.781 0.761567C20.7596 0.360483 22.106 1.00757 22.4628 1.19474C22.7602 1.09313 23.0846 1.10383 23.3766 1.22683C23.6956 1.36052 23.9497 1.60652 24.0795 1.92204C24.3552 2.57982 24.0362 3.33386 23.3766 3.60125C23.3766 3.60125 23.3712 3.60125 23.3712 3.60659H23.3658L17.4398 6.02914C17.337 6.07193 17.2181 6.0238 17.1748 5.92219C17.1316 5.82058 17.1802 5.70293 17.283 5.66015L23.1928 3.24294C23.1982 3.24294 23.2036 3.2376 23.209 3.2376C23.2144 3.2376 23.2198 3.23225 23.2252 3.23225C23.6794 3.04508 23.8957 2.52634 23.7064 2.07712C23.6145 1.85786 23.4415 1.68674 23.2198 1.59582C22.9981 1.50491 22.7602 1.50491 22.5385 1.59582C22.5331 1.59582 22.5277 1.60117 22.5277 1.60117C22.4736 1.62256 22.4087 1.62256 22.3547 1.59582C22.3493 1.59048 22.3439 1.59048 22.3385 1.58513C21.8248 1.291 20.6731 0.825741 19.9324 1.13057L4.41983 7.4784C4.37117 7.49979 4.31169 7.49979 4.26303 7.4784L1.01886 6.12006C1.00805 6.11471 0.991829 6.10936 0.981015 6.09867C0.970201 6.09867 0.943166 6.09332 0.889097 6.11471L0.499797 6.27514L4.17111 9.39291C4.25762 9.46243 4.26844 9.59077 4.19274 9.67634C4.15489 9.72447 4.10082 9.74586 4.04135 9.74586Z" fill="#6F7273"/>
<path d="M5.61436 9.86512C5.50622 9.86512 5.41971 9.77955 5.4143 9.6726C5.4089 9.56029 5.49541 9.46938 5.60355 9.46403C6.36593 9.4266 8.44219 9.28221 8.88556 9.09504C9.03155 9.03621 10.0426 8.61908 11.4647 8.04152L13.6437 7.14844C13.7464 7.10566 13.8654 7.15379 13.9086 7.25539C13.9519 7.357 13.9032 7.47465 13.8005 7.51744L11.6215 8.41052C10.1995 8.99343 9.18835 9.40521 9.04236 9.46403C8.45301 9.70468 5.91174 9.84373 5.62517 9.85977C5.62517 9.86512 5.61977 9.86512 5.61436 9.86512Z" fill="#6F7273"/>
</svg>
