<svg width="2809" height="375" viewBox="0 0 2809 375" fill="none" xmlns="http://www.w3.org/2000/svg">
<path fill-rule="evenodd" clip-rule="evenodd" d="M164.978 189.453H125V166.016H164.978V189.453ZM324.89 189.453H244.934V166.016H324.89V189.453ZM484.802 189.453H404.846V166.016H484.802V189.453ZM644.714 189.453H564.758V166.016H644.714V189.453ZM804.626 189.453H724.67V166.016H804.626V189.453ZM964.539 189.453H884.583V166.016H964.539V189.453ZM1124.45 189.453H1044.49V166.016H1124.45V189.453ZM1284.36 189.453H1204.41V166.016H1284.36V189.453ZM1444.27 189.453H1364.32V166.016H1444.27V189.453ZM1604.19 189.453H1524.23V166.016H1604.19V189.453ZM1764.1 189.453H1684.14V166.016H1764.1V189.453ZM1924.01 189.453H1844.06V166.016H1924.01V189.453ZM2083.92 189.453H2003.97V166.016H2083.92V189.453ZM2243.84 189.453H2163.88V166.016H2243.84V189.453ZM2403.75 189.453H2323.79V166.016H2403.75V189.453ZM2563.66 189.453H2483.7V166.016H2563.66V189.453ZM2683.59 189.453H2643.62V166.016H2683.59V189.453Z" fill="white"/>
<path d="M1606.29 187.206C1606.26 172.874 1594.47 161.358 1580.14 161.677L1501.71 163.422L1438.78 38.7702L1399.43 38.8359L1429.66 165.025L1348.94 166.821L1327.7 137.341L1292.13 137.4L1316.43 187.688L1292.29 238.056L1327.86 237.997L1349 208.446L1429.74 209.974L1399.92 336.263L1439.28 336.197L1501.79 211.337L1580.22 212.822C1594.55 213.094 1606.31 201.539 1606.29 187.206Z" fill="#FBFBFB"/>
<path d="M83.9844 181.641C83.9844 204.293 65.1838 222.656 41.9922 222.656C18.8005 222.656 0 204.293 0 181.641C0 158.988 18.8005 140.625 41.9922 140.625C65.1838 140.625 83.9844 158.988 83.9844 181.641Z" fill="white"/>
<path d="M2808.59 173.828C2808.59 196.48 2789.79 214.844 2766.6 214.844C2743.41 214.844 2724.61 196.48 2724.61 173.828C2724.61 151.176 2743.41 132.812 2766.6 132.812C2789.79 132.812 2808.59 151.176 2808.59 173.828Z" fill="white"/>
</svg>
