<svg width="135" height="136" viewBox="0 0 135 136" fill="none" xmlns="http://www.w3.org/2000/svg">
<path d="M1 67C1 29.9969 30.9969 0 68 0V0C105.003 0 135 29.9969 135 67V67C135 104.003 105.003 134 68 134V134C30.9969 134 1 104.003 1 67V67Z" fill="#E2ECF8" fill-opacity="0.3"/>
<path d="M66.8189 32.1392C66.1772 30.5886 64.4128 29.8668 62.8889 30.5084C62.8889 30.5084 62.8622 30.5084 62.8622 30.5351C61.766 29.8935 58.2104 28.2092 55.7508 29.2251C54.9755 29.546 50.9119 31.2302 45.565 33.4224L24.2844 27.2735C24.2844 27.2735 23.6428 27.0329 23.1348 27.2468C22.4932 27.5141 20.0069 28.53 19.2316 28.8776C18.4563 29.1984 19.3385 29.6529 19.3385 29.6529L34.3633 38.0742C23.723 42.4587 13.1361 46.8431 13.1361 46.8431L4.23357 43.0468C4.23357 43.0468 3.96622 42.833 3.45827 43.0468C2.92358 43.2607 2.44236 43.4746 2.06808 43.635C1.53339 43.8489 1.9344 44.1697 1.9344 44.1697L12.3074 53.0722L10.6766 59.8628C10.6766 59.8628 10.5429 60.3173 11.0241 60.1301C11.4786 59.943 12.441 59.542 12.8688 59.3548C13.3233 59.1677 13.4569 58.8201 13.4569 58.8201L16.6383 53.4198C16.6383 53.4198 24.2577 53.0188 25.835 52.3504C26.4231 52.1098 32.0641 49.7839 38.9081 46.9501L34.6573 66.8672C34.6573 66.8672 34.3633 67.8564 35.3257 67.4554C36.2881 67.0544 37.7051 66.4662 38.721 66.0652C39.7101 65.6642 39.7904 64.9691 39.7904 64.9691L48.8801 42.833C57.4618 39.2773 65.1613 36.0959 65.1613 36.0959H65.1881C66.7119 35.4543 67.4605 33.6898 66.8189 32.1392Z" fill="#F4F4F4"/>
<path d="M35.6736 134.211V82.453H55.3501V66.3589H94.3556V82.453H114.059V134.211H35.6736Z" fill="#F4F4F4"/>
<path d="M80.9348 117.128H68.7974V134.211H80.9348V117.128Z" fill="#C6DBDC"/>
<path d="M96.1199 67.589C96.1199 67.9633 95.8258 68.2574 95.4516 68.2574H54.2538C53.8795 68.2574 53.5854 67.9633 53.5854 67.589V65.1027C53.5854 64.7284 53.8795 64.4343 54.2538 64.4343H95.4783C95.8526 64.4343 96.1467 64.7284 96.1467 65.1027V67.589H96.1199Z" fill="#C6DBDC"/>
<path d="M94.3555 83.7627H115.155C115.529 83.7627 115.823 83.4686 115.823 83.0944V80.6081C115.823 80.2338 115.529 79.9397 115.155 79.9397H94.3555V83.7627Z" fill="#C6DBDC"/>
<path d="M55.3498 83.7627H34.5504C34.1762 83.7627 33.8821 83.4686 33.8821 83.0944V80.6081C33.8821 80.2338 34.1762 79.9397 34.5504 79.9397H55.3498V83.7627Z" fill="#C6DBDC"/>
<path d="M63.798 51.5486V60.5314H61.7127V56.7351H58.0501V60.5314H55.9648V51.5486H58.0501V55.3181H61.7127V51.5486H63.798Z" fill="#6F7273"/>
<path d="M74.1981 56.0394C74.1981 56.681 74.0912 57.2959 73.8506 57.8573C73.6367 58.4187 73.3159 58.8999 72.9149 59.3277C72.5138 59.7287 72.0059 60.0763 71.4445 60.2901C70.883 60.5307 70.2414 60.6377 69.5463 60.6377C68.8512 60.6377 68.2096 60.5307 67.6214 60.2901C67.0333 60.0495 66.5521 59.7287 66.1511 59.3277C65.75 58.9267 65.4292 58.4187 65.1886 57.8573C64.9747 57.2959 64.8411 56.681 64.8411 56.0394C64.8411 55.3977 64.948 54.7828 65.1886 54.2214C65.4025 53.66 65.7233 53.1788 66.1511 52.7778C66.5521 52.3767 67.06 52.0559 67.6214 51.8153C68.2096 51.5747 68.8245 51.4678 69.5463 51.4678C70.2414 51.4678 70.883 51.5747 71.4445 51.8153C72.0059 52.0559 72.5138 52.3767 72.9149 52.7778C73.3159 53.1788 73.6367 53.6867 73.8506 54.2214C74.0912 54.7828 74.1981 55.3977 74.1981 56.0394ZM72.0594 56.0394C72.0594 55.5849 72.0059 55.1839 71.899 54.8363C71.792 54.4888 71.6316 54.1679 71.391 53.9273C71.1771 53.6867 70.9098 53.4996 70.589 53.3659C70.2682 53.2322 69.9206 53.1788 69.5196 53.1788C69.1186 53.1788 68.771 53.2322 68.4502 53.3659C68.1294 53.4996 67.8621 53.6867 67.6482 53.9273C67.4343 54.1679 67.2739 54.4888 67.1402 54.8363C67.0333 55.1839 66.9798 55.5849 66.9798 56.0394C66.9798 56.4938 67.0333 56.8949 67.1402 57.2424C67.2472 57.59 67.4076 57.9108 67.6482 58.1514C67.8621 58.392 68.1294 58.5791 68.4502 58.7128C68.771 58.8465 69.1186 58.8999 69.5196 58.8999C69.9206 58.8999 70.2682 58.8465 70.589 58.7128C70.9098 58.5791 71.1771 58.392 71.391 58.1514C71.6049 57.9108 71.7653 57.59 71.899 57.2424C72.0059 56.8949 72.0594 56.4938 72.0594 56.0394Z" fill="#6F7273"/>
<path d="M81.3897 53.2056H78.8499V60.5309H76.7646V53.2056H74.2249V51.5481H81.3629V53.2056H81.3897Z" fill="#6F7273"/>
<path d="M84.1698 53.1522V55.2374H87.0036V56.788H84.1698V58.9268H87.8591V60.5309H82.0845V51.5481H87.8591V53.1522H84.1698Z" fill="#6F7273"/>
<path d="M94.4361 58.8733V60.5309H89.009V51.5481H91.0943V58.8733H94.4361V58.8733Z" fill="#6F7273"/>
<path d="M118.096 135.227H31.6099C31.0485 135.227 30.594 134.772 30.594 134.211C30.594 133.65 31.0485 133.195 31.6099 133.195H118.096C118.657 133.195 119.112 133.65 119.112 134.211C119.112 134.772 118.657 135.227 118.096 135.227Z" fill="#6F7273"/>
<path d="M55.3509 135.227C54.7894 135.227 54.335 134.772 54.335 134.211V68.2571C54.335 67.6957 54.7894 67.2412 55.3509 67.2412C55.9123 67.2412 56.3668 67.6957 56.3668 68.2571V134.211C56.3668 134.772 55.9123 135.227 55.3509 135.227Z" fill="#6F7273"/>
<path d="M94.3557 135.227C93.7943 135.227 93.3398 134.772 93.3398 134.211V68.2571C93.3398 67.6957 93.7943 67.2412 94.3557 67.2412C94.9172 67.2412 95.3717 67.6957 95.3717 68.2571V134.211C95.3449 134.772 94.9172 135.227 94.3557 135.227Z" fill="#6F7273"/>
<path d="M114.059 135.226C113.498 135.226 113.043 134.772 113.043 134.21V83.7625C113.043 83.2011 113.498 82.7466 114.059 82.7466C114.621 82.7466 115.075 83.2011 115.075 83.7625V134.237C115.048 134.772 114.621 135.226 114.059 135.226Z" fill="#6F7273"/>
<path d="M35.6734 135.226C35.112 135.226 34.6575 134.772 34.6575 134.21V83.7625C34.6575 83.2011 35.112 82.7466 35.6734 82.7466C36.2348 82.7466 36.6893 83.2011 36.6893 83.7625V134.237C36.6626 134.772 36.2081 135.226 35.6734 135.226Z" fill="#6F7273"/>
<path d="M80.935 135.227C80.3735 135.227 79.919 134.772 79.919 134.211V118.144H69.7867V134.211C69.7867 134.772 69.3322 135.227 68.7708 135.227C68.2094 135.227 67.7549 134.772 67.7549 134.211V117.128C67.7549 116.566 68.2094 116.112 68.7708 116.112H80.9082C81.4696 116.112 81.9241 116.566 81.9241 117.128V134.211C81.9241 134.772 81.4696 135.227 80.935 135.227Z" fill="#6F7273"/>
<path d="M106.466 95.4459H101.948C101.387 95.4459 100.932 94.9914 100.932 94.43V89.9119C100.932 89.3505 101.387 88.896 101.948 88.896H106.466C107.028 88.896 107.482 89.3505 107.482 89.9119V94.43C107.455 94.9914 107.028 95.4459 106.466 95.4459ZM102.937 93.4408H105.45V90.9278H102.937V93.4408Z" fill="#6F7273"/>
<path d="M106.466 108.867H101.948C101.387 108.867 100.932 108.412 100.932 107.851V103.333C100.932 102.771 101.387 102.317 101.948 102.317H106.466C107.028 102.317 107.482 102.771 107.482 103.333V107.877C107.455 108.439 107.028 108.867 106.466 108.867ZM102.937 106.862H105.45V104.348H102.937V106.862Z" fill="#6F7273"/>
<path d="M106.466 122.314H101.948C101.387 122.314 100.932 121.859 100.932 121.298V116.78C100.932 116.218 101.387 115.764 101.948 115.764H106.466C107.028 115.764 107.482 116.218 107.482 116.78V121.298C107.455 121.886 107.028 122.314 106.466 122.314ZM102.937 120.309H105.45V117.795H102.937V120.309Z" fill="#6F7273"/>
<path d="M69.6796 81.9982H63.5039C62.9425 81.9982 62.488 81.5438 62.488 80.9823V74.8067C62.488 74.2453 62.9425 73.7908 63.5039 73.7908H69.6796C70.241 73.7908 70.6955 74.2453 70.6955 74.8067V80.9823C70.6955 81.5438 70.241 81.9982 69.6796 81.9982ZM64.5199 79.9932H68.6904V75.8226H64.5199V79.9932Z" fill="#6F7273"/>
<path d="M69.6796 95.446H63.5039C62.9425 95.446 62.488 94.9915 62.488 94.4301V88.2544C62.488 87.693 62.9425 87.2385 63.5039 87.2385H69.6796C70.241 87.2385 70.6955 87.693 70.6955 88.2544V94.4301C70.6955 94.9915 70.241 95.446 69.6796 95.446ZM64.5199 93.4409H68.6904V89.2703H64.5199V93.4409Z" fill="#6F7273"/>
<path d="M69.6796 108.894H63.5039C62.9425 108.894 62.488 108.439 62.488 107.878V101.702C62.488 101.141 62.9425 100.686 63.5039 100.686H69.6796C70.241 100.686 70.6955 101.141 70.6955 101.702V107.878C70.6955 108.439 70.241 108.894 69.6796 108.894ZM64.5199 106.888H68.6904V102.718H64.5199V106.888Z" fill="#6F7273"/>
<path d="M86.2013 81.9982H80.0257C79.4643 81.9982 79.0098 81.5438 79.0098 80.9823V74.8067C79.0098 74.2453 79.4643 73.7908 80.0257 73.7908H86.2013C86.7627 73.7908 87.2172 74.2453 87.2172 74.8067V80.9823C87.1905 81.5438 86.7627 81.9982 86.2013 81.9982ZM81.0416 79.9932H85.1854V75.8226H81.0148V79.9932H81.0416Z" fill="#6F7273"/>
<path d="M86.2013 95.446H80.0257C79.4643 95.446 79.0098 94.9915 79.0098 94.4301V88.2544C79.0098 87.693 79.4643 87.2385 80.0257 87.2385H86.2013C86.7627 87.2385 87.2172 87.693 87.2172 88.2544V94.4301C87.1905 94.9915 86.7627 95.446 86.2013 95.446ZM81.0416 93.4409H85.1854V89.2703H81.0148V93.4409H81.0416Z" fill="#6F7273"/>
<path d="M86.2013 108.894H80.0257C79.4643 108.894 79.0098 108.439 79.0098 107.878V101.702C79.0098 101.141 79.4643 100.686 80.0257 100.686H86.2013C86.7627 100.686 87.2172 101.141 87.2172 101.702V107.878C87.1905 108.439 86.7627 108.894 86.2013 108.894ZM81.0416 106.888H85.1854V102.718H81.0148V106.888H81.0416Z" fill="#6F7273"/>
<path d="M47.7572 95.4459H43.2391C42.6776 95.4459 42.2231 94.9914 42.2231 94.43V89.9119C42.2231 89.3505 42.6776 88.896 43.2391 88.896H47.7572C48.3186 88.896 48.7731 89.3505 48.7731 89.9119V94.43C48.7731 94.9914 48.3186 95.4459 47.7572 95.4459ZM44.255 93.4408H46.768V90.9278H44.255V93.4408Z" fill="#6F7273"/>
<path d="M47.7572 108.867H43.2391C42.6776 108.867 42.2231 108.412 42.2231 107.851V103.333C42.2231 102.771 42.6776 102.317 43.2391 102.317H47.7572C48.3186 102.317 48.7731 102.771 48.7731 103.333V107.877C48.7731 108.439 48.3186 108.867 47.7572 108.867ZM44.255 106.862H46.768V104.348H44.255V106.862Z" fill="#6F7273"/>
<path d="M47.7572 122.314H43.2391C42.6776 122.314 42.2231 121.859 42.2231 121.298V116.78C42.2231 116.218 42.6776 115.764 43.2391 115.764H47.7572C48.3186 115.764 48.7731 116.218 48.7731 116.78V121.298C48.7731 121.886 48.3186 122.314 47.7572 122.314ZM44.255 120.309H46.768V117.795H44.255V120.309Z" fill="#6F7273"/>
<path d="M95.4789 69.2729H54.2545C53.3455 69.2729 52.5969 68.5244 52.5969 67.6154V65.1024C52.5969 64.1934 53.3455 63.4448 54.2545 63.4448H95.4789C96.3879 63.4448 97.1365 64.1934 97.1365 65.1024V67.5887C97.1365 68.5244 96.3879 69.2729 95.4789 69.2729ZM54.5753 67.2678H95.1314V65.4499H54.5753V67.2678Z" fill="#6F7273"/>
<path d="M115.156 84.7519H94.3565C93.7951 84.7519 93.3406 84.2974 93.3406 83.736C93.3406 83.1746 93.7951 82.7201 94.3565 82.7201H114.808V80.9022H94.3565C93.7951 80.9022 93.3406 80.4477 93.3406 79.8863C93.3406 79.3248 93.7951 78.8704 94.3565 78.8704H115.156C116.065 78.8704 116.813 79.6189 116.813 80.5279V83.0142C116.813 84.0034 116.065 84.7519 115.156 84.7519Z" fill="#6F7273"/>
<path d="M55.3505 84.7516H34.5511C33.6421 84.7516 32.8936 84.003 32.8936 83.094V80.6077C32.8936 79.6988 33.6421 78.9502 34.5511 78.9502H55.3505C55.9119 78.9502 56.3664 79.4047 56.3664 79.9661C56.3664 80.5275 55.9119 80.982 55.3505 80.982H34.8986V82.8H55.3505C55.9119 82.8 56.3664 83.2544 56.3664 83.8159C56.3664 84.2971 55.9119 84.7516 55.3505 84.7516Z" fill="#6F7273"/>
<path d="M25.835 46.2281C26.2189 46.2281 26.5301 45.9169 26.5301 45.533C26.5301 45.1491 26.2189 44.8379 25.835 44.8379C25.4511 44.8379 25.1399 45.1491 25.1399 45.533C25.1399 45.9169 25.4511 46.2281 25.835 46.2281Z" fill="#6F7273"/>
<path d="M25.8353 46.496C25.461 46.496 25.1135 46.2554 24.953 45.9079C24.7659 45.4267 24.9798 44.8652 25.461 44.6781C25.5679 44.6246 25.7016 44.5979 25.8353 44.5979C26.2096 44.5979 26.5571 44.8385 26.7175 45.1861C26.9047 45.6673 26.6908 46.2287 26.2096 46.4158C26.0759 46.4693 25.9422 46.496 25.8353 46.496ZM25.8353 45.1326C25.7818 45.1326 25.7283 45.1326 25.6749 45.1593C25.461 45.2395 25.3541 45.4801 25.461 45.694C25.5412 45.9079 25.7818 46.0148 25.9957 45.9079C26.2096 45.8277 26.3165 45.5871 26.2096 45.3732C26.1561 45.2395 25.9957 45.1326 25.8353 45.1326Z" fill="#6F7273"/>
<path d="M30.5938 44.2764C30.9777 44.2764 31.2889 43.9652 31.2889 43.5813C31.2889 43.1974 30.9777 42.8862 30.5938 42.8862C30.2099 42.8862 29.8987 43.1974 29.8987 43.5813C29.8987 43.9652 30.2099 44.2764 30.5938 44.2764Z" fill="#6F7273"/>
<path d="M30.5941 44.5175C30.2198 44.5175 29.8722 44.2769 29.7118 43.9294C29.5247 43.4482 29.7386 42.8867 30.2198 42.6996C30.3267 42.6461 30.4604 42.6194 30.5941 42.6194C30.9684 42.6194 31.3159 42.86 31.4763 43.2075C31.5832 43.4482 31.5832 43.6888 31.4763 43.9294C31.3694 44.17 31.209 44.3571 30.9684 44.4373C30.8347 44.4908 30.7277 44.5175 30.5941 44.5175ZM30.5941 43.1541C30.5406 43.1541 30.4871 43.1541 30.4337 43.1808C30.2198 43.261 30.1129 43.5016 30.2198 43.7155C30.3 43.9294 30.5406 44.0363 30.7545 43.9294C30.8614 43.8759 30.9416 43.7957 30.9684 43.7155C31.0218 43.6086 31.0218 43.5016 30.9684 43.3947C30.9149 43.261 30.7545 43.1541 30.5941 43.1541Z" fill="#6F7273"/>
<path d="M35.3523 42.2974C35.7362 42.2974 36.0474 41.9862 36.0474 41.6023C36.0474 41.2184 35.7362 40.9072 35.3523 40.9072C34.9684 40.9072 34.6572 41.2184 34.6572 41.6023C34.6572 41.9862 34.9684 42.2974 35.3523 42.2974Z" fill="#6F7273"/>
<path d="M35.3528 42.5659C34.9785 42.5659 34.631 42.3253 34.4706 41.9777C34.3636 41.7371 34.3636 41.4965 34.4706 41.2559C34.5775 41.0153 34.7379 40.8281 34.9785 40.7479C35.0855 40.6945 35.2191 40.6677 35.3528 40.6677C35.7271 40.6677 36.0746 40.9083 36.2351 41.2559C36.4222 41.7371 36.2083 42.2985 35.7271 42.4857C35.5934 42.5391 35.4865 42.5659 35.3528 42.5659ZM35.3528 41.2024C35.2994 41.2024 35.2459 41.2024 35.1924 41.2291C35.0855 41.2826 35.0053 41.3628 34.9785 41.443C34.9251 41.55 34.9251 41.6569 34.9785 41.7638C35.0587 41.9777 35.2993 42.0846 35.5132 41.9777C35.7271 41.8975 35.834 41.6569 35.7271 41.443C35.6736 41.2826 35.5132 41.2024 35.3528 41.2024Z" fill="#6F7273"/>
<path d="M40.1111 40.3191C40.495 40.3191 40.8062 40.0079 40.8062 39.6241C40.8062 39.2402 40.495 38.929 40.1111 38.929C39.7272 38.929 39.416 39.2402 39.416 39.6241C39.416 40.0079 39.7272 40.3191 40.1111 40.3191Z" fill="#6F7273"/>
<path d="M40.1114 40.5871C39.7371 40.5871 39.3895 40.3465 39.2291 39.999C39.1222 39.7583 39.1222 39.5177 39.2291 39.2771C39.3361 39.0365 39.4965 38.8494 39.7371 38.7692C39.844 38.7157 39.9777 38.689 40.1114 38.689C40.4856 38.689 40.8332 38.9296 40.9936 39.2771C41.1005 39.5177 41.1005 39.7583 40.9936 39.999C40.8867 40.2396 40.7263 40.4267 40.4856 40.5069C40.3787 40.5604 40.245 40.5871 40.1114 40.5871ZM40.1114 39.2237C40.0579 39.2237 40.0044 39.2237 39.951 39.2504C39.844 39.3039 39.7638 39.3841 39.7371 39.4643C39.6836 39.5712 39.6836 39.6781 39.7371 39.7851C39.8173 39.999 40.0579 40.1059 40.2718 39.999C40.3787 39.9455 40.4589 39.8653 40.4856 39.7851C40.5391 39.6781 40.5391 39.5712 40.4856 39.4643C40.4322 39.3306 40.2985 39.2237 40.1114 39.2237Z" fill="#6F7273"/>
<path d="M44.8968 38.3682C45.2806 38.3682 45.5918 38.057 45.5918 37.6731C45.5918 37.2892 45.2806 36.978 44.8968 36.978C44.5129 36.978 44.2017 37.2892 44.2017 37.6731C44.2017 38.057 44.5129 38.3682 44.8968 38.3682Z" fill="#6F7273"/>
<path d="M44.8971 38.6093C44.5228 38.6093 44.1752 38.3687 44.0148 38.0212C43.8277 37.5399 44.0415 36.9785 44.5228 36.7914C44.6297 36.7379 44.7634 36.7112 44.8971 36.7112C45.2713 36.7112 45.6189 36.9518 45.7793 37.2993C45.9664 37.7806 45.7526 38.342 45.2713 38.5291C45.1377 38.5826 45.004 38.6093 44.8971 38.6093ZM44.8971 37.2459C44.8436 37.2459 44.7901 37.2459 44.7366 37.2726C44.5228 37.3528 44.4158 37.5934 44.5228 37.8073C44.603 38.0212 44.8436 38.1281 45.0575 38.0212C45.2713 37.941 45.3783 37.7004 45.2713 37.4865C45.2179 37.3528 45.0575 37.2459 44.8971 37.2459Z" fill="#6F7273"/>
<path d="M49.6548 36.3895C50.0387 36.3895 50.3499 36.0783 50.3499 35.6944C50.3499 35.3105 50.0387 34.9993 49.6548 34.9993C49.2709 34.9993 48.9597 35.3105 48.9597 35.6944C48.9597 36.0783 49.2709 36.3895 49.6548 36.3895Z" fill="#6F7273"/>
<path d="M49.6554 36.6306C49.2811 36.6306 48.9335 36.39 48.7731 36.0424C48.586 35.5612 48.7998 34.9998 49.2811 34.8126C49.388 34.7592 49.5217 34.7324 49.6554 34.7324C50.0296 34.7324 50.3772 34.973 50.5376 35.3206C50.6445 35.5612 50.6445 35.8018 50.5376 36.0424C50.4306 36.283 50.2702 36.4702 50.0296 36.5504C49.896 36.6306 49.7623 36.6306 49.6554 36.6306ZM49.6554 35.2671C49.6019 35.2671 49.5484 35.2671 49.4949 35.2938C49.2811 35.374 49.1741 35.6147 49.2811 35.8285C49.3613 36.0424 49.6019 36.1493 49.8158 36.0424C49.9227 35.9889 50.0029 35.9087 50.0296 35.8285C50.0831 35.7216 50.0831 35.6147 50.0296 35.5077C49.9762 35.374 49.8158 35.2671 49.6554 35.2671Z" fill="#6F7273"/>
<path d="M10.8364 60.9585C10.5423 60.9585 10.2482 60.8248 10.0611 60.5842C9.79375 60.2367 9.87395 59.8089 9.90068 59.6485L11.6919 52.2163C11.7721 51.7886 12.0662 51.2539 12.6543 51.0133L18.2151 48.7141C18.4022 48.6339 18.5894 48.6072 18.7498 48.6072C19.0706 48.6072 19.3647 48.7676 19.5251 49.0349C19.7924 49.4627 19.6053 49.9172 19.4983 50.1043C19.4983 50.1043 19.4983 50.131 19.4716 50.131L14.1515 59.194C14.0445 59.3812 13.7772 59.8356 13.1623 60.103L11.3176 60.8783C11.1572 60.9317 10.9968 60.9585 10.8364 60.9585ZM13.296 52.4837C13.296 52.4837 13.2692 52.5104 13.296 52.4837C13.2692 52.5371 13.2692 52.5371 13.2692 52.5639L11.7186 58.9534L12.5741 58.6059C12.6543 58.5791 12.7078 58.5256 12.7078 58.4989C12.7078 58.4454 12.7345 58.4722 12.7613 58.4187L17.1992 50.8796L13.296 52.4837Z" fill="#6F7273"/>
<path d="M34.3362 38.876C34.2025 38.876 34.0688 38.8493 33.9351 38.7691L18.9371 30.3477C18.6965 30.2408 18.0549 29.8131 18.0816 29.118C18.0816 28.8506 18.2153 28.3961 18.9104 28.1021L22.8136 26.4713C23.5354 26.1772 24.3107 26.4178 24.5246 26.498L45.7785 32.6469C46.2062 32.7806 46.4469 33.2083 46.3132 33.6361C46.1795 34.0638 45.7518 34.3044 45.324 34.1708L24.0434 28.0218C24.0167 28.0218 23.9899 27.9951 23.9632 27.9951C23.8295 27.9416 23.5354 27.8882 23.4018 27.9416L20.2738 29.2249L34.7104 37.3254C35.0847 37.5393 35.2451 38.0205 35.0045 38.4215C34.8976 38.7156 34.6302 38.876 34.3362 38.876Z" fill="#6F7273"/>
<path d="M34.9509 68.364C34.5766 68.364 34.2558 68.2036 34.0686 67.9363C33.7211 67.4818 33.828 66.8936 33.9082 66.6798L38.5868 44.6506C38.6402 44.1694 38.9343 43.3406 39.8165 42.9663C40.5116 42.6723 48.3983 39.4107 49.0934 39.1166C49.2805 39.0364 49.4677 38.9829 49.6548 38.9829C49.9756 38.9829 50.2964 39.1166 50.4836 39.3839C50.8044 39.8117 50.7242 40.3731 50.6707 40.587C50.6707 40.6137 50.644 40.6672 50.644 40.6939L40.5651 65.2094C40.4849 65.5569 40.1641 66.3322 39.0412 66.8134L35.646 68.2036C35.3786 68.3106 35.1648 68.364 34.9509 68.364ZM48.7726 40.988C46.4734 41.9237 40.9929 44.1961 40.4047 44.4367C40.1908 44.5169 40.1641 44.7843 40.1641 44.7843C40.1641 44.8377 40.1641 44.8645 40.1374 44.918L35.539 66.4926L38.3996 65.3163C38.8274 65.1292 38.961 64.9153 38.9878 64.8351C38.9878 64.7549 39.0145 64.7282 39.0412 64.648L48.7726 40.988Z" fill="#6F7273"/>
<path d="M65.1612 36.8975C65.0275 36.8975 64.8671 36.8708 64.7602 36.7906C64.68 36.7371 63.0759 35.7747 62.3541 34.0102C61.6323 32.2457 62.0868 30.401 62.0868 30.3476C62.1937 29.9198 62.6214 29.6525 63.0492 29.7594C63.4769 29.8664 63.7443 30.2941 63.6373 30.7219C63.6373 30.7219 63.3165 32.1388 63.8245 33.3953C64.3324 34.6518 65.5622 35.4004 65.5622 35.4271C65.9365 35.6677 66.0702 36.1489 65.8296 36.5232C65.6959 36.7638 65.4286 36.8975 65.1612 36.8975Z" fill="#6F7273"/>
<path d="M55.5101 34.3041C54.8417 34.3041 54.2268 33.8763 53.9328 33.1812C53.7724 32.7535 53.7456 32.299 53.8793 31.898C54.013 31.4435 54.3605 31.096 54.7883 30.9088L60.1619 28.6899C60.5629 28.5295 61.0441 28.7166 61.2045 29.1176C61.3649 29.5186 61.1778 29.9998 60.7768 30.1603L55.4032 32.3792C55.4032 32.3792 55.4032 32.4327 55.4299 32.5396C55.4834 32.6466 55.5368 32.6733 55.5368 32.6733C55.5368 32.6733 55.5368 32.6733 55.5636 32.6466C55.5903 32.6466 55.617 32.6198 55.6438 32.6198L62.568 29.7592C62.969 29.5988 63.4502 29.786 63.6106 30.187C63.771 30.588 63.5839 31.0692 63.1829 31.2296L56.2854 34.0902C56.2319 34.1169 56.1784 34.1437 56.1517 34.1437C55.9111 34.2774 55.6972 34.3041 55.5101 34.3041Z" fill="#6F7273"/>
<path d="M12.307 53.874C12.1199 53.874 11.9328 53.8206 11.7723 53.6869L1.39939 44.7576C1.15878 44.5705 0.918171 44.1962 0.97164 43.7684C0.998375 43.5545 1.13205 43.1268 1.74694 42.8862L3.13713 42.298C3.85896 42.004 4.36691 42.1911 4.60752 42.3248L13.1358 45.9339L55.4297 28.4763C58.1566 27.3535 61.7657 29.0378 62.9153 29.6526C63.7708 29.3853 64.6531 29.4388 65.5086 29.7863C66.4443 30.1873 67.1928 30.9092 67.5671 31.8449C67.9681 32.7806 67.9681 33.8232 67.5671 34.7589C67.1661 35.6946 66.4443 36.4432 65.5086 36.8175H65.4818L49.2005 43.5545C48.7995 43.715 48.3183 43.5278 48.1579 43.1268C47.9975 42.7258 48.1846 42.2446 48.5857 42.0842L64.8135 35.3738C64.8402 35.3738 64.8402 35.3471 64.8669 35.3471C64.8669 35.3471 64.8937 35.3471 64.9204 35.3203C65.4551 35.0797 65.8828 34.652 66.0967 34.1173C66.3106 33.5826 66.3106 32.9677 66.0967 32.433C65.8828 31.8983 65.4551 31.4706 64.8937 31.23C64.359 31.0161 63.7708 31.0161 63.2094 31.23C63.1827 31.23 63.1827 31.2567 63.1559 31.2567C62.9153 31.3637 62.648 31.3369 62.4341 31.2032C61.0706 30.4279 57.9694 29.1447 56.0178 29.9467L13.4566 47.5647C13.2695 47.6449 13.0289 47.6449 12.8417 47.5647L3.91243 43.7952C3.88569 43.7952 3.85896 43.7684 3.83222 43.7684C3.80549 43.7684 3.77875 43.7684 3.75202 43.7952L3.05693 44.0892L12.8417 52.4838C13.1893 52.7779 13.216 53.2859 12.9219 53.6067C12.7615 53.7938 12.5476 53.874 12.307 53.874Z" fill="#6F7273"/>
<path d="M16.6382 54.2215C16.2104 54.2215 15.8629 53.9007 15.8362 53.473C15.8094 53.0185 16.157 52.6442 16.5847 52.6175C19.472 52.4571 24.4714 52.056 25.514 51.6283L38.5872 46.2279C38.9882 46.0675 39.4694 46.2547 39.6298 46.6557C39.7902 47.0567 39.6031 47.5379 39.2021 47.6983L26.1289 53.0987C24.4714 53.7938 17.467 54.1681 16.6649 54.2215C16.6649 54.2215 16.6382 54.2215 16.6382 54.2215Z" fill="#6F7273"/>
</svg>
