<?xml version="1.0" encoding="utf-8"?>
<!-- Generator: Adobe Illustrator 24.1.1, SVG Export Plug-In . SVG Version: 6.00 Build 0)  -->
<!DOCTYPE svg PUBLIC "-//W3C//DTD SVG 1.1//EN" "http://www.w3.org/Graphics/SVG/1.1/DTD/svg11.dtd" [
	<!ENTITY ns_extend "http://ns.adobe.com/Extensibility/1.0/">
	<!ENTITY ns_ai "http://ns.adobe.com/AdobeIllustrator/10.0/">
	<!ENTITY ns_graphs "http://ns.adobe.com/Graphs/1.0/">
	<!ENTITY ns_vars "http://ns.adobe.com/Variables/1.0/">
	<!ENTITY ns_imrep "http://ns.adobe.com/ImageReplacement/1.0/">
	<!ENTITY ns_sfw "http://ns.adobe.com/SaveForWeb/1.0/">
	<!ENTITY ns_custom "http://ns.adobe.com/GenericCustomNamespace/1.0/">
	<!ENTITY ns_adobe_xpath "http://ns.adobe.com/XPath/1.0/">
]>
<svg version="1.1" id="图层_1" xmlns:x="&ns_extend;" xmlns:i="&ns_ai;" xmlns:graph="&ns_graphs;"
	 xmlns="http://www.w3.org/2000/svg" xmlns:xlink="http://www.w3.org/1999/xlink" x="0px" y="0px" viewBox="0 0 976.1 243.2"
	 enable-background="new 0 0 976.1 243.2" xml:space="preserve">
<metadata>
	<sfw  xmlns="&ns_sfw;">
		<slices></slices>
		<sliceSourceBounds  bottomLeftOrigin="true" height="205.589" width="288.52" x="343.79" y="18.805"></sliceSourceBounds>
	</sfw>
</metadata>
<g>
	<g>
		<path fill="#008193" d="M458.943,99.556c-21.064-11.059-38.618-11.937-46.868-11.937h-28.437l-1.58-2.809h33.528
			c2.282,0,30.192-0.351,46.517,4.037c20.538,5.442,34.581,16.149,37.389,18.08c2.633,1.755,40.198,28.437,40.198,28.437
			s-6.319,6.495-12.463,6.495c-5.793,0-12.112-4.564-12.112-4.564s-20.011-14.394-22.995-16.501
			C488.96,118.69,473.161,106.928,458.943,99.556"/>
		<path fill="#008193" d="M457.363,120.62c14.218,9.303,22.469,16.149,25.102,18.08c2.809,1.931,15.272,10.883,15.272,10.883
			s5.793,4.564,12.814,4.564c5.442,0,11.937-6.319,11.937-6.319s-30.017-21.24-32.65-22.995
			c-2.633-1.931-12.288-9.479-30.368-14.219c-14.921-3.862-36.336-3.862-37.741-3.862h-27.384l1.58,2.809c0,0,20.538,0,22.118,0
			C421.729,109.737,442.618,110.615,457.363,120.62"/>
		<path fill="#008193" d="M461.927,77.438c18.256,9.83,36.161,23.346,39.496,25.628c3.335,2.458,30.719,21.942,30.719,21.942
			s6.319,4.388,12.288,4.388c5.793,0,12.288-6.319,12.288-6.319s-43.709-31.421-47.571-34.23
			c-3.862-2.809-19.66-15.623-44.938-21.591c-19.836-4.915-52.661-4.388-54.943-4.388h-40.023l1.58,2.809h34.932
			C412.952,65.677,440.862,66.028,461.927,77.438"/>
		<path fill="#002F5F" d="M620.262,76.912c-5.442-0.878-12.463-1.404-12.463-1.404l-9.655,2.809l-5.617-4.564
			c0,0,11.585,0.878,14.745,1.404c2.809,0,1.931-1.404,0.527-4.213c-1.404-2.809-4.564-2.809-4.564-2.809h-29.139
			c0,0-5.091,0-11.059-1.404c-6.144-1.404-8.426-5.793-8.426-5.793c-2.282,5.266,6.846,11.585,6.846,11.585l28.788,20.538
			c3.686,2.282,6.846,0.527,6.846,0.527s7.373-3.686,11.41-4.74c3.686-0.878,15.272-1.404,16.501-0.878
			c3.16,0.527,7.021,3.686,7.021,3.686C633.954,78.842,625.703,77.965,620.262,76.912"/>
		<path fill="#002F5F" d="M467.72,34.256c20.011,8.777,48.624,30.192,52.837,33.177c4.213,2.984,45.464,32.65,45.464,32.65
			s6.495,4.564,12.463,4.564c5.968,0,11.937-6.144,11.937-6.144s-58.278-41.778-62.491-44.762
			c-4.213-2.984-23.522-19.309-59.507-28.788c-24.575-6.495-66.88-6.144-71.795-6.144H343.79l1.755,2.809h48.273
			C406.106,21.617,441.214,22.671,467.72,34.256"/>
		<path fill="#002F5F" d="M464.56,55.847c-21.591-10.708-48.273-12.112-63.72-12.112h-42.656l-1.58-2.809h46.517
			c4.915,0,40.198-0.351,63.369,4.915c26.857,6.144,49.853,23.698,52.31,25.277c2.282,1.58,55.119,39.496,55.119,39.496
			s-5.968,6.144-12.463,6.144c-5.968,0-12.463-4.564-12.463-4.564s-34.405-24.575-37.741-27.033
			C507.742,82.88,484.747,65.853,464.56,55.847"/>
	</g>
	<g>
		<path fill="#5B5B5B" d="M394.821,197.253c-0.161,0-0.964,0.054-1.285-0.321c-0.268-0.268-0.268-0.696-0.268-1.071v-1.124
			c-1.178,1.713-3.105,2.891-6.049,2.784c-4.657-0.161-5.621-3.747-5.621-5.782c0-0.696,0.054-2.088,1.124-3.48
			c1.606-2.302,5.032-3.051,8.084-3.051c1.285,0,2.302,0.161,2.302,0.161v-2.034c0-0.696,0-1.981-0.749-2.837
			c-0.642-0.696-1.767-1.231-3.747-1.231c-3.159,0-5.246,1.767-5.246,1.767l0.375-2.409c0,0,2.141-1.445,5.568-1.445
			c2.891,0,4.818,0.803,5.996,1.927c1.338,1.392,1.66,2.677,1.66,5.246v12.795 M393,187.242c0,0-1.017-0.214-2.195-0.214
			c-2.677,0-4.657,1.178-5.193,2.998c-0.107,0.321-0.161,1.071-0.161,1.445c0,2.248,1.552,3.533,3.48,3.533
			c0.375,0,0.964-0.054,1.499-0.268c1.392-0.482,2.516-1.445,2.516-2.891v-4.604H393z"/>
		<path fill="#5B5B5B" d="M407.615,179.961c-3.319,0.642-3.694,3.266-3.694,5.086v12.206h-3.908v-17.452
			c0-1.713-1.124-2.034-1.124-2.034h3.854c0.857,0,1.124,0.482,1.124,1.017v1.071c0.107-0.375,1.552-2.195,4.122-2.302
			c0.857-0.054,1.82,0,2.302,0.321l0.535,2.463C410.292,180.069,409.221,179.64,407.615,179.961"/>
		<path fill="#5B5B5B" d="M426.299,197.253c-0.161,0-0.964,0.054-1.285-0.321c-0.321-0.268-0.321-0.803-0.321-1.071v-1.124
			c-1.071,1.713-2.944,2.784-5.568,2.784c-2.034,0-3.426-0.482-4.657-1.767c-1.285-1.445-1.606-3.212-1.606-5.568V179.48
			c0-1.392-1.178-1.767-1.178-1.713h3.64c0.91,0,1.445,0.428,1.445,1.124v11.777c0,3.48,1.071,4.443,3.48,4.443
			c1.981,0,4.176-1.338,4.176-3.426v-13.919h3.854v19.486"/>
		<path fill="#5B5B5B" d="M479.672,197.253c-0.803,0-1.285-0.321-1.285-1.338v-23.02c0-1.445-1.124-1.981-1.124-1.981h3.747
			c1.124,0,1.606,0.535,1.606,1.338v25"/>
		<path fill="#5B5B5B" d="M532.724,197.574c-6.371-0.054-8.673-4.015-8.673-9.904c0-5.407,2.302-10.332,8.673-10.279
			c6.424,0.054,8.405,4.925,8.405,10.279C541.129,193.077,538.024,197.574,532.724,197.574 M532.778,179.426
			c-3.908-0.054-4.604,4.015-4.604,8.298c0,5.353,1.338,7.923,4.604,7.923c2.891,0,4.229-3.319,4.229-7.923
			C537.007,183.976,536.686,179.426,532.778,179.426"/>
		<path fill="#5B5B5B" d="M591.023,195.861c-1.392,1.178-3.212,1.713-5.3,1.767h-0.214c-3.051,0-4.711-0.803-5.461-1.231
			l-0.535-2.302c0,0,2.623,1.767,5.407,1.767c2.677,0,4.229-1.445,4.015-3.854c-0.268-3.801-9.047-2.891-9.047-9.154
			c0-3.426,2.784-5.246,6.263-5.3h0.214c3.587,0,4.872,1.285,4.872,1.285l0.535,2.141c0,0-1.552-1.499-4.604-1.499
			c-3.266,0-3.64,2.623-3.533,3.373c0.214,1.874,1.606,2.355,4.229,3.48c2.677,1.178,4.818,2.623,4.818,5.46
			C592.736,193.559,592.04,194.951,591.023,195.861"/>
		<path fill="#5B5B5B" d="M596.269,197.253c-0.75,0-1.124-0.375-1.124-1.017v-16.703c0-1.285-1.231-1.767-1.231-1.767h3.962
			c0.803,0,1.124,0.428,1.124,1.124v18.309"/>
		<path fill="#5B5B5B" d="M489.254,177.767c0.749,0,1.124,0.321,1.124,1.017v1.552c1.071-1.713,2.944-2.837,5.514-2.837
			c2.034,0,3.426,0.482,4.657,1.767c1.285,1.445,1.606,3.158,1.606,5.568v12.42h-2.355c-0.964,0-1.552-0.642-1.552-1.606v-11.242
			c0-3.48-1.017-4.443-3.48-4.443c-1.981,0-4.176,1.338-4.176,3.426v13.865h-3.854V179.48c0-1.392-1.071-1.66-1.071-1.66"/>
		<path fill="#5B5B5B" d="M614.845,197.253c-0.161,0-0.964,0.054-1.285-0.321c-0.268-0.268-0.268-0.696-0.268-1.071v-1.124
			c-1.178,1.713-3.158,2.891-6.103,2.784c-4.604-0.161-5.621-3.747-5.621-5.782c0-0.696,0.054-2.088,1.124-3.48
			c1.606-2.302,5.032-3.051,8.03-3.051c1.285,0,2.302,0.161,2.302,0.161v-2.034c0-0.696,0.107-1.874-0.696-2.837
			c-0.589-0.749-1.82-1.285-3.962-1.231c-3.64,0.054-5.086,1.767-5.086,1.767l0.375-2.409c0,0,2.141-1.445,5.568-1.445
			c2.837,0,4.818,0.803,5.996,1.927c1.338,1.392,1.66,2.677,1.66,5.246v12.795 M613.025,187.242c0,0-0.964-0.214-2.195-0.214
			c-2.677,0-4.604,1.178-5.193,2.998c-0.107,0.321-0.161,1.071-0.161,1.445c0,2.248,1.606,3.533,3.48,3.533
			c0.375,0,1.017-0.054,1.499-0.268c1.392-0.482,2.516-1.445,2.516-2.891v-4.604H613.025z"/>
		<path fill="#5B5B5B" d="M444.661,197.253c-0.749,0-1.017-0.268-1.017-0.964v-0.964c-1.445,1.285-2.891,2.141-5.032,2.195h-0.054
			c-5.568,0-7.495-4.711-7.495-9.904c0-3.908,1.499-10.279,7.709-10.279c3.694,0,4.711,2.248,4.711,2.248v-6.692
			c0-1.392-1.178-2.088-1.178-2.088h3.051c1.124,0,2.034,0.803,2.034,1.66v24.733 M443.429,184.351c0-1.071-0.161-2.677-1.017-3.64
			c-0.642-0.642-1.606-1.071-2.998-1.071c-3.801,0-4.229,4.979-4.229,7.762v0.268c0.054,3.854,1.124,7.655,4.283,7.655
			c1.713,0,2.891-0.642,3.908-1.981v-8.994H443.429z"/>
		<path fill="#5B5B5B" d="M463.451,197.253c-0.161,0-0.91,0.054-1.285-0.321c-0.321-0.268-0.321-0.696-0.321-1.071v-1.124
			c-1.124,1.713-3.105,2.891-6.049,2.784c-4.604-0.161-5.621-3.747-5.621-5.782c0-0.696,0.054-2.088,1.124-3.48
			c1.66-2.302,5.032-3.051,8.084-3.051c1.285,0,2.302,0.161,2.302,0.161v-2.034c0-0.696,0-1.981-0.696-2.837
			c-0.642-0.696-1.767-1.231-3.747-1.231c-3.212,0-5.246,1.767-5.246,1.767l0.375-2.409c0,0,2.141-1.445,5.568-1.445
			c2.891,0,4.872,0.803,5.996,1.927c1.338,1.392,1.66,2.677,1.66,5.246v12.795 M461.631,187.242c0,0-0.964-0.214-2.195-0.214
			c-2.677,0-4.657,1.178-5.193,2.998c-0.161,0.321-0.161,1.071-0.161,1.445c0,2.248,1.552,3.533,3.533,3.533
			c0.375,0,0.964-0.054,1.499-0.268c1.338-0.482,2.516-1.445,2.516-2.891V187.242z"/>
		<path fill="#5B5B5B" d="M518.645,197.253c-0.75,0-1.017-0.268-1.017-0.964v-0.964c-1.445,1.285-2.891,2.141-5.032,2.195h-0.107
			c-5.568,0-7.441-4.711-7.441-9.904c0-3.908,1.499-10.279,7.655-10.279c3.747,0,4.765,2.248,4.765,2.248v-6.692
			c0-1.392-1.178-2.088-1.178-2.088h3.051c1.178,0,2.034,0.803,2.034,1.66v24.733 M517.413,184.351c0-1.071-0.161-2.677-1.017-3.64
			c-0.642-0.642-1.606-1.071-2.998-1.071c-3.801,0-4.229,4.979-4.229,7.762v0.268c0.054,3.854,1.124,7.655,4.283,7.655
			c1.713,0,2.891-0.642,3.961-1.981V184.351z"/>
		<path fill="#5B5B5B" d="M546.429,177.767c0.75,0,1.124,0.321,1.124,1.017v1.552c1.071-1.713,2.944-2.837,5.568-2.837
			c2.034,0,3.373,0.482,4.604,1.767c1.231,1.445,1.606,3.158,1.606,5.568v12.42h-2.356c-0.964,0-1.552-0.642-1.552-1.606v-11.242
			c0-3.48-1.017-4.443-3.48-4.443c-1.981,0-4.176,1.338-4.176,3.426v13.865h-3.854V179.48c0-1.392-1.071-1.66-1.071-1.66"/>
		<path fill="#5B5B5B" d="M375.281,197.414c-1.552,0.214-2.516,0.268-4.015,0.268c-4.015,0-6.585-1.231-8.458-3.105
			c-2.837-2.837-3.587-7.495-3.587-10.386c0-2.355,0.428-6.959,4.176-10.546c1.767-1.66,4.497-3.051,8.565-3.051
			c3.64,0,5.407,1.017,5.407,1.017l0.696,2.409c-0.161-0.107-2.034-1.178-5.139-1.178c-6.424,0-9.154,4.443-9.154,11.296
			c0,10.386,5.086,11.189,7.923,11.189c2.034,0,2.837-0.321,2.837-0.321v-10.332h-2.248c-1.499,0-2.141,0.268-2.141,0.268
			l0.321-2.088h8.244v13.758C377.369,197.039,376.619,197.253,375.281,197.414"/>
		<path fill="#5B5B5B" d="M571.964,177.285c4.604,0.321,5.621,3.801,5.621,5.782c0,0.696-0.054,2.034-1.124,3.48
			c-1.66,2.302-5.032,3.051-8.084,3.051c-1.285,0-2.302-0.214-2.302-0.214v1.82c0,3.426,1.82,4.336,4.818,4.283
			c3.373-0.054,5.996-2.141,5.996-2.141l-0.375,2.409c0,0-3.051,1.767-6.478,1.767c-2.891,0-5.032-0.749-6.21-1.981
			c-1.445-1.499-1.66-3.48-1.66-6.049v-4.283C562.221,181.675,563.72,176.696,571.964,177.285 M566.129,187.51
			c0,0,1.017,0.214,2.195,0.214c4.283,0,5.3-2.141,5.514-4.55c0.161-2.195-0.428-4.39-3.801-3.962
			c-3.051,0.375-3.908,2.409-3.908,4.925C566.129,186.171,566.129,187.51,566.129,187.51"/>
		<polygon fill="#504F4F" points="413.022,208.067 409.81,208.067 407.08,221.076 405.42,221.076 408.151,208.013 404.403,208.013 
			405.099,206.568 413.665,206.568 		"/>
		<path fill="#504F4F" d="M420.731,215.454l-1.231,5.621h-1.338l1.231-5.621c0.107-0.589,0.214-1.178,0.214-1.66
			c0-0.482,0-0.964-0.107-1.285c-0.107-0.375-0.268-0.642-0.535-0.857c-0.214-0.214-0.535-0.268-0.91-0.268
			c-0.535,0-1.071,0.268-1.552,0.749c-0.482,0.482-0.91,1.071-1.285,1.82c-0.375,0.696-0.749,1.499-1.017,2.302
			s-0.535,1.552-0.696,2.195l-0.696,2.73h-1.338l3.105-14.615h1.392l-1.767,8.191c0.268-0.857,0.642-1.606,1.017-2.248
			c0.161-0.268,0.375-0.589,0.589-0.857c0.214-0.268,0.428-0.535,0.696-0.749c0.268-0.214,0.535-0.375,0.803-0.535
			c0.321-0.161,0.589-0.214,0.964-0.214c0.589,0,1.071,0.161,1.499,0.375c0.375,0.268,0.696,0.642,0.91,1.124
			c0.214,0.482,0.321,1.017,0.321,1.66C420.999,213.955,420.945,214.651,420.731,215.454"/>
		<path fill="#504F4F" d="M430.528,214.544c-0.107,0.482-0.268,0.803-0.482,0.964c-0.161,0.161-0.321,0.268-0.428,0.268
			l-5.835,0.375c-0.107,0.589-0.107,1.124,0,1.66c0.054,0.214,0.107,0.428,0.214,0.642c0.107,0.214,0.214,0.428,0.375,0.589
			c0.161,0.214,0.375,0.375,0.589,0.482c0.214,0.161,0.535,0.214,0.857,0.321c0.482,0.107,0.964,0.107,1.338,0.054
			c0.375-0.054,0.749-0.161,1.071-0.321c0.321-0.161,0.642-0.321,0.964-0.589l-0.321,1.178c-0.054,0.107-0.054,0.161-0.107,0.214
			c-0.054,0.054-0.107,0.107-0.268,0.214c-0.054,0.054-0.107,0.107-0.268,0.161c-0.161,0.107-0.375,0.161-0.589,0.214
			c-0.268,0.054-0.589,0.107-0.964,0.161c-0.375,0-0.803,0-1.338-0.107c-0.535-0.107-1.071-0.268-1.499-0.589
			c-0.428-0.321-0.803-0.696-1.071-1.178s-0.482-1.017-0.589-1.66c-0.107-0.642-0.054-1.338,0.054-2.034
			c0.161-0.964,0.428-1.767,0.803-2.516c0.375-0.696,0.803-1.338,1.338-1.767c0.482-0.482,1.071-0.803,1.606-1.017
			c0.589-0.214,1.178-0.268,1.713-0.214c0.589,0.054,1.124,0.268,1.499,0.589c0.375,0.321,0.696,0.696,0.91,1.124
			c0.214,0.428,0.375,0.91,0.375,1.392C430.688,213.688,430.635,214.17,430.528,214.544 M429.136,214.17
			c0.107-0.375,0.107-0.749,0.107-1.071c-0.054-0.321-0.107-0.642-0.268-0.91c-0.161-0.268-0.321-0.482-0.589-0.642
			c-0.268-0.161-0.535-0.268-0.857-0.268c-0.375-0.054-0.696,0-1.017,0.107c-0.321,0.107-0.589,0.214-0.803,0.428
			c-0.214,0.161-0.428,0.375-0.642,0.589c-0.161,0.214-0.321,0.482-0.482,0.749c-0.321,0.589-0.535,1.231-0.696,1.981l4.657-0.375
			c0.107,0,0.214-0.054,0.321-0.161C429.029,214.491,429.082,214.384,429.136,214.17"/>
		<path fill="#504F4F" d="M444.34,221.076l-0.268-3.051h-5.889l-1.66,3.051h-1.767l7.602-14.508h2.088l1.606,14.508H444.34z
			 M443.162,208.442l-4.176,8.084h4.979L443.162,208.442z"/>
		<path fill="#504F4F" d="M450.549,210.369l-2.248,10.653h-1.338l2.248-10.653H450.549 M451.352,207.692
			c-0.054,0.268-0.161,0.482-0.375,0.589s-0.428,0.161-0.642,0.161c-0.214-0.054-0.428-0.107-0.589-0.268
			c-0.161-0.161-0.214-0.321-0.161-0.589s0.161-0.482,0.375-0.589c0.214-0.107,0.428-0.161,0.642-0.161
			c0.214,0,0.428,0.107,0.535,0.268C451.299,207.21,451.406,207.424,451.352,207.692"/>
		<path fill="#504F4F" d="M457.83,211.814c-0.054-0.054-0.107-0.161-0.214-0.214s-0.161-0.107-0.321-0.161
			c-0.107-0.054-0.321-0.054-0.535-0.054c-0.375,0-0.696,0.107-1.017,0.321c-0.321,0.214-0.642,0.535-0.91,0.91
			c-0.268,0.375-0.535,0.803-0.749,1.285s-0.428,0.964-0.642,1.499c-0.214,0.535-0.375,1.017-0.482,1.552
			c-0.161,0.535-0.268,0.964-0.375,1.392l-0.696,2.73h-1.338l2.248-10.707h1.338l-0.803,3.747c0.214-0.696,0.482-1.338,0.749-1.874
			c0.161-0.214,0.268-0.482,0.428-0.696c0.161-0.214,0.321-0.482,0.535-0.642c0.214-0.214,0.428-0.375,0.642-0.482
			c0.214-0.107,0.482-0.214,0.749-0.214s0.482,0,0.642,0.054c0.161,0.054,0.321,0.107,0.428,0.161
			c0.107,0.054,0.161,0.161,0.214,0.321v1.071"/>
		<polygon fill="#504F4F" points="457.723,221.076 456.385,221.076 459.49,206.461 460.882,206.461 		"/>
		<path fill="#504F4F" d="M463.772,210.369l-2.248,10.653h-1.338l2.248-10.653H463.772 M464.575,207.692
			c-0.054,0.268-0.161,0.482-0.375,0.589c-0.214,0.107-0.428,0.161-0.642,0.161c-0.214-0.054-0.428-0.107-0.535-0.268
			c-0.161-0.161-0.214-0.321-0.161-0.589c0.054-0.268,0.161-0.482,0.375-0.589c0.214-0.107,0.428-0.161,0.642-0.161
			s0.428,0.107,0.535,0.268C464.522,207.21,464.575,207.424,464.575,207.692"/>
		<path fill="#504F4F" d="M472.391,215.454l-1.231,5.621h-1.338l1.231-5.621c0.161-0.589,0.214-1.178,0.214-1.66
			c0-0.482,0-0.964-0.107-1.285c-0.107-0.375-0.268-0.642-0.535-0.857c-0.214-0.214-0.535-0.268-0.91-0.268
			c-0.535,0-1.071,0.268-1.552,0.749c-0.482,0.482-0.91,1.071-1.285,1.82c-0.375,0.696-0.749,1.445-1.017,2.302
			c-0.268,0.803-0.535,1.552-0.696,2.195l-0.696,2.73h-1.338l2.302-10.653h1.338l-0.91,4.283c0.268-0.857,0.642-1.606,1.017-2.248
			c0.161-0.268,0.375-0.589,0.589-0.857s0.428-0.535,0.696-0.749c0.268-0.214,0.535-0.375,0.803-0.535
			c0.321-0.161,0.589-0.214,0.964-0.214c0.589,0,1.071,0.161,1.499,0.375c0.428,0.214,0.696,0.642,0.91,1.124
			c0.214,0.482,0.321,1.017,0.321,1.66C472.659,213.955,472.552,214.651,472.391,215.454"/>
		<path fill="#504F4F" d="M482.188,214.544c-0.107,0.482-0.268,0.803-0.482,0.964c-0.161,0.161-0.321,0.268-0.428,0.268
			l-5.835,0.375c-0.107,0.589-0.107,1.124,0,1.66c0.054,0.214,0.107,0.428,0.214,0.642c0.107,0.214,0.214,0.428,0.375,0.589
			c0.161,0.214,0.375,0.375,0.589,0.482c0.214,0.161,0.482,0.214,0.857,0.321c0.482,0.107,0.964,0.107,1.338,0.054
			c0.375-0.054,0.749-0.161,1.071-0.321c0.321-0.161,0.642-0.321,0.964-0.589l-0.321,1.178c-0.054,0.107-0.054,0.161-0.107,0.214
			c-0.054,0.054-0.107,0.107-0.268,0.214c-0.054,0.054-0.107,0.107-0.268,0.161c-0.161,0.107-0.321,0.161-0.589,0.214
			c-0.268,0.054-0.589,0.107-0.964,0.161c-0.375,0-0.803,0-1.338-0.107c-0.535-0.107-1.071-0.268-1.499-0.589
			c-0.428-0.321-0.803-0.696-1.071-1.178s-0.482-1.017-0.589-1.66c-0.107-0.642-0.054-1.338,0.054-2.034
			c0.161-0.964,0.428-1.767,0.803-2.516c0.375-0.696,0.803-1.338,1.338-1.767c0.482-0.482,1.071-0.803,1.606-1.017
			c0.589-0.214,1.178-0.268,1.713-0.214c0.589,0.054,1.124,0.268,1.499,0.589c0.375,0.321,0.696,0.696,0.91,1.124
			c0.214,0.428,0.321,0.91,0.375,1.392C482.295,213.688,482.295,214.17,482.188,214.544 M480.796,214.17
			c0.107-0.375,0.107-0.749,0.107-1.071c-0.054-0.321-0.107-0.642-0.268-0.91c-0.161-0.268-0.321-0.482-0.589-0.642
			c-0.268-0.161-0.535-0.268-0.857-0.268c-0.375-0.054-0.696,0-1.017,0.107c-0.321,0.107-0.589,0.214-0.803,0.428
			c-0.214,0.161-0.428,0.375-0.642,0.589c-0.161,0.214-0.321,0.482-0.482,0.749c-0.321,0.589-0.535,1.231-0.696,1.981l4.657-0.375
			c0.107,0,0.214-0.054,0.321-0.161C480.689,214.491,480.743,214.384,480.796,214.17"/>
		<path fill="#504F4F" d="M496.482,215.776c-0.161,0.91-0.375,1.713-0.696,2.463c-0.321,0.749-0.696,1.338-1.178,1.82
			s-1.017,0.803-1.606,1.017c-0.642,0.214-1.285,0.268-2.088,0.161s-1.392-0.375-1.874-0.749c-0.428-0.375-0.749-0.857-1.017-1.338
			c-0.214-0.535-0.321-1.071-0.375-1.66s0-1.124,0.054-1.606c0.107-0.91,0.321-1.767,0.642-2.463
			c0.321-0.749,0.696-1.338,1.124-1.82c0.482-0.482,1.017-0.857,1.66-1.071c0.642-0.214,1.338-0.321,2.141-0.214
			c0.696,0.054,1.285,0.321,1.767,0.642c0.482,0.375,0.803,0.803,1.071,1.338s0.428,1.124,0.428,1.767
			C496.642,214.491,496.589,215.133,496.482,215.776 M494.876,215.829c0.054-0.375,0.107-0.749,0.107-1.231
			c0.054-0.482,0-0.964-0.107-1.392c-0.107-0.482-0.268-0.857-0.589-1.231c-0.268-0.375-0.696-0.589-1.231-0.642
			c-0.589-0.054-1.071,0-1.499,0.161c-0.428,0.214-0.803,0.482-1.071,0.91c-0.321,0.428-0.589,0.91-0.749,1.499
			c-0.214,0.589-0.375,1.231-0.428,1.981c-0.054,0.535-0.107,1.071-0.054,1.552c0.054,0.482,0.107,0.91,0.268,1.285
			c0.161,0.375,0.375,0.696,0.642,0.964s0.642,0.375,1.071,0.428c0.589,0.107,1.124,0,1.552-0.268
			c0.428-0.268,0.803-0.642,1.124-1.071c0.321-0.428,0.535-0.91,0.696-1.445C494.715,216.739,494.822,216.257,494.876,215.829"/>
		<path fill="#504F4F" d="M503.441,208.174c-0.054-0.107-0.107-0.214-0.214-0.268c-0.054-0.054-0.161-0.107-0.321-0.161
			c-0.107-0.054-0.321-0.054-0.535-0.054s-0.375,0.054-0.535,0.214c-0.161,0.107-0.268,0.268-0.375,0.428
			c-0.107,0.161-0.161,0.321-0.214,0.482c-0.054,0.161-0.107,0.268-0.107,0.375l-0.268,1.231h1.981l-0.375,1.124h-1.874
			l-2.677,12.848h-1.392l2.677-12.848h-1.606l0.375-1.124h1.499l0.268-1.231c0.054-0.321,0.161-0.696,0.268-1.017
			c0.107-0.321,0.268-0.589,0.482-0.857c0.161-0.268,0.428-0.428,0.696-0.589c0.268-0.161,0.589-0.214,0.91-0.214
			c0.268,0,0.482,0.054,0.642,0.107c0.161,0.054,0.321,0.107,0.428,0.214c0.107,0.107,0.161,0.161,0.214,0.268v1.071"/>
		<polygon fill="#504F4F" points="507.724,221.076 506.064,221.076 509.116,206.568 510.722,206.568 		"/>
		<path fill="#504F4F" d="M519.287,215.454l-1.231,5.621h-1.392l1.231-5.621c0.107-0.589,0.214-1.178,0.214-1.66
			c0-0.482,0-0.964-0.107-1.285c-0.107-0.375-0.268-0.642-0.535-0.857c-0.214-0.214-0.535-0.268-0.91-0.268
			c-0.535,0-1.071,0.268-1.552,0.749c-0.482,0.482-0.91,1.071-1.285,1.82c-0.375,0.696-0.749,1.445-1.017,2.302
			c-0.268,0.803-0.535,1.552-0.642,2.195l-0.696,2.73h-1.392l2.302-10.653h1.338l-0.91,4.283c0.268-0.857,0.642-1.606,1.017-2.248
			c0.161-0.268,0.375-0.589,0.589-0.857c0.214-0.268,0.428-0.535,0.696-0.749c0.268-0.214,0.535-0.375,0.803-0.535
			c0.321-0.161,0.642-0.214,0.964-0.214c0.589,0,1.071,0.161,1.499,0.375c0.375,0.268,0.696,0.642,0.91,1.124
			c0.214,0.482,0.321,1.017,0.321,1.66C519.501,213.955,519.448,214.651,519.287,215.454"/>
		<path fill="#504F4F" d="M531.011,206.514l-3.105,14.561h-1.338l0.91-4.336c-0.268,0.803-0.589,1.552-1.017,2.195
			c-0.161,0.268-0.375,0.535-0.589,0.803s-0.428,0.482-0.696,0.696c-0.268,0.214-0.535,0.375-0.857,0.535
			c-0.268,0.107-0.589,0.214-0.964,0.214c-0.696,0.054-1.231-0.161-1.606-0.535c-0.375-0.375-0.696-0.857-0.857-1.392
			c-0.161-0.589-0.268-1.178-0.268-1.82c0-0.642,0.054-1.178,0.107-1.66c0.107-0.749,0.321-1.445,0.642-2.088
			c0.321-0.696,0.696-1.285,1.124-1.767c0.428-0.535,0.964-0.964,1.499-1.285c0.535-0.321,1.178-0.482,1.82-0.482
			c0.428,0,0.857,0.054,1.178,0.161c0.321,0.161,0.589,0.268,0.857,0.428c0.214,0.161,0.428,0.375,0.642,0.696l1.071-4.925
			L531.011,206.514 M528.334,212.51c-0.161-0.268-0.321-0.482-0.482-0.642c-0.161-0.161-0.375-0.321-0.696-0.428
			c-0.268-0.107-0.642-0.161-1.017-0.161c-0.535,0-1.017,0.107-1.445,0.375c-0.428,0.214-0.803,0.535-1.071,0.964
			c-0.321,0.375-0.589,0.857-0.75,1.445c-0.214,0.535-0.375,1.178-0.482,1.874c-0.107,0.535-0.107,1.017-0.107,1.499
			c0,0.482,0.054,0.91,0.161,1.285c0.107,0.375,0.268,0.696,0.482,0.91c0.214,0.214,0.482,0.375,0.75,0.428
			c0.321,0.054,0.642-0.054,0.964-0.268c0.321-0.214,0.642-0.482,0.91-0.857c0.321-0.375,0.589-0.803,0.857-1.285
			c0.268-0.482,0.535-0.964,0.749-1.499c0.214-0.535,0.428-1.017,0.589-1.552c0.161-0.535,0.321-0.964,0.428-1.392L528.334,212.51z"
			/>
		<path fill="#504F4F" d="M539.469,215.776c-0.161,0.91-0.375,1.713-0.696,2.463c-0.321,0.749-0.696,1.338-1.178,1.82
			s-1.017,0.803-1.606,1.017c-0.589,0.214-1.285,0.268-2.088,0.161c-0.803-0.107-1.392-0.375-1.874-0.749
			c-0.428-0.375-0.803-0.857-1.017-1.338c-0.214-0.535-0.321-1.071-0.375-1.66s0-1.124,0.054-1.606
			c0.107-0.91,0.321-1.767,0.642-2.463c0.321-0.749,0.696-1.338,1.124-1.82c0.482-0.482,1.017-0.857,1.66-1.071
			c0.642-0.214,1.338-0.321,2.141-0.214c0.696,0.054,1.285,0.321,1.767,0.642c0.482,0.375,0.803,0.803,1.071,1.338
			c0.268,0.535,0.428,1.124,0.428,1.767C539.576,214.491,539.576,215.133,539.469,215.776 M537.863,215.829
			c0.054-0.375,0.107-0.749,0.107-1.231c0.054-0.482,0-0.964-0.107-1.392c-0.107-0.482-0.268-0.857-0.589-1.231
			c-0.268-0.375-0.696-0.589-1.231-0.642c-0.589-0.054-1.071,0-1.499,0.161c-0.428,0.214-0.803,0.482-1.071,0.91
			c-0.321,0.428-0.589,0.91-0.749,1.499c-0.214,0.589-0.375,1.231-0.428,1.981c-0.054,0.535-0.107,1.071-0.054,1.552
			c0.054,0.482,0.107,0.91,0.268,1.285c0.161,0.375,0.375,0.696,0.642,0.964c0.268,0.268,0.642,0.375,1.071,0.428
			c0.589,0.107,1.124,0,1.552-0.268s0.803-0.642,1.124-1.071c0.321-0.428,0.535-0.91,0.696-1.445
			C537.649,216.739,537.756,216.257,537.863,215.829"/>
		<path fill="#504F4F" d="M548.784,215.454l-1.231,5.621h-1.338l1.231-5.621c0.107-0.589,0.214-1.178,0.214-1.66
			c0-0.482,0-0.964-0.107-1.285c-0.107-0.375-0.268-0.642-0.535-0.857c-0.268-0.214-0.535-0.268-0.91-0.268
			c-0.535,0-1.071,0.268-1.552,0.749s-0.91,1.071-1.285,1.82c-0.375,0.696-0.749,1.445-1.017,2.302
			c-0.268,0.803-0.535,1.552-0.696,2.195l-0.696,2.73h-1.338l2.302-10.653h1.338l-0.91,4.283c0.268-0.857,0.642-1.606,1.017-2.248
			c0.161-0.268,0.375-0.589,0.589-0.857c0.214-0.268,0.428-0.535,0.696-0.749c0.268-0.214,0.535-0.375,0.803-0.535
			c0.321-0.161,0.642-0.214,0.964-0.214c0.589,0,1.071,0.161,1.499,0.375c0.375,0.268,0.696,0.642,0.91,1.124
			c0.214,0.482,0.321,1.017,0.321,1.66C549.052,213.955,548.945,214.651,548.784,215.454"/>
		<path fill="#504F4F" d="M558.581,214.544c-0.107,0.482-0.268,0.803-0.482,0.964c-0.161,0.161-0.321,0.268-0.428,0.268
			l-5.835,0.375c-0.107,0.589-0.107,1.124,0,1.66c0.054,0.214,0.107,0.428,0.214,0.642c0.107,0.214,0.214,0.428,0.375,0.589
			c0.161,0.214,0.375,0.375,0.589,0.482c0.214,0.161,0.482,0.214,0.857,0.321c0.482,0.107,0.964,0.107,1.338,0.054
			c0.375-0.054,0.749-0.161,1.071-0.321s0.642-0.321,0.964-0.589l-0.321,1.178c0,0.107-0.054,0.161-0.107,0.214
			c-0.054,0.054-0.107,0.107-0.268,0.214c-0.054,0.054-0.107,0.107-0.268,0.161c-0.161,0.107-0.321,0.161-0.589,0.214
			c-0.268,0.054-0.589,0.107-0.964,0.161c-0.375,0-0.803,0-1.338-0.107c-0.535-0.107-1.071-0.268-1.499-0.589
			c-0.428-0.321-0.803-0.696-1.071-1.178c-0.268-0.482-0.482-1.017-0.589-1.66c-0.107-0.642-0.054-1.338,0.054-2.034
			c0.161-0.964,0.428-1.767,0.803-2.516c0.375-0.696,0.803-1.338,1.338-1.767c0.482-0.482,1.071-0.803,1.606-1.017
			c0.589-0.214,1.178-0.268,1.713-0.214c0.589,0.054,1.124,0.268,1.499,0.589c0.375,0.321,0.696,0.696,0.91,1.124
			c0.214,0.428,0.375,0.91,0.375,1.392C558.688,213.688,558.688,214.17,558.581,214.544 M557.189,214.17
			c0.107-0.375,0.107-0.749,0.107-1.071c-0.054-0.321-0.107-0.642-0.268-0.91c-0.161-0.268-0.321-0.482-0.589-0.642
			c-0.268-0.161-0.535-0.268-0.857-0.268c-0.375-0.054-0.696,0-1.017,0.107c-0.321,0.107-0.589,0.214-0.803,0.428
			c-0.214,0.161-0.428,0.375-0.642,0.589c-0.161,0.214-0.321,0.482-0.482,0.749c-0.321,0.589-0.535,1.231-0.696,1.981l4.657-0.375
			c0.107,0,0.214-0.054,0.321-0.161C557.082,214.491,557.135,214.384,557.189,214.17"/>
		<path fill="#504F4F" d="M566.129,212.296c-0.107-0.161-0.321-0.321-0.482-0.428c-0.161-0.107-0.375-0.214-0.642-0.321
			c-0.268-0.107-0.535-0.161-0.857-0.214c-0.696-0.107-1.231,0-1.66,0.214c-0.428,0.214-0.696,0.589-0.749,1.071
			c-0.054,0.375,0,0.696,0.161,1.017c0.161,0.321,0.428,0.589,0.696,0.857c0.268,0.268,0.589,0.535,0.964,0.857
			c0.375,0.268,0.696,0.589,0.964,0.91c0.268,0.321,0.535,0.642,0.696,1.017c0.161,0.375,0.214,0.803,0.161,1.338
			c-0.054,0.482-0.214,0.91-0.428,1.285c-0.214,0.375-0.535,0.642-0.857,0.857c-0.375,0.214-0.75,0.375-1.231,0.428
			c-0.428,0.107-0.964,0.107-1.445,0.054c-0.375-0.054-0.696-0.107-1.017-0.161c-0.321-0.107-0.589-0.161-0.803-0.268
			c-0.214-0.107-0.428-0.214-0.535-0.268c-0.161-0.107-0.214-0.161-0.268-0.214c-0.107-0.107-0.161-0.214-0.161-0.321
			c0-0.107,0-0.214,0.054-0.268l0.161-0.964c0.268,0.214,0.535,0.428,0.803,0.589c0.268,0.161,0.589,0.268,0.91,0.428
			c0.321,0.107,0.696,0.214,1.124,0.214c0.214,0.054,0.482,0,0.75,0c0.268-0.054,0.482-0.107,0.696-0.214
			c0.214-0.107,0.375-0.268,0.535-0.428s0.214-0.428,0.268-0.696c0.054-0.375,0-0.749-0.161-1.071
			c-0.161-0.321-0.375-0.642-0.696-0.91c-0.268-0.268-0.589-0.535-0.964-0.803c-0.375-0.268-0.696-0.589-0.964-0.857
			c-0.268-0.321-0.535-0.642-0.696-1.017c-0.161-0.375-0.268-0.803-0.214-1.231c0.054-0.428,0.161-0.803,0.375-1.178
			c0.214-0.321,0.482-0.589,0.803-0.857c0.321-0.214,0.696-0.375,1.124-0.482c0.428-0.107,0.857-0.161,1.338-0.107
			c0.375,0.054,0.696,0.107,0.964,0.161c0.268,0.107,0.482,0.161,0.696,0.214c0.214,0.107,0.428,0.214,0.589,0.268V212.296"/>
		<path fill="#504F4F" d="M569.662,210.369l-2.248,10.653h-1.338l2.248-10.653H569.662 M570.465,207.692
			c-0.054,0.268-0.161,0.482-0.375,0.589c-0.214,0.107-0.428,0.161-0.642,0.161c-0.214-0.054-0.428-0.107-0.589-0.268
			c-0.161-0.161-0.214-0.321-0.161-0.589s0.161-0.482,0.375-0.589c0.214-0.107,0.428-0.161,0.642-0.161
			c0.214,0,0.428,0.107,0.535,0.268C570.412,207.21,570.465,207.424,570.465,207.692"/>
		<path fill="#504F4F" d="M579.245,210.369l-2.248,10.707h-1.445l1.017-4.336c-0.268,0.803-0.589,1.552-1.017,2.195
			c-0.161,0.268-0.375,0.535-0.589,0.803c-0.214,0.268-0.428,0.482-0.696,0.696c-0.268,0.214-0.535,0.375-0.857,0.535
			c-0.321,0.107-0.589,0.214-0.964,0.214c-0.696,0.054-1.231-0.161-1.606-0.535c-0.375-0.375-0.696-0.857-0.857-1.392
			c-0.161-0.589-0.268-1.178-0.268-1.82c0-0.642,0.054-1.178,0.161-1.66c0.107-0.749,0.321-1.445,0.642-2.088
			c0.321-0.696,0.642-1.285,1.124-1.767c0.428-0.535,0.964-0.91,1.499-1.231c0.535-0.321,1.178-0.482,1.82-0.535
			c0.428,0,0.857,0.054,1.178,0.161c0.321,0.161,0.589,0.268,0.857,0.482c0.214,0.161,0.428,0.375,0.642,0.696
			c0-0.107,0.054-0.214,0.054-0.321s0.054-0.161,0.054-0.268c0.054-0.107,0.054-0.161,0.054-0.214
			c0.107-0.214,0.321-0.321,0.589-0.321L579.245,210.369 M577.425,212.51c-0.161-0.268-0.321-0.535-0.482-0.696
			c-0.161-0.161-0.375-0.321-0.696-0.428c-0.268-0.107-0.642-0.161-1.017-0.161c-0.535,0.054-1.071,0.214-1.499,0.535
			c-0.428,0.321-0.803,0.696-1.124,1.124c-0.321,0.428-0.589,0.91-0.75,1.445c-0.214,0.535-0.321,1.017-0.428,1.499
			c-0.107,0.535-0.161,1.017-0.107,1.499c0,0.482,0.054,0.91,0.161,1.285c0.107,0.375,0.268,0.696,0.482,0.91
			c0.214,0.214,0.482,0.375,0.75,0.428c0.321,0.054,0.642-0.054,0.964-0.268c0.321-0.214,0.642-0.482,0.91-0.857
			c0.321-0.375,0.589-0.803,0.857-1.285c0.268-0.482,0.535-0.964,0.749-1.499s0.428-1.017,0.589-1.552s0.321-0.964,0.428-1.392
			L577.425,212.51z"/>
	</g>
</g>
</svg>
