<svg width="334" height="334" viewBox="0 0 334 334" fill="none" xmlns="http://www.w3.org/2000/svg">
<path d="M271.798 63.202C243.939 35.3423 206.899 20 167.5 20C128.101 20 91.0604 35.3423 63.2019 63.2015C35.3423 91.0606 20 128.102 20 167.5C20 206.899 35.3423 243.939 63.2019 271.799C91.0604 299.658 128.101 315 167.5 315C206.899 315 243.939 299.658 271.799 271.798C299.657 243.939 315 206.898 315 167.5C315 128.101 299.657 91.0606 271.798 63.202ZM75.437 75.4371C88.4072 62.4668 103.634 52.5739 120.23 46.1168C115.809 51.6354 111.673 57.9784 107.882 65.1126C103.48 73.398 99.6811 82.4975 96.5173 92.2169C85.5574 90.398 75.4024 88.1613 66.33 85.5362C69.1734 82.0412 72.2069 78.6671 75.437 75.4371ZM55.8546 100.425C66.466 103.823 78.6013 106.688 91.8429 108.958C88.1554 124.61 85.9849 141.453 85.467 158.849H37.594C38.9537 137.973 45.2237 118.049 55.8546 100.425ZM54.9126 232.975C44.8555 215.748 38.9128 196.399 37.5934 176.152H85.4998C86.0656 193.05 88.1928 209.415 91.7559 224.657C78.2423 226.848 65.8022 229.641 54.9126 232.975ZM75.437 259.564C71.761 255.887 68.3374 252.027 65.1632 248.008C74.5681 245.401 85.0821 243.192 96.3998 241.421C99.586 251.275 103.426 260.495 107.882 268.883C112.013 276.657 116.555 283.488 121.428 289.34C104.367 282.896 88.7189 272.844 75.437 259.564ZM158.848 295.477C145.707 291.796 133.275 279.795 123.162 260.763C119.625 254.107 116.519 246.846 113.857 239.106C128.106 237.538 143.268 236.611 158.848 236.393V295.477V295.477ZM158.848 219.089C141.57 219.325 124.729 220.41 108.957 222.262C105.479 207.88 103.385 192.314 102.811 176.152H158.849V219.089H158.848ZM158.848 158.848H102.778C103.303 142.235 105.43 126.234 109.017 111.486C124.688 113.445 141.493 114.637 158.848 114.978V158.848ZM158.848 97.6727C143.207 97.3576 128.079 96.3377 113.931 94.6737C116.576 87.0153 119.659 79.8269 123.162 73.2315C133.275 54.1993 145.707 42.1988 158.848 38.5176V97.6727ZM279.69 101.344C289.989 118.74 296.069 138.334 297.407 158.848H249.534C249.022 141.653 246.893 124.999 243.283 109.501C256.611 107.348 268.897 104.61 279.69 101.344ZM259.562 75.4371C263.036 78.9108 266.281 82.5522 269.308 86.3325C260.047 88.8613 249.734 91.0076 238.653 92.7349C235.457 82.8201 231.599 73.5455 227.118 65.1126C223.328 57.9784 219.191 51.6354 214.771 46.1168C231.366 52.5739 246.593 62.4668 259.562 75.4371ZM176.152 176.152H232.19C231.611 192.439 229.49 208.124 225.961 222.599C210.293 220.651 193.495 219.47 176.152 219.138V176.152ZM176.152 158.848V115.036C193.44 114.809 210.294 113.733 226.081 111.887C229.61 126.524 231.702 142.385 232.222 158.848H176.152ZM176.151 38.5176H176.151C189.293 42.1988 201.724 54.1993 211.837 73.2315C215.397 79.9306 218.521 87.2428 221.194 95.0385C206.926 96.601 191.747 97.5212 176.151 97.7315V38.5176V38.5176ZM176.152 295.477V236.443C191.778 236.75 206.895 237.761 221.037 239.414C218.399 247.038 215.327 254.195 211.838 260.763C201.725 279.795 189.293 291.796 176.152 295.477ZM259.562 259.564C246.281 272.845 230.633 282.896 213.572 289.339C218.445 283.487 222.986 276.657 227.118 268.883C231.508 260.62 235.298 251.547 238.457 241.857C249.672 243.708 260.048 245.997 269.291 248.689C266.27 252.461 263.03 256.096 259.562 259.564ZM279.626 233.765C268.89 230.314 256.58 227.409 243.14 225.117C246.767 209.745 248.929 193.22 249.501 176.152H297.408C296.066 196.709 289.965 216.342 279.626 233.765Z" fill="#464646"/>
</svg>
