<svg width="15" height="15" viewBox="0 0 15 15" fill="none" xmlns="http://www.w3.org/2000/svg">
<path fill-rule="evenodd" clip-rule="evenodd" d="M1.96738 7.62436C0.925396 7.29959 0.244586 6.90157 0 6.59057C0.33606 3.83142 2.18178 1.53379 4.69321 0.535245C3.81236 2.22274 3.30386 4.72694 3.30386 7.5C3.30386 7.65416 3.30543 7.8075 3.30855 7.9599C2.82663 7.86449 2.37749 7.75214 1.96738 7.62436ZM0.0316887 8.63961C0.907905 9.09249 2.06407 9.44453 3.41245 9.67712C3.60568 11.5661 4.05025 13.233 4.69321 14.4648C2.25195 13.4941 0.439731 11.296 0.0316887 8.63961ZM7.50257 10.0014C6.6804 10.0014 5.887 9.96653 5.1337 9.89921C5.51555 12.8819 6.55914 15 7.50243 15C8.44864 15 9.49576 12.8688 9.87468 9.87157C9.10826 9.95594 8.31137 10.0014 7.50257 10.0014ZM7.50257 8.33476C8.36577 8.33476 9.21272 8.27433 10.01 8.17187C10.0176 7.95069 10.0216 7.72659 10.0216 7.5C10.0216 3.31998 8.68341 0 7.50243 0C6.32146 0 4.98329 3.31998 4.98329 7.5C4.98329 7.73961 4.98769 7.97642 4.9962 8.20992C5.78395 8.29164 6.62568 8.33476 7.50257 8.33476ZM10.3117 14.4648C10.9625 13.2178 11.4101 11.525 11.5994 9.60723C12.9307 9.34229 14.1032 8.95811 14.9935 8.49862C14.6289 11.218 12.796 13.477 10.3117 14.4648ZM11.6978 7.87989C13.3584 7.51455 14.6049 6.99165 15 6.55148C14.6513 3.80972 12.8112 1.52909 10.3117 0.535245C11.1925 2.22274 11.701 4.72694 11.701 7.5C11.701 7.56788 11.7007 7.63558 11.7001 7.70309C11.6996 7.76214 11.6988 7.82107 11.6978 7.87989Z" fill="#209FAE"/>
</svg>
