<svg width="120" height="120" viewBox="0 0 120 120" fill="none" xmlns="http://www.w3.org/2000/svg">
<g id="Frame 247">
<g id="Group">
<g id="Group_2">
<path id="Vector" d="M106.431 28.0882L104.74 28.6243L95.7358 29.4265L93.1924 33.488L91.3469 32.9016L84.1808 26.4406L83.1411 23.0806L81.7489 19.4976L77.2449 15.4576L71.9315 14.418L71.8092 16.8498L77.0147 21.9294L79.5617 24.9297L76.6981 26.4262L74.367 25.7391L70.8739 24.2821L70.9926 21.4654L66.4094 19.5803L64.8877 26.2032L60.2686 27.25L60.7255 30.9446L66.744 32.103L67.7837 26.1996L72.7517 26.9335L75.0613 28.2861H78.7667L81.3029 33.3657L88.0265 40.1864L87.5336 42.8377L82.1123 42.147L72.7445 46.8777L65.9993 54.9683L65.1216 58.5514H62.7005L58.1893 56.472L53.8076 58.5514L54.8976 63.1741L56.8043 60.976L60.1571 60.8717L59.9233 65.0232L62.7005 65.8362L65.4741 68.9516L70.0033 67.6781L75.1764 68.4947L81.1841 70.1099L84.1844 70.4625L89.2712 76.2364L99.0886 82.0103L92.7391 94.1408L86.0371 97.2562L83.4937 104.188L73.795 110.664L72.7625 114.398C97.5561 108.426 116 86.1545 116 59.5263C115.993 47.8957 112.467 37.071 106.431 28.0882Z" fill="#464646"/>
<path id="Vector_2" d="M65.9948 89.0378L61.8793 81.4076L65.6566 73.5364L61.8793 72.4068L57.6379 68.1475L48.2414 66.0394L45.1224 59.5136V63.3881H43.7482L35.6504 52.4087V43.3899L29.7146 33.738L20.2893 35.418H13.9398L10.7453 33.3243L14.8212 30.0938L10.7561 31.0327C5.85637 39.4003 3 49.1098 3 59.51C3 90.7106 28.2936 116.015 59.4978 116.015C61.9009 116.015 64.2572 115.803 66.5884 115.522L65.9984 108.676C65.9984 108.676 68.5921 98.5098 68.5921 98.1645C68.5885 97.8155 65.9948 89.0378 65.9948 89.0378Z" fill="#464646"/>
<path id="Vector_3" d="M23.9936 21.221L34.0304 19.8216L38.6567 17.2854L43.8622 18.7856L52.1795 18.3251L55.0287 13.8463L59.1837 14.5298L69.2745 13.5837L72.0553 10.5186L75.9766 7.89971L81.5238 8.73432L83.5456 8.42854C76.2392 4.98938 68.109 3 59.4931 3C41.9556 3 26.2743 10.9935 15.9209 23.545H15.9497L23.9936 21.221ZM61.8818 8.6192L67.6521 5.44266L71.3574 7.58314L65.9937 11.6662L60.8709 12.1807L58.5649 10.6841L61.8818 8.6192ZM44.7904 9.08327L47.3373 10.1445L50.6722 9.08327L52.4889 12.231L44.7904 14.2528L41.0886 12.0871C41.085 12.0871 44.7076 9.75599 44.7904 9.08327Z" fill="#464646"/>
</g>
</g>
</g>
</svg>
