<svg width="52" height="52" viewBox="0 0 52 52" fill="none" xmlns="http://www.w3.org/2000/svg">
<circle cx="26" cy="26" r="26" fill="#F6F6F6"/>
<path d="M18.9838 29.3179L18.0439 32.8265L14.6089 32.8991C13.5823 30.995 13 28.8165 13 26.5015C13 24.2629 13.5444 22.1518 14.5095 20.293H14.5102L17.5684 20.8536L18.908 23.8935C18.6277 24.7109 18.4748 25.5884 18.4748 26.5015C18.4749 27.4925 18.6544 28.442 18.9838 29.3179Z" fill="#FBBB00"/>
<path d="M39.7642 23.9766C39.9192 24.7932 40.0001 25.6366 40.0001 26.4985C40.0001 27.465 39.8985 28.4078 39.7049 29.3172C39.0477 32.4118 37.3305 35.1141 34.9517 37.0263L34.951 37.0256L31.0991 36.829L30.5539 33.4258C32.1323 32.5001 33.3659 31.0515 34.0157 29.3172H26.7969V23.9766H34.121H39.7642Z" fill="#518EF8"/>
<path d="M34.9513 37.027L34.9521 37.0277C32.6386 38.8873 29.6997 39.9999 26.5005 39.9999C21.3594 39.9999 16.8896 37.1264 14.6094 32.8976L18.9843 29.3164C20.1243 32.3591 23.0595 34.525 26.5005 34.525C27.9795 34.525 29.3652 34.1252 30.5542 33.4272L34.9513 37.027Z" fill="#28B446"/>
<path d="M35.1154 16.108L30.7419 19.6884C29.5114 18.9192 28.0567 18.4749 26.4983 18.4749C22.9794 18.4749 19.9894 20.7402 18.9064 23.892L14.5086 20.2915H14.5078C16.7546 15.9596 21.2808 13 26.4983 13C29.7739 13 32.7773 14.1668 35.1154 16.108Z" fill="#F14336"/>
</svg>
