<svg width="24" height="24" viewBox="0 0 24 24" fill="none" xmlns="http://www.w3.org/2000/svg">
<path d="M5.31891 14.5034L4.4835 17.6221L1.43011 17.6867C0.517594 15.9942 0 14.0577 0 11.9999C0 10.01 0.483938 8.1335 1.34175 6.4812H1.34241L4.06078 6.97958L5.25159 9.68164C5.00236 10.4082 4.86652 11.1882 4.86652 11.9999C4.86661 12.8808 5.02617 13.7247 5.31891 14.5034Z" fill="#FBBB00"/>
<path d="M23.7895 9.75854C23.9274 10.4845 23.9992 11.2341 23.9992 12.0003C23.9992 12.8594 23.9089 13.6975 23.7368 14.5058C23.1527 17.2566 21.6263 19.6585 19.5118 21.3583L19.5111 21.3577L16.0872 21.183L15.6026 18.1579C17.0057 17.335 18.1022 16.0473 18.6798 14.5058H12.263V9.75854H18.7734H23.7895Z" fill="#518EF8"/>
<path d="M19.5132 21.3572L19.5139 21.3579C17.4574 23.0109 14.8451 23.9999 12.0013 23.9999C7.43146 23.9999 3.45829 21.4456 1.43146 17.6867L5.32026 14.5034C6.33365 17.208 8.94266 19.1333 12.0013 19.1333C13.3161 19.1333 14.5477 18.7779 15.6046 18.1575L19.5132 21.3572Z" fill="#28B446"/>
<path d="M19.6625 2.76262L15.775 5.94525C14.6812 5.26153 13.3882 4.86656 12.0029 4.86656C8.87502 4.86656 6.21721 6.88017 5.25459 9.68175L1.34535 6.48131H1.3447C3.34185 2.63077 7.36513 0 12.0029 0C14.9146 0 17.5843 1.03716 19.6625 2.76262Z" fill="#F14336"/>
</svg>
