<svg width="305" height="305" viewBox="0 0 305 305" fill="none" xmlns="http://www.w3.org/2000/svg">
<rect width="305" height="305" fill="white"/>
<circle cx="152" cy="152" r="139" fill="#DAF0F2"/>
<path d="M170.512 100.284C178.677 105.403 184.403 114.066 185.445 124.122C188.775 125.678 192.471 126.572 196.389 126.572C210.693 126.572 222.287 114.978 222.287 100.676C222.287 86.3713 210.693 74.7773 196.389 74.7773C182.221 74.7818 170.728 86.1686 170.512 100.284ZM153.545 153.311C167.85 153.311 179.444 141.714 179.444 127.412C179.444 113.11 167.848 101.516 153.545 101.516C139.243 101.516 127.642 113.112 127.642 127.414C127.642 141.717 139.243 153.311 153.545 153.311ZM164.531 155.076H142.555C124.271 155.076 109.395 169.954 109.395 188.238V215.113L109.464 215.534L111.315 216.114C128.764 221.566 143.924 223.384 156.402 223.384C180.773 223.384 194.899 216.435 195.77 215.992L197.5 215.117H197.685V188.238C197.691 169.954 182.816 155.076 164.531 155.076ZM207.379 128.34H185.573C185.337 137.065 181.613 144.921 175.722 150.571C191.975 155.404 203.866 170.476 203.866 188.278V196.56C225.397 195.771 237.804 189.668 238.622 189.258L240.352 188.381H240.537V161.498C240.537 143.215 225.661 128.34 207.379 128.34ZM108.102 126.577C113.168 126.577 117.882 125.098 121.875 122.579C123.145 114.3 127.583 107.065 133.923 102.137C133.95 101.652 133.996 101.172 133.996 100.683C133.996 86.378 122.4 74.784 108.102 74.784C93.7948 74.784 82.203 86.378 82.203 100.683C82.203 114.981 93.7948 126.577 108.102 126.577ZM131.36 150.571C125.498 144.95 121.787 137.135 121.516 128.463C120.707 128.404 119.907 128.34 119.083 128.34H97.1093C78.8246 128.34 63.9492 143.215 63.9492 161.498V188.377L64.0175 188.791L65.8687 189.375C79.867 193.745 92.3601 195.76 103.211 196.394V188.278C103.216 170.476 115.103 155.409 131.36 150.571Z" fill="#464646"/>
</svg>
