<svg width="27" height="22" viewBox="0 0 27 22" fill="none" xmlns="http://www.w3.org/2000/svg">
<path d="M15.7758 3.77602C16.9846 4.53389 17.8322 5.81638 17.9865 7.30506C18.4794 7.53539 19.0266 7.66785 19.6066 7.66785C21.7243 7.66785 23.4407 5.95145 23.4407 3.83409C23.4407 1.7164 21.7243 0 19.6066 0C17.5092 0.0006525 15.8078 1.68639 15.7758 3.77602ZM13.264 11.6262C15.3817 11.6262 17.0981 9.90951 17.0981 7.79215C17.0981 5.67479 15.3814 3.95839 13.264 3.95839C11.1466 3.95839 9.42927 5.67512 9.42927 7.79248C9.42927 9.90984 11.1466 11.6262 13.264 11.6262ZM14.8904 11.8876H11.637C8.93011 11.8876 6.72792 14.0901 6.72792 16.797V20.7756L6.73804 20.8379L7.01209 20.9237C9.59533 21.7308 11.8396 22 13.6868 22C17.2948 22 19.3861 20.9713 19.515 20.9058L19.7711 20.7762H19.7985V16.797C19.7994 14.0901 17.5973 11.8876 14.8904 11.8876ZM21.2336 7.9295H18.0054C17.9705 9.22112 17.4191 10.3842 16.5471 11.2207C18.9532 11.9362 20.7136 14.1674 20.7136 16.8028V18.0289C23.9011 17.9121 25.7378 17.0087 25.8589 16.948L26.115 16.8182H26.1424V12.8383C26.1424 10.1317 23.9402 7.9295 21.2336 7.9295ZM6.53641 7.6685C7.28646 7.6685 7.98431 7.44959 8.57547 7.07668C8.76339 5.85096 9.42046 4.77989 10.3591 4.05039C10.363 3.97862 10.3698 3.90749 10.3698 3.83507C10.3698 1.71738 8.65312 0.000978678 6.53641 0.000978678C4.4184 0.000978678 2.70233 1.71738 2.70233 3.83507C2.70233 5.95178 4.4184 7.6685 6.53641 7.6685ZM9.97965 11.2207C9.11183 10.3884 8.56242 9.23156 8.5223 7.94777C8.40256 7.93896 8.28413 7.9295 8.16212 7.9295H4.90908C2.20219 7.9295 0 10.1317 0 12.8383V16.8175L0.0101137 16.8789L0.284164 16.9653C2.3565 17.6123 4.20601 17.9105 5.81247 18.0044V16.8028C5.81312 14.1674 7.57291 11.9368 9.97965 11.2207Z" fill="white"/>
</svg>
