<svg width="37" height="37" viewBox="0 0 37 37" fill="none" xmlns="http://www.w3.org/2000/svg">
<path d="M29.5962 22.237V27.5485C29.5962 29.3489 28.7611 31.0144 27.2473 32.3198C25.838 33.5801 23.8545 34.3003 21.7665 34.3003C17.4341 34.3003 13.9369 31.2845 13.9369 27.5485V19.9415C16.7555 19.6714 19.4177 18.5461 21.4012 16.8357C23.7501 14.8101 25.055 12.1094 25.055 9.18363V2.79181C25.055 2.02658 24.3764 1.44149 23.4891 1.44149H20.0962V4.14222H21.9232V9.18355C21.9232 11.3891 20.9314 13.4147 19.2089 14.9451C17.4342 16.4754 15.0331 17.3307 12.5276 17.3307C7.36009 17.3307 3.13199 13.6848 3.13199 9.22852V4.14213H4.85454V1.44141H1.56589C0.67849 1.44141 0 2.02658 0 2.79173V9.22843C0 14.6749 4.69778 19.2211 10.805 19.9413V27.5484C10.805 32.7698 15.7116 37.0009 21.7665 37.0009C24.7419 37.0009 27.5083 36.0106 29.4918 34.2101C31.5797 32.4096 32.7281 30.069 32.7281 27.5484V22.237C32.2062 22.372 31.6841 22.4171 31.1622 22.4171C30.6403 22.4171 30.1182 22.3271 29.5962 22.237Z" fill="#209FAE"/>
<path d="M36.9558 17.6448C36.9558 14.8991 34.346 12.6484 31.1618 12.6484C27.9777 12.6484 25.3679 14.8991 25.3679 17.6448C25.3679 19.9404 27.1426 21.8759 29.5959 22.4611C30.1178 22.5961 30.6399 22.6411 31.1618 22.6411C31.6837 22.6411 32.2058 22.5511 32.7277 22.4611C35.1811 21.8759 36.9558 19.9404 36.9558 17.6448Z" fill="#14646E"/>
<path d="M4.64453 4.23112C4.64453 4.99635 5.32312 5.58144 6.21042 5.58144C7.09773 5.58144 7.77632 4.99627 7.77632 4.23112V1.35032C7.77632 0.585171 7.09783 0 6.21042 0C5.32302 0 4.64453 0.585171 4.64453 1.35032V1.44035V4.14108V4.23112Z" fill="#14646E"/>
<path d="M20.3042 1.35032C20.3042 0.585171 19.6256 0 18.7383 0C17.851 0 17.1724 0.585171 17.1724 1.35032V4.23112C17.1724 4.99635 17.851 5.58144 18.7383 5.58144C19.6256 5.58144 20.3042 4.99627 20.3042 4.23112V4.14108V1.44035V1.35032Z" fill="#14646E"/>
</svg>
