<svg width="20" height="20" viewBox="0 0 20 20" fill="none" xmlns="http://www.w3.org/2000/svg">
<path fill-rule="evenodd" clip-rule="evenodd" d="M1.6665 9.99984C1.6665 5.39984 5.39984 1.6665 9.99984 1.6665C14.5998 1.6665 18.3332 5.39984 18.3332 9.99984C18.3332 14.5998 14.5998 18.3332 9.99984 18.3332C5.39984 18.3332 1.6665 14.5998 1.6665 9.99984ZM10.8332 13.3332V14.9998H9.1665V13.3332H10.8332ZM9.99984 16.6665C6.32484 16.6665 3.33317 13.6748 3.33317 9.99984C3.33317 6.32484 6.32484 3.33317 9.99984 3.33317C13.6748 3.33317 16.6665 6.32484 16.6665 9.99984C16.6665 13.6748 13.6748 16.6665 9.99984 16.6665ZM6.6665 8.33317C6.6665 6.4915 8.15817 4.99984 9.99984 4.99984C11.8415 4.99984 13.3332 6.4915 13.3332 8.33317C13.3332 9.40227 12.6748 9.9776 12.0338 10.5378C11.4257 11.0692 10.8332 11.587 10.8332 12.4998H9.1665C9.1665 10.9821 9.9516 10.3803 10.6419 9.85123C11.1834 9.43618 11.6665 9.06585 11.6665 8.33317C11.6665 7.4165 10.9165 6.6665 9.99984 6.6665C9.08317 6.6665 8.33317 7.4165 8.33317 8.33317H6.6665Z" fill="black" fill-opacity="0.54"/>
</svg>
