<svg width="31" height="36" viewBox="0 0 31 36" fill="none" xmlns="http://www.w3.org/2000/svg">
<path d="M26.7704 35.0963C26.9492 34.6647 26.7444 34.1699 26.3129 33.991C25.8814 33.8122 25.3865 34.017 25.2077 34.4485C25.0288 34.8801 25.2336 35.3749 25.6651 35.5538C26.0967 35.7326 26.5915 35.5278 26.7704 35.0963Z" fill="#3C5A73"/>
<path d="M28.621 35.6115C29.088 35.6115 29.4666 35.2329 29.4666 34.7659C29.4666 34.2988 29.088 33.9202 28.621 33.9202C28.154 33.9202 27.7754 34.2988 27.7754 34.7659C27.7754 35.2329 28.154 35.6115 28.621 35.6115Z" fill="#3C5A73"/>
<path d="M25.3279 19.1636L20.7978 16.3368C20.5743 16.1974 20.3944 15.9981 20.2785 15.7615L17.9139 10.9345C17.5717 10.2359 17.8607 9.3922 18.5593 9.04992C19.2578 8.70758 20.1016 8.99666 20.4438 9.69523L22.631 14.1603L26.8192 16.7736C27.4791 17.1854 27.6803 18.0543 27.2685 18.7142C26.8596 19.3696 25.9923 19.5782 25.3279 19.1636Z" fill="#FFB69E"/>
<path d="M25.9776 24.2886C25.5458 24.2886 25.1958 23.9386 25.1958 23.5068V18.4507C25.1958 18.0189 25.5458 17.6689 25.9776 17.6689C26.4094 17.6689 26.7594 18.0189 26.7594 18.4507V23.5068C26.7594 23.9385 26.4093 24.2886 25.9776 24.2886Z" fill="#A5C8CD"/>
<path d="M21.2069 35.5541C20.2969 35.5542 19.5591 34.8166 19.5591 33.9065L19.5581 20.5827L21.3538 19.1219L22.8783 20.5827L22.8545 33.9064C22.8545 34.8163 22.1169 35.554 21.2069 35.5541Z" fill="#414B82"/>
<path d="M17.1465 35.55C16.2389 35.55 15.5017 34.8157 15.4989 33.9074L15.4697 20.5786C15.467 19.6686 16.1918 19.0902 17.1018 19.0874H17.1069C18.0146 19.0874 18.7443 19.6703 18.7471 20.5786L18.7944 33.8973C18.7972 34.8073 18.0617 35.5472 17.1518 35.55C17.15 35.55 17.1482 35.55 17.1465 35.55Z" fill="#5F6E9B"/>
<path d="M2.57153 35.6253C1.68409 35.4152 1.13501 34.5255 1.34507 33.6381L2.83255 27.3543V20.8202C2.83255 19.9083 3.57186 19.169 4.48375 19.169C5.39565 19.169 6.13495 19.9083 6.13495 20.8202V27.5471C6.13495 27.6751 6.12004 27.8027 6.09056 27.9274L4.5587 34.3989C4.34938 35.2832 3.46187 35.836 2.57153 35.6253Z" fill="#FFB69E"/>
<path d="M7.87414 34.0893L7.58506 27.3033L5.9798 21.2435C5.74622 20.362 6.27153 19.4581 7.15306 19.2246C8.03447 18.9909 8.9385 19.5163 9.17201 20.3978L10.8233 26.6309C10.8538 26.7461 10.8718 26.8644 10.8769 26.9835L11.1736 33.9487C11.2124 34.8598 10.5053 35.6298 9.59418 35.6686C8.6829 35.7075 7.91297 35.0004 7.87414 34.0893Z" fill="#FFB69E"/>
<path d="M9.44607 9.38437C9.29198 8.54227 8.60926 7.93369 7.81568 7.93369C6.79373 7.93369 6.07496 7.93369 4.94073 7.93369C4.14553 7.93369 3.46477 8.54058 3.31034 9.38437L0.769067 23.2731C0.682059 23.7486 1.02101 24.1867 1.46229 24.1867H11.2942C11.7396 24.1867 12.0739 23.746 11.9874 23.2731L9.44607 9.38437Z" fill="#FF6473"/>
<path d="M7.60281 7.05921C9.15736 6.80721 10.2133 5.34274 9.96129 3.78822C9.70929 2.23371 8.2448 1.17782 6.69025 1.42982C5.1357 1.68183 4.07977 3.1463 4.33177 4.70081C4.58377 6.25532 6.04826 7.31121 7.60281 7.05921Z" fill="#FFB69E"/>
<path d="M7.71944 9.25993C7.42453 8.60994 6.65859 8.32235 6.00861 8.61712C5.35868 8.9121 5.07089 9.67803 5.3658 10.328L5.74257 11.1583" fill="#FFB69E"/>
<path d="M13.4962 17.7388L9.98832 14.258L9.07168 12.2378L7.52701 12.1401L6.72266 13.316L7.73274 15.5421C7.79759 15.6849 7.88792 15.8149 7.99932 15.9254L11.6758 19.5734C12.1826 20.0764 13.0007 20.0728 13.5034 19.5664C14.006 19.0598 14.0028 18.2415 13.4962 17.7388Z" fill="#FFB69E"/>
<path d="M9.07132 12.2393L7.71944 9.25993C7.42453 8.60994 6.6586 8.32235 6.00861 8.61712C5.35868 8.9121 5.07089 9.67803 5.3658 10.328L6.72236 13.3176L9.07132 12.2393Z" fill="#FA5565"/>
<path d="M20.9442 7.84299H17.4034C16.3355 7.84299 15.4697 8.70874 15.4697 9.77663V20.5822H22.8779V9.77663C22.8779 8.70874 22.0121 7.84299 20.9442 7.84299Z" fill="#64AFFF"/>
<path d="M22.6516 5.19843C23.3023 3.62872 22.5572 1.82876 20.9875 1.17811C19.4178 0.527456 17.6178 1.27251 16.9672 2.84222C16.3165 4.41194 17.0616 6.2119 18.6313 6.86255C20.201 7.5132 22.001 6.76815 22.6516 5.19843Z" fill="#FFB69E"/>
<path d="M29.1039 21.7557H25.4985C24.7925 21.7557 24.2202 22.328 24.2202 23.034V33.0837C24.2202 33.7896 24.7925 34.3619 25.4985 34.3619H29.1039C29.8099 34.3619 30.3822 33.7896 30.3822 33.0837V23.034C30.3823 22.3279 29.81 21.7557 29.1039 21.7557Z" fill="#1C9585"/>
<path d="M16.4552 12.1202C16.4427 12.1202 14.9633 11.6268 14.9633 11.6268L13.4094 13.0072C13.2304 13.1663 13.0948 13.3684 13.0156 13.5945L11.2578 18.6117C11.0006 19.3458 11.3872 20.1494 12.1215 20.4067C12.852 20.6628 13.658 20.2808 13.9164 19.543L15.5534 14.8706L16.9341 13.6441L16.4552 12.1202Z" fill="#FFB69E"/>
<path d="M19.7301 9.27921C19.2134 8.69773 18.3233 8.64501 17.7415 9.16164L14.9653 11.6279L16.9313 13.6396C16.9349 13.6396 16.9379 13.6405 16.9414 13.6406L19.6125 11.2678C20.194 10.7511 20.2467 9.86082 19.7301 9.27921Z" fill="#4699F2"/>
</svg>
