<svg width="520" height="520" viewBox="0 0 520 520" fill="none" xmlns="http://www.w3.org/2000/svg">
<circle cx="260" cy="260" r="260" fill="#F6F6F6"/>
<path d="M396.515 170.655H346.826V134.517C346.826 132.033 344.793 130 342.308 130H188.724C186.239 130 184.206 132.033 184.206 134.517V197.758H134.517C132.033 197.758 130 199.791 130 202.275V387.48C130 389.965 132.033 391.998 134.517 391.998C137.002 391.998 139.034 389.965 139.034 387.48V206.792H184.206V391.998C184.206 394.482 186.239 396.515 188.724 396.515H342.308C344.793 396.515 346.826 394.482 346.826 391.998V179.689H391.998V387.48C391.998 389.965 394.03 391.998 396.515 391.998C398.999 391.998 401.032 389.965 401.032 387.48V175.172C401.032 172.688 398.999 170.655 396.515 170.655ZM260.999 387.48H242.93V346.826H260.999V387.48ZM288.102 387.48H270.033V346.826H288.102V387.48ZM337.791 387.48H297.136V342.308C297.136 339.824 295.104 337.791 292.619 337.791H238.413C235.928 337.791 233.896 339.824 233.896 342.308V387.48H193.241V139.034H337.791V387.48Z" fill="#464646"/>
<path d="M206.791 184.249H233.894C236.378 184.249 238.411 182.216 238.411 179.732V152.629C238.411 150.144 236.378 148.111 233.894 148.111H206.791C204.306 148.111 202.273 150.144 202.273 152.629V179.732C202.273 182.216 204.306 184.249 206.791 184.249ZM211.308 157.146H229.377V175.215H211.308V157.146Z" fill="#464646"/>
<path d="M251.994 184.249H279.097C281.581 184.249 283.614 182.216 283.614 179.732V152.629C283.614 150.144 281.581 148.111 279.097 148.111H251.994C249.509 148.111 247.477 150.144 247.477 152.629V179.732C247.477 182.216 249.509 184.249 251.994 184.249ZM256.511 157.146H274.58V175.215H256.511V157.146Z" fill="#464646"/>
<path d="M297.189 184.228H324.292C326.777 184.228 328.809 182.196 328.809 179.711V152.608C328.809 150.124 326.777 148.091 324.292 148.091H297.189C294.705 148.091 292.672 150.124 292.672 152.608V179.711C292.672 182.196 294.705 184.228 297.189 184.228ZM301.706 157.125H319.775V175.194H301.706V157.125Z" fill="#464646"/>
<path d="M206.791 229.383H233.894C236.378 229.383 238.411 227.35 238.411 224.866V197.762C238.411 195.278 236.378 193.245 233.894 193.245H206.791C204.306 193.245 202.273 195.278 202.273 197.762V224.866C202.273 227.35 204.306 229.383 206.791 229.383ZM211.308 202.28H229.377V220.348H211.308V202.28Z" fill="#464646"/>
<path d="M251.994 229.382H279.097C281.581 229.382 283.614 227.349 283.614 224.865V197.761C283.614 195.277 281.581 193.244 279.097 193.244H251.994C249.509 193.244 247.477 195.277 247.477 197.761V224.865C247.477 227.349 249.509 229.382 251.994 229.382ZM256.511 202.279H274.58V220.347H256.511V202.279Z" fill="#464646"/>
<path d="M297.189 229.383H324.292C326.777 229.383 328.809 227.35 328.809 224.866V197.762C328.809 195.278 326.777 193.245 324.292 193.245H297.189C294.705 193.245 292.672 195.278 292.672 197.762V224.866C292.672 227.35 294.705 229.383 297.189 229.383ZM301.706 202.28H319.775V220.348H301.706V202.28Z" fill="#464646"/>
<path d="M206.791 274.533H233.894C236.378 274.533 238.411 272.5 238.411 270.016V242.913C238.411 240.428 236.378 238.396 233.894 238.396H206.791C204.306 238.396 202.273 240.428 202.273 242.913V270.016C202.273 272.5 204.306 274.533 206.791 274.533ZM211.308 247.43H229.377V265.499H211.308V247.43Z" fill="#464646"/>
<path d="M251.994 274.534H279.097C281.581 274.534 283.614 272.501 283.614 270.017V242.914C283.614 240.429 281.581 238.396 279.097 238.396H251.994C249.509 238.396 247.477 240.429 247.477 242.914V270.017C247.477 272.501 249.509 274.534 251.994 274.534ZM256.511 247.431H274.58V265.5H256.511V247.431Z" fill="#464646"/>
<path d="M297.189 274.514H324.292C326.777 274.514 328.809 272.481 328.809 269.996V242.893C328.809 240.409 326.777 238.376 324.292 238.376H297.189C294.705 238.376 292.672 240.409 292.672 242.893V269.996C292.672 272.481 294.705 274.514 297.189 274.514ZM301.706 247.41H319.775V265.479H301.706V247.41Z" fill="#464646"/>
<path d="M206.791 319.751H233.894C236.378 319.751 238.411 317.718 238.411 315.234V288.13C238.411 285.646 236.378 283.613 233.894 283.613H206.791C204.306 283.613 202.273 285.646 202.273 288.13V315.234C202.273 317.718 204.306 319.751 206.791 319.751ZM211.308 292.648H229.377V310.716H211.308V292.648Z" fill="#464646"/>
<path d="M251.994 319.751H279.097C281.581 319.751 283.614 317.718 283.614 315.234V288.13C283.614 285.646 281.581 283.613 279.097 283.613H251.994C249.509 283.613 247.477 285.646 247.477 288.13V315.234C247.477 317.718 249.509 319.751 251.994 319.751ZM256.511 292.648H274.58V310.716H256.511V292.648Z" fill="#464646"/>
<path d="M297.189 319.728H324.292C326.777 319.728 328.809 317.696 328.809 315.211V288.108C328.809 285.624 326.777 283.591 324.292 283.591H297.189C294.705 283.591 292.672 285.624 292.672 288.108V315.211C292.672 317.696 294.705 319.728 297.189 319.728ZM301.706 292.625H319.775V310.694H301.706V292.625Z" fill="#464646"/>
<path d="M152.627 215.841H157.144C159.628 215.841 161.661 217.874 161.661 220.358V224.875C161.661 227.36 159.628 229.392 157.144 229.392H152.627C150.142 229.392 148.109 227.36 148.109 224.875V220.358C148.109 217.874 150.142 215.841 152.627 215.841Z" fill="#464646"/>
<path d="M170.658 215.841H175.175C177.659 215.841 179.692 217.874 179.692 220.358V224.875C179.692 227.36 177.659 229.392 175.175 229.392H170.658C168.173 229.392 166.141 227.36 166.141 224.875V220.358C166.141 217.874 168.173 215.841 170.658 215.841Z" fill="#464646"/>
<path d="M152.541 233.912H157.058C159.542 233.912 161.575 235.945 161.575 238.429V242.946C161.575 245.431 159.542 247.464 157.058 247.464H152.541C150.056 247.464 148.023 245.431 148.023 242.946V238.429C148.023 235.945 150.056 233.912 152.541 233.912Z" fill="#464646"/>
<path d="M170.658 233.911H175.175C177.659 233.911 179.692 235.944 179.692 238.428V242.946C179.692 245.43 177.659 247.463 175.175 247.463H170.658C168.173 247.463 166.141 245.43 166.141 242.946V238.428C166.141 235.944 168.173 233.911 170.658 233.911Z" fill="#464646"/>
<path d="M152.627 251.96H157.144C159.628 251.96 161.661 253.993 161.661 256.477V260.994C161.661 263.479 159.628 265.512 157.144 265.512H152.627C150.142 265.512 148.109 263.479 148.109 260.994V256.477C148.109 253.993 150.142 251.96 152.627 251.96Z" fill="#464646"/>
<path d="M170.658 251.96H175.175C177.659 251.96 179.692 253.993 179.692 256.477V260.994C179.692 263.479 177.659 265.512 175.175 265.512H170.658C168.173 265.512 166.141 263.479 166.141 260.994V256.477C166.141 253.993 168.173 251.96 170.658 251.96Z" fill="#464646"/>
<path d="M152.627 270.03H157.144C159.628 270.03 161.661 272.063 161.661 274.547V279.065C161.661 281.549 159.628 283.582 157.144 283.582H152.627C150.142 283.582 148.109 281.549 148.109 279.065V274.547C148.109 272.063 150.142 270.03 152.627 270.03Z" fill="#464646"/>
<path d="M170.658 270.028H175.175C177.659 270.028 179.692 272.061 179.692 274.545V279.063C179.692 281.547 177.659 283.58 175.175 283.58H170.658C168.173 283.58 166.141 281.547 166.141 279.063V274.545C166.141 272.061 168.173 270.028 170.658 270.028Z" fill="#464646"/>
<path d="M152.541 288.078H157.058C159.542 288.078 161.575 290.111 161.575 292.595V297.113C161.575 299.597 159.542 301.63 157.058 301.63H152.541C150.056 301.63 148.023 299.597 148.023 297.113V292.595C148.023 290.111 150.056 288.078 152.541 288.078Z" fill="#464646"/>
<path d="M170.658 288.078H175.175C177.659 288.078 179.692 290.111 179.692 292.595V297.113C179.692 299.597 177.659 301.63 175.175 301.63H170.658C168.173 301.63 166.141 299.597 166.141 297.113V292.595C166.141 290.111 168.173 288.078 170.658 288.078Z" fill="#464646"/>
<path d="M152.627 306.168H157.144C159.628 306.168 161.661 308.201 161.661 310.685V315.202C161.661 317.687 159.628 319.72 157.144 319.72H152.627C150.142 319.72 148.109 317.687 148.109 315.202V310.685C148.109 308.201 150.142 306.168 152.627 306.168Z" fill="#464646"/>
<path d="M170.658 306.169H175.175C177.659 306.169 179.692 308.202 179.692 310.686V315.203C179.692 317.688 177.659 319.721 175.175 319.721H170.658C168.173 319.721 166.141 317.688 166.141 315.203V310.686C166.141 308.202 168.173 306.169 170.658 306.169Z" fill="#464646"/>
<path d="M152.541 324.195H157.058C159.542 324.195 161.575 326.228 161.575 328.712V333.23C161.575 335.714 159.542 337.747 157.058 337.747H152.541C150.056 337.747 148.023 335.714 148.023 333.23V328.712C148.023 326.228 150.056 324.195 152.541 324.195Z" fill="#464646"/>
<path d="M170.658 324.195H175.175C177.659 324.195 179.692 326.228 179.692 328.712V333.23C179.692 335.714 177.659 337.747 175.175 337.747H170.658C168.173 337.747 166.141 335.714 166.141 333.23V328.712C166.141 326.228 168.173 324.195 170.658 324.195Z" fill="#464646"/>
<path d="M152.627 342.309H157.144C159.628 342.309 161.661 344.341 161.661 346.826V351.343C161.661 353.828 159.628 355.86 157.144 355.86H152.627C150.142 355.86 148.109 353.828 148.109 351.343V346.826C148.109 344.341 150.142 342.309 152.627 342.309Z" fill="#464646"/>
<path d="M170.658 342.308H175.175C177.659 342.308 179.692 344.34 179.692 346.825V351.342C179.692 353.827 177.659 355.859 175.175 355.859H170.658C168.173 355.859 166.141 353.827 166.141 351.342V346.825C166.141 344.34 168.173 342.308 170.658 342.308Z" fill="#464646"/>
<path d="M152.541 360.398H157.058C159.542 360.398 161.575 362.431 161.575 364.916V369.433C161.575 371.917 159.542 373.95 157.058 373.95H152.541C150.056 373.95 148.023 371.917 148.023 369.433V364.916C148.023 362.431 150.056 360.398 152.541 360.398Z" fill="#464646"/>
<path d="M170.658 360.398H175.175C177.659 360.398 179.692 362.431 179.692 364.916V369.433C179.692 371.917 177.659 373.95 175.175 373.95H170.658C168.173 373.95 166.141 371.917 166.141 369.433V364.916C166.141 362.431 168.173 360.398 170.658 360.398Z" fill="#464646"/>
<path d="M360.322 215.799H378.391C380.875 215.799 382.908 213.766 382.908 211.281V193.213C382.908 190.728 380.875 188.695 378.391 188.695H360.322C357.837 188.695 355.805 190.728 355.805 193.213V211.281C355.805 213.766 357.837 215.799 360.322 215.799ZM364.839 197.73H373.873V206.764H364.839V197.73Z" fill="#464646"/>
<path d="M355.805 247.398C355.805 249.883 357.837 251.916 360.322 251.916H378.391C380.875 251.916 382.908 249.883 382.908 247.398V229.33C382.908 226.845 380.875 224.812 378.391 224.812H360.322C357.837 224.812 355.805 226.845 355.805 229.33V247.398ZM364.839 233.847H373.873V242.881H364.839V233.847Z" fill="#464646"/>
<path d="M355.805 283.623C355.805 286.108 357.837 288.14 360.322 288.14H378.391C380.875 288.14 382.908 286.108 382.908 283.623V265.554C382.908 263.07 380.875 261.037 378.391 261.037H360.322C357.837 261.037 355.805 263.07 355.805 265.554V283.623ZM364.839 270.072H373.873V279.106H364.839V270.072Z" fill="#464646"/>
<path d="M355.805 319.762C355.805 322.246 357.837 324.279 360.322 324.279H378.391C380.875 324.279 382.908 322.246 382.908 319.762V301.693C382.908 299.209 380.875 297.176 378.391 297.176H360.322C357.837 297.176 355.805 299.209 355.805 301.693V319.762ZM364.839 306.21H373.873V315.245H364.839V306.21Z" fill="#464646"/>
<path d="M355.805 355.859C355.805 358.344 357.837 360.377 360.322 360.377H378.391C380.875 360.377 382.908 358.344 382.908 355.859V337.791C382.908 335.306 380.875 333.273 378.391 333.273H360.322C357.837 333.273 355.805 335.306 355.805 337.791V355.859ZM364.839 342.308H373.873V351.342H364.839V342.308Z" fill="#464646"/>
<path d="M380.43 166.694H360.667C358.974 166.694 357.449 166.13 356.15 165C356.094 164.944 356.094 164.944 356.037 164.888C355.924 164.775 355.812 164.718 355.699 164.605C354.343 163.25 353.609 161.556 353.609 159.636V139.874C353.609 137.954 354.287 136.26 355.699 134.905C357.054 133.549 358.748 132.815 360.667 132.815H380.43C382.35 132.815 384.044 133.493 385.399 134.905C386.754 136.26 387.488 137.954 387.488 139.874V159.636C387.488 161.556 386.811 163.25 385.399 164.605C385.286 164.718 385.173 164.831 385.06 164.888C385.004 164.944 385.004 164.944 384.947 165C383.649 166.13 382.124 166.694 380.43 166.694ZM357.618 163.307C358.522 164.041 359.538 164.436 360.667 164.436H380.43C381.56 164.436 382.576 164.041 383.479 163.307C383.536 163.25 383.592 163.194 383.649 163.137C383.705 163.081 383.762 163.081 383.818 163.024C384.778 162.064 385.23 160.991 385.23 159.636V139.874C385.23 138.518 384.778 137.446 383.818 136.486C382.858 135.526 381.785 135.074 380.43 135.074H360.667C359.312 135.074 358.24 135.526 357.28 136.486C356.32 137.446 355.868 138.518 355.868 139.874V159.636C355.868 160.991 356.32 162.064 357.28 163.024C357.336 163.081 357.393 163.081 357.449 163.137C357.505 163.194 357.562 163.25 357.618 163.307ZM379.753 161.443H377.099C376.421 161.443 375.857 161.217 375.348 160.709C374.897 160.257 374.614 159.636 374.614 158.959V153.482H366.314V158.959C366.314 159.636 366.088 160.201 365.58 160.709C365.128 161.161 364.507 161.443 363.83 161.443H361.176C360.498 161.443 359.933 161.217 359.425 160.709C358.974 160.257 358.691 159.636 358.691 158.959V140.495C358.691 139.817 358.917 139.252 359.425 138.744C359.877 138.293 360.498 138.01 361.176 138.01H363.83C364.507 138.01 365.072 138.236 365.58 138.744C366.032 139.196 366.314 139.817 366.314 140.495V145.972H374.614V140.495C374.614 139.817 374.84 139.252 375.348 138.744C375.8 138.293 376.421 138.01 377.099 138.01H379.753C380.43 138.01 380.995 138.236 381.503 138.744C381.955 139.196 382.237 139.817 382.237 140.495V158.959C382.237 159.636 382.011 160.201 381.503 160.709C380.995 161.161 380.43 161.443 379.753 161.443ZM364.168 151.279H376.986V159.015C376.986 159.072 376.986 159.072 377.042 159.128C377.099 159.185 377.155 159.185 377.155 159.185H379.809C379.866 159.185 379.866 159.185 379.922 159.128C379.979 159.072 379.979 159.015 379.979 159.015V140.551C379.979 140.495 379.979 140.495 379.922 140.438C379.866 140.382 379.866 140.382 379.809 140.382H377.155C377.099 140.382 377.099 140.382 377.042 140.438C376.986 140.495 376.986 140.551 376.986 140.551V148.287H364.168V140.551C364.168 140.495 364.168 140.495 364.112 140.438C364.055 140.382 364.055 140.382 363.999 140.382H361.345C361.289 140.382 361.289 140.382 361.232 140.438C361.176 140.495 361.176 140.551 361.176 140.551V159.015C361.176 159.072 361.176 159.072 361.232 159.128C361.289 159.185 361.345 159.185 361.345 159.185H363.999C364.055 159.185 364.055 159.185 364.112 159.128C364.168 159.072 364.168 159.072 364.168 159.015V151.279Z" fill="#464646"/>
</svg>
