<svg width="135" height="137" viewBox="0 0 135 137" fill="none" xmlns="http://www.w3.org/2000/svg">
<path d="M0 67C0 29.9969 30.2208 0 67.5 0V0C104.779 0 135 29.9969 135 67V67C135 104.003 104.779 134 67.5 134V134C30.2208 134 0 104.003 0 67V67Z" fill="#E2ECF8" fill-opacity="0.3"/>
<path d="M17.3132 135.469V68.0679H42.6604V48.1243H92.8326V68.4594H118.18V135.469H17.3132Z" fill="#F4F4F4"/>
<path d="M75.5507 113.489H59.9404V135.468H75.5507V113.489Z" fill="#C6DBDC"/>
<path d="M95.103 49.7431C95.103 50.213 94.7114 50.6046 94.2416 50.6046H41.224C40.7541 50.6046 40.3625 50.213 40.3625 49.7431V46.5323C40.3625 46.0625 40.7541 45.6709 41.224 45.6709H94.2677C94.7375 45.6709 95.1291 46.0625 95.1291 46.5323V49.7431H95.103Z" fill="#C6DBDC"/>
<path d="M92.832 70.5484H119.615C120.085 70.5484 120.476 70.1569 120.476 69.687V66.4762C120.476 66.0063 120.085 65.6147 119.615 65.6147H92.832V70.5484Z" fill="#C6DBDC"/>
<path d="M42.6599 70.5484H15.8771C15.4072 70.5484 15.0156 70.1569 15.0156 69.687V66.4762C15.0156 66.0063 15.4072 65.6147 15.8771 65.6147H42.6599V70.5484V70.5484Z" fill="#C6DBDC"/>
<path d="M53.6241 29.0942V40.6584H50.9353V35.7769H46.2366V40.6584H43.5479V29.0942H46.2366V33.9235H50.9353V29.0942H53.6241Z" fill="#6F7273"/>
<path d="M66.9632 34.8634C66.9632 35.6987 66.8066 36.4819 66.5194 37.1867C66.2323 37.9176 65.8146 38.5441 65.2925 39.0662C64.7705 39.5883 64.144 40.0059 63.3869 40.3192C62.656 40.6324 61.8207 40.763 60.9331 40.763C60.0456 40.763 59.2103 40.6063 58.4793 40.3192C57.7484 40.0059 57.0958 39.5883 56.5737 39.0662C56.0517 38.5441 55.634 37.9176 55.3468 37.1867C55.0597 36.4558 54.9031 35.6987 54.9031 34.8634C54.9031 34.0281 55.0597 33.245 55.3468 32.5401C55.634 31.8092 56.0517 31.1827 56.5737 30.6606C57.0958 30.1386 57.7223 29.7209 58.4793 29.4076C59.2103 29.0944 60.0456 28.9639 60.9331 28.9639C61.8207 28.9639 62.656 29.1205 63.3869 29.4076C64.1178 29.7209 64.7443 30.1386 65.2925 30.6606C65.8146 31.1827 66.2323 31.8092 66.5194 32.5401C66.8066 33.2711 66.9632 34.0281 66.9632 34.8634ZM64.2223 34.8634C64.2223 34.2891 64.144 33.767 63.9873 33.3233C63.8307 32.8534 63.6219 32.4879 63.3608 32.1486C63.0737 31.8353 62.7343 31.6004 62.3428 31.4177C61.9512 31.261 61.4813 31.1566 60.9592 31.1566C60.4372 31.1566 59.9673 31.2349 59.5757 31.4177C59.1581 31.5743 58.8187 31.8353 58.5577 32.1486C58.2705 32.4618 58.0617 32.8534 57.9312 33.3233C57.7745 33.7931 57.6962 34.2891 57.6962 34.8634C57.6962 35.4377 57.7745 35.9598 57.9312 36.4036C58.0878 36.8734 58.2966 37.2389 58.5577 37.5782C58.8448 37.8915 59.1842 38.1264 59.5757 38.3092C59.9934 38.4658 60.4372 38.5702 60.9592 38.5702C61.4813 38.5702 61.9251 38.4919 62.3428 38.3092C62.7343 38.1525 63.0737 37.8915 63.3608 37.5782C63.648 37.265 63.8568 36.8734 63.9873 36.4036C64.144 35.9598 64.2223 35.4377 64.2223 34.8634Z" fill="#6F7273"/>
<path d="M76.1259 31.2089H72.8629V40.6586H70.1742V31.2089H66.9111V29.0945H76.0998V31.2089H76.1259Z" fill="#6F7273"/>
<path d="M79.6758 31.1567V33.8454H83.3043V35.8294H79.6758V38.5964H84.4268V40.6586H76.9871V29.0945H84.4268V31.1567H79.6758Z" fill="#6F7273"/>
<path d="M92.8324 38.5181V40.6586H85.8625V29.0945H88.5513V38.5181H92.8324Z" fill="#6F7273"/>
<path d="M123.739 136.461H11.7525C11.2043 136.461 10.7605 136.017 10.7605 135.469C10.7605 134.921 11.2043 134.477 11.7525 134.477H123.765C124.314 134.477 124.757 134.921 124.757 135.469C124.757 136.017 124.288 136.461 123.739 136.461Z" fill="#6F7273"/>
<path d="M42.6597 136.461C42.1115 136.461 41.6677 136.017 41.6677 135.469V50.604C41.6677 50.0558 42.1115 49.6121 42.6597 49.6121C43.2079 49.6121 43.6516 50.0558 43.6516 50.604V135.469C43.6255 136.017 43.1818 136.461 42.6597 136.461Z" fill="#6F7273"/>
<path d="M92.8323 136.461C92.2841 136.461 91.8403 136.017 91.8403 135.469V50.604C91.8403 50.0558 92.2841 49.6121 92.8323 49.6121C93.3805 49.6121 93.8243 50.0558 93.8243 50.604V135.469C93.7981 136.017 93.3805 136.461 92.8323 136.461Z" fill="#6F7273"/>
<path d="M118.179 136.461C117.631 136.461 117.187 136.017 117.187 135.469V70.5481C117.187 69.9999 117.631 69.5562 118.179 69.5562C118.727 69.5562 119.171 69.9999 119.171 70.5481V135.469C119.171 136.017 118.727 136.461 118.179 136.461Z" fill="#6F7273"/>
<path d="M17.3128 136.461C16.7646 136.461 16.3208 136.017 16.3208 135.469V70.5481C16.3208 69.9999 16.7646 69.5562 17.3128 69.5562C17.8609 69.5562 18.3047 69.9999 18.3047 70.5481V135.469C18.2786 136.017 17.8348 136.461 17.3128 136.461Z" fill="#6F7273"/>
<path d="M75.5512 136.461C75.003 136.461 74.5592 136.018 74.5592 135.469V114.482H60.9068V135.469C60.9068 136.018 60.463 136.461 59.9148 136.461C59.3666 136.461 58.9229 136.018 58.9229 135.469V113.49C58.9229 112.942 59.3666 112.498 59.9148 112.498H75.5251C76.0733 112.498 76.5171 112.942 76.5171 113.49V135.469C76.5171 136.018 76.0994 136.461 75.5512 136.461Z" fill="#6F7273"/>
<path d="M108.416 85.2705H102.595C102.047 85.2705 101.603 84.8267 101.603 84.2785V78.4573C101.603 77.9091 102.047 77.4653 102.595 77.4653H108.416C108.965 77.4653 109.408 77.9091 109.408 78.4573V84.2785C109.382 84.8267 108.939 85.2705 108.416 85.2705ZM103.587 83.3127H107.451V79.4492H103.587V83.3127Z" fill="#6F7273"/>
<path d="M108.416 102.552H102.595C102.047 102.552 101.603 102.108 101.603 101.56V95.7388C101.603 95.1906 102.047 94.7468 102.595 94.7468H108.416C108.965 94.7468 109.408 95.1906 109.408 95.7388V101.56C109.382 102.108 108.939 102.552 108.416 102.552ZM103.587 100.594H107.451V96.7307H103.587V100.594Z" fill="#6F7273"/>
<path d="M108.416 119.859H102.595C102.047 119.859 101.603 119.415 101.603 118.867V113.046C101.603 112.498 102.047 112.054 102.595 112.054H108.416C108.965 112.054 109.408 112.498 109.408 113.046V118.867C109.382 119.415 108.939 119.859 108.416 119.859ZM103.587 117.901H107.451V114.038H103.587V117.901Z" fill="#6F7273"/>
<path d="M61.0892 67.964H53.1536C52.6054 67.964 52.1616 67.5202 52.1616 66.9721V59.0364C52.1616 58.4882 52.6054 58.0444 53.1536 58.0444H61.0892C61.6374 58.0444 62.0812 58.4882 62.0812 59.0364V66.9721C62.0551 67.5202 61.6374 67.964 61.0892 67.964ZM54.1194 66.0062H60.0973V60.0284H54.1194V66.0062Z" fill="#6F7273"/>
<path d="M61.0892 85.2714H53.1536C52.6054 85.2714 52.1616 84.8276 52.1616 84.2794V76.3438C52.1616 75.7956 52.6054 75.3518 53.1536 75.3518H61.0892C61.6374 75.3518 62.0812 75.7956 62.0812 76.3438V84.2794C62.0551 84.8276 61.6374 85.2714 61.0892 85.2714ZM54.1194 83.3136H60.0973V77.3357H54.1194V83.3136Z" fill="#6F7273"/>
<path d="M61.0892 102.551H53.1536C52.6054 102.551 52.1616 102.108 52.1616 101.559V93.6238C52.1616 93.0756 52.6054 92.6318 53.1536 92.6318H61.0892C61.6374 92.6318 62.0812 93.0756 62.0812 93.6238V101.559C62.0551 102.108 61.6374 102.551 61.0892 102.551ZM54.1194 100.594H60.0973V94.6158H54.1194V100.594Z" fill="#6F7273"/>
<path d="M82.3383 67.964H74.4026C73.8544 67.964 73.4106 67.5202 73.4106 66.9721V59.0364C73.4106 58.4882 73.8544 58.0444 74.4026 58.0444H82.3383C82.8865 58.0444 83.3302 58.4882 83.3302 59.0364V66.9721C83.3041 67.5202 82.8865 67.964 82.3383 67.964ZM75.3685 66.0062H81.3463V60.0284H75.3685V66.0062V66.0062Z" fill="#6F7273"/>
<path d="M82.3383 85.2714H74.4026C73.8544 85.2714 73.4106 84.8276 73.4106 84.2794V76.3438C73.4106 75.7956 73.8544 75.3518 74.4026 75.3518H82.3383C82.8865 75.3518 83.3302 75.7956 83.3302 76.3438V84.2794C83.3041 84.8276 82.8865 85.2714 82.3383 85.2714ZM75.3685 83.3136H81.3463V77.3357H75.3685V83.3136V83.3136Z" fill="#6F7273"/>
<path d="M82.3383 102.551H74.4026C73.8544 102.551 73.4106 102.108 73.4106 101.559V93.6238C73.4106 93.0756 73.8544 92.6318 74.4026 92.6318H82.3383C82.8865 92.6318 83.3302 93.0756 83.3302 93.6238V101.559C83.3041 102.108 82.8865 102.551 82.3383 102.551ZM75.3685 100.594H81.3463V94.6158H75.3685V100.594V100.594Z" fill="#6F7273"/>
<path d="M32.8708 85.2705H27.0757C26.5275 85.2705 26.0837 84.8267 26.0837 84.2785V78.4573C26.0837 77.9091 26.5275 77.4653 27.0757 77.4653H32.8969C33.4451 77.4653 33.8889 77.9091 33.8889 78.4573V84.2785C33.8628 84.8267 33.419 85.2705 32.8708 85.2705ZM28.0416 83.3127H31.905V79.4492H28.0416V83.3127Z" fill="#6F7273"/>
<path d="M32.8708 102.552H27.0757C26.5275 102.552 26.0837 102.108 26.0837 101.56V95.7388C26.0837 95.1906 26.5275 94.7468 27.0757 94.7468H32.8969C33.4451 94.7468 33.8889 95.1906 33.8889 95.7388V101.56C33.8628 102.108 33.419 102.552 32.8708 102.552ZM28.0416 100.594H31.905V96.7307H28.0416V100.594Z" fill="#6F7273"/>
<path d="M32.8708 119.859H27.0757C26.5275 119.859 26.0837 119.415 26.0837 118.867V113.046C26.0837 112.498 26.5275 112.054 27.0757 112.054H32.8969C33.4451 112.054 33.8889 112.498 33.8889 113.046V118.867C33.8628 119.415 33.419 119.859 32.8708 119.859ZM28.0416 117.901H31.905V114.038H28.0416V117.901Z" fill="#6F7273"/>
<path d="M94.2682 51.5702H41.2245C40.2064 51.5702 39.3972 50.761 39.3972 49.7429V46.5321C39.3972 45.5141 40.2064 44.7048 41.2245 44.7048H94.2682C95.2862 44.7048 96.0955 45.5141 96.0955 46.5321V49.7429C96.0955 50.761 95.2862 51.5702 94.2682 51.5702ZM41.355 49.6124H94.1377V46.6626H41.355V49.6124Z" fill="#6F7273"/>
<path d="M119.589 71.5136H92.832C92.2839 71.5136 91.8401 71.0698 91.8401 70.5216C91.8401 69.9734 92.2839 69.5296 92.832 69.5296H119.484V66.5799H92.832C92.2839 66.5799 91.8401 66.1361 91.8401 65.5879C91.8401 65.0397 92.2839 64.5959 92.832 64.5959H119.615C120.633 64.5959 121.442 65.4052 121.442 66.4232V69.6863C121.416 70.7043 120.607 71.5136 119.589 71.5136Z" fill="#6F7273"/>
<path d="M42.6595 71.5141H15.8766C14.8585 71.5141 14.0493 70.7049 14.0493 69.6868V66.476C14.0493 65.4579 14.8585 64.6487 15.8766 64.6487H42.6595C43.2077 64.6487 43.6514 65.0925 43.6514 65.6406C43.6514 66.1888 43.2077 66.6326 42.6595 66.6326H16.0071V69.5824H42.6595C43.2077 69.5824 43.6514 70.0261 43.6514 70.5743C43.6253 71.0703 43.1816 71.5141 42.6595 71.5141Z" fill="#6F7273"/>
</svg>
