<svg width="444" height="543" viewBox="0 0 444 543" fill="none" xmlns="http://www.w3.org/2000/svg">
<path d="M271.071 454.948H173.233C167.833 454.948 163.45 459.321 163.45 464.731V533.217C163.45 538.628 167.833 543.001 173.233 543.001H271.071C276.481 543.001 280.854 538.628 280.854 533.217V464.731C280.854 459.321 276.481 454.948 271.071 454.948ZM261.286 523.434H183.016V474.515H261.286V523.434Z" fill="black"/>
<path d="M231.937 464.727H212.369V533.213H231.937V464.727Z" fill="black"/>
<path d="M319.988 73.3784H124.314C118.913 73.3784 114.53 77.7616 114.53 83.1618V533.215C114.53 538.625 118.913 542.998 124.314 542.998H319.989C325.4 542.998 329.773 538.625 329.773 533.215V83.1618C329.773 77.7616 325.399 73.3784 319.988 73.3784ZM310.205 523.431H134.097V92.9463H310.205V523.431V523.431Z" fill="black"/>
<path d="M124.315 112.511H46.0446C40.6444 112.511 36.2612 116.894 36.2612 122.294V533.213C36.2612 538.623 40.6444 542.996 46.0446 542.996H124.315C129.715 542.996 134.099 538.623 134.099 533.213V122.294C134.099 116.894 129.715 112.511 124.315 112.511ZM114.531 523.429H55.828V132.079H114.531V523.429Z" fill="black"/>
<path d="M46.0425 112.511H16.6912V132.079H46.0425V112.511Z" fill="black"/>
<path d="M349.348 73.3784H94.97V92.9463H349.348V73.3784Z" fill="black"/>
<path d="M173.229 406.028H153.661V435.38H173.229V406.028Z" fill="black"/>
<path d="M212.377 406.028H192.809V435.38H212.377V406.028Z" fill="black"/>
<path d="M251.508 406.028H231.94V435.38H251.508V406.028Z" fill="black"/>
<path d="M290.638 406.028H271.07V435.38H290.638V406.028Z" fill="black"/>
<path d="M173.229 357.109H153.661V386.46H173.229V357.109Z" fill="black"/>
<path d="M212.377 357.109H192.809V386.46H212.377V357.109Z" fill="black"/>
<path d="M251.508 357.109H231.94V386.46H251.508V357.109Z" fill="black"/>
<path d="M290.638 357.109H271.07V386.46H290.638V357.109Z" fill="black"/>
<path d="M173.229 308.189H153.661V337.541H173.229V308.189Z" fill="black"/>
<path d="M212.377 308.189H192.809V337.541H212.377V308.189Z" fill="black"/>
<path d="M251.508 308.189H231.94V337.541H251.508V308.189Z" fill="black"/>
<path d="M290.638 308.189H271.07V337.541H290.638V308.189Z" fill="black"/>
<path d="M173.229 259.27H153.661V288.621H173.229V259.27Z" fill="black"/>
<path d="M212.377 259.27H192.809V288.621H212.377V259.27Z" fill="black"/>
<path d="M251.508 259.27H231.94V288.621H251.508V259.27Z" fill="black"/>
<path d="M290.638 259.27H271.07V288.621H290.638V259.27Z" fill="black"/>
<path d="M173.229 210.35H153.661V239.701H173.229V210.35Z" fill="black"/>
<path d="M212.377 210.35H192.809V239.701H212.377V210.35Z" fill="black"/>
<path d="M251.508 210.35H231.94V239.701H251.508V210.35Z" fill="black"/>
<path d="M290.638 210.35H271.07V239.701H290.638V210.35Z" fill="black"/>
<path d="M173.229 161.43H153.661V190.782H173.229V161.43Z" fill="black"/>
<path d="M212.377 161.43H192.809V190.782H212.377V161.43Z" fill="black"/>
<path d="M251.508 161.43H231.94V190.782H251.508V161.43Z" fill="black"/>
<path d="M290.638 161.43H271.07V190.782H290.638V161.43Z" fill="black"/>
<path d="M173.229 112.511H153.661V141.862H173.229V112.511Z" fill="black"/>
<path d="M212.377 112.511H192.809V141.862H212.377V112.511Z" fill="black"/>
<path d="M251.508 112.511H231.94V141.862H251.508V112.511Z" fill="black"/>
<path d="M290.638 112.511H271.07V141.862H290.638V112.511Z" fill="black"/>
<path d="M94.9598 454.948H75.3918V484.299H94.9598V454.948Z" fill="black"/>
<path d="M94.9598 406.028H75.3918V435.38H94.9598V406.028Z" fill="black"/>
<path d="M94.9598 357.109H75.3918V386.46H94.9598V357.109Z" fill="black"/>
<path d="M94.9598 308.189H75.3918V337.541H94.9598V308.189Z" fill="black"/>
<path d="M94.9598 259.27H75.3918V288.621H94.9598V259.27Z" fill="black"/>
<path d="M94.9598 210.35H75.3918V239.701H94.9598V210.35Z" fill="black"/>
<path d="M94.9598 161.43H75.3918V190.782H94.9598V161.43Z" fill="black"/>
<path d="M398.255 112.511H319.984C314.574 112.511 310.201 116.894 310.201 122.294V533.213C310.201 538.623 314.574 542.996 319.984 542.996H398.255C403.665 542.996 408.038 538.623 408.038 533.213V122.294C408.038 116.894 403.665 112.511 398.255 112.511ZM388.471 523.429H329.769V132.079H388.471V523.429Z" fill="black"/>
<path d="M427.61 112.511H398.259V132.079H427.61V112.511Z" fill="black"/>
<path d="M368.907 454.948H349.339V484.299H368.907V454.948Z" fill="black"/>
<path d="M368.907 406.028H349.339V435.38H368.907V406.028Z" fill="black"/>
<path d="M368.907 357.109H349.339V386.46H368.907V357.109Z" fill="black"/>
<path d="M368.907 308.189H349.339V337.541H368.907V308.189Z" fill="black"/>
<path d="M368.907 259.27H349.339V288.621H368.907V259.27Z" fill="black"/>
<path d="M368.907 210.35H349.339V239.701H368.907V210.35Z" fill="black"/>
<path d="M368.907 161.43H349.339V190.782H368.907V161.43Z" fill="black"/>
<path d="M46.0443 523.428H0.87085V542.996H46.0443V523.428Z" fill="black"/>
<path d="M439.993 523.428H398.259V542.996H439.993V523.428Z" fill="black"/>
<path d="M165.158 60H155.636V40.1953H137.07V60H127.548V13.7891H137.07V32.5146H155.636V13.7891H165.158V60ZM211.464 37.9419C211.464 42.491 210.66 46.4795 209.052 49.9072C207.444 53.335 205.138 55.9798 202.133 57.8418C199.15 59.7038 195.722 60.6348 191.85 60.6348C188.02 60.6348 184.603 59.7144 181.598 57.8735C178.594 56.0327 176.266 53.409 174.616 50.0024C172.966 46.5747 172.13 42.6392 172.109 38.1958V35.9106C172.109 31.3615 172.923 27.3625 174.552 23.9136C176.203 20.4435 178.52 17.7881 181.503 15.9473C184.508 14.0853 187.935 13.1543 191.786 13.1543C195.637 13.1543 199.054 14.0853 202.038 15.9473C205.042 17.7881 207.359 20.4435 208.989 23.9136C210.639 27.3625 211.464 31.3509 211.464 35.8789V37.9419ZM201.816 35.8472C201.816 31.0018 200.948 27.3201 199.213 24.8022C197.478 22.2843 195.003 21.0254 191.786 21.0254C188.591 21.0254 186.126 22.2738 184.391 24.7705C182.656 27.2461 181.778 30.8854 181.757 35.6885V37.9419C181.757 42.6603 182.625 46.3208 184.36 48.9233C186.095 51.5259 188.591 52.8271 191.85 52.8271C195.045 52.8271 197.499 51.5788 199.213 49.082C200.927 46.5641 201.795 42.9036 201.816 38.1006V35.8472ZM250.439 21.5015H236.283V60H226.762V21.5015H212.797V13.7891H250.439V21.5015ZM283.7 39.9731H265.419V52.3511H286.874V60H255.898V13.7891H286.811V21.5015H265.419V32.5146H283.7V39.9731ZM301.982 52.3511H322.199V60H292.46V13.7891H301.982V52.3511Z" fill="black"/>
</svg>
