<svg width="245" height="246" viewBox="0 0 245 246" fill="none" xmlns="http://www.w3.org/2000/svg">
<path d="M216.456 114.813V218.827L183.767 212.777L169.356 195.489L108.636 127.986L160.188 91.3562C186.012 125.442 186.826 117.133 186.826 117.133C186.826 117.133 199.582 98.0887 215.947 114.453L216.456 114.813Z" fill="#CCCCCC"/>
<path d="M91.678 106.957L198.874 244.922C198.249 244.983 197.619 245.017 196.981 245.017H21.729L91.678 106.957Z" fill="#518EF8"/>
<path d="M160.183 91.3488L0.749512 225.535V48.7837C0.749512 38.0255 9.47289 29.3088 20.2244 29.3088H136.489C131.497 37.8898 150.008 43.3975 150.008 54.0405C150.008 64.7519 155.13 82.7272 160.183 91.3488Z" fill="#28B446"/>
<path d="M216.458 218.823V225.538C216.458 235.652 208.745 243.968 198.876 244.918L109.174 156.397L130.887 134.392L181.002 183.842L183.769 186.575L216.458 218.823Z" fill="#F2F2F2"/>
<path d="M154.662 110.293L130.879 134.394L109.166 156.399L21.7235 245.016H20.2244C9.47289 245.016 0.749512 236.293 0.749512 225.541L136.591 87.8815C139.135 92.2365 156.629 87.827 160.184 91.3543L166.716 99.7517C169.904 103.151 151.921 106.685 154.662 110.293Z" fill="#FFD837"/>
<path d="M51.6239 109.189C34.5117 109.189 20.5903 95.2677 20.5903 78.1555C20.5903 61.0433 34.5117 47.1219 51.6239 47.1219C59.9076 47.1219 67.6986 50.3515 73.5638 56.2162L66.3682 63.4103C62.4266 59.4677 57.1899 57.2967 51.6239 57.2967C40.1221 57.2967 30.7655 66.6537 30.7655 78.1551C30.7655 89.6564 40.1226 99.0134 51.6239 99.0134C61.3709 99.0134 69.5787 92.2934 71.8548 83.2422H51.6239V73.0675H82.6575V78.1551C82.657 95.2678 68.7361 109.189 51.6239 109.189Z" fill="white"/>
<path d="M136.488 29.3146C146.561 11.9902 165.33 0.336426 186.82 0.336426C218.952 0.336426 245 26.3842 245 58.5165C245 66.5751 243.358 74.2466 240.4 81.2267C237.436 88.2067 233.149 94.4881 227.858 99.7515C223.449 104.439 219.495 109.391 215.94 114.451C192.653 147.628 186.82 185.506 186.82 185.506C186.82 185.506 180.484 144.379 154.66 110.293C151.92 106.684 148.962 103.15 145.774 99.7515H145.781C142.226 96.2242 139.134 92.2358 136.59 87.8808C131.536 79.2592 128.64 69.2269 128.64 58.516C128.64 47.8734 131.496 37.8951 136.488 29.3146Z" fill="#F14336"/>
<path d="M186.828 27.5485C203.927 27.5485 217.786 41.4153 217.786 58.5147C217.786 75.614 203.927 89.4727 186.828 89.4727C169.728 89.4727 155.861 75.614 155.861 58.5147C155.861 41.4153 169.729 27.5485 186.828 27.5485Z" fill="#7E2D25"/>
</svg>
