<?xml version="1.0" encoding="utf-8"?>
<!-- Generator: Adobe Illustrator 24.1.1, SVG Export Plug-In . SVG Version: 6.00 Build 0)  -->
<!DOCTYPE svg PUBLIC "-//W3C//DTD SVG 1.1//EN" "http://www.w3.org/Graphics/SVG/1.1/DTD/svg11.dtd" [
	<!ENTITY ns_extend "http://ns.adobe.com/Extensibility/1.0/">
	<!ENTITY ns_ai "http://ns.adobe.com/AdobeIllustrator/10.0/">
	<!ENTITY ns_graphs "http://ns.adobe.com/Graphs/1.0/">
	<!ENTITY ns_vars "http://ns.adobe.com/Variables/1.0/">
	<!ENTITY ns_imrep "http://ns.adobe.com/ImageReplacement/1.0/">
	<!ENTITY ns_sfw "http://ns.adobe.com/SaveForWeb/1.0/">
	<!ENTITY ns_custom "http://ns.adobe.com/GenericCustomNamespace/1.0/">
	<!ENTITY ns_adobe_xpath "http://ns.adobe.com/XPath/1.0/">
]>
<svg version="1.1" id="图层_1" xmlns:x="&ns_extend;" xmlns:i="&ns_ai;" xmlns:graph="&ns_graphs;"
	 xmlns="http://www.w3.org/2000/svg" xmlns:xlink="http://www.w3.org/1999/xlink" x="0px" y="0px" viewBox="0 0 976.1 243.2"
	 enable-background="new 0 0 976.1 243.2" xml:space="preserve">
<metadata>
	<sfw  xmlns="&ns_sfw;">
		<slices></slices>
		<sliceSourceBounds  bottomLeftOrigin="true" height="236.702" width="870.163" x="52.969" y="3.249"></sliceSourceBounds>
	</sfw>
</metadata>
<g>
	<path fill="#C02555" d="M302.633,117.092c-69.884,18.597-69.884,47.905-58.049,47.905c3.945,0,11.272-4.509,23.107-14.09
		C279.526,140.762,290.798,131.744,302.633,117.092L302.633,117.092z M454.235,89.476c0-5.072,2.254-9.581,6.763-14.089
		c4.508-4.509,9.018-6.763,13.526-6.763c2.255,0,4.508,0.563,5.636,1.691c1.127,1.128,1.691,3.381,1.691,5.636
		c0,4.508-2.254,9.017-6.762,13.526c-4.509,5.072-8.455,7.327-12.962,7.327c-2.255,0-4.51-0.564-6.2-2.255
		C454.798,93.421,454.235,91.731,454.235,89.476z M515.665,144.143l9.016,5.074c10.709-7.89,21.98-14.654,26.489-18.599
		c17.471-15.78-3.945-10.145-11.271-5.071C533.136,130.617,524.119,136.253,515.665,144.143L515.665,144.143z M133.561,115.401
		l-10.708,11.835c-2.819,3.381-5.072,6.2-6.764,9.581c-1.691,2.816-2.818,5.635-2.818,7.325c0,3.381,2.255,6.2,7.327,8.455
		c5.072,2.817,10.708,3.945,17.47,3.945c11.835,0,23.106-2.819,34.378-8.454c11.271-5.636,16.908-10.707,16.908-15.78
		c0-3.381-5.072-6.762-14.653-9.581C165.12,119.346,151.594,117.092,133.561,115.401L133.561,115.401z M289.671,148.088
		c-13.526,10.709-36.633,30.435-46.776,33.251c-9.018-1.127-16.908-13.526-20.289-22.542
		C193.3,179.085,120.034,194.865,97.491,176.83c-7.889-6.198-12.961-11.271-12.961-18.597c0-4.509,1.127-8.455,2.818-12.962
		c1.69-4.509,5.072-9.582,9.017-14.654l12.962-16.343c-34.942-3.382-15.216-19.725,18.598-19.725
		c11.835-11.836,23.67-23.671,31.561-28.743c7.89-5.071,14.653-7.326,20.853-7.326c0.563,0,1.128,0,1.691,0.563
		c0.563,0.564,0.563,1.127,0.563,1.691c0,0.563,0,1.126-0.563,2.254c-0.563,1.127-1.127,1.691-2.254,2.817l-20.852,23.108
		c19.724-2.818,36.631-7.327,49.031-12.963c12.398-5.636,17.471-11.836,17.471-17.47c0-3.382-2.255-6.2-6.763-7.89
		c-4.509-2.255-10.145-2.818-17.472-2.818c-10.143,0-21.978,1.128-34.941,3.945c-12.962,2.254-26.488,6.199-41.704,11.271
		c5.072,1.691,5.635,4.509,1.127,8.454l-30.433,7.89c-3.382,0.563-22.543,10.144-18.598-3.945
		c3.381-12.399,17.47-29.306,24.797-33.815c3.382-2.255,7.89-4.508,14.09-6.199c30.433-9.017,89.045-23.67,121.169-5.072
		c19.162,16.344,3.382,45.086-17.47,52.412c-18.599,6.2-41.141,14.09-72.702,17.471l-6.763,6.199
		c17.471,3.381,101.444,7.326,68.193,46.214c-1.691,1.691-3.382,3.945-5.072,5.636c6.199-2.819,12.962-6.764,19.161-13.526
		c1.128-2.255,2.255-4.509,3.945-6.764c4.508-6.199,10.145-12.397,18.035-17.47c17.471-12.399,38.886-22.542,60.866-25.361
		c2.818-0.563,10.144,0.564,12.962,3.382c2.255,2.818,3.382,3.945,4.509,6.2c0.563,0.563,0,2.253-0.564,2.817
		c-1.69,1.127-5.636,3.381-7.89,4.508c9.581,5.073,10.145,10.708-4.508,27.052c-23.67,32.123,4.508,27.616,28.179,3.945v-0.564
		c6.199-6.199,11.835-11.835,16.343-16.906c4.51-5.074,6.2-7.327,10.145-12.4c-6.763-1.127-18.034,2.255-20.853,0
		c-1.126-1.691,3.382-8.453,7.327-12.962c10.145-13.526,17.471-14.089,33.25-14.653c0.563-1.128,2.818-2.818,3.381-4.508
		c8.454-19.162,45.086-24.798,19.163,3.945c3.945,0,11.271,2.254,13.525,1.127c0.564-0.564-1.691,8.453-3.381,10.708
		c-3.381,6.199-9.581,14.089-13.526,15.78c-1.691,1.126-9.017,1.691-11.836,1.691c-2.254,0-3.945-0.564-5.071-0.564
		c-1.127,0-2.255,0.564-3.382,0.564c-6.763,7.889-11.835,15.779-15.78,24.233c-3.945,8.454-6.199,16.345-6.199,22.545
		c0,2.252,0.563,3.945,1.691,5.071c1.127,1.127,2.817,1.691,5.072,1.691c3.381,0,8.453-2.254,15.78-6.762
		c6.199-3.945,14.653-10.145,24.797-18.599c1.128-2.255,2.255-5.071,3.383-7.889c10.707-29.306,63.12-49.031,38.886-11.836
		c-5.072,7.89-13.525,14.654-23.67,22.544c-0.563,1.691-0.563,2.817-1.127,4.507c0,1.128,0,2.255-0.563,3.383
		c-2.818,7.891,2.818,12.398,11.836,10.707c3.945-0.564,9.581-2.255,16.343-6.761c5.636-3.383,11.272-7.328,17.471-12.964
		c1.691-6.2,4.509-12.961,7.89-19.725c6.2-11.834,16.906-24.796,32.125-41.704c14.088-15.78,55.793-52.412,66.502-51.849
		c1.691,0,2.816,0.564,3.945,1.691c1.126,1.127,1.691,2.254,1.691,3.945c0,5.072-11.836,18.598-28.18,38.323
		c-16.343,19.726-42.831,42.269-69.882,69.884v7.89c14.652-14.654,72.702-61.43,80.027-55.23
		c32.687,28.741-26.487,51.285-34.377,57.485l-2.255,1.691c12.398,24.232,36.068,1.691,57.484-16.345l2.254,9.019
		c-14.09,14.088-25.36,23.669-34.377,29.306c-12.4,7.89-24.235,12.961-35.505,2.252c-4.509-4.507-12.4-12.397-17.471-23.106
		c-7.326,3.383-7.326,5.636-10.144,10.709c-9.017,18.035-20.853,15.78-20.853-11.835c-7.891,8.454-14.653,14.652-20.851,19.161
		c-7.891,5.636-15.781,8.454-21.98,8.454c-6.763,0-12.398-2.819-16.343-7.89c-3.945-5.073-5.636-12.4-5.636-21.416
		c-10.145,9.581-19.725,16.907-28.18,22.543c-10.708,6.763-19.724,10.709-26.487,10.709c-5.072,0-8.454-1.128-11.272-3.945
		c-2.818-2.255-3.945-6.199-3.945-10.709c0-3.945,0.564-7.89,2.254-12.397c1.691-4.509,3.946-9.583,6.763-14.654
		C334.194,164.433,254.166,225.861,289.671,148.088L289.671,148.088z"/>
	<rect x="52.969" y="3.249" fill="none" width="870.163" height="236.702"/>
	<path fill="#FFDE00" d="M193.3,4.94c-12.963,12.399-58.049,78.336-99.754,130.187l-6.198,7.325l-1.128,6.2
		c0,1.127-52.976,3.381-23.67,69.319c-3.381,5.638-6.2,5.638-6.763,20.29c1.128,0.564,2.255,0.564,3.382,0
		c0.563-9.017,2.818-15.78,14.089-24.235c10.145-8.452,40.014-30.996,47.341-58.612c0.563-2.816,1.691-5.071,2.817-7.89
		l92.426-127.93C215.842,19.594,204.008-0.132,193.3,4.94z"/>
	<rect x="52.969" y="3.249" fill="none" width="870.163" height="236.702"/>
	<path fill="#E7B000" d="M202.88,15.084c-12.399,15.217-46.776,67.066-88.482,118.914l-7.326,0.564
		c11.835,6.199,9.58,10.144,13.525,20.289c0.563,1.127,1.691-5.636,2.817-7.328l92.426-127.93c0,0-4.508-7.89-10.708-12.4
		C202.316,4.94,208.516,13.957,202.88,15.084L202.88,15.084z"/>
	<path fill="#743C12" d="M210.206,20.72c-12.398,15.217-39.45,60.303-81.155,112.716c-0.563-2.255-1.127-4.509-0.563-7.328
		c-7.327,5.074-12.4,16.908-7.89,29.306c0.563-2.817,2.817-6.198,2.817-7.89l92.426-127.93c-0.563-0.564-1.126-5.637-5.636-9.018
		C207.388,8.321,213.588,17.902,210.206,20.72z"/>
	<path fill="#743C12" d="M94.11,167.813c-2.255,15.216-12.398,20.852-14.653,23.106c-0.564,0.564,0,10.145-1.127,19.161
		c9.017-9.581,55.794-51.284,23.67-67.629C116.089,153.724,98.055,166.687,94.11,167.813z"/>
	<rect x="52.969" y="3.249" fill="none" width="870.163" height="236.702"/>
	<path fill="#583319" d="M82.275,183.593c19.725-19.161,0.563-35.506-12.962-23.106C49.024,179.085,66.494,199.374,82.275,183.593z"
		/>
	<rect x="52.969" y="3.249" fill="none" width="870.163" height="236.702"/>
	<path fill="#C02555" d="M723.625,99.622c-30.434,7.89-47.341,18.598-58.612,23.67c-27.051,13.526-29.87,59.176,12.397,19.161
		C690.374,131.182,708.409,115.964,723.625,99.622z M817.178,87.222c-0.564-5.071,2.255-9.581,6.764-14.089
		c4.507-5.072,20.288-10.707,21.416,1.128c0.562,3.945-2.255,8.453-6.2,13.526c-4.509,5.072-8.454,7.326-12.964,7.326
		c-2.253,0-4.507-0.563-6.2-2.254C817.743,91.167,817.178,89.476,817.178,87.222L817.178,87.222z M706.717,139.071
		c-4.507,3.945-50.158,41.703-57.483,40.577c-15.216-1.69-31.561-31.56-23.67-46.212c2.816-5.073,6.2-12.399,12.399-18.599
		c19.723-20.288,55.228-36.631,86.225-43.395c3.383-0.564,6.763-0.564,11.273-0.564c7.89,2.255,15.216,8.454,14.652,14.653
		c0,1.127-0.562,1.69-1.127,2.255c-0.564,0.563-2.255,1.128-3.945,2.255l-5.073,2.818c5.637,1.691,7.89,5.072,8.454,9.581
		c1.128,7.89-8.454,17.47-15.78,26.488c-14.09,16.906-12.397,32.687,8.455,22.542c13.525-6.198,33.251-25.922,46.212-35.504
		c17.471-18.598,47.341-23.67,29.87,4.508c-5.071,7.89-14.654,14.654-24.797,22.544c0,0.562-2.255,4.507-2.255,5.072
		c0,9.019,4.509,14.09,12.961,12.964c7.891-1.128,14.654-5.074,20.29-10.145c6.2-5.636,11.836-11.836,17.471-19.163
		c-1.691,0-4.509,0-5.071-1.691c-6.2-9.581,6.198-24.233,9.017-27.051c0.564-0.563,18.599-18.034,23.106-9.581
		c1.128,1.691-0.564,6.763-1.69,8.455c7.326-0.564,13.526-2.255,21.416-2.819c3.381-0.563,12.964-2.254,14.09-0.563
		c9.016,9.581,8.454,18.035-1.126,26.488c-9.018,7.89-14.654,15.216-17.472,20.289c-5.636,9.581-1.127,16.907,10.145,12.962
		c6.764-2.255,15.78-10.145,26.489-19.726l2.255,7.891c-13.528,14.654-26.489,25.361-35.506,31.561
		c-23.671,15.215-35.506-7.891-25.925-27.616c3.38-7.326,9.581-15.78,19.161-24.796c-5.636,1.126-10.707,2.252-14.652,2.816
		c-3.945,0.564-7.328,1.128-10.709,1.691c-3.381,5.073-5.072,8.454-9.017,12.963c-11.835,12.962-23.109,25.923-31.56,32.123
		c-7.89,5.635-16.345,9.58-23.106,9.58c-17.473,0.564-21.98-18.033-21.415-30.996c0-1.691,0.562-3.381,0.562-4.507
		c-20.288,19.725-54.103,40.577-59.738,40.013C681.92,185.284,703.336,149.778,706.717,139.071L706.717,139.071z"/>
	<path fill="#C02555" d="M196.117,47.772c-9.017,0.563-18.598,1.691-28.743,3.381c-3.945,0.564-7.89,1.691-11.835,2.255
		c-9.581,2.254-19.161,5.072-29.869,8.453c5.072,1.691,5.636,4.509,1.128,8.454l-30.433,7.891
		c-3.382,0.563-22.543,10.144-18.598-3.945c3.381-12.399,17.471-29.306,24.797-33.815c3.382-2.254,7.89-4.508,14.09-6.199
		c15.78-4.509,38.886-10.708,61.994-12.962c11.834-1.127,23.669-1.127,34.942,0.563L196.117,47.772z"/>
</g>
</svg>
