<svg width="20" height="20" viewBox="0 0 20 20" fill="none" xmlns="http://www.w3.org/2000/svg">
<path d="M16.668 16.6661H3.33464C2.4434 16.6928 1.69832 15.9939 1.66797 15.1028V4.8953C1.69831 4.0043 2.44354 3.30565 3.33464 3.3328H16.668C17.5591 3.30565 18.3043 4.0043 18.3346 4.8953V15.1036C18.3038 15.9944 17.5589 16.6928 16.668 16.6661ZM3.33464 4.99946V14.9903L16.668 14.9995V5.00863L3.33464 4.99946ZM11.193 13.3328H5.0013C5.06257 12.6428 5.38909 12.0036 5.91214 11.5495C6.49449 10.9717 7.27698 10.6405 8.09714 10.6245C8.91729 10.6405 9.69978 10.9717 10.2821 11.5495C10.805 12.0037 11.1315 12.6429 11.193 13.3328ZM15.0013 12.4995H12.5013V10.8328H15.0013V12.4995ZM8.09714 9.99946C7.65053 10.015 7.21753 9.84438 6.90154 9.52839C6.58556 9.2124 6.41495 8.7794 6.43047 8.3328C6.4152 7.88626 6.58589 7.45341 6.90182 7.13748C7.21775 6.82155 7.6506 6.65086 8.09714 6.66613C8.54367 6.65086 8.97652 6.82155 9.29245 7.13748C9.60839 7.45341 9.77907 7.88626 9.7638 8.3328C9.77932 8.7794 9.60872 9.2124 9.29273 9.52839C8.97674 9.84438 8.54374 10.015 8.09714 9.99946ZM15.0013 9.16613H11.668V7.49946H15.0013V9.16613Z" fill="#209FAE"/>
</svg>
