<svg width="16" height="16" viewBox="0 0 16 16" fill="none" xmlns="http://www.w3.org/2000/svg">
<path fill-rule="evenodd" clip-rule="evenodd" d="M11.2 0H4.8C2.14903 0 0 2.14903 0 4.8V11.2C0 13.851 2.14903 16 4.8 16H11.2C13.851 16 16 13.851 16 11.2V4.8C16 2.14903 13.851 0 11.2 0ZM1.6001 4.80156C1.6001 3.03425 3.03279 1.60156 4.8001 1.60156H11.2001C12.9674 1.60156 14.4001 3.03425 14.4001 4.80156V11.2016C14.4001 12.9689 12.9674 14.4016 11.2001 14.4016H4.8001C3.03279 14.4016 1.6001 12.9689 1.6001 11.2016V4.80156ZM8 12C5.79086 12 4 10.2091 4 8C4 5.79086 5.79086 4 8 4C10.2091 4 12 5.79086 12 8C12 10.2091 10.2091 12 8 12ZM8.0001 10.4016C9.32558 10.4016 10.4001 9.32705 10.4001 8.00156C10.4001 6.67608 9.32558 5.60156 8.0001 5.60156C6.67461 5.60156 5.6001 6.67608 5.6001 8.00156C5.6001 9.32705 6.67461 10.4016 8.0001 10.4016ZM12.8 4C12.8 4.44183 12.4418 4.8 12 4.8C11.5582 4.8 11.2 4.44183 11.2 4C11.2 3.55817 11.5582 3.2 12 3.2C12.4418 3.2 12.8 3.55817 12.8 4Z" fill="#464646"/>
</svg>
