<svg width="115" height="175" viewBox="0 0 115 175" fill="none" xmlns="http://www.w3.org/2000/svg">
<rect width="115" height="175" rx="5" fill="#22BA64"/>
<g opacity="0.45">
<path d="M45.2119 25C28.5234 25 15 38.9174 15 56.0922C15 73.2669 45.2119 108.343 45.2119 108.343C45.2119 108.343 75.4238 73.2669 75.4238 56.0922C75.4238 38.9174 61.9004 25 45.2119 25ZM45.14 64.5315C39.4572 64.5315 34.8535 59.7936 34.8535 53.9453C34.8535 48.097 39.4572 43.3592 45.14 43.3592C50.8227 43.3592 55.4264 48.097 55.4264 53.9453C55.4264 59.7936 50.8227 64.5315 45.14 64.5315Z" fill="#209FAE"/>
<circle cx="45.2118" cy="53.1307" r="15.6268" fill="white"/>
</g>
<g opacity="0.1">
<path opacity="0.1" d="M88.6547 69.858C99.2976 81.6412 97.8439 106.795 91.2687 110.703C80.6658 117.011 83.2599 113.677 85.127 111.443C87.8678 108.155 96.1567 89.0499 80.7458 69.1178C78.4652 66.1637 88.6547 69.858 88.6547 69.858Z" fill="black"/>
<path opacity="0.1" d="M76.3503 73.0866C79.9446 70.3392 87.3266 69.7257 88.6603 69.859C89.994 69.9924 83.5923 67.0116 79.8446 67.8185C77.0905 68.4053 70.5087 69.719 70.362 71.2461C70.2153 72.7665 76.3503 73.0866 76.3503 73.0866Z" fill="black"/>
<path opacity="0.1" d="M75.9842 109.238C81.4857 112.906 90.008 111.145 91.2684 110.705C92.5287 110.265 86.2203 114.4 83.4729 115.013C80.7255 115.627 73.6569 114.093 73.1634 112.639C72.6699 111.185 75.9842 109.238 75.9842 109.238Z" fill="black"/>
<path opacity="0.1" d="M56.2126 67.7012C51.9114 69.5017 48.6638 80.5381 47.1034 86.4397C45.543 92.3413 41.7553 112.027 49.3774 116.375C56.9928 120.722 75.9646 117.908 77.8052 114.587C79.639 111.266 79.8657 108.412 80.2725 102.424C80.6793 96.4358 80.9393 69.9085 75.4778 67.7079C70.003 65.4939 60.1136 66.0674 56.2126 67.7012Z" fill="black"/>
<path opacity="0.1" d="M59.8265 68.0959C59.7665 68.0959 59.7065 68.0893 59.6465 68.0826C59.0197 67.9826 58.5862 67.3957 58.6862 66.7689C58.7129 66.6022 58.7196 66.2821 58.7329 65.9487C58.7929 63.8348 58.9663 58.2266 66.0349 58.2266C73.5436 58.2266 73.7704 64.1282 73.8571 66.3488C73.8637 66.5422 73.8704 66.7156 73.8837 66.8689C73.9237 67.5024 73.4436 68.0493 72.8101 68.0959C72.1699 68.1293 71.6298 67.6558 71.5831 67.0223C71.5698 66.8489 71.5631 66.6555 71.5564 66.4355C71.4431 63.448 70.9229 60.5272 66.0349 60.5272C61.567 60.5272 61.1202 63.1212 61.0335 66.0154C61.0202 66.4421 61.0069 66.8156 60.9602 67.1223C60.8735 67.6892 60.3867 68.0959 59.8265 68.0959Z" fill="black"/>
<path opacity="0.1" d="M72.6765 75.4439C70.6293 70.3291 64.8811 71.216 60.7933 71.216H60.2798C56.192 71.216 50.4371 70.3225 48.3966 75.4439C46.3493 80.5586 46.6094 83.066 49.2901 84.9798C51.7375 86.7336 58.1126 87.1604 60.2798 87.2204V87.2338C60.3465 87.2338 60.4399 87.2338 60.5332 87.2338C60.6266 87.2338 60.7199 87.2338 60.7866 87.2338V87.2204C62.9539 87.1604 69.329 86.727 71.7763 84.9798C74.4637 83.066 74.7238 80.5586 72.6765 75.4439Z" fill="black"/>
<path opacity="0.1" d="M71.3631 98.6107C69.1691 93.0625 62.9941 94.0294 58.6062 94.0294H58.0594C53.6716 94.0294 47.4965 93.0625 45.3026 98.6107C43.1087 104.159 43.3821 106.873 46.2629 108.954C48.8903 110.854 55.7388 111.314 58.0594 111.381V111.394C58.1328 111.394 58.2328 111.394 58.3328 111.394C58.4329 111.394 58.5329 111.394 58.6062 111.394V111.381C60.9269 111.314 67.7754 110.847 70.4028 108.954C73.2836 106.873 73.557 104.159 71.3631 98.6107Z" fill="black"/>
<path opacity="0.1" d="M51.6572 80.7461V89.1017C51.6572 90.0686 52.4441 90.8555 53.411 90.8555C54.378 90.8555 55.1649 90.0686 55.1649 89.1017V80.7461H51.6572Z" fill="black"/>
<path opacity="0.1" d="M55.7794 81.5243C55.7794 81.9444 55.4393 82.2845 55.0192 82.2845H51.7983C51.3782 82.2845 51.0381 81.9444 51.0381 81.5243V77.6899C51.0381 77.2698 51.3782 76.9297 51.7983 76.9297H55.0192C55.4393 76.9297 55.7794 77.2698 55.7794 77.6899V81.5243Z" fill="black"/>
<path opacity="0.1" d="M55.1649 81.3064V71.0702C55.1649 70.1033 54.378 69.3164 53.411 69.3164C52.4441 69.3164 51.6572 70.1033 51.6572 71.0702V81.3064H55.1649Z" fill="black"/>
<path opacity="0.1" d="M54.0722 81.4786C54.0722 81.772 53.8388 82.0054 53.5454 82.0054C53.252 82.0054 53.0186 81.772 53.0186 81.4786V80.7651C53.0186 80.4717 53.252 80.2383 53.5454 80.2383C53.8388 80.2383 54.0722 80.4717 54.0722 80.7651V81.4786Z" fill="black"/>
<path opacity="0.1" d="M55.7788 76.9364C55.7788 77.3565 55.4387 77.6966 55.0186 77.6966H51.6176C51.1975 77.6966 50.8574 77.3565 50.8574 76.9364V76.7563C50.8574 76.3362 51.1975 75.9961 51.6176 75.9961H55.0186C55.4387 75.9961 55.7788 76.3362 55.7788 76.7563V76.9364Z" fill="black"/>
<path opacity="0.1" d="M64.7617 80.8984V89.2541C64.7617 90.221 65.5486 91.0079 66.5155 91.0079C67.4825 91.0079 68.2693 90.221 68.2693 89.2541V80.8984H64.7617Z" fill="black"/>
<path opacity="0.1" d="M68.8829 81.6805C68.8829 82.1006 68.5428 82.4407 68.1227 82.4407H64.9018C64.4817 82.4407 64.1416 82.1006 64.1416 81.6805V77.8461C64.1416 77.426 64.4817 77.0859 64.9018 77.0859H68.1227C68.5428 77.0859 68.8829 77.426 68.8829 77.8461V81.6805Z" fill="black"/>
<path opacity="0.1" d="M68.2693 81.4587V71.2226C68.2693 70.2556 67.4825 69.4688 66.5155 69.4688C65.5486 69.4688 64.7617 70.2556 64.7617 71.2226V81.4587H68.2693Z" fill="black"/>
<path opacity="0.1" d="M67.1747 81.6349C67.1747 81.9283 66.9413 82.1617 66.6479 82.1617C66.3545 82.1617 66.1211 81.9283 66.1211 81.6349V80.9213C66.1211 80.6279 66.3612 80.3945 66.6479 80.3945C66.9413 80.3945 67.1747 80.6279 67.1747 80.9213V81.6349Z" fill="black"/>
<path opacity="0.1" d="M68.8821 77.0926C68.8821 77.5127 68.542 77.8528 68.1219 77.8528H64.7143C64.2942 77.8528 63.9541 77.5127 63.9541 77.0926V76.9126C63.9541 76.4924 64.2942 76.1523 64.7143 76.1523H68.1219C68.542 76.1523 68.8821 76.4924 68.8821 76.9126V77.0926Z" fill="black"/>
<path opacity="0.1" d="M47.8438 104.461V112.817C47.8438 113.783 48.6306 114.57 49.5976 114.57C50.5645 114.57 51.3514 113.783 51.3514 112.817V104.461H47.8438Z" fill="black"/>
<path opacity="0.1" d="M51.964 105.239C51.964 105.659 51.6239 105.999 51.2037 105.999H47.9829C47.5627 105.999 47.2227 105.659 47.2227 105.239V101.405C47.2227 100.985 47.5627 100.645 47.9829 100.645H51.2037C51.6239 100.645 51.964 100.985 51.964 101.405V105.239Z" fill="black"/>
<path opacity="0.1" d="M51.3514 105.017V94.7812C51.3514 93.8142 50.5645 93.0273 49.5976 93.0273C48.6306 93.0273 47.8438 93.8142 47.8438 94.7812V105.017H51.3514V105.017Z" fill="black"/>
<path opacity="0.1" d="M50.2567 105.193C50.2567 105.487 50.0233 105.72 49.7299 105.72C49.4365 105.72 49.2031 105.487 49.2031 105.193V104.48C49.2031 104.187 49.4365 103.953 49.7299 103.953C50.0233 103.953 50.2567 104.187 50.2567 104.48V105.193V105.193Z" fill="black"/>
<path opacity="0.1" d="M51.9643 100.651C51.9643 101.071 51.6242 101.411 51.2041 101.411H47.8032C47.3831 101.411 47.043 101.071 47.043 100.651V100.471C47.043 100.051 47.3831 99.7109 47.8032 99.7109H51.2041C51.6242 99.7109 51.9643 100.051 51.9643 100.471V100.651Z" fill="black"/>
<path opacity="0.1" d="M63.2471 104.613V112.969C63.2471 113.936 64.034 114.723 65.0009 114.723C65.9678 114.723 66.7547 113.936 66.7547 112.969V104.613H63.2471Z" fill="black"/>
<path opacity="0.1" d="M67.3683 105.391C67.3683 105.812 67.0282 106.152 66.608 106.152H63.3872C62.967 106.152 62.627 105.812 62.627 105.391V101.557C62.627 101.137 62.967 100.797 63.3872 100.797H66.608C67.0282 100.797 67.3683 101.137 67.3683 101.557V105.391Z" fill="black"/>
<path opacity="0.1" d="M66.7547 105.174V94.9374C66.7547 93.9705 65.9678 93.1836 65.0009 93.1836C64.034 93.1836 63.2471 93.9705 63.2471 94.9374V105.174H66.7547Z" fill="black"/>
<path opacity="0.1" d="M65.661 105.346C65.661 105.639 65.4276 105.873 65.1342 105.873C64.8475 105.873 64.6074 105.639 64.6074 105.346V104.632C64.6074 104.339 64.8408 104.105 65.1342 104.105C65.4276 104.105 65.661 104.339 65.661 104.632V105.346Z" fill="black"/>
<path opacity="0.1" d="M67.3686 100.804C67.3686 101.224 67.0285 101.564 66.6084 101.564H63.2075C62.7874 101.564 62.4473 101.224 62.4473 100.804V100.623C62.4473 100.203 62.7874 99.8633 63.2075 99.8633H66.6084C67.0285 99.8633 67.3686 100.203 67.3686 100.623V100.804Z" fill="black"/>
</g>
<path d="M86.0801 67.2916C96.7231 79.0748 95.2693 104.228 88.6942 108.136C78.0913 114.445 80.6853 111.11 82.5525 108.876C85.2933 105.589 93.5822 86.4835 78.1713 66.5514C75.884 63.5973 86.0801 67.2916 86.0801 67.2916Z" fill="#11644E"/>
<path d="M73.769 70.5124C77.3633 67.7649 84.7453 67.1514 86.079 67.2848C87.4127 67.4182 81.011 64.4374 77.2633 65.2442C74.5092 65.8311 67.9274 67.1448 67.7807 68.6719C67.6406 70.1989 73.769 70.5124 73.769 70.5124Z" fill="#11644E"/>
<path d="M73.4099 106.664C78.9114 110.332 87.4338 108.571 88.6941 108.131C89.9545 107.691 83.6461 111.825 80.8987 112.439C78.1512 113.052 71.0826 111.519 70.5892 110.065C70.0957 108.611 73.4099 106.664 73.4099 106.664Z" fill="#11644E"/>
<path d="M53.6318 65.1259C49.3306 66.9264 46.083 77.9628 44.5226 83.8644C42.9622 89.766 39.1811 109.451 46.7966 113.799C54.412 118.147 73.3838 115.333 75.2243 112.012C77.0582 108.691 77.2849 105.837 77.6917 99.8488C78.0985 93.8605 78.3585 67.3332 72.897 65.1326C67.4289 62.9253 57.5395 63.4988 53.6318 65.1259Z" fill="#F7BE7F"/>
<path d="M57.2514 65.5256C57.1913 65.5256 57.1313 65.519 57.0713 65.5123C56.4445 65.4123 56.011 64.8254 56.111 64.1986C56.1377 64.0319 56.1444 63.7118 56.1577 63.3784C56.2177 61.2645 56.3911 55.6562 63.4597 55.6562C70.9684 55.6562 71.1952 61.5579 71.2819 63.7785C71.2885 63.9719 71.2952 64.1452 71.3085 64.2986C71.3486 64.9321 70.8684 65.4789 70.2349 65.5256C69.5947 65.559 69.0546 65.0855 69.0079 64.452C68.9946 64.2786 68.9879 64.0852 68.9812 63.8652C68.8679 60.8777 68.3477 57.9569 63.4597 57.9569C58.9918 57.9569 58.545 60.5509 58.4584 63.4451C58.445 63.8718 58.4317 64.2453 58.385 64.552C58.2916 65.1188 57.8048 65.5256 57.2514 65.5256Z" fill="#11644E"/>
<path d="M70.0955 72.8775C68.0483 67.7627 62.3 68.6496 58.2122 68.6496H57.6988C53.611 68.6496 47.8561 67.7561 45.8155 72.8775C43.7683 77.9922 44.0283 80.4929 46.7091 82.4134C49.1564 84.1672 55.5315 84.594 57.6988 84.654V84.6674C57.7654 84.6674 57.8588 84.6674 57.9522 84.6674C58.0455 84.6674 58.1389 84.6674 58.2056 84.6674V84.654C60.3728 84.594 66.7479 84.1606 69.1952 82.4134C71.8893 80.4929 72.1427 77.9922 70.0955 72.8775Z" fill="#FF9757"/>
<path d="M68.7887 96.0365C66.5948 90.4883 60.4197 91.4552 56.0319 91.4552H55.4784C51.0905 91.4552 44.9155 90.4883 42.7215 96.0365C40.5276 101.585 40.801 104.299 43.6818 106.379C46.3092 108.28 53.1577 108.74 55.4784 108.807V108.82C55.5517 108.82 55.6518 108.82 55.7518 108.82C55.8518 108.82 55.9518 108.82 56.0252 108.82V108.807C58.3458 108.74 65.1944 108.273 67.8218 106.379C70.7092 104.299 70.9826 101.585 68.7887 96.0365Z" fill="#FF9757"/>
<path d="M49.083 78.1719V86.5275C49.083 87.4944 49.8699 88.2813 50.8368 88.2813C51.8038 88.2813 52.5906 87.4944 52.5906 86.5275V78.1719H49.083Z" fill="#913535"/>
<path d="M53.2052 78.9579C53.2052 79.378 52.8651 79.7181 52.445 79.7181H49.2241C48.804 79.7181 48.4639 79.378 48.4639 78.9579V75.1235C48.4639 74.7034 48.804 74.3633 49.2241 74.3633H52.445C52.8651 74.3633 53.2052 74.7034 53.2052 75.1235V78.9579Z" fill="#EFCA4F"/>
<path d="M52.5848 78.74V68.5038C52.5848 67.5369 51.7979 66.75 50.831 66.75C49.864 66.75 49.0771 67.5369 49.0771 68.5038V78.74H52.5848Z" fill="#913535"/>
<path d="M51.4911 78.9111C51.4911 79.2045 51.2577 79.4379 50.9643 79.4379C50.6709 79.4379 50.4375 79.2045 50.4375 78.9111V78.1909C50.4375 77.8975 50.6709 77.6641 50.9643 77.6641C51.2577 77.6641 51.4911 77.8975 51.4911 78.1909V78.9111Z" fill="#EFCA4F"/>
<path d="M53.2036 74.3621C53.2036 74.7822 52.8635 75.1223 52.4434 75.1223H49.0424C48.6223 75.1223 48.2822 74.7822 48.2822 74.3621V74.1821C48.2822 73.762 48.6223 73.4219 49.0424 73.4219H52.4434C52.8635 73.4219 53.2036 73.762 53.2036 74.1821V74.3621Z" fill="#EFCA4F"/>
<path d="M62.1875 78.3242V86.6798C62.1875 87.6468 62.9744 88.4337 63.9413 88.4337C64.9082 88.4337 65.6951 87.6468 65.6951 86.6798V78.3242H62.1875Z" fill="#913535"/>
<path d="M66.3018 79.1063C66.3018 79.5264 65.9618 79.8665 65.5416 79.8665H62.3208C61.9006 79.8665 61.5605 79.5264 61.5605 79.1063V75.2719C61.5605 74.8518 61.9006 74.5117 62.3208 74.5117H65.5416C65.9618 74.5117 66.3018 74.8518 66.3018 75.2719V79.1063Z" fill="#EFCA4F"/>
<path d="M65.6883 78.8923V68.6562C65.6883 67.6892 64.9014 66.9023 63.9345 66.9023C62.9675 66.9023 62.1807 67.6892 62.1807 68.6562V78.8923H65.6883Z" fill="#913535"/>
<path d="M64.5937 79.0607C64.5937 79.3541 64.3603 79.5875 64.0669 79.5875C63.7734 79.5875 63.54 79.3541 63.54 79.0607V78.3471C63.54 78.0537 63.7801 77.8203 64.0669 77.8203C64.3603 77.8203 64.5937 78.0537 64.5937 78.3471V79.0607Z" fill="#EFCA4F"/>
<path d="M66.3011 74.5184C66.3011 74.9385 65.961 75.2786 65.5409 75.2786H62.1333C61.7131 75.2786 61.373 74.9385 61.373 74.5184V74.3383C61.373 73.9182 61.7131 73.5781 62.1333 73.5781H65.5409C65.961 73.5781 66.3011 73.9182 66.3011 74.3383V74.5184Z" fill="#EFCA4F"/>
<path d="M45.2617 101.887V110.242C45.2617 111.209 46.0486 111.996 47.0155 111.996C47.9825 111.996 48.7693 111.209 48.7693 110.242V101.887H45.2617Z" fill="#913535"/>
<path d="M49.3831 102.665C49.3831 103.085 49.043 103.425 48.6229 103.425H45.4086C44.9885 103.425 44.6484 103.085 44.6484 102.665V98.8305C44.6484 98.4104 44.9885 98.0703 45.4086 98.0703H48.6295C49.0496 98.0703 49.3897 98.4104 49.3897 98.8305V102.665H49.3831Z" fill="#EFCA4F"/>
<path d="M48.7693 102.451V92.2148C48.7693 91.2478 47.9825 90.4609 47.0155 90.4609C46.0486 90.4609 45.2617 91.2478 45.2617 92.2148V102.451H48.7693V102.451Z" fill="#913535"/>
<path d="M47.6757 102.619C47.6757 102.913 47.4423 103.146 47.1489 103.146C46.8555 103.146 46.6221 102.913 46.6221 102.619V101.906C46.6221 101.612 46.8555 101.379 47.1489 101.379C47.4423 101.379 47.6757 101.612 47.6757 101.906V102.619V102.619Z" fill="#EFCA4F"/>
<path d="M49.3833 98.077C49.3833 98.4971 49.0432 98.8372 48.6231 98.8372H45.2221C44.802 98.8372 44.4619 98.4971 44.4619 98.077V97.8969C44.4619 97.4768 44.802 97.1367 45.2221 97.1367H48.6231C49.0432 97.1367 49.3833 97.4768 49.3833 97.8969V98.077Z" fill="#EFCA4F"/>
<path d="M60.666 102.043V110.399C60.666 111.366 61.4529 112.152 62.4198 112.152C63.3868 112.152 64.1736 111.366 64.1736 110.399V102.043H60.666Z" fill="#913535"/>
<path d="M64.7874 102.817C64.7874 103.237 64.4473 103.577 64.0272 103.577H60.8129C60.3928 103.577 60.0527 103.237 60.0527 102.817V98.9829C60.0527 98.5628 60.3928 98.2227 60.8129 98.2227H64.0338C64.4539 98.2227 64.794 98.5628 64.794 98.9829V102.817H64.7874Z" fill="#EFCA4F"/>
<path d="M64.1736 102.606V92.3632C64.1736 91.3963 63.3868 90.6094 62.4198 90.6094C61.4529 90.6094 60.666 91.3963 60.666 92.3632V102.599H64.1736V102.606Z" fill="#913535"/>
<path d="M63.08 102.772C63.08 103.065 62.8466 103.298 62.5532 103.298C62.2664 103.298 62.0264 103.065 62.0264 102.772V102.058C62.0264 101.765 62.2598 101.531 62.5532 101.531C62.8466 101.531 63.08 101.765 63.08 102.058V102.772Z" fill="#EFCA4F"/>
<path d="M64.7876 98.2293C64.7876 98.6494 64.4475 98.9895 64.0274 98.9895H60.6264C60.2063 98.9895 59.8662 98.6494 59.8662 98.2293V98.0493C59.8662 97.6292 60.2063 97.2891 60.6264 97.2891H64.0274C64.4475 97.2891 64.7876 97.6292 64.7876 98.0493V98.2293Z" fill="#EFCA4F"/>
<g opacity="0.1">
<path opacity="0.1" d="M98.4423 106.327C98.5271 113.667 92.6467 119.683 85.3074 119.767C77.9681 119.852 71.9519 113.972 71.8671 106.633C71.7823 99.2933 77.6628 93.2771 85.0077 93.1923C92.3413 93.1075 98.3631 98.988 98.4423 106.327Z" fill="black"/>
<path opacity="0.1" d="M85.1543 120.857C77.3175 120.857 70.8659 114.479 70.7754 106.637C70.7302 102.797 72.189 99.1673 74.8748 96.4193C77.5606 93.6713 81.1567 92.1333 84.996 92.0938H85.1656C93.0025 92.0938 99.454 98.4718 99.5445 106.314C99.635 114.242 93.2569 120.767 85.3296 120.857H85.1543ZM85.16 94.282H85.0186C81.7617 94.3215 78.7141 95.622 76.4354 97.9516C74.1567 100.281 72.9241 103.357 72.958 106.614C73.0315 113.263 78.5049 118.669 85.1543 118.669H85.2957C92.0186 118.59 97.4298 113.06 97.3506 106.337C97.2771 99.6875 91.8094 94.282 85.16 94.282Z" fill="black"/>
<path opacity="0.1" d="M94.1171 106.372C94.1736 111.32 90.21 115.38 85.2568 115.436C80.3093 115.493 76.2495 111.524 76.193 106.576C76.1364 101.629 80.1001 97.5687 85.0533 97.5122C90.0008 97.4613 94.0606 101.425 94.1171 106.372Z" stroke="black" stroke-width="0.9663" stroke-miterlimit="10"/>
<path opacity="0.1" d="M85.6587 106.968L93.422 106.385L85.6474 105.973L85.065 98.2148L84.6522 105.984L76.8945 106.572L84.6635 106.979L85.2516 114.742L85.6587 106.968Z" fill="black"/>
<path opacity="0.1" d="M84.3965 105.741L92.4426 99.0234L85.9118 107.217L84.3965 105.741Z" fill="black"/>
<path opacity="0.1" d="M85.9123 107.218L77.8662 113.935L84.3969 105.742L85.9123 107.218Z" fill="black"/>
<path opacity="0.1" d="M87.704 90.925C87.7153 92.1576 86.7314 93.1697 85.4988 93.181L84.5149 93.1924C83.2823 93.2037 82.2758 92.2198 82.2589 90.9872V90.7949C82.2476 89.5623 83.2314 88.5502 84.4641 88.5389L85.4479 88.5276C86.6806 88.5106 87.6927 89.5001 87.704 90.7327V90.925Z" fill="black"/>
<path opacity="0.1" d="M89.2197 87.8374C89.231 89.07 88.2471 90.0821 87.0145 90.0935L82.9264 90.1387C81.6938 90.15 80.6873 89.1662 80.6704 87.9335L80.6534 86.6726C80.6421 85.44 81.626 84.4335 82.8586 84.4165L86.9466 84.3713C88.1793 84.3543 89.1857 85.3438 89.2027 86.5765L89.2197 87.8374Z" stroke="black" stroke-width="1.9325" stroke-miterlimit="10"/>
</g>
<path d="M96.2577 104.148C96.3425 111.487 90.4621 117.503 83.1228 117.588C75.7835 117.673 69.7674 111.792 69.6825 104.453C69.5977 97.1136 75.4782 91.0974 82.8231 91.0126C90.1567 90.9278 96.1729 96.8083 96.2577 104.148Z" fill="white"/>
<path d="M82.9648 118.685C75.128 118.685 68.6765 112.307 68.586 104.465C68.5407 100.625 69.9996 96.9954 72.6853 94.2474C75.3711 91.4994 78.9673 89.9615 82.8065 89.9219H82.9762C90.813 89.9219 97.2646 96.2999 97.355 104.142C97.4455 112.07 91.0675 118.595 83.1401 118.685H82.9648ZM82.9762 92.1044H82.8348C79.5779 92.144 76.5303 93.4445 74.2516 95.7741C71.9729 98.1036 70.7403 101.18 70.7742 104.436C70.8477 111.086 76.3211 116.491 82.9705 116.491H83.1119C89.8348 116.412 95.246 110.882 95.1668 104.159C95.0877 97.5156 89.6199 92.1044 82.9762 92.1044Z" fill="#913535"/>
<path d="M91.9335 104.193C91.99 109.14 88.0264 113.2 83.0732 113.257C78.1257 113.313 74.0659 109.344 74.0094 104.396C73.9528 99.449 77.9165 95.3892 82.8697 95.3326C87.8172 95.2761 91.877 99.2454 91.9335 104.193Z" stroke="#CCCCCC" stroke-width="0.9663" stroke-miterlimit="10"/>
<path d="M83.4759 104.79L91.2392 104.202L83.4646 103.795L82.8765 96.0312L82.4694 103.806L74.7061 104.394L82.4807 104.801L83.0631 112.564L83.4759 104.79Z" fill="#E6E6E6"/>
<path d="M82.2129 103.557L90.2589 96.8398L83.7282 105.039L82.2129 103.557Z" fill="#F2534E"/>
<path d="M83.7287 105.04L75.6826 111.757L82.2133 103.559L83.7287 105.04Z" fill="#63C3E5"/>
<path d="M85.5155 88.7453C85.5268 89.9779 84.543 90.99 83.3103 91.0014L82.3265 91.0127C81.0938 91.024 80.0874 90.0401 80.0704 88.8075V88.6152C80.0591 87.3826 81.0429 86.3705 82.2756 86.3592L83.2594 86.3479C84.4921 86.3309 85.5042 87.3204 85.5155 88.553V88.7453Z" fill="#913535"/>
<path d="M87.0312 85.6538C87.0425 86.8864 86.0587 87.8986 84.826 87.9099L80.738 87.9551C79.5053 87.9664 78.4989 86.9826 78.4819 85.7499L78.4649 84.489C78.4536 83.2564 79.4375 82.2499 80.6701 82.2329L84.7582 82.1877C85.9908 82.1708 86.9973 83.1603 87.0142 84.3929L87.0312 85.6538Z" stroke="#913535" stroke-width="1.9325" stroke-miterlimit="10"/>
</svg>
