<svg width="326" height="327" viewBox="0 0 326 327" fill="none" xmlns="http://www.w3.org/2000/svg">
<path d="M226.333 30C191.455 30 163.08 58.3751 163.08 93.2532C163.08 96.0161 163.268 98.7516 163.619 101.452L117.92 123.281L43.6157 87.7898C41.9672 87.003 40.0304 87.1169 38.4834 88.0901C36.9376 89.0656 36 90.7645 36 92.5928V254.091C36 256.141 37.1785 258.009 39.0287 258.893L115.626 295.48C117.078 296.172 118.762 296.172 120.214 295.48L194.517 259.989L268.822 295.48C269.549 295.828 270.333 296 271.116 296C272.105 296 273.091 295.724 273.955 295.181C275.501 294.205 276.438 292.506 276.438 290.678V131.85L276.943 131.184C277.115 130.959 277.265 130.723 277.396 130.478C285.374 119.56 289.585 106.709 289.585 93.2532C289.585 58.3751 261.21 30 226.333 30ZM265.794 282.237L196.811 249.288C195.359 248.596 193.675 248.596 192.223 249.288L117.92 284.779L46.6438 250.734V101.033L115.625 133.982C117.078 134.674 118.761 134.674 120.214 133.982L165.971 112.125C168.02 118.633 171.131 124.811 175.262 130.467C175.393 130.713 175.544 130.952 175.717 131.18L222.035 192.367C223.04 193.696 224.61 194.476 226.276 194.477C226.278 194.477 226.278 194.477 226.279 194.477C227.943 194.477 229.514 193.698 230.519 192.371L265.793 145.879V282.237H265.794ZM268.375 124.772C268.223 124.974 268.088 125.185 267.967 125.404L226.284 180.344L184.704 125.417C184.582 125.195 184.444 124.979 184.29 124.773C177.377 115.567 173.724 104.669 173.724 93.2538C173.724 64.2444 197.323 40.645 226.333 40.645C255.341 40.645 278.94 64.2444 278.94 93.2538C278.941 104.668 275.288 115.567 268.375 124.772Z" fill="#219FAE"/>
<path d="M226.333 62.6641C209.465 62.6641 195.742 76.387 195.742 93.2531C195.742 110.119 209.465 123.842 226.333 123.842C243.2 123.842 256.922 110.119 256.922 93.2531C256.922 76.387 243.199 62.6641 226.333 62.6641ZM226.333 113.198C215.335 113.198 206.387 104.251 206.387 93.2537C206.387 82.2563 215.335 73.309 226.333 73.309C237.331 73.309 246.278 82.2563 246.278 93.2537C246.278 104.251 237.33 113.198 226.333 113.198Z" fill="#219FAE"/>
<path d="M84.6137 171.936C84.6137 170.641 84.6285 169.446 84.6416 168.372C84.6523 167.456 84.6624 166.626 84.6624 165.892C84.6624 162.954 82.2793 160.57 79.3402 160.57C76.4011 160.57 74.018 162.954 74.018 165.892C74.018 166.587 74.0073 167.375 73.9972 168.242C73.9836 169.354 73.9688 170.594 73.9688 171.936C73.9688 179.315 74.4233 190.334 78.3581 200.79C79.1598 202.923 81.1868 204.239 83.3403 204.239C83.9621 204.239 84.5953 204.129 85.213 203.896C87.9646 202.861 89.3543 199.793 88.3195 197.041C84.9982 188.208 84.6137 178.483 84.6137 171.936Z" fill="#219FAE"/>
<path d="M188.452 184.601C173.069 185.411 163.078 195.393 156.465 201.997C154.386 204.075 154.383 207.446 156.461 209.524C157.501 210.565 158.864 211.085 160.227 211.085C161.589 211.085 162.949 210.567 163.988 209.529C171.217 202.307 178.569 195.781 189.013 195.23C191.948 195.075 194.202 192.57 194.048 189.634C193.892 186.701 191.402 184.453 188.452 184.601Z" fill="#219FAE"/>
<path d="M134.125 218.416C130.82 219.536 127.457 220.079 123.838 220.079C118.963 220.079 113.658 219.04 108.072 216.991C107.177 216.663 106.301 216.305 105.465 215.924C102.79 214.707 99.6316 215.89 98.4169 218.565C97.1992 221.241 98.3813 224.396 101.057 225.612C102.135 226.102 103.261 226.564 104.405 226.984C111.17 229.466 117.708 230.723 123.838 230.723C128.571 230.723 133.18 229.973 137.54 228.496C140.324 227.553 141.817 224.531 140.873 221.748C139.93 218.964 136.909 217.466 134.125 218.416Z" fill="#219FAE"/>
</svg>
