<svg width="386" height="386" viewBox="0 0 386 386" fill="none" xmlns="http://www.w3.org/2000/svg">
<g filter="url(#filter0_d_12353:78)">
<path d="M271.585 28C228.232 28 192.961 63.1435 192.961 106.341C192.961 109.763 193.194 113.151 193.631 116.496L136.827 143.532L44.4663 99.5747C42.4172 98.6001 40.0098 98.7412 38.0869 99.9465C36.1654 101.155 35 103.259 35 105.523V305.544C35 308.084 36.4649 310.398 38.7647 311.492L133.975 356.806C135.781 357.663 137.873 357.663 139.679 356.806L232.038 312.849L324.399 356.806C325.303 357.237 326.277 357.45 327.25 357.45C328.48 357.45 329.705 357.108 330.78 356.435C332.701 355.227 333.866 353.123 333.866 350.858V154.144L334.493 153.32C334.707 153.041 334.894 152.749 335.056 152.445C344.972 138.923 350.207 123.007 350.207 106.341C350.207 63.1435 314.937 28 271.585 28ZM320.635 340.405L234.889 299.596C233.083 298.739 230.991 298.739 229.185 299.596L136.827 343.553L48.2303 301.387V115.976L133.974 156.785C135.78 157.642 137.872 157.642 139.678 156.785L196.555 129.715C199.101 137.776 202.968 145.427 208.103 152.432C208.266 152.737 208.454 153.033 208.668 153.314L266.242 229.097C267.492 230.744 269.443 231.709 271.514 231.711C271.516 231.711 271.516 231.711 271.517 231.711C273.586 231.711 275.538 230.745 276.788 229.103L320.634 171.52V340.405H320.635ZM323.842 145.379C323.654 145.628 323.486 145.89 323.336 146.16L271.523 214.206L219.839 146.177C219.688 145.902 219.516 145.635 219.324 145.379C210.732 133.978 206.191 120.48 206.191 106.342C206.191 70.4128 235.526 41.1841 271.584 41.1841C307.641 41.1841 336.975 70.4128 336.975 106.342C336.976 120.479 332.435 133.977 323.842 145.379Z" fill="#6C6C6C"/>
<path d="M271.583 68.4766C250.616 68.4766 233.559 85.4729 233.559 106.362C233.559 127.251 250.616 144.248 271.583 144.248C292.549 144.248 309.605 127.251 309.605 106.362C309.605 85.4729 292.548 68.4766 271.583 68.4766ZM271.583 131.065C257.913 131.065 246.79 119.984 246.79 106.363C246.79 92.7422 257.913 81.6607 271.583 81.6607C285.254 81.6607 296.375 92.7422 296.375 106.363C296.375 119.984 285.253 131.065 271.583 131.065Z" fill="#6C6C6C"/>
<path d="M95.3997 203.827C95.3997 202.223 95.4181 200.743 95.4344 199.413C95.4476 198.278 95.4602 197.25 95.4602 196.342C95.4602 192.702 92.498 189.75 88.8447 189.75C85.1914 189.75 82.2292 192.702 82.2292 196.342C82.2292 197.202 82.2159 198.178 82.2034 199.251C82.1864 200.629 82.168 202.165 82.168 203.827C82.168 212.966 82.7329 226.613 87.6239 239.563C88.6204 242.206 91.1401 243.835 93.8168 243.835C94.5898 243.835 95.3768 243.699 96.1447 243.41C99.5649 242.129 101.292 238.329 100.006 234.92C95.8776 223.981 95.3997 211.936 95.3997 203.827Z" fill="#6C6C6C"/>
<path d="M224.504 219.477C205.383 220.481 192.965 232.844 184.745 241.024C182.161 243.597 182.157 247.772 184.74 250.346C186.032 251.635 187.726 252.279 189.421 252.279C191.113 252.279 192.804 251.638 194.096 250.351C203.082 241.407 212.221 233.324 225.202 232.642C228.85 232.45 231.652 229.348 231.46 225.711C231.266 222.078 228.172 219.295 224.504 219.477Z" fill="#6C6C6C"/>
<path d="M156.953 261.312C152.846 262.699 148.666 263.372 144.167 263.372C138.107 263.372 131.514 262.085 124.57 259.547C123.457 259.141 122.368 258.697 121.329 258.226C118.005 256.718 114.078 258.184 112.569 261.496C111.055 264.811 112.524 268.718 115.85 270.225C117.19 270.832 118.589 271.404 120.012 271.924C128.42 274.998 136.548 276.555 144.167 276.555C150.05 276.555 155.779 275.626 161.199 273.796C164.66 272.628 166.515 268.885 165.341 265.439C164.169 261.991 160.414 260.135 156.953 261.312Z" fill="#6C6C6C"/>
</g>
<defs>
<filter id="filter0_d_12353:78" x="31" y="28" width="323.207" height="337.449" filterUnits="userSpaceOnUse" color-interpolation-filters="sRGB">
<feFlood flood-opacity="0" result="BackgroundImageFix"/>
<feColorMatrix in="SourceAlpha" type="matrix" values="0 0 0 0 0 0 0 0 0 0 0 0 0 0 0 0 0 0 127 0" result="hardAlpha"/>
<feOffset dy="4"/>
<feGaussianBlur stdDeviation="2"/>
<feColorMatrix type="matrix" values="0 0 0 0 0 0 0 0 0 0 0 0 0 0 0 0 0 0 0.05 0"/>
<feBlend mode="normal" in2="BackgroundImageFix" result="effect1_dropShadow_12353:78"/>
<feBlend mode="normal" in="SourceGraphic" in2="effect1_dropShadow_12353:78" result="shape"/>
</filter>
</defs>
</svg>
