<svg width="58" height="58" viewBox="0 0 58 58" fill="none" xmlns="http://www.w3.org/2000/svg">
<g filter="url(#filter0_d)">
<circle cx="29" cy="25" r="25" fill="url(#paint0_linear)"/>
<circle cx="29" cy="25" r="24.75" stroke="#EBEBEB" stroke-width="0.5"/>
</g>
<rect x="5" y="1" width="48" height="48" rx="24" fill="url(#paint1_linear)"/>
<path d="M35.9246 31.6837H22.1342C21.7894 31.6837 21.5073 31.9632 21.5073 32.3048C21.5073 32.6464 21.7894 32.9259 22.1342 32.9259H35.9246C36.2694 32.9259 36.5514 32.6464 36.5514 32.3048C36.5514 31.9632 36.2694 31.6837 35.9246 31.6837Z" fill="white"/>
<path d="M35.9248 33.547H34.0443C33.6996 33.547 33.4175 33.8264 33.4175 34.168C33.4175 34.5096 33.6996 34.7891 34.0443 34.7891H35.9248C36.2696 34.7891 36.5517 34.5096 36.5517 34.168C36.5517 33.8264 36.2696 33.547 35.9248 33.547Z" fill="white"/>
<path d="M32.1636 33.547H22.1342C21.7894 33.547 21.5073 33.8264 21.5073 34.168C21.5073 34.5096 21.7894 34.7891 22.1342 34.7891H32.1636C32.5083 34.7891 32.7904 34.5096 32.7904 34.168C32.7904 33.8264 32.5083 33.547 32.1636 33.547Z" fill="white"/>
<path d="M30.9099 35.4102H22.1342C21.7894 35.4102 21.5073 35.6897 21.5073 36.0313C21.5073 36.3729 21.7894 36.6524 22.1342 36.6524H30.9099C31.2547 36.6524 31.5367 36.3729 31.5367 36.0313C31.5367 35.6897 31.2547 35.4102 30.9099 35.4102Z" fill="white"/>
<path d="M24.0146 13.051C24.3593 13.051 24.6414 12.7715 24.6414 12.4299C24.6414 12.0883 24.3593 11.8088 24.0146 11.8088H21.5072C21.1624 11.8088 20.8804 12.0883 20.8804 12.4299C20.8804 12.7715 21.1624 13.051 21.5072 13.051H24.0146Z" fill="white"/>
<path d="M39.0588 25.4418V24.1918V22.0724V21.001V19.2542V11.8089C39.0588 10.9316 38.4477 10.2019 37.6249 10H20.4261C19.6112 10.2019 19 10.9316 19 11.8089V39.1367C19 40.1693 19.8384 41 20.8805 41H37.1783C38.2204 41 39.0588 40.1693 39.0588 39.1367V35.4102V26.7383V25.4418ZM37.8051 39.1367C37.8051 39.4783 37.5231 39.7578 37.1783 39.7578H20.8805C20.5358 39.7578 20.2537 39.4783 20.2537 39.1367V11.8089C20.2537 11.4673 20.5358 11.1878 20.8805 11.1878H37.1783C37.5231 11.1878 37.8051 11.4673 37.8051 11.8089V39.1367Z" fill="white"/>
<path d="M29.4761 28.9432L29.0295 29.3313L28.5829 28.9509C24.861 25.729 22.9648 22.9109 22.9648 20.442C22.9648 16.9329 25.7308 14.4253 29.0295 14.4253C32.3282 14.4253 35.0942 16.9251 35.0942 20.4343C35.0942 22.9031 33.198 25.7213 29.4761 28.9432ZM24.3125 20.4343C24.3125 22.3364 25.864 24.7275 29.0295 27.5535C32.1872 24.7275 33.7465 22.3364 33.7465 20.4343C33.7465 17.6937 31.6152 15.7606 29.0295 15.7606C26.4438 15.7606 24.3125 17.6937 24.3125 20.4343ZM28.3557 17.7636V19.7666H26.3341V21.1019H28.3557V23.105H29.7034V21.1019H31.7249V19.7666H29.7034V17.7636H28.3557Z" fill="white"/>
<defs>
<filter id="filter0_d" x="0" y="0" width="58" height="58" filterUnits="userSpaceOnUse" color-interpolation-filters="sRGB">
<feFlood flood-opacity="0" result="BackgroundImageFix"/>
<feColorMatrix in="SourceAlpha" type="matrix" values="0 0 0 0 0 0 0 0 0 0 0 0 0 0 0 0 0 0 127 0"/>
<feOffset dy="4"/>
<feGaussianBlur stdDeviation="2"/>
<feColorMatrix type="matrix" values="0 0 0 0 0 0 0 0 0 0 0 0 0 0 0 0 0 0 0.11 0"/>
<feBlend mode="normal" in2="BackgroundImageFix" result="effect1_dropShadow"/>
<feBlend mode="normal" in="SourceGraphic" in2="effect1_dropShadow" result="shape"/>
</filter>
<linearGradient id="paint0_linear" x1="29" y1="0" x2="29" y2="104" gradientUnits="userSpaceOnUse">
<stop stop-color="#209FAE"/>
<stop offset="1" stop-color="#27958B" stop-opacity="0"/>
</linearGradient>
<linearGradient id="paint1_linear" x1="10.5" y1="10.5" x2="29" y2="44" gradientUnits="userSpaceOnUse">
<stop stop-color="#41CCDC"/>
<stop offset="1" stop-color="#209FAE"/>
</linearGradient>
</defs>
</svg>
