<svg width="48" height="48" viewBox="0 0 48 48" fill="none" xmlns="http://www.w3.org/2000/svg">
<path d="M0 24C0 10.7452 10.7452 0 24 0V0C37.2548 0 48 10.7452 48 24V24C48 37.2548 37.2548 48 24 48V48C10.7452 48 0 37.2548 0 24V24Z" fill="url(#paint0_linear)"/>
<path d="M30.9251 30.6836H17.1347C16.7899 30.6836 16.5078 30.9631 16.5078 31.3047C16.5078 31.6463 16.7899 31.9258 17.1347 31.9258H30.9251C31.2699 31.9258 31.5519 31.6463 31.5519 31.3047C31.5519 30.9631 31.2699 30.6836 30.9251 30.6836Z" fill="white"/>
<path d="M30.9243 32.5469H29.0438C28.6991 32.5469 28.417 32.8264 28.417 33.168C28.417 33.5096 28.6991 33.789 29.0438 33.789H30.9243C31.2691 33.789 31.5512 33.5096 31.5512 33.168C31.5512 32.8264 31.2691 32.5469 30.9243 32.5469Z" fill="white"/>
<path d="M27.1641 32.5469H17.1347C16.7899 32.5469 16.5078 32.8264 16.5078 33.168C16.5078 33.5096 16.7899 33.789 17.1347 33.789H27.1641C27.5088 33.789 27.7909 33.5096 27.7909 33.168C27.7909 32.8264 27.5088 32.5469 27.1641 32.5469Z" fill="white"/>
<path d="M25.9104 34.4102H17.1347C16.7899 34.4102 16.5078 34.6896 16.5078 35.0312C16.5078 35.3728 16.7899 35.6523 17.1347 35.6523H25.9104C26.2551 35.6523 26.5372 35.3728 26.5372 35.0312C26.5372 34.6896 26.2551 34.4102 25.9104 34.4102Z" fill="white"/>
<path d="M19.0151 12.0508C19.3598 12.0508 19.6419 11.7713 19.6419 11.4297C19.6419 11.0881 19.3598 10.8086 19.0151 10.8086H16.5077C16.1629 10.8086 15.8809 11.0881 15.8809 11.4297C15.8809 11.7713 16.1629 12.0508 16.5077 12.0508H19.0151Z" fill="white"/>
<path d="M34.0588 24.4418V23.1918V21.0724V20.001V18.2542V10.8089C34.0588 9.93163 33.4477 9.20185 32.6249 9H15.4261C14.6112 9.20185 14 9.93163 14 10.8089V38.1367C14 39.1693 14.8384 40 15.8805 40H32.1783C33.2204 40 34.0588 39.1693 34.0588 38.1367V34.4102V25.7383V24.4418ZM32.8051 38.1367C32.8051 38.4783 32.5231 38.7578 32.1783 38.7578H15.8805C15.5358 38.7578 15.2537 38.4783 15.2537 38.1367V10.8089C15.2537 10.4673 15.5358 10.1878 15.8805 10.1878H32.1783C32.5231 10.1878 32.8051 10.4673 32.8051 10.8089V38.1367Z" fill="white"/>
<path d="M24.4761 27.9437L24.0295 28.3319L23.5829 27.9515C19.861 24.7296 17.9648 21.9114 17.9648 19.4426C17.9648 15.9334 20.7308 13.4258 24.0295 13.4258C27.3282 13.4258 30.0942 15.9257 30.0942 19.4348C30.0942 21.9036 28.198 24.7218 24.4761 27.9437ZM19.3125 19.4348C19.3125 21.3369 20.864 23.7281 24.0295 26.554C27.1872 23.7281 28.7465 21.3369 28.7465 19.4348C28.7465 16.6943 26.6152 14.7611 24.0295 14.7611C21.4438 14.7611 19.3125 16.6943 19.3125 19.4348ZM23.3557 16.7641V18.7671H21.3341V20.1025H23.3557V22.1055H24.7034V20.1025H26.7249V18.7671H24.7034V16.7641H23.3557Z" fill="white"/>
<defs>
<linearGradient id="paint0_linear" x1="5.5" y1="9.5" x2="24" y2="43" gradientUnits="userSpaceOnUse">
<stop stop-color="#41CCDC"/>
<stop offset="1" stop-color="#209FAE"/>
</linearGradient>
</defs>
</svg>
