<svg width="155" height="257" viewBox="0 0 155 257" fill="none" xmlns="http://www.w3.org/2000/svg">
<path fill-rule="evenodd" clip-rule="evenodd" d="M113.268 23.8462C113.268 36.9615 102.538 47.6923 89.4222 47.6923C76.3068 47.6923 65.576 36.9615 65.576 23.8462C65.576 10.7308 76.3068 0 89.4222 0C102.538 0 113.268 10.7308 113.268 23.8462ZM19.2063 256.346C15.4318 256.346 12.5947 252.902 13.3173 249.197L42.5407 99.3613C43.463 94.6323 38.7166 90.7999 34.2881 92.6978L27.4826 95.6144C25.2765 96.5599 23.8462 98.7291 23.8462 101.129V131.115C23.8462 134.429 21.1599 137.115 17.8461 137.115H6C2.68629 137.115 0 134.429 0 131.115V85.1033C0 82.6677 1.47228 80.4738 3.72614 79.5508L62.5962 55.4422C65.5769 54.2499 68.5577 53.6537 71.5385 53.6537C79.8846 53.6537 87.6346 57.8268 91.8077 64.9806L103.135 84.0575C112.881 99.7601 129.513 111.036 149.009 112.973C152.307 113.301 155 115.955 155 119.269V131.115C155 134.429 152.308 137.138 149.003 136.906C129.707 135.552 112.291 127.707 98.7651 115.377C95.0131 111.957 88.5145 113.639 87.5188 118.617L83.4951 138.736C83.1017 140.703 83.7174 142.737 85.136 144.155L105.55 164.569C106.676 165.695 107.308 167.221 107.308 168.812V250.346C107.308 253.66 104.621 256.346 101.308 256.346H89.4615C86.1478 256.346 83.4615 253.66 83.4615 250.346V187.421C83.4615 185.754 82.7684 184.163 81.5482 183.028L65.5275 168.125C62.1255 164.96 56.5723 166.697 55.5794 171.236L37.9936 251.628C37.391 254.383 34.9518 256.346 32.1322 256.346H19.2063Z" fill="#6C6C6C"/>
</svg>
