<svg width="353" height="353" viewBox="0 0 353 353" fill="none" xmlns="http://www.w3.org/2000/svg">
<path fill-rule="evenodd" clip-rule="evenodd" d="M176.059 35C98.1164 35 35 98.2576 35 176.2C35 254.142 98.1164 317.4 176.059 317.4C254.142 317.4 317.4 254.142 317.4 176.2C317.4 98.2576 254.142 35 176.059 35ZM176.226 289.121C113.815 289.121 63.2658 238.571 63.2658 176.161C63.2658 113.75 113.815 63.2005 176.226 63.2005C238.636 63.2005 289.186 113.75 289.186 176.161C289.186 238.571 238.636 289.121 176.226 289.121ZM162.066 105.6H183.245V179.73L246.785 217.43L236.195 234.798L162.066 190.32V105.6Z" fill="#209FAE"/>
</svg>
