<?xml version="1.0" encoding="utf-8"?>
<!-- Generator: Adobe Illustrator 24.1.1, SVG Export Plug-In . SVG Version: 6.00 Build 0)  -->
<!DOCTYPE svg PUBLIC "-//W3C//DTD SVG 1.1//EN" "http://www.w3.org/Graphics/SVG/1.1/DTD/svg11.dtd" [
	<!ENTITY ns_extend "http://ns.adobe.com/Extensibility/1.0/">
	<!ENTITY ns_ai "http://ns.adobe.com/AdobeIllustrator/10.0/">
	<!ENTITY ns_graphs "http://ns.adobe.com/Graphs/1.0/">
	<!ENTITY ns_vars "http://ns.adobe.com/Variables/1.0/">
	<!ENTITY ns_imrep "http://ns.adobe.com/ImageReplacement/1.0/">
	<!ENTITY ns_sfw "http://ns.adobe.com/SaveForWeb/1.0/">
	<!ENTITY ns_custom "http://ns.adobe.com/GenericCustomNamespace/1.0/">
	<!ENTITY ns_adobe_xpath "http://ns.adobe.com/XPath/1.0/">
]>
<svg version="1.1" id="图层_1" xmlns:x="&ns_extend;" xmlns:i="&ns_ai;" xmlns:graph="&ns_graphs;"
	 xmlns="http://www.w3.org/2000/svg" xmlns:xlink="http://www.w3.org/1999/xlink" x="0px" y="0px" viewBox="0 0 976.1 243.2"
	 enable-background="new 0 0 976.1 243.2" xml:space="preserve">
<metadata>
	<sfw  xmlns="&ns_sfw;">
		<slices></slices>
		<sliceSourceBounds  bottomLeftOrigin="true" height="235.379" width="902.291" x="36.904" y="3.91"></sliceSourceBounds>
	</sfw>
</metadata>
<g id="Layer_x5F_1">
	<g id="_118875824">
		<path id="XMLID_14_" fill="#FB0102" d="M64.653,70.615c-8.538,23.907-16.832,47.813-25.126,71.72
			c-0.488,1.952-1.22,4.147-1.464,6.099c-0.488,1.952-0.732,3.903-0.976,5.855c-0.244,1.952-0.244,4.147,0,5.855
			c0.244,1.952,0.488,3.659,1.22,5.855c0.732,2.195,1.708,4.635,2.927,6.587c1.22,2.195,2.927,3.903,4.879,5.367
			s4.147,2.683,6.587,3.659c2.683,0.976,5.611,1.464,8.05,1.952c2.439,0.244,4.635,0.244,6.587,0.244c19.272,0,38.787,0,58.059,0
			c0.488,0,0.976,0,1.464-0.244c0.488-0.244,0.976-0.488,1.464-0.732c0.488-0.244,0.976-0.732,1.464-1.22s0.732-0.976,1.22-1.708
			c0.244-0.732,0.488-1.22,0.732-1.952c2.196-6.343,4.147-12.685,5.611-17.564c1.464-4.635,2.439-7.806,2.927-9.514
			c0.488-1.708,0.732-2.195,0.732-2.683s0-0.732,0-1.22s-0.244-0.732-0.488-0.976s-0.488-0.488-0.976-0.732
			c-0.244-0.244-0.732-0.244-0.976-0.244s-0.732,0-1.22,0c-14.149,0-28.298,0-42.446,0c-0.732,0-1.22,0-1.952-0.244
			c-0.732-0.244-1.22-0.488-1.708-0.732c-0.488-0.244-0.976-0.732-1.22-0.976c-0.488-0.488-0.732-0.976-0.976-1.464
			c-0.244-0.732-0.488-1.464-0.488-2.195c0-0.732,0-1.708,0.244-2.683c0.244-0.976,0.488-2.195,0.976-3.171
			c7.074-20.735,14.149-41.471,21.223-62.206c0-0.488,0.244-0.732,0.244-1.22c0-0.488-0.244-0.976-0.244-1.464
			c-0.244-0.488-0.488-0.732-0.732-0.976c-0.244-0.244-0.488-0.244-0.976-0.488c-0.244,0-0.732,0-1.22,0
			c-12.685,0-25.614,0-38.299,0c-0.244,0-0.732,0-0.976,0s-0.732,0.244-0.976,0.244c-0.244,0.244-0.732,0.244-0.976,0.488
			c-0.244,0.244-0.488,0.488-0.732,0.732c-0.244,0.244-0.488,0.488-0.732,0.976C64.897,69.884,64.897,70.371,64.653,70.615z"/>
		<path id="XMLID_13_" fill="#FB0102" d="M172.233,99.889c-0.244,0-0.732,0-0.976,0.244c-0.244,0-0.732,0.244-0.976,0.488
			c-0.244,0.244-0.488,0.244-0.732,0.488c-0.244,0.244-0.488,0.488-0.732,0.732c-0.244,0.244-0.244,0.488-0.488,0.732
			c-8.05,25.858-15.856,51.716-23.907,77.574c0,0.244,0,0.488-0.244,0.732c0,0.244,0,0.488,0,0.732c0,0.244,0.244,0.488,0.488,0.732
			c0.244,0.244,0.488,0.488,0.732,0.488c0.244,0.244,0.488,0.244,0.732,0.244c0.244,0,0.488,0,0.732,0c12.197,0,24.394,0,36.592,0
			c0.244,0,0.732,0,0.976,0s0.732-0.244,0.976-0.488s0.488-0.244,0.732-0.732c0.244-0.244,0.488-0.976,0.732-1.464
			c8.294-25.858,16.344-51.716,24.638-77.574c0-0.244,0-0.488,0.244-0.732c0-0.244,0-0.488,0-0.732c0-0.244,0-0.488-0.244-0.488
			c0-0.244-0.244-0.244-0.488-0.488c-0.244-0.244-0.488-0.244-0.488-0.244c-0.244,0-0.488,0-0.488,0
			C197.115,99.889,184.674,99.889,172.233,99.889L172.233,99.889z"/>
		<path fill="#FB0102" d="M281.764,142.335c-7.318,15.368-41.715,17.32-34.396-3.171c2.195-6.343,10.49-11.953,19.272-12.685
			C276.397,125.503,286.887,131.602,281.764,142.335L281.764,142.335z M319.819,138.676c10.49-36.592-42.202-60.498-90.504-25.858
			c-23.175,16.588-31.225,49.277-7.074,64.157c12.197,7.562,24.638,9.27,41.715,6.587
			C285.423,180.147,312.745,163.071,319.819,138.676L319.819,138.676z"/>
		<path id="XMLID_10_" fill="#FB0102" d="M195.652,58.906c13.661-2.195,25.126,3.415,25.614,12.441
			c0.488,9.026-10.002,18.052-23.663,20.247c-13.661,2.195-25.126-3.415-25.614-12.441
			C171.257,70.128,181.991,61.102,195.652,58.906z"/>
		<path id="XMLID_9_" fill="#FB0102" d="M343.238,99.401c-8.294,26.59-16.588,53.18-24.882,79.77c0,0.488-0.244,0.976-0.244,1.464
			c0,0.488,0.244,0.976,0.244,1.22c0.244,0.244,0.488,0.488,0.732,0.732c0.244,0.244,0.488,0.244,0.732,0.488
			c0.244,0,0.488,0,0.732,0c12.197,0,24.151,0,36.348,0c0.244,0,0.732,0,0.976,0c0.488,0,0.732-0.244,1.22-0.244
			c0.244-0.244,0.488-0.244,0.732-0.488c0.244-0.244,0.488-0.488,0.732-0.732c0.244-0.244,0.244-0.488,0.488-0.732
			c4.635-15.612,9.026-30.981,13.661-46.593c0.244-0.732,0.732-1.708,1.22-2.195s1.464-0.732,2.439-0.976
			c1.22-0.244,2.683-0.488,4.635-0.488c1.952-0.244,4.391-0.244,6.343-0.244s3.171,0,4.147,0c0.976,0.244,1.708,0.488,2.195,0.732
			c0.488,0.244,0.732,0.732,0.976,0.976c0.244,0.488,0.488,0.976,0.732,1.952c0.244,0.976,0.244,2.196,0,3.171
			s-0.488,1.952-0.976,3.171c-0.488,1.22-0.976,3.171-3.171,9.758c-2.195,6.587-5.611,18.052-9.27,29.517
			c0,0.244,0,0.488-0.244,0.732c0,0.244,0,0.488,0,0.976c0,0.244,0.244,0.488,0.244,0.732c0.244,0.244,0.488,0.488,0.732,0.732
			c0.244,0.244,0.488,0.244,0.976,0.244c0.244,0,0.488,0,0.732,0c12.441,0,24.882,0,37.324,0c0.488,0,0.976,0,1.22,0
			c0.488,0,0.732-0.244,0.976-0.488c0.244-0.244,0.488-0.488,0.732-0.732c0.244-0.244,0.244-0.488,0.488-0.732
			c4.391-14.149,8.538-28.298,12.929-42.446c0.244-0.976,0.488-1.952,0.976-3.659c0.244-1.708,0.488-3.903,0.732-5.611
			s0.244-3.171,0-4.879c-0.244-1.708-0.488-3.903-0.732-5.367c-0.244-1.708-0.732-2.927-0.976-3.903
			c-0.488-0.976-0.976-1.952-1.708-3.171s-1.708-2.683-2.683-3.903c-0.976-1.22-2.195-2.439-3.659-3.659s-3.171-2.439-4.879-3.171
			c-1.708-0.976-3.171-1.464-4.635-1.952c-1.464-0.488-2.927-1.22-4.879-1.708c-1.708-0.488-3.903-0.732-7.318-0.976
			c-3.171-0.244-7.562-0.244-11.221,0c-3.659,0.244-6.586,0.488-9.026,0.732c-2.683,0.244-4.879,0.732-6.83,1.22
			c-2.195,0.488-4.147,0.976-6.099,1.464c-1.952,0.488-4.147,0.976-6.099,1.464c-2.195,0.244-4.391,0.244-5.855,0.244
			c-1.464-0.244-2.439-0.488-3.659-0.732s-2.439-0.488-3.659-0.732s-2.195-0.488-3.659-0.732c-1.22-0.244-2.927-0.244-4.635-0.244
			S345.19,99.401,343.238,99.401L343.238,99.401z"/>
		<path id="XMLID_8_" fill="#FB0102" d="M816.247,97.937c-0.244,0-0.488,0-0.732,0c-0.244,0-0.488,0.244-0.732,0.244
			c-0.244,0.244-0.488,0.244-0.488,0.488c-0.244,0.244-0.244,0.244-0.488,0.488c0,0.244-0.244,0.488-0.244,0.732
			c-8.294,26.834-16.344,53.424-24.638,80.258c0,0.244,0,0.488,0,0.732c0,0.244,0,0.488,0.244,0.732
			c0,0.244,0.244,0.488,0.488,0.488c0.244,0.244,0.488,0.244,0.732,0.244c0.244,0,0.488,0,0.732,0c12.685,0,25.614,0,38.299,0
			c0.244,0,0.732,0,0.976-0.244c0.244,0,0.488-0.244,0.732-0.488c0.244-0.244,0.488-0.488,0.488-0.732
			c0-0.244,0.244-0.488,0.244-0.732c8.294-26.834,16.832-53.912,25.126-80.746c0-0.244,0-0.244,0-0.488c0-0.244,0-0.244,0-0.488
			c0-0.244-0.244-0.488-0.244-0.488c-0.244-0.244-0.244-0.244-0.488-0.244c-0.244,0-0.488,0-0.732-0.244c-0.244,0-0.488,0-0.732,0
			C841.862,97.693,828.933,97.693,816.247,97.937L816.247,97.937z"/>
		<path id="XMLID_7_" fill="#FB0102" d="M840.398,57.442c13.661-2.195,25.126,3.415,25.614,12.441
			c0.488,9.026-10.002,18.052-23.663,20.247s-25.126-3.415-25.614-12.441C816.247,68.664,826.737,59.638,840.398,57.442z"/>
		<path id="XMLID_6_" fill="#FB0102" d="M746.235,135.505c-2.927,9.514-8.294,27.322-13.905,45.374c0,0.244,0,0.244,0,0.488
			s0,0.488,0.244,0.732c0.244,0.244,0.488,0.488,0.488,0.488c0.244,0,0.488,0.244,0.488,0.244c0.244,0,0.244,0,0.488,0
			c12.685,0,25.37,0,38.299,0c0.244,0,0.488,0,0.732,0c0.244,0,0.488,0,0.488-0.244c0.244,0,0.488-0.244,0.732-0.244
			c0.244-0.244,0.488-0.244,0.732-0.488c0.244-0.244,0.244-0.488,0.488-0.732c8.538-27.078,16.832-54.156,25.37-81.234
			c0-0.244,0.244-0.732,0.244-0.976c0-0.244-0.244-0.488-0.488-0.732s-0.488-0.244-0.732-0.244c-4.635,0-9.27,0-12.441-0.244
			c-3.171-0.244-4.635-0.488-6.099-0.732c-1.464-0.244-2.683-0.732-4.147-0.976c-1.464-0.488-2.927-0.976-4.147-1.464
			c-1.22-0.488-2.439-0.732-4.147-1.22s-4.147-0.976-6.099-1.464c-1.952-0.488-3.659-0.732-5.855-0.976
			c-2.195-0.244-5.123-0.488-8.05-0.732c-2.683-0.244-5.367-0.244-8.05,0c-2.683,0.244-5.611,0.488-7.806,0.732
			c-2.195,0.244-3.659,0.732-5.367,0.976c-1.464,0.488-3.171,0.976-4.635,1.464c-1.464,0.488-2.927,1.22-4.635,1.952
			c-1.464,0.732-3.171,1.464-4.879,2.439c-1.708,0.976-3.659,1.952-5.611,3.415c-1.952,1.464-3.903,2.927-5.855,4.879
			c-1.952,1.708-3.903,3.659-5.855,5.611s-3.659,4.147-5.611,6.83c-1.708,2.683-3.415,5.611-4.879,8.294
			c-1.464,2.683-2.683,5.123-3.659,7.318c-0.976,2.195-1.708,4.391-2.683,7.074c-0.732,2.927-1.708,6.587-1.952,9.514
			c-0.488,3.171-0.488,5.611-0.244,7.562c0.244,1.952,0.488,3.415,0.732,4.879c0.244,1.22,0.488,2.439,0.976,3.415
			c0.244,0.976,0.488,1.952,0.976,2.927c0.244,0.976,0.732,1.708,1.22,2.683s0.976,1.708,1.708,2.683
			c0.732,0.976,1.464,1.708,2.195,2.439c0.732,0.732,1.22,1.22,1.952,1.952c0.732,0.488,1.708,1.22,2.683,1.708
			c0.976,0.488,2.195,1.22,3.659,1.708c1.464,0.488,2.927,0.732,4.391,0.976c1.464,0.244,3.171,0.244,4.635,0.244
			s2.927,0,4.147-0.244c1.22-0.244,2.439-0.488,3.659-0.976c1.22-0.488,2.683-0.976,4.147-1.708c1.22-0.488,2.439-1.22,3.903-1.952
			c1.22-0.732,2.683-1.708,4.147-2.439c1.22-0.976,2.439-1.708,3.659-2.927c1.22-0.976,2.439-2.195,3.171-3.171
			c0.976-0.976,1.464-1.952,2.195-2.683c0.488-0.976,1.22-1.708,1.708-2.927c0.488-0.976,1.22-2.195,1.708-3.415
			c0.488-1.22,0.732-2.439,0.976-3.415c-0.488,0.244-1.22,0.732-1.952,0.976s-1.708,0.488-3.171,0.976
			c-1.464,0.488-3.415,0.976-5.123,1.22s-3.171,0.244-4.391,0.244c-1.22-0.244-2.195-0.488-2.927-0.976
			c-0.976-0.488-1.952-0.976-2.683-1.708c-0.732-0.732-1.464-1.708-1.952-2.683c-0.488-0.976-0.732-1.952-0.732-3.415
			s0-3.415,0-4.879c0.244-1.708,0.488-2.927,0.732-4.391c0.244-1.464,0.732-2.683,0.976-4.147c0.488-1.464,0.976-2.927,1.708-4.635
			c0.732-1.708,1.708-3.415,2.683-5.123c0.976-1.708,2.195-3.659,3.903-5.367c1.708-1.952,3.659-3.903,5.611-5.367
			c1.952-1.464,3.415-2.439,4.879-2.927s2.927-0.976,4.391-0.976c1.464-0.244,2.683-0.244,4.147,0
			c1.22,0.244,2.439,0.488,3.415,0.976s1.464,0.976,1.952,1.464c0.488,0.488,0.976,1.22,1.22,1.952s0.488,1.708,0.488,2.439
			c0,0.976,0,1.708,0,2.683C749.163,125.259,749.163,126.235,746.235,135.505L746.235,135.505z"/>
		<path id="XMLID_5_" fill="#FB0102" d="M870.647,97.937c-8.538,27.322-16.832,54.4-25.37,81.722c0,0.244-0.244,0.732-0.244,0.976
			c0,0.244,0,0.732,0.244,0.976s0.488,0.488,0.732,0.732c0.244,0.244,0.732,0.244,0.976,0.244s0.488,0,0.732,0
			c11.953,0,23.663,0,35.616,0c0.244,0,0.488,0,0.976,0c0.488,0,0.976-0.244,1.464-0.488c0.488-0.244,0.976-0.732,1.464-1.22
			c0.244-0.488,0.488-0.976,0.732-1.708c3.659-12.929,7.562-26.102,11.221-39.275c0.488-0.976,0.732-2.195,1.22-3.171
			c0.488-0.976,0.976-1.708,1.464-2.195c0.488-0.732,1.22-1.22,1.708-1.708c0.488-0.488,1.22-0.976,1.708-1.22
			c0.732-0.488,1.22-0.732,2.195-0.976c0.732-0.244,1.708-0.488,2.683-0.732c0.976-0.244,1.708-0.244,2.683-0.244
			s1.708,0,2.439,0.244s1.22,0.244,1.952,0.488c0.732,0.244,1.464,0.488,2.195,0.732c6.587-8.05,13.173-16.1,19.76-23.907
			c-0.244-0.976-0.488-1.708-0.976-2.439c-0.488-0.976-0.976-1.708-1.708-2.439c-0.732-0.976-1.708-1.708-2.927-2.439
			c-0.976-0.732-2.195-1.22-3.171-1.708c-1.22-0.488-2.195-0.732-3.659-0.976c-1.464-0.244-3.171-0.732-5.367-0.732
			s-5.367,0-8.294,0.244c-2.683,0.244-5.123,0.732-7.562,0.976c-2.439,0.244-4.635,0.732-7.074,0.976
			c-2.195,0.244-4.635,0.488-6.83,0.488s-4.635,0-6.343-0.244c-1.708-0.244-2.927-0.488-5.367-0.488
			C877.478,97.937,874.062,97.937,870.647,97.937L870.647,97.937z"/>
		<path fill="#FB0102" d="M649.389,62.565c-0.488,2.195-2.683,5.123-3.659,7.074c-0.732-0.488-1.708-1.952-2.439-2.683
			c-0.976-0.976-1.708-1.952-2.195-3.171c1.708,0,3.171,0,4.391-0.244C647.438,63.297,647.925,62.809,649.389,62.565z
			 M596.941,207.712L596.941,207.712c-0.244-1.464-0.488-3.171-0.732-4.879c1.464,0,2.927-0.244,4.635-0.244l0,0l0,0
			c2.439-0.244,6.587-0.732,13.417-4.391c4.147-2.195,10.002-8.05,12.685-11.953c4.391-6.099,6.587-13.905,6.587-21.711l0,0l0,0
			v-0.244c0-1.952-0.244-4.147-0.488-6.099c0-0.244,0-0.244,0-0.488l0,0c-0.732-3.659-1.708-7.074-3.415-10.49
			c-4.879-10.002-14.149-16.832-24.638-19.76c-2.195-0.488-4.391-0.976-6.587-1.22h-0.488h-0.244
			c-6.343-0.488-12.685,0.488-18.784,3.171c-0.488,0.244-1.22,0.488-1.708,0.732c-4.635,2.439-8.782,5.611-11.953,9.514l0,0
			l-0.732-0.244c-11.953-5.855-29.761-39.031-33.908-54.156c-5.123-18.784-8.538-50.741-4.147-70.012
			c0.732-2.927,1.464-7.318,1.708-8.782c-12.197-7.806-28.786,2.683-30.737,26.59c-2.927,38.299,20.491,78.55,47.813,102.213
			c3.903,3.415,7.074,5.611,9.27,7.318l5.855,4.391c-0.976,1.708-1.708,3.415-2.195,5.123c-4.147-2.439-8.05-4.879-12.441-8.294
			c-3.903-2.927-7.562-5.855-11.465-9.026c-8.294-7.074-12.685-11.953-20.004-20.735c-9.27-10.734-25.126-37.568-26.102-56.107
			c-18.052-2.439-29.273,31.713,4.635,62.694c21.955,20.247,36.104,26.102,63.914,37.811c-0.244,1.464-0.488,2.927-0.488,4.147
			v0.488c-4.391,0.488-20.979-4.879-25.858-6.587c-43.422-15.856-53.424-34.64-58.547-40.007
			c-7.074,5.123-8.294,19.516-1.952,28.054c10.734,14.149,33.664,22.443,51.716,24.395c11.221,1.22,19.76,1.708,30.981,1.22
			l4.147-0.488c0.244,1.952,0.732,3.903,1.22,5.611l-0.732,0.244l-0.732-0.244l0,0c-23.663,4.879-42.202,3.903-64.889-3.415
			c-6.343-1.952-14.881-7.074-15.856-7.562c-1.952,1.708-5.855,30.493,33.177,30.737c9.758,0,19.76-1.952,28.054-4.635
			c8.05-2.683,15.125-5.611,23.419-8.782c0.732,1.464,1.708,2.927,2.683,4.391l-1.22,0.976c-0.244,0.244-0.488,0.488-0.976,0.732
			c-5.367,4.635-18.784,10.246-25.614,12.441c-15.369,4.879-22.199,4.147-37.568,2.439c1.952,20.247,24.638,17.808,37.568,12.685
			c13.173-5.123,21.711-14.881,31.469-24.638c0.976,1.22,2.195,2.195,3.415,3.171c-0.732,1.952-1.708,3.415-2.927,4.879
			c-5.611,8.294-19.516,18.784-27.81,22.687c-8.538,3.903-13.417,4.147-14.637,4.391c0.732,5.367,6.343,8.294,12.929,8.05
			c19.516-0.244,32.201-25.126,35.86-32.445l1.952-4.147c1.22,0.732,2.683,1.464,4.147,1.952l-1.464,4.879
			c0,0.244-0.244,0.488-0.244,0.732l0,0c-0.976,2.683-2.439,6.099-5.123,10.734c-10.002,16.832-19.028,19.272-20.004,19.76
			c2.195,3.903,9.27,5.123,14.393,2.927c12.685-5.123,14.637-23.907,16.832-34.396l0.488-2.927c1.464,0.488,2.683,0.732,4.147,0.976
			v0.244c2.439,21.955-7.562,32.445-8.05,33.664c6.83,1.22,12.685,0,15.612-5.123c2.927-4.879,1.464-13.417,0.732-19.516
			c6.83-0.244,14.881-2.683,20.004-4.391c16.588-5.611,27.566-19.516,31.957-36.104c0.488-1.464,1.22-3.171,1.464-4.879
			c2.683,0,5.611-0.244,5.611-3.659c0-0.732-0.732-2.927-0.976-3.415c-0.976-1.708-5.367-4.391-5.367-9.026
			c0-0.976,0.488-2.683,0.732-3.659c2.195-0.244,5.123-2.439,5.123-4.879c0-3.659-6.099-5.367-8.294-7.562
			c-2.195-2.195-4.879-7.806-4.879-10.978c0-1.952-0.976-7.074,1.952-7.074c3.171,0,16.1,6.587,16.1-13.173
			c-4.879,2.439-8.538,3.903-13.661,0c-5.855-4.635-0.976-20.491,10.002-20.491c2.439,0,4.147,0.488,5.367,1.952
			c0.976,1.22,1.708,3.659,1.951,5.611c2.195-1.464,3.903-3.415,5.367-5.611c0.976-1.464,2.927-6.587,2.927-8.782
			c0-1.464-0.732-1.952-0.732-3.171c0.244-1.952,2.683-4.391-0.488-6.587c-2.683-1.708-7.806,1.464-16.588-2.927
			c-1.22-0.488-2.439-1.464-3.415-1.708c0-2.195,0.732-2.683,0.732-4.879c0-3.415-10.978-7.806-14.637-10.246
			c-2.683-1.708-4.879-3.171-7.074-5.367c-2.927-2.927-4.391-5.367-4.635-6.83c-0.488-0.244-1.22-0.488-1.952-0.488
			c-3.171,0-5.855,2.439-6.343,5.123c-0.732-0.732-1.22-1.22-2.195-1.952s-2.195-1.22-3.171-1.708
			c-7.318-3.171-12.197-3.415-20.003-7.562c-2.927,1.952-5.367,5.123-4.391,9.27c-3.659-1.952-7.074-1.708-10.978-0.976
			c-2.439,0.244-10.002,1.464-11.953,1.22c-1.951,0-4.635-0.244-6.099-0.732c-0.244,2.195-1.22,4.147-1.22,6.83
			c0,2.683,0.732,4.391,1.22,5.123c-4.635,0-6.83,0-10.49,0.732s-6.587,0.976-10.246,0.732c-1.22,4.879-1.22,7.074,1.22,11.953
			c0.976,1.708,2.927,4.879,3.903,5.611c-1.952,0.732-5.611,1.464-7.562,1.708c0,5.611,2.439,13.661,3.903,18.784
			c4.391,15.612,11.953,28.542,21.711,40.983c0.976,1.22,1.952,2.195,2.927,3.171c0.976-0.976,1.708-1.464,2.927-2.439
			c9.026-7.074,17.564-10.002,30.005-10.002c5.855,0,12.929,2.195,17.076,4.147c5.367,2.683,8.538,4.879,12.685,9.026
			c5.855,5.855,9.27,12.685,11.221,20.735c4.147,16.344-1.708,35.616-15.369,45.374c-2.439,1.708-4.635,2.927-7.318,4.391
			C611.09,205.517,603.284,207.469,596.941,207.712L596.941,207.712z M604.747,57.442c0,1.464,1.464,4.147,0.732,4.391
			c-3.171-0.244-4.879-3.415-4.879-6.83c0-6.587,11.953-8.782,13.905-0.488c-1.464-0.732-4.391-1.708-6.099-1.708
			C606.699,53.051,604.747,55.491,604.747,57.442L604.747,57.442z"/>
	</g>
</g>
</svg>
