<svg width="353" height="353" viewBox="0 0 353 353" fill="none" xmlns="http://www.w3.org/2000/svg">
<path d="M289.759 51.1645H275.861V28H252.696V51.1645H99.8101V28H76.6455V51.1645H62.7468C43.5874 51.1645 28 66.752 28 85.9114V289.759C28 308.919 43.5874 324.506 62.7468 324.506H289.759C308.919 324.506 324.506 308.919 324.506 289.759V85.9114C324.506 66.752 308.919 51.1645 289.759 51.1645ZM301.342 289.759C301.342 296.146 296.146 301.342 289.759 301.342H62.7468C56.3604 301.342 51.1645 296.146 51.1645 289.759V136.873H301.342V289.759ZM301.342 113.709H51.1645V85.9114C51.1645 79.5249 56.3604 74.3291 62.7468 74.3291H76.6455V97.4936H99.8101V74.3291H252.696V97.4936H275.861V74.3291H289.759C296.146 74.3291 301.342 79.5249 301.342 85.9114V113.709Z" fill="#209FAE"/>
<path d="M95.2114 161.215H72.0469V184.379H95.2114V161.215Z" fill="#209FAE"/>
<path d="M141.489 161.215H118.324V184.379H141.489V161.215Z" fill="#209FAE"/>
<path d="M187.832 161.215H164.668V184.379H187.832V161.215Z" fill="#209FAE"/>
<path d="M234.176 161.215H211.012V184.379H234.176V161.215Z" fill="#209FAE"/>
<path d="M280.52 161.215H257.355V184.379H280.52V161.215Z" fill="#209FAE"/>
<path d="M95.2114 207.492H72.0469V230.657H95.2114V207.492Z" fill="#209FAE"/>
<path d="M141.489 207.492H118.324V230.657H141.489V207.492Z" fill="#209FAE"/>
<path d="M187.832 207.492H164.668V230.657H187.832V207.492Z" fill="#209FAE"/>
<path d="M234.176 207.492H211.012V230.657H234.176V207.492Z" fill="#209FAE"/>
<path d="M95.2114 253.84H72.0469V277.004H95.2114V253.84Z" fill="#209FAE"/>
<path d="M141.489 253.84H118.324V277.004H141.489V253.84Z" fill="#209FAE"/>
<path d="M187.832 253.84H164.668V277.004H187.832V253.84Z" fill="#209FAE"/>
<path d="M234.176 253.84H211.012V277.004H234.176V253.84Z" fill="#209FAE"/>
<path d="M280.52 207.492H257.355V230.657H280.52V207.492Z" fill="#209FAE"/>
</svg>
