<svg width="421" height="422" viewBox="0 0 421 422" fill="none" xmlns="http://www.w3.org/2000/svg">
<path d="M268.582 223.975C268.582 223.975 321.698 256.782 321.78 256.782C325.562 259.166 330.742 257.933 333.127 254.068C335.511 250.204 334.278 245.106 330.496 242.722C330.496 242.722 277.38 209.915 277.297 209.915C273.515 207.53 268.335 208.763 265.951 212.628C263.484 216.492 264.8 221.672 268.582 223.975Z" fill="#3E3E3E"/>
<path d="M240.627 206.627C241.86 207.449 243.34 207.942 244.903 207.942C247.78 207.942 250.412 206.462 251.892 204.078C255.098 198.898 251.069 191.498 244.903 191.498C239.64 191.498 235.694 196.513 236.927 201.611C237.338 203.667 238.736 205.476 240.627 206.627Z" fill="#3E3E3E"/>
<path d="M99.9409 258.015C101.503 258.098 103.065 257.687 104.299 256.864C104.299 256.864 157.086 223.564 157.168 223.564C160.95 221.18 162.101 216 159.717 212.217C157.415 208.517 152.07 207.366 148.37 209.669C148.37 209.669 95.5831 242.969 95.5009 242.969C91.7186 245.353 90.5675 250.533 92.952 254.315C94.432 256.618 97.2276 257.933 99.9409 258.015Z" fill="#3E3E3E"/>
<path d="M180.601 207.284C184.383 207.284 187.754 204.57 188.659 200.87C189.81 195.772 185.863 190.839 180.601 190.839C176.819 190.839 173.448 193.552 172.625 197.252C171.474 202.35 175.421 207.284 180.601 207.284Z" fill="#3E3E3E"/>
<path d="M418.883 374.443C415.923 370.99 410.743 370.661 407.29 373.621C398.492 381.268 390.434 389.161 378.923 392.368C366.096 395.903 354.01 393.108 342.416 387.352L385.254 243.298C386.323 239.68 384.843 235.898 381.637 233.924L342.005 209.915V139.779C342.005 135.257 338.305 131.557 333.783 131.557H317.338V106.89C317.338 102.368 313.638 98.6675 309.116 98.6675H283.216V74.0006C283.216 69.4784 279.516 65.7783 274.993 65.7783H235.115V8.22229C235.115 3.70003 231.415 0 226.893 0H194.004C189.482 0 185.781 3.70003 185.781 8.22229V65.7783H145.903C141.381 65.7783 137.681 69.4784 137.681 74.0006V98.6675H111.781C107.259 98.6675 103.559 102.368 103.559 106.89V131.557H87.114C82.5917 131.557 78.8917 135.257 78.8917 139.779V209.915L39.2602 233.924C36.0535 235.898 34.5735 239.68 35.6424 243.298C35.6424 243.298 78.3984 387.023 78.3984 387.105C77.6583 384.639 64.5027 383.077 62.2004 382.748C38.2736 379.623 20.0201 391.628 2.83549 406.675C-0.617872 409.635 -0.946764 414.815 2.01326 418.268C4.89106 421.557 10.1533 422.05 13.6067 419.09C31.3668 403.632 51.4292 391.874 74.945 403.632C96.2407 414.239 118.194 418.844 140.394 407.168C158.237 397.794 175.504 389.654 195.402 399.11L215.875 408.895C233.389 417.281 253.451 417.035 270.8 408.401C281.489 403.057 292.342 395.903 304.594 395.081C316.598 394.259 328.192 398.699 338.716 403.961C352.612 410.95 368.892 412.266 383.856 408.072C397.588 404.126 407.619 395.41 418.143 386.201C421.515 383.077 421.926 377.897 418.883 374.443ZM327.205 380.774C327.287 378.225 304.182 378.225 302.62 378.39C288.313 379.87 275.98 387.27 263.4 393.519C248.518 400.919 233.224 398.781 218.671 391.874V155.302C218.671 154.913 219.097 154.673 219.43 154.875L367.659 244.695L327.205 380.774ZM325.56 199.884L239.884 148.001H325.56V199.884ZM202.226 16.4446H218.671V65.7783H202.226V16.4446ZM154.126 82.2229H266.771V98.6675H154.126V82.2229ZM120.003 115.112H300.894V131.557H120.003V115.112ZM95.3363 148.001H181.013L95.3363 199.884V148.001ZM201.467 154.874C201.8 154.672 202.226 154.912 202.226 155.302V384.145C202.226 382.665 190.468 379.952 188.988 379.623C174.681 376.499 159.306 378.472 146.314 385.297C136.941 390.23 127.814 396.068 117.043 397.383C117.043 397.383 117.043 397.383 116.961 397.383C110.712 398.123 104.216 397.712 98.1319 395.903L53.1559 244.613L201.467 154.874Z" fill="#3E3E3E"/>
</svg>
