<svg width="475" height="291" viewBox="0 0 475 291" fill="none" xmlns="http://www.w3.org/2000/svg">
<path d="M6 42.3178C6 23.9169 21.0363 9 39.5846 9H435.415C453.964 9 469 23.9169 469 42.3177V248.682C469 267.083 453.964 282 435.415 282H39.5846C21.0364 282 6 267.083 6 248.682V42.3178Z" fill="#F5F5F5"/>
<path fill-rule="evenodd" clip-rule="evenodd" d="M41.5615 0H433.439C456.392 0 475 18.7324 475 41.84V249.16C475 272.268 456.392 291 433.439 291H41.5615C18.6077 291 0 272.268 0 249.16V41.84C0 18.7324 18.6077 0 41.5615 0ZM41.5615 8.368C23.1985 8.368 8.31229 23.3539 8.31229 41.84V249.16C8.31229 267.646 23.1985 282.632 41.5615 282.632H433.439C451.802 282.632 466.688 267.646 466.688 249.16V41.84C466.688 23.3539 451.802 8.368 433.439 8.368H41.5615Z" fill="#DEDEDE"/>
<path d="M64 51.3961C64 46.759 67.8239 43 72.5408 43H114.459C119.176 43 123 46.7591 123 51.3961V92.6039C123 97.241 119.176 101 114.459 101H72.5408C67.8239 101 64 97.2409 64 92.6039V51.3961Z" fill="#C4C4C4"/>
<path d="M107 121.541C107 116.824 110.759 113 115.396 113H156.604C161.241 113 165 116.824 165 121.541V163.459C165 168.176 161.241 172 156.604 172H115.396C110.759 172 107 168.176 107 163.459V121.541Z" fill="#C4C4C4"/>
<path d="M138 51.3961C138 46.759 141.759 43 146.396 43H187.604C192.241 43 196 46.7591 196 51.3961V92.6039C196 97.241 192.241 101 187.604 101H146.396C141.759 101 138 97.2409 138 92.6039V51.3961Z" fill="#C4C4C4"/>
<path d="M208 51.3961C208 46.759 211.759 43 216.396 43H257.604C262.241 43 266 46.7591 266 51.3961V92.6039C266 97.241 262.241 101 257.604 101H216.396C211.759 101 208 97.2409 208 92.6039V51.3961Z" fill="#C4C4C4"/>
<path d="M181 121.541C181 116.824 184.565 113 188.962 113H228.038C232.435 113 236 116.824 236 121.541V163.459C236 168.176 232.435 172 228.038 172H188.962C184.565 172 181 168.176 181 163.459V121.541Z" fill="#C4C4C4"/>
<path d="M123 212.888C123 210.189 125.251 208 128.027 208H359.973C362.749 208 365 210.189 365 212.888V243.112C365 245.811 362.749 248 359.973 248H128.027C125.251 248 123 245.811 123 243.112V212.888Z" fill="#C4C4C4"/>
<path d="M64 212.888C64 210.189 66.2677 208 69.065 208H101.935C104.732 208 107 210.189 107 212.888V243.112C107 245.811 104.732 248 101.935 248H69.065C66.2677 248 64 245.811 64 243.112V212.888Z" fill="#C4C4C4"/>
<path d="M380 212.888C380 210.189 382.268 208 385.065 208H417.935C420.732 208 423 210.189 423 212.888V243.112C423 245.811 420.732 248 417.935 248H385.065C382.268 248 380 245.811 380 243.112V212.888Z" fill="#C4C4C4"/>
<path d="M279 51.3961C279 46.759 282.759 43 287.396 43H328.604C333.241 43 337 46.7591 337 51.3961V92.6039C337 97.241 333.241 101 328.604 101H287.396C282.759 101 279 97.2409 279 92.6039V51.3961Z" fill="#C4C4C4"/>
<path d="M251 121.541C251 116.824 254.759 113 259.396 113H300.604C305.241 113 309 116.824 309 121.541V163.459C309 168.176 305.241 172 300.604 172H259.396C254.759 172 251 168.176 251 163.459V121.541Z" fill="#C4C4C4"/>
<path d="M352 51.3961C352 46.759 355.759 43 360.396 43H401.604C406.241 43 410 46.7591 410 51.3961V92.6039C410 97.241 406.241 101 401.604 101H360.396C355.759 101 352 97.2409 352 92.6039V51.3961Z" fill="#C4C4C4"/>
<path d="M322 121.541C322 116.824 325.759 113 330.396 113H371.604C376.241 113 380 116.824 380 121.541V163.459C380 168.176 376.241 172 371.604 172H330.396C325.759 172 322 168.176 322 163.459V121.541Z" fill="#C4C4C4"/>
</svg>
