<svg width="499" height="196" viewBox="0 0 499 196" fill="none" xmlns="http://www.w3.org/2000/svg">
<ellipse cx="249.5" cy="151" rx="249.5" ry="26" fill="url(#paint0_linear)"/>
<ellipse cx="313.5" cy="161" rx="76.5" ry="9" fill="url(#paint1_linear)"/>
<ellipse cx="194.5" cy="161" rx="76.5" ry="9" fill="url(#paint2_linear)"/>
<path d="M152.438 153.091C152.438 153.091 150.099 114.245 175.101 108.004L192.046 112.788L189.188 128.025C189.188 128.025 188.356 131.25 191.631 132.758C194.853 134.214 197.036 134.422 197.036 134.422C197.036 134.422 201.299 132.134 200.831 130.626C200.363 129.117 201.611 120.693 201.611 120.693L247.249 125.685C247.249 125.685 262.479 132.55 250.368 146.227L218.712 158.187L221.051 160.215L224.17 165.52C224.17 165.52 220.323 172.124 217.464 173.06C214.606 173.996 209.46 175.868 209.46 175.868C209.46 175.868 206.653 173.788 206.081 171.552C205.509 169.316 202.39 163.544 202.39 163.544L197.452 165.364L195.165 167.548H192.774L188.928 161.671L187.108 158.031L182.222 153.611L179.052 152.051C179.052 152.051 171.982 153.299 172.918 155.951C173.854 158.603 174.217 159.799 174.217 159.799L166.628 161.203C166.628 161.203 158.935 162.972 155.869 159.175C152.802 155.327 152.438 153.091 152.438 153.091Z" fill="white"/>
<path d="M195.581 55.533L196.933 56.365C196.933 56.365 200.311 56.729 201.507 56.469C202.703 56.261 206.133 55.845 207.173 55.845C208.264 55.845 211.851 58.8092 212.423 59.4852C212.994 60.1612 215.022 64.7895 215.022 64.7895L217.465 73.11C217.465 73.11 218.452 74.9822 218.14 75.8142C217.829 76.6463 214.19 79.8184 213.462 80.3385C212.735 80.8585 209.356 82.7826 209.356 82.7826L207.745 78.4144L202.806 87.8789C202.806 87.8789 197.92 100.204 197.661 100.88C197.401 101.556 195.581 107.588 195.581 107.588L190.539 105.04L183.574 101.712L177.129 98.8516L169.592 95.6794L164.913 93.7553L166.993 88.919L168.76 84.8108C168.76 84.8108 167.408 83.5107 166.837 83.0947C166.265 82.6786 162.47 80.7025 161.327 80.7025C160.131 80.7025 158.208 80.7025 158.208 80.7025L162.418 71.2379C162.418 71.2379 165.849 63.8535 166.369 63.0214C166.889 62.1894 169.799 60.1092 170.787 59.7452C171.827 59.3292 174.841 58.9132 176.037 58.7572C177.233 58.6011 181.027 57.5611 181.027 57.5611C181.027 57.5611 182.119 60.9413 182.638 61.9293C183.158 62.9174 185.029 65.6216 185.549 66.0896C186.069 66.5576 189.084 68.4298 190.487 68.5338C191.891 68.6378 195.166 68.2737 196.153 67.5977C196.153 67.5977 198.7 65.3616 198.648 64.0095C198.596 62.6574 197.245 59.0172 196.933 58.6532C196.673 58.2891 195.373 57.4051 195.373 57.4051L195.581 55.533Z" fill="black"/>
<path d="M159.923 105.04L175.049 108.004C175.049 108.004 169.227 116.065 168.136 117.677C167.044 119.289 161.223 128.649 160.495 129.95C159.819 131.198 155.765 139.258 155.349 140.298C154.933 141.338 152.49 147.943 152.334 149.971C152.178 151.999 151.866 150.439 151.866 150.439C151.866 150.439 151.294 146.747 151.294 145.187C151.294 143.626 152.23 133.798 152.49 132.498C152.75 131.198 155.505 119.289 155.817 118.301C156.077 117.313 158.208 110.916 158.208 110.916L159.923 105.04Z" fill="black"/>
<path d="M205.613 50.2286C205.093 50.2286 204.573 50.2286 203.95 50.1766C197.868 49.7085 191.527 43.6762 190.123 42.2721C187.16 43.7802 183.21 42.4281 180.975 40.1919C179.259 38.4238 178.843 36.3437 179.883 34.7316C180.715 33.4835 182.014 32.7555 183.626 32.6515C185.549 32.5475 187.732 33.3795 188.772 34.6796C188.98 34.8356 188.98 35.1996 188.72 35.3556C188.512 35.5637 188.148 35.5117 187.992 35.3036C187.108 34.2636 185.289 33.5875 183.678 33.6395C182.794 33.6915 181.546 34.0036 180.767 35.2516C179.987 36.4477 180.351 38.0078 181.702 39.4119C183.73 41.492 187.368 42.6881 189.915 41.128C190.123 41.024 190.383 41.024 190.539 41.232C190.591 41.284 197.608 48.6165 204.002 49.1365C210.343 49.6565 211.799 47.3684 212.942 41.752C214.086 36.1357 206.029 15.7504 205.977 15.5424C205.873 15.2824 205.977 14.9704 206.289 14.8664C206.549 14.7624 206.861 14.8664 206.964 15.1784C207.276 16.0105 215.177 36.0837 214.034 42.0121C212.89 47.4724 211.279 50.2286 205.613 50.2286Z" fill="black"/>
<path d="M196.985 134.422C196.933 134.422 196.881 134.422 196.829 134.422C195.217 134.318 193.502 134.058 191.787 133.798L191.475 133.746C190.799 133.642 190.175 133.278 189.707 132.654C188.876 131.51 188.564 129.482 188.928 127.141C189.188 125.529 190.695 115.025 191.007 112.737C189.5 111.332 171.722 107.588 155.453 104.728C153.166 104.312 151.502 103.324 150.619 101.816C149.839 100.412 149.787 98.6957 150.515 96.8756C151.139 95.2115 154.465 87.671 157.74 80.3906C157.74 80.3906 157.74 80.3906 157.74 80.3386C160.963 73.1101 164.081 66.1937 164.289 65.6217C166.94 59.3813 170.579 58.8613 174.841 58.2892C176.868 58.0292 178.948 57.7172 181.235 56.8331C186.173 54.857 188.772 49.7607 188.772 42.0122C188.772 41.7002 188.98 41.4922 189.292 41.4922C189.603 41.4922 189.811 41.7002 189.811 42.0122C189.811 52.3609 185.341 56.3131 181.599 57.8212C179.208 58.7572 176.972 59.0693 174.997 59.3813C170.943 59.9533 167.72 60.3693 165.277 66.0897C165.225 66.2457 162.21 72.9541 159.039 80.1306C163.406 80.2866 167.044 81.8467 169.227 84.4468C169.331 84.6028 169.383 84.8108 169.279 84.9669C168.5 86.683 166.317 91.8313 165.641 93.4434C167.668 94.2754 175.413 97.4476 183.158 100.932C201.455 109.252 201.663 111.228 201.715 111.957C202.39 118.613 202.079 122.149 201.767 125.269C201.715 126.049 201.611 126.777 201.559 127.505C201.403 130.002 200.415 132.238 198.96 133.486C198.336 134.162 197.608 134.422 196.985 134.422ZM158.52 81.1706C155.349 88.3471 152.074 95.6795 151.45 97.2916C150.879 98.7997 150.879 100.204 151.502 101.348C152.178 102.596 153.634 103.428 155.609 103.74C155.713 103.74 164.757 105.352 173.698 107.172C192.254 110.968 192.098 112.009 191.995 112.737C191.735 114.765 190.175 125.685 189.915 127.297C189.603 129.326 189.811 131.094 190.487 132.03C190.747 132.394 191.111 132.654 191.579 132.706L191.891 132.758C193.554 132.966 195.269 133.226 196.881 133.33C197.296 133.382 197.816 133.174 198.284 132.706C199.22 131.874 200.311 130.054 200.519 127.401C200.571 126.621 200.623 125.893 200.727 125.113C200.987 122.045 201.299 118.561 200.675 112.009C200.467 109.668 181.962 101.036 164.757 94.1194C164.601 94.0674 164.549 93.9634 164.445 93.8594C164.393 93.7554 164.393 93.5994 164.445 93.4434C164.497 93.3914 167.148 87.099 168.188 84.7588C166.057 82.5747 162.626 81.2226 158.52 81.1706Z" fill="black"/>
<path d="M181.754 33.6396C181.235 32.7555 176.141 23.291 175.777 20.3268C175.413 17.3626 177.492 16.1665 179.207 16.7906C179.467 14.0864 179.467 11.5902 181.754 9.3541C183.99 7.11796 196.049 1.1376 197.66 0.35755C200.415 -1.04654 201.299 1.91765 198.856 5.19385C201.091 5.03784 201.922 4.56981 203.274 4.04978C206.913 2.54168 208.108 5.08984 208.42 8.15803C208.784 11.3822 209.615 16.1145 207.068 16.8946C205.353 14.3464 202.962 14.0344 201.403 14.2944C199.843 14.5544 189.863 19.4947 188.408 18.3507C188.772 21.2108 186.277 23.1869 187.16 25.8911C187.732 27.6592 190.175 32.8595 191.111 35.0437C190.123 35.1477 189.291 35.3037 188.564 35.4077C186.381 32.5475 182.69 33.4316 181.754 33.6396Z" fill="black"/>
<path d="M204.834 36.9677C204.574 36.9677 204.314 36.7597 204.21 36.4997C204.106 36.1357 204.314 35.7717 204.678 35.7197C204.678 35.7197 205.249 35.5636 205.457 35.0956C205.561 34.8356 205.561 34.4196 205.301 34.0035C204.626 32.5475 201.975 26.6711 201.871 26.4111C201.715 26.0991 201.871 25.683 202.183 25.527C202.494 25.371 202.91 25.527 203.066 25.839C203.118 25.891 205.821 31.9754 206.497 33.3795C206.861 34.2116 206.913 34.9396 206.653 35.6156C206.237 36.6037 205.197 36.9157 205.093 36.9677C204.99 36.9677 204.886 36.9677 204.834 36.9677Z" fill="black"/>
<path d="M197.089 29.9473C197.089 30.6753 196.465 31.2994 195.737 31.2994C195.009 31.2994 194.386 30.6753 194.386 29.9473C194.386 29.2193 195.009 28.5952 195.737 28.5952C196.465 28.5952 197.089 29.1672 197.089 29.9473Z" fill="black"/>
<path d="M207.224 26.4632C207.224 27.1912 206.601 27.8152 205.873 27.8152C205.145 27.8152 204.521 27.1912 204.521 26.4632C204.521 25.7351 205.145 25.1111 205.873 25.1111C206.653 25.1631 207.224 25.7351 207.224 26.4632Z" fill="black"/>
<path d="M191.891 28.6993C191.839 28.6993 191.735 28.6993 191.683 28.6993C191.111 28.5953 190.747 28.0233 190.851 27.4512C191.059 26.4632 192.151 24.7991 194.23 24.5911C194.802 24.5391 195.321 24.9551 195.373 25.5271C195.425 26.0992 195.01 26.6192 194.438 26.6712C193.45 26.7752 192.93 27.6072 192.878 27.9193C192.774 28.3353 192.359 28.6993 191.891 28.6993Z" fill="black"/>
<path d="M202.91 23.2909C202.65 23.2909 202.391 23.1869 202.183 22.9788C201.767 22.5628 201.819 21.8868 202.235 21.5228C202.858 20.9507 204.314 20.1707 206.133 20.8467C206.653 21.0547 206.913 21.6788 206.705 22.1988C206.497 22.7188 205.873 22.9788 205.353 22.7708C204.366 22.3548 203.69 22.9788 203.69 22.9788C203.43 23.1869 203.17 23.2909 202.91 23.2909Z" fill="black"/>
<path d="M207.225 41.752C206.861 41.752 206.549 41.44 206.549 41.0759C206.549 40.0879 206.913 39.2038 207.536 38.6838C208.056 38.2678 208.68 38.1118 209.356 38.2158C209.72 38.2678 209.927 38.6318 209.876 38.9438C209.824 39.3078 209.46 39.5159 209.148 39.4638C208.836 39.4118 208.576 39.4638 208.368 39.6199C208.056 39.8799 207.848 40.4519 207.848 41.0239C207.848 41.44 207.588 41.752 207.225 41.752Z" fill="black"/>
<path d="M195.685 62.3974C195.425 62.3974 195.217 62.2414 195.165 61.9814C194.282 56.7811 195.269 52.1008 198.128 47.6805C198.284 47.4205 198.596 47.3685 198.856 47.5245C199.116 47.6805 199.168 47.9926 199.012 48.2526C196.309 52.4648 195.373 56.9371 196.205 61.8254C196.257 62.0854 196.049 62.3974 195.789 62.4494C195.737 62.3974 195.685 62.3974 195.685 62.3974Z" fill="black"/>
<path d="M232.954 125.009C232.747 125.009 232.539 124.853 232.435 124.645C232.279 124.125 215.905 70.0418 214.502 65.0495C213.046 59.9532 209.616 56.677 207.121 56.417C206.185 56.313 204.886 56.521 203.534 56.781C200.831 57.1971 197.816 57.7171 195.425 56.417C195.165 56.261 195.061 55.949 195.217 55.689C195.373 55.429 195.685 55.3249 195.945 55.481C198.024 56.625 200.883 56.157 203.378 55.741C204.782 55.533 206.133 55.2729 207.225 55.377C210.499 55.689 214.086 59.6932 215.489 64.7375C216.893 69.7298 233.266 123.761 233.422 124.333C233.526 124.593 233.37 124.905 233.058 124.957C233.058 125.009 233.006 125.009 232.954 125.009Z" fill="black"/>
<path d="M210.603 175.972C210.187 175.972 209.824 175.92 209.408 175.868C209.356 175.868 209.356 175.868 209.304 175.816C206.549 174.672 205.249 171.968 204.989 169.836C204.937 169.576 205.145 169.316 205.457 169.264C208.784 168.796 214.917 166.924 219.076 159.383C219.128 159.227 219.284 159.175 219.44 159.123C219.596 159.071 219.752 159.123 219.856 159.227C222.299 160.995 223.546 162.711 224.17 165.208C224.17 165.312 224.17 165.364 224.17 165.468C222.766 170.46 215.697 175.972 210.603 175.972ZM209.668 174.88C209.979 174.932 210.291 174.984 210.603 174.984C215.177 174.984 221.779 169.888 223.078 165.364C222.559 163.335 221.571 161.931 219.7 160.475C215.541 167.6 209.668 169.68 206.133 170.252C206.341 171.396 207.173 173.788 209.668 174.88Z" fill="black"/>
<path d="M186.381 149.971C186.173 149.971 185.965 149.867 185.913 149.659C185.809 149.399 185.965 149.087 186.225 148.983L191.787 146.902C192.047 146.798 192.358 146.954 192.462 147.214C192.566 147.474 192.41 147.786 192.15 147.891L186.589 149.971C186.537 149.971 186.433 149.971 186.381 149.971Z" fill="black"/>
<path d="M209.72 141.234C209.512 141.234 209.304 141.13 209.252 140.922C209.148 140.662 209.304 140.35 209.564 140.246L228.068 133.33C228.328 133.226 228.64 133.382 228.744 133.642C228.848 133.902 228.692 134.214 228.432 134.318L209.928 141.234C209.824 141.234 209.772 141.234 209.72 141.234Z" fill="black"/>
<path d="M218.452 158.187C218.244 158.187 218.036 158.031 217.984 157.823C217.88 157.563 218.036 157.251 218.296 157.147L243.091 148.151C249.848 145.654 255.15 143.678 254.682 135.566C254.214 127.505 247.405 126.621 244.494 126.257C244.338 126.257 244.182 126.205 244.026 126.205C242.311 125.945 216.581 123.293 201.403 121.733C201.143 121.681 200.935 121.473 200.935 121.161C200.987 120.901 201.247 120.693 201.507 120.693C216.685 122.253 242.415 124.905 244.13 125.165C244.286 125.165 244.442 125.217 244.598 125.217C247.509 125.581 255.15 126.569 255.67 135.514C256.189 144.406 250.264 146.59 243.402 149.139L242.259 149.555L218.608 158.135C218.608 158.187 218.556 158.187 218.452 158.187Z" fill="black"/>
<path d="M197.868 165.676C197.66 165.676 197.452 165.52 197.4 165.312C197.296 165.052 197.452 164.74 197.712 164.636L201.663 163.18C201.922 163.076 202.234 163.232 202.338 163.492C202.442 163.752 202.286 164.064 202.026 164.168L198.076 165.624C197.972 165.676 197.92 165.676 197.868 165.676Z" fill="black"/>
<path d="M188.2 191.521C188.096 191.521 187.992 191.521 187.888 191.521C186.225 191.417 183.262 185.073 175.777 165.312C174.841 162.868 174.113 160.943 173.697 159.851L173.646 159.799C172.294 156.471 171.67 154.963 174.477 153.039C176.556 151.583 178.532 151.531 179.259 151.583C180.767 149.919 184.769 148.827 185.601 148.723C185.653 148.723 185.705 148.723 185.757 148.723C191.267 149.919 198.7 162.087 198.388 165.208C198.388 165.312 198.336 165.416 198.232 165.52C196.984 166.872 194.541 168.328 192.774 168.536C192.93 170.824 192.67 174.256 192.41 177.844C192.254 180.185 192.098 182.421 192.046 184.241C191.942 187.829 191.475 189.753 190.383 190.741C189.811 191.261 189.135 191.521 188.2 191.521ZM178.895 152.571C178.168 152.571 176.608 152.727 174.997 153.819C172.918 155.275 173.23 156.055 174.581 159.331L174.633 159.383C175.101 160.527 175.829 162.451 176.764 164.844C179.623 172.28 186.225 189.753 187.992 190.377C188.772 190.429 189.343 190.273 189.759 189.909C190.591 189.129 191.007 187.309 191.059 184.137C191.111 182.265 191.267 179.925 191.423 177.688C191.734 173.372 192.098 168.484 191.526 166.82C190.643 164.272 187.784 159.539 186.381 157.719C184.301 155.067 179.987 152.831 179.363 152.519C179.207 152.623 179.051 152.571 178.895 152.571ZM180.299 151.947C181.754 152.727 185.237 154.703 187.108 157.147C188.616 159.071 191.475 163.804 192.41 166.508C192.514 166.768 192.566 167.08 192.618 167.444C194.022 167.236 196.153 165.988 197.296 164.896C197.296 161.931 190.383 150.855 185.549 149.711C184.613 149.867 181.65 150.855 180.299 151.947Z" fill="black"/>
<path d="M187.888 191.521C187.732 191.521 187.576 191.469 187.472 191.313C187.316 191.105 187.316 190.741 187.576 190.585C189.344 189.129 183.678 173.84 177.18 159.903C177.18 159.851 175.725 156.731 173.334 155.587C173.074 155.483 172.97 155.171 173.074 154.911C173.178 154.651 173.49 154.547 173.75 154.651C176.505 155.951 178.012 159.331 178.116 159.487C178.168 159.539 181.495 166.768 184.458 174.204C190.539 189.597 188.876 190.897 188.252 191.417C188.096 191.469 187.992 191.521 187.888 191.521Z" fill="black"/>
<path d="M223.182 123.969C222.974 123.969 222.766 123.813 222.714 123.605C222.61 123.241 210.499 87.4629 207.692 79.7144C203.326 87.2029 199.116 97.3955 196.153 107.848C196.049 108.108 195.789 108.264 195.529 108.212C195.269 108.108 195.113 107.848 195.165 107.588C198.284 96.6154 202.754 85.9028 207.38 78.2583C207.484 78.1023 207.692 77.9983 207.848 77.9983C208.056 77.9983 208.212 78.1543 208.264 78.3103C210.083 83.0946 223.546 122.877 223.65 123.241C223.754 123.501 223.598 123.813 223.338 123.917C223.286 123.969 223.234 123.969 223.182 123.969Z" fill="black"/>
<path d="M191.682 69.1057C189.551 69.1057 187.576 68.4297 185.861 67.0256C182.326 64.2174 180.871 59.3291 180.871 57.353C180.871 57.041 181.079 56.8329 181.39 56.8329C181.702 56.8329 181.91 57.041 181.91 57.353C181.91 59.1211 183.314 63.6454 186.536 66.1935C188.668 67.9096 191.215 68.4297 194.073 67.7536C196.413 67.2336 197.764 66.0375 198.076 64.2174C198.544 61.8253 197.036 58.9131 195.425 57.769C195.165 57.613 195.113 57.301 195.321 57.041C195.477 56.7809 195.789 56.7289 196.049 56.9369C197.972 58.289 199.635 61.6172 199.115 64.4774C198.804 66.0375 197.764 68.0136 194.333 68.7937C193.398 69.0017 192.514 69.1057 191.682 69.1057Z" fill="black"/>
<path d="M209.356 83.4067C209.148 83.4067 208.94 83.3027 208.888 83.0946C208.784 82.8346 208.888 82.5226 209.2 82.4186C210.759 81.7946 217.153 77.8423 217.673 75.2942C217.725 75.0342 217.985 74.8261 218.296 74.8781C218.556 74.9301 218.764 75.1902 218.712 75.5022C218.037 78.6744 211.175 82.7306 209.564 83.4067C209.46 83.4067 209.408 83.4067 209.356 83.4067Z" fill="black"/>
<path d="M162.522 162.035C160.443 162.035 158.104 161.619 156.025 159.955C153.166 157.615 151.503 153.403 150.879 147.058C149.475 132.914 159.04 106.028 159.403 104.884C159.507 104.624 159.819 104.468 160.079 104.572C160.339 104.676 160.495 104.988 160.391 105.248C160.287 105.508 150.567 133.018 151.918 146.954C152.49 152.935 154.102 157.043 156.7 159.123C159.144 161.151 162.158 161.099 164.497 160.891C169.435 160.371 173.906 159.175 173.958 159.175C174.218 159.123 174.53 159.279 174.581 159.539C174.633 159.799 174.478 160.111 174.218 160.163C174.166 160.163 169.591 161.411 164.601 161.931C163.978 161.983 163.25 162.035 162.522 162.035Z" fill="black"/>
<path d="M152.386 153.143C152.126 153.143 151.866 152.935 151.866 152.623C151.347 138.114 173.698 108.94 174.633 107.692C174.789 107.484 175.153 107.432 175.361 107.588C175.569 107.744 175.621 108.108 175.465 108.316C175.257 108.628 152.386 138.478 152.906 152.571C152.906 152.883 152.698 153.091 152.386 153.143Z" fill="black"/>
<path d="M219.492 160.215C219.284 160.215 219.128 160.111 219.024 159.955L200.779 124.749C200.623 124.489 200.727 124.177 200.987 124.073C201.247 123.917 201.559 124.021 201.663 124.281L219.908 159.487C220.064 159.747 219.96 160.059 219.7 160.163C219.648 160.163 219.596 160.215 219.492 160.215Z" fill="black"/>
<path d="M205.509 170.304C205.353 170.304 205.146 170.2 205.042 170.044L177.648 124.697C177.492 124.437 177.596 124.125 177.804 123.969C178.064 123.813 178.376 123.917 178.532 124.125L205.925 169.472C206.081 169.732 205.977 170.044 205.769 170.2C205.665 170.304 205.613 170.304 205.509 170.304Z" fill="black"/>
<path d="M177.856 142.118C177.752 142.118 177.7 142.118 177.596 142.066C177.336 141.91 177.232 141.598 177.388 141.338L182.482 132.238C182.638 131.978 182.95 131.874 183.21 132.03C183.47 132.186 183.574 132.498 183.418 132.758L178.324 141.858C178.22 142.066 178.012 142.118 177.856 142.118Z" fill="black"/>
<path d="M237.269 195.993C232.123 195.993 226.561 192.353 224.118 189.909C222.871 188.661 221.259 188.245 219.388 187.777C218.244 187.465 217.049 187.153 215.801 186.633C212.631 185.229 212.267 183.149 211.903 181.277L211.799 180.809C211.435 178.78 210.915 175.608 210.915 175.556C210.863 175.296 211.071 174.984 211.331 174.984C211.591 174.932 211.903 175.14 211.903 175.4C211.903 175.452 212.423 178.624 212.787 180.601L212.89 181.069C213.202 182.889 213.514 184.501 216.165 185.645C217.309 186.165 218.452 186.425 219.596 186.737C221.519 187.257 223.338 187.725 224.794 189.181C227.133 191.521 232.331 194.953 237.217 194.953C242.311 194.953 246.521 191.729 246.937 190.377C247.405 188.765 246.313 186.685 243.922 184.709C242.103 183.253 236.125 179.508 231.707 176.752C229.368 175.296 227.341 174.048 226.509 173.476C224.066 171.812 221.831 168.64 221.727 168.536C221.571 168.276 221.623 167.964 221.831 167.808C222.091 167.652 222.403 167.704 222.559 167.912C222.559 167.964 224.794 171.032 227.081 172.644C227.913 173.216 229.94 174.464 232.279 175.92C236.957 178.832 242.727 182.421 244.598 183.929C247.353 186.165 248.548 188.661 247.925 190.689C247.457 192.509 242.831 195.993 237.269 195.993Z" fill="black"/>
<path d="M224.378 178.988C224.326 178.988 224.274 178.988 224.222 178.988C223.962 178.884 223.806 178.624 223.858 178.364C224.378 176.7 226.405 175.036 227.705 175.14C227.964 175.192 228.172 175.452 228.172 175.712C228.12 175.972 227.913 176.18 227.601 176.18C226.925 176.076 225.262 177.324 224.846 178.624C224.794 178.832 224.586 178.988 224.378 178.988Z" fill="black"/>
<path d="M229.056 181.849C229.004 181.849 228.952 181.849 228.9 181.849C228.64 181.745 228.484 181.485 228.536 181.225C229.056 179.56 231.083 177.844 232.383 178C232.643 178.052 232.851 178.312 232.851 178.572C232.799 178.832 232.539 179.04 232.279 179.04C231.603 178.988 229.94 180.185 229.524 181.485C229.472 181.693 229.264 181.849 229.056 181.849Z" fill="black"/>
<path d="M234.202 184.709C234.15 184.709 234.098 184.709 234.046 184.709C233.786 184.605 233.63 184.345 233.682 184.085C234.202 182.421 236.229 180.705 237.529 180.861C237.789 180.913 237.997 181.173 237.997 181.433C237.945 181.693 237.685 181.901 237.425 181.901C236.749 181.797 235.086 183.045 234.67 184.345C234.618 184.553 234.41 184.709 234.202 184.709Z" fill="black"/>
<path d="M344.45 138.53L339.253 118.665L337.589 112.32L337.433 111.8L336.965 112.008C336.965 112.008 335.666 111.384 335.302 110.708C334.99 110.032 333.379 105.3 333.379 105.3V102.804L334.055 101.66L334.314 101.244L334.055 100.62L333.327 98.7475C333.327 98.7475 330 92.5072 328.649 90.9471C327.349 89.387 325.218 88.9709 325.218 88.9709L321.372 89.335L320.748 89.387L320.384 89.439C320.384 89.439 316.07 91.7791 314.25 92.2991C313.575 91.6751 311.08 90.6871 309.988 90.271C309.676 90.167 309.52 90.063 309.52 90.063C309.52 90.063 309.208 90.063 308.792 90.115C307.545 90.219 305.05 90.479 304.27 90.7391C303.231 91.0511 298.604 94.5353 298.604 94.5353L298.241 94.8473L297.045 95.8354L294.654 97.8635L293.666 98.6955L291.639 100.412L291.431 100.568L292.003 100.776L312.119 107.276L313.523 106.548L317.213 104.052L321.372 103.168L322.983 102.908L323.451 103.428L326.05 105.872L326.517 106.34L327.037 106.288L330.884 105.768C330.884 105.768 332.183 105.924 332.495 107.328C332.859 108.732 332.235 111.54 332.235 111.54L331.04 114.348H330.988L324.542 117.365L317.473 117.573L309.572 115.597L294.134 112.164L282.439 109.304L281.919 109.2L281.503 109.616L270.587 120.745L263.778 127.921L256.605 136.71L255.669 137.75L254.422 139.102C254.37 139.31 254.318 139.518 254.266 139.674C253.746 141.546 252.758 142.95 251.407 144.094C251.251 144.25 251.043 144.354 250.887 144.51H250.835V144.562C250.835 144.926 250.835 145.394 250.783 145.862C250.783 147.371 250.835 149.191 251.147 150.283C251.719 152.363 252.758 155.275 254.838 156.783C256.917 158.343 259.516 159.799 261.803 159.695C264.09 159.643 269.08 158.915 269.08 158.915L277.605 156.263L284.778 153.195L290.236 150.023L293.77 146.746L303.906 134.474L307.857 129.325L311.963 139.05L317.317 151.843L321.423 161.723L323.295 166.404C323.295 166.404 324.022 166.612 324.958 166.716C325.27 166.768 325.634 166.82 325.946 166.82C326.466 166.82 327.037 166.82 327.505 166.716C327.817 166.664 328.285 166.56 328.805 166.352C329.116 166.248 329.428 166.144 329.74 166.04C332.495 165.104 336.55 163.492 337.381 162.711C337.641 162.503 337.849 162.243 338.057 162.035C338.317 161.723 338.525 161.463 338.733 161.255C339.045 160.891 339.201 160.631 339.201 160.631C339.201 160.631 339.616 160.631 340.24 160.579C340.552 160.579 340.916 160.527 341.332 160.475C341.799 160.423 342.267 160.319 342.631 160.215C343.567 159.955 346.27 158.187 347.621 157.251C347.985 156.991 348.297 156.783 348.401 156.731C348.453 156.679 348.453 156.679 348.453 156.679L348.869 155.639L344.45 138.53ZM307.909 128.805C307.857 128.805 307.857 128.805 307.805 128.805C307.701 128.805 307.597 128.753 307.545 128.649L302.815 117.105C302.763 116.949 302.815 116.845 302.971 116.741C303.127 116.689 303.231 116.741 303.335 116.897L308.065 128.441C308.117 128.597 308.065 128.753 307.909 128.805ZM337.537 155.067C337.537 155.067 337.485 155.067 337.433 155.067C337.329 155.067 337.225 155.015 337.173 154.859L326.725 120.329C326.673 120.173 326.777 120.069 326.881 120.017C327.037 119.965 327.141 120.069 327.193 120.173L337.693 154.755C337.745 154.911 337.641 155.015 337.537 155.067Z" fill="black"/>
<path d="M288.261 49.9164C286.545 49.9164 284.726 49.5003 283.011 48.6163C277.241 45.7041 274.382 40.5558 273.706 39.2557C269.236 38.9957 267.001 36.9156 266.429 35.0435C265.91 33.4314 266.481 31.7673 267.833 30.7272C268.664 30.1032 269.652 29.8431 270.64 30.1032C272.615 30.5192 274.33 32.4953 274.798 33.4314C274.954 33.6914 274.85 34.0034 274.59 34.1594C274.33 34.3154 274.018 34.2114 273.862 33.9514C273.447 33.2233 271.991 31.4552 270.38 31.1432C269.652 30.9872 269.028 31.1432 268.405 31.6112C267.365 32.3913 267.001 33.5874 267.365 34.7834C267.885 36.3955 269.86 38.1116 274.018 38.2677C274.226 38.2677 274.382 38.3717 274.486 38.5797C274.538 38.6317 277.241 44.664 283.427 47.7322C286.338 49.1883 289.508 49.3443 291.847 48.0963C293.979 46.9522 295.33 44.7161 295.694 41.6479C296.733 33.1713 295.174 23.9668 295.174 23.8628C295.122 23.6028 295.33 23.2907 295.59 23.2387C295.902 23.1867 296.162 23.3947 296.214 23.6548C296.214 23.7588 297.773 33.1713 296.733 41.7519C296.214 46.0681 294.082 48.0443 292.367 48.9803C291.12 49.6043 289.716 49.9164 288.261 49.9164Z" fill="black"/>
<path d="M322.567 118.041C318.721 118.041 312.431 116.637 312.119 116.585C308.377 115.804 275.266 108.836 272.563 106.6C269.756 104.312 257.229 83.4585 257.229 76.5421C257.229 70.3537 260.556 65.2574 268.716 59.069C275.422 53.9207 275.474 47.9403 275.474 42.688V41.856C275.474 41.544 275.734 41.3359 275.994 41.3359C276.306 41.3359 276.513 41.596 276.513 41.856V42.636C276.513 48.1484 276.513 54.3887 269.34 59.8491C261.491 65.8294 258.269 70.6657 258.269 76.4901C258.269 82.9905 270.588 103.532 273.239 105.716C275.162 107.276 297.669 112.424 312.327 115.492C312.379 115.492 319.345 117.053 322.983 116.897C326.882 116.741 330.104 114.296 330.468 114.036C331.664 113.1 332.547 108.94 331.716 106.964C331.352 106.132 330.832 106.132 330.468 106.184L329.792 106.288C327.245 106.652 325.738 106.86 320.54 108.004C320.28 108.056 319.968 107.9 319.916 107.588C319.864 107.328 320.02 107.016 320.332 106.964C325.53 105.82 327.09 105.612 329.637 105.248L330.312 105.144C331.352 104.988 332.184 105.508 332.651 106.548C333.639 108.836 332.755 113.568 331.092 114.868C330.468 115.336 327.09 117.833 322.983 117.989C322.879 118.041 322.723 118.041 322.567 118.041Z" fill="black"/>
<path d="M282.854 63.5413C282.595 63.5413 282.387 63.3332 282.335 63.0732C281.555 55.7408 283.79 48.7723 283.894 48.4603C283.998 48.2003 284.258 48.0443 284.57 48.1483C284.83 48.2523 284.986 48.5123 284.882 48.8243C284.882 48.8763 282.595 55.8968 283.374 62.9692C283.426 63.2292 283.218 63.4892 282.906 63.5413C282.906 63.5413 282.906 63.5413 282.854 63.5413Z" fill="black"/>
<path d="M321.111 89.5429C320.955 89.5429 320.8 89.4909 320.696 89.3349C320.54 89.1269 306.869 71.0298 299.904 65.5694C296.057 62.5533 287.273 57.977 282.802 56.3649C282.543 56.2609 282.387 55.9489 282.491 55.6888C282.595 55.4288 282.906 55.2728 283.166 55.3768C287.689 56.9889 296.629 61.6172 300.579 64.7374C307.649 70.3017 321.007 87.9828 321.579 88.7109C321.735 88.9189 321.683 89.2829 321.475 89.4389C321.319 89.4909 321.215 89.5429 321.111 89.5429Z" fill="black"/>
<path d="M338.577 98.9036C338.109 98.4355 337.641 98.1755 337.121 98.2275C336.238 98.2795 335.406 98.8515 334.626 99.8396C334.523 99.9436 334.471 100.048 334.367 100.204C334.263 100.36 334.159 100.516 334.055 100.672C333.951 100.88 333.795 101.088 333.691 101.296C333.067 102.544 332.703 103.896 332.807 104.676C332.807 104.78 334.003 112.424 336.706 112.424C336.81 112.424 336.914 112.424 337.018 112.424C337.173 112.424 337.381 112.424 337.537 112.424C337.693 112.424 337.901 112.372 338.057 112.372C340.136 112.112 341.904 111.176 342.008 109.512C342.112 107.848 340.604 101.036 338.577 98.9036ZM337.433 111.28C337.173 111.28 336.966 111.332 336.758 111.332C335.666 111.332 334.315 107.276 333.899 104.468C333.847 103.948 334.159 102.7 334.782 101.504C334.782 101.504 334.782 101.504 334.782 101.452C334.99 101.088 335.198 100.776 335.458 100.464C335.874 99.9436 336.498 99.3196 337.277 99.2676C337.433 99.2676 337.641 99.4236 337.849 99.6316C339.513 101.348 341.072 107.848 341.02 109.408C340.968 110.604 339.045 111.176 337.433 111.28Z" fill="black"/>
<path d="M285.402 99.2676C285.09 99.2676 284.882 99.0076 284.882 98.7475C285.246 85.5387 274.902 64.5814 269.6 59.1211C269.392 58.9131 269.392 58.6011 269.6 58.3931C269.808 58.1851 270.12 58.1851 270.327 58.3931C275.889 64.1134 286.285 85.0707 285.921 98.7996C285.921 99.0596 285.661 99.2676 285.402 99.2676Z" fill="black"/>
<path d="M294.134 98.8515C294.082 98.8515 294.082 98.8515 294.03 98.8515C293.77 98.7995 293.562 98.5394 293.614 98.2794C295.226 88.5548 294.862 73.4739 283.998 56.7809L283.946 56.7289C283.79 56.4689 283.842 56.1569 284.102 56.0008C284.362 55.8448 284.674 55.8968 284.83 56.1569L284.882 56.2089C295.901 73.2139 296.317 88.5548 294.654 98.4354C294.654 98.6955 294.394 98.8515 294.134 98.8515Z" fill="black"/>
<path d="M286.493 75.086C286.441 75.086 286.389 75.086 286.337 75.086C283.166 74.2539 278.696 72.1738 276.721 70.2497C276.513 70.0417 276.513 69.7297 276.721 69.5216C276.929 69.3136 277.241 69.3136 277.449 69.5216C279.008 71.0817 282.854 73.0059 286.181 73.9939C287.741 70.3537 288.052 65.5174 286.961 61.6172C286.909 61.3571 287.065 61.0451 287.325 60.9931C287.585 60.9411 287.896 61.0971 287.948 61.3571C289.144 65.6734 288.728 70.9257 286.961 74.878C286.909 74.982 286.701 75.086 286.493 75.086Z" fill="black"/>
<path d="M259.984 83.1985C259.984 83.2505 259.88 83.8745 259.724 85.0186C258.788 91.519 255.513 114.088 253.382 129.169C253.33 129.689 253.226 130.157 253.174 130.625C252.914 130.209 252.602 129.845 252.291 129.481C252.343 129.065 252.394 128.649 252.446 128.233C254.89 111.02 258.632 84.9666 258.892 83.1465C258.892 83.0945 258.892 83.0945 258.892 83.0425C258.944 82.7305 259.204 82.5745 259.464 82.5745C259.828 82.6265 260.035 82.8865 259.984 83.1985Z" fill="black"/>
<path d="M250.367 144.926C250.367 145.342 250.315 145.758 250.315 146.174C250.263 151.427 251.719 154.859 254.993 157.563C258.84 160.735 262.271 160.475 267.469 159.747C272.459 159.071 286.493 154.027 291.639 149.555C296.109 145.706 305.414 133.434 307.805 130.261C309.988 135.462 321.735 163.439 322.879 166.508C322.931 166.612 322.983 166.716 323.087 166.768C323.555 167.028 324.126 167.184 324.906 167.288C325.166 167.288 325.426 167.34 325.738 167.34C325.79 167.34 325.894 167.34 325.998 167.34C326.933 167.34 328.025 167.184 329.22 166.924C329.584 166.872 329.896 166.768 330.26 166.664C330.416 166.612 330.572 166.56 330.78 166.508C333.379 165.728 336.653 164.324 338.577 162.451C338.837 162.191 339.096 161.931 339.304 161.671C339.46 161.515 339.564 161.307 339.668 161.151C339.98 161.151 340.344 161.151 340.656 161.099C341.02 161.047 341.436 160.995 341.799 160.943C344.346 160.527 346.841 159.435 348.297 157.927C348.557 157.667 348.765 157.407 348.973 157.095C349.284 156.627 349.492 156.211 349.544 155.691C349.544 155.587 349.544 155.535 349.544 155.431C348.557 151.843 339.46 117.209 338.161 112.216C338.057 111.852 338.005 111.644 338.005 111.644C337.953 111.384 337.745 111.228 337.485 111.228C337.433 111.228 337.433 111.228 337.381 111.228C337.121 111.332 336.965 111.592 337.017 111.852C337.017 111.852 337.017 111.852 337.017 111.904C337.017 111.956 337.069 112.112 337.121 112.268C338.213 116.429 347.309 151.271 348.505 155.535C347.829 158.135 342.995 160.111 339.356 160.007C339.148 160.007 338.993 160.111 338.889 160.267C338.733 160.579 338.525 160.891 338.265 161.203L338.213 161.255C336.601 163.023 333.379 164.532 330.52 165.364C330.156 165.468 329.792 165.572 329.428 165.676H329.376C327.973 166.04 326.673 166.196 325.634 166.196H325.582C324.854 166.196 324.282 166.092 323.866 165.884C322.255 161.619 309.052 130.313 308.532 128.961C308.48 128.805 308.325 128.701 308.117 128.649C308.013 128.649 307.909 128.649 307.857 128.701C307.805 128.753 307.701 128.805 307.649 128.857C307.545 129.013 296.005 144.458 291.067 148.723C286.025 153.039 272.303 157.979 267.417 158.655C262.323 159.331 259.256 159.591 255.721 156.679C252.602 154.079 251.303 150.699 251.459 145.394C251.459 144.978 251.511 144.51 251.511 144.042V143.99C251.355 144.146 251.147 144.25 250.991 144.406H250.939L250.367 144.926Z" fill="black"/>
<path d="M251.459 144.146C251.459 144.198 251.459 144.198 251.407 144.25C251.303 144.458 251.147 144.562 250.939 144.562C251.095 144.406 251.251 144.302 251.459 144.146Z" fill="black"/>
<path d="M282.439 109.252C282.439 109.356 282.387 109.408 282.283 109.512C282.283 109.512 282.179 109.616 282.075 109.72C280.048 111.748 263.726 127.973 255.669 137.958C255.202 138.53 254.734 139.154 254.318 139.674C254.37 139.466 254.422 139.258 254.474 139.102C254.578 138.634 254.63 138.114 254.682 137.594C255.046 137.178 255.357 136.71 255.721 136.294C263.674 126.673 277.657 112.684 280.931 109.46C281.295 109.096 281.503 108.888 281.607 108.836C281.711 108.732 281.919 108.68 282.075 108.68C282.179 108.68 282.283 108.732 282.335 108.836C282.439 108.888 282.491 109.096 282.439 109.252Z" fill="black"/>
<path d="M334.315 101.764C334.107 101.764 333.951 101.66 333.847 101.504C333.483 100.828 333.119 99.9435 332.755 99.0075C331.092 95.1072 328.805 89.8029 324.698 89.4389C321.528 89.1789 320.332 89.9069 315.238 92.9751L314.978 93.1311C314.77 93.2351 314.51 93.2351 314.354 93.0271C310.508 88.9189 304.374 90.583 301.308 93.0791C299.384 94.6392 291.743 101.14 291.639 101.192C291.431 101.4 291.068 101.348 290.912 101.14C290.704 100.932 290.756 100.568 290.964 100.412C291.016 100.36 298.709 93.8592 300.632 92.2991C303.959 89.5949 310.508 87.8268 314.822 92.0391C319.916 88.9189 321.32 88.0868 324.802 88.3988C329.532 88.8149 331.976 94.4832 333.743 98.5915C334.107 99.4755 334.471 100.36 334.834 100.984C334.938 101.244 334.886 101.556 334.626 101.66C334.471 101.764 334.419 101.764 334.315 101.764Z" fill="black"/>
<path d="M309.624 90.6351C309.52 90.6351 309.416 90.5831 309.312 90.5311L299.124 82.2106C298.916 82.0546 298.864 81.6905 299.072 81.4825C299.228 81.2745 299.592 81.2225 299.8 81.4305L309.988 89.751C310.196 89.907 310.248 90.2711 310.04 90.4791C309.936 90.5831 309.78 90.6351 309.624 90.6351Z" fill="black"/>
<path d="M348.972 188.141C348.557 188.141 348.089 188.089 347.673 187.933C344.398 186.893 341.487 185.021 339.304 183.461L339.044 183.305C336.601 181.589 334.834 180.341 332.131 179.353L332.027 179.3C329.064 178.208 324.542 176.596 324.386 173.164C324.23 169.992 324.906 166.768 324.906 166.664C324.958 166.404 325.218 166.196 325.53 166.248C325.79 166.3 325.998 166.56 325.946 166.872C325.946 166.924 325.322 170.096 325.426 173.112C325.53 175.868 329.636 177.324 332.339 178.312L332.443 178.364C335.302 179.405 337.069 180.653 339.616 182.421L339.876 182.577C342.163 184.189 344.866 185.905 347.985 186.893C349.856 187.465 351.987 186.269 353.183 184.917C354.17 183.825 354.534 182.577 354.118 181.797C353.391 180.237 346.218 171.708 341.903 166.56C340.032 164.324 338.577 162.607 338.057 161.931C337.901 161.723 337.901 161.359 338.161 161.203C338.369 161.047 338.733 161.047 338.888 161.307C339.356 161.931 340.864 163.7 342.683 165.884C348.765 173.112 354.274 179.769 355.002 181.329C355.574 182.525 355.158 184.137 353.911 185.593C352.819 186.945 350.896 188.141 348.972 188.141Z" fill="black"/>
<path d="M358.485 180.965C356.302 180.965 354.015 179.872 352.508 179.144L352.3 179.04C352.04 178.936 351.936 178.624 352.04 178.364C352.144 178.104 352.456 178 352.715 178.104L352.923 178.208C355.003 179.196 358.797 180.965 360.928 179.04C363.059 177.064 363.423 174.724 362.54 173.58C361.5 172.332 347.985 157.615 347.881 157.459C347.673 157.251 347.725 156.939 347.933 156.731C348.141 156.523 348.453 156.575 348.661 156.783C349.233 157.407 362.332 171.656 363.371 172.956C364.567 174.412 364.359 177.324 361.656 179.82C360.72 180.653 359.629 180.965 358.485 180.965Z" fill="black"/>
<path d="M262.843 90.895C262.687 90.895 262.583 90.843 262.479 90.739C262.271 90.531 262.271 90.2189 262.479 90.0109C264.298 88.2428 269.184 84.2906 275.63 85.8507C275.889 85.9027 276.097 86.2147 275.993 86.4747C275.941 86.7347 275.63 86.9427 275.37 86.8387C269.392 85.3827 264.87 89.0749 263.154 90.739C263.102 90.843 262.998 90.895 262.843 90.895Z" fill="black"/>
<path d="M261.023 87.2028C260.867 87.2028 260.763 87.1508 260.659 87.0468C260.451 86.8388 260.503 86.5268 260.711 86.3188C263.57 83.7706 266.793 80.8584 274.33 82.0545C274.59 82.1065 274.798 82.3665 274.746 82.6265C274.694 82.8866 274.434 83.0946 274.174 83.0426C267.105 81.9505 264.194 84.5507 261.387 87.0468C261.283 87.2028 261.179 87.2028 261.023 87.2028Z" fill="black"/>
<path d="M312.171 107.744C311.963 107.744 311.807 107.744 311.599 107.692C309.676 107.224 282.491 99.0076 279.424 96.7194C278.488 96.0434 276.565 91.3111 273.758 82.7306C273.654 82.4706 273.81 82.1586 274.07 82.0546C274.33 81.9505 274.642 82.1065 274.746 82.3666C277.865 91.6751 279.528 95.4194 280.1 95.8354C282.959 98.0195 309.832 106.132 311.859 106.652C312.535 106.808 312.899 106.496 313.678 105.768C314.302 105.144 315.134 104.364 316.433 103.844C319.084 102.752 321.112 102.44 323.087 102.7C325.27 103.012 327.037 105.872 327.141 106.028C327.297 106.288 327.193 106.6 326.985 106.756C326.725 106.912 326.413 106.808 326.258 106.6C325.79 105.872 324.334 104 322.931 103.792C321.164 103.532 319.292 103.896 316.849 104.884C315.706 105.352 315.03 106.028 314.406 106.6C313.73 107.172 313.107 107.744 312.171 107.744Z" fill="black"/>
<path d="M299.904 82.6265C299.852 82.6265 299.8 82.6265 299.696 82.5745C299.436 82.4705 299.28 82.1585 299.384 81.8985C300.164 79.9744 304.582 74.6701 308.74 73.422C309 73.318 309.312 73.474 309.364 73.786C309.468 74.046 309.312 74.358 309 74.41C305.362 75.4501 301.047 80.4944 300.32 82.2625C300.32 82.4705 300.112 82.6265 299.904 82.6265Z" fill="black"/>
<path d="M298.085 78.3622C297.981 78.3622 297.929 78.3622 297.825 78.3102C297.565 78.1542 297.461 77.8422 297.617 77.5822C297.773 77.3221 300.839 71.5498 305.881 70.2497C306.141 70.1977 306.453 70.3537 306.505 70.6137C306.557 70.8737 306.401 71.1858 306.141 71.2378C301.567 72.4338 298.552 77.9982 298.552 78.0502C298.448 78.2582 298.292 78.3622 298.085 78.3622Z" fill="black"/>
<path d="M297.565 95.9913C297.513 95.9913 297.461 95.9913 297.409 95.9393C297.149 95.8353 296.993 95.5753 297.097 95.2633C297.409 94.3272 297.773 93.3912 298.137 92.5071C298.813 90.843 299.54 89.0749 299.852 87.1508C300.216 84.7586 297.201 76.7501 296.006 73.89C295.902 73.63 296.006 73.3179 296.266 73.2139C296.525 73.1099 296.837 73.2139 296.941 73.4739C297.097 73.89 301.36 84.1866 300.892 87.3068C300.58 89.3869 299.852 91.155 299.124 92.8711C298.761 93.7552 298.397 94.6392 298.085 95.5753C297.981 95.8873 297.773 95.9913 297.565 95.9913Z" fill="black"/>
<path d="M301.048 52.4646C300.528 48.2524 300.632 34.9396 301.463 30.2593C302.347 25.579 301.983 21.0027 298.604 15.2824C295.226 9.562 288.572 9.19798 285.973 9.458C283.374 9.71801 280.1 9.87402 280.1 9.87402C280.1 9.87402 273.186 8.98997 266.741 13.4102C260.348 17.8305 261.179 23.2908 261.543 25.631C261.907 27.9711 263.622 33.5875 263.102 40.4519C262.687 46.0162 261.439 50.1765 259.724 51.7366C258.008 53.2967 253.018 54.0767 252.707 56.3649C252.187 60.1611 254.318 60.0571 253.746 62.1372C253.174 64.2173 250.056 64.2173 249.276 66.1935C248.496 68.1696 247.768 72.6939 257.8 75.294C257.8 75.294 258.32 71.6018 259.308 69.8857C260.296 68.1696 263.934 63.6453 265.442 62.3452C266.949 61.0452 271.887 56.9889 272.719 55.7928C273.55 54.5968 275.629 49.5524 275.785 47.6283C275.941 45.7042 275.993 41.804 275.993 41.804L274.07 38.6318C274.07 38.6318 271.055 38.3718 269.964 37.7997C268.872 37.2277 266.221 36.0836 266.793 32.8594C268.3 30.9353 269.184 30.7793 269.964 30.4153C270.743 30.1033 274.902 33.5355 274.902 33.5355C274.486 27.2951 281.347 14.9183 283.582 14.4503C285.817 14.0343 294.082 19.7546 295.226 23.5509C295.226 23.5509 296.681 30.2593 296.577 36.3956C296.577 37.7997 295.954 43 294.862 45.6522C293.822 48.3044 290.132 49.0324 288.468 49.2404C286.805 49.4484 284.362 48.5124 284.362 48.5124L282.907 53.8687C282.907 53.8687 282.855 56.3649 283.53 56.2609C284.206 56.1568 291.379 59.5891 292.887 60.3691C294.394 61.1492 300.736 65.4134 300.736 65.4134C300.736 65.4134 304.27 64.1653 304.322 60.1091C304.374 57.2489 301.567 56.6769 301.048 52.4646ZM271.939 29.7912C270.743 28.9072 269.236 29.1152 268.664 29.5312C268.196 23.2388 269.392 12.8902 278.8 11.0701C274.694 14.4503 271.627 19.7026 271.939 29.7912Z" fill="black"/>
<path d="M283.011 29.7913C283.011 30.5193 282.387 31.1434 281.659 31.1434C280.931 31.1434 280.308 30.5193 280.308 29.7913C280.308 29.0632 280.931 28.4392 281.659 28.4392C282.387 28.4392 283.011 29.0112 283.011 29.7913Z" fill="black"/>
<path d="M293.823 27.8152C293.823 28.5433 293.199 29.1673 292.471 29.1673C291.743 29.1673 291.12 28.5433 291.12 27.8152C291.12 27.0872 291.743 26.4631 292.471 26.4631C293.199 26.4631 293.823 27.0872 293.823 27.8152Z" fill="black"/>
<path d="M289.872 36.5518C289.612 36.5518 289.404 36.3958 289.248 36.1357C289.092 35.8237 289.248 35.4077 289.612 35.3037C289.664 35.3037 289.716 35.2517 289.768 35.2517C290.392 35.0437 290.496 34.8357 290.444 34.6277C290.34 33.6916 289.612 30.5714 289.612 30.5194C289.508 30.1554 289.768 29.8434 290.08 29.7394C290.444 29.6354 290.756 29.8954 290.86 30.2074C290.912 30.3634 291.587 33.4316 291.743 34.4196C291.899 35.8237 290.652 36.2918 290.236 36.4478L290.132 36.4998C290.08 36.5518 289.976 36.5518 289.872 36.5518Z" fill="black"/>
<path d="M279.008 27.8672C278.696 27.8672 278.384 27.7112 278.176 27.4512C277.812 26.9831 277.916 26.3591 278.384 25.9951L281.243 23.8629C281.711 23.4989 282.335 23.6029 282.699 24.071C283.062 24.539 282.958 25.163 282.491 25.527L279.632 27.6592C279.424 27.8152 279.216 27.8672 279.008 27.8672Z" fill="black"/>
<path d="M292.939 24.6949C292.887 24.6949 292.835 24.6949 292.783 24.6949L290.184 24.2789C289.612 24.1749 289.248 23.6549 289.3 23.0828C289.404 22.5108 289.924 22.1468 290.496 22.1988L293.095 22.6148C293.667 22.7188 294.03 23.2388 293.979 23.8109C293.875 24.3309 293.407 24.6949 292.939 24.6949Z" fill="black"/>
<path d="M289.872 42.22C289.768 42.22 289.664 42.22 289.56 42.168C289.248 42.012 289.144 41.596 289.3 41.284C290.028 39.8799 291.015 39.2039 292.211 39.2039C292.575 39.2039 292.835 39.5159 292.835 39.8799C292.835 40.2439 292.523 40.5559 292.159 40.5039C291.899 40.5039 291.171 40.5039 290.444 41.856C290.34 42.064 290.132 42.22 289.872 42.22Z" fill="black"/>
<path d="M343.827 179.196C343.515 179.196 343.255 179.196 342.943 179.144C335.51 178.26 329.221 167.028 328.909 166.56C328.753 166.3 328.857 165.988 329.117 165.832C329.377 165.676 329.688 165.78 329.844 166.04C329.896 166.144 336.134 177.324 343.047 178.104C345.386 178.364 347.621 177.376 349.597 175.14C349.805 174.932 350.116 174.932 350.324 175.088C350.532 175.296 350.532 175.608 350.376 175.816C348.453 178.104 346.218 179.196 343.827 179.196Z" fill="black"/>
<path d="M354.275 173.164C348.141 173.164 340.656 161.307 340.344 160.839C340.188 160.579 340.24 160.267 340.5 160.111C340.76 159.955 341.072 160.007 341.228 160.267C341.28 160.371 348.921 172.54 354.534 172.124C356.094 172.02 357.393 170.824 358.381 168.588C358.485 168.328 358.797 168.224 359.057 168.328C359.317 168.432 359.421 168.744 359.317 169.004C358.173 171.604 356.562 173.008 354.586 173.164C354.534 173.164 354.431 173.164 354.275 173.164Z" fill="black"/>
<defs>
<linearGradient id="paint0_linear" x1="249.5" y1="83" x2="249.5" y2="177" gradientUnits="userSpaceOnUse">
<stop stop-color="#BBBBBB"/>
<stop offset="1" stop-color="white" stop-opacity="0"/>
</linearGradient>
<linearGradient id="paint1_linear" x1="313.5" y1="137.462" x2="314" y2="195.5" gradientUnits="userSpaceOnUse">
<stop stop-color="#BBBBBB"/>
<stop offset="1" stop-color="white" stop-opacity="0"/>
</linearGradient>
<linearGradient id="paint2_linear" x1="194.5" y1="137.462" x2="195" y2="195.5" gradientUnits="userSpaceOnUse">
<stop stop-color="#BBBBBB"/>
<stop offset="1" stop-color="white" stop-opacity="0"/>
</linearGradient>
</defs>
</svg>
