<svg width="211" height="210" viewBox="0 0 211 210" fill="none" xmlns="http://www.w3.org/2000/svg">
<path d="M204.29 100.582L109.849 6.14204C106.017 2.36232 100.767 0 94.9929 0H21.4986C9.89663 0 0.5 9.39663 0.5 20.9986V94.4929C0.5 100.32 2.86232 105.57 6.6947 109.349L101.188 203.842C104.967 207.622 110.217 209.984 115.991 209.984C121.766 209.984 127.068 207.622 130.848 203.842L204.342 130.348C208.122 126.516 210.484 121.266 210.484 115.491C210.484 109.664 208.122 104.415 204.29 100.582ZM37.2474 52.4962C28.5329 52.4962 21.4986 45.4619 21.4986 36.7474C21.4986 28.0329 28.5329 20.9986 37.2474 20.9986C45.9619 20.9986 52.9962 28.0329 52.9962 36.7474C52.9962 45.4619 45.9614 52.4962 37.2474 52.4962Z" fill="#209FAE"/>
</svg>
