<svg width="40" height="40" viewBox="0 0 40 40" fill="none" xmlns="http://www.w3.org/2000/svg">
<path d="M27.5846 6.49544L23.635 3.67439C23.3265 1.59858 21.5323 0.000976562 19.3723 0.000976562H4.31001C1.93329 0.000976562 0 1.93427 0 4.31068V19.3736C0 21.75 1.93329 23.6833 4.31001 23.6833H17.4897C18.1369 23.6833 18.6615 23.1587 18.6615 22.5114C18.6615 22.1876 18.5306 21.8947 18.3185 21.6829L21.6816 18.3195C21.8937 18.5316 22.1866 18.6628 22.5101 18.6628C23.1574 18.6628 23.682 18.1379 23.682 17.491V11.19L27.5846 8.40249C27.8925 8.18276 28.0753 7.82754 28.0753 7.44912C28.0753 7.07039 27.8925 6.71517 27.5846 6.49544Z" fill="#209FAE"/>
<path d="M27.5844 6.49446L23.6348 3.67341C23.3263 1.5976 21.5321 0 19.3721 0H11.9246V23.6823H17.4895C18.1367 23.6823 18.6613 23.1577 18.6613 22.5104C18.6613 22.1866 18.5304 21.8937 18.3183 21.6819L21.6814 18.3185C21.8935 18.5306 22.1864 18.6619 22.5099 18.6619C23.1572 18.6619 23.6818 18.1369 23.6818 17.49V11.189L27.5844 8.40151C27.8923 8.18178 28.0751 7.82656 28.0751 7.44814C28.0751 7.06942 27.8923 6.71419 27.5844 6.49446Z" fill="#14646E"/>
<path d="M15.4421 15.1439C14.5055 15.1439 13.629 14.8851 12.8786 14.4353C13.7838 13.4584 14.3856 12.1971 14.5311 10.8012H15.4421C15.8068 10.8012 16.1028 10.5055 16.1028 10.1405C16.1028 9.77552 15.8068 9.4795 15.4421 9.4795H12.5023V7.87488C12.5023 7.50958 12.2063 7.21387 11.8413 7.21387C11.4766 7.21387 11.1806 7.50958 11.1806 7.87488V9.4795H8.24085C7.87616 9.4795 7.58014 9.77552 7.58014 10.1405C7.58014 10.5055 7.87616 10.8012 8.24085 10.8012H9.1518C9.29706 12.1971 9.89887 13.4584 10.804 14.4353C10.0539 14.8845 9.17743 15.1439 8.24085 15.1439C7.87586 15.1439 7.57983 15.4396 7.57983 15.8046C7.57983 16.1696 7.87586 16.4656 8.24085 16.4656C9.57783 16.4656 10.8187 16.0472 11.8413 15.3364C12.864 16.0475 14.1048 16.4656 15.4418 16.4656C15.8068 16.4656 16.1028 16.1696 16.1028 15.8046C16.1028 15.4396 15.8068 15.1439 15.4421 15.1439ZM13.1994 10.8012C13.0556 11.8846 12.5646 12.859 11.8413 13.6091C11.1184 12.859 10.6273 11.8846 10.4836 10.8012H13.1994Z" fill="#FEF4F5"/>
<path d="M35.6902 16.3184H20.6276C18.2512 16.3184 16.3179 18.2517 16.3179 20.6281V28.8117L12.4153 31.5992C12.1074 31.8189 11.9246 32.1741 11.9246 32.5525C11.9246 32.9313 12.1074 33.2865 12.4153 33.5062L16.3649 36.3273C16.6734 38.4031 18.4675 40.0007 20.6276 40.0007H35.6902C38.0666 40.0007 39.9999 38.0674 39.9999 35.6907V20.6281C39.9999 18.2517 38.0666 16.3184 35.6902 16.3184Z" fill="#D75995"/>
<path d="M35.6897 16.3184H28.1582V40.0007H35.6897C38.0661 40.0007 39.9994 38.0674 39.9994 35.6907V20.6281C39.9994 18.2517 38.0661 16.3184 35.6897 16.3184Z" fill="#902458"/>
<path d="M24.6631 32.1062C24.6631 32.0808 24.6759 32.0308 24.6884 31.9804L27.1112 24.0849C27.2241 23.7083 27.6883 23.5322 28.1528 23.5322C28.6301 23.5322 29.0946 23.7083 29.2075 24.0849L31.63 31.9804C31.6425 32.0308 31.6553 32.0683 31.6553 32.1062C31.6553 32.495 31.0654 32.7837 30.6259 32.7837C30.3497 32.7837 30.1364 32.6961 30.0736 32.4574L29.5966 30.7878H26.7218L26.2448 32.4574C26.1823 32.6961 25.9689 32.7837 25.6928 32.7837C25.2533 32.7837 24.6631 32.5075 24.6631 32.1062ZM29.2453 29.5073L28.1528 25.6538L27.0609 29.5073H29.2453Z" fill="#FEF4F5"/>
<path d="M15.4414 10.8049C15.8061 10.8049 16.1021 10.5092 16.1021 10.1442C16.1021 9.77918 15.8061 9.48316 15.4414 9.48316H12.5016V7.87854C12.5016 7.54193 12.2499 7.26483 11.9246 7.22363V10.8049H13.1987C13.0604 11.8455 12.6014 12.7852 11.9246 13.5225V15.396C12.931 16.0722 14.1401 16.4693 15.4414 16.4693C15.8061 16.4693 16.1021 16.1732 16.1021 15.8083C16.1021 15.4433 15.8061 15.1475 15.4414 15.1475C14.5048 15.1475 13.6284 14.8884 12.8779 14.4389C13.7831 13.4621 14.3849 12.2008 14.5305 10.8049H15.4414Z" fill="#D5EDED"/>
<path d="M31.6287 31.984L29.2062 24.0885C29.0936 23.7134 28.6328 23.5374 28.158 23.5361V25.6797L29.2438 29.5109H28.158V30.7914H29.5953L30.0723 32.461C30.1352 32.6997 30.3485 32.7873 30.6247 32.7873C31.0642 32.7873 31.6541 32.4989 31.6541 32.1098C31.6541 32.0719 31.6416 32.0344 31.6287 31.984Z" fill="#D5EDED"/>
</svg>
