<svg width="13" height="13" viewBox="0 0 13 13" fill="none" xmlns="http://www.w3.org/2000/svg">
<path fill-rule="evenodd" clip-rule="evenodd" d="M12.9998 6.5C12.9998 5.40639 12.2651 4.55 11.0498 4.55H9.05237L9.07045 4.50078C9.08852 4.45192 9.13943 4.31772 9.18888 4.1874C9.23264 4.07205 9.27526 3.95973 9.29293 3.91229C9.41652 3.58056 9.50671 3.31328 9.57968 3.04858C9.68997 2.64851 9.74983 2.28807 9.74983 1.95C9.74983 0.993196 9.15955 0.398917 8.28622 0.144616C7.89232 0.0299182 7.54945 -5.97441e-05 7.14983 8.93343e-08H6.83816L6.64301 0.243025C6.42256 0.517556 5.98958 1.01233 5.49039 1.58275L5.49038 1.58276L5.49036 1.58278C4.56943 2.63513 3.42318 3.94494 2.97049 4.60432C2.85307 4.56948 2.72872 4.55077 2.6 4.55077H1.3C0.58203 4.55077 0 5.1328 0 5.85077V11.7008C0 12.4187 0.58203 13.0008 1.3 13.0008H2.6C3.04665 13.0008 3.4407 12.7755 3.67473 12.4324C3.87187 12.5599 4.09181 12.6663 4.33086 12.7518C4.87837 12.9477 5.42139 13.0079 5.87219 12.9996L10.3998 13C12.1907 13 12.9998 10.3633 12.9998 6.5ZM3.90033 5.84858C3.90033 5.69245 3.92921 5.5542 3.99244 5.40657C4.10602 5.14138 5.13659 3.96562 6.11337 2.85122L6.11342 2.85116L6.11346 2.85111C6.61755 2.276 7.10731 1.71724 7.4493 1.30842C7.61273 1.32067 7.76677 1.34579 7.92327 1.39136C8.29574 1.49982 8.45033 1.65545 8.45033 1.94858C8.45033 2.15436 8.40869 2.40508 8.32692 2.70167C8.26583 2.92331 8.1867 3.15782 8.07523 3.45701C8.05941 3.49947 8.01994 3.60349 7.97797 3.71411L7.97783 3.71449L7.97779 3.71459C7.92669 3.84927 7.87192 3.99362 7.85165 4.04844C7.76713 4.27699 7.71144 4.44527 7.67335 4.59818C7.51143 5.24821 7.67387 5.84858 8.45033 5.84858H11.0503C11.4996 5.84858 11.7003 6.08251 11.7003 6.49858C11.7003 9.61256 11.0602 11.6986 10.4003 11.6986H5.85033L5.82632 11.699C5.54182 11.7041 5.14223 11.6598 4.7693 11.5264C4.19411 11.3206 3.90033 10.985 3.90033 10.3986V5.84858ZM1.29992 11.7014V5.85139H2.59992V11.7014H1.29992Z" fill="#464646"/>
</svg>
