<svg width="13" height="13" viewBox="0 0 13 13" fill="none" xmlns="http://www.w3.org/2000/svg">
<path fill-rule="evenodd" clip-rule="evenodd" d="M6.47059 1.82892C7.17588 1.00068 8.25647 0.476562 9.38235 0.476562C11.3753 0.476562 12.9412 2.04244 12.9412 4.03539C12.9412 6.47926 10.7448 8.47094 7.41702 11.4885L7.40882 11.496L6.47059 12.3501L5.53235 11.5024L5.50681 11.4792C2.18876 8.46401 0 6.47501 0 4.03539C0 2.04244 1.56588 0.476562 3.55882 0.476562C4.68471 0.476562 5.76529 1.00068 6.47059 1.82892ZM6.47042 10.6019L6.53512 10.5372C9.61512 7.74835 11.6469 5.90424 11.6469 4.03424C11.6469 2.74012 10.6763 1.76953 9.38218 1.76953C8.38571 1.76953 7.41512 2.41012 7.07865 3.29659H5.86865C5.52571 2.41012 4.55512 1.76953 3.55865 1.76953C2.26453 1.76953 1.29395 2.74012 1.29395 4.03424C1.29395 5.90424 3.32571 7.74835 6.40571 10.5372L6.47042 10.6019Z" fill="#464646"/>
<path d="M6.5 12L5.5575 11.1368C2.21 8.08283 0 6.06866 0 3.59673C0 1.58256 1.573 0 3.575 0C4.706 0 5.7915 0.5297 6.5 1.36676C7.2085 0.5297 8.294 0 9.425 0C11.427 0 13 1.58256 13 3.59673C13 6.06866 10.79 8.08283 7.4425 11.1433L6.5 12Z" fill="#464646"/>
</svg>
