<svg width="686" height="629" viewBox="0 0 686 629" fill="none" xmlns="http://www.w3.org/2000/svg">
<path fill-rule="evenodd" clip-rule="evenodd" d="M342.779 71.6409C380.142 27.7651 437.386 0 497.03 0C602.606 0 685.559 82.9526 685.559 188.529C685.559 317.993 569.205 423.502 392.917 583.359L392.482 583.753L342.779 629L293.076 584.096L291.723 582.866C115.95 423.135 0 317.768 0 188.529C0 82.9526 82.9526 0 188.529 0C248.172 0 305.416 27.7651 342.779 71.6409ZM342.779 536.45L346.207 533.022C509.37 385.284 617.003 287.592 617.003 188.529C617.003 119.973 565.586 68.5559 497.03 68.5559C444.242 68.5559 392.825 102.491 375.001 149.452H310.901C292.734 102.491 241.317 68.5559 188.529 68.5559C119.973 68.5559 68.5559 119.973 68.5559 188.529C68.5559 287.592 176.189 385.284 339.351 533.022L342.779 536.45Z" fill="#3D3D3D"/>
</svg>
