<svg width="23" height="22" viewBox="0 0 23 22" fill="none" xmlns="http://www.w3.org/2000/svg">
<mask id="path-1-outside-1" maskUnits="userSpaceOnUse" x="0" y="0" width="23" height="22" fill="black">
<rect fill="white" width="23" height="22"/>
<path fill-rule="evenodd" clip-rule="evenodd" d="M16.43 1.00041C19.4476 1.00041 21.8588 3.47198 22.1683 6.8786C22.1924 7.02908 22.2927 7.82099 21.9877 9.11203C21.5481 10.9752 20.5327 12.6691 19.0521 14.0111L11.5382 20.7143L4.15125 14.0107C2.67059 12.6691 1.65521 10.9748 1.21562 9.11203C0.910599 7.82058 1.01091 7.02867 1.03538 6.8782C1.34448 3.47157 3.75611 1 6.7733 1C8.75146 1 10.5168 2.05983 11.5431 3.81615C12.5789 2.08226 14.4196 1.00041 16.43 1.00041ZM18.5065 13.4048C19.8623 12.1765 20.7925 10.6265 21.1937 8.92527C21.4765 7.72823 21.3685 7.04094 21.3632 7.0071C21.3631 7.00639 21.363 7.00597 21.363 7.00583C21.0926 3.98253 19.0203 1.81597 16.4304 1.81597C14.4739 1.81597 12.7025 3.01893 11.9167 4.88006L11.5411 5.77025L11.1655 4.88006C10.3671 2.98998 8.68458 1.81557 6.7733 1.81557C4.18306 1.81557 2.11111 3.98212 1.84605 6.96669L1.83994 7.00787C1.83993 7.00798 1.83985 7.00848 1.83971 7.00937C1.83409 7.04569 1.72777 7.73197 2.00958 8.92486C2.41124 10.6261 3.34099 12.1757 4.69931 13.4064L11.5431 19.6173L18.5065 13.4048ZM3.4461 7.55643C3.4461 5.30791 5.27542 3.47859 7.52394 3.47859C7.74903 3.47859 7.93172 3.66087 7.93172 3.88637C7.93172 4.11188 7.74944 4.29416 7.52394 4.29416C5.7252 4.29416 4.26167 5.75769 4.26167 7.55643C4.26167 7.78193 4.07939 7.96421 3.85389 7.96421C3.62838 7.96421 3.4461 7.78193 3.4461 7.55643Z"/>
</mask>
<path fill-rule="evenodd" clip-rule="evenodd" d="M16.43 1.00041C19.4476 1.00041 21.8588 3.47198 22.1683 6.8786C22.1924 7.02908 22.2927 7.82099 21.9877 9.11203C21.5481 10.9752 20.5327 12.6691 19.0521 14.0111L11.5382 20.7143L4.15125 14.0107C2.67059 12.6691 1.65521 10.9748 1.21562 9.11203C0.910599 7.82058 1.01091 7.02867 1.03538 6.8782C1.34448 3.47157 3.75611 1 6.7733 1C8.75146 1 10.5168 2.05983 11.5431 3.81615C12.5789 2.08226 14.4196 1.00041 16.43 1.00041ZM18.5065 13.4048C19.8623 12.1765 20.7925 10.6265 21.1937 8.92527C21.4765 7.72823 21.3685 7.04094 21.3632 7.0071C21.3631 7.00639 21.363 7.00597 21.363 7.00583C21.0926 3.98253 19.0203 1.81597 16.4304 1.81597C14.4739 1.81597 12.7025 3.01893 11.9167 4.88006L11.5411 5.77025L11.1655 4.88006C10.3671 2.98998 8.68458 1.81557 6.7733 1.81557C4.18306 1.81557 2.11111 3.98212 1.84605 6.96669L1.83994 7.00787C1.83993 7.00798 1.83985 7.00848 1.83971 7.00937C1.83409 7.04569 1.72777 7.73197 2.00958 8.92486C2.41124 10.6261 3.34099 12.1757 4.69931 13.4064L11.5431 19.6173L18.5065 13.4048ZM3.4461 7.55643C3.4461 5.30791 5.27542 3.47859 7.52394 3.47859C7.74903 3.47859 7.93172 3.66087 7.93172 3.88637C7.93172 4.11188 7.74944 4.29416 7.52394 4.29416C5.7252 4.29416 4.26167 5.75769 4.26167 7.55643C4.26167 7.78193 4.07939 7.96421 3.85389 7.96421C3.62838 7.96421 3.4461 7.78193 3.4461 7.55643Z" fill="#595757"/>
<path d="M22.1683 6.8786L21.6704 6.92385L21.6719 6.94077L21.6746 6.95755L22.1683 6.8786ZM21.9877 9.11203L21.5011 8.99707L21.5011 8.99722L21.9877 9.11203ZM19.0521 14.0111L19.3849 14.3843L19.3878 14.3816L19.0521 14.0111ZM11.5382 20.7143L11.2022 21.0846L11.5354 21.3869L11.8711 21.0874L11.5382 20.7143ZM4.15125 14.0107L4.48726 13.6405L4.48698 13.6402L4.15125 14.0107ZM1.21562 9.11203L1.70225 8.99719L1.70223 8.9971L1.21562 9.11203ZM1.03538 6.8782L1.5289 6.95844L1.53174 6.94099L1.53334 6.92338L1.03538 6.8782ZM11.5431 3.81615L11.1115 4.06843L11.5384 4.79904L11.9724 4.07257L11.5431 3.81615ZM21.1937 8.92527L20.7071 8.81031L20.7071 8.81049L21.1937 8.92527ZM18.5065 13.4048L18.8393 13.7779L18.8421 13.7753L18.5065 13.4048ZM21.3632 7.0071L20.8691 7.08418L20.8692 7.08474L21.3632 7.0071ZM21.363 7.00583L20.865 7.05037L20.8658 7.05989L20.867 7.06937L21.363 7.00583ZM11.9167 4.88006L11.456 4.68557L11.456 4.6857L11.9167 4.88006ZM11.5411 5.77025L11.0804 5.96461L11.5411 7.05653L12.0018 5.96461L11.5411 5.77025ZM11.1655 4.88006L11.6262 4.6857L11.6261 4.68549L11.1655 4.88006ZM1.84605 6.96669L2.34063 7.04014L2.34279 7.02558L2.34409 7.01092L1.84605 6.96669ZM1.83994 7.00787L1.34536 6.93442L1.34328 6.94841L1.342 6.9625L1.83994 7.00787ZM1.83971 7.00937L1.34561 6.93282L1.34561 6.93283L1.83971 7.00937ZM2.00958 8.92486L2.4962 8.80997L2.49618 8.80991L2.00958 8.92486ZM4.69931 13.4064L5.03533 13.0361L5.03503 13.0359L4.69931 13.4064ZM11.5431 19.6173L11.2071 19.9876L11.5403 20.29L11.876 19.9904L11.5431 19.6173ZM22.6663 6.83336C22.3382 3.22243 19.7564 0.500408 16.43 0.500408V1.50041C19.1388 1.50041 21.3794 3.72153 21.6704 6.92385L22.6663 6.83336ZM22.4743 9.227C22.7959 7.86585 22.6953 7.00761 22.6621 6.79966L21.6746 6.95755C21.6895 7.05055 21.7896 7.77614 21.5011 8.99707L22.4743 9.227ZM19.3878 14.3816C20.94 12.9748 22.0104 11.1931 22.4743 9.22685L21.5011 8.99722C21.0858 10.7573 20.1255 12.3634 18.7163 13.6407L19.3878 14.3816ZM11.8711 21.0874L19.3849 14.3843L18.7192 13.638L11.2054 20.3412L11.8711 21.0874ZM3.81524 14.381L11.2022 21.0846L11.8743 20.344L4.48726 13.6405L3.81524 14.381ZM0.728988 9.22687C1.19289 11.1927 2.26334 12.9748 3.81553 14.3813L4.48698 13.6402C3.07785 12.3634 2.11753 10.7569 1.70225 8.99719L0.728988 9.22687ZM0.541862 6.79795C0.507845 7.00715 0.407509 7.86575 0.729009 9.22696L1.70223 8.9971C1.41369 7.77542 1.51398 7.05018 1.5289 6.95844L0.541862 6.79795ZM6.7733 0.5C3.44733 0.5 0.865071 3.222 0.537426 6.83301L1.53334 6.92338C1.82389 3.72115 4.0649 1.5 6.7733 1.5V0.5ZM11.9748 3.56387C10.8644 1.66379 8.94005 0.5 6.7733 0.5V1.5C8.56286 1.5 10.1691 2.45587 11.1115 4.06843L11.9748 3.56387ZM16.43 0.500408C14.2369 0.500408 12.2364 1.68069 11.1139 3.55974L11.9724 4.07257C12.9214 2.48382 14.6024 1.50041 16.43 1.50041V0.500408ZM20.7071 8.81049C20.3302 10.4083 19.4554 11.8705 18.1708 13.0342L18.8421 13.7753C20.2693 12.4825 21.2547 10.8447 21.6804 9.04005L20.7071 8.81049ZM20.8692 7.08474C20.8693 7.08491 20.8706 7.09295 20.8725 7.10944C20.8746 7.12649 20.8774 7.15323 20.8801 7.1894C20.8854 7.26173 20.8901 7.37206 20.8866 7.51821C20.8798 7.81032 20.8403 8.24677 20.7071 8.81031L21.6803 9.04022C21.9802 7.77085 21.8709 7.01729 21.8571 6.92946L20.8692 7.08474ZM20.867 7.06937C20.8675 7.07279 20.8678 7.07548 20.868 7.07669C20.8682 7.07812 20.8684 7.07927 20.8685 7.07996C20.8687 7.0813 20.8689 7.08237 20.8689 7.08274C20.869 7.0832 20.8691 7.08362 20.8691 7.08377C20.8691 7.08403 20.8691 7.08403 20.8691 7.08418L21.8572 6.93002C21.857 6.92908 21.8571 6.92959 21.8572 6.92976C21.8572 6.92992 21.8573 6.93082 21.8575 6.93201C21.8576 6.93263 21.8577 6.93373 21.8579 6.93511C21.8581 6.93626 21.8585 6.93891 21.8589 6.9423L20.867 7.06937ZM16.4304 2.31597C18.7014 2.31597 20.6119 4.22047 20.865 7.05037L21.861 6.9613C21.5733 3.74458 19.3391 1.31597 16.4304 1.31597V2.31597ZM12.3773 5.07454C13.0883 3.39057 14.6834 2.31597 16.4304 2.31597V1.31597C14.2643 1.31597 12.3166 2.6473 11.456 4.68557L12.3773 5.07454ZM12.0018 5.96461L12.3773 5.07442L11.456 4.6857L11.0804 5.57589L12.0018 5.96461ZM10.7049 5.07442L11.0804 5.96461L12.0018 5.57589L11.6262 4.6857L10.7049 5.07442ZM6.7733 2.31557C8.46501 2.31557 9.9772 3.3519 10.7049 5.07463L11.6261 4.68549C10.757 2.62806 8.90415 1.31557 6.7733 1.31557V2.31557ZM2.34409 7.01092C2.59175 4.22232 4.49995 2.31557 6.7733 2.31557V1.31557C3.86617 1.31557 1.63048 3.74192 1.34801 6.92245L2.34409 7.01092ZM2.33451 7.08132L2.34063 7.04014L1.35148 6.89323L1.34536 6.93442L2.33451 7.08132ZM2.33382 7.08592C2.33383 7.08586 2.33404 7.08451 2.33423 7.08322C2.33432 7.08265 2.3346 7.08078 2.33493 7.07844C2.3351 7.07728 2.33542 7.07499 2.3358 7.0721C2.33599 7.07062 2.33627 7.06841 2.33658 7.06573C2.33686 7.06331 2.33736 7.05884 2.33787 7.05324L1.342 6.9625C1.34251 6.95691 1.34301 6.95247 1.34329 6.95007C1.3436 6.9474 1.34388 6.94522 1.34407 6.94376C1.34443 6.94092 1.34475 6.93869 1.3449 6.93761C1.34521 6.93543 1.34546 6.93376 1.34551 6.93343C1.34563 6.93265 1.34574 6.93199 1.34561 6.93282L2.33382 7.08592ZM2.49618 8.80991C2.36351 8.2483 2.32384 7.81299 2.31671 7.52119C2.31314 7.3752 2.31772 7.26482 2.32295 7.19222C2.32557 7.15592 2.32836 7.12898 2.3304 7.11168C2.33238 7.09494 2.33372 7.08656 2.33382 7.08591L1.34561 6.93283C1.3317 7.02261 1.22413 7.7748 1.52297 9.03982L2.49618 8.80991ZM5.03503 13.0359C3.74792 11.8697 2.87345 10.4078 2.4962 8.80997L1.52295 9.03975C1.94903 10.8444 2.93405 12.4817 4.3636 13.7769L5.03503 13.0359ZM11.8792 19.2471L5.03533 13.0361L4.3633 13.7767L11.2071 19.9876L11.8792 19.2471ZM18.1736 13.0317L11.2103 19.2443L11.876 19.9904L18.8393 13.7779L18.1736 13.0317ZM7.52394 2.97859C4.99928 2.97859 2.9461 5.03176 2.9461 7.55643H3.9461C3.9461 5.58405 5.55156 3.97859 7.52394 3.97859V2.97859ZM8.43172 3.88637C8.43172 3.3844 8.02485 2.97859 7.52394 2.97859V3.97859C7.47322 3.97859 7.43172 3.93734 7.43172 3.88637H8.43172ZM7.52394 4.79416C8.02558 4.79416 8.43172 4.38802 8.43172 3.88637H7.43172C7.43172 3.83574 7.4733 3.79416 7.52394 3.79416V4.79416ZM4.76167 7.55643C4.76167 6.03384 6.00135 4.79416 7.52394 4.79416V3.79416C5.44906 3.79416 3.76167 5.48155 3.76167 7.55643H4.76167ZM3.85389 8.46421C4.35553 8.46421 4.76167 8.05807 4.76167 7.55643H3.76167C3.76167 7.50579 3.80325 7.46421 3.85389 7.46421V8.46421ZM2.9461 7.55643C2.9461 8.05807 3.35224 8.46421 3.85389 8.46421V7.46421C3.90452 7.46421 3.9461 7.50579 3.9461 7.55643H2.9461Z" fill="#595757" mask="url(#path-1-outside-1)"/>
</svg>
