<svg width="15" height="15" viewBox="0 0 15 15" fill="none" xmlns="http://www.w3.org/2000/svg">
<path fill-rule="evenodd" clip-rule="evenodd" d="M0 8.18182H1.40109C1.71551 11.0261 3.9739 13.2845 6.81818 13.5989V15H8.18182V13.5989C11.0261 13.2845 13.2845 11.0261 13.5989 8.18182H15V6.81818H13.5989C13.2845 3.9739 11.0261 1.71551 8.18182 1.40109V0H6.81818V1.40109C3.9739 1.71551 1.71551 3.9739 1.40109 6.81818H0V8.18182ZM2.72705 7.50222C2.72705 4.86631 4.86387 2.72949 7.49978 2.72949C10.1357 2.72949 12.2725 4.86631 12.2725 7.50222C12.2725 10.1381 10.1357 12.2749 7.49978 12.2749C4.86387 12.2749 2.72705 10.1381 2.72705 7.50222ZM7.50022 4.77051C9.00645 4.77051 10.2275 5.99155 10.2275 7.49778C10.2275 9.00401 9.00645 10.2251 7.50022 10.2251C5.99399 10.2251 4.77295 9.00401 4.77295 7.49778C4.77295 5.99155 5.99399 4.77051 7.50022 4.77051ZM6.13647 7.50133C6.13647 6.74822 6.747 6.1377 7.50011 6.1377C8.25323 6.1377 8.86375 6.74822 8.86375 7.50133C8.86375 8.25445 8.25323 8.86497 7.50011 8.86497C6.747 8.86497 6.13647 8.25445 6.13647 7.50133Z" fill="black"/>
</svg>
