<svg width="20" height="20" viewBox="0 0 20 20" fill="none" xmlns="http://www.w3.org/2000/svg">
<path d="M10.0013 6.66586C9.08083 6.66586 8.33464 7.41206 8.33464 8.33253C8.33464 9.253 9.08083 9.9992 10.0013 9.9992C10.9218 9.9992 11.668 9.253 11.668 8.33253C11.668 7.41206 10.9218 6.66586 10.0013 6.66586Z" fill="#209FAE"/>
<path fill-rule="evenodd" clip-rule="evenodd" d="M7.08464 14.5567C7.97313 15.6171 8.94875 16.6014 10.0013 17.4992C11.0539 16.6014 12.0295 15.6171 12.918 14.5567C14.2513 12.9642 15.8347 10.5925 15.8347 8.33252C15.8396 6.78451 15.225 5.29886 14.128 4.20669C12.4597 2.53689 9.94954 2.03702 7.76886 2.94035C5.58818 3.84368 4.16679 5.97214 4.16797 8.33252C4.16797 10.5925 5.7513 12.9642 7.08464 14.5567ZM5.83464 8.33252C5.83739 6.03248 7.70126 4.16861 10.0013 4.16585C12.3013 4.16861 14.1652 6.03248 14.168 8.33252C14.168 9.30335 13.7288 10.9859 11.6396 13.49C11.124 14.1041 10.5772 14.6912 10.0013 15.2492C9.42548 14.6906 8.87892 14.1026 8.3638 13.4875C6.2738 10.9867 5.83464 9.30419 5.83464 8.33252Z" fill="#209FAE"/>
</svg>
