<svg width="10" height="13" viewBox="0 0 10 13" fill="none" xmlns="http://www.w3.org/2000/svg">
<path d="M8.75 4.875H8.33333V3.25C8.33333 1.45763 6.83833 0 5 0C3.16167 0 1.66667 1.45763 1.66667 3.25V4.875H1.25C0.561111 4.875 0 5.42154 0 6.09375V11.7812C0 12.4535 0.561111 13 1.25 13H8.75C9.43889 13 10 12.4535 10 11.7812V6.09375C10 5.42154 9.43889 4.875 8.75 4.875ZM2.77778 3.25C2.77778 2.05508 3.77444 1.08333 5 1.08333C6.22556 1.08333 7.22222 2.05508 7.22222 3.25V4.875H2.77778V3.25ZM5.55556 9.05775V10.2917C5.55556 10.5907 5.30722 10.8333 5 10.8333C4.69278 10.8333 4.44444 10.5907 4.44444 10.2917V9.05775C4.11389 8.86979 3.88889 8.52421 3.88889 8.125C3.88889 7.52754 4.38722 7.04167 5 7.04167C5.61278 7.04167 6.11111 7.52754 6.11111 8.125C6.11111 8.52421 5.88611 8.86979 5.55556 9.05775Z" fill="#464646"/>
</svg>
