<svg width="206" height="140" viewBox="0 0 206 140" fill="none" xmlns="http://www.w3.org/2000/svg">
<path d="M191.732 128.09C191.732 133.65 187.218 138.161 181.655 138.161H23.8165C20.2473 138.161 17.3518 135.267 17.3518 131.7C17.3518 128.133 20.2473 125.248 23.8165 125.248H26.2834C28.0942 125.248 29.5551 123.78 29.5551 121.979C29.5551 120.178 28.0942 118.709 26.2834 118.709C18.1653 118.709 11.5869 112.134 11.5869 104.021C11.5869 95.9077 18.1653 89.3332 26.2834 89.3332H50.2264C53.1832 89.3332 55.5801 86.9377 55.5801 83.9826C55.5801 81.0276 53.1832 78.6321 50.2264 78.6321H37.3582C36.4047 78.6321 35.4862 78.4397 34.6551 78.09C32.1445 77.0322 30.3861 74.558 30.3861 71.6641C30.3861 68.9014 31.987 66.5234 34.3227 65.3956C35.2412 64.9497 36.2735 64.7049 37.3582 64.7049H47.3133C49.3078 64.7049 50.935 63.0875 50.935 61.0854C50.935 59.0921 49.3166 57.4659 47.3133 57.4659H42.8869C39.6152 57.4659 36.9558 54.8169 36.9558 51.5384C36.9558 50.9351 37.0433 50.3494 37.2183 49.7986C37.2183 49.7898 37.2183 49.7898 37.227 49.7811V49.7723C37.2357 49.7374 37.2532 49.6937 37.262 49.6587V49.6499C37.262 49.6499 37.262 49.6499 37.262 49.6412C46.2986 20.9126 74.0294 0 106.834 0C146.969 0 179.512 31.3077 179.512 69.9243C179.512 70.2828 179.512 70.6412 179.503 70.9909C179.503 71.0609 179.503 71.1221 179.503 71.192C179.503 71.2008 179.503 71.2095 179.503 71.2182V71.2357C179.372 75.0738 176.222 78.1425 172.347 78.1425H154.764C152.314 78.1425 150.337 80.1271 150.337 82.5663C150.337 85.0055 152.314 86.9901 154.764 86.9901H177.333C177.333 87.0076 177.325 87.0164 177.325 87.0251C177.613 86.9989 177.911 86.9901 178.199 86.9901C183.798 86.9901 188.338 91.5276 188.338 97.123C188.338 102.718 183.798 107.256 178.199 107.256H174.936C171.962 107.256 169.556 109.66 169.556 112.633C169.556 115.605 171.962 118.009 174.936 118.009H181.637C187.218 118.018 191.732 122.529 191.732 128.09Z" fill="#E6ECF8"/>
<path d="M19.9567 77.1083C22.783 76.8227 24.8425 74.3013 24.5567 71.4767C24.2709 68.652 21.7481 66.5937 18.9217 66.8793C16.0954 67.1649 14.0359 69.6863 14.3217 72.511C14.6074 75.3356 17.1303 77.3939 19.9567 77.1083Z" fill="#E6ECF8"/>
<path d="M6.3505 138.061C8.81823 137.541 10.3974 135.121 9.87759 132.655C9.35781 130.188 6.93596 128.61 4.46822 129.13C2.00049 129.649 0.421362 132.07 0.941137 134.536C1.46091 137.002 3.88276 138.58 6.3505 138.061Z" fill="#E6ECF8"/>
<path d="M192.1 74.56C192.1 76.7107 190.359 78.4505 188.207 78.4505C186.055 78.4505 184.314 76.7107 184.314 74.56C184.314 72.4092 186.055 70.6694 188.207 70.6694C190.359 70.6694 192.1 72.418 192.1 74.56Z" fill="#E6ECF8"/>
<path d="M196.167 113.851C196.167 116.457 198.284 118.573 200.891 118.573C203.498 118.573 205.615 116.457 205.615 113.851C205.615 111.246 203.498 109.13 200.891 109.13C198.284 109.13 196.167 111.246 196.167 113.851Z" fill="#E6ECF8"/>
<path d="M119.415 36.6641H86.9813C83.8773 36.6641 81.3716 39.181 81.3716 42.2794V108.141C81.3716 111.237 83.8773 113.751 86.9813 113.751H119.415C122.513 113.751 125.025 111.237 125.025 108.141V42.2794C125.025 39.181 122.513 36.6641 119.415 36.6641ZM95.1951 40.0743H111.207C111.611 40.0743 111.94 40.6782 111.94 41.4255C111.94 42.1727 111.611 42.7794 111.207 42.7794H95.1951C94.7878 42.7794 94.4647 42.1727 94.4647 41.4255C94.4647 40.6782 94.7878 40.0743 95.1951 40.0743ZM103.201 108.209C101.226 108.209 99.6194 106.602 99.6194 104.624C99.6194 102.647 101.226 101.045 103.201 101.045C105.17 101.045 106.777 102.647 106.777 104.624C106.777 106.602 105.17 108.209 103.201 108.209ZM120.822 95.9357H85.5768V46.1391H120.822V95.9357Z" fill="#424A60"/>
<path d="M150.348 56.3345H103.727V80.9403H108.907V88.7105L119.267 80.9403H150.348V56.3345Z" fill="#D75995"/>
<path fill-rule="evenodd" clip-rule="evenodd" d="M127.623 69.4151C125.154 69.4151 123.152 67.4134 123.152 64.9441C123.152 62.4749 125.154 60.4731 127.623 60.4731C130.093 60.4731 132.094 62.4749 132.094 64.9441C132.094 67.4134 130.093 69.4151 127.623 69.4151ZM130.633 67.0247C131.042 66.4342 131.281 65.7176 131.281 64.9451C131.281 62.9248 129.644 61.287 127.623 61.287C125.603 61.287 123.965 62.9248 123.965 64.9451C123.965 65.7176 124.205 66.4343 124.613 67.0248C125.057 66.4347 126.088 66.1725 127.505 66.1588C126.652 66.105 125.998 65.4622 125.998 64.1302C125.998 63.218 126.639 62.5044 127.623 62.5044C128.605 62.5044 129.249 63.2854 129.249 64.2115C129.249 65.4852 128.588 66.106 127.743 66.1588C129.159 66.1726 130.189 66.4348 130.633 67.0247ZM130.049 67.6832C129.935 67.2527 129.08 66.9711 127.623 66.9711C126.167 66.9711 125.311 67.2527 125.198 67.6833C125.843 68.2556 126.693 68.6031 127.623 68.6031C128.554 68.6031 129.403 68.2556 130.049 67.6832ZM126.81 64.1295C126.81 65.0518 127.143 65.3489 127.623 65.3489C128.102 65.3489 128.436 65.0637 128.436 64.2108C128.436 63.7029 128.117 63.3166 127.623 63.3166C127.109 63.3166 126.81 63.6482 126.81 64.1295Z" fill="white"/>
<path d="M115.104 70.3027L115.707 72.1564L117.656 72.1564L116.079 73.302L116.681 75.1556L115.104 74.01L113.528 75.1556L114.13 73.302L112.553 72.1564L114.502 72.1564L115.104 70.3027Z" fill="white"/>
<path d="M123.152 70.3027L123.755 72.1564L125.704 72.1564L124.127 73.302L124.729 75.1556L123.152 74.01L121.576 75.1556L122.178 73.302L120.601 72.1564L122.55 72.1564L123.152 70.3027Z" fill="white"/>
<path d="M131.2 70.3027L131.802 72.1564L133.751 72.1564L132.175 73.302L132.777 75.1556L131.2 74.01L129.623 75.1556L130.226 73.302L128.649 72.1564L130.598 72.1564L131.2 70.3027Z" fill="white"/>
<path d="M139.248 70.3027L139.85 72.1564L141.799 72.1564L140.223 73.302L140.825 75.1556L139.248 74.01L137.671 75.1556L138.274 73.302L136.697 72.1564L138.646 72.1564L139.248 70.3027Z" fill="white"/>
</svg>
