<svg width="12" height="14" viewBox="0 0 12 14" fill="none" xmlns="http://www.w3.org/2000/svg">
<path fill-rule="evenodd" clip-rule="evenodd" d="M8.38745 10.3734C7.53876 10.9391 6.52832 11.2672 5.44381 11.2672C2.43728 11.2672 0 8.74499 0 5.63362C0 2.52226 2.43728 0 5.44381 0C8.45034 0 10.8876 2.52226 10.8876 5.63362C10.8876 7.23671 10.2406 8.68341 9.20207 9.7093L11.8839 13.1251C12.0645 13.3551 12.0307 13.693 11.8085 13.8799C11.5862 14.0667 11.2597 14.0318 11.0791 13.8018L8.38745 10.3734ZM9.8507 5.63362C9.8507 8.15235 7.87767 10.1942 5.44381 10.1942C3.00995 10.1942 1.03692 8.15235 1.03692 5.63362C1.03692 3.1149 3.00995 1.07307 5.44381 1.07307C7.87767 1.07307 9.8507 3.1149 9.8507 5.63362Z" fill="#464646"/>
</svg>
