<svg width="344" height="344" viewBox="0 0 344 344" fill="none" xmlns="http://www.w3.org/2000/svg">
<path fill-rule="evenodd" clip-rule="evenodd" d="M171.999 26.082C91.5385 26.082 26.082 91.5385 26.082 171.999C26.082 252.459 91.5385 317.915 171.999 317.915C252.459 317.915 317.915 252.459 317.915 171.999C317.915 91.5385 252.459 26.082 171.999 26.082M171.999 343.665C77.3417 343.665 0.332031 266.656 0.332031 171.999C0.332031 77.3417 77.3417 0.332031 171.999 0.332031C266.656 0.332031 343.665 77.3417 343.665 171.999C343.665 266.656 266.656 343.665 171.999 343.665" fill="#464646"/>
<path fill-rule="evenodd" clip-rule="evenodd" d="M171.898 195.57C164.791 195.57 159.023 189.802 159.023 182.695V106.836C159.023 99.7289 164.791 93.9609 171.898 93.9609C179.005 93.9609 184.773 99.7289 184.773 106.836V182.695C184.773 189.802 179.005 195.57 171.898 195.57" fill="#464646"/>
<path fill-rule="evenodd" clip-rule="evenodd" d="M172.065 254.329C162.572 254.329 154.812 246.656 154.812 237.163C154.812 227.67 162.417 219.996 171.893 219.996H172.065C181.558 219.996 189.232 227.67 189.232 237.163C189.232 246.656 181.558 254.329 172.065 254.329" fill="#464646"/>
</svg>
