<svg width="512" height="512" viewBox="0 0 512 512" fill="none" xmlns="http://www.w3.org/2000/svg">
<path fill-rule="evenodd" clip-rule="evenodd" d="M27 255.5C69.2291 181.051 155.893 130 255.945 130C355.997 130 442.661 181.051 484.89 255.5C442.661 329.95 355.997 381 255.945 381C155.893 381 69.2291 329.95 27 255.5ZM344.061 255.499C344.061 304.165 304.609 343.617 255.943 343.617C207.277 343.617 167.825 304.165 167.825 255.499C167.825 206.833 207.277 167.381 255.943 167.381C304.609 167.381 344.061 206.833 344.061 255.499ZM255.94 290.215C275.111 290.215 290.653 274.673 290.653 255.502C290.653 236.33 275.111 220.789 255.94 220.789C236.768 220.789 221.227 236.33 221.227 255.502C221.227 274.673 236.768 290.215 255.94 290.215Z" fill="#464646"/>
</svg>
