<svg width="512" height="512" viewBox="0 0 512 512" fill="none" xmlns="http://www.w3.org/2000/svg">
<path fill-rule="evenodd" clip-rule="evenodd" d="M166.483 379.957L119.655 491.173L142.996 501L345.595 19.8275L322.254 10L268.735 137.109C263.164 136.794 257.546 136.633 251.886 136.633C149.83 136.633 61.4304 188.707 18.356 264.648C48.808 318.335 101.914 360.094 166.483 379.957ZM188.291 328.164L216.693 260.707C217.465 253.741 220.257 247.384 224.471 242.235L252.877 174.77C252.548 174.767 252.217 174.765 251.887 174.765C202.246 174.765 162.005 215.007 162.005 264.647C162.005 289.447 172.049 311.901 188.291 328.164ZM251.886 392.662C239.335 392.662 226.991 391.874 214.912 390.352L231.02 352.095C237.716 353.687 244.703 354.53 251.887 354.53C301.528 354.53 341.769 314.288 341.769 264.647C341.769 232.642 325.041 204.544 299.852 188.619L318.527 144.265C391.531 161.351 452.062 205.844 485.416 264.648C442.342 340.589 353.942 392.662 251.886 392.662ZM287.293 264.647C287.293 283.851 272.006 299.483 252.938 300.04L277.937 240.667C283.746 246.975 287.293 255.397 287.293 264.647Z" fill="#C6C6C6"/>
</svg>
