<svg width="13" height="13" viewBox="0 0 13 13" fill="none" xmlns="http://www.w3.org/2000/svg">
<path fill-rule="evenodd" clip-rule="evenodd" d="M6.5 13C2.91015 13 0 10.0899 0 6.5C0 2.91015 2.91015 0 6.5 0C10.0899 0 13 2.91015 13 6.5C13 10.0899 10.0899 13 6.5 13ZM10.8733 9.52906C11.4699 8.66954 11.8196 7.62566 11.8196 6.50012C11.8196 3.56296 9.43854 1.18193 6.50138 1.18193C3.56423 1.18193 1.1832 3.56296 1.1832 6.50012C1.1832 7.62504 1.53247 8.66839 2.12848 9.52763C2.79156 8.65274 4.34561 8.27549 6.47832 8.27291C5.16663 8.26173 4.13867 7.33148 4.13867 5.31847C4.13867 3.99233 5.07178 2.95483 6.50231 2.95483C7.92888 2.95483 8.86594 4.09031 8.86594 5.43665C8.86594 7.36295 7.82562 8.26217 6.52592 8.27292C8.65797 8.27591 10.2112 8.65363 10.8733 9.52906ZM10.0251 10.4834C9.8529 9.86118 8.61031 9.45472 6.50035 9.45472C4.39206 9.45472 3.14976 9.86054 2.97599 10.482C3.91444 11.3135 5.14896 11.8183 6.50138 11.8183C7.85302 11.8183 9.08688 11.3141 10.0251 10.4834ZM5.3168 5.31795C5.3168 6.65888 5.80028 7.09068 6.49861 7.09068C7.19453 7.09068 7.68043 6.67609 7.68043 5.43613C7.68043 4.69774 7.21696 4.13613 6.49861 4.13613C5.75037 4.13613 5.3168 4.61821 5.3168 5.31795Z" fill="#464646"/>
</svg>
