<svg width="17" height="17" viewBox="0 0 17 17" fill="none" xmlns="http://www.w3.org/2000/svg">
<path fill-rule="evenodd" clip-rule="evenodd" d="M8.5 17C3.80558 17 0 13.1944 0 8.5C0 3.80558 3.80558 0 8.5 0C13.1944 0 17 3.80558 17 8.5C17 13.1944 13.1944 17 8.5 17ZM14.2202 12.4595C14.9999 11.3358 15.4569 9.97113 15.4569 8.49977C15.4569 4.65888 12.3432 1.54522 8.50232 1.54522C4.66143 1.54522 1.54778 4.65888 1.54778 8.49977C1.54778 9.97124 2.00477 11.336 2.78458 12.4598C3.646 11.3217 5.65955 10.8272 8.42371 10.818C6.73261 10.7801 5.41466 9.56176 5.41466 6.95524C5.41466 5.22106 6.63488 3.86433 8.50557 3.86433C10.3711 3.86433 11.5965 5.34919 11.5965 7.10979C11.5965 9.6037 10.263 10.7811 8.58715 10.818C11.3481 10.8278 13.3593 11.3225 14.2202 12.4595ZM13.1116 13.7076C12.8854 12.8944 11.2606 12.3633 8.5025 12.3633C5.7441 12.3633 4.1193 12.8945 3.89337 13.7079C5.12043 14.7946 6.73433 15.4543 8.50232 15.4543C10.2705 15.4543 11.8845 14.7945 13.1116 13.7076ZM6.95222 6.95373C6.95222 8.70725 7.58448 9.27192 8.49768 9.27192C9.40772 9.27192 10.0431 8.72976 10.0431 7.10828C10.0431 6.14269 9.43705 5.40828 8.49768 5.40828C7.5192 5.40828 6.95222 6.03869 6.95222 6.95373Z" fill="#209FAE"/>
</svg>
