<svg width="469" height="376" viewBox="0 0 469 376" fill="none" xmlns="http://www.w3.org/2000/svg">
<path fill-rule="evenodd" clip-rule="evenodd" d="M45.1315 22.3783H424.214C436.573 22.3783 446.592 32.3973 446.592 44.7565V88.5964L240.91 195.376L22.7533 89.258V44.7565C22.7533 32.3974 32.7724 22.3783 45.1315 22.3783ZM22.7533 114.143V330.82C22.7533 343.179 32.7723 353.198 45.1315 353.198H424.213C436.573 353.198 446.592 343.179 446.592 330.82V113.811L241.237 220.42L22.7533 114.143ZM0.375 44.7565C0.375 20.0382 20.4132 0 45.1315 0H424.214C448.932 0 468.97 20.0382 468.97 44.7565V330.82C468.97 355.538 448.932 375.576 424.213 375.576H45.1315C20.4131 375.576 0.375 355.538 0.375 330.82V44.7565Z" fill="white"/>
</svg>
