<svg width="289" height="230" viewBox="0 0 289 230" fill="none" xmlns="http://www.w3.org/2000/svg">
<circle cx="99.6003" cy="12.8896" r="12.8896" fill="#6C6C6C"/>
<path fill-rule="evenodd" clip-rule="evenodd" d="M116.42 19.3495C116.913 17.6722 117.177 15.8973 117.177 14.0608C117.177 11.5747 116.693 9.20173 115.814 7.03076H224.817C235.534 7.09236 245.143 13.7445 248.9 23.7843L270.951 83.2222L277.233 89.8743C284.255 96.588 288.197 105.827 288.259 115.497V204.377C288.197 218.544 276.679 230 262.512 230H246.252C232.085 230 220.567 218.544 220.505 204.377V191.812H67.7531V204.377C67.6915 218.544 56.1735 230 42.0069 230H25.7462C11.5796 230 0.0615937 218.544 0 204.377V117.776C0 107.429 4.55793 97.5735 12.4419 90.8598L21.4962 82.4831L43.2388 23.7843C46.996 13.7445 56.6046 7.03076 67.3219 7.03076H81.0423C80.1636 9.20173 79.6797 11.5747 79.6797 14.0608C79.6797 15.8973 79.9438 17.6722 80.4361 19.3495H67.3219C61.7785 19.3495 56.7894 22.7372 54.8184 27.9726L35.6012 79.7113H158.665C161.376 61.2948 175.85 46.8203 194.267 44.1102C217.364 40.6609 238.86 56.6137 242.248 79.7113H256.599L237.382 27.9726C235.411 22.7988 230.422 19.3495 224.879 19.3495H116.42ZM171.107 79.7113H229.683C227.219 68.0701 218.165 59.0159 206.585 56.5521C190.386 53.1644 174.495 63.5122 171.107 79.7113ZM42.0069 217.681C49.3982 217.681 55.3727 211.768 55.4343 204.377V191.812H25.7462C20.8803 191.812 16.0144 190.642 12.3187 188.239V204.377C12.3803 211.768 18.3549 217.681 25.7462 217.681H42.0069ZM262.512 217.681C269.904 217.681 275.878 211.768 275.94 204.377V188.239C272.244 190.642 267.378 191.812 262.512 191.812H232.824V204.377C232.886 211.707 238.86 217.681 246.252 217.681H262.512ZM25.7462 179.493H262.512C269.842 179.555 275.878 173.642 275.94 166.312H275.878V115.497C275.878 109.153 273.23 103.055 268.61 98.6822C268.579 98.6206 268.518 98.5744 268.456 98.5282C268.395 98.482 268.333 98.4358 268.302 98.3742L262.389 92.0301H29.1338L24.321 96.5598L20.7571 99.9141L20.5107 100.16C15.3368 104.534 12.3187 111.001 12.3187 117.776V166.312C12.3803 173.703 18.4165 179.555 25.7462 179.493ZM35.1103 116.667H81.3056C84.6933 116.667 87.465 119.439 87.465 122.827V154.855C87.465 158.243 84.6933 161.015 81.3056 161.015H35.1103C31.7227 161.015 28.951 158.243 28.951 154.855V122.827C28.951 119.439 31.7227 116.667 35.1103 116.667ZM41.2697 148.696H75.1462V128.986H41.2697V148.696ZM253.151 116.667H206.956C203.568 116.667 200.796 119.439 200.796 122.827V154.855C200.796 158.243 203.568 161.015 206.956 161.015H253.151C256.539 161.015 259.311 158.243 259.311 154.855V122.827C259.311 119.439 256.539 116.667 253.151 116.667ZM246.992 148.696H213.115V128.986H246.992V148.696ZM114.376 142.536H173.876C177.263 142.536 180.035 145.308 180.035 148.695C180.035 152.083 177.263 154.855 173.876 154.855H114.376C110.989 154.855 108.217 152.083 108.217 148.695C108.217 145.308 110.989 142.536 114.376 142.536ZM173.876 123.444H114.376C110.989 123.444 108.217 126.216 108.217 129.603C108.217 132.991 110.989 135.763 114.376 135.763H173.876C177.263 135.763 180.035 132.991 180.035 129.603C180.035 126.216 177.263 123.444 173.876 123.444Z" fill="#6C6C6C"/>
</svg>
