<svg width="51" height="41" viewBox="0 0 51 41" fill="none" xmlns="http://www.w3.org/2000/svg">
<path d="M50.9997 29.5684V36.4113C50.9997 38.7353 45.7409 40.672 39.277 40.672C32.813 40.672 27.6638 38.7999 27.6638 36.4759V35.7013L27.5542 30.2786H27.6089C28.4854 32.2798 33.306 33.8292 39.1126 33.8292C44.9191 33.8292 50.8902 31.8926 50.8902 29.5685H50.9997V29.5684Z" fill="#E2A63B"/>
<path d="M38.9491 4.13379V10.9121H38.8395C38.8395 13.3007 33.4164 15.1728 27.0072 15.1728C24.5421 15.2373 22.0223 14.9146 19.6119 14.2044L19.5024 14.3336C18.2972 13.1716 16.9278 12.2678 15.4487 11.6868V11.5577L15.2844 4.39204C15.6679 6.58689 20.7624 8.32987 26.9525 8.32987C33.1426 8.32987 38.8395 6.45777 38.8395 4.13379H38.9491Z" fill="#F4B844"/>
<path d="M38.949 4.26227C38.949 6.58625 33.5259 8.45835 27.0619 8.45835C20.598 8.45835 15.7226 6.71537 15.3392 4.52052C15.3392 4.45602 15.2844 4.32689 15.2844 4.26227C15.2844 1.93829 20.5432 0.00156578 27.062 0.00156578C33.5806 -0.0629342 38.949 1.87367 38.949 4.26227Z" fill="#FEDB41"/>
<path d="M27.6089 30.2774L27.5541 28.8572L27.4446 23.0473C27.828 25.2421 32.9225 26.9851 39.1126 26.9851C45.3027 26.9851 50.7807 25.113 50.945 22.8535H50.9997V29.5673H50.8901C50.8901 31.8913 45.5765 33.828 39.1125 33.828C32.6487 33.8279 28.4854 32.2787 27.6089 30.2774Z" fill="#F4B844"/>
<path d="M19.7764 34.6031C21.2554 32.9893 22.4058 30.9234 23.0083 28.6641H23.2822C24.4873 28.7932 25.6925 28.8577 27.0072 28.8577H27.555V30.2779L27.6645 35.7006H27.0619C24.6516 35.7651 22.2961 35.4424 19.9407 34.7969L19.7764 34.6031Z" fill="#E2A63B"/>
<path d="M27.6089 22.5295V22.8523L27.7185 28.856H27.1706C25.8012 28.856 24.5412 28.7915 23.3361 28.6624H23.0623C23.4457 27.3067 23.61 25.8865 23.61 24.4663C23.61 23.4979 23.5004 22.5942 23.3361 21.6904H23.61C24.7603 21.8196 25.9107 21.8841 27.1706 21.8841L27.6636 22.2068C27.6089 22.3358 27.6089 22.4649 27.6089 22.5295Z" fill="#F4B844"/>
<path d="M19.6117 14.2035C22.022 14.9136 24.5418 15.2363 27.0069 15.1718C33.416 15.1718 38.8393 13.2997 38.8393 10.9111H38.9488V18.5287C32.9779 18.5287 28.1025 20.2072 27.4999 22.3374L27.0069 22.0146C25.8018 22.0146 24.6514 21.9501 23.5558 21.821H23.282C22.789 18.8514 21.4742 16.2047 19.5022 14.268L19.6117 14.2035Z" fill="#E2A63B"/>
<path d="M23.3912 21.8216C22.8435 18.852 21.4739 16.1408 19.5019 14.1396C18.2967 12.8485 16.8724 11.9447 15.3387 11.4282C14.2431 10.9764 13.0379 10.7827 11.8876 10.7827C5.3688 10.718 0.0551601 16.8508 0.000427795 24.5328C-0.0543045 32.2149 5.14966 38.4768 11.6685 38.5413C14.6814 38.5413 17.5299 37.2502 19.7758 34.8616C21.3096 33.1831 22.4599 31.0529 23.0625 28.7288C23.446 27.3732 23.6103 26.0174 23.6103 24.5972C23.6104 23.6937 23.3912 22.7254 23.3912 21.8216Z" fill="#FEDB41"/>
<path d="M50.945 22.7253V22.8544C50.7807 25.1139 45.467 26.986 39.1126 26.986C32.7582 26.986 27.828 25.243 27.4446 23.0481V22.7254C27.4446 22.5963 27.4446 22.4671 27.4993 22.338C28.1019 20.2077 32.9773 18.5293 38.9482 18.5293H39.1125C45.5766 18.5292 50.945 20.4013 50.945 22.7253Z" fill="#FEDB41"/>
<path d="M11.8884 22.9197C10.9024 22.9197 10.0807 21.9513 10.0807 20.7893C10.0807 19.6273 10.9024 18.659 11.8884 18.659C12.8744 18.659 13.6961 19.6273 13.6961 20.7893C13.6961 21.4994 14.1891 22.0804 14.7917 22.0804C15.3943 22.0804 15.8873 21.4994 15.8873 20.7893C15.8873 18.7236 14.6822 16.8515 12.984 16.2705V15.754C12.984 15.0439 12.491 14.4629 11.8884 14.4629C11.2858 14.4629 10.7928 15.0439 10.7928 15.754V16.2705C9.03991 16.787 7.83475 18.6591 7.88949 20.7893C7.88949 23.3715 9.69722 25.5019 11.8884 25.5019C12.8744 25.5019 13.6961 26.4703 13.6961 27.6322C13.6961 28.7942 12.8744 29.7626 11.8884 29.7626C10.9024 29.7626 10.0807 28.7942 10.0807 27.6322C10.0807 26.9221 9.58765 26.3411 8.98507 26.3411C8.3825 26.3411 7.88949 26.9221 7.88949 27.6322C7.88949 29.7626 9.09464 31.5701 10.7928 32.1511V33.1839C10.7928 33.8941 11.2858 34.475 11.8884 34.475C12.491 34.475 12.984 33.8941 12.984 33.1839V32.1511C15.1203 31.441 16.3255 28.7942 15.6682 26.2765C15.1752 24.3399 13.6413 22.9197 11.8884 22.9197Z" fill="#E2A63B"/>
</svg>
