<svg width="180" height="45" viewBox="0 0 180 45" fill="none" xmlns="http://www.w3.org/2000/svg">
<path fill-rule="evenodd" clip-rule="evenodd" d="M135 22.5C135 34.875 145.125 45 157.5 45C169.875 45 180 34.875 180 22.5C180 10.125 169.875 -4.42578e-07 157.5 -9.83506e-07C145.125 -1.52443e-06 135 10.125 135 22.5ZM112.497 22.5C112.497 10.125 102.372 6.76639e-06 89.9968 6.22547e-06C77.6218 5.68454e-06 67.4968 10.125 67.4968 22.5C67.4968 34.875 77.6218 45 89.9968 45C102.372 45 112.497 34.875 112.497 22.5ZM22.5052 6.2255e-06C34.8802 6.76643e-06 45.0052 10.125 45.0052 22.5C45.0052 34.875 34.8802 45 22.5052 45C10.1302 45 0.00521698 34.875 0.00521752 22.5C0.00521806 10.125 10.1302 5.68458e-06 22.5052 6.2255e-06Z" fill="#464646"/>
</svg>
