<svg width="185" height="241" viewBox="0 0 185 241" fill="none" xmlns="http://www.w3.org/2000/svg">
<path fill-rule="evenodd" clip-rule="evenodd" d="M180.261 0H156.226C153.823 0 152.22 1.60232 152.22 4.0058V9.21333L134.595 16.0232C132.992 16.8243 132.191 18.4267 132.191 20.029V36.0522H111.762C100.946 25.2365 83.3206 25.2365 72.5049 36.0522H52.0754V20.029C52.0754 18.4267 51.2742 16.8243 49.6719 16.4238L32.0464 9.21333V4.0058C32.0464 1.60232 30.4441 0 28.0406 0H4.0058C1.60232 0 0 1.60232 0 4.0058V20.029C0 22.4325 1.60232 24.0348 4.0058 24.0348H28.0406C30.4441 24.0348 32.0464 22.4325 32.0464 20.029V18.0261L44.0638 22.833V36.0522H40.058C37.6545 36.0522 36.0522 37.6545 36.0522 40.058V44.0638H12.0174V52.0754H36.0522V56.0812C36.0522 58.0841 37.2539 59.6864 39.2568 60.087L65.6951 65.2945C67.2974 69.3003 69.3003 72.9055 72.5049 76.1101H63.6922C46.0667 76.1101 32.0464 90.531 32.0464 107.756V191.878C32.0464 200.69 39.2568 208.301 48.4701 208.301H68.0985V216.313C68.0985 229.532 78.9142 240.348 92.1333 240.348C105.352 240.348 116.168 229.532 116.168 216.313V208.301H135.797C144.609 208.301 152.22 201.091 152.22 191.878V136.149C151.009 136.81 149.62 137.185 148.144 137.185C146.724 137.185 145.386 136.838 144.209 136.224V191.878C144.209 196.284 140.603 200.29 135.797 200.29H116.168V188.272H124.18C126.583 188.272 128.186 186.67 128.186 184.267V168.243C128.186 148.214 112.162 132.191 92.1333 132.191C72.1043 132.191 56.0812 148.214 56.0812 168.243V184.267C56.0812 186.67 57.6835 188.272 60.087 188.272H68.0985V200.29H48.4701C44.0638 200.29 40.058 196.685 40.058 191.878V107.756C40.058 94.5368 50.8736 84.1217 63.6922 84.1217H120.574C133.794 84.1217 144.209 94.9374 144.209 107.756V121.099C145.386 120.486 146.724 120.139 148.144 120.139C149.62 120.139 151.009 120.514 152.22 121.175V107.756C152.22 90.1304 137.799 76.1101 120.574 76.1101H111.762C114.966 72.9055 117.37 69.3003 118.572 65.2945L145.01 60.087C147.013 59.6864 148.214 58.0841 148.214 56.0812V52.0754H172.249V44.0638H148.214V40.058C148.214 37.6545 146.612 36.0522 144.209 36.0522H140.203V22.833L152.22 18.0261V20.029C152.22 22.4325 153.823 24.0348 156.226 24.0348H180.261C182.664 24.0348 184.267 22.4325 184.267 20.029V4.0058C184.267 1.60232 182.664 0 180.261 0ZM24.0348 16.0232H8.01159V8.01159H24.0348V16.0232ZM64.0928 56.0812V56.8823L44.0638 52.8765V44.0638H66.8968C65.2945 47.669 64.0928 52.0754 64.0928 56.0812ZM108.157 216.313C108.157 225.126 100.946 232.336 92.1333 232.336C83.3206 232.336 76.1101 225.126 76.1101 216.313V188.272H108.157V216.313ZM64.0928 180.261V168.243C64.0928 152.621 76.5107 140.203 92.1333 140.203C107.756 140.203 120.174 152.621 120.174 168.243V180.261H64.0928ZM92.1333 76.1101C80.9171 76.1101 72.1043 67.2974 72.1043 56.0812C72.1043 44.8649 80.9171 36.0522 92.1333 36.0522C103.35 36.0522 112.162 44.8649 112.162 56.0812C112.162 67.2974 103.35 76.1101 92.1333 76.1101ZM140.203 52.8765L120.174 56.8823V56.0812C120.174 52.0754 119.373 47.669 117.37 44.0638H140.203V52.8765ZM176.255 16.0232H160.232V8.01159H176.255V16.0232ZM84.1227 100.148H100.146V108.159H84.1227V100.148ZM84.1227 116.169H100.146V124.181H84.1227V116.169Z" fill="#6C6C6C"/>
<circle cx="147.791" cy="128.385" r="4.47853" fill="#6C6C6C"/>
</svg>
