<svg width="23" height="23" viewBox="0 0 23 23" fill="none" xmlns="http://www.w3.org/2000/svg">
<g clip-path="url(#clip0)">
<path d="M4.93217 9.72402C4.89039 9.37277 4.76579 9.04665 4.57794 8.76604L21.4058 3.14747L20.5225 0.501665C20.3941 0.11718 19.9782 -0.0903166 19.5939 0.0379282L1.28892 6.14966C0.904687 6.2779 0.696776 6.69373 0.825187 7.07821L1.25833 8.37533C0.825933 8.77681 0.554688 9.34956 0.554688 9.98482C0.554688 10.8075 1.00947 11.5256 1.68062 11.902V22.2661C1.68062 22.6715 2.00948 23 2.41461 23H21.7129C22.1179 23 22.4467 22.6714 22.4467 22.2661V9.72402H4.93217ZM15.6577 2.21544L17.8856 1.47158L17.3495 3.63856L15.1216 4.38242L15.6577 2.21544ZM10.1533 4.05323L12.3814 3.30937L11.8453 5.47627L9.61737 6.22021L10.1533 4.05323ZM2.75135 11.104C2.13441 11.104 1.63237 10.602 1.63237 9.9849C1.63237 9.3678 2.13441 8.86576 2.75135 8.86576C3.36845 8.86576 3.87048 9.3678 3.87048 9.9849C3.87048 10.602 3.36845 11.104 2.75135 11.104ZM4.64915 5.89101L6.87723 5.14716L6.34112 7.31414L4.11304 8.05808L4.64915 5.89101ZM6.83785 12.2021H4.48899L5.68373 10.3165H8.03259L6.83785 12.2021ZM11.4867 10.3165H13.8355L12.6408 12.2021H10.2919L11.4867 10.3165ZM10.9101 19.4293V14.4553L14.8713 16.9423L10.9101 19.4293ZM18.4437 12.2021H16.0949L17.2896 10.3165H19.6385L18.4437 12.2021Z" fill="white"/>
</g>
<defs>
<clipPath id="clip0">
<rect width="23" height="23" fill="white"/>
</clipPath>
</defs>
</svg>
