<svg width="30" height="23" viewBox="0 0 30 23" fill="none" xmlns="http://www.w3.org/2000/svg">
<g clip-path="url(#clip0)">
<path d="M5.57838 9.67628C5.53863 9.34214 5.4201 9.0319 5.2414 8.76495L21.2498 3.41998L20.4095 0.903018C20.2874 0.537255 19.8917 0.339863 19.5262 0.461862L2.11254 6.27598C1.74702 6.39798 1.54923 6.79355 1.67139 7.15931L2.08344 8.39327C1.6721 8.7752 1.41406 9.32006 1.41406 9.92438C1.41406 10.707 1.8467 11.3901 2.48517 11.7482V21.6076C2.48517 21.9933 2.79801 22.3057 3.18341 22.3057H21.542C21.9272 22.3057 22.2401 21.9932 22.2401 21.6076V9.67628H5.57838ZM15.7816 2.53334L17.9011 1.82571L17.3911 3.88716L15.2716 4.59479L15.7816 2.53334ZM10.5453 4.28163L12.6649 3.574L12.1549 5.63538L10.0354 6.34309L10.5453 4.28163ZM3.50375 10.9891C2.91686 10.9891 2.43927 10.5115 2.43927 9.92446C2.43927 9.33741 2.91686 8.85982 3.50375 8.85982C4.0908 8.85982 4.56839 9.33741 4.56839 9.92446C4.56839 10.5115 4.0908 10.9891 3.50375 10.9891ZM5.30915 6.02993L7.42872 5.3223L6.91872 7.38376L4.79914 8.09146L5.30915 6.02993ZM7.39126 12.0337H5.15678L6.29335 10.2399H8.52783L7.39126 12.0337ZM11.8137 10.2399H14.0482L12.9116 12.0337H10.6771L11.8137 10.2399ZM11.2652 18.9089V14.1772L15.0335 16.543L11.2652 18.9089ZM18.432 12.0337H16.1975L17.3341 10.2399H19.5685L18.432 12.0337Z" fill="#209FAE"/>
</g>
<circle cx="22.7678" cy="15.4592" r="5.76" fill="#22BA64" stroke="#DAF0F2" stroke-width="1.5"/>
<path fill-rule="evenodd" clip-rule="evenodd" d="M21.9695 16.2176L25.1129 13.0742L25.5913 13.5526L21.9695 17.1743L20.0391 15.2439L20.5174 14.7655L21.9695 16.2176Z" fill="#DAF0F2"/>
<defs>
<clipPath id="clip0">
<rect width="21.88" height="21.88" fill="white" transform="translate(0.886719 0.425781)"/>
</clipPath>
</defs>
</svg>
