<svg width="126" height="100" viewBox="0 0 126 100" fill="none" xmlns="http://www.w3.org/2000/svg">
<path fill-rule="evenodd" clip-rule="evenodd" d="M40.604 30.3789L63.8198 18.771V81.2079L40.604 69.6V30.3789ZM33.4461 20.9874L75.4209 0V99.9789L33.4492 78.9931H11.6011C5.194 78.9931 0 73.799 0 67.3919V32.5885C0 26.1814 5.194 20.9874 11.6011 20.9874H33.4461ZM29.0225 32.5779H11.6208V67.3813H29.0225V32.5779ZM82.8834 36.6914L91.0866 28.4882L104.387 41.7883L117.687 28.4882L125.89 36.6914L112.59 49.9915L125.89 63.2916L117.687 71.4948L104.387 58.1948L91.0866 71.4948L82.8834 63.2916L96.1835 49.9915L82.8834 36.6914Z" fill="white"/>
</svg>
