<svg width="61" height="65" viewBox="0 0 61 65" fill="none" xmlns="http://www.w3.org/2000/svg">
<path opacity="0.35" d="M49.4821 62.8263C49.4821 61.6253 38.4027 60.6523 24.7411 60.6523C11.0794 60.6523 0 61.6253 0 62.8263C0 64.0264 11.0794 65.0002 24.7411 65.0002C38.4027 64.9994 49.4821 64.0264 49.4821 62.8263Z" fill="#D1D1D1"/>
<path d="M7.17523 15.1058C7.42579 12.7627 9.52232 11.0658 11.858 11.3155L45.1618 14.8769C47.4974 15.1267 49.1877 17.2286 48.9371 19.5717L46.2151 45.0265C45.9645 47.3695 43.868 49.0665 41.5323 48.8167L8.22854 45.2553C5.8929 45.0055 4.2026 42.9036 4.45316 40.5606L7.17523 15.1058Z" fill="#C6DBDC"/>
<path fill-rule="evenodd" clip-rule="evenodd" d="M45.1278 16.1896L11.0757 12.6159C9.88163 12.4905 8.81206 13.3569 8.68674 14.551L5.96387 40.4954C5.83855 41.6895 6.70494 42.7591 7.899 42.8844L41.9511 46.4582C43.1452 46.5835 44.2147 45.7171 44.3401 44.523L47.0629 18.5786C47.1882 17.3845 46.3219 16.3149 45.1278 16.1896ZM11.3026 10.4538C8.91447 10.2032 6.77534 11.936 6.5247 14.3241L3.80183 40.2685C3.55119 42.6567 5.28397 44.7958 7.67209 45.0464L41.7242 48.6202C44.1123 48.8708 46.2515 47.1381 46.5021 44.7499L49.225 18.8055C49.4756 16.4174 47.7428 14.2782 45.3547 14.0276L11.3026 10.4538Z" fill="#464646"/>
<path d="M0 23.375C0 20.9588 1.90421 19 4.25316 19H37.7468C40.0958 19 42 20.9588 42 23.375V49.625C42 52.0412 40.0958 54 37.7468 54H4.25317C1.90421 54 0 52.0412 0 49.625V23.375Z" fill="#F4F4F4"/>
<path fill-rule="evenodd" clip-rule="evenodd" d="M4.25316 21.1875H37.7468C38.9213 21.1875 39.8734 22.1669 39.8734 23.375V34.1528L25.8941 42.6392C25.3181 42.9889 24.5912 42.9317 24.0735 42.4961L15.4424 35.232C14.1062 34.1074 12.1935 34.0758 10.8229 35.1557L2.12658 42.0075V23.375C2.12658 22.1669 3.07869 21.1875 4.25316 21.1875ZM2.12658 44.7629L12.116 36.8923C12.7034 36.4295 13.5231 36.443 14.0958 36.925L22.7269 44.1891C23.9348 45.2057 25.631 45.339 26.975 44.5231L39.8734 36.6928V49.625C39.8734 50.8331 38.9213 51.8125 37.7468 51.8125H4.25317C3.07869 51.8125 2.12658 50.8331 2.12658 49.625V44.7629ZM0 43.683V49.625C0 52.0412 1.90421 54 4.25317 54H37.7468C40.0958 54 42 52.0412 42 49.625V23.375C42 20.9588 40.0958 19 37.7468 19H4.25316C1.90421 19 0 20.9588 0 23.375V43.683Z" fill="#464646"/>
<circle cx="25" cy="31" r="4" fill="#C6DBDC"/>
<path fill-rule="evenodd" clip-rule="evenodd" d="M25 33.8947C26.5987 33.8947 27.8947 32.5987 27.8947 31C27.8947 29.4013 26.5987 28.1053 25 28.1053C23.4013 28.1053 22.1053 29.4013 22.1053 31C22.1053 32.5987 23.4013 33.8947 25 33.8947ZM25 36C27.7614 36 30 33.7614 30 31C30 28.2386 27.7614 26 25 26C22.2386 26 20 28.2386 20 31C20 33.7614 22.2386 36 25 36Z" fill="#464646"/>
<path fill-rule="evenodd" clip-rule="evenodd" d="M42.5833 0C38.3952 0 35 3.39517 35 7.58333V18.4167C35 22.6048 38.3952 26 42.5833 26H53.4167C57.6048 26 61 22.6048 61 18.4167V7.58333C61 3.39517 57.6048 0 53.4167 0H42.5833ZM49.0026 13.5056H54.7241V11.5534H49.0026V5.37875H46.9692V11.5534H41.2758V13.5056H46.9692V19.7236H49.0026V13.5056Z" fill="white"/>
<mask id="path-9-outside-1" maskUnits="userSpaceOnUse" x="36.667" y="1.5" width="23" height="23" fill="black">
<rect fill="white" x="36.667" y="1.5" width="23" height="23"/>
<path fill-rule="evenodd" clip-rule="evenodd" d="M37.667 8.57639C37.667 5.22049 40.3875 2.5 43.7434 2.5H52.4239C55.7798 2.5 58.5003 5.22049 58.5003 8.57639V17.2569C58.5003 20.6128 55.7798 23.3333 52.4239 23.3333H43.7434C40.3875 23.3333 37.667 20.6128 37.667 17.2569V8.57639Z"/>
</mask>
<path fill-rule="evenodd" clip-rule="evenodd" d="M37.667 8.57639C37.667 5.22049 40.3875 2.5 43.7434 2.5H52.4239C55.7798 2.5 58.5003 5.22049 58.5003 8.57639V17.2569C58.5003 20.6128 55.7798 23.3333 52.4239 23.3333H43.7434C40.3875 23.3333 37.667 20.6128 37.667 17.2569V8.57639Z" fill="#209FAE"/>
<path d="M43.7434 1.5C39.8352 1.5 36.667 4.66821 36.667 8.57639H38.667C38.667 5.77278 40.9398 3.5 43.7434 3.5V1.5ZM52.4239 1.5H43.7434V3.5H52.4239V1.5ZM59.5003 8.57639C59.5003 4.66821 56.3321 1.5 52.4239 1.5V3.5C55.2276 3.5 57.5003 5.77278 57.5003 8.57639H59.5003ZM59.5003 17.2569V8.57639H57.5003V17.2569H59.5003ZM52.4239 24.3333C56.3321 24.3333 59.5003 21.1651 59.5003 17.2569H57.5003C57.5003 20.0606 55.2276 22.3333 52.4239 22.3333V24.3333ZM43.7434 24.3333H52.4239V22.3333H43.7434V24.3333ZM36.667 17.2569C36.667 21.1651 39.8352 24.3333 43.7434 24.3333V22.3333C40.9398 22.3333 38.667 20.0606 38.667 17.2569H36.667ZM36.667 8.57639V17.2569H38.667V8.57639H36.667Z" fill="#464646" mask="url(#path-9-outside-1)"/>
<rect x="41" y="5" width="15" height="16" fill="white"/>
<path fill-rule="evenodd" clip-rule="evenodd" d="M43.7434 2.5C40.3875 2.5 37.667 5.22049 37.667 8.57639V17.2569C37.667 20.6128 40.3875 23.3333 43.7434 23.3333H52.4239C55.7798 23.3333 58.5003 20.6128 58.5003 17.2569V8.57639C58.5003 5.22049 55.7798 2.5 52.4239 2.5H43.7434ZM48.8869 13.3205H53.4714V11.7562H48.8869V6.80859H47.2576V11.7562H42.6956V13.3205H47.2576V18.3028H48.8869V13.3205Z" fill="#209FAE"/>
</svg>
