<svg width="305" height="305" viewBox="0 0 305 305" fill="none" xmlns="http://www.w3.org/2000/svg">
<rect width="305" height="305" fill="white"/>
<circle cx="152" cy="152" r="139" fill="#DAF0F2"/>
<path d="M216.159 109.067L213.848 109.8L201.541 110.896L198.065 116.447L195.542 115.646L185.748 106.815L184.327 102.223L182.424 97.3255L176.268 91.8038L169.006 90.3828L168.839 93.7066L175.953 100.649L179.435 104.75L175.521 106.795L172.335 105.856L167.56 103.865L167.722 100.015L161.458 97.4386L159.378 106.491L153.065 107.921L153.69 112.971L161.916 114.554L163.337 106.486L170.127 107.489L173.283 109.337H178.348L181.814 116.28L191.004 125.603L190.33 129.226L182.921 128.282L170.117 134.748L160.898 145.806L159.698 150.703H156.389L150.223 147.861L144.234 150.703L145.724 157.022L148.33 154.017L152.913 153.875L152.593 159.549L156.389 160.66L160.18 164.918L166.37 163.178L173.441 164.294L181.652 166.501L185.753 166.983L192.705 174.875L206.124 182.767L197.445 199.346L188.285 203.604L184.809 213.079L171.553 221.93L170.142 227.034C204.029 218.871 229.238 188.431 229.238 152.036C229.228 136.14 224.409 121.345 216.159 109.067Z" fill="#464646"/>
<path d="M160.877 192.384L155.252 181.955L160.415 171.197L155.252 169.653L149.455 163.831L136.612 160.95L132.349 152.031V157.326H130.471L119.403 142.32V129.993L111.29 116.801L98.408 119.097H89.7297L85.3634 116.236L90.9343 111.82L85.3782 113.104C78.6814 124.54 74.7773 137.811 74.7773 152.026C74.7773 194.67 109.348 229.256 151.997 229.256C155.282 229.256 158.502 228.966 161.689 228.582L160.882 219.225C160.882 219.225 164.427 205.33 164.427 204.858C164.422 204.381 160.877 192.384 160.877 192.384Z" fill="#464646"/>
<path d="M103.467 99.6815L117.185 97.7688L123.508 94.3024L130.623 96.3527L141.991 95.7234L145.885 89.6018L151.564 90.536L165.356 89.2429L169.157 85.0537L174.516 81.4742L182.098 82.6149L184.862 82.197C174.875 77.4964 163.763 74.7773 151.987 74.7773C128.017 74.7773 106.584 85.7027 92.4336 102.858H92.4729L103.467 99.6815ZM155.252 82.4576L163.139 78.1159L168.203 81.0415L160.872 86.6222L153.87 87.3253L150.719 85.2799L155.252 82.4576ZM131.892 83.0918L135.373 84.5423L139.931 83.0918L142.414 87.3941L131.892 90.1574L126.832 87.1975C126.827 87.1975 131.779 84.0113 131.892 83.0918Z" fill="#464646"/>
</svg>
