<svg width="738" height="739" viewBox="0 0 738 739" fill="none" xmlns="http://www.w3.org/2000/svg">
<circle cx="369" cy="369.668" r="369" fill="#DAF0F2"/>
<path d="M561.993 240.516L555.041 242.72L518.018 246.018L507.561 262.718L499.973 260.307L470.509 233.741L466.234 219.926L460.51 205.194L441.991 188.583L420.144 184.309L419.641 194.308L441.044 215.193L451.516 227.529L439.742 233.682L430.158 230.857L415.795 224.867L416.283 213.285L397.439 205.534L391.182 232.765L372.19 237.069L374.069 252.26L398.815 257.023L403.089 232.75L423.516 235.768L433.012 241.329H448.248L458.675 262.215L486.32 290.259L484.294 301.16L462.003 298.32L423.487 317.771L395.753 351.037L392.144 365.769H382.189L363.641 357.22L345.625 365.769L350.107 384.776L357.946 375.738L371.732 375.309L370.77 392.379L382.189 395.722L393.593 408.531L412.216 403.295L433.486 406.652L458.187 413.294L470.523 414.743L491.438 438.483L531.804 462.224L505.697 512.1L478.141 524.909L467.683 553.412L427.806 580.037L423.561 595.39C525.503 570.837 601.338 479.263 601.338 369.778C601.309 321.957 586.813 277.45 561.993 240.516Z" fill="#464646"/>
<path d="M395.684 491.052L378.762 459.679L394.293 427.316L378.762 422.671L361.323 405.158L322.688 396.491L309.864 369.659V385.589H304.214L270.918 340.446V303.364L246.513 263.679L207.759 270.587H181.652L168.518 261.978L185.276 248.695L168.562 252.556C148.416 286.961 136.672 326.882 136.672 369.644C136.672 497.93 240.67 601.972 368.97 601.972C378.851 601.972 388.539 601.1 398.124 599.946L395.698 571.798C395.698 571.798 406.363 529.998 406.363 528.578C406.348 527.143 395.684 491.052 395.684 491.052Z" fill="#464646"/>
<path d="M222.923 212.243L264.187 206.49L283.207 196.063L304.608 202.23L338.802 200.337L350.516 181.924L367.598 184.734L409.084 180.844L420.517 168.243L436.638 157.476L459.444 160.907L467.756 159.65C437.718 145.511 404.292 137.332 368.87 137.332C296.769 137.332 232.3 170.195 189.734 221.798H189.853L222.923 212.243ZM378.691 160.434L402.414 147.374L417.648 156.174L395.596 172.961L374.535 175.076L365.055 168.923L378.691 160.434ZM308.424 162.342L318.895 166.705L332.605 162.342L340.074 175.283L308.424 183.595L293.205 174.691C293.19 174.691 308.084 165.108 308.424 162.342Z" fill="#464646"/>
</svg>
