<svg width="534" height="287" viewBox="0 0 534 287" fill="none" xmlns="http://www.w3.org/2000/svg">
<path d="M20 0.5H513.799C524.569 0.5 533.299 9.23045 533.299 20V266.989C533.299 277.758 524.569 286.489 513.799 286.489H20C9.23046 286.489 0.5 277.758 0.5 266.989V20C0.5 9.23042 9.23045 0.5 20 0.5Z" fill="#E6F4F1" stroke="#68BDC9"/>
<path d="M322.949 149.288H304.891C303.933 149.288 303.365 148.245 303.866 147.433C305.28 145.146 309.252 143.492 313.92 143.492C318.588 143.492 322.56 145.139 323.974 147.433C324.475 148.245 323.907 149.288 322.949 149.288Z" fill="#8CCBD5"/>
<path d="M297.653 145.698H225.082C224.29 145.698 223.728 144.938 223.945 144.178C224.596 141.847 226.728 139.783 229.803 138.278C231.972 137.22 234.605 136.431 237.523 136.036C238.578 131.305 247.203 127.617 257.691 127.617C268.104 127.617 276.677 131.253 277.837 135.939C282.983 136.162 287.629 137.012 291.272 138.278C294.997 139.574 297.631 142.092 298.648 144.089C299.022 144.827 298.483 145.698 297.653 145.698Z" fill="#8CCBD5"/>
<path d="M485.011 286.933H20C8.95433 286.933 0 277.979 0 266.933V196.194L150.665 111.822C157.377 108.059 165.587 108.059 172.307 111.822L485.011 286.933Z" fill="url(#paint0_linear_12676:606)"/>
<path d="M269.768 166.929C264.736 169.689 259.258 172.192 249.303 172.192C227.15 172.192 227.15 159.79 205.006 159.79C182.853 159.79 182.853 172.192 160.708 172.192C138.555 172.192 138.555 159.79 116.411 159.79C94.258 159.79 94.258 172.192 72.1054 172.192C62.1582 172.192 56.6806 169.689 51.6562 166.929L149.87 111.886C156.598 108.111 164.826 108.111 171.562 111.886L269.768 166.929Z" fill="url(#paint1_linear_12676:606)"/>
<path d="M322.949 149.288H304.891C303.933 149.288 303.365 148.245 303.866 147.433C305.28 145.146 309.252 143.492 313.92 143.492C318.588 143.492 322.56 145.139 323.974 147.433C324.475 148.245 323.907 149.288 322.949 149.288Z" fill="#8CCBD5"/>
<path d="M277.841 135.943C277.033 135.913 275.215 135.719 272.567 136.151C272.073 131.614 262.318 127.867 257.695 127.621C268.109 127.621 276.689 131.257 277.841 135.943Z" fill="#C4E2E6"/>
<path d="M297.658 145.697H293.731C293.573 143.142 291.928 138.791 284.836 136.668C287.207 137.07 289.384 137.614 291.277 138.277C295.002 139.573 297.635 142.092 298.653 144.088C299.027 144.826 298.488 145.697 297.658 145.697Z" fill="#C4E2E6"/>
<path d="M322.955 149.288H321.474C320.718 145.75 316.873 143.76 313.926 143.492C318.601 143.492 322.566 145.146 323.98 147.433C324.481 148.245 323.912 149.288 322.955 149.288Z" fill="#C4E2E6"/>
<path d="M59.6364 118.634H0V102.862C3.98723 100.642 10.0017 99.2266 16.7344 99.2266C27.9106 99.2266 37.1194 103.13 38.3612 108.159C43.882 108.397 48.8717 109.306 52.7841 110.67C56.7863 112.063 59.6065 114.767 60.6987 116.905C61.1027 117.703 60.5266 118.634 59.6364 118.634Z" fill="#8CCBD5"/>
<path d="M38.8495 108.143C37.9817 108.114 36.0292 107.905 33.1865 108.367C32.6629 103.495 22.1899 99.4717 17.2227 99.2109C28.4064 99.2109 37.6151 103.115 38.8495 108.143Z" fill="#C4E2E6"/>
<path d="M60.1236 118.622H55.9045C55.7324 115.881 53.967 111.209 46.3516 108.93C48.895 109.362 51.2365 109.943 53.2638 110.658C57.266 112.051 60.0937 114.756 61.1859 116.894C61.5973 117.683 61.0213 118.622 60.1236 118.622Z" fill="#C4E2E6"/>
<path d="M118.871 256.485V286.993H114.383V256.485C114.383 255.248 115.393 254.25 116.627 254.25C117.869 254.25 118.871 255.248 118.871 256.485Z" fill="#1D7E8D"/>
<path d="M153.801 256.485V286.993H149.312V256.485C149.312 255.248 150.315 254.25 151.557 254.25C152.799 254.25 153.801 255.248 153.801 256.485Z" fill="#1D7E8D"/>
<path d="M211.848 254.938V286.988H207.359V254.938C207.359 253.701 208.369 252.703 209.604 252.703C210.845 252.703 211.848 253.701 211.848 254.938Z" fill="#1D7E8D"/>
<path d="M89.9845 253.309V286.983H85.4961V253.309C85.4961 252.08 86.506 251.074 87.7403 251.074C88.9821 251.074 89.9845 252.08 89.9845 253.309Z" fill="#1D7E8D"/>
<path d="M243.453 253.102V286.985H238.965V253.102C238.965 251.865 239.975 250.867 241.209 250.867C242.451 250.867 243.453 251.865 243.453 253.102Z" fill="#1D7E8D"/>
<path d="M488.442 256.005V286.982H483.953V256.005C483.953 254.775 484.956 253.77 486.197 253.77C487.439 253.77 488.442 254.775 488.442 256.005Z" fill="#1D7E8D"/>
<path d="M129.48 261.232H103.776C102.183 261.232 101.001 259.765 101.345 258.215L114.975 196.723C115.364 194.957 117.892 194.957 118.289 196.723L131.919 258.215C132.263 259.765 131.081 261.232 129.48 261.232Z" fill="#209FAE"/>
<path d="M252.774 264.503H229.651C227.945 264.503 226.696 262.908 227.1 261.262L239.847 209.596C240.199 208.166 242.226 208.166 242.577 209.596L255.325 261.262C255.729 262.908 254.479 264.503 252.774 264.503Z" fill="#209FAE"/>
<path d="M218.897 271.162H200.315C198.722 271.162 197.555 269.672 197.936 268.13L208.237 226.35C208.589 224.92 210.623 224.92 210.975 226.35L221.283 268.13C221.665 269.672 220.49 271.162 218.897 271.162Z" fill="#209FAE"/>
<path d="M159.186 269.628H143.925C142.444 269.628 141.36 268.242 141.711 266.812L150.292 232.028C150.613 230.709 152.498 230.709 152.828 232.028L161.4 266.812C161.759 268.242 160.667 269.628 159.186 269.628Z" fill="#209FAE"/>
<path d="M97.0334 269.539H78.4588C76.8654 269.539 75.6909 268.056 76.0724 266.514L86.3734 224.727C86.725 223.304 88.7597 223.304 89.1113 224.727L99.4198 266.514C99.8013 268.056 98.6268 269.539 97.0334 269.539Z" fill="#209FAE"/>
<path d="M497.315 267.088H475.083C473.377 267.088 472.12 265.494 472.532 263.84L484.83 213.97C485.182 212.547 487.216 212.547 487.568 213.97L499.866 263.84C500.27 265.494 499.021 267.088 497.315 267.088Z" fill="#209FAE"/>
<path d="M20 0.5H513.799C524.569 0.5 533.299 9.23045 533.299 20V266.989C533.299 277.758 524.569 286.489 513.799 286.489H20C9.23046 286.489 0.5 277.758 0.5 266.989V20C0.5 9.23042 9.23045 0.5 20 0.5Z" stroke="#0D94A5"/>
<path d="M461.992 84.662L470.504 62.3707C471.875 58.7637 469.639 54.796 465.815 54.1467L442.442 50.2511L426.643 30.9175C424.19 27.9598 419.646 27.9598 417.193 30.9175L401.394 50.2511L378.021 54.1467C374.197 54.796 371.961 58.7637 373.332 62.3707L381.844 84.662L373.332 106.953C371.961 110.56 374.197 114.528 378.021 115.177L401.394 119.073L417.193 138.407C419.646 141.364 424.19 141.364 426.643 138.407L442.442 119.073L465.815 115.177C469.639 114.528 471.875 110.56 470.504 106.953L461.992 84.662Z" fill="url(#paint2_linear_12676:606)"/>
<path d="M415.242 74.9152L419.642 65.9698C420.508 64.1663 423.177 64.1663 424.043 65.9698L428.444 74.9152C428.516 74.9873 428.588 75.0595 428.66 75.0595L438.615 76.5023C440.635 76.7909 441.429 79.3158 439.986 80.6864L432.772 87.684C432.7 87.7562 432.7 87.8283 432.7 87.9726L434.359 97.7837C434.72 99.8036 432.628 101.319 430.824 100.381L422.023 95.7637C421.951 95.6916 421.807 95.6916 421.734 95.7637L412.933 100.453C411.13 101.391 409.038 99.8757 409.326 97.8558L410.986 87.9726C410.986 87.9005 410.986 87.7562 410.913 87.7562L403.772 80.8307C402.329 79.3879 403.122 76.9351 405.142 76.6466L415.025 75.2038C415.17 75.0595 415.242 75.0595 415.242 74.9152Z" fill="white"/>
<path d="M470.581 62.3707C469.86 60.4229 468.129 58.908 465.892 58.4751L442.519 54.5795L426.648 35.2459C424.195 32.2882 419.65 32.2882 417.198 35.2459L401.399 54.5795L378.025 58.4751C375.789 58.8358 374.058 60.4229 373.336 62.2985C371.966 58.6915 374.274 54.7238 378.025 54.1467L401.399 50.2511L417.198 30.9175C419.65 27.9598 424.195 27.9598 426.648 30.9175L442.447 50.2511L465.82 54.1467C469.644 54.796 471.88 58.7637 470.581 62.3707Z" fill="#B92069"/>
<path d="M381.772 84.7344L383.287 88.63L375.063 110.128C374.63 111.282 374.558 112.508 374.846 113.59C373.115 112.003 372.394 109.406 373.332 106.954L381.772 84.7344Z" fill="#B92069"/>
<path d="M468.991 113.669C469.28 112.587 469.208 111.36 468.775 110.206L460.551 88.7081L462.066 84.8125L470.578 107.032C471.444 109.412 470.723 112.009 468.991 113.669Z" fill="#B92069"/>
<defs>
<linearGradient id="paint0_linear_12676:606" x1="242.506" y1="109" x2="242.506" y2="286.933" gradientUnits="userSpaceOnUse">
<stop offset="0.1" stop-color="#90CDD7"/>
<stop offset="0.9" stop-color="#63BBC7"/>
</linearGradient>
<linearGradient id="paint1_linear_12676:606" x1="160.712" y1="109.055" x2="160.712" y2="172.192" gradientUnits="userSpaceOnUse">
<stop offset="0.00352733" stop-color="white"/>
<stop offset="1" stop-color="#C4E2E6"/>
</linearGradient>
<linearGradient id="paint2_linear_12676:606" x1="421.918" y1="11.9991" x2="421.918" y2="140.625" gradientUnits="userSpaceOnUse">
<stop stop-color="#FDA4CF"/>
<stop offset="1" stop-color="#D75995"/>
</linearGradient>
</defs>
</svg>
