<svg width="120" height="120" viewBox="0 0 120 120" fill="none" xmlns="http://www.w3.org/2000/svg">
<g id="Frame 246">
<g id="Frame 245">
<path id="Vector" d="M94.375 44.25H90.5V29.5C90.5 13.2307 76.5965 0 59.5 0C42.4035 0 28.5 13.2307 28.5 29.5V44.25H24.625C18.2183 44.25 13 49.2109 13 55.3125V106.937C13 113.039 18.2183 118 24.625 118H94.375C100.782 118 106 113.039 106 106.937V55.3125C106 49.2109 100.782 44.25 94.375 44.25ZM38.8333 29.5C38.8333 18.6538 48.1023 9.83333 59.5 9.83333C70.8977 9.83333 80.1667 18.6538 80.1667 29.5V44.25H38.8333V29.5ZM64.6667 82.2165V93.4167C64.6667 96.1307 62.3572 98.3333 59.5 98.3333C56.6428 98.3333 54.3333 96.1307 54.3333 93.4167V82.2165C51.2592 80.5104 49.1667 77.3736 49.1667 73.75C49.1667 68.3269 53.8012 63.9167 59.5 63.9167C65.1988 63.9167 69.8333 68.3269 69.8333 73.75C69.8333 77.3736 67.7408 80.5104 64.6667 82.2165Z" fill="#464646"/>
</g>
</g>
</svg>
