<svg width="17" height="19" viewBox="0 0 17 19" fill="none" xmlns="http://www.w3.org/2000/svg">
<path d="M16.7309 13.9129C16.7246 13.9003 16.7178 13.8881 16.7104 13.8762C16.5962 13.6725 16.4506 13.517 16.2755 13.4159C15.0009 12.6804 14.2296 10.679 13.9829 7.46752C13.7999 5.08553 12.1015 3.13324 9.89161 2.54474C10.0571 2.28737 10.1535 1.98156 10.1535 1.65353C10.1535 0.74178 9.41172 0 8.49992 0C7.58822 0 6.84644 0.74178 6.84644 1.65357C6.84644 1.98161 6.94291 2.28737 7.10832 2.54478C4.89848 3.13324 3.20005 5.08558 3.01698 7.46756C2.77023 10.6791 1.99892 12.6804 0.724474 13.416C0.355355 13.629 0.115474 14.0813 0.0309095 14.7242C-0.0239469 15.1415 -0.0408599 16.0178 0.288456 16.3468C0.377006 16.4353 0.497123 16.4851 0.622244 16.4851H5.66173C5.88771 17.8479 7.0741 18.8906 8.50006 18.8906C9.92597 18.8906 11.1123 17.8479 11.3384 16.4851H16.3778C16.5029 16.4851 16.623 16.4353 16.7116 16.3468C17.041 16.0176 17.024 15.141 16.969 14.7236C16.9268 14.4043 16.8464 14.1321 16.7309 13.9129ZM8.49992 0.944514C8.89091 0.944514 9.20898 1.26258 9.20898 1.65357C9.20898 2.04452 8.89096 2.36259 8.49992 2.36259C8.10902 2.36259 7.79095 2.04452 7.79095 1.65357C7.791 1.26258 8.10907 0.944514 8.49992 0.944514ZM8.49992 17.946C7.59681 17.946 6.83656 17.3235 6.62528 16.4851H10.3745C10.1633 17.3235 9.40304 17.946 8.49992 17.946ZM16.0371 15.5405H0.962805C0.943236 15.3862 0.93292 15.1623 0.959839 14.9103C1.00504 14.4883 1.12613 14.2747 1.19653 14.234C2.77927 13.3206 3.68283 11.1309 3.9587 7.53991C4.14103 5.16638 6.13583 3.30711 8.49988 3.30711C10.864 3.30711 12.8587 5.16643 13.0411 7.53991C13.1738 9.26747 13.4521 10.6697 13.8812 11.7626H12.1058C11.845 11.7626 11.6335 11.974 11.6335 12.2348C11.6335 12.4957 11.845 12.7071 12.1058 12.7071H14.3338C14.5473 13.0724 14.7863 13.3867 15.0509 13.6516H10.3417C10.0809 13.6516 9.86939 13.8631 9.86939 14.1239C9.86939 14.3847 10.0809 14.5962 10.3417 14.5962H15.9847C16.0073 14.6842 16.0269 14.7883 16.0399 14.9102C16.067 15.1623 16.0566 15.3861 16.0371 15.5405Z" fill="white"/>
<path d="M8.64156 13.6519H8.3582C8.09738 13.6519 7.88593 13.8633 7.88593 14.1241C7.88593 14.385 8.09734 14.5964 8.3582 14.5964H8.64156C8.9023 14.5964 9.11384 14.385 9.11384 14.1241C9.11384 13.8633 8.90234 13.6519 8.64156 13.6519Z" fill="white"/>
</svg>
