<svg width="326" height="327" viewBox="0 0 326 327" fill="none" xmlns="http://www.w3.org/2000/svg">
<path fill-rule="evenodd" clip-rule="evenodd" d="M255.93 145.743C255.93 187.102 290.278 233.505 290.278 233.505C292.904 240.162 288.055 247.426 280.782 247.627H45.4021C38.1285 247.627 33.0775 240.162 35.704 233.505C35.704 233.505 70.0512 187.304 70.0512 145.743V134.849C70.0512 89.0512 103.186 51.3239 146.828 43.6574V26.3068C146.828 19.4473 152.283 14 159.152 14H166.83C173.699 14 179.154 19.4473 179.154 26.3068V43.6574C222.795 51.3239 255.93 89.0512 255.93 134.849V145.743ZM162.995 313C187.846 313 208.051 293.834 209.465 269.422H116.525C117.939 293.834 138.144 313 162.995 313Z" fill="#219FAE"/>
</svg>
