<svg width="22" height="25" viewBox="0 0 22 25" fill="none" xmlns="http://www.w3.org/2000/svg">
<path d="M10.9858 25C12.4845 25 13.775 24.0948 14.3413 22.8027H7.63037C8.19664 24.0948 9.48723 25 10.9858 25Z" fill="#1F99A7"/>
<path d="M18.555 12.1028V10.4982C18.555 7.08887 16.2888 4.19923 13.1838 3.25541V2.1973C13.1838 0.985707 12.1981 0 10.9865 0C9.77495 0 8.78924 0.985707 8.78924 2.1973V3.25541C5.68422 4.19923 3.41807 7.08882 3.41807 10.4982V12.1028C3.41807 15.0976 2.27655 17.9373 0.20382 20.0988C0.000691842 20.3106 -0.0563891 20.6232 0.0587492 20.8931C0.173887 21.163 0.439028 21.3382 0.732489 21.3382H21.2406C21.534 21.3382 21.7991 21.163 21.9143 20.8931C22.0294 20.6232 21.9723 20.3106 21.7692 20.0988C19.6965 17.9373 18.555 15.0975 18.555 12.1028ZM11.719 2.96527C11.4779 2.94203 11.2336 2.92973 10.9865 2.92973C10.7395 2.92973 10.4952 2.94203 10.2541 2.96527V2.1973C10.2541 1.79343 10.5827 1.46486 10.9865 1.46486C11.3904 1.46486 11.719 1.79343 11.719 2.1973V2.96527Z" fill="#1F99A7"/>
</svg>
