<svg width="305" height="305" viewBox="0 0 305 305" fill="none" xmlns="http://www.w3.org/2000/svg">
<rect width="305" height="305" fill="white"/>
<circle cx="152" cy="152" r="139" fill="#DAF0F2"/>
<path d="M185.464 135.269H181.174V118.537C181.174 100.082 165.781 85.0742 146.853 85.0742C127.925 85.0742 112.532 100.082 112.532 118.537V135.269H108.241C101.148 135.269 95.3711 140.896 95.3711 147.817V206.377C95.3711 213.299 101.148 218.926 108.241 218.926H185.464C192.557 218.926 198.334 213.299 198.334 206.377V147.817C198.334 140.896 192.557 135.269 185.464 135.269ZM123.972 118.537C123.972 106.234 134.234 96.2285 146.853 96.2285C159.471 96.2285 169.733 106.234 169.733 118.537V135.269H123.972V118.537ZM152.573 178.335V191.04C152.573 194.119 150.016 196.617 146.853 196.617C143.689 196.617 141.132 194.119 141.132 191.04V178.335C137.729 176.4 135.412 172.842 135.412 168.732C135.412 162.58 140.543 157.577 146.853 157.577C153.162 157.577 158.293 162.58 158.293 168.732C158.293 172.842 155.976 176.4 152.573 178.335Z" fill="#464646"/>
</svg>
