<svg width="738" height="738" viewBox="0 0 738 738" fill="none" xmlns="http://www.w3.org/2000/svg">
<circle cx="369" cy="369" r="369" fill="#DAF0F2"/>
<path d="M502.249 310.914H487.443V252.831C487.443 188.765 434.321 136.664 368.999 136.664C303.677 136.664 250.554 188.765 250.554 252.831V310.914H235.749C211.27 310.914 191.332 330.449 191.332 354.477V557.768C191.332 581.795 211.27 601.331 235.749 601.331H502.249C526.727 601.331 546.665 581.795 546.665 557.768V354.477C546.665 330.449 526.727 310.914 502.249 310.914ZM290.036 252.831C290.036 210.12 325.451 175.386 368.999 175.386C412.547 175.386 447.962 210.12 447.962 252.831V310.914H290.036V252.831ZM388.739 460.421V504.525C388.739 515.212 379.915 523.886 368.999 523.886C358.082 523.886 349.258 515.212 349.258 504.525V460.421C337.512 453.702 329.517 441.35 329.517 427.081C329.517 405.725 347.225 388.359 368.999 388.359C390.773 388.359 408.48 405.725 408.48 427.081C408.48 441.35 400.485 453.702 388.739 460.421Z" fill="#464646"/>
</svg>
