<svg width="16" height="16" viewBox="0 0 16 16" fill="none" xmlns="http://www.w3.org/2000/svg">
<path fill-rule="evenodd" clip-rule="evenodd" d="M8 16C3.58172 16 0 12.4183 0 8C0 3.58172 3.58172 0 8 0C12.4183 0 16 3.58172 16 8C16 12.4183 12.4183 16 8 16ZM7.99978 14.5476C11.6147 14.5476 14.5452 11.6171 14.5452 8.00219C14.5452 4.38723 11.6147 1.45673 7.99978 1.45673C4.38483 1.45673 1.45433 4.38723 1.45433 8.00219C1.45433 11.6171 4.38483 14.5476 7.99978 14.5476ZM4.36298 8.72755H9.15264L7.48509 10.3951L8.5136 11.4236L11.937 8.00027L8.5136 4.57692L7.48509 5.60544L9.15264 7.273H4.36298V8.72755Z" fill="black"/>
</svg>
