<svg width="14" height="14" viewBox="0 0 14 14" fill="none" xmlns="http://www.w3.org/2000/svg">
<path fill-rule="evenodd" clip-rule="evenodd" d="M7 14C3.13401 14 0 10.866 0 7C0 3.13401 3.13401 0 7 0C10.866 0 14 3.13401 14 7C14 10.866 10.866 14 7 14ZM7 12.7273C10.1631 12.7273 12.7273 10.1631 12.7273 7C12.7273 3.83691 10.1631 1.27273 7 1.27273C3.83691 1.27273 1.27273 3.83691 1.27273 7C1.27273 10.1631 3.83691 12.7273 7 12.7273ZM3.81818 7.63641H8.00914L6.55002 9.09553L7.44998 9.99548L10.4454 7.00005L7.44998 4.00462L6.55002 4.90457L8.00914 6.36368H3.81818V7.63641Z" fill="white"/>
</svg>
