<svg width="461" height="475" viewBox="0 0 461 475" fill="none" xmlns="http://www.w3.org/2000/svg">
<path fill-rule="evenodd" clip-rule="evenodd" d="M129.095 373.056C83.1053 336.895 51.3613 280.341 57.7687 222.489C63.711 168.836 112.416 134.438 158.601 106.647C197.631 83.1618 243.467 70.0731 286.906 84.6104C327.234 98.1069 349.282 137.36 366.502 176.224C383.441 214.452 393.712 255.211 379.882 294.448C363.234 341.681 334.586 387.528 286.739 402.525C233.256 419.289 173.387 407.882 129.095 373.056Z" fill="#DAF0F2"/>
<path d="M209.641 22.0611L224.608 26.695L214.604 40.9662L214.327 41.3611L214.712 41.652L221.178 46.5426L221.616 46.8743L221.905 46.4062L230.792 31.992L239.987 46.784L240.282 47.2586L240.721 46.9128L247.135 41.861L247.507 41.568L247.235 41.1806L237.389 27.1793L252.611 22.4912L253.082 22.3463L252.944 21.8735L250.565 13.7047L250.413 13.1825L249.905 13.3778L235.242 19.0202L235.739 1.01378L235.753 0.5H235.239H227.325H226.812L226.825 1.01259L227.271 18.7518L212.348 13.0017L211.842 12.8065L211.689 13.3276L209.309 21.4427L209.171 21.9154L209.641 22.0611Z" stroke="#209FAE"/>
<path d="M272.228 28.2951L283.041 31.7193L275.798 42.2881L275.531 42.6775L275.904 42.9663L280.646 46.6342L281.09 46.9778L281.38 46.4969L287.782 35.878L294.408 46.7806L294.705 47.2683L295.149 46.9102L299.853 43.1214L300.214 42.8306L299.951 42.4487L292.823 32.0826L303.824 28.6178L304.288 28.4717L304.155 28.0039L302.41 21.8773L302.259 21.3471L301.746 21.549L291.183 25.7059L291.542 12.3943L291.556 11.8809H291.042H285.238H284.726L284.738 12.3932L285.061 25.5047L274.307 21.2669L273.795 21.065L273.643 21.5943L271.898 27.6806L271.764 28.1482L272.228 28.2951Z" stroke="#209FAE"/>
<path d="M158.427 28.2951L169.241 31.7193L161.997 42.2881L161.73 42.6775L162.103 42.9663L166.845 46.6342L167.289 46.9778L167.579 46.4969L173.981 35.878L180.607 46.7806L180.904 47.2683L181.348 46.9102L186.052 43.1214L186.413 42.8306L186.15 42.4487L179.023 32.0826L190.023 28.6178L190.487 28.4717L190.354 28.0039L188.609 21.8773L188.458 21.3471L187.945 21.549L177.382 25.7059L177.741 12.3943L177.755 11.8809H177.241H171.438H170.925L170.938 12.3932L171.261 25.5047L160.506 21.2669L159.994 21.065L159.842 21.5943L158.097 27.6806L157.963 28.1482L158.427 28.2951Z" stroke="#209FAE"/>
<path d="M300.632 215.422V215.922H301.132H309.817C323.9 215.922 335.371 227.382 335.371 241.476V363.062C335.371 377.157 323.9 388.617 309.817 388.617H153.492C139.409 388.617 127.938 377.157 127.938 363.062V241.476C127.938 227.382 139.409 215.922 153.492 215.922H162.176H162.676V215.422V180.683C162.676 142.642 193.613 111.705 231.654 111.705C269.695 111.705 300.632 142.642 300.632 180.683V215.422ZM277.973 215.922H278.473V215.422V180.683C278.473 154.862 257.475 133.864 231.654 133.864C205.833 133.864 184.836 154.862 184.836 180.683V215.422V215.922H185.336H277.973ZM243.734 331.218V305.125C250.631 300.992 255.314 293.521 255.314 284.9C255.314 271.851 244.703 261.241 231.654 261.241C218.606 261.241 207.995 271.851 207.995 284.9C207.995 293.521 212.677 300.992 219.575 305.125V331.218C219.575 337.886 224.974 343.298 231.654 343.298C238.334 343.298 243.734 337.886 243.734 331.218Z" fill="white" stroke="#209FAE"/>
<path fill-rule="evenodd" clip-rule="evenodd" d="M142.166 219.016C141.934 220.412 141.812 221.847 141.812 223.309V344.895C141.812 359.265 153.508 370.949 167.866 370.949H324.192C328.246 370.949 332.09 370.016 335.518 368.355C333.464 380.687 322.713 390.116 309.817 390.116H153.492C139.133 390.116 127.438 378.432 127.438 364.062V242.475C127.438 232.164 133.46 223.236 142.166 219.016Z" fill="#DAF0F2"/>
<path d="M300.632 215.422V215.922H301.132H309.817C323.9 215.922 335.371 227.382 335.371 241.476V363.062C335.371 377.157 323.9 388.617 309.817 388.617H153.492C139.409 388.617 127.938 377.157 127.938 363.062V241.476C127.938 227.382 139.409 215.922 153.492 215.922H162.176H162.676V215.422V180.683C162.676 142.642 193.613 111.705 231.654 111.705C269.695 111.705 300.632 142.642 300.632 180.683V215.422ZM277.973 215.922H278.473V215.422V180.683C278.473 154.862 257.475 133.864 231.654 133.864C205.833 133.864 184.836 154.862 184.836 180.683V215.422V215.922H185.336H277.973ZM243.734 331.218V305.125C250.631 300.992 255.314 293.521 255.314 284.9C255.314 271.851 244.703 261.241 231.654 261.241C218.606 261.241 207.995 271.851 207.995 284.9C207.995 293.521 212.677 300.992 219.575 305.125V331.218C219.575 337.886 224.974 343.298 231.654 343.298C238.334 343.298 243.734 337.886 243.734 331.218Z" stroke="#209FAE"/>
</svg>
