<svg width="33" height="41" viewBox="0 0 33 41" fill="none" xmlns="http://www.w3.org/2000/svg">
<path d="M32.9854 4.73985L28.6501 39.1973C28.5099 40.3117 27.3943 41.1135 26.1599 40.9869L1.99664 38.5085C0.762323 38.3819 -0.125655 37.3747 0.0145659 36.2602L4.34989 1.80274C4.49011 0.688291 5.60567 -0.113452 6.84008 0.0131513L31.0033 2.49149C32.2377 2.6181 33.1257 3.62532 32.9854 4.73985Z" fill="#D75995"/>
<path d="M28.5759 2.24219L28.8189 37.839L28.8205 37.8368L32.8172 6.07161L28.5759 2.24219Z" fill="#902458"/>
<path d="M28.8197 3.16187V37.8409C28.8197 38.9626 27.8115 39.8729 26.5691 39.8729H2.25055C1.00824 39.8729 0 38.9627 0 37.8409V3.16187C0 2.04021 1.00816 1.12988 2.25055 1.12988H26.5691C27.8115 1.12988 28.8197 2.04013 28.8197 3.16187Z" fill="#209FAE"/>
<path d="M28.8197 36.2148V37.8404C28.8197 38.9621 27.8115 39.8724 26.5691 39.8724H2.25055C1.00824 39.8724 0 38.9622 0 37.8404V36.2148H28.8197Z" fill="#14646E"/>
<path d="M23.4591 16.4109C23.1908 15.8865 22.3626 15.9048 22.0904 15.9108C21.8286 15.9166 21.5271 15.9444 21.1878 15.994C21.3912 16.2233 21.5789 16.4639 21.7499 16.7148C22.0476 16.687 22.2644 16.6862 22.4154 16.6987C22.5478 16.7093 22.6153 16.846 22.5387 16.9441C22.4568 17.0484 22.3288 17.1848 22.1371 17.3531C22.0857 17.3984 22.0291 17.4463 21.9683 17.4962C20.7208 15.117 18.0382 13.4707 14.9289 13.4707C10.6294 13.4707 7.14387 16.6178 7.14387 20.4998C7.14387 21.5889 7.41837 22.62 7.90812 23.5402C7.83096 23.5542 7.75584 23.5673 7.68444 23.5788C7.05305 23.682 6.64675 23.6952 6.40578 23.6761C6.27425 23.6655 6.20285 23.5304 6.27895 23.4331C6.42387 23.2467 6.71638 22.9596 7.25598 22.5661C7.1656 22.2931 7.09287 22.0129 7.03877 21.7273C6.51904 22.0828 6.1123 22.4083 5.82547 22.6982C5.64374 22.8814 5.09208 23.4393 5.36037 23.9637C5.59399 24.4208 6.25394 24.4653 6.59975 24.4653C6.65039 24.4653 6.69447 24.4645 6.72915 24.4637C7.11034 24.4555 7.57553 24.4004 8.11859 24.2996C8.19389 24.2857 8.27123 24.2706 8.34945 24.2549C9.72949 26.2219 12.1596 27.5288 14.9291 27.5288C19.2287 27.5288 22.7143 24.3818 22.7143 20.4998C22.7143 19.7184 22.571 18.9676 22.3102 18.2655C22.3728 18.2177 22.4338 18.1701 22.4918 18.1236C22.687 17.9665 22.8548 17.8173 22.9941 17.6763C23.1411 17.5279 23.5316 17.1333 23.5316 16.7102C23.5315 16.6109 23.5103 16.5105 23.4591 16.4109ZM16.6134 14.2359C17.8932 14.5154 19.0385 15.1061 19.9451 15.9148C19.6228 16.0617 19.2755 16.1932 18.9073 16.3071C18.5997 16.403 18.2775 16.487 17.9431 16.5587C17.8314 16.2315 17.7053 15.9212 17.5648 15.6319C17.2849 15.0552 16.9606 14.586 16.6041 14.2338C16.6072 14.2345 16.6103 14.2352 16.6134 14.2359ZM12.0566 20.8346H15.8839L15.8994 20.8624C15.5908 20.998 15.278 21.1322 14.9611 21.2645C14.0167 21.6585 13.0784 22.0193 12.1787 22.3355C12.1106 21.8518 12.069 21.3491 12.0566 20.8346ZM15.7127 19.7392C15.5137 19.7063 15.3588 19.8931 15.4498 20.0562L15.5106 20.1651H12.0566C12.0809 19.1602 12.2145 18.199 12.4455 17.3405C13.2353 17.4671 14.0718 17.5332 14.929 17.5332C15.7863 17.5332 16.6229 17.4672 17.4126 17.3405C17.6372 18.1757 17.769 19.1084 17.7984 20.0838L15.7127 19.7392ZM15.3241 21.9736C15.6502 21.8374 15.9719 21.6995 16.2885 21.5603L16.7194 22.3329C16.8104 22.496 17.0687 22.4949 17.1579 22.331L17.7886 21.1727C17.7453 22.0548 17.6174 22.8975 17.4125 23.6591C16.6226 23.5325 15.7861 23.4664 14.9289 23.4664C14.0716 23.4664 13.2351 23.5324 12.4454 23.6591C12.3987 23.4854 12.357 23.3065 12.3183 23.1248C13.2853 22.7891 14.299 22.4014 15.3241 21.9736ZM14.929 14.1402C15.6299 14.1402 16.3429 14.7817 16.8857 15.9005C17.0059 16.1486 17.1151 16.4137 17.213 16.6931C16.4873 16.8054 15.7184 16.8639 14.9289 16.8639C14.1395 16.8639 13.3705 16.8054 12.645 16.6931C12.7429 16.4137 12.852 16.1486 12.9723 15.9005C13.515 14.7819 14.2283 14.1402 14.929 14.1402ZM13.2542 14.2337C12.8975 14.586 12.573 15.0551 12.2933 15.6319C12.153 15.9212 12.0267 16.2313 11.9149 16.5587C11.1809 16.4012 10.5048 16.1846 9.91291 15.9148C10.8219 15.1041 11.9704 14.5124 13.2542 14.2337ZM9.2973 16.5396C9.32994 16.5017 9.36346 16.464 9.3969 16.4269C9.43663 16.4462 9.47548 16.4655 9.51637 16.4845C10.1668 16.7875 10.9122 17.0293 11.7196 17.2043C11.6109 17.6134 11.5221 18.0436 11.4564 18.4892C11.3762 19.0287 11.3283 19.5907 11.3148 20.1653H7.80019C7.87761 18.8017 8.42413 17.5504 9.2973 16.5396ZM7.8738 21.4853C7.83717 21.2717 7.81269 21.0544 7.80027 20.8345H11.3149C11.3289 21.4334 11.3815 22.018 11.468 22.5786C10.5754 22.8756 9.7318 23.1237 8.97233 23.3106C8.8275 23.3462 8.69003 23.3782 8.55814 23.4078C8.22475 22.8139 7.98954 22.1674 7.8738 21.4853ZM9.3969 24.5728C9.26191 24.4236 9.13473 24.2684 9.01482 24.1084C9.80417 23.9212 10.682 23.6688 11.6149 23.3623C11.6475 23.5087 11.6819 23.6537 11.7196 23.7953C11.3744 23.8702 11.0408 23.957 10.7208 24.0558C10.2922 24.1883 9.88896 24.3416 9.51646 24.5152C9.47548 24.5341 9.43663 24.5534 9.3969 24.5728ZM9.91299 25.0849C10.5049 24.8151 11.1809 24.5985 11.915 24.441C12.0267 24.7684 12.153 25.0785 12.2934 25.3678C12.5732 25.9446 12.8976 26.4137 13.2543 26.766C11.9704 26.4873 10.8219 25.8956 9.91299 25.0849ZM14.929 26.8595C14.2283 26.8595 13.5151 26.2179 12.9725 25.0992C12.8521 24.8511 12.7431 24.5859 12.6451 24.3066C13.3708 24.1943 14.1398 24.1358 14.9291 24.1358C15.7186 24.1358 16.4875 24.1943 17.2132 24.3066C17.1153 24.586 17.0061 24.8511 16.8858 25.0992C16.343 26.2179 15.6298 26.8595 14.929 26.8595ZM16.6038 26.766C16.9605 26.4137 17.2849 25.9446 17.5647 25.3678C17.705 25.0785 17.8313 24.7684 17.943 24.441C18.677 24.5985 19.3531 24.8151 19.945 25.0849C19.0362 25.8956 17.8876 26.4873 16.6038 26.766ZM20.4612 24.5727C20.4216 24.5534 20.3823 24.5341 20.3418 24.5152C19.6911 24.2121 18.946 23.9702 18.1382 23.7954C18.3795 22.8902 18.5186 21.8831 18.543 20.8345H22.0578C21.9776 22.2492 21.392 23.5432 20.4612 24.5727ZM22.0578 20.1651H18.543C18.5186 19.1165 18.3795 18.1094 18.1382 17.2042C18.9459 17.0293 19.6911 16.7875 20.3418 16.4844C20.3823 16.4655 20.4217 16.4462 20.4612 16.4269C20.8604 16.8685 21.1954 17.3588 21.455 17.8863C21.2088 18.0616 20.9161 18.2563 20.5678 18.4714C19.9817 18.8335 20.3843 18.6265 19.6497 19.0061C19.4421 19.1133 19.3712 19.3531 19.4908 19.5401C19.6102 19.7269 19.8744 19.7906 20.0817 19.6834C20.9388 19.2405 20.6381 19.3846 21.2987 18.9645C21.4649 18.8588 21.6217 18.7555 21.7699 18.6545C21.9292 19.1367 22.0282 19.6426 22.0578 20.1651Z" fill="#FFF2E8"/>
<path d="M3.32568 10.1441V6.93995C3.32568 6.89487 3.34617 6.85611 3.38732 6.82376C3.42839 6.79149 3.48107 6.77539 3.54555 6.77539H4.59087C4.9482 6.77539 5.23317 6.86091 5.44594 7.03188C5.65844 7.20293 5.76496 7.47231 5.76496 7.84011V7.87887C5.76496 8.24667 5.65499 8.51701 5.43521 8.68958C5.21543 8.86223 4.92319 8.94855 4.55876 8.94855H3.89402V10.144C3.89402 10.1957 3.86635 10.2368 3.81091 10.2674C3.75548 10.2981 3.68852 10.3133 3.60985 10.3133C3.53491 10.3133 3.46865 10.298 3.41154 10.2674C3.35424 10.2369 3.32568 10.1958 3.32568 10.1441ZM3.89393 8.542H4.55867C4.76231 8.542 4.91956 8.48954 5.03042 8.38464C5.14111 8.27982 5.19654 8.12255 5.19654 7.91274V7.85468C5.19654 7.64496 5.14111 7.48849 5.03042 7.38519C4.91956 7.28197 4.7624 7.23023 4.55867 7.23023H3.89393C3.89393 7.23031 3.89393 8.542 3.89393 8.542Z" fill="#FFF2E8"/>
<path d="M5.76636 10.1016C5.76636 10.0823 5.76804 10.0678 5.77168 10.0581L6.83616 6.92116C6.88165 6.80513 7.00875 6.74707 7.21726 6.74707C7.42959 6.74707 7.55846 6.8012 7.60405 6.90931L8.66551 10.0457C8.67269 10.0659 8.67615 10.0811 8.67615 10.0912C8.67615 10.1521 8.63447 10.2044 8.55127 10.2483C8.4679 10.2923 8.37966 10.3142 8.28626 10.3142C8.17345 10.3142 8.10347 10.2791 8.07624 10.2089L7.85425 9.51553H6.53656L6.31722 10.207C6.2923 10.2784 6.22622 10.3142 6.11926 10.3142C6.03359 10.3142 5.9535 10.2933 5.87846 10.2514C5.80379 10.2096 5.76636 10.1596 5.76636 10.1016ZM6.6656 9.10906H7.72972L7.19225 7.44799L6.6656 9.10906Z" fill="#FFF2E8"/>
<path d="M8.85791 9.78179C8.85791 9.72053 8.88283 9.65919 8.93294 9.59785C8.98288 9.53659 9.04008 9.50592 9.10447 9.50592C9.14376 9.50592 9.19104 9.52666 9.24647 9.56806C9.30181 9.60938 9.35636 9.65398 9.41001 9.70203C9.46358 9.74999 9.54483 9.79468 9.65392 9.83608C9.76292 9.8774 9.88522 9.89806 10.0211 9.89806C10.2247 9.89806 10.3883 9.85426 10.5117 9.76673C10.6348 9.67921 10.6965 9.55092 10.6965 9.38228C10.6965 9.2266 10.6366 9.09688 10.517 8.99302C10.3972 8.88924 10.2524 8.80651 10.0827 8.74485C9.91298 8.68319 9.74234 8.61673 9.57072 8.5453C9.39919 8.47395 9.25356 8.36688 9.13383 8.22411C9.0141 8.08141 8.95432 7.90291 8.95432 7.68886C8.95432 7.5183 8.99095 7.37007 9.06421 7.24459C9.13738 7.11903 9.23662 7.02245 9.36168 6.95487C9.48682 6.88728 9.61808 6.83811 9.75573 6.8076C9.89321 6.77709 10.0388 6.76172 10.1925 6.76172C10.289 6.76172 10.39 6.76732 10.4954 6.77854C10.6008 6.78975 10.7053 6.808 10.8089 6.83363C10.9126 6.85917 10.9983 6.89585 11.0662 6.94374C11.1341 6.99162 11.1681 7.04584 11.1681 7.10646C11.1681 7.16715 11.1465 7.22817 11.1037 7.28983C11.0608 7.35149 11.0036 7.38224 10.9321 7.38224C10.8963 7.38224 10.8481 7.36687 10.7874 7.33604C10.7266 7.30521 10.6454 7.27446 10.5435 7.24355C10.4417 7.21272 10.3245 7.19734 10.1924 7.19734C9.98873 7.19734 9.82598 7.23386 9.70465 7.30681C9.58305 7.37992 9.5223 7.49091 9.5223 7.64018C9.5223 7.73755 9.55449 7.82107 9.61879 7.89082C9.68318 7.96049 9.76629 8.01814 9.86802 8.06355C9.96984 8.10895 10.0833 8.15356 10.2084 8.19744C10.3335 8.24124 10.4576 8.29233 10.5809 8.35063C10.7042 8.40901 10.8167 8.47635 10.9187 8.55267C11.0205 8.6289 11.1036 8.73356 11.168 8.86649C11.2323 8.9995 11.2644 9.15365 11.2644 9.32886C11.2644 9.66231 11.1527 9.9164 10.9293 10.091C10.7059 10.2657 10.4102 10.3531 10.0421 10.3531C9.71325 10.3531 9.43361 10.291 9.20319 10.1668C8.97312 10.0424 8.85791 9.91407 8.85791 9.78179Z" fill="#FFF2E8"/>
<path d="M11.6025 9.78179C11.6025 9.72053 11.6275 9.65919 11.6776 9.59785C11.7275 9.53659 11.7847 9.50592 11.8491 9.50592C11.8884 9.50592 11.9357 9.52666 11.9911 9.56806C12.0464 9.60938 12.101 9.65398 12.1546 9.70203C12.2082 9.74999 12.2895 9.79468 12.3985 9.83608C12.5075 9.8774 12.6299 9.89806 12.7657 9.89806C12.9694 9.89806 13.1329 9.85426 13.2563 9.76673C13.3795 9.67921 13.4411 9.55092 13.4411 9.38228C13.4411 9.2266 13.3812 9.09688 13.2616 8.99302C13.1419 8.88924 12.997 8.80651 12.8274 8.74485C12.6576 8.68319 12.487 8.61673 12.3154 8.5453C12.1438 8.47395 11.9982 8.36688 11.8785 8.22411C11.7587 8.08141 11.6989 7.90291 11.6989 7.68886C11.6989 7.5183 11.7356 7.37007 11.8088 7.24459C11.882 7.11903 11.9813 7.02245 12.1063 6.95487C12.2314 6.88728 12.3627 6.83811 12.5004 6.8076C12.6378 6.77709 12.7835 6.76172 12.9372 6.76172C13.0337 6.76172 13.1346 6.76732 13.2401 6.77854C13.3454 6.78975 13.4499 6.808 13.5536 6.83363C13.6573 6.85917 13.7429 6.89585 13.8109 6.94374C13.8787 6.99162 13.9127 7.04584 13.9127 7.10646C13.9127 7.16715 13.8911 7.22817 13.8483 7.28983C13.8055 7.35149 13.7483 7.38224 13.6768 7.38224C13.6409 7.38224 13.5928 7.36687 13.532 7.33604C13.4712 7.30521 13.39 7.27446 13.2881 7.24355C13.1863 7.21272 13.0691 7.19734 12.937 7.19734C12.7334 7.19734 12.5706 7.23386 12.4493 7.30681C12.3277 7.37992 12.2669 7.49091 12.2669 7.64018C12.2669 7.73755 12.2991 7.82107 12.3634 7.89082C12.4278 7.96049 12.5109 8.01814 12.6126 8.06355C12.7145 8.10895 12.8279 8.15356 12.953 8.19744C13.0781 8.24124 13.2023 8.29233 13.3255 8.35063C13.4488 8.40901 13.5614 8.47635 13.6633 8.55267C13.7651 8.6289 13.8482 8.73356 13.9126 8.86649C13.9769 8.9995 14.009 9.15365 14.009 9.32886C14.009 9.66231 13.8973 9.9164 13.6739 10.091C13.4505 10.2657 13.1548 10.3531 12.7867 10.3531C12.4579 10.3531 12.1782 10.291 11.9478 10.1668C11.7177 10.0424 11.6025 9.91407 11.6025 9.78179Z" fill="#FFF2E8"/>
<path d="M14.5452 10.1441V6.93995C14.5452 6.89487 14.5657 6.85611 14.6068 6.82376C14.6479 6.79149 14.7006 6.77539 14.765 6.77539H15.8104C16.1677 6.77539 16.4527 6.86091 16.6654 7.03188C16.8779 7.20293 16.9845 7.47231 16.9845 7.84011V7.87887C16.9845 8.24667 16.8745 8.51701 16.6548 8.68958C16.435 8.86223 16.1428 8.94855 15.7783 8.94855H15.1136V10.144C15.1136 10.1957 15.0859 10.2368 15.0305 10.2674C14.9751 10.2981 14.9081 10.3133 14.8294 10.3133C14.7545 10.3133 14.6882 10.298 14.6311 10.2674C14.5738 10.2369 14.5452 10.1958 14.5452 10.1441ZM15.1134 8.542H15.7782C15.9818 8.542 16.139 8.48954 16.2499 8.38464C16.3606 8.27982 16.416 8.12255 16.416 7.91274V7.85468C16.416 7.64496 16.3606 7.48849 16.2499 7.38519C16.139 7.28197 15.9819 7.23023 15.7782 7.23023H15.1134V8.542Z" fill="#FFF2E8"/>
<path d="M17.4292 9.26318V7.85477C17.4292 7.48376 17.5382 7.21102 17.7561 7.03677C17.9741 6.8626 18.2654 6.77539 18.63 6.77539C18.9946 6.77539 19.2867 6.86252 19.5065 7.03677C19.7263 7.2111 19.8361 7.48376 19.8361 7.85477V9.26318C19.8361 9.63426 19.7262 9.90693 19.5065 10.0812C19.2867 10.2554 18.9945 10.3426 18.63 10.3426C18.2655 10.3426 17.9741 10.2554 17.7561 10.0812C17.5381 9.90693 17.4292 9.63434 17.4292 9.26318ZM17.9974 9.26318C17.9974 9.67943 18.2083 9.88755 18.63 9.88755C18.8337 9.88755 18.991 9.8359 19.1017 9.7326C19.2125 9.62938 19.2679 9.47291 19.2679 9.2631V7.85477C19.2679 7.64504 19.2125 7.48857 19.1017 7.38527C18.991 7.28205 18.8338 7.23032 18.63 7.23032C18.2083 7.23032 17.9974 7.43844 17.9974 7.85469V9.26318Z" fill="#FFF2E8"/>
<path d="M20.5002 10.1441V6.93995C20.5002 6.89487 20.5182 6.85611 20.5539 6.82376C20.5896 6.79149 20.6343 6.77539 20.6879 6.77539H21.7064C22.5283 6.77539 22.9394 7.10451 22.9394 7.76276C22.9394 8.0359 22.8714 8.25043 22.7356 8.4061C22.5998 8.56202 22.4158 8.66564 22.1836 8.71705L22.9341 9.99293C22.9483 10.0156 22.9556 10.0398 22.9556 10.0657C22.9556 10.1304 22.9189 10.1903 22.8457 10.2454C22.7723 10.3005 22.6946 10.3279 22.6125 10.3279C22.5196 10.3279 22.4445 10.2778 22.3873 10.1774L21.6047 8.78872H21.0633V10.1434C21.0633 10.1952 21.0356 10.2365 20.9802 10.2672C20.9247 10.2979 20.8577 10.3133 20.7791 10.3133C20.7041 10.3133 20.6388 10.298 20.5833 10.2674C20.5279 10.2369 20.5002 10.1958 20.5002 10.1441ZM21.0632 8.38232H21.7064C22.1496 8.38232 22.3711 8.19045 22.3711 7.8064C22.3711 7.42242 22.1495 7.2304 21.7064 7.2304H21.0632V8.38232Z" fill="#FFF2E8"/>
<path d="M23.1704 7.0101C23.1704 6.9482 23.1865 6.89351 23.2187 6.84626C23.2508 6.79901 23.2971 6.77539 23.358 6.77539H25.5826C25.6433 6.77539 25.6898 6.79821 25.722 6.84378C25.7541 6.88942 25.7702 6.94323 25.7702 7.00522C25.7702 7.07376 25.7532 7.13158 25.7193 7.17882C25.6854 7.22607 25.6398 7.24969 25.5826 7.24969H24.7571V10.1444C24.7571 10.1959 24.7285 10.237 24.6713 10.2675C24.6141 10.2981 24.5481 10.3134 24.4729 10.3134C24.3944 10.3134 24.3273 10.2981 24.2719 10.2675C24.2165 10.237 24.1888 10.1959 24.1888 10.1444V7.24961H23.3579C23.3007 7.24961 23.2551 7.22599 23.2211 7.17874C23.1872 7.1315 23.1704 7.07528 23.1704 7.0101Z" fill="#FFF2E8"/>
<path d="M10.923 32.7783H17.8943C18.1277 32.7783 18.3171 32.9492 18.3171 33.1601V33.8718C18.3171 34.0826 18.1278 34.2535 17.8943 34.2535H10.923C10.6896 34.2535 10.5002 34.0826 10.5002 33.8718V33.1601C10.5004 32.9492 10.6896 32.7783 10.923 32.7783Z" fill="#FFF2E8"/>
<path d="M8.002 29.9268H20.8162C21.0172 29.9268 21.18 30.0739 21.18 30.2552V31.0732C21.18 31.2547 21.0171 31.4017 20.8162 31.4017H8.002C7.80102 31.4017 7.63818 31.2546 7.63818 31.0732V30.2552C7.63818 30.0739 7.80102 29.9268 8.002 29.9268Z" fill="#FFF2E8"/>
</svg>
