<svg width="10" height="10" viewBox="0 0 10 10" fill="none" xmlns="http://www.w3.org/2000/svg">
<path fill-rule="evenodd" clip-rule="evenodd" d="M6.49773 0C6.79241 0 7.07488 0.117656 7.28118 0.325587L8.67679 1.72119C8.88457 1.92897 9.0013 2.21079 9.0013 2.50464C9.0013 2.79849 8.88457 3.08031 8.67679 3.28809L3.58139 8.38188C3.26703 8.74452 2.82141 8.96731 2.3109 9.00233H0V8.55227L0.00146165 6.65523C0.0398029 6.18066 0.260437 5.73937 0.597008 5.44281L5.71374 0.326129C5.92122 0.11739 6.20339 0 6.49773 0ZM2.27912 8.10332C2.51955 8.0863 2.74336 7.9744 2.92307 7.76884L6.32642 4.36549L4.63671 2.67571L1.21342 6.09818C1.03107 6.25946 0.918269 6.48508 0.900128 6.69148V8.10248L2.27912 8.10332ZM5.27327 2.0393L6.96291 3.729L8.0403 2.65161C8.07928 2.61263 8.10118 2.55976 8.10118 2.50464C8.10118 2.44952 8.07928 2.39665 8.0403 2.35768L6.64345 0.960822C6.60491 0.921977 6.55245 0.900128 6.49773 0.900128C6.44301 0.900128 6.39055 0.921977 6.35201 0.960822L5.27327 2.0393Z" fill="#209FAE"/>
</svg>
