<svg width="254" height="266" viewBox="0 0 254 266" fill="none" xmlns="http://www.w3.org/2000/svg">
<path d="M126.696 123.307C155.398 123.307 178.85 99.8552 178.85 71.1533C178.85 42.4515 155.398 19 126.696 19C97.9945 19 74.543 42.4515 74.543 71.1533C74.543 99.8552 97.9945 123.307 126.696 123.307ZM126.696 33.0009C147.698 33.0009 164.849 50.152 164.849 71.1533C164.849 92.1547 147.698 109.306 126.696 109.306C105.695 109.306 88.5439 92.1547 88.5439 71.1533C88.5439 50.152 105.695 33.0009 126.696 33.0009Z" fill="#58595B"/>
<path d="M151.376 132.758H102.023C64.0453 132.758 33.0684 163.735 33.0684 201.712V239.515C33.0684 243.365 36.2186 246.515 40.0688 246.515H213.33C217.18 246.515 220.33 243.365 220.33 239.515V201.712C220.33 163.735 189.353 132.758 151.376 132.758ZM206.329 232.689H47.0693V201.887C47.0693 171.61 71.7458 146.934 102.023 146.934H151.376C181.653 146.934 206.329 171.61 206.329 201.887V232.689Z" fill="#58595B"/>
</svg>
