<svg width="89" height="89" viewBox="0 0 89 89" fill="none" xmlns="http://www.w3.org/2000/svg">
<path fill-rule="evenodd" clip-rule="evenodd" d="M80.1 0H8.9C3.98467 0 0 3.98467 0 8.9V80.1C0 85.0153 3.98467 89 8.9 89H80.1C85.0153 89 89 85.0153 89 80.1V8.9C89 3.98467 85.0153 0 80.1 0ZM8.90102 80.1V62.3H26.698V80.1H8.90102ZM35.598 80.1H53.401V62.3H35.598V80.1ZM35.598 53.4H53.401V35.6082H35.598V53.4ZM35.598 26.7082H53.401V8.9H35.598V26.7082ZM26.698 8.9V26.7082H8.90102V8.9H26.698ZM26.698 35.6082V53.4H8.90102V35.6082H26.698ZM62.301 80.1V62.3H80.101V80.1H62.301ZM62.301 35.6082V53.4H80.101V35.6082H62.301ZM80.101 26.7082H62.301V8.9H80.101V26.7082Z" fill="#464646"/>
</svg>
