<svg width="489" height="489" viewBox="0 0 489 489" fill="none" xmlns="http://www.w3.org/2000/svg">
<circle cx="244.5" cy="244.5" r="244.5" fill="#F2F2F2"/>
<path d="M307.83 103H182.055C171.576 103 163 111.568 163 122.055V366.052C163 376.539 171.576 385.115 182.055 385.115H307.83C318.309 385.115 326.885 376.555 326.885 366.061V122.055C326.885 111.568 318.309 103 307.83 103ZM224.824 116.735H265.061C266.335 116.735 267.367 117.767 267.367 119.048C267.367 120.322 266.335 121.354 265.061 121.354H224.824C223.55 121.354 222.518 120.322 222.518 119.048C222.518 117.767 223.55 116.735 224.824 116.735ZM244.942 375.588C239.679 375.588 235.415 371.324 235.415 366.052C235.415 360.781 239.679 356.525 244.942 356.525C250.206 356.525 254.47 360.781 254.47 366.052C254.47 371.324 250.206 375.588 244.942 375.588ZM313.625 349.851H176.259V133.219H313.625V349.851Z" fill="#27958B"/>
</svg>
