<svg width="232" height="399" viewBox="0 0 232 399" fill="none" xmlns="http://www.w3.org/2000/svg">
<path d="M205.025 0H26.9746C12.1409 0 0 12.1182 0 26.9496V372.039C0 386.87 12.1409 399 26.9746 399H205.025C219.859 399 232 386.893 232 372.05V26.9496C232 12.1182 219.859 0 205.025 0ZM87.5192 19.4256H144.481C146.284 19.4256 147.744 20.8848 147.744 22.6974C147.744 24.4986 146.284 25.9578 144.481 25.9578H87.5192C85.7163 25.9578 84.2558 24.4986 84.2558 22.6974C84.2558 20.8848 85.7163 19.4256 87.5192 19.4256ZM116 385.525C108.549 385.525 102.513 379.495 102.513 372.039C102.513 364.583 108.549 358.564 116 358.564C123.451 358.564 129.487 364.583 129.487 372.039C129.487 379.495 123.451 385.525 116 385.525ZM213.23 349.125H18.7704V42.7386H213.23V349.125Z" fill="#2EC4B6"/>
</svg>
