<svg width="9" height="14" viewBox="0 0 9 14" fill="none" xmlns="http://www.w3.org/2000/svg">
<path d="M4.5 13.0245C4.41875 12.8865 4.32795 12.7312 4.22941 12.5613C3.80973 11.8376 3.25079 10.8493 2.69242 9.78885C2.13324 8.72684 1.57875 7.60021 1.16533 6.59818C0.741788 5.57161 0.5 4.75274 0.5 4.27326C0.5 2.21298 2.26575 0.5 4.5 0.5C6.73424 0.5 8.5 2.21298 8.5 4.27326C8.5 4.75274 8.25821 5.57161 7.83467 6.59818C7.42125 7.60021 6.86676 8.72684 6.30758 9.78885C5.74921 10.8493 5.19027 11.8376 4.77059 12.5613C4.67205 12.7312 4.58125 12.8865 4.5 13.0245ZM2.45714 3.9782C2.45714 5.08216 3.39139 5.93314 4.48929 5.93314C5.58718 5.93314 6.52143 5.08216 6.52143 3.9782C6.52143 2.87423 5.58718 2.02326 4.48929 2.02326C3.39139 2.02326 2.45714 2.87423 2.45714 3.9782Z" stroke="#8EBBEE"/>
</svg>
