<svg width="28" height="28" viewBox="0 0 28 28" fill="none" xmlns="http://www.w3.org/2000/svg">
<rect width="28" height="28" rx="3" fill="#F6F6F6"/>
<path fill-rule="evenodd" clip-rule="evenodd" d="M13.3102 5.75188C16.8761 5.02395 19.9991 7.73303 19.9991 11.1681C19.9991 11.8538 19.8755 12.5058 19.6497 13.108C19.4628 13.6073 19.2059 14.0721 18.9011 14.4937L14.7806 19.9301C14.6297 20.1423 14.3172 20.1423 14.1662 19.9301L10.0663 14.4937C9.57364 13.8359 9.22328 13.0705 9.0608 12.2389C8.92133 11.5225 8.92133 10.7561 9.08908 9.96578C9.53242 7.87419 11.2248 6.18594 13.3102 5.75188ZM12.0707 11.1681C12.0707 12.503 13.1486 13.5939 14.4787 13.5939C15.8082 13.5939 16.8861 12.503 16.8861 11.1681C16.8861 9.83422 15.8082 8.75289 14.4787 8.75289C13.1486 8.75289 12.0707 9.83422 12.0707 11.1681ZM8.13242 23.3661H20.8053C21.1374 23.3661 21.4298 23.2048 21.5908 22.9215C21.7519 22.6392 21.7619 22.3059 21.611 22.0121L19.9891 18.9707C19.9009 18.8036 19.7724 18.6682 19.6195 18.5722C19.458 18.4714 19.2692 18.4147 19.0727 18.4147H18.4175C18.1356 18.4147 17.9137 18.6375 17.9137 18.9198C17.9137 19.2031 18.1356 19.425 18.4175 19.425L19.1028 19.4451L20.6538 22.3559H8.27333L9.85498 19.425H10.5198C10.8021 19.425 11.0235 19.2031 11.0235 18.9198C11.0235 18.6375 10.8021 18.4147 10.5198 18.4147H9.86505C9.48209 18.4147 9.12934 18.6269 8.94817 18.9707L7.32626 22.0121C7.24717 22.1561 7.21171 22.3127 7.21506 22.4663C7.2189 22.6257 7.26443 22.7823 7.34639 22.9215C7.50791 23.1952 7.80986 23.3661 8.13242 23.3661Z" fill="#219FAE"/>
</svg>
