<svg width="410" height="512" viewBox="0 0 410 512" fill="none" xmlns="http://www.w3.org/2000/svg">
<path d="M12.4313 154.653L29.9383 143.49C31.1078 142.744 32.5731 142.633 33.845 143.191L72.9125 160.413L116.558 132.585L89.7677 90.5685C88.5354 88.6357 89.1039 86.0669 91.0366 84.8346L108.544 73.6722C109.871 72.826 111.56 72.8029 112.912 73.6104L162.489 103.3L212.521 71.3996C217.055 68.5086 222.442 67.5563 227.69 68.7209L239.443 71.3187C241.727 71.8272 244.089 71.6462 246.273 70.8002L249.296 69.6259C258.208 66.1698 268.407 69.5066 273.547 77.5668C279.514 86.9261 276.755 99.3916 267.396 105.359L193.744 152.319L199.739 209.797C199.904 211.361 199.17 212.883 197.843 213.729L180.336 224.891C178.403 226.123 175.835 225.555 174.602 223.622L147.812 181.605L133.807 190.535C133.467 190.752 133.096 190.919 132.708 191.029L49.2849 214.67C47.5203 215.17 45.6342 214.452 44.6497 212.908L31.2547 191.899L11.1623 160.386C9.93 158.454 10.4985 155.885 12.4313 154.653ZM32.5301 151.687L21.273 158.865L55.2829 171.654L64.4986 165.778L32.5301 151.687ZM110.845 82.0547L99.003 89.6049L123.56 128.12L154.66 108.292L110.845 82.0547ZM152.583 173.639L179.373 215.656L191.214 208.106L185.219 150.628L183.506 134.223L143.653 159.633L152.583 173.639ZM49.9915 205.838L129.857 183.204L143.347 174.602L134.418 160.597C133.185 158.664 133.754 156.095 135.686 154.863L184.706 123.608C185.921 122.833 187.447 122.747 188.744 123.368C190.04 123.994 190.921 125.245 191.07 126.676L192.78 143.084L262.931 98.3562C268.428 94.8512 270.049 87.529 266.544 82.0318C263.526 77.2979 257.536 75.3349 252.3 77.3638L249.276 78.5382C245.561 79.9807 241.536 80.2868 237.646 79.4229L225.894 76.8251C222.811 76.146 219.647 76.7058 216.986 78.4025L164.79 111.682L124.524 137.356L40.4901 190.936L49.9915 205.838ZM36.0251 183.933L46.5293 177.235L27.0951 169.927L36.0251 183.933Z" fill="#3E3E3E"/>
<path d="M209.514 93.0127L216.517 88.5477L220.982 95.5506L213.979 100.016L209.514 93.0127Z" fill="#3E3E3E"/>
<path d="M195.511 101.943L202.514 97.4779L206.979 104.481L199.976 108.946L195.511 101.943Z" fill="#3E3E3E"/>
<path d="M181.511 110.872L188.514 106.407L192.979 113.41L185.976 117.875L181.511 110.872Z" fill="#3E3E3E"/>
<path d="M167.499 119.802L174.502 115.337L178.967 122.34L171.964 126.805L167.499 119.802Z" fill="#3E3E3E"/>
<path d="M153.499 128.732L160.501 124.267L164.966 131.27L157.964 135.735L153.499 128.732Z" fill="#3E3E3E"/>
<path d="M139.487 137.662L146.49 133.197L150.954 140.2L143.952 144.665L139.487 137.662Z" fill="#3E3E3E"/>
<path d="M125.483 146.592L132.486 142.127L136.951 149.13L129.948 153.595L125.483 146.592Z" fill="#3E3E3E"/>
<path d="M111.474 155.522L118.477 151.057L122.942 158.06L115.939 162.525L111.474 155.522Z" fill="#3E3E3E"/>
<path d="M97.4708 164.453L104.474 159.988L108.939 166.99L101.936 171.455L97.4708 164.453Z" fill="#3E3E3E"/>
<path d="M83.4703 173.382L90.4731 168.917L94.9381 175.92L87.9353 180.385L83.4703 173.382Z" fill="#3E3E3E"/>
<path d="M312.04 460.73H255.598C252.483 460.73 249.954 463.252 249.954 466.374V505.882C249.954 509.004 252.483 511.526 255.598 511.526H312.04C315.161 511.526 317.683 509.004 317.683 505.882V466.374C317.683 463.252 315.161 460.73 312.04 460.73ZM306.395 500.238H261.242V472.018H306.395V500.238Z" fill="#3E3E3E"/>
<path d="M289.461 466.376H278.173V505.885H289.461V466.376Z" fill="#3E3E3E"/>
<path d="M340.255 240.609H227.372C224.257 240.609 221.729 243.138 221.729 246.253V505.884C221.729 509.005 224.257 511.528 227.372 511.528H340.256C343.377 511.528 345.9 509.005 345.9 505.884V246.253C345.9 243.138 343.376 240.609 340.255 240.609ZM334.611 500.24H233.016V251.898H334.611V500.24V500.24Z" fill="#3E3E3E"/>
<path d="M227.374 263.185H182.22C179.105 263.185 176.576 265.713 176.576 268.829V505.883C176.576 509.004 179.105 511.527 182.22 511.527H227.374C230.489 511.527 233.018 509.004 233.018 505.883V268.829C233.018 265.713 230.489 263.185 227.374 263.185ZM221.729 500.239H187.864V274.473H221.729V500.239Z" fill="#3E3E3E"/>
<path d="M182.219 263.185H165.287V274.473H182.219V263.185Z" fill="#3E3E3E"/>
<path d="M357.195 240.609H210.447V251.898H357.195V240.609Z" fill="#3E3E3E"/>
<path d="M255.59 432.51H244.302V449.442H255.59V432.51Z" fill="#3E3E3E"/>
<path d="M278.174 432.51H266.886V449.442H278.174V432.51Z" fill="#3E3E3E"/>
<path d="M300.756 432.51H289.467V449.442H300.756V432.51Z" fill="#3E3E3E"/>
<path d="M323.329 432.51H312.04V449.442H323.329V432.51Z" fill="#3E3E3E"/>
<path d="M255.59 404.289H244.302V421.222H255.59V404.289Z" fill="#3E3E3E"/>
<path d="M278.174 404.289H266.886V421.222H278.174V404.289Z" fill="#3E3E3E"/>
<path d="M300.756 404.289H289.467V421.222H300.756V404.289Z" fill="#3E3E3E"/>
<path d="M323.329 404.289H312.04V421.222H323.329V404.289Z" fill="#3E3E3E"/>
<path d="M255.59 376.068H244.302V393H255.59V376.068Z" fill="#3E3E3E"/>
<path d="M278.174 376.068H266.886V393H278.174V376.068Z" fill="#3E3E3E"/>
<path d="M300.756 376.068H289.467V393H300.756V376.068Z" fill="#3E3E3E"/>
<path d="M323.329 376.068H312.04V393H323.329V376.068Z" fill="#3E3E3E"/>
<path d="M255.59 347.846H244.302V364.779H255.59V347.846Z" fill="#3E3E3E"/>
<path d="M278.174 347.846H266.886V364.779H278.174V347.846Z" fill="#3E3E3E"/>
<path d="M300.756 347.846H289.467V364.779H300.756V347.846Z" fill="#3E3E3E"/>
<path d="M323.329 347.846H312.04V364.779H323.329V347.846Z" fill="#3E3E3E"/>
<path d="M255.59 319.626H244.302V336.558H255.59V319.626Z" fill="#3E3E3E"/>
<path d="M278.174 319.626H266.886V336.558H278.174V319.626Z" fill="#3E3E3E"/>
<path d="M300.756 319.626H289.467V336.558H300.756V319.626Z" fill="#3E3E3E"/>
<path d="M323.329 319.626H312.04V336.558H323.329V319.626Z" fill="#3E3E3E"/>
<path d="M255.59 291.404H244.302V308.336H255.59V291.404Z" fill="#3E3E3E"/>
<path d="M278.174 291.404H266.886V308.336H278.174V291.404Z" fill="#3E3E3E"/>
<path d="M300.756 291.404H289.467V308.336H300.756V291.404Z" fill="#3E3E3E"/>
<path d="M323.329 291.404H312.04V308.336H323.329V291.404Z" fill="#3E3E3E"/>
<path d="M255.59 263.185H244.302V280.117H255.59V263.185Z" fill="#3E3E3E"/>
<path d="M278.174 263.185H266.886V280.117H278.174V263.185Z" fill="#3E3E3E"/>
<path d="M300.756 263.185H289.467V280.117H300.756V263.185Z" fill="#3E3E3E"/>
<path d="M323.329 263.185H312.04V280.117H323.329V263.185Z" fill="#3E3E3E"/>
<path d="M210.441 460.73H199.152V477.662H210.441V460.73Z" fill="#3E3E3E"/>
<path d="M210.441 432.51H199.152V449.442H210.441V432.51Z" fill="#3E3E3E"/>
<path d="M210.441 404.289H199.152V421.222H210.441V404.289Z" fill="#3E3E3E"/>
<path d="M210.441 376.068H199.152V393H210.441V376.068Z" fill="#3E3E3E"/>
<path d="M210.441 347.846H199.152V364.779H210.441V347.846Z" fill="#3E3E3E"/>
<path d="M210.441 319.626H199.152V336.558H210.441V319.626Z" fill="#3E3E3E"/>
<path d="M210.441 291.404H199.152V308.336H210.441V291.404Z" fill="#3E3E3E"/>
<path d="M385.405 263.185H340.252C337.13 263.185 334.608 265.713 334.608 268.829V505.883C334.608 509.004 337.13 511.527 340.252 511.527H385.405C388.526 511.527 391.049 509.004 391.049 505.883V268.829C391.049 265.713 388.526 263.185 385.405 263.185ZM379.761 500.239H345.896V274.473H379.761V500.239Z" fill="#3E3E3E"/>
<path d="M402.346 263.185H385.413V274.473H402.346V263.185Z" fill="#3E3E3E"/>
<path d="M368.483 460.73H357.195V477.662H368.483V460.73Z" fill="#3E3E3E"/>
<path d="M368.483 432.51H357.195V449.442H368.483V432.51Z" fill="#3E3E3E"/>
<path d="M368.483 404.289H357.195V421.222H368.483V404.289Z" fill="#3E3E3E"/>
<path d="M368.483 376.068H357.195V393H368.483V376.068Z" fill="#3E3E3E"/>
<path d="M368.483 347.846H357.195V364.779H368.483V347.846Z" fill="#3E3E3E"/>
<path d="M368.483 319.626H357.195V336.558H368.483V319.626Z" fill="#3E3E3E"/>
<path d="M368.483 291.404H357.195V308.336H368.483V291.404Z" fill="#3E3E3E"/>
<path d="M182.223 500.24H156.163V511.528H182.223V500.24Z" fill="#3E3E3E"/>
<path d="M409.489 500.24H385.413V511.528H409.489V500.24Z" fill="#3E3E3E"/>
</svg>
