<svg width="134" height="136" viewBox="0 0 134 136" fill="none" xmlns="http://www.w3.org/2000/svg">
<path d="M0 67C0 29.9969 29.9969 0 67 0C104.003 0 134 29.9969 134 67C134 104.003 104.003 134 67 134C29.9969 134 0 104.003 0 67Z" fill="#E2ECF8" fill-opacity="0.3"/>
<path d="M14.4844 106.125C25.5018 123.955 45.2249 135.833 67.7269 135.833C90.229 135.833 109.952 123.955 120.969 106.15" fill="url(#paint0_linear)"/>
<path d="M28.9199 72.8769L19.7961 65.0565L27.2231 61.2447L30.2725 62.5481L65.3905 48.014L40.5275 34.0209L39.8144 33.5045L40.1587 32.8159L46.8478 30.037L47.6102 29.8894L48.7414 30.0861L83.9823 40.292L101.172 33.1848C101.172 33.1848 103.46 32.5454 105.255 32.8897C107.05 33.234 108.968 33.775 109.952 34.1931C110.936 34.6111 112.608 35.4719 112.608 35.4719C112.608 35.4719 118.756 43.5136 116.149 44.694C113.567 45.8745 110.05 47.3254 110.05 47.3254L89.491 55.8836L74.711 91.8869C74.711 91.8869 74.2929 93.264 73.8011 93.6575C73.3092 94.051 71.8583 94.715 71.8583 94.715L67.2841 96.6086C67.2841 96.6086 66.0299 96.9775 65.9561 96.6086C65.8823 96.2397 66.0545 95.1822 66.0545 95.1822L72.9649 62.7449C72.9649 62.7449 51.5449 71.6227 51.3236 71.6965C51.1023 71.7703 49.0365 72.2621 47.7823 72.4343C46.5035 72.6064 40.8964 73.1229 40.8964 73.1229L36.0763 73.4426L28.9199 72.8769Z" fill="#F4F4F4"/>
<path d="M29.3383 71.4985L26.3872 83.5242C26.3872 83.5242 25.9446 84.8768 27.0266 84.4341C28.1087 83.9915 30.2483 83.0569 30.2483 83.0569C30.2483 83.0569 30.7401 82.5651 31.0844 81.9503C31.4287 81.3601 39.4212 67.5883 39.4212 67.5883C39.4212 67.5883 39.8393 66.7276 39.4212 66.8014C39.0032 66.8751 36.7652 67.7851 36.7652 67.7851L30.0023 70.687L29.3383 71.4985Z" fill="#C6DBDC"/>
<path d="M21.1244 66.3096L30.3958 62.4731L15.6895 56.325L14.6074 56.1775L11.9269 57.2104L11.5088 57.8252L11.8777 58.2678L21.1244 66.3096Z" fill="#C6DBDC"/>
<path d="M108.378 33.7251L99.6968 37.4631C99.6968 37.4631 98.6148 38.1763 98.9837 39.16C99.3525 40.1191 99.8198 40.4388 100.582 40.4388C101.345 40.4388 103.041 39.4305 103.041 39.4305L112.411 35.4958L110.198 34.3153L108.378 33.7251Z" fill="#C6DBDC"/>
<path d="M113.026 35.2992C113.026 35.2992 114.723 34.9303 115.239 35.1024C115.756 35.2746 117.6 35.5943 118.461 37.0944C119.322 38.5945 119.789 39.8487 119.395 41.2751C119.395 41.2751 118.658 43.2179 118.043 43.7343C117.403 44.2508 116.444 44.7672 116.444 44.7672C116.444 44.7672 114.772 43.6114 113.961 42.3572C113.149 41.103 112.387 38.6683 112.411 37.5862C112.436 36.5042 112.633 35.7172 112.633 35.7172L113.026 35.2992Z" fill="#C6DBDC"/>
<path d="M120.773 107.06H14.7058C14.1893 107.06 13.7712 106.642 13.7712 106.125C13.7712 105.609 14.1893 105.191 14.7058 105.191H120.773C121.289 105.191 121.707 105.609 121.707 106.125C121.707 106.642 121.289 107.06 120.773 107.06Z" fill="#6F7273"/>
<path d="M77.3178 116.872H58.1357C57.6192 116.872 57.2012 116.454 57.2012 115.937C57.2012 115.421 57.6192 115.003 58.1357 115.003H77.3178C77.8342 115.003 78.2523 115.421 78.2523 115.937C78.2523 116.454 77.8342 116.872 77.3178 116.872Z" fill="#6F7273"/>
<path d="M108.402 116.872H90.7695C90.253 116.872 89.835 116.454 89.835 115.937C89.835 115.421 90.253 115.003 90.7695 115.003H108.402C108.919 115.003 109.337 115.421 109.337 115.937C109.312 116.454 108.894 116.872 108.402 116.872Z" fill="#6F7273"/>
<path d="M44.7081 116.872H27.0754C26.5589 116.872 26.1409 116.454 26.1409 115.937C26.1409 115.421 26.5589 115.003 27.0754 115.003H44.7081C45.2246 115.003 45.6426 115.421 45.6426 115.937C45.6181 116.454 45.2246 116.872 44.7081 116.872Z" fill="#6F7273"/>
<path d="M51.3229 61.514C51.9477 61.514 52.4542 61.0075 52.4542 60.3827C52.4542 59.7579 51.9477 59.2515 51.3229 59.2515C50.6981 59.2515 50.1917 59.7579 50.1917 60.3827C50.1917 61.0075 50.6981 61.514 51.3229 61.514Z" fill="#6F7273"/>
<path d="M51.3238 61.8835C50.709 61.8835 50.1679 61.5146 49.9466 60.949C49.799 60.5801 49.799 60.162 49.9466 59.7932C50.0942 59.4243 50.3893 59.1292 50.7582 58.9816C50.9303 58.9078 51.127 58.8586 51.3238 58.8586C51.9386 58.8586 52.4796 59.2275 52.701 59.7932C52.8485 60.162 52.8485 60.5801 52.701 60.949C52.5534 61.3179 52.2583 61.613 51.8894 61.7605C51.6927 61.8343 51.5205 61.8835 51.3238 61.8835ZM51.2992 59.621C51.2008 59.621 51.1024 59.6456 51.0041 59.6702C50.8073 59.744 50.6598 59.8915 50.586 60.0883C50.5122 60.285 50.5122 60.4817 50.586 60.6785C50.709 60.9736 50.9795 61.1457 51.2992 61.1457C51.3976 61.1457 51.4959 61.1211 51.5943 61.0966C51.791 61.0228 51.9386 60.8752 52.0124 60.6785C52.0861 60.4817 52.0861 60.285 52.0124 60.0883C51.8894 59.8177 51.6189 59.621 51.2992 59.621Z" fill="#6F7273"/>
<path d="M60.2504 56.6945C60.4963 57.2601 60.2258 57.9241 59.6356 58.1701C59.0699 58.416 58.4059 58.1455 58.16 57.5552C57.9141 56.9896 58.1846 56.3256 58.7748 56.0797C59.3405 55.8338 60.0045 56.1043 60.2504 56.6945Z" fill="#6F7273"/>
<path d="M59.1932 58.6132C58.5784 58.6132 58.0373 58.2444 57.816 57.6787C57.6684 57.3098 57.6684 56.8918 57.816 56.5229C57.9635 56.154 58.2587 55.8589 58.6275 55.7113C58.7997 55.6376 58.9964 55.5884 59.1932 55.5884C59.808 55.5884 60.349 55.9573 60.5703 56.5229C60.89 57.2853 60.5212 58.1706 59.7588 58.4903C59.5866 58.5887 59.3899 58.6132 59.1932 58.6132ZM59.1932 56.3507C59.0948 56.3507 58.9964 56.3753 58.8981 56.3999C58.7013 56.4737 58.5538 56.6213 58.48 56.818C58.4062 57.0147 58.4062 57.2115 58.48 57.4082C58.6029 57.7033 58.8735 57.8755 59.1932 57.8755C59.2915 57.8755 59.3899 57.8509 59.4883 57.8263C59.8818 57.6541 60.0539 57.2115 59.9063 56.8426C59.7834 56.5475 59.5129 56.3507 59.1932 56.3507Z" fill="#6F7273"/>
<path d="M67.0868 54.9966C67.7116 54.9966 68.2181 54.4902 68.2181 53.8654C68.2181 53.2406 67.7116 52.7341 67.0868 52.7341C66.462 52.7341 65.9556 53.2406 65.9556 53.8654C65.9556 54.4902 66.462 54.9966 67.0868 54.9966Z" fill="#6F7273"/>
<path d="M67.0872 55.3667C66.4724 55.3667 65.9314 54.9978 65.71 54.4322C65.5625 54.0633 65.5625 53.6452 65.71 53.2763C65.8576 52.9074 66.1527 52.6123 66.5216 52.4648C66.6937 52.391 66.8905 52.3418 67.0872 52.3418C67.702 52.3418 68.243 52.7107 68.4644 53.2763C68.7841 54.0387 68.4152 54.924 67.6528 55.2437C67.4807 55.3175 67.2839 55.3667 67.0872 55.3667ZM67.0872 53.1042C66.9888 53.1042 66.8905 53.1288 66.7921 53.1533C66.5954 53.2271 66.4478 53.3747 66.374 53.5714C66.3002 53.7682 66.3002 53.9649 66.374 54.1616C66.497 54.4567 66.7675 54.6289 67.0872 54.6289C67.1856 54.6289 67.2839 54.6043 67.3823 54.5797C67.7758 54.4076 67.9479 53.9649 67.8004 53.596C67.6774 53.2763 67.4069 53.1042 67.0872 53.1042Z" fill="#6F7273"/>
<path d="M74.9816 51.7271C75.6064 51.7271 76.1128 51.2206 76.1128 50.5958C76.1128 49.9711 75.6064 49.4646 74.9816 49.4646C74.3568 49.4646 73.8503 49.9711 73.8503 50.5958C73.8503 51.2206 74.3568 51.7271 74.9816 51.7271Z" fill="#6F7273"/>
<path d="M74.9818 52.0957C74.3669 52.0957 73.8259 51.7268 73.6046 51.1612C73.2849 50.3988 73.6538 49.5135 74.4161 49.1938C74.5883 49.12 74.785 49.0708 74.9818 49.0708C75.5966 49.0708 76.1376 49.4397 76.3589 50.0053C76.6786 50.7677 76.3097 51.653 75.5474 51.9727C75.3752 52.0465 75.1785 52.0957 74.9818 52.0957ZM74.9818 49.8332C74.8834 49.8332 74.785 49.8578 74.6866 49.8824C74.2932 50.0545 74.121 50.4972 74.2686 50.866C74.3915 51.1612 74.6621 51.3333 74.9818 51.3333C75.0801 51.3333 75.1785 51.3087 75.2769 51.2841C75.6703 51.112 75.8425 50.6693 75.6949 50.3004C75.572 50.0299 75.3015 49.8332 74.9818 49.8332Z" fill="#6F7273"/>
<path d="M83.9071 46.9059C84.153 47.4716 83.8825 48.1356 83.2923 48.3815C82.7267 48.6274 82.0627 48.3569 81.8168 47.7667C81.5708 47.201 81.8414 46.537 82.4316 46.2911C83.0218 46.0452 83.6858 46.3157 83.9071 46.9059Z" fill="#6F7273"/>
<path d="M82.8758 48.8249C82.261 48.8249 81.72 48.456 81.4986 47.8904C81.1789 47.128 81.5478 46.2427 82.3102 45.923C82.4823 45.8492 82.6791 45.8 82.8758 45.8C83.4906 45.8 84.0316 46.1689 84.253 46.7346C84.5727 47.4969 84.2038 48.3823 83.4414 48.702C83.2693 48.8003 83.0725 48.8249 82.8758 48.8249ZM82.8758 46.5624C82.7774 46.5624 82.6791 46.587 82.5807 46.6116C82.1872 46.7837 82.0151 47.2264 82.1626 47.5953C82.2856 47.8904 82.5561 48.0625 82.8758 48.0625C82.9742 48.0625 83.0725 48.038 83.1709 48.0134C83.5644 47.8412 83.7365 47.3986 83.589 47.0297C83.466 46.7592 83.1709 46.5624 82.8758 46.5624Z" fill="#6F7273"/>
<path d="M90.7692 45.209C91.394 45.209 91.9004 44.7026 91.9004 44.0778C91.9004 43.453 91.394 42.9465 90.7692 42.9465C90.1444 42.9465 89.6379 43.453 89.6379 44.0778C89.6379 44.7026 90.1444 45.209 90.7692 45.209Z" fill="#6F7273"/>
<path d="M90.7696 45.5791C90.1548 45.5791 89.6138 45.2102 89.3924 44.6446C89.0727 43.8822 89.4416 42.9969 90.204 42.6772C90.3761 42.6034 90.5729 42.5542 90.7696 42.5542C91.3844 42.5542 91.9254 42.9231 92.1468 43.4887C92.2943 43.8576 92.2943 44.2757 92.1468 44.6446C91.9992 45.0134 91.7041 45.3085 91.3352 45.4561C91.1631 45.5299 90.9663 45.5791 90.7696 45.5791ZM90.7696 43.3166C90.6712 43.3166 90.5729 43.3412 90.4745 43.3657C90.081 43.5379 89.9089 43.9806 90.0564 44.3494C90.1794 44.6446 90.4499 44.8167 90.7696 44.8167C90.868 44.8167 90.9663 44.7921 91.0647 44.7675C91.2614 44.6937 91.409 44.5462 91.4828 44.3494C91.5566 44.1527 91.5566 43.956 91.4828 43.7592C91.3598 43.4887 91.0647 43.3166 90.7696 43.3166Z" fill="#6F7273"/>
<path d="M26.461 85.5171C26.0921 85.5171 25.7478 85.345 25.5264 85.0499C25.1821 84.6072 25.2805 84.0416 25.3297 83.8448L28.3054 71.524C28.3546 71.2535 28.6251 70.2452 29.658 69.8026C30.3466 69.5075 37.9702 66.3596 38.8555 65.9907C39.126 65.8924 39.3474 65.8186 39.5687 65.8186C39.9868 65.8186 40.3311 66.0153 40.5278 66.335C40.8475 66.8761 40.6016 67.4663 40.4786 67.7122C40.4786 67.7368 40.454 67.7368 40.454 67.7614L31.6254 82.7874C31.5024 83.0333 31.1089 83.7219 30.199 84.0908C29.4612 84.3859 27.8873 85.0499 27.1249 85.3696C26.9036 85.4679 26.6823 85.5171 26.461 85.5171ZM37.9702 68.3762C35.4372 69.4091 30.8876 71.3027 30.3711 71.524C30.1744 71.5978 30.1252 71.8683 30.1252 71.8683C30.1252 71.9175 30.1252 71.8929 30.1252 71.9175L27.3955 83.2792C28.1578 82.9595 29.0432 82.5906 29.535 82.3939C29.8547 82.2709 29.9777 82.025 29.9777 82.025C30.0023 81.9758 30.0269 81.9266 30.0514 81.902L37.9702 68.3762Z" fill="#6F7273"/>
<path d="M65.4151 48.9235C65.2675 48.9235 65.0954 48.8743 64.9724 48.8005L40.1095 34.832C39.7898 34.6599 38.8553 34.0943 38.9045 33.1843C38.9291 32.7909 39.1258 32.2252 40.0111 31.8564L46.5035 29.1758C47.5856 28.7331 48.7906 29.102 49.0611 29.225L84.2774 39.4308C84.7693 39.5784 85.0398 40.0948 84.9168 40.5621C84.7693 41.0539 84.2528 41.3244 83.7856 41.2015L48.4955 30.9956C48.4709 30.9956 48.4463 30.971 48.4217 30.971C48.2496 30.8973 47.6102 30.7251 47.1921 30.8973L41.2407 33.3565L65.8577 47.1774C66.3004 47.4234 66.448 47.989 66.202 48.4316C66.0545 48.7513 65.7348 48.9235 65.4151 48.9235Z" fill="#6F7273"/>
<path d="M66.4247 97.7639C65.9574 97.7639 65.5393 97.5671 65.2688 97.2228C64.8016 96.608 64.9737 95.7719 65.0475 95.4768L72.8187 58.9325C72.8925 58.2193 73.3105 56.9897 74.6139 56.4732L89.9842 50.1038C90.2547 49.9808 90.5252 49.9316 90.7465 49.9316C91.1646 49.9316 91.5335 50.1038 91.804 50.4235C92.2467 51.0137 92.0991 51.8253 92.0254 52.0712C92.0254 52.1204 92.0008 52.145 91.9762 52.1941L75.3025 92.8208C75.2041 93.2635 74.7615 94.4931 72.9908 95.2063L67.3838 97.518C67.0395 97.6901 66.7198 97.7639 66.4247 97.7639ZM90.058 52.0712L75.3025 58.1701C74.7123 58.416 74.6631 59.1046 74.6385 59.1046C74.6385 59.1538 74.6385 59.203 74.6139 59.2522L66.8673 95.7719L72.3022 93.534C73.2859 93.1159 73.4827 92.5503 73.5073 92.4519C73.5073 92.3535 73.5319 92.329 73.581 92.2306L90.058 52.0712Z" fill="#6F7273"/>
<path d="M116.444 45.6524C116.272 45.6524 116.125 45.6032 115.977 45.5294C115.879 45.4556 113.321 43.9063 112.165 41.1028C111.009 38.2993 111.723 35.3973 111.747 35.2744C111.87 34.7825 112.362 34.4874 112.878 34.6104C113.37 34.7334 113.665 35.2252 113.542 35.7416C113.542 35.7662 112.952 38.2009 113.862 40.4142C114.797 42.6521 116.912 43.9309 116.936 43.9555C117.379 44.226 117.526 44.7916 117.256 45.2097C117.059 45.5048 116.739 45.6524 116.444 45.6524Z" fill="#6F7273"/>
<path d="M100.46 41.3739C100.116 41.3739 99.7713 41.3001 99.427 41.1279C98.886 40.8574 98.4433 40.3656 98.1974 39.7754C97.9515 39.1851 97.9269 38.5211 98.099 37.9555C98.2958 37.3161 98.763 36.8243 99.3532 36.5783L108.256 32.8895C108.723 32.6927 109.264 32.9141 109.461 33.3813C109.657 33.8486 109.436 34.3896 108.969 34.5864L100.066 38.2752C99.9681 38.3244 99.8943 38.3982 99.8451 38.5211C99.7959 38.6933 99.7959 38.89 99.8943 39.0622C99.968 39.2589 100.116 39.4065 100.263 39.4803C100.386 39.5294 100.484 39.554 100.583 39.5048C100.632 39.4803 100.657 39.4803 100.681 39.4557C100.706 39.4311 100.73 39.4311 100.755 39.4065L112.24 34.6601C112.707 34.4634 113.248 34.6847 113.445 35.152C113.641 35.6192 113.42 36.1603 112.953 36.357L101.493 41.1034C101.419 41.1525 101.345 41.1771 101.271 41.2017C101.026 41.3247 100.73 41.3739 100.46 41.3739Z" fill="#6F7273"/>
<path d="M28.9201 73.7865C28.6987 73.7865 28.502 73.7127 28.3299 73.5652L11.1152 58.7851C10.7955 58.5392 10.4758 58.0719 10.5495 57.5063C10.5987 57.162 10.8201 56.6702 11.5824 56.3505L13.8941 55.3914C14.804 55.0225 15.5664 55.17 16.0091 55.4405L30.3218 61.4903L100.509 32.4712C104.96 30.6268 111.083 33.6025 112.706 34.4632C114.059 33.996 115.535 34.0452 116.863 34.6108C118.313 35.2256 119.469 36.3568 120.06 37.8078C121.314 40.8327 119.863 44.3002 116.863 45.5298C116.863 45.5298 116.838 45.5298 116.838 45.5544H116.813L89.8601 56.6948C89.3928 56.8915 88.8518 56.6702 88.655 56.2029C88.4583 55.7357 88.6796 55.1946 89.1469 54.9979L116.026 43.8821C116.051 43.8821 116.076 43.8575 116.1 43.8575C116.125 43.8575 116.149 43.8329 116.174 43.8329C118.24 42.9722 119.223 40.5867 118.363 38.521C117.945 37.5127 117.158 36.7257 116.149 36.3077C115.141 35.8896 114.059 35.8896 113.051 36.3077C113.026 36.3077 113.002 36.3323 113.002 36.3323C112.756 36.4306 112.46 36.4306 112.215 36.3077C112.19 36.2831 112.165 36.2831 112.141 36.2585C109.804 34.9059 104.566 32.7664 101.197 34.1681L30.6415 63.3593C30.4202 63.4577 30.1497 63.4577 29.9284 63.3593L15.1729 57.1128C15.1237 57.0882 15.05 57.0637 15.0008 57.0145C14.9516 57.0145 14.8286 56.9899 14.5827 57.0882L12.812 57.826L29.5103 72.1634C29.9038 72.4831 29.953 73.0733 29.6087 73.4668C29.4365 73.6881 29.1906 73.7865 28.9201 73.7865Z" fill="#6F7273"/>
<path d="M36.0765 74.327C35.5847 74.327 35.1912 73.9335 35.1666 73.4417C35.142 72.9252 35.5355 72.5072 36.0274 72.4826C39.4949 72.3104 48.9384 71.6464 50.9549 70.7857C51.6189 70.5152 56.2177 68.597 62.6855 65.941L72.5963 61.8341C73.0635 61.6373 73.6046 61.8587 73.8013 62.3259C73.998 62.7932 73.7767 63.3342 73.3094 63.5309L63.3987 67.6379C56.9309 70.3184 52.3321 72.2121 51.6681 72.4826C48.9876 73.5892 37.4291 74.2286 36.1257 74.3024C36.1257 74.327 36.1011 74.327 36.0765 74.327Z" fill="#6F7273"/>
<defs>
<linearGradient id="paint0_linear" x1="67.7306" y1="106.127" x2="67.7306" y2="135.84" gradientUnits="userSpaceOnUse">
<stop stop-color="#E1EEEE"/>
<stop offset="1" stop-color="#C6DBDC"/>
</linearGradient>
</defs>
</svg>
