<svg width="33" height="33" viewBox="0 0 33 33" fill="none" xmlns="http://www.w3.org/2000/svg">
<mask id="path-1-outside-1" maskUnits="userSpaceOnUse" x="0.0976562" y="0.0976562" width="33" height="33" fill="black">
<rect fill="white" x="0.0976562" y="0.0976562" width="33" height="33"/>
<path fill-rule="evenodd" clip-rule="evenodd" d="M16.3391 2.09766C15.8972 2.09766 15.5389 2.45588 15.5389 2.89778V15.5398H2.89778C2.45588 15.5398 2.09766 15.898 2.09766 16.3399C2.09766 16.7818 2.45588 17.14 2.89778 17.14H15.5389V30.1019C15.5389 30.5438 15.8972 30.902 16.3391 30.902C16.781 30.902 17.1392 30.5438 17.1392 30.1019V17.14H30.1019C30.5438 17.14 30.902 16.7818 30.902 16.3399C30.902 15.898 30.5438 15.5398 30.1019 15.5398H17.1392V2.89778C17.1392 2.45588 16.781 2.09766 16.3391 2.09766Z"/>
</mask>
<path fill-rule="evenodd" clip-rule="evenodd" d="M16.3391 2.09766C15.8972 2.09766 15.5389 2.45588 15.5389 2.89778V15.5398H2.89778C2.45588 15.5398 2.09766 15.898 2.09766 16.3399C2.09766 16.7818 2.45588 17.14 2.89778 17.14H15.5389V30.1019C15.5389 30.5438 15.8972 30.902 16.3391 30.902C16.781 30.902 17.1392 30.5438 17.1392 30.1019V17.14H30.1019C30.5438 17.14 30.902 16.7818 30.902 16.3399C30.902 15.898 30.5438 15.5398 30.1019 15.5398H17.1392V2.89778C17.1392 2.45588 16.781 2.09766 16.3391 2.09766Z" fill="white"/>
<path d="M15.5389 15.5398V17.5398H17.5389V15.5398H15.5389ZM15.5389 17.14H17.5389V15.14H15.5389V17.14ZM17.1392 17.14V15.14H15.1392V17.14H17.1392ZM17.1392 15.5398H15.1392V17.5398H17.1392V15.5398ZM17.5389 2.89778C17.5389 3.56045 17.0017 4.09766 16.3391 4.09766V0.0976562C14.7926 0.0976562 13.5389 1.35132 13.5389 2.89778H17.5389ZM17.5389 15.5398V2.89778H13.5389V15.5398H17.5389ZM2.89778 17.5398H15.5389V13.5398H2.89778V17.5398ZM4.09766 16.3399C4.09766 17.0026 3.56045 17.5398 2.89778 17.5398V13.5398C1.35131 13.5398 0.0976562 14.7934 0.0976562 16.3399H4.09766ZM2.89778 15.14C3.56045 15.14 4.09766 15.6772 4.09766 16.3399H0.0976562C0.0976562 17.8864 1.35132 19.14 2.89778 19.14V15.14ZM15.5389 15.14H2.89778V19.14H15.5389V15.14ZM17.5389 30.1019V17.14H13.5389V30.1019H17.5389ZM16.3391 28.902C17.0017 28.902 17.5389 29.4392 17.5389 30.1019H13.5389C13.5389 31.6483 14.7926 32.902 16.3391 32.902V28.902ZM15.1392 30.1019C15.1392 29.4392 15.6764 28.902 16.3391 28.902V32.902C17.8855 32.902 19.1392 31.6483 19.1392 30.1019H15.1392ZM15.1392 17.14V30.1019H19.1392V17.14H15.1392ZM30.1019 15.14H17.1392V19.14H30.1019V15.14ZM28.902 16.3399C28.902 15.6772 29.4392 15.14 30.1019 15.14V19.14C31.6483 19.14 32.902 17.8864 32.902 16.3399H28.902ZM30.1019 17.5398C29.4392 17.5398 28.902 17.0026 28.902 16.3399H32.902C32.902 14.7934 31.6483 13.5398 30.1019 13.5398V17.5398ZM17.1392 17.5398H30.1019V13.5398H17.1392V17.5398ZM15.1392 2.89778V15.5398H19.1392V2.89778H15.1392ZM16.3391 4.09766C15.6764 4.09766 15.1392 3.56045 15.1392 2.89778H19.1392C19.1392 1.35131 17.8855 0.0976562 16.3391 0.0976562V4.09766Z" fill="white" mask="url(#path-1-outside-1)"/>
</svg>
