<svg width="274" height="269" viewBox="0 0 274 269" fill="none" xmlns="http://www.w3.org/2000/svg">
<path fill-rule="evenodd" clip-rule="evenodd" d="M261.881 134.5C261.881 208.216 201.218 268 126.354 268C123.45 268 120.568 267.91 117.71 267.733C51.2125 258.702 0 202.493 0 134.5C0 66.5073 51.2125 10.2983 117.71 1.26713C120.568 1.08993 123.45 1 126.354 1C201.218 1 261.881 60.784 261.881 134.5ZM131.441 0.0916267C204.486 2.72736 262.881 61.8955 262.881 134.5C262.881 207.105 204.486 266.273 131.441 268.908C133.129 268.969 134.824 269 136.527 269C211.929 269 273.055 208.782 273.055 134.5C273.055 60.2177 211.929 0 136.527 0C134.824 0 133.129 0.0307195 131.441 0.0916267ZM130.965 216.451C174.913 216.451 210.54 181.353 210.54 138.057C210.54 94.762 174.913 59.6641 130.965 59.6641C87.0173 59.6641 51.3904 94.762 51.3904 138.057C51.3904 181.353 87.0173 216.451 130.965 216.451ZM189.623 195.407C190.301 194.691 190.64 194.31 190.64 194.31C190.64 194.31 190.204 194.643 189.381 195.263C189.146 195.437 188.876 195.662 188.581 195.909C188.389 196.069 188.187 196.239 187.977 196.408C187.735 196.647 187.444 196.885 187.105 197.124C186.89 197.3 186.648 197.477 186.379 197.674C186.286 197.742 186.189 197.813 186.089 197.887C185.362 198.411 184.539 199.031 183.668 199.699C183.258 199.976 182.837 200.262 182.403 200.558C181.865 200.925 181.305 201.306 180.715 201.702C180.231 202.084 179.65 202.418 179.069 202.752C178.76 202.973 178.419 203.178 178.073 203.386C177.823 203.536 177.57 203.688 177.326 203.849C176.991 204.069 176.624 204.273 176.252 204.479C175.979 204.631 175.704 204.784 175.438 204.946C174.808 205.327 174.13 205.709 173.453 206.09C173.045 206.32 172.62 206.532 172.188 206.747C171.902 206.89 171.612 207.035 171.322 207.187C170.596 207.521 169.822 207.903 169.095 208.284C168.708 208.451 168.321 208.63 167.933 208.809C167.546 208.988 167.159 209.167 166.771 209.334C166.336 209.477 165.948 209.667 165.561 209.858C165.479 209.888 165.395 209.919 165.31 209.949C164.992 210.064 164.656 210.185 164.351 210.335L164.35 210.336C163.527 210.669 162.704 211.003 161.833 211.337C160.962 211.671 160.091 211.957 159.219 212.243L159.219 212.243C158.783 212.434 158.347 212.577 157.912 212.72C157.694 212.791 157.464 212.863 157.234 212.935C157.004 213.006 156.774 213.078 156.556 213.149C155.636 213.388 154.717 213.674 153.797 213.96L153.797 213.96C150.069 214.962 146.147 215.725 142.129 216.297C138.11 216.774 133.995 217.108 129.88 217.108C125.765 217.108 121.65 216.822 117.631 216.297C113.613 215.725 109.691 214.914 105.964 213.912C105.504 213.769 105.044 213.638 104.584 213.507C104.124 213.376 103.664 213.244 103.204 213.101C102.512 212.922 101.82 212.688 101.148 212.462C100.927 212.387 100.709 212.314 100.493 212.243L100.492 212.243C99.6208 211.957 98.7497 211.67 97.8785 211.337C97.0077 211.003 96.1853 210.669 95.3629 210.336L95.361 210.335C95.2792 210.305 95.1953 210.275 95.1101 210.244C94.7919 210.129 94.4562 210.009 94.1506 209.858C93.715 209.715 93.3278 209.524 92.9406 209.334L92.9403 209.334C92.553 209.167 92.1657 208.988 91.7784 208.809C91.3911 208.63 91.0037 208.451 90.6164 208.284C90.3546 208.155 90.0983 208.032 89.8457 207.91C89.3509 207.672 88.8701 207.44 88.3894 207.187C88.0997 207.035 87.81 206.89 87.5233 206.747C87.0915 206.532 86.6666 206.32 86.2592 206.09C83.4996 204.564 81.0789 203.085 78.9487 201.702C78.3587 201.306 77.7985 200.924 77.2597 200.557C76.8258 200.262 76.4058 199.976 75.9954 199.699C75.124 199.031 74.3009 198.411 73.5747 197.887C73.4053 197.768 73.2359 197.636 73.0665 197.505C72.897 197.374 72.7275 197.243 72.558 197.124L71.6866 196.408C71.5652 196.31 71.4464 196.215 71.3307 196.122C70.9384 195.808 70.5816 195.521 70.2826 195.263C69.508 194.643 69.1207 194.31 69.1207 194.31C69.1207 194.31 69.4595 194.691 70.1373 195.407C70.3208 195.613 70.5327 195.834 70.7652 196.076C70.9622 196.281 71.1741 196.501 71.3961 196.742L71.3963 196.742C71.6383 197.028 71.8803 197.314 72.1707 197.601C72.5094 197.887 72.7998 198.173 73.1384 198.506L73.139 198.507C73.4949 198.832 73.864 199.184 74.2536 199.555C74.606 199.891 74.9751 200.243 75.366 200.605C76.1891 201.321 77.1574 202.132 78.1256 202.942C78.4359 203.218 78.7662 203.473 79.1035 203.734C79.2925 203.88 79.4837 204.028 79.6749 204.182C80.2074 204.612 80.7884 205.041 81.3694 205.47C81.7921 205.817 82.2405 206.114 82.6958 206.415C82.8662 206.528 83.0377 206.641 83.2091 206.758L83.2097 206.758C83.8389 207.188 84.4681 207.617 85.1457 208.046C85.7094 208.442 86.2732 208.773 86.8649 209.12C86.9845 209.19 87.1053 209.261 87.2274 209.334L89.4061 210.621C89.7934 210.836 90.1808 211.039 90.5682 211.241C90.9554 211.444 91.3427 211.647 91.7299 211.861C91.9236 211.957 92.1294 212.064 92.3351 212.171C92.5409 212.279 92.7466 212.386 92.9403 212.481C93.1581 212.577 93.3639 212.672 93.5696 212.768C93.7754 212.863 93.9812 212.958 94.1991 213.054L94.1994 213.054C95.0224 213.435 95.8453 213.817 96.7166 214.198C97.1523 214.389 97.6001 214.568 98.048 214.747C98.4958 214.926 98.9436 215.105 99.3793 215.295C99.8151 215.438 100.299 215.629 100.735 215.82C101.219 216.011 101.655 216.154 102.139 216.297C102.623 216.464 103.095 216.619 103.567 216.774C104.039 216.929 104.511 217.084 104.995 217.251C105.584 217.41 106.173 217.579 106.764 217.748C108.118 218.135 109.486 218.526 110.902 218.825C111.118 218.867 111.333 218.919 111.553 218.972C111.827 219.038 112.107 219.106 112.403 219.159L113.177 219.349L113.952 219.493C114.811 219.614 115.671 219.769 116.56 219.929C116.722 219.958 116.886 219.988 117.05 220.017C121.262 220.637 125.571 220.971 129.88 221.019C134.189 220.971 138.498 220.637 142.71 220.017C143.726 219.874 144.792 219.683 145.808 219.493L146.583 219.349L147.358 219.159C147.6 219.111 147.854 219.051 148.108 218.992C148.362 218.932 148.616 218.873 148.858 218.825C150.274 218.526 151.642 218.135 152.996 217.748C153.588 217.579 154.176 217.41 154.765 217.251C155.181 217.108 155.597 216.973 156.008 216.84C156.556 216.662 157.096 216.487 157.621 216.297C158.105 216.154 158.59 216.011 159.025 215.82C159.461 215.677 159.945 215.486 160.381 215.295C160.722 215.154 161.057 215.019 161.388 214.885C161.948 214.659 162.496 214.438 163.044 214.198C163.455 214.008 163.878 213.817 164.302 213.626C164.726 213.435 165.149 213.245 165.561 213.054C165.997 212.863 166.433 212.672 166.82 212.481C167.085 212.365 167.332 212.232 167.571 212.102C167.726 212.018 167.878 211.936 168.03 211.861L168.031 211.861C168.806 211.432 169.58 211.003 170.354 210.621L172.533 209.334C172.655 209.261 172.776 209.19 172.895 209.12C173.487 208.773 174.051 208.442 174.615 208.046C174.929 207.831 175.256 207.616 175.583 207.402C175.91 207.187 176.236 206.973 176.551 206.758C177.18 206.329 177.81 205.899 178.391 205.47C178.972 205.041 179.553 204.612 180.085 204.182C180.277 204.028 180.468 203.88 180.657 203.734C180.994 203.473 181.324 203.218 181.635 202.942C182.183 202.456 182.732 202 183.254 201.566C183.653 201.234 184.037 200.915 184.394 200.605C184.785 200.243 185.154 199.891 185.507 199.555C185.896 199.184 186.265 198.832 186.621 198.507C186.797 198.333 186.973 198.173 187.142 198.019C187.299 197.876 187.45 197.738 187.589 197.601C187.632 197.552 187.673 197.504 187.713 197.458C187.95 197.184 188.157 196.946 188.364 196.742C188.897 196.217 189.284 195.788 189.623 195.407Z" fill="#075FB0"/>
<path d="M130.886 96.6024C136.95 96.6024 142.129 97.3077 146.467 98.7182C150.804 100.129 154.383 102.079 157.205 104.568C160.026 107.057 162.09 109.961 163.437 113.321C164.785 116.681 165.459 120.332 165.459 124.232C165.459 128.463 164.785 132.321 163.395 135.848C162.006 139.374 159.9 142.402 157.079 144.892C154.257 147.422 150.678 149.372 146.34 150.782C142.003 152.193 136.865 152.898 130.928 152.898H120.569V181.191H100.65V96.6024H130.886ZM130.886 138.088C136.065 138.088 139.813 136.885 142.087 134.437C144.361 131.99 145.498 128.588 145.498 124.232C145.498 122.282 145.203 120.54 144.614 118.963C144.024 117.387 143.14 116.018 141.919 114.856C140.74 113.694 139.224 112.823 137.371 112.201C135.56 111.579 133.37 111.288 130.844 111.288H120.484V138.088H130.886Z" fill="#075FB0"/>
</svg>
