<svg width="12" height="12" viewBox="0 0 12 12" fill="none" xmlns="http://www.w3.org/2000/svg">
<path fill-rule="evenodd" clip-rule="evenodd" d="M3.81818 2.72727H2.24405C3.29708 1.52257 4.45048 1.09091 6 1.09091C8.71122 1.09091 10.9091 3.28878 10.9091 6C10.9091 8.71122 8.71122 10.9091 6 10.9091C3.28878 10.9091 1.09091 8.71122 1.09091 6H0C0 9.31371 2.68629 12 6 12C9.31371 12 12 9.31371 12 6C12 2.68629 9.31371 0 6 0C4.24725 0 2.85659 0.496668 1.63636 1.77625V0.540661H0.545455V3.81818H3.81818V2.72727ZM8.72728 5.45439H6.54546V2.72712H5.45456V6.5453H8.72728V5.45439Z" fill="#464646"/>
</svg>
