<svg width="14" height="14" viewBox="0 0 14 14" fill="none" xmlns="http://www.w3.org/2000/svg">
<path fill-rule="evenodd" clip-rule="evenodd" d="M0 7.63636H1.30768C1.60114 10.291 3.70897 12.3989 6.36364 12.6923V14H7.63636V12.6923C10.291 12.3989 12.3989 10.291 12.6923 7.63636H14V6.36364H12.6923C12.3989 3.70897 10.291 1.60114 7.63636 1.30768V0H6.36364V1.30768C3.70897 1.60114 1.60114 3.70897 1.30768 6.36364H0V7.63636ZM2.54544 7.00055C2.54544 4.54037 4.53981 2.54601 6.99998 2.54601C9.46016 2.54601 11.4545 4.54037 11.4545 7.00055C11.4545 9.46073 9.46016 11.4551 6.99998 11.4551C4.53981 11.4551 2.54544 9.46073 2.54544 7.00055ZM7.00002 4.45399C8.40583 4.45399 9.54547 5.59363 9.54547 6.99945C9.54547 8.40526 8.40583 9.5449 7.00002 9.5449C5.5942 9.5449 4.45456 8.40526 4.45456 6.99945C4.45456 5.59363 5.5942 4.45399 7.00002 4.45399ZM5.72728 6.99972C5.72728 6.29682 6.2971 5.727 7.00001 5.727C7.70292 5.727 8.27274 6.29682 8.27274 6.99972C8.27274 7.70263 7.70292 8.27245 7.00001 8.27245C6.2971 8.27245 5.72728 7.70263 5.72728 6.99972Z" fill="#BDBDBD"/>
</svg>
