<svg width="11" height="12" viewBox="0 0 11 12" fill="none" xmlns="http://www.w3.org/2000/svg">
<path fill-rule="evenodd" clip-rule="evenodd" d="M9.38152 5.60625C9.38152 8.13616 7.29555 10.2125 4.69076 10.2125C2.08597 10.2125 0 8.13616 0 5.60625C0 3.07634 2.08597 1 4.69076 1C7.29555 1 9.38152 3.07634 9.38152 5.60625ZM4.90275 11.2087C7.94745 11.0988 10.3815 8.63258 10.3815 5.60625C10.3815 2.57992 7.94745 0.113662 4.90275 0.0038178C4.97309 0.00127998 5.04376 0 5.11474 0C8.25766 0 10.8055 2.51 10.8055 5.60625C10.8055 8.7025 8.25766 11.2125 5.11474 11.2125C5.04376 11.2125 4.97309 11.2112 4.90275 11.2087ZM4.88314 9.02213C6.71499 9.02213 8.2 7.55918 8.2 5.75453C8.2 3.94989 6.71499 2.48693 4.88314 2.48693C3.05129 2.48693 1.56628 3.94989 1.56628 5.75453C1.56628 7.55918 3.05129 9.02213 4.88314 9.02213ZM7.32808 8.14495C7.35634 8.11513 7.37046 8.09922 7.37046 8.09922C7.37046 8.09922 7.3523 8.11314 7.31799 8.13898C7.30822 8.1462 7.29697 8.15561 7.28468 8.16588C7.27667 8.17258 7.26823 8.17964 7.25947 8.1867C7.24938 8.19664 7.23727 8.20658 7.22315 8.21652C7.21416 8.22389 7.20407 8.23127 7.19286 8.23946C7.18896 8.2423 7.18494 8.24525 7.18077 8.24832C7.1505 8.27019 7.11619 8.29604 7.07987 8.32387C7.06275 8.33541 7.04523 8.34735 7.02712 8.35968C7.00468 8.37497 6.98134 8.39086 6.95677 8.40737C6.93659 8.42327 6.91238 8.43719 6.88816 8.4511C6.87529 8.46032 6.86107 8.46887 6.84667 8.47753C6.83623 8.48381 6.82569 8.49014 6.81551 8.49683C6.80156 8.506 6.78626 8.5145 6.77078 8.52311C6.7594 8.52944 6.74792 8.53582 6.73681 8.54255C6.7106 8.55844 6.68237 8.57434 6.65414 8.59023L6.65407 8.59027C6.63709 8.59983 6.61938 8.60867 6.60138 8.61765C6.58943 8.62362 6.57736 8.62965 6.56528 8.63599C6.53501 8.64991 6.50272 8.66581 6.47245 8.68172C6.45631 8.68867 6.44016 8.69613 6.42402 8.70358C6.40788 8.71104 6.39173 8.71849 6.37559 8.72545C6.35743 8.73142 6.34128 8.73937 6.32514 8.74732C6.32174 8.74858 6.31824 8.74984 6.3147 8.75111C6.30143 8.75589 6.28743 8.76093 6.27469 8.7672C6.24038 8.78112 6.20608 8.79503 6.16975 8.80895C6.13345 8.82286 6.09714 8.83478 6.06084 8.84671L6.06078 8.84672C6.04262 8.85467 6.02446 8.86064 6.0063 8.8666C5.99722 8.86959 5.98763 8.87257 5.97805 8.87555C5.96846 8.87853 5.95887 8.88151 5.94979 8.88449C5.91145 8.89443 5.87312 8.90636 5.83478 8.91829L5.83477 8.91829C5.67938 8.96004 5.51592 8.99185 5.34843 9.01571C5.18094 9.03559 5.00941 9.0495 4.83788 9.0495C4.66635 9.0495 4.49482 9.03757 4.32732 9.01571C4.15983 8.99185 3.99637 8.95805 3.84099 8.9163C3.82182 8.91034 3.80264 8.90487 3.78347 8.8994C3.7643 8.89394 3.74513 8.88847 3.72596 8.88251C3.69711 8.87503 3.66826 8.8653 3.64027 8.85585C3.63106 8.85275 3.62194 8.84968 3.61295 8.84672L3.61289 8.8467C3.57659 8.83478 3.54028 8.82286 3.50398 8.80895C3.46766 8.79504 3.43336 8.78112 3.39906 8.76721L3.39904 8.7672C3.39564 8.76594 3.39214 8.76468 3.38859 8.7634C3.37532 8.75863 3.36133 8.75359 3.3486 8.74732C3.33044 8.74136 3.3143 8.73341 3.29816 8.72546L3.29815 8.72545C3.282 8.71849 3.26586 8.71104 3.24971 8.70358C3.23357 8.69613 3.21743 8.68867 3.20128 8.68172C3.19036 8.67634 3.17968 8.67119 3.16914 8.66611C3.14852 8.65617 3.12849 8.64652 3.10845 8.63599C3.09638 8.62965 3.0843 8.62362 3.07235 8.61765C3.05435 8.60867 3.03664 8.59983 3.01966 8.59027C2.90464 8.52665 2.80374 8.46502 2.71494 8.40737C2.69037 8.39086 2.66703 8.37496 2.64459 8.35967C2.62649 8.34734 2.60896 8.33541 2.59185 8.32387C2.55552 8.29604 2.52122 8.27019 2.49095 8.24832C2.48388 8.24335 2.47682 8.23789 2.46976 8.23242C2.46269 8.22695 2.45563 8.22149 2.44857 8.21652L2.41224 8.1867C2.40719 8.18262 2.40223 8.17865 2.39741 8.17478C2.38106 8.16166 2.36619 8.14973 2.35372 8.13898C2.32143 8.11314 2.30529 8.09922 2.30529 8.09922C2.30529 8.09922 2.31942 8.11513 2.34767 8.14495C2.35532 8.15356 2.36415 8.16275 2.37384 8.17284C2.38205 8.18139 2.39088 8.19058 2.40014 8.20061L2.40015 8.20062C2.41023 8.21255 2.42032 8.22447 2.43242 8.2364C2.44655 8.24832 2.45865 8.26024 2.47277 8.27415L2.47278 8.27417C2.48762 8.28774 2.503 8.3024 2.51924 8.31787C2.53393 8.33187 2.54932 8.34653 2.56561 8.36164C2.59992 8.39146 2.64028 8.42526 2.68064 8.45906C2.69358 8.47053 2.70734 8.48118 2.72141 8.49206C2.72928 8.49816 2.73725 8.50432 2.74521 8.51075C2.76741 8.52864 2.79163 8.54653 2.81584 8.56442C2.83347 8.57889 2.85215 8.59125 2.87114 8.6038C2.87824 8.6085 2.88538 8.61323 2.89253 8.6181C2.91876 8.63599 2.945 8.65388 2.97325 8.67178C2.99674 8.68831 3.02023 8.70209 3.04489 8.71655C3.04988 8.71948 3.05492 8.72244 3.06002 8.72545L3.15083 8.77913C3.16698 8.78808 3.18313 8.79653 3.19928 8.80498C3.21542 8.81343 3.23156 8.82187 3.2477 8.83082C3.25577 8.83479 3.26434 8.83927 3.27292 8.84374C3.2815 8.84821 3.29007 8.85269 3.29815 8.85666C3.30723 8.86064 3.3158 8.86461 3.32438 8.86859C3.33296 8.87257 3.34153 8.87654 3.35061 8.88052C3.38492 8.89642 3.41922 8.91233 3.45555 8.92823C3.47371 8.93618 3.49237 8.94364 3.51103 8.95109C3.5297 8.95855 3.54837 8.966 3.56654 8.97396C3.5847 8.97992 3.60488 8.98787 3.62304 8.99582C3.64322 9.00378 3.66138 9.00974 3.68156 9.01571C3.70174 9.02266 3.72142 9.02912 3.7411 9.03559C3.76077 9.04205 3.78045 9.04851 3.80063 9.05547C3.82516 9.06211 3.84969 9.06913 3.87433 9.07617C3.93078 9.09231 3.98782 9.10862 4.04682 9.12107C4.05581 9.12284 4.0648 9.12501 4.07397 9.12722C4.08538 9.12997 4.09707 9.13278 4.10938 9.13499L4.14167 9.14294L4.17396 9.1489C4.2098 9.15395 4.24564 9.16041 4.28271 9.1671C4.28946 9.16832 4.29626 9.16955 4.30311 9.17077C4.47867 9.19662 4.65827 9.21053 4.83788 9.21252C5.01748 9.21053 5.19708 9.19662 5.37265 9.17077C5.41502 9.16481 5.45942 9.15686 5.5018 9.1489L5.53409 9.14294L5.56637 9.13499C5.57646 9.133 5.58706 9.13051 5.59765 9.12803C5.60825 9.12554 5.61884 9.12306 5.62893 9.12107C5.68793 9.10862 5.74497 9.09231 5.80142 9.07617C5.82607 9.06913 5.8506 9.06211 5.87513 9.05547C5.89246 9.04949 5.90979 9.04388 5.92696 9.03832C5.94978 9.03094 5.97231 9.02365 5.99419 9.01571C6.01437 9.00974 6.03455 9.00378 6.05271 8.99582C6.07087 8.98986 6.09105 8.98191 6.10921 8.97396C6.12346 8.96805 6.13742 8.96242 6.1512 8.95685C6.17454 8.94744 6.19737 8.93823 6.2202 8.92823C6.23736 8.92028 6.25501 8.91233 6.27267 8.90438C6.29033 8.89642 6.30799 8.88847 6.32514 8.88052C6.3433 8.87257 6.36146 8.86461 6.37761 8.85666C6.38865 8.85183 6.39894 8.84626 6.40894 8.84085C6.41539 8.83736 6.42173 8.83394 6.42806 8.83082L6.42812 8.83079C6.46039 8.81291 6.49265 8.79502 6.52492 8.77913L6.61573 8.72545C6.62083 8.72244 6.62588 8.71948 6.63087 8.71655C6.65552 8.70209 6.67902 8.68831 6.70251 8.67178C6.71562 8.66283 6.72923 8.65389 6.74285 8.64495C6.75647 8.636 6.7701 8.62705 6.78323 8.6181C6.80946 8.60021 6.83569 8.58231 6.85991 8.56442C6.88413 8.54653 6.90834 8.52864 6.93054 8.51075C6.93851 8.50432 6.94647 8.49816 6.95435 8.49207C6.96841 8.48118 6.98218 8.47053 6.99512 8.45906C7.01798 8.43878 7.04085 8.41978 7.06262 8.4017C7.07927 8.38787 7.09527 8.37457 7.11014 8.36164C7.12644 8.34653 7.14183 8.33187 7.15652 8.31787C7.17275 8.3024 7.18814 8.28773 7.20297 8.27417C7.2103 8.26694 7.21764 8.26026 7.22469 8.25383C7.23122 8.24787 7.23751 8.24213 7.24333 8.2364C7.24509 8.23437 7.24681 8.23239 7.2485 8.23044C7.25837 8.21905 7.267 8.2091 7.27562 8.20061C7.29781 8.17874 7.31396 8.16085 7.32808 8.14495Z" fill="#075FB0"/>
<path d="M4.87954 4.02637C5.1323 4.02637 5.3482 4.05576 5.52899 4.11456C5.70979 4.17335 5.85898 4.25462 5.97659 4.35837C6.09419 4.46213 6.1802 4.58317 6.23637 4.72324C6.29253 4.8633 6.32062 5.01547 6.32062 5.17802C6.32062 5.3544 6.29254 5.51521 6.23461 5.6622C6.17669 5.80918 6.08892 5.93541 5.97132 6.03916C5.85372 6.14464 5.70452 6.22592 5.52373 6.28471C5.34294 6.3435 5.12879 6.3729 4.8813 6.3729H4.4495V7.55222H3.61926V4.02637H4.87954ZM4.87954 5.75557C5.09544 5.75557 5.25166 5.70543 5.34645 5.6034C5.44123 5.50138 5.48862 5.35958 5.48862 5.17802C5.48862 5.09675 5.47634 5.02412 5.45176 4.95841C5.42719 4.8927 5.39033 4.83564 5.33942 4.78722C5.29028 4.7388 5.22709 4.70249 5.14986 4.67655C5.07438 4.65061 4.98311 4.63851 4.87779 4.63851H4.44599V5.75557H4.87954Z" fill="#075FB0"/>
</svg>
