<svg width="535" height="287" viewBox="0 0 535 287" fill="none" xmlns="http://www.w3.org/2000/svg">
<path d="M514.553 0H20.7539C9.70821 0 0.753906 8.95428 0.753906 20V266.989C0.753906 278.035 9.70823 286.989 20.7539 286.989H514.553C525.599 286.989 534.553 278.035 534.553 266.989V20C534.553 8.95431 525.599 0 514.553 0Z" fill="#BEDBDE"/>
<path d="M21 0.5H514.799C525.569 0.5 534.299 9.23045 534.299 20V266.989C534.299 277.758 525.569 286.489 514.799 286.489H21C10.2305 286.489 1.5 277.758 1.5 266.989V20C1.5 9.23048 10.2304 0.5 21 0.5Z" fill="#E6F4F1" stroke="#68BDC9"/>
<path d="M534.552 195.461V232.457H456.743C455.036 232.457 453.837 230.895 454.293 229.319C455.696 224.51 460.271 220.246 466.872 217.144C471.531 214.95 477.184 213.338 483.451 212.517H483.459C485.727 202.754 504.24 195.148 526.752 195.148C529.415 195.148 532.026 195.257 534.552 195.461Z" fill="url(#paint0_linear_12676:650)"/>
<path d="M412.831 259.725H307.353C306.202 259.725 305.387 258.622 305.701 257.512C306.65 254.123 309.746 251.121 314.211 248.931C317.366 247.389 321.195 246.25 325.435 245.676H325.443C326.983 238.801 339.516 233.438 354.757 233.438C369.892 233.438 382.358 238.719 384.033 245.535C391.511 245.862 398.272 247.091 403.559 248.931C408.973 250.823 412.801 254.481 414.275 257.378C414.828 258.458 414.043 259.725 412.831 259.725Z" fill="url(#paint1_linear_12676:650)"/>
<path d="M534.552 195.475V202.458C533.475 202.428 532.368 202.413 531.215 202.413C505.898 202.413 493.748 213.024 491.823 221.845C474.716 215.028 460.694 221.609 454.211 229.587C454.203 229.587 454.203 229.587 454.195 229.587C455.975 225.078 460.351 221.101 466.43 218.133C471.119 215.848 476.809 214.155 483.117 213.305H483.124C485.408 203.096 504.042 195.148 526.701 195.148C529.382 195.148 532.009 195.262 534.552 195.475Z" fill="white"/>
<path d="M412.834 259.725H407.181C405.379 251.806 388.112 246.585 378.906 249.244C378.682 244.693 374.569 236.998 362.402 233.914C373.919 235.337 382.653 239.925 384.036 245.542C391.514 245.87 398.275 247.099 403.562 248.939C408.983 250.831 412.805 254.488 414.285 257.386C414.831 258.458 414.046 259.725 412.834 259.725Z" fill="white"/>
<path d="M450.056 145.151H377.758C370.564 145.151 364.738 139.341 364.738 132.182V50.6985C364.738 47.0634 367.692 44.1211 371.341 44.1211H448.343C453.084 44.1211 456.921 47.9498 456.921 52.665V138.305C456.921 142.089 453.847 145.151 450.056 145.151Z" fill="#A19CC0"/>
<path d="M449.713 138.895H377.647C373.668 138.895 370.445 135.684 370.445 131.721V51.31C370.445 47.3472 373.668 44.1367 377.647 44.1367H449.705C453.684 44.1367 456.907 47.3472 456.907 51.31V131.721C456.914 135.684 453.684 138.895 449.713 138.895Z" fill="url(#paint2_linear_12676:650)"/>
<path d="M423.84 70.7311H391.751C390.51 70.7311 389.508 69.7329 389.508 68.4964C389.508 67.2599 390.51 66.2617 391.751 66.2617H423.84C425.081 66.2617 426.083 67.2599 426.083 68.4964C426.083 69.7329 425.074 70.7311 423.84 70.7311Z" fill="white"/>
<path d="M435.595 93.7428H391.751C390.51 93.7428 389.508 92.7446 389.508 91.5081C389.508 90.2716 390.51 89.2734 391.751 89.2734H435.595C436.836 89.2734 437.838 90.2716 437.838 91.5081C437.838 92.7446 436.829 93.7428 435.595 93.7428Z" fill="white"/>
<path d="M435.595 116.747H391.751C390.51 116.747 389.508 115.749 389.508 114.512C389.508 113.275 390.51 112.277 391.751 112.277H435.595C436.836 112.277 437.838 113.275 437.838 114.512C437.838 115.749 436.829 116.747 435.595 116.747Z" fill="white"/>
<path d="M436.641 69.5128L422.336 55.263L457.842 19.8955C458.993 18.7484 460.848 18.7484 461.999 19.8955L472.147 30.0037C473.299 31.1508 473.299 32.9982 472.147 34.1453L436.641 69.5128Z" fill="#007F8E"/>
<path d="M423.971 71.4596L436.646 69.5154L422.341 55.2656L420.389 67.8916C420.067 69.9773 421.877 71.7799 423.971 71.4596Z" fill="#209FAE"/>
<path d="M467.137 39.1435L452.828 24.8906L426.257 51.358L440.566 65.6109L467.137 39.1435Z" fill="#209FAE"/>
<path d="M277.763 154.037C277.284 154.037 276.798 153.91 276.364 153.635C272.82 151.4 269.193 149.233 265.573 147.177C264.317 146.462 263.876 144.875 264.594 143.624C265.312 142.372 266.905 141.94 268.161 142.648C271.848 144.741 275.549 146.953 279.161 149.225C280.38 149.992 280.746 151.609 279.976 152.823C279.483 153.605 278.63 154.037 277.763 154.037ZM252.337 139.847C251.948 139.847 251.56 139.758 251.186 139.579C247.432 137.739 243.588 135.966 239.759 134.305C238.436 133.731 237.83 132.197 238.406 130.871C238.982 129.552 240.522 128.949 241.853 129.523C245.757 131.214 249.675 133.024 253.496 134.893C254.79 135.527 255.329 137.091 254.693 138.387C254.229 139.318 253.302 139.847 252.337 139.847ZM225.528 128.45C225.229 128.45 224.93 128.398 224.631 128.294C220.713 126.871 216.697 125.515 212.704 124.271C211.32 123.839 210.557 122.379 210.984 121.009C211.417 119.631 212.883 118.871 214.259 119.295C218.327 120.562 222.418 121.94 226.418 123.392C227.779 123.884 228.475 125.381 227.981 126.737C227.6 127.795 226.598 128.45 225.528 128.45ZM197.65 119.981C197.441 119.981 197.232 119.958 197.022 119.906C193.066 118.93 189.043 118.036 185.057 117.247C183.636 116.964 182.717 115.593 183.001 114.178C183.285 112.763 184.661 111.846 186.082 112.129C190.142 112.934 194.248 113.85 198.278 114.841C199.684 115.184 200.537 116.599 200.193 117.999C199.894 119.184 198.824 119.981 197.65 119.981Z" fill="white"/>
<path d="M385.158 281.791C384.126 281.791 383.146 281.18 382.735 280.167C381.157 276.308 379.474 272.442 377.717 268.666C377.111 267.362 377.68 265.813 378.996 265.202C380.304 264.598 381.86 265.165 382.473 266.476C384.26 270.327 385.98 274.267 387.588 278.2C388.134 279.534 387.491 281.053 386.152 281.597C385.823 281.731 385.487 281.791 385.158 281.791ZM372.744 255.526C371.809 255.526 370.912 255.027 370.441 254.155C368.467 250.498 366.373 246.825 364.219 243.25C363.479 242.013 363.875 240.412 365.116 239.674C366.358 238.937 367.966 239.332 368.706 240.568C370.897 244.211 373.036 247.95 375.047 251.682C375.735 252.948 375.257 254.527 373.985 255.213C373.589 255.421 373.163 255.526 372.744 255.526ZM357.578 230.721C356.741 230.721 355.926 230.326 355.417 229.588C353.062 226.155 350.586 222.728 348.066 219.406C347.191 218.259 347.423 216.62 348.575 215.756C349.727 214.884 351.372 215.115 352.239 216.262C354.804 219.652 357.324 223.138 359.732 226.639C360.547 227.823 360.241 229.447 359.052 230.266C358.603 230.572 358.087 230.721 357.578 230.721ZM339.855 207.666C339.115 207.666 338.382 207.353 337.866 206.75C336.131 204.724 334.337 202.698 332.534 200.716C331.562 199.651 331.645 197.998 332.714 197.037C333.783 196.076 335.443 196.15 336.408 197.215C338.248 199.234 340.072 201.305 341.837 203.368C342.772 204.463 342.645 206.109 341.546 207.041C341.059 207.458 340.461 207.666 339.855 207.666Z" fill="white"/>
<path d="M365.556 286.996H250.087L228.872 253.186L328.001 230.779C323.372 224.82 318.482 219.085 313.352 213.595L217.603 235.241L195.079 199.367L252.757 166.242C245.743 162.353 238.534 158.793 231.153 155.582L158.16 197.505L158.145 197.512L153.366 198.816L107.122 136.215C99.5391 136.96 92.0386 138.055 84.6204 139.47L132.637 204.477L0.753906 240.5V167.098C40.1558 143.113 85.0391 130.539 131.882 130.539C185.933 130.539 237.464 147.314 280.912 179.061C301.828 194.339 320.202 212.649 335.524 233.491C347.736 250.109 357.801 268.054 365.556 286.996Z" fill="#8CCBD5"/>
<path d="M109.649 286.993H20.7539C9.70821 286.993 0.753906 278.038 0.753906 266.993V261.532L75.714 241.062L109.649 286.993Z" fill="#8CCBD5"/>
<path d="M226.422 286.984H134.568L96.4453 235.393L179.751 212.637L226.422 286.984Z" fill="#8CCBD5"/>
<path d="M169.327 144.387C169.451 141.3 160.955 138.454 150.349 138.03C139.743 137.606 131.045 139.765 130.921 142.852C130.796 145.939 139.293 148.785 149.899 149.209C160.504 149.633 169.203 147.474 169.327 144.387Z" fill="#BCDFE4"/>
<path d="M365.552 286.996H320.092C314.222 269.581 306.258 253.119 296.522 237.893L327.997 230.779C323.368 224.813 318.477 219.085 313.347 213.595L283.988 220.232C270.558 203.107 254.697 187.97 236.921 175.329L252.753 166.242C245.738 162.346 238.529 158.793 231.148 155.582L217.905 163.188C184.814 144.297 146.474 133.504 105.599 133.504C100.088 133.504 94.629 133.697 89.2148 134.085C103.176 131.731 117.437 130.539 131.877 130.539C185.929 130.539 237.46 147.314 280.907 179.061C301.824 194.339 320.197 212.649 335.52 233.491C347.731 250.109 357.804 268.046 365.552 286.996Z" fill="#CFEAEF"/>
<path d="M173.42 102.293C173.42 89.4811 162.988 79.0898 150.126 79.0898C137.264 79.0898 126.832 89.4811 126.832 102.293C126.832 107.515 128.582 112.32 131.506 116.193H131.476L150.096 140.7L168.762 116.193H168.732C171.663 112.32 173.42 107.515 173.42 102.293Z" fill="#209FAE"/>
<path d="M150.12 112.418C155.732 112.418 160.282 107.886 160.282 102.295C160.282 96.7041 155.732 92.1719 150.12 92.1719C144.507 92.1719 139.957 96.7041 139.957 102.295C139.957 107.886 144.507 112.418 150.12 112.418Z" fill="#E6F4F1"/>
<path d="M168.743 116.198H168.766L150.101 140.705L131.48 116.198H131.51C128.975 112.831 127.315 108.771 126.934 104.347C128.437 107.848 130.882 111.46 133.641 114.872C142.114 125.353 158.147 125.353 166.612 114.872C169.372 111.46 171.824 107.833 173.335 104.324C172.931 108.756 171.279 112.831 168.743 116.198Z" fill="#007F8E"/>
<path d="M300.561 211.252C302.594 208.918 297.744 201.409 289.728 194.478C281.712 187.548 273.566 183.821 271.533 186.154C269.5 188.487 274.35 195.997 282.365 202.928C290.381 209.858 298.527 213.585 300.561 211.252Z" fill="#BCDFE4"/>
<path d="M330.316 182.572C338.639 172.799 337.428 158.154 327.617 149.871C317.805 141.581 303.104 142.787 294.788 152.56C291.4 156.545 289.613 161.335 289.329 166.177L289.307 166.155L287.602 196.844L317.746 190.177L317.723 190.155C322.464 189.09 326.921 186.557 330.316 182.572Z" fill="#209FAE"/>
<path d="M312.545 177.707C318.158 177.707 322.708 173.175 322.708 167.584C322.708 161.993 318.158 157.461 312.545 157.461C306.933 157.461 302.383 161.993 302.383 167.584C302.383 173.175 306.933 177.707 312.545 177.707Z" fill="#E6F4F1"/>
<path d="M317.715 190.154L317.73 190.169L287.586 196.836L289.291 166.147L289.313 166.169C289.568 161.968 290.936 157.804 293.516 154.184C292.394 157.819 291.908 162.154 291.796 166.526C291.46 179.979 303.686 190.303 316.945 187.771C321.267 186.944 325.492 185.76 328.917 184.054C325.746 187.182 321.835 189.216 317.715 190.154Z" fill="#007F8E"/>
<path d="M132.637 204.448L0.753906 240.463V208.076C30.4268 187.315 66.5758 175.129 105.581 175.129C107.406 175.129 109.231 175.159 111.04 175.211L132.637 204.448Z" fill="#5FBAC1"/>
<path d="M174.048 188.369L158.165 197.494L158.15 197.501L153.371 198.805L138.004 178C150.507 180.235 162.569 183.736 174.048 188.369Z" fill="#5FBAC1"/>
<path d="M237.064 230.813L217.598 235.215L195.074 199.341L195.859 198.887C211.1 207.535 224.972 218.314 237.064 230.813Z" fill="#5FBAC1"/>
<path d="M274.144 286.98H250.094L228.879 253.17L251.754 248C260.75 259.941 268.303 273.021 274.144 286.98Z" fill="#5FBAC1"/>
<path d="M109.649 286.977H22.7539C10.6036 286.977 0.753906 277.127 0.753906 264.977V261.516L75.714 241.039L109.649 286.977Z" fill="#5FBAC1"/>
<path d="M226.422 286.972H134.568L96.4453 235.374L179.751 212.617L226.422 286.972Z" fill="#5FBAC1"/>
<path d="M20.7539 0.5H514.553C525.323 0.5 534.053 9.23045 534.053 20V266.989C534.053 277.758 525.323 286.489 514.553 286.489H20.7539C9.98437 286.489 1.25391 277.758 1.25391 266.989V20C1.25391 9.23042 9.98435 0.5 20.7539 0.5Z" stroke="#0D94A5"/>
<defs>
<linearGradient id="paint0_linear_12676:650" x1="494.374" y1="195.148" x2="494.374" y2="232.457" gradientUnits="userSpaceOnUse">
<stop stop-color="#C4E2E6"/>
<stop offset="1" stop-color="#90CDD7"/>
</linearGradient>
<linearGradient id="paint1_linear_12676:650" x1="360.044" y1="233.447" x2="360.044" y2="259.727" gradientUnits="userSpaceOnUse">
<stop stop-color="#C4E2E6"/>
<stop offset="1" stop-color="#90CDD7"/>
</linearGradient>
<linearGradient id="paint2_linear_12676:650" x1="382.448" y1="43.0493" x2="402.537" y2="133.451" gradientUnits="userSpaceOnUse">
<stop stop-color="#D0CDE1"/>
<stop offset="1" stop-color="#ACA7CB"/>
</linearGradient>
</defs>
</svg>
