<svg width="268" height="236" viewBox="0 0 268 236" fill="none" xmlns="http://www.w3.org/2000/svg">
<path fill-rule="evenodd" clip-rule="evenodd" d="M19 203C19 210.723 25.291 217 33 217H234C241.711 217 248 210.723 248 203V33C248 25.2773 241.711 19 234 19H210H198H33C25.291 19 19 25.2773 19 33V167V179V203ZM237 110V33C237 32.6055 236.873 32.2773 236.66 32.0078C236.342 31.6016 235.83 31.3242 235.262 31.168C234.855 31.0547 234.418 31 234 31H33C32.2949 31 31.791 31.1523 31.4648 31.4883C31.1484 31.8125 31 32.3086 31 33V163L72 120C74.1602 117.758 77.8398 117.758 80 120L117 159L199 79C200.094 77.9336 201.463 77.9336 203 78C204.523 78.0234 205.941 78.9023 207 80L237 110ZM33 206H234C234.674 206 235.396 205.625 235.965 205.078C236.57 204.496 237 203.719 237 203V127L203 92L121 171C119.906 172.062 118.5 173.012 117 173C115.477 172.977 114.059 172.098 113 171L76 133L31 180V203C31 204.395 31.6074 206 33 206ZM66 77C66 62.3789 77.4004 51 92 51C106.6 51 119 62.3789 119 77C119 91.6211 106.6 104 92 104C77.4004 104 66 91.6211 66 77ZM77 77C77 85.2969 83.7168 92 92 92C100.281 92 107 85.2969 107 77C107 68.7031 100.281 62 92 62C83.7168 62 77 68.7031 77 77Z" fill="#219FAE"/>
</svg>
