<svg width="326" height="327" viewBox="0 0 326 327" fill="none" xmlns="http://www.w3.org/2000/svg">
<circle cx="163" cy="163" r="152" fill="#D75995"/>
<path fill-rule="evenodd" clip-rule="evenodd" d="M89.3257 224.115H173.776C176.472 224.115 178.586 222.004 178.586 219.308C178.586 216.621 176.472 214.5 173.776 214.5H89.3257C85.0973 214.5 81.633 211.036 81.633 206.804V193.579L112.889 163.416L137.033 186.696C138.859 188.524 141.843 188.524 143.669 186.696L193.591 138.601L224.66 168.517C225.68 169.485 227.003 169.942 228.316 169.869C229.739 169.869 231.002 169.284 231.876 168.325C232.654 167.475 233.126 166.332 233.126 165.062V108.311C233.126 98.7873 225.332 91 215.809 91H89.3257C79.8025 91 72.0137 98.7873 72.0137 108.311V191.257C71.9954 191.486 71.9954 191.714 72.0137 191.943V206.804C72.0137 216.328 79.8025 224.115 89.3257 224.115ZM81.633 180.271V108.311C81.633 104.079 85.0973 100.615 89.3257 100.615H215.809C218.555 100.615 220.976 102.078 222.34 104.253C222.655 104.756 222.912 105.286 223.104 105.853C223.365 106.62 223.506 107.452 223.506 108.311V153.975L197.056 128.41C195.225 126.582 192.246 126.582 190.415 128.41L140.498 176.505L116.353 153.225C115.383 152.256 114.088 151.799 112.811 151.854C111.685 151.909 110.573 152.366 109.718 153.225L81.633 180.271ZM202.346 224.115H223.41V245.183C223.41 247.88 225.525 250 228.22 250C230.911 250 233.03 247.88 233.03 245.183V224.115H254.19C255.403 224.115 256.533 223.649 257.394 222.882C258.373 222.013 259 220.743 259 219.308C259 216.611 256.881 214.5 254.19 214.5H233.03V193.341C233.03 191.659 232.201 190.197 230.92 189.347C230.151 188.835 229.227 188.533 228.22 188.533C225.525 188.533 223.41 190.654 223.41 193.341V214.5H202.346C200.387 214.5 198.735 215.615 197.975 217.26C197.692 217.882 197.536 218.577 197.536 219.308C197.536 219.948 197.655 220.56 197.875 221.118C198.099 221.675 198.419 222.178 198.818 222.607C199.687 223.54 200.936 224.115 202.346 224.115Z" fill="white"/>
</svg>
