<svg width="91" height="101" viewBox="0 0 91 101" fill="none" xmlns="http://www.w3.org/2000/svg">
<circle cx="50" cy="50.3545" r="49.5" fill="#F6F6F6" stroke="#E9E9E9"/>
<path fill-rule="evenodd" clip-rule="evenodd" d="M36.8031 37.3793H45.4553V41.9247H29.5462V26.0156H34.0916V33.4482C38.0123 28.7032 43.6275 26.0156 50.0007 26.0156C62.5526 26.0156 72.728 36.191 72.728 48.7429C72.728 61.2948 62.5526 71.4702 50.0007 71.4702C37.4488 71.4702 27.2734 61.2948 27.2734 48.7429H31.8189C31.8189 58.7844 39.9592 66.9247 50.0007 66.9247C60.0423 66.9247 68.1825 58.7844 68.1825 48.7429C68.1825 38.7014 60.0423 30.5611 50.0007 30.5611C44.5607 30.5611 39.8951 33.0127 36.8031 37.3793Z" fill="black"/>
</svg>
