<svg width="418" height="418" viewBox="0 0 418 418" fill="none" xmlns="http://www.w3.org/2000/svg">
<path d="M275.937 363.431H141.333C137.631 363.431 134.603 360.403 134.603 356.701V316.32C134.603 275.518 167.833 242.288 208.635 242.288C249.437 242.288 282.667 275.518 282.667 316.32V356.701C282.667 360.403 279.639 363.431 275.937 363.431ZM148.063 349.971H269.207V316.32C269.207 282.921 242.034 255.748 208.635 255.748C175.236 255.748 148.063 282.921 148.063 316.32V349.971Z" fill="#3E3E3E"/>
<path d="M343.242 390.352H74.0332C70.3316 390.352 67.303 387.324 67.303 383.622V356.701C67.303 353 70.3316 349.971 74.0332 349.971H343.242C346.943 349.971 349.972 353 349.972 356.701V383.622C349.972 387.324 346.943 390.352 343.242 390.352ZM80.7634 376.892H336.511V363.432H80.7634V376.892Z" fill="#3E3E3E"/>
<path d="M397.082 363.431H20.1906C9.08578 363.431 0 354.346 0 343.241V316.32C0 284.688 24.3129 258.693 55.2718 256L77.145 168.508C80.1736 156.477 90.8578 148.149 103.225 148.149H313.964C326.331 148.149 337.099 156.562 340.044 168.508L361.917 256C392.876 258.693 417.189 284.772 417.189 316.32V343.241C417.273 354.346 408.187 363.431 397.082 363.431ZM103.225 161.525C96.9991 161.525 91.6991 165.732 90.1848 171.705L67.1338 264.077C66.3767 267.105 63.6846 269.208 60.5719 269.208C34.5764 269.208 13.4604 290.325 13.4604 316.32V343.241C13.4604 346.942 16.489 349.971 20.1906 349.971H397.082C400.784 349.971 403.813 346.942 403.813 343.241V316.32C403.813 290.325 382.696 269.208 356.701 269.208C353.588 269.208 350.896 267.105 350.139 264.077L327.004 171.705C325.49 165.732 320.106 161.525 313.964 161.525H103.225V161.525Z" fill="#3E3E3E"/>
<path d="M329.779 269.208H249.016V255.748H321.198L304.372 188.446H112.898L96.0725 255.748H168.254V269.208H87.4915C85.3883 269.208 83.4533 268.283 82.1914 266.601C80.9295 264.918 80.4247 262.815 80.9295 260.796L101.12 180.033C101.877 177.005 104.569 174.901 107.682 174.901H309.588C312.701 174.901 315.393 177.005 316.15 180.033L336.341 260.796C336.846 262.815 336.425 264.918 335.079 266.601C333.733 268.283 331.882 269.208 329.779 269.208Z" fill="#3E3E3E"/>
<path d="M67.3015 242.288H47.1108C43.4092 242.288 40.3806 239.259 40.3806 235.557V195.176C40.3806 191.475 43.4092 188.446 47.1108 188.446H80.7619V201.906H53.841V228.827H67.3015V242.288Z" fill="#3E3E3E"/>
<path d="M370.161 242.288H349.97V228.827H363.431V201.906H343.24V188.446H370.161C373.863 188.446 376.891 191.475 376.891 195.176V235.557C376.891 239.259 373.863 242.288 370.161 242.288Z" fill="#3E3E3E"/>
<path d="M60.5724 417.273H33.6516C22.5467 417.273 13.4609 408.187 13.4609 397.083V356.701C13.4609 353 16.4895 349.971 20.1911 349.971H74.0328C77.7344 349.971 80.763 353 80.763 356.701V397.083C80.763 408.187 71.6772 417.273 60.5724 417.273ZM26.9214 363.432V397.083C26.9214 400.784 29.9499 403.813 33.6516 403.813H60.5724C64.274 403.813 67.3026 400.784 67.3026 397.083V363.432H26.9214Z" fill="#3E3E3E"/>
<path d="M383.623 417.273H356.702C345.597 417.273 336.511 408.187 336.511 397.083V356.701C336.511 353 339.54 349.971 343.242 349.971H397.083C400.785 349.971 403.814 353 403.814 356.701V397.083C403.814 408.187 394.728 417.273 383.623 417.273ZM349.972 363.432V397.083C349.972 400.784 353 403.813 356.702 403.813H383.623C387.325 403.813 390.353 400.784 390.353 397.083V363.432H349.972Z" fill="#3E3E3E"/>
<path d="M174.986 262.478H161.525V356.701H174.986V262.478Z" fill="#3E3E3E"/>
<path d="M201.905 249.018H188.444V356.701H201.905V249.018Z" fill="#3E3E3E"/>
<path d="M228.827 249.018H215.367V356.701H228.827V249.018Z" fill="#3E3E3E"/>
<path d="M255.746 262.478H242.286V356.701H255.746V262.478Z" fill="#3E3E3E"/>
<path d="M161.524 356.701H148.064V383.622H161.524V356.701Z" fill="#3E3E3E"/>
<path d="M269.208 356.701H255.747V383.622H269.208V356.701Z" fill="#3E3E3E"/>
<path d="M87.4921 336.511H47.1108C43.4092 336.511 40.3806 333.482 40.3806 329.78V302.86C40.3806 299.158 43.4092 296.129 47.1108 296.129H87.4921C91.1937 296.129 94.2223 299.158 94.2223 302.86V329.78C94.2223 333.482 91.1937 336.511 87.4921 336.511ZM53.841 323.05H80.7619V309.59H53.841V323.05Z" fill="#3E3E3E"/>
<path d="M370.162 336.511H329.781C326.079 336.511 323.05 333.482 323.05 329.78V302.86C323.05 299.158 326.079 296.129 329.781 296.129H370.162C373.863 296.129 376.892 299.158 376.892 302.86V329.78C376.892 333.482 373.863 336.511 370.162 336.511ZM336.511 323.05H363.432V309.59H336.511V323.05Z" fill="#3E3E3E"/>
<path d="M132.595 247.088L172.986 206.697L163.468 197.179L123.077 237.57L132.595 247.088Z" fill="#3E3E3E"/>
<path d="M253.736 247.089L294.128 206.698L284.61 197.18L244.219 237.571L253.736 247.089Z" fill="#3E3E3E"/>
<path d="M114.415 94.223H100.954V33.6511C100.954 29.9495 103.983 26.9209 107.685 26.9209H127.875C138.98 26.9209 148.066 36.0067 148.066 47.1115C148.066 58.2164 138.98 67.3021 127.875 67.3021H114.415V94.223ZM114.415 53.8417H127.875C131.577 53.8417 134.605 50.8131 134.605 47.1115C134.605 43.4099 131.577 40.3813 127.875 40.3813H114.415V53.8417Z" fill="#3E3E3E"/>
<path d="M148.065 94.2229H134.604C134.604 79.4165 122.49 67.3021 107.684 67.3021V53.8417C129.977 53.8417 148.065 71.9291 148.065 94.2229Z" fill="#3E3E3E"/>
<path d="M201.906 94.223H168.255C164.554 94.223 161.525 91.1944 161.525 87.4928V33.6511C161.525 29.9495 164.554 26.9209 168.255 26.9209H201.906V40.3813H174.986V80.7626H201.906V94.223Z" fill="#3E3E3E"/>
<path d="M201.905 53.8417H168.254V67.3021H201.905V53.8417Z" fill="#3E3E3E"/>
<path d="M255.748 94.2226C253.477 94.2226 251.289 93.0448 250.027 91.0258L228.827 57.1224V94.2226H215.367V33.6508C215.367 30.6222 217.386 28.0142 220.246 27.173C223.106 26.3317 226.219 27.5095 227.818 30.1174L249.018 64.0208V26.9206H262.478V87.4924C262.478 90.521 260.459 93.129 257.599 93.9702C257.01 94.1385 256.337 94.2226 255.748 94.2226Z" fill="#3E3E3E"/>
<path d="M316.319 26.9209H275.937V40.3813H316.319V26.9209Z" fill="#3E3E3E"/>
<path d="M302.859 33.6507H289.399V94.2226H302.859V33.6507Z" fill="#3E3E3E"/>
<path d="M323.05 121.144H94.2226C83.1178 121.144 74.032 112.058 74.032 100.953V20.1906C74.032 9.08578 83.1178 0 94.2226 0H323.05C334.155 0 343.24 9.08578 343.24 20.1906V100.953C343.24 112.058 334.155 121.144 323.05 121.144ZM94.2226 13.4604C90.521 13.4604 87.4924 16.489 87.4924 20.1906V100.953C87.4924 104.655 90.521 107.683 94.2226 107.683H323.05C326.751 107.683 329.78 104.655 329.78 100.953V20.1906C329.78 16.489 326.751 13.4604 323.05 13.4604H94.2226Z" fill="#3E3E3E"/>
<path d="M195.176 114.413H181.715V154.794H195.176V114.413Z" fill="#3E3E3E"/>
<path d="M235.556 114.413H222.096V154.794H235.556V114.413Z" fill="#3E3E3E"/>
</svg>
