<svg width="134" height="134" viewBox="0 0 134 134" fill="none" xmlns="http://www.w3.org/2000/svg">
<path d="M0 67C0 29.9969 29.9969 0 67 0V0C104.003 0 134 29.9969 134 67V67C134 104.003 104.003 134 67 134V134C29.9969 134 0 104.003 0 67V67Z" fill="#E2ECF8" fill-opacity="0.3"/>
<path d="M127.399 85.9664C126.004 83.0112 120.293 78.9933 114.549 76.4033C113.154 72.3523 104.089 54.7535 101.532 52.1967C98.9421 49.6398 82.6715 46.5186 68.8581 46.5186C55.0447 46.5186 38.7742 49.6066 36.1841 52.1967C33.5941 54.7535 24.5623 72.3523 23.1677 76.4033C17.4564 78.9933 11.7119 83.0112 10.3172 85.9664C8.32492 90.2167 9.32108 105.458 12.6748 113.494C13.7706 113.494 43.4229 113.494 61.7522 113.494C70.0203 113.494 75.9973 113.494 75.9973 113.494C94.3266 113.494 123.979 113.494 125.075 113.494C128.362 105.458 129.391 90.2167 127.399 85.9664Z" fill="#F4F4F4"/>
<path d="M20.5779 67.8029C20.5779 68.7327 20.5779 70.6586 20.5779 71.9868C20.5779 73.315 19.7477 74.1119 18.7516 74.1119C18.0211 74.1119 11.7453 74.1119 10.6827 74.1119C8.75679 74.1119 8.45794 72.6509 8.95602 71.6879C9.4541 70.725 10.3838 68.8987 10.7491 68.1682C11.3136 67.0392 12.1769 65.877 13.804 65.877C15.1322 65.877 17.7554 65.877 18.818 65.877C19.8473 65.8438 20.5779 66.8732 20.5779 67.8029Z" fill="#F4F4F4"/>
<path d="M117.139 67.8029C117.139 68.7327 117.139 70.6586 117.139 71.9868C117.139 73.315 117.969 74.1119 118.965 74.1119C119.696 74.1119 125.972 74.1119 127.034 74.1119C128.96 74.1119 129.259 72.6509 128.761 71.6879C128.263 70.725 127.333 68.8987 126.968 68.1682C126.403 67.0392 125.54 65.877 123.913 65.877C122.585 65.877 119.961 65.877 118.899 65.877C117.836 65.8438 117.139 66.8732 117.139 67.8029Z" fill="#F4F4F4"/>
<path d="M13.6711 113.494V123.92C13.6711 125.58 15.0326 126.942 16.6928 126.942H26.5548C28.2151 126.942 29.5765 125.58 29.5765 123.92V113.494H13.6711Z" fill="#C6DBDC"/>
<path d="M124.013 113.494V123.92C124.013 125.58 122.651 126.942 120.991 126.942H111.129C109.469 126.942 108.107 125.58 108.107 123.92V113.494H124.013Z" fill="#C6DBDC"/>
<path d="M96.7173 56.1811C93.4964 54.4544 80.812 53.6907 68.8581 53.6907C56.9042 53.6907 44.2198 54.4544 40.9989 56.1811C38.3424 57.5425 33.4945 68.633 32.2659 71.3227H67.065H70.6844H105.45C104.222 68.633 99.3737 57.5425 96.7173 56.1811Z" fill="#C6DBDC"/>
<path d="M105.45 72.5846H32.266C31.8343 72.5846 31.4358 72.3853 31.2034 72.0201C30.9709 71.6548 30.9377 71.2231 31.1038 70.8247L31.3362 70.2934C35.6529 60.6639 38.3425 56.1147 40.368 55.0854C44.884 52.6614 63.2797 52.4622 68.7918 52.4622C74.337 52.4622 92.6995 52.6614 97.2487 55.0854C99.241 56.1147 101.964 60.6639 106.281 70.2934L106.513 70.8247C106.679 71.2231 106.646 71.6548 106.413 72.0201C106.247 72.3853 105.849 72.5846 105.45 72.5846ZM34.1919 70.0942H103.524C98.8757 59.8669 96.9166 57.6754 96.1529 57.2769C93.5297 55.8491 82.5719 54.9193 68.8582 54.9193C55.1444 54.9193 44.1866 55.8491 41.5634 57.2437C40.7665 57.6754 38.8406 59.9001 34.1919 70.0942Z" fill="#6F7273"/>
<path d="M125.042 114.722H12.6417C12.1436 114.722 11.6788 114.423 11.4795 113.958C8.159 105.989 6.86399 90.2497 9.15515 85.435C10.7822 81.9484 16.9252 77.8974 22.1384 75.5066C24.0311 70.6586 32.5317 54.056 35.2877 51.3332C38.3094 48.3447 55.2441 45.2898 68.8582 45.2898C82.4724 45.2898 99.4071 48.3447 102.429 51.3332C105.185 54.056 113.685 70.6586 115.578 75.5066C120.791 77.9306 126.901 81.9816 128.561 85.435C130.819 90.2497 129.557 105.989 126.237 113.958C126.005 114.423 125.54 114.722 125.042 114.722ZM13.505 112.232H124.211C127.2 104.296 128.03 90.2165 126.27 86.4975C125.108 84.0071 119.828 80.1553 114.051 77.5321C113.752 77.3993 113.486 77.1337 113.387 76.8016C111.992 72.817 102.993 55.3842 100.669 53.0598C98.6102 51.0011 83.2029 47.747 68.8582 47.747C54.5136 47.747 39.1063 51.0011 37.0476 53.0598C34.7232 55.3842 25.6914 72.817 24.33 76.8016C24.2303 77.1337 23.9647 77.3993 23.6659 77.5321C17.8881 80.1553 12.6085 83.9739 11.4463 86.4975C9.65323 90.2165 10.5166 104.296 13.505 112.232Z" fill="#6F7273"/>
<path d="M26.5876 128.203H16.6924C14.3348 128.203 12.4089 126.278 12.4089 123.92V113.493C12.4089 112.796 12.9734 112.232 13.6707 112.232C14.368 112.232 14.9325 112.796 14.9325 113.493V123.92C14.9325 124.916 15.7295 125.713 16.7256 125.713H26.5876C27.5837 125.713 28.3807 124.916 28.3807 123.92V113.493C28.3807 112.796 28.9452 112.232 29.6425 112.232C30.3398 112.232 30.9043 112.796 30.9043 113.493V123.92C30.8379 126.278 28.9452 128.203 26.5876 128.203Z" fill="#6F7273"/>
<path d="M120.99 128.203H111.128C108.771 128.203 106.845 126.278 106.845 123.92V113.493C106.845 112.796 107.409 112.232 108.107 112.232C108.804 112.232 109.369 112.796 109.369 113.493V123.92C109.369 124.916 110.165 125.713 111.162 125.713H121.024C122.02 125.713 122.817 124.916 122.817 123.92V113.493C122.817 112.796 123.381 112.232 124.079 112.232C124.776 112.232 125.34 112.796 125.34 113.493V123.92C125.274 126.278 123.348 128.203 120.99 128.203Z" fill="#6F7273"/>
<path d="M29.2113 109.907H18.32C16.9254 109.907 15.7964 108.778 15.7964 107.384V105.126C15.7964 103.731 16.9254 102.602 18.32 102.602H29.2445C30.6391 102.602 31.7681 103.731 31.7681 105.126V107.384C31.7681 108.778 30.6059 109.907 29.2113 109.907ZM18.32 105.093C18.2868 105.093 18.2868 105.126 18.2868 105.126V107.384C18.2868 107.417 18.32 107.417 18.32 107.417H29.2445C29.2777 107.417 29.2777 107.384 29.2777 107.384V105.126C29.2777 105.093 29.2445 105.093 29.2445 105.093H18.32Z" fill="#6F7273"/>
<path d="M86.0921 114.722H51.5918C51.0938 114.722 50.6289 114.423 50.4296 113.925C50.3632 113.792 45.1832 100.842 43.0913 95.8284C41.8295 92.7735 41.2318 90.6152 42.1947 89.1874C43.1909 87.6931 45.316 87.6931 48.0057 87.6931H89.5787C92.2683 87.6931 94.3934 87.6931 95.3896 89.1874C96.3525 90.6152 95.7548 92.8067 94.493 95.8284C92.4011 100.842 87.2211 113.792 87.1547 113.925C87.0551 114.423 86.5902 114.722 86.0921 114.722ZM52.4552 112.232H85.2288C86.391 109.343 90.442 99.2153 92.2683 94.8655C93.6961 91.4453 93.4969 90.7148 93.3973 90.5488C93.1316 90.1503 90.9401 90.1503 89.6451 90.1503H48.0389C46.7439 90.1503 44.5523 90.1503 44.2867 90.5488C44.1871 90.6816 43.9878 91.4453 45.4157 94.8655C47.2419 99.2153 51.293 109.343 52.4552 112.232Z" fill="#6F7273"/>
<path d="M119.364 109.907H108.439C107.045 109.907 105.916 108.778 105.916 107.384V105.126C105.916 103.731 107.045 102.602 108.439 102.602H119.364C120.758 102.602 121.887 103.731 121.887 105.126V107.384C121.887 108.778 120.758 109.907 119.364 109.907ZM108.472 105.093C108.439 105.093 108.439 105.126 108.439 105.126V107.384C108.439 107.417 108.472 107.417 108.472 107.417H119.397C119.43 107.417 119.43 107.384 119.43 107.384V105.126C119.43 105.093 119.43 105.093 119.397 105.093H108.472Z" fill="#6F7273"/>
<path d="M93.5299 96.3263H44.1536C43.4563 96.3263 42.8918 95.7618 42.8918 95.0645C42.8918 94.3672 43.4563 93.8027 44.1536 93.8027H93.5299C94.2272 93.8027 94.7917 94.3672 94.7917 95.0645C94.7917 95.7618 94.2272 96.3263 93.5299 96.3263Z" fill="#6F7273"/>
<path d="M91.0061 102.469H46.6771C45.9798 102.469 45.4153 101.904 45.4153 101.207C45.4153 100.51 45.9798 99.9451 46.6771 99.9451H91.0393C91.7366 99.9451 92.3011 100.51 92.3011 101.207C92.2679 101.904 91.7034 102.469 91.0061 102.469Z" fill="#6F7273"/>
<path d="M88.5488 108.612H49.1341C48.4368 108.612 47.8723 108.048 47.8723 107.351C47.8723 106.653 48.4368 106.089 49.1341 106.089H88.5156C89.2129 106.089 89.7774 106.653 89.7774 107.351C89.7774 108.048 89.2129 108.612 88.5488 108.612Z" fill="#6F7273"/>
<path d="M54.3144 40.641H50.695C50.0309 40.641 49.5328 40.3754 49.234 39.8773L46.3451 34.8633C46.2123 34.6641 46.0463 34.498 45.8803 34.3984C45.7142 34.2988 45.4818 34.2656 45.1829 34.2656H44.1536V40.6742H40.1689V23.3411H45.7806C47.0424 23.3411 48.105 23.4739 48.9683 23.7395C49.8649 24.0052 50.5622 24.3704 51.1267 24.8021C51.6912 25.267 52.0896 25.7983 52.3553 26.4292C52.6209 27.0601 52.7205 27.7242 52.7205 28.4547C52.7205 29.0192 52.6541 29.5505 52.4881 30.0485C52.3221 30.5466 52.1228 31.0115 51.824 31.4432C51.5251 31.8748 51.1599 32.2401 50.7282 32.5721C50.2966 32.9042 49.7985 33.1698 49.234 33.4023C49.4996 33.5351 49.7321 33.7011 49.9645 33.9003C50.1969 34.0996 50.3962 34.332 50.5954 34.6309L54.3144 40.641ZM45.7806 31.4764C46.3119 31.4764 46.7768 31.4099 47.1753 31.2771C47.5737 31.1443 47.8726 30.9451 48.105 30.7126C48.3374 30.4802 48.5367 30.1814 48.6363 29.8493C48.7359 29.5172 48.8023 29.152 48.8023 28.7867C48.8023 28.023 48.5699 27.4253 48.0718 26.9936C47.5737 26.562 46.81 26.3627 45.7806 26.3627H44.1536V31.4764H45.7806Z" fill="#6F7273"/>
<path d="M59.395 26.4292V30.4802H64.8407V33.4355H59.395V37.5529H66.501V40.641H55.3772V23.3411H66.501V26.4292H59.395Z" fill="#6F7273"/>
<path d="M83.8008 23.3411V40.641H81.7088C81.41 40.641 81.1444 40.6078 80.9451 40.5082C80.7459 40.4086 80.5135 40.2425 80.3142 39.9769L72.1457 29.6501C72.1789 29.9489 72.2121 30.2478 72.2121 30.5466C72.2121 30.8455 72.2453 31.1111 72.2453 31.3435V40.6078H68.6924V23.3411H70.8175C70.9835 23.3411 71.1496 23.3411 71.2492 23.3743C71.382 23.3743 71.4816 23.4075 71.5812 23.4739C71.6809 23.5071 71.7805 23.5735 71.8469 23.6731C71.9465 23.7395 72.0461 23.8723 72.1457 24.0052L80.3806 34.3984C80.3474 34.0664 80.3142 33.7343 80.3142 33.4355C80.3142 33.1366 80.281 32.8378 80.281 32.5389V23.3411H83.8008Z" fill="#6F7273"/>
<path d="M98.8424 26.5288H93.9613V40.641H89.9434V26.5288H85.0623V23.3411H98.8092V26.5288H98.8424Z" fill="#6F7273"/>
<path d="M18.7516 75.3403H10.6827C8.98928 75.3403 8.19235 74.477 7.89351 73.9789C7.39543 73.1487 7.36222 72.053 7.8603 71.09C8.02633 70.758 8.25876 70.2931 8.52441 69.8282C8.95608 68.9981 9.42095 68.0683 9.65339 67.6035C10.0186 66.8729 11.1476 64.615 13.804 64.615H18.818C20.6111 64.615 21.8065 66.2753 21.8065 67.8027V71.9866C21.8065 73.8793 20.4783 75.3403 18.7516 75.3403ZM13.804 67.1054C13.0071 67.1054 12.4426 67.5703 11.8781 68.7324C11.6457 69.1973 11.1808 70.1271 10.716 70.9572C10.4835 71.4221 10.2511 71.8869 10.0518 72.219C9.95223 72.385 9.95223 72.5843 10.0186 72.6507C10.0851 72.7503 10.3175 72.8167 10.6827 72.8167H18.7516C19.1833 72.8167 19.3161 72.3518 19.3161 71.9202V67.7363C19.3161 67.4374 19.0837 67.039 18.818 67.039H13.804V67.1054Z" fill="#6F7273"/>
<path d="M119.065 93.7029H104.621C102.761 93.7029 101.931 92.74 101.599 92.1755C101.001 91.1793 101.035 89.7847 101.699 88.5893C101.865 88.2573 102.23 87.6596 102.662 86.9291C103.16 86.0657 103.724 85.1028 103.957 84.6379C105.384 81.9483 107.51 81.583 109.402 81.583H116.674C119.43 81.583 121.057 83.6085 121.423 84.9035C121.555 85.3352 121.788 86.1321 122.053 86.8959C122.352 87.8588 122.651 88.7553 122.751 89.187C123.182 90.7809 122.718 91.777 122.286 92.3747C121.589 93.2381 120.46 93.7029 119.065 93.7029ZM109.402 84.0734C107.842 84.0734 106.945 84.339 106.148 85.8001C105.882 86.2982 105.351 87.2279 104.82 88.1577C104.421 88.855 104.056 89.4859 103.89 89.7847C103.658 90.2164 103.591 90.648 103.757 90.9137C103.923 91.1793 104.388 91.2125 104.654 91.2125H119.065C119.629 91.2125 120.128 91.0797 120.294 90.8473C120.493 90.5816 120.393 90.1168 120.327 89.8179C120.227 89.4859 119.928 88.5229 119.663 87.6596C119.397 86.8294 119.165 86.0325 119.032 85.6008C118.899 85.2024 118.135 84.0734 116.674 84.0734H109.402V84.0734Z" fill="#6F7273"/>
<path d="M33.0632 93.7027H18.6189C17.2243 93.7027 16.0953 93.2378 15.4312 92.3413C14.9995 91.7768 14.5347 90.7474 14.9663 89.1536C15.066 88.7551 15.3648 87.8254 15.6637 86.8624C15.8961 86.0987 16.1617 85.3018 16.2946 84.8701C16.6598 83.5751 18.2869 81.5496 21.0429 81.5496H28.3149C30.2076 81.5496 32.3327 81.9148 33.7605 84.6044C33.993 85.0693 34.5575 86.0323 35.0555 86.8956C35.4872 87.6261 35.8193 88.2238 36.0185 88.5559C36.6826 89.7513 36.7158 91.1459 36.1181 92.142C35.7528 92.7729 34.9227 93.7027 33.0632 93.7027ZM21.0097 84.0732C19.5487 84.0732 18.7849 85.2021 18.6521 85.6006C18.5193 86.0323 18.2869 86.8292 18.0212 87.6261C17.7556 88.4895 17.4235 89.4524 17.3571 89.8177C17.2907 90.0833 17.1911 90.5814 17.3903 90.847C17.5564 91.0795 18.0212 91.2123 18.6189 91.2123H33.0632C33.3289 91.2123 33.7937 91.1791 33.9598 90.9134C34.0926 90.681 34.0594 90.2161 33.8269 89.7845C33.6609 89.4856 33.2956 88.8547 32.8972 88.1574C32.3659 87.2277 31.8346 86.2979 31.569 85.7998C30.7721 84.3056 29.8755 84.0732 28.3149 84.0732H21.0097V84.0732Z" fill="#6F7273"/>
<path d="M26.0236 71.2231H20.578C19.8807 71.2231 19.3162 70.6586 19.3162 69.9613C19.3162 69.2639 19.8807 68.6995 20.578 68.6995H26.0568C26.7541 68.6995 27.3186 69.2639 27.3186 69.9613C27.3186 70.6586 26.7209 71.2231 26.0236 71.2231Z" fill="#6F7273"/>
<path d="M127.001 75.3401H118.932C117.205 75.3401 115.877 73.879 115.877 71.9531V67.7693C115.877 66.2418 117.072 64.5815 118.865 64.5815H123.879C126.536 64.5815 127.665 66.8395 128.03 67.57C128.263 68.0349 128.761 68.9978 129.192 69.8612L129.823 71.0566C130.321 71.9863 130.288 73.1153 129.79 73.9454C129.491 74.4767 128.694 75.3401 127.001 75.3401ZM118.865 67.1051C118.6 67.1051 118.367 67.5036 118.367 67.8025V71.9863C118.367 72.3848 118.5 72.8829 118.932 72.8829H127.001C127.399 72.8829 127.632 72.7832 127.665 72.7168C127.698 72.6504 127.698 72.4512 127.632 72.2852L127.001 71.0898C126.536 70.2264 126.038 69.2635 125.805 68.7654C125.241 67.6032 124.676 67.1383 123.879 67.1383H118.865V67.1051Z" fill="#6F7273"/>
<path d="M117.138 71.2231H111.66C110.962 71.2231 110.398 70.6586 110.398 69.9613C110.398 69.2639 110.962 68.6995 111.66 68.6995H117.138C117.836 68.6995 118.4 69.2639 118.4 69.9613C118.4 70.6586 117.802 71.2231 117.138 71.2231Z" fill="#6F7273"/>
<path d="M40.3017 72.5846C39.7704 72.5846 39.3055 72.2526 39.1063 71.7213C38.8739 71.0572 39.2391 70.3599 39.9032 70.1606L57.1368 64.4161C57.8009 64.1837 58.4982 64.5489 58.6974 65.213C58.9298 65.8771 58.5646 66.5745 57.9005 66.7737L40.7002 72.5182C40.5673 72.5846 40.4345 72.5846 40.3017 72.5846Z" fill="#6F7273"/>
<path d="M76.894 72.5846C76.3627 72.5846 75.8978 72.2526 75.6986 71.7213C75.4661 71.0572 75.8314 70.3599 76.4955 70.1606L93.7291 64.4161C94.3932 64.1837 95.0905 64.5489 95.2897 65.213C95.5221 65.8771 95.1569 66.5745 94.4928 66.7737L77.2592 72.5182C77.1596 72.5846 77.0268 72.5846 76.894 72.5846Z" fill="#6F7273"/>
</svg>
