<svg width="14" height="14" viewBox="0 0 14 14" fill="none" xmlns="http://www.w3.org/2000/svg">
<path fill-rule="evenodd" clip-rule="evenodd" d="M7 1.4C8.67554 1.4 10.1125 2.15509 11.0649 3.5H8.4V4.9H13.3V0H11.9V2.28924C10.6924 0.827758 8.96296 0 7 0C3.13401 0 0 3.13401 0 7H1.4C1.4 3.90721 3.90721 1.4 7 1.4ZM7 12.6C5.32446 12.6 3.88748 11.8449 2.93514 10.5H5.6V9.1H0.7V14H2.1V11.7108C3.30757 13.1722 5.03704 14 7 14C10.866 14 14 10.866 14 7H12.6C12.6 10.0928 10.0928 12.6 7 12.6Z" fill="white"/>
</svg>
