<svg width="695" height="381" viewBox="0 0 695 381" fill="none" xmlns="http://www.w3.org/2000/svg">
<rect width="695" height="380.078" fill="#209FAE"/>
<path opacity="0.16" fill-rule="evenodd" clip-rule="evenodd" d="M126.956 0C123.556 9.00179 122.129 18.3051 123.311 28.0075C129.752 80.8644 173.322 136.063 253.18 160.423C300.97 175 351.756 165.141 404.091 154.981C434.341 149.109 465.108 143.136 496.113 141.723C534.034 139.996 574.769 144.543 614.78 149.009C642.241 152.074 669.361 155.101 694.998 156.035V0H126.956Z" fill="white"/>
<path d="M267.152 56.8039C267.228 56.7721 267.299 56.74 267.368 56.7077C272.36 54.3625 276.707 52.7309 282.304 54.3814C282.327 54.3875 396.416 88.0192 396.416 88.0192C399.552 88.9446 402.914 88.6409 405.835 87.1691C410.865 84.6302 417.863 80.9244 421.494 78.2332C427.555 73.7368 434.573 67.8622 434.573 67.8622L444.961 71.7391L429.325 97.7222L436.954 99.9719C438.912 100.55 438.734 103.387 436.717 103.714L419.889 106.437C405.829 108.712 391.456 107.955 377.712 104.211C375.743 103.674 373.663 103.106 371.51 102.517C376.149 109.005 381.125 116.099 381.191 116.787C381.316 118.077 360.89 111.572 359.041 110.593C358.298 110.199 353.408 105.184 347.828 99.3302C345.47 99.3647 343.362 98.8966 342.021 97.5431C340.435 95.9421 339.638 94.653 339.394 93.6553C318.511 87.8267 297.336 81.7684 285.642 77.9972C278.992 75.8506 260.825 68.3333 259.66 62.097C259.028 58.6997 264.793 57.7989 267.152 56.8039ZM396.248 93.9113C396.937 94.1149 397.659 93.7227 397.862 93.0323C398.065 92.3418 397.674 91.6182 396.986 91.4146C396.297 91.2111 395.575 91.6032 395.372 92.2937C395.169 92.9818 395.562 93.7079 396.248 93.9113ZM390.828 92.3027C391.517 92.5063 392.239 92.1141 392.442 91.4237C392.645 90.7333 392.254 90.0096 391.566 89.806C390.877 89.6025 390.155 89.9947 389.952 90.6851C389.749 91.3755 390.142 92.097 390.828 92.3027ZM385.408 90.6942C386.096 90.8977 386.818 90.5056 387.022 89.8151C387.225 89.1247 386.834 88.401 386.145 88.1975C385.457 87.9939 384.735 88.3861 384.532 89.0765C384.329 89.7647 384.719 90.4883 385.408 90.6942ZM379.988 89.0856C380.676 89.2892 381.398 88.897 381.602 88.2066C381.805 87.5161 381.414 86.7925 380.725 86.5889C380.037 86.3854 379.315 86.7775 379.112 87.468C378.908 88.1584 379.299 88.8798 379.988 89.0856ZM359.736 83.0735C360.425 83.2771 361.147 82.8849 361.35 82.1945C361.553 81.504 361.162 80.7804 360.474 80.5768C359.785 80.3733 359.063 80.7654 358.86 81.4558C358.654 82.1461 359.047 82.87 359.736 83.0735ZM354.316 81.4649C355.004 81.6685 355.726 81.2763 355.93 80.5859C356.133 79.8955 355.742 79.1718 355.053 78.9682C354.365 78.7647 353.643 79.1568 353.44 79.8473C353.236 80.5377 353.627 81.2614 354.316 81.4649ZM348.896 79.8564C349.584 80.0599 350.306 79.6678 350.51 78.9773C350.713 78.2869 350.322 77.5632 349.633 77.3597C348.945 77.1561 348.223 77.5483 348.019 78.2387C347.814 78.929 348.207 79.6528 348.896 79.8564ZM343.473 78.2476C344.162 78.4512 344.884 78.059 345.087 77.3686C345.29 76.6782 344.899 75.9545 344.211 75.751C343.522 75.5474 342.8 75.9396 342.597 76.63C342.394 77.3204 342.787 78.0443 343.473 78.2476ZM323.221 72.2378C323.91 72.4414 324.632 72.0492 324.835 71.3588C325.038 70.6684 324.648 69.9447 323.959 69.7411C323.27 69.5376 322.548 69.9298 322.345 70.6202C322.142 71.3083 322.533 72.0343 323.221 72.2378ZM317.801 70.6293C318.49 70.8328 319.212 70.4407 319.415 69.7502C319.618 69.0598 319.227 68.3361 318.539 68.1326C317.85 67.929 317.128 68.3212 316.925 69.0116C316.722 69.6997 317.113 70.4257 317.801 70.6293ZM312.381 69.0207C313.07 69.2243 313.792 68.8321 313.995 68.1417C314.198 67.4512 313.807 66.7276 313.119 66.524C312.43 66.3205 311.708 66.7126 311.505 67.4031C311.302 68.0912 311.693 68.8149 312.381 69.0207ZM306.961 67.4121C307.649 67.6157 308.371 67.2235 308.575 66.5331C308.778 65.8427 308.387 65.119 307.698 64.9154C307.01 64.7119 306.288 65.1041 306.085 65.7945C305.882 66.4826 306.272 67.2063 306.961 67.4121ZM301.541 65.8036C302.229 66.0071 302.951 65.615 303.154 64.9245C303.358 64.2341 302.967 63.5104 302.278 63.3069C301.59 63.1033 300.868 63.4955 300.664 64.1859C300.461 64.8741 300.852 65.5977 301.541 65.8036ZM296.12 64.195C296.809 64.3986 297.531 64.0064 297.734 63.316C297.938 62.6255 297.547 61.9019 296.858 61.6983C296.17 61.4948 295.448 61.8869 295.244 62.5774C295.039 63.2653 295.432 63.9892 296.12 64.195ZM290.7 62.5864C291.389 62.79 292.111 62.3978 292.314 61.7074C292.517 61.017 292.126 60.2933 291.438 60.0897C290.749 59.8862 290.027 60.2784 289.824 60.9688C289.619 61.6568 290.012 62.3806 290.7 62.5864ZM275.108 59.8307C276.634 60.2825 278.236 59.4119 278.687 57.8817C278.923 57.0803 278.469 56.2392 277.67 56.0005C276.144 55.5487 274.542 56.4216 274.091 57.9496C273.852 58.753 274.309 59.5943 275.108 59.8307Z" fill="#17919F"/>
<path d="M533.813 172.57L372.801 114.265L373.714 113.262L534.726 171.566" fill="#17919F"/>
<path d="M586.704 176.147L396.546 103.66L397.247 103.31L587.404 175.797" fill="#17919F"/>
<path fill-rule="evenodd" clip-rule="evenodd" d="M637.824 139.23C639.988 114.106 663.208 93.0646 694.999 85.0645V380.077H0V87.8094C43.1412 93.403 75.8635 120.449 75.8635 152.971C75.8635 155.301 75.6927 157.601 75.3639 159.869C80.0089 159.405 84.7457 159.148 89.5666 159.148C133.37 159.148 170.714 178.931 185.172 206.703C203.283 195.612 226.776 188.902 252.468 188.902C259.762 188.902 266.878 189.448 273.746 190.474C279.699 175.855 295.531 163.621 317.407 158.921C335.197 155.098 353.473 157.018 368.395 163.166C374.603 156.541 383.931 151.358 395.434 148.886C407.133 146.373 419.108 147.095 429.504 150.318C441.382 125.978 473.696 108.513 511.72 108.513C548.906 108.513 580.628 125.217 593.12 148.715C604.07 142.673 617.778 139.071 632.669 139.071C634.408 139.071 636.121 139.133 637.824 139.23Z" fill="#1F99A7"/>
</svg>
