<svg width="384" height="293" viewBox="0 0 384 293" fill="none" xmlns="http://www.w3.org/2000/svg">
<path d="M384 0H0V293H384V0Z" fill="white"/>
<path fill-rule="evenodd" clip-rule="evenodd" d="M142.758 116.767C140.258 97.5149 137.902 81.2894 128.221 70.0925C115.125 54.9473 88.6259 49.0025 63.5132 50.1348C39.7018 51.2085 16.9985 58.7721 0 72.4637V146.26V229.799V237V251.369V293H384V242.974V237V200.062C383.181 198.623 382.348 197.184 381.516 195.746L381.516 195.745C379.225 191.786 376.946 187.846 374.999 184.006C372.38 178.702 370.422 173.585 368.556 168.706C362.548 153.002 357.486 139.768 334.377 130.725C304.09 118.872 242.801 114.219 184.72 115.106C170.501 115.322 156.453 115.878 142.758 116.767Z" fill="#DAF0F2"/>
<path d="M331.306 59.3789H142.381V183.095H331.306V59.3789Z" fill="white"/>
<path d="M331.298 183.471H142.381C142.172 183.471 142 183.299 142 183.09V59.381C142.007 59.1718 142.172 59.0075 142.381 59H331.306C331.515 59.0075 331.679 59.1718 331.687 59.381V183.097C331.679 183.306 331.515 183.471 331.298 183.471ZM142.755 182.716H330.925V59.7545H142.755V182.716Z" fill="#464646"/>
<path d="M324.671 176.232H149.006C148.797 176.232 148.625 176.06 148.625 175.851V66.6193C148.632 66.4101 148.797 66.2458 149.006 66.2383H324.679C324.888 66.2458 325.052 66.4101 325.06 66.6193V175.851C325.052 176.06 324.88 176.232 324.671 176.232ZM149.387 175.47H324.298V67.0003H149.387V175.47Z" fill="#D1D3D4"/>
<path d="M284.541 136.511L285.228 136.742L288.209 133.934L289.098 134.823C288.224 135.644 288.187 136.212 288.993 137.041C288.358 137.303 287.843 138.431 287.865 139.633L285.042 139.088C284.937 138.304 284.167 137.579 284.541 136.511Z" fill="#D1D3D4"/>
<path d="M282.941 140.643L282.112 140.575C281.477 139.664 280.76 138.633 280.043 137.617C279.326 136.601 278.661 135.69 277.906 134.629C279.423 134.801 279.998 136.011 280.939 136.691C281.574 137.206 282.09 137.849 282.456 138.581C282.568 138.767 282.911 138.82 283.113 138.932L282.896 140.665L282.941 140.643Z" fill="#D1D3D4"/>
<path d="M260.691 91.5437C259.481 91.5886 258.48 91.484 257.703 90.7295C258.331 90.214 258.913 89.6612 259.459 89.0636C260.086 88.4435 260.9 88.0476 261.782 87.943C262.656 87.7189 263.582 87.704 264.471 87.5546C264.882 87.4649 265.286 87.3454 265.681 87.2109L265.808 87.4948C265.614 87.6442 265.398 87.7637 265.166 87.8534C264.314 87.958 263.478 88.1223 262.648 88.3539C261.558 88.7274 260.579 89.3923 259.825 90.2663C259.72 90.4008 259.825 90.7967 259.944 91.0208C260.079 91.2524 260.348 91.3122 260.691 91.5437Z" fill="#D1D3D4"/>
<path d="M296.442 114.992L294.656 115.44C295.179 114.558 295.471 114.424 296.815 114.424C296.92 114.237 297.047 114.028 297.151 113.819C297.211 113.692 297.263 113.557 297.308 113.423C297.607 113.423 297.936 113.423 297.981 113.363C298.249 112.818 298.451 112.243 298.66 111.675C298.795 111.316 298.66 110.763 299.348 110.786C299.736 111.361 299.736 112.108 299.348 112.683C299.131 113.117 299.049 113.61 299.124 114.088C299.206 114.842 298.511 114.842 298.182 114.954C297.585 115.111 297.084 115.283 296.882 115.978H296.666L296.442 114.992Z" fill="#D1D3D4"/>
<path d="M300.672 105.506H300.066L300.261 107.337H299.656C300.052 105.663 299.125 103.848 300.081 101.98C300.291 103.243 300.485 104.378 300.672 105.506Z" fill="#D1D3D4"/>
<path d="M299.243 109.928L298.906 110.683C298.608 109.764 298.75 109.472 299.37 109.45L299.579 107.934C300.117 108.27 300.273 109.174 301.095 108.882L301.237 109.532L300.049 110.212L299.243 109.928Z" fill="#D1D3D4"/>
<path d="M298.914 88.7743C298.533 88.7594 298.144 88.7221 297.771 88.6548C297.621 88.5876 297.517 88.4382 297.494 88.2738C297.494 88.1244 297.718 88.0049 297.868 87.9003C297.95 87.8406 298.047 87.8181 298.152 87.8406C298.988 88.1618 299.825 87.8406 300.669 87.9078C300.826 87.9078 300.975 88.1095 301.125 88.2215C300.99 88.3485 300.863 88.5726 300.714 88.5951C300.124 88.6847 299.534 88.7221 298.914 88.7743Z" fill="#D1D3D4"/>
<path d="M194.713 126.405C195.154 125.598 196.147 125.269 196.984 125.65C197.873 126.091 198.724 126.592 199.703 127.122L198.351 127.271C198.052 126.92 197.873 126.562 197.596 126.412C197.066 126.121 196.491 125.934 195.893 125.852C195.535 125.83 195.139 126.188 194.713 126.405Z" fill="#D1D3D4"/>
<path d="M279.253 85.0527L276.123 85.8072C276.16 85.6055 276.123 85.3291 276.228 85.2619C277.079 84.5372 278.304 84.4476 279.253 85.0527Z" fill="#D1D3D4"/>
<path d="M196.318 99.8241C195.915 99.8241 195.564 99.9661 195.422 99.8241C195.018 99.4805 194.772 99.7644 194.413 99.8764C194.04 99.9287 193.659 99.9287 193.285 99.8764C194.04 98.6737 194.256 98.5915 195.19 99.1144L195.384 99.219L196.318 99.8241Z" fill="#D1D3D4"/>
<path d="M282.77 86.466L280.021 86.6826L279.916 86.5706C280.364 86.3016 280.798 85.8833 281.268 85.8086C281.813 85.8534 282.344 85.9879 282.837 86.2195L282.77 86.466Z" fill="#D1D3D4"/>
<path d="M271.171 132.426C271.462 132.844 271.716 133.292 271.925 133.763C271.978 133.912 271.694 134.316 271.485 134.398C271.074 134.555 270.939 134.271 270.954 133.882C270.969 133.494 270.954 132.979 270.954 132.53L271.171 132.426Z" fill="#D1D3D4"/>
<path d="M294.344 115.531C295.143 116.174 295.098 116.951 294.239 117.429L294.291 116.323L293.955 116.136L294.344 115.531Z" fill="#D1D3D4"/>
<path d="M259.485 84.663L261.352 84.043L261.442 84.1774C261.278 84.409 261.136 84.8124 260.927 84.8572C260.426 84.9095 259.911 84.9095 259.41 84.8572L259.485 84.663Z" fill="#D1D3D4"/>
<path d="M237.912 111.003L238.398 110.809C238.45 110.943 238.57 111.107 238.525 111.19C238.36 111.548 238.741 112.22 237.912 112.265V111.003Z" fill="#D1D3D4"/>
<path d="M240.947 113.752L239.736 112.997L239.774 112.848H241.103L240.947 113.752Z" fill="#D1D3D4"/>
<path d="M290.508 124.371L289.918 126.157C289.418 125.365 289.545 124.887 290.508 124.371Z" fill="#D1D3D4"/>
<path d="M302.805 140.428C303.111 140.48 303.417 140.48 303.724 140.428C303.97 140.331 304.142 140.025 304.478 139.883C304.373 140.114 304.239 140.339 304.075 140.533C303.776 140.861 303.268 140.891 302.939 140.592C302.894 140.548 302.842 140.488 302.805 140.428Z" fill="#D1D3D4"/>
<path d="M189.07 90.3292L190.266 89.9258L190.378 90.6803C190.124 90.6952 189.87 90.6952 189.623 90.6803C189.436 90.6429 189.25 90.5832 189.078 90.5085L189.07 90.3292Z" fill="#D1D3D4"/>
<path d="M292.821 141.997L290.953 143.267C291.132 142.408 291.962 141.847 292.821 141.997Z" fill="#D1D3D4"/>
<path d="M188.487 96.0352L189.503 96.6403V96.7897L187.867 96.6552L188.487 96.0352Z" fill="#D1D3D4"/>
<path d="M188.951 88.9492L190.468 89.0837C189.93 89.7485 189.444 89.3302 188.951 89.136V88.9492Z" fill="#D1D3D4"/>
<path d="M238.793 100.033C239.002 100.496 238.912 101.042 238.561 101.408C238.494 101.483 238.561 101.819 238.681 101.908C238.882 102.11 239.151 102.237 239.435 102.259C239.846 102.259 240.287 101.871 240.526 102.491C241.28 102.431 241.908 101.632 242.797 102.065C243.006 102.162 243.432 101.826 243.783 101.669C243.76 101.415 243.76 101.161 243.783 100.915C243.977 99.839 244.171 99.7718 245.015 100.459C245.352 100.16 245.479 99.8988 245.068 99.5178C244.657 99.1368 244.821 98.9277 245.262 98.8306C245.591 98.7708 245.919 98.7334 246.255 98.7185L247.51 98.599V98.3076C247.286 98.218 247.055 98.1732 246.816 98.1657C246.345 98.3151 245.867 98.4122 245.381 98.472C244.844 98.4272 244.328 98.2553 243.865 97.9789C243.603 97.8295 243.932 96.4998 244.216 96.2757L245.867 94.9684C245.531 94.8563 245.225 94.6397 244.993 94.6995C244.59 94.8339 244.216 95.0431 243.895 95.3195C243.611 95.5361 243.447 95.9022 243.185 96.1487C242.916 96.3877 242.513 96.5521 242.251 96.8285C241.773 97.344 241.833 97.71 242.393 98.1209C242.67 98.2553 242.789 98.5915 242.655 98.8679C242.588 99.0024 242.468 99.107 242.326 99.1592C241.945 99.346 241.699 99.7195 241.684 100.138C241.639 100.549 241.639 101.139 240.929 100.989C240.025 102.155 240.055 100.989 239.823 100.541C239.786 100.452 239.734 100.362 239.689 100.272C239.442 99.8615 239.263 99.2788 238.89 99.1144C238.651 99.0024 238.135 99.4879 237.732 99.6896C237.261 99.854 236.746 99.6224 236.559 99.1667C236.387 98.7633 236.268 98.3375 236.2 97.9117C236.178 97.6129 236.283 97.3141 236.484 97.09C237.015 96.5969 237.65 96.2383 238.344 96.0292C238.845 95.8947 239.263 95.3419 239.659 94.9086C240.219 94.2886 240.72 93.6013 241.176 93.0261L240.137 93.2726C240.369 93.0485 240.623 92.8468 240.892 92.675C241.191 92.5704 241.497 92.5032 241.811 92.4733C242.102 92.294 242.617 91.7188 242.991 91.7935C243.663 91.928 244.164 91.42 244.829 91.5694C245.127 91.6366 245.516 91.278 246.009 91.0465L245.747 91.6067C246.016 91.4573 246.308 91.3677 246.614 91.3229C247.115 91.3901 247.608 91.4947 248.093 91.6366L247.921 91.9055C248.99 92.1521 250.043 92.3538 251.074 92.6601C251.664 92.8617 252.232 93.1157 252.77 93.4146C253.225 93.6387 253.248 93.9748 252.77 94.1691C251.888 94.4978 250.917 94.4978 250.035 94.1691C249.759 94.0719 249.46 94.0346 249.161 94.0645L249.991 94.5052C249.991 95.4913 250.596 96.0217 251.567 95.7079L250.939 95.2747L250.999 95.1253L252.687 95.4017L252.374 94.7742C252.71 94.6098 253.046 94.4679 253.397 94.3409C253.763 94.2662 254.129 94.2064 254.503 94.1765C254.391 94.0122 254.301 93.8329 254.241 93.6387C254.234 93.3398 254.249 93.0336 254.301 92.7348L255.571 93.0112V93.2577L254.943 93.4668C255.422 94.2213 255.608 94.1392 256.228 93.6461C256.781 93.295 257.379 93.0112 258.006 92.8095C258.238 92.7422 258.469 92.6899 258.701 92.6601C259.209 93.4743 259.934 92.66 260.606 92.7273C260.905 92.7273 261.226 92.3015 261.48 92.8393C261.741 92.7796 261.995 92.6974 262.235 92.6003L260.882 91.6291C261.801 91.7487 262.705 91.9205 263.602 92.1371C264.356 92.3612 265.021 92.8916 265.873 92.8319C265.297 92.5181 264.946 91.913 264.954 91.2556C265.215 90.8672 265.529 90.5086 265.888 90.2023C266.231 90.0305 266.62 89.9483 267.001 89.9707C267.292 90.0006 267.583 90.0678 267.86 90.165L267.434 90.7775L267.763 92.8991L268.069 92.9962L266.724 94.2139C267.538 94.4156 268.36 93.9225 268.562 93.1083C268.592 92.9738 268.607 92.8393 268.607 92.6974C269.04 92.6974 269.593 92.4808 269.63 93.2502C270.131 92.8169 270.026 92.4285 269.406 92.3986C269.01 92.3986 268.652 92.3986 268.188 92.3986L268.039 90.7626L268.906 90.1948V90.9493L269.66 91.0539L269.085 90.5609L269.989 90.6879L270.063 90.5385L269.615 90.2247L269.667 90.0678C270.243 90.2397 270.818 90.4264 271.393 90.5908C271.617 90.6431 271.841 90.6879 272.065 90.7103C272.095 90.6505 272.11 90.5833 272.11 90.5235C271.916 90.4264 271.707 90.3517 271.401 90.2172L271.191 89.5599L274.15 89.3133L273.709 88.8427C275.069 88.1853 276.578 87.9089 278.079 88.0359C278.609 88.021 279.132 87.9388 279.64 87.8043C279.693 87.8043 279.73 87.7371 279.775 87.7371C280.245 87.6848 280.694 87.5055 281.067 87.2067C281.613 86.8108 282.285 86.3401 282.897 87.2515C283.01 87.4159 283.383 87.4084 283.607 87.4756C284.399 87.4159 285.198 87.4159 285.998 87.4756C286.289 87.5205 286.506 88.0284 286.752 88.3497L283.428 89.53V89.6644C283.645 89.6644 283.876 89.6644 284.093 89.6644C284.309 89.6644 284.646 89.7317 284.802 89.6121C285.557 89.0668 286.319 89.3955 287.081 89.4777C287.387 89.4777 287.723 89.3059 288.015 89.3582C288.373 89.4478 288.709 89.6047 289.008 89.8288C289.666 90.2172 290.51 90.0529 290.98 89.4478C291.137 89.3357 291.331 89.2909 291.526 89.3208C292.28 89.4105 292.99 89.5449 293.759 89.6719C293.67 90.531 293.707 91.2556 294.828 91.2706L295.126 90.7775H298.675L298.309 90.1724C299.153 89.9931 300.027 89.9408 300.886 90.038C301.738 90.2695 302.671 90.0828 303.501 90.7178C304.053 91.1436 305.017 91.0838 305.831 91.1062C306.646 91.1286 307.445 90.9718 308.013 91.8159C308.14 91.9952 308.625 91.9728 308.954 91.9952C309.462 92.0251 309.963 92.0251 310.471 91.9952C310.837 91.9952 311.225 91.8533 311.561 91.8084C311.785 91.7935 312.009 91.7935 312.234 91.8084L312.375 92.04L311.927 92.167L311.972 92.3164L313.182 92.6825L312.951 91.7412C314.228 91.7786 315.498 91.9578 316.738 92.2716C317.851 92.6825 319.226 92.8468 319.928 94.0645C320.309 93.5341 320.682 93.5864 322.035 94.4455C321.586 94.8264 320.854 94.8489 320.705 95.5361C320.219 95.3942 319.734 95.2523 319.256 95.0954C319.009 95.0207 318.77 94.9161 318.501 94.819C318.314 94.7592 318.128 94.6845 317.948 94.6023C317.836 94.5127 317.739 94.3932 317.657 94.2662C317.612 94.4081 317.575 94.5575 317.537 94.7069C317.5 94.8563 317.537 94.8414 317.485 94.9385L316.163 95.3942C316.634 95.7005 316.902 96.2458 316.843 96.8136C315.042 96.4849 313.855 97.4934 312.54 98.33C312.166 97.8743 311.494 97.7996 311.038 98.1732C311.031 98.1732 311.031 98.1806 311.023 98.1806C310.829 98.2703 310.62 98.3002 310.411 98.2628C309.447 98.1881 309.305 99.0995 308.678 99.6075L309.268 99.727L309.402 100.833C308.745 100.885 308.528 101.191 308.924 101.774C308.581 102.132 307.639 101.856 307.975 102.812C306.877 102.655 307.221 104.022 306.377 104.254C306.108 102.738 305.256 101.221 306.422 99.9063C307.819 98.9501 309.163 98.1507 310.007 96.7613L309.888 96.5894C309.738 96.6343 309.455 96.694 309.455 96.7314C309.492 97.2394 309.088 97.3141 308.767 97.4336C308.446 97.5531 307.96 98.345 307.766 97.2692C307.318 97.2244 306.862 97.2618 306.422 97.3813C306.078 97.5606 305.787 97.8221 305.57 98.1358C305.458 98.2777 305.488 98.5392 305.435 98.8455L303.747 99.0771L304.083 98.5616C303.299 98.7036 302.507 98.7484 301.708 98.6961C300.049 98.345 299.108 99.4506 298.047 100.302C297.532 100.735 297.016 101.184 296.576 101.557C296.785 101.819 297.016 102.058 297.27 102.267C297.465 102.342 297.674 102.342 297.868 102.267C298.107 102.207 298.421 101.916 298.548 101.991C298.824 102.14 299.22 102.521 299.175 102.745C298.906 103.903 299.101 105.173 298.369 106.226C297.644 107.28 297.061 108.131 296.411 109.072C296.045 109.565 295.365 109.685 294.857 109.349C294.536 109.834 293.879 110.006 293.827 110.806C293.827 111.142 293.162 111.426 293.072 111.747C293.356 112.419 293.595 113.114 293.789 113.816C294.028 114.922 292.967 114.862 292.273 115.295C292.325 114.586 292.392 113.943 292.407 113.301C292.407 113.136 292.22 112.815 292.146 112.823C291.264 112.92 291.698 112.404 291.772 112.068C291.802 111.963 291.847 111.874 291.899 111.777C291.429 111.403 290.749 111.478 290.375 111.941C290.33 111.993 290.293 112.053 290.263 112.113L290.047 111.963L290.368 110.865C289.695 110.723 289.494 111.396 289.075 111.68C288.963 111.754 288.904 111.896 288.784 111.971C288.642 112.031 288.5 112.075 288.351 112.105C288.448 112.27 288.553 112.442 288.665 112.598C288.769 112.755 288.934 112.972 288.971 113.024H290.801L289.15 114.451L290.293 117.26L289.755 117.76L290.637 117.985C290.278 118.687 289.927 119.396 289.561 120.091C289.337 120.644 289.046 121.174 288.694 121.66C288.254 122.175 287.94 122.848 287.066 122.937C286.498 123.049 285.953 123.274 285.467 123.595C285.213 123.796 284.997 124.028 284.81 124.289L284.713 123.625C283.898 123.528 283.137 124.05 282.927 124.842C282.703 125.963 283.577 126.628 284.197 127.3L285.206 127.054L285.325 127.218C285.131 127.464 284.914 127.711 284.735 127.972C284.616 128.099 284.548 128.264 284.526 128.436C284.593 129.451 284.66 130.415 283.435 130.923C283.092 131.058 282.935 131.678 282.531 131.999V131.244L280.47 128.817C280.372 128.921 280.298 129.041 280.238 129.175C280.223 129.466 280.178 129.75 280.104 130.034C279.611 131.058 280.283 131.924 280.477 132.843C280.552 133.224 281.149 133.463 281.381 133.844C281.59 134.262 281.74 134.703 281.822 135.166C281.979 135.719 282.053 136.294 282.038 136.87C281.59 136.556 281.194 136.182 280.866 135.756C280.656 135.241 280.507 134.703 280.432 134.158C280.387 133.822 280.26 133.5 280.074 133.217C279.491 132.499 279.304 131.536 279.573 130.654C279.812 129.205 279.14 127.928 278.946 126.478C278.46 126.889 278.326 127.614 277.519 127.18C278.027 126.038 277.377 125.171 276.764 124.267C276.578 123.901 276.443 123.505 276.368 123.102C275.816 123.221 275.27 123.311 274.74 123.453C274.553 123.505 274.254 123.632 274.232 123.774C274.038 124.835 273.007 125.291 272.491 126.045C272.148 126.568 271.58 126.941 271.221 127.457C271.079 127.786 271.035 128.152 271.094 128.51C271.191 129.967 270.721 131.409 269.772 132.522C269.115 131.043 268.607 129.504 268.256 127.928C267.86 126.411 267.643 124.783 267.389 123.378L266.829 124.065L265.731 123.117L266.209 122.922L264.55 121.025C263.639 121.025 262.623 121.077 261.614 121.025C260.606 120.973 260.554 120.853 260.203 119.987C259.299 120.457 258.178 120.106 257.707 119.202C257.663 119.12 257.625 119.03 257.595 118.933C257.543 118.799 257.483 118.664 257.424 118.53C256.953 117.618 256.811 117.604 256.139 118.358L257.394 121.032L257.678 120.36C257.76 120.734 257.805 120.898 257.834 121.062C257.864 121.227 257.924 121.578 257.961 121.817C258.38 121.742 258.888 122.123 259.194 121.496C259.433 121.115 259.71 120.756 260.023 120.427C260.023 120.749 260.053 121.077 260.128 121.391C260.203 121.638 260.367 121.847 260.591 121.981C261.682 122.519 261.846 123.318 261.032 124.215C260.905 124.387 260.785 124.566 260.688 124.76C260.576 124.939 260.486 125.141 260.359 125.305C259.896 125.881 259.306 126.359 258.649 126.695C257.947 127.113 257.349 127.733 256.662 128.211C256.004 128.615 255.324 128.973 254.622 129.295C254.234 129.489 254.054 129.332 253.98 128.914C253.778 127.726 253.793 126.471 253.061 125.417C252.807 125.066 252.568 124.7 252.359 124.319C252.224 123.968 252.105 123.61 252.008 123.251C251.828 122.766 251.627 122.287 251.425 121.809C251.223 121.331 250.895 120.644 250.603 120.061C250.439 119.725 250.23 119.404 250.088 119.142L249.027 119.464L248.952 119.254L249.498 118.836L248.392 117.671C248.526 117.596 248.795 117.29 249.064 117.29C249.774 117.29 249.991 116.842 250.118 116.281C250.319 115.4 250.521 114.533 250.76 113.42L249.557 113.973C249.557 113.973 249.513 113.973 249.49 113.973C249.012 113.861 248.317 113.487 248.108 113.667C247.443 114.257 247.115 113.584 246.734 113.405C246.353 113.233 246.255 112.77 246.039 112.449L246.143 111.089C245.658 110.806 245.68 110.82 245.12 111.321C245.008 111.418 244.709 111.321 244.365 111.321C244.575 111.62 244.769 111.934 244.941 112.255C245.038 112.464 245.068 112.703 245.008 112.927C244.844 113.278 244.649 113.622 244.433 113.943C243.932 112.808 242.916 111.934 242.916 110.492C242.916 110.178 242.468 109.782 242.162 109.573C241.616 109.244 241.011 109.035 240.825 108.325C240.825 108.251 240.556 108.258 240.473 108.176C240.376 108.034 240.294 107.885 240.234 107.72C239.532 107.907 239.428 108.243 239.943 108.871C240.152 109.132 240.287 109.446 240.488 109.715C240.69 109.984 240.787 110.096 240.966 110.141C241.646 110.29 241.96 110.903 242.483 111.246C242.52 111.246 242.483 111.373 242.535 111.523L241.654 111.142L241.9 112.038L241.362 112.793C241.699 111.545 240.78 111.134 240.003 110.574C239.569 110.193 239.174 109.767 238.83 109.304C238.613 109.043 238.412 108.774 238.21 108.549C237.919 108.714 237.642 108.908 237.373 109.117C237.097 109.431 236.641 109.513 236.275 109.311C235.857 109.14 235.394 109.102 235.438 109.864C235.438 110.103 235.102 110.38 234.901 110.619C234.587 110.977 234.228 111.276 233.952 111.657C233.847 111.807 233.952 112.098 233.952 112.501C233.593 113.525 232.435 113.689 231.262 113.973L230.799 113.36L230.045 113.45C229.283 112.15 230.359 110.783 229.701 109.453C230.844 108.766 232.032 109.311 233.22 109.222C233.302 108.564 233.765 107.87 233.22 107.227C232.749 106.779 232.308 106.293 231.897 105.778L233.309 105.838L233.227 105.173C233.802 105.449 234.497 105.21 234.781 104.635C234.796 104.613 234.803 104.583 234.818 104.56C234.901 104.411 235.095 104.336 235.229 104.202L236.462 102.977L238.053 102.342C238.06 102.11 238.046 101.886 238.008 101.662C237.724 100.623 237.717 100.623 238.793 100.033Z" fill="#DAF0F2"/>
<path d="M176.795 109.054H177.625C177.341 108.434 176.818 107.956 176.168 107.725C175.212 107.232 174.48 106.388 174.136 105.364C174.031 105.118 173.635 104.976 173.381 104.811L173.202 105.327C172.911 104.677 172.089 104.4 172.717 103.609C172.717 103.564 172.306 102.951 172.156 102.981C171.529 103.026 170.909 102.832 170.423 102.436C170.087 102.279 169.736 102.159 169.37 102.092C168.488 101.913 167.607 101.763 166.673 101.599L166.755 102.01L164.873 102.496L165.007 101.502L163.909 102.436C164.126 102.862 162.34 104.378 161.212 104.714L161.601 105.073V105.297C160.734 104.542 160.024 105.297 159.18 105.297L160.368 104.654C160.816 104.468 161.242 104.244 161.653 103.982C162.012 103.638 162.34 103.265 162.639 102.862H160.473L160.316 101.98C159.143 102.824 159.218 101.42 158.62 101.218C158.934 100.03 160.024 100.202 160.898 99.9108L160.764 99.2683C159.494 99.3804 159.203 99.7763 157.828 98.7155C158.127 98.6184 158.396 98.5512 158.657 98.4317C158.919 98.3196 159.173 98.1926 159.419 98.0507C159.882 98.6259 160.256 98.6408 160.936 98.1851L158.157 97.0945C158.568 96.9376 158.814 96.8554 159.061 96.7359C159.3 96.6238 159.666 96.3923 159.995 96.2653C160.607 96.0187 161.235 95.7722 161.87 95.5705C162.893 95.3315 163.969 95.3763 164.97 95.69C165.792 95.8395 166.628 95.9366 167.465 95.9889C168.757 96.0561 170.027 96.3026 171.26 96.706C171.544 96.7807 171.828 96.8181 172.119 96.8255C172.119 95.8395 172.873 96.6313 173.21 96.3549C173.643 96.1159 174.143 96.0038 174.636 96.0486L173.12 96.6687L173.217 96.8778L175.428 95.7274L176.19 96.4296L176.743 95.9814L177.042 96.4744C177.4 95.8693 177.901 96.071 178.424 96.198C179.134 96.3698 179.873 96.467 180.59 96.6014C180.814 96.6463 181.038 96.721 181.345 96.8106L180.882 97.1692L180.919 97.3485C181.487 97.2663 182.062 97.2289 182.63 97.2439C183.145 97.3261 183.653 97.453 184.146 97.6323L184.056 97.0945C184.609 97.0945 185.11 97.0945 185.573 97.0945C186.499 97.1542 187.418 97.5576 188.344 96.9749C188.524 96.8629 189.017 97.2364 189.443 97.4157L190.287 96.7508L189.069 95.8096C188.965 95.3165 189.204 94.9131 189.824 94.8534C190.347 94.8085 191.004 95.6079 190.937 96.1457L191.736 96.2877L191.646 97.0945L192.334 96.2802L193.088 97.849L194.291 96.1383L195.568 96.3698V97.6025L195.733 97.7892L194.522 98.0581L194.926 98.6857L193.544 97.9386C193.693 98.6035 193.372 98.7529 192.946 98.6931C192.55 98.5885 192.139 98.5362 191.729 98.5288L193.365 99.0143C192.864 99.2459 192.505 99.4103 192.154 99.5896C191.975 99.6568 191.818 99.7614 191.676 99.8958C191.064 100.658 189.794 100.964 189.861 102.256C189.861 102.443 190.025 102.75 190.175 102.787C190.78 102.921 190.832 103.34 190.795 103.885C191.594 103.444 192.177 103.885 192.842 104.259C193.633 104.617 194.448 104.931 195.277 105.185C195.337 105.693 195.24 106.5 195.987 106.97C196.136 107.06 196.397 107.247 196.435 107.202C196.622 107.023 196.905 106.769 196.898 106.552C196.838 106.119 196.734 105.693 196.577 105.282C197.003 104.908 197.682 104.61 197.78 104.161C197.877 103.713 197.376 103.175 197.107 102.6C197.794 102.107 197.107 101.36 197.189 100.598C198.541 100.225 199.699 100.912 200.887 101.532C200.663 102.017 200.872 102.593 201.358 102.824C201.447 102.869 201.545 102.891 201.649 102.906C202.546 103.131 202.643 102.212 203.016 101.689C203.397 102.227 203.771 102.705 204.107 103.205C204.286 103.526 204.211 104.049 204.451 104.266C204.944 104.647 205.474 104.976 206.027 105.245L205.601 105.521C205.93 105.551 206.251 105.633 206.557 105.753C206.774 105.909 206.908 106.156 206.946 106.417C206.916 106.642 206.781 106.843 206.572 106.94C205.481 107.471 204.465 108.158 203.098 107.852C202.217 107.65 201.634 108.442 201.029 109.017C201.388 108.845 201.746 108.696 202.12 108.561C202.396 108.487 202.688 108.464 202.979 108.502C203.046 108.502 203.173 108.883 203.128 108.927C202.583 109.45 202.762 109.869 203.278 110.242C203.965 110.735 204.211 110.683 204.675 109.996C204.734 109.906 204.839 109.846 204.951 109.839L204.779 110.437L205.1 110.257L205.212 110.451L202.658 111.819L202.478 111.774L203.001 110.646C202.172 111.012 201.365 111.43 200.588 111.893C200.402 112.02 200.491 112.58 200.454 112.939L200.656 113.036C200.409 113.111 200.155 113.171 199.901 113.193C199.289 113.193 198.922 113.365 198.855 114.097C198.855 114.515 198.437 114.896 198.175 115.352L197.892 114.284C197.847 114.702 197.847 115.12 197.892 115.539C198.175 116.831 198.108 117.018 196.995 117.66C196.33 118.041 195.561 119.177 195.673 119.692C195.845 120.38 196.084 121.059 196.211 121.754C196.241 122.128 196.218 122.501 196.151 122.867L195.785 122.912L194.642 119.969L194.022 120.245C193.484 119.304 192.67 119.894 191.96 119.864L192.274 120.544C191.624 120.417 191.116 120.335 190.615 120.193C190.227 120.096 189.936 120.088 189.697 120.492C189.585 120.686 189.316 120.798 189.136 120.962C188.957 121.127 188.711 121.283 188.711 121.448C188.673 122.68 188.651 123.92 188.711 125.153C188.74 125.571 188.897 125.967 189.159 126.296C189.398 126.602 189.853 126.991 190.152 126.946C190.705 126.849 191.489 126.998 191.669 126.064C191.848 125.131 192.169 124.959 193.275 125.108L192.513 128.462C192.879 128.462 193.275 128.462 193.596 128.41C194.53 128.291 194.918 128.724 194.784 129.635C194.62 130.778 194.433 131.966 195.748 132.668C196.816 132.145 196.808 132.153 197.675 133.049C197.907 133.236 198.16 133.4 198.437 133.535C198.698 132.056 199.953 131.675 201.022 131.01C200.932 131.615 200.558 132.183 200.932 132.765L201.477 131.249C202.06 131.525 202.546 131.764 203.046 132.003C203.576 132.183 204.152 132.183 204.675 132.003C205.19 131.899 205.474 132.467 205.855 132.758C205.989 132.877 206.109 133.004 206.214 133.146C206.438 133.423 206.692 133.677 206.968 133.901C207.297 134.177 207.685 134.364 208.104 134.446C209.5 134.521 210.158 134.902 210.501 136.239C210.785 137.337 211.712 138.151 212.84 138.286C213.325 138.391 213.557 138.547 213.46 139.003C214.573 139.003 215.738 138.786 216.493 139.855C216.56 139.959 216.657 140.041 216.784 140.071C217.471 140.101 218.009 140.691 217.972 141.379C217.972 141.409 217.964 141.438 217.964 141.476C217.815 142.103 217.516 142.693 217.09 143.179C216.777 143.665 216.373 144.083 216.022 144.546C215.985 144.636 215.962 144.733 215.962 144.83C215.917 145.726 215.813 146.615 215.656 147.497C215.454 148.124 215.17 148.729 214.819 149.297C214.715 149.424 214.565 149.521 214.401 149.559C213.714 149.828 212.997 150.029 212.332 150.321C211.794 150.582 211.458 151.142 211.48 151.74C211.331 152.382 211.069 153.003 210.726 153.57C210.628 153.787 210.509 154.004 210.352 154.325L210.225 153.623C209.471 155.057 208.918 156.656 206.893 155.281C207.155 155.744 207.349 156.035 207.498 156.357C207.745 156.775 207.61 157.313 207.192 157.559C207.095 157.619 206.99 157.657 206.878 157.671C206.341 157.813 205.78 157.881 205.22 157.993C205.287 159.016 205.056 159.203 203.853 158.852C204.398 160.182 203.696 160.966 202.62 161.571C202.77 161.728 202.934 161.87 203.106 161.997C203.696 162.311 203.689 162.4 203.166 162.856C202.792 163.177 202.277 163.513 202.194 163.917C202.142 164.447 202.277 164.985 202.575 165.433C202.792 165.784 203.33 165.934 203.801 166.188C203.054 166.367 202.292 166.427 201.53 166.359C200.768 166.15 200.073 165.739 199.528 165.172C199.221 164.671 199.049 164.103 199.035 163.521C198.945 162.968 198.855 162.363 199.58 162.004L199.042 161.937L199.677 160.338H199.819L199.938 160.996H200.028L200.319 159.33C199.632 159.255 199.632 158.852 199.871 158.351C199.916 158.269 200.043 158.165 200.021 158.112C199.535 157.059 200.484 156.334 200.626 155.438C200.768 154.534 200.805 153.69 200.925 152.808C201.074 151.68 201.283 150.53 201.418 149.409C201.552 148.759 201.567 148.094 201.462 147.445C201.298 146.937 200.932 146.518 200.446 146.302C198.982 145.794 198.594 144.479 198.026 143.321C197.578 142.41 197.361 141.401 196.51 140.662C196.196 140.348 196.188 139.832 196.51 139.511C196.524 139.496 196.547 139.474 196.562 139.459C196.719 139.294 196.861 139.115 196.973 138.921C196.45 138.749 196.308 138.383 196.554 137.942C196.883 137.337 197.257 136.755 197.675 136.209C198.332 135.41 198.295 134.775 197.555 134.147C197.294 133.841 197.085 133.49 196.935 133.109C196.838 132.937 196.756 132.758 196.659 132.579H196.457L196.031 133.609C195.972 133.565 195.807 133.438 195.628 133.318C195.501 133.206 195.352 133.109 195.187 133.042C194.866 132.975 194.545 132.967 194.567 132.519C194.567 132.489 194.545 132.467 194.522 132.459C193.768 132.265 193.716 131.6 193.477 131.032C193.208 130.397 192.64 129.942 191.96 129.822C191.34 129.65 190.795 129.254 190.444 128.716C190.13 128.343 189.831 128.104 189.316 128.455C189.069 128.567 188.793 128.552 188.554 128.418C187.47 127.805 186.41 127.163 185.371 126.468C185.132 126.289 184.99 126.005 184.998 125.713C185.11 125.004 184.893 124.279 184.415 123.749C183.885 122.987 183.324 122.232 182.831 121.47C182.338 120.708 182.069 120.058 181.696 119.386C181.554 119.154 181.225 119.027 180.986 118.856L180.77 119.005C181.001 119.483 181.233 119.969 181.472 120.439L182.749 122.927C182.839 123.099 182.958 123.271 183.048 123.45C183.13 123.629 183.22 123.913 183.309 124.145L183.003 124.272C182.719 123.607 182.383 122.964 182.01 122.344C181.733 122.023 181.405 121.747 181.046 121.522C181.046 121.082 181.188 120.768 181.083 120.641C180.329 119.961 180.202 118.968 179.783 118.123C179.679 117.922 179.507 117.638 179.32 117.593C178.2 117.309 178.035 116.263 177.565 115.472C177.341 115.135 177.154 114.777 177.012 114.396C176.728 113.432 176.653 112.424 176.795 111.43C176.848 110.646 176.848 109.846 176.795 109.054Z" fill="#DAF0F2"/>
<path d="M243.109 155.712C242.601 155.473 242.318 154.928 242.422 154.375C242.385 153.755 242.116 153.165 241.668 152.739C241.048 152.029 240.711 151.103 240.734 150.162C240.637 149.265 240.308 148.414 239.778 147.681C239.023 146.404 239.539 145.298 240.069 144.223C240.301 143.73 240.525 143.379 240.166 142.893C240.084 142.773 240.047 142.624 240.054 142.475C240.144 141.376 239.763 140.301 239.016 139.494C238.246 138.739 238.03 137.582 238.463 136.595C238.53 136.229 238.455 135.856 238.269 135.542C238.067 135.34 237.79 135.243 237.514 135.266C236.984 135.311 236.603 135.34 236.401 134.676C236.199 134.011 235.497 134.242 235.012 134.347C234.526 134.496 234.04 134.668 233.57 134.862C233.338 134.922 233.107 134.959 232.868 134.967C232.247 134.967 231.627 135.027 231.015 135.146C230.634 135.325 230.193 135.258 229.879 134.982C229.282 134.541 228.714 134.07 228.184 133.562C227.72 132.972 227.295 132.352 226.906 131.71C226.817 131.575 226.645 131.501 226.54 131.366C226.436 131.239 226.264 131.06 226.249 130.903C226.159 130.141 226.226 129.364 226.436 128.625C226.637 128.072 226.622 127.459 226.383 126.921C225.92 126.167 226.383 125.756 226.63 125.255C226.988 124.546 227.384 123.851 227.825 123.171C227.937 123.022 228.094 122.91 228.273 122.857C228.983 122.641 229.469 122.327 229.461 121.423C229.461 120.848 229.782 120.325 230.298 120.064C230.731 119.727 231.119 119.331 231.441 118.891C232.248 119.526 233.099 119.204 233.988 118.838C234.548 118.614 235.131 118.457 235.729 118.375C236.565 118.271 237.41 118.241 238.254 118.211C238.582 118.226 238.904 118.271 239.225 118.345L238.709 119.862C239.098 120.616 240.047 120.22 240.741 120.519C240.816 120.519 240.988 120.519 241.003 120.519C241.16 121.386 242.041 121.169 242.519 121.543C242.997 121.916 243.184 121.617 243.221 121.139C243.229 120.676 243.61 120.31 244.073 120.325C244.215 120.325 244.349 120.37 244.476 120.437C245.216 120.736 245.978 120.99 246.747 121.199C247.136 121.266 247.532 121.244 247.905 121.117C248.413 120.982 248.779 120.923 248.989 121.565C249.28 122.439 249.631 123.291 250.019 124.12C250.326 124.792 250.953 125.405 251.02 126.077C251.133 127.175 251.865 127.952 252.171 128.923C252.29 129.207 252.462 129.469 252.686 129.678C253.082 130.081 253.545 130.432 253.889 130.836C254.076 131.067 254.053 131.463 254.218 131.732C254.345 131.897 254.546 131.994 254.756 131.994C255.712 131.785 256.661 131.523 257.729 131.239C257.706 131.717 257.609 132.195 257.445 132.651C256.69 134.168 255.981 135.639 254.576 136.775C253.516 137.634 252.851 138.971 252.021 140.121C251.947 140.219 251.917 140.487 252.021 140.54C252.529 140.958 252.201 141.511 252.298 141.989C252.388 142.467 252.671 142.826 252.739 143.266C252.888 143.901 252.918 144.559 252.836 145.209C252.746 145.635 252.283 146.008 251.924 146.337C251.379 146.852 250.781 147.3 250.229 147.808C250.146 147.883 250.169 148.122 250.229 148.264C250.288 148.526 250.408 148.772 250.49 149.019C250.729 149.571 250.475 150.214 249.922 150.453C249.892 150.468 249.855 150.475 249.825 150.49C249.586 150.602 249.362 150.752 249.265 150.804C249.265 151.275 249.332 151.686 249.183 151.932C248.339 153.269 247.524 154.689 245.866 155.167C245.209 155.286 244.536 155.361 243.864 155.376C243.602 155.466 243.348 155.578 243.109 155.712Z" fill="#DAF0F2"/>
<path d="M208.031 96.6957L207.224 96.0383L208.972 95.1493V94.3948L207.508 93.8495L207.546 93.6254L209.062 93.842L207.874 93.0053C207.165 93.4237 206.941 93.2668 206.918 92.1911H207.411C207.09 91.7279 206.821 91.2871 206.5 90.8837C205.7 89.7109 204.236 89.1805 202.869 89.569C202.6 89.6661 202.309 89.7109 202.018 89.6885C201.711 89.6362 201.166 89.9724 201.136 89.2403C201.136 89.1581 200.546 89.0909 200.232 89.0162V88.7696L201.749 88.6875L199.246 87.9853C199.418 87.8583 199.605 87.7611 199.799 87.679C200.553 87.5594 201.263 87.4922 201.98 87.3428C202.414 87.2606 202.966 87.2532 202.959 86.536H201.906L201.861 86.2745L204.289 85.6545L204.326 85.2063C204.386 85.2063 204.438 85.154 204.475 85.1615C205.17 85.4229 205.753 84.8776 206.41 84.8701C206.799 84.8552 207.18 85.0121 207.449 85.2959C207.635 85.4603 208.031 84.6983 208.509 85.1316C208.599 85.2138 208.845 85.1316 209.07 85.1316L208.778 84.6535L211.318 85.2885L211.378 85.0718C211.169 85.0494 210.96 84.9971 210.758 84.9299C210.616 84.8627 210.511 84.7357 210.467 84.5788C210.467 84.4891 210.653 84.3024 210.78 84.2874C211.415 84.2277 212.065 84.2127 212.7 84.1604C213.156 84.1604 213.604 83.9961 214.06 83.9961C215.838 83.9961 217.616 83.9961 219.364 84.138C220.171 84.2725 220.962 84.4742 221.739 84.7506L219.819 85.0793V85.3856C219.991 85.3856 220.171 85.3856 220.342 85.3856C220.656 85.3856 220.97 85.3258 221.284 85.2885L220.91 85.8861C221.724 85.789 222.539 85.6321 223.33 85.4155C224.212 85.0718 225.198 85.1391 226.027 85.5798C224.511 86.3418 222.83 86.7825 221.844 88.2542C222.195 88.2168 222.554 88.2467 222.897 88.3289C223.114 88.426 223.226 88.7771 223.42 89.0834L222.359 89.1506C222.292 89.5914 223.413 89.9051 222.554 90.4579L223.039 90.9659L221.948 91.1153L222.442 91.6681H220.738C220.41 92.1164 220.469 92.4226 221.112 92.699C221.687 92.8484 222.031 93.4237 221.881 93.9989C221.874 94.0138 221.874 94.0288 221.866 94.0512L220.395 93.4311L219.894 94.0362L221.754 94.2305C220.484 95.0821 219.028 95.6274 217.511 95.8142C217.25 95.8142 216.958 96.1354 216.757 96.3744C216.241 97.2933 215.24 97.8386 214.187 97.7565C214.022 97.7565 213.671 98.1375 213.671 98.3391C213.768 98.9218 213.477 99.5045 212.962 99.7884C212.894 99.8257 212.857 99.9602 212.835 100.065C212.708 100.603 212.551 101.133 212.461 101.678C212.371 102.224 212.05 102.089 211.707 101.947C211.273 101.783 210.848 101.589 210.429 101.372C210.145 101.208 209.899 100.976 209.734 100.692C209.137 99.5867 208.569 98.4213 208.024 97.3157C207.957 97.1738 208.031 96.9422 208.031 96.6957Z" fill="#DAF0F2"/>
<path d="M300.535 144.835C300.827 145.119 301.073 145.261 301.193 145.477C301.402 145.776 301.522 146.127 301.559 146.486C301.514 147.308 302.134 147.599 302.605 148.002C302.694 148.062 302.777 148.144 302.844 148.227C303.023 148.637 303.307 148.996 303.666 149.265C304.233 149.78 304.659 150.438 304.883 151.177C305.264 152.201 305.137 153.344 304.555 154.27C304.017 155.099 303.621 156.003 303.389 156.959C302.777 157.363 302.067 157.587 301.335 157.602C301.208 157.542 301.088 157.467 300.954 157.393C300.214 157.848 299.243 157.624 298.78 156.885C298.713 156.78 298.66 156.668 298.623 156.549C298.406 156.182 298.152 155.831 297.869 155.518L297.592 155.704L297.794 154.621L296.808 155.727C296.494 155.219 296.315 154.599 295.904 154.337C295.381 154.038 294.783 153.911 294.186 153.971C293.364 154.046 292.572 154.27 291.825 154.621C291.317 154.995 290.712 155.189 290.084 155.189C289.629 155.211 289.181 155.361 288.807 155.63C288.389 155.928 287.821 155.861 287.477 155.48C287.373 155.323 287.335 155.129 287.365 154.942C287.365 154.606 287.552 154.27 287.485 153.971C287.328 153.336 287.059 152.739 286.842 152.119C286.723 151.79 286.491 151.491 286.842 151.14C286.895 151.088 286.738 150.849 286.723 150.692C286.67 150.184 286.417 149.519 286.656 149.175C286.887 148.832 287.642 148.578 288.172 148.279C288.927 147.846 290.084 148.174 290.443 147.046C290.495 146.897 290.48 146.71 290.548 146.561C290.63 146.419 290.727 146.284 290.839 146.157L291.108 146.366C291.474 145.881 291.87 145.418 292.303 144.992C292.811 144.544 293.125 144.828 293.304 145.604C293.558 145.216 293.835 144.842 294.148 144.499C294.447 144.26 294.768 144.043 295.097 143.849C295.217 143.752 295.321 143.64 295.418 143.513L297.338 143.983C297.338 143.916 297.338 143.983 297.338 143.983C296.584 145.096 296.584 145.096 297.719 145.933C297.921 146.09 298.137 146.232 298.354 146.374L299.161 146.882C299.288 146.127 299.4 145.545 299.505 144.947C299.602 144.349 299.691 143.729 299.796 143.109H300.042L300.535 144.835Z" fill="#DAF0F2"/>
<path d="M198.05 95.277C198.124 94.4329 197.295 94.4627 196.944 94.0593C196.757 94.5076 196.63 94.9782 196.085 94.4777C195.973 94.3806 195.712 94.4777 195.525 94.4329C194.621 94.3283 193.717 94.2386 192.828 94.1042C192.656 94.1042 192.499 93.9099 192.29 93.7755L193.104 93.5065C192.35 93.3721 191.685 93.3198 192.021 92.4682C192.275 91.6688 193.119 91.2281 193.919 91.4746C193.769 91.8182 193.463 92.1768 193.485 92.5055C193.508 92.8342 193.866 93.1629 194.113 93.4692C193.866 91.9527 194.001 91.6464 195.106 91.497C195.689 91.4148 195.936 91.7435 195.995 92.7072C196.929 92.1619 198.11 92.2366 198.969 92.894C199.208 93.006 199.462 93.0733 199.723 93.0882C199.79 93.0882 199.88 93.0882 199.94 93.0882C200.448 93.3048 200.933 93.5588 201.404 93.8427C201.748 94.1565 202.054 94.5076 202.323 94.8885L201.673 95.0155L201.591 95.1874L204.549 96.7785L203.413 98.1904L201.942 96.9055L201.673 97.6152C202.226 98.1307 203.264 98.5042 203.04 99.804L202.196 99.7219L202.562 100.588C201.523 100.155 200.493 100.125 199.835 99.1989C199.454 98.6461 198.759 98.4071 198.124 98.6162C197.848 98.6237 197.572 98.5714 197.303 98.4818C197.348 98.2577 197.385 98.0261 197.437 97.802C197.467 97.66 197.519 97.5256 197.594 97.3986C197.721 97.2193 197.885 97.0699 198.08 96.9578C198.154 96.9578 198.341 97.1147 198.476 97.2043L197.983 97.8319L199.043 97.7198V97.548L198.685 97.421C198.857 96.8757 199.91 96.8234 199.551 95.9942C199.275 95.4413 198.655 95.1425 198.05 95.277Z" fill="#DAF0F2"/>
<path d="M193.298 86.0571C192.626 86.4605 191.991 85.7732 191.244 85.2279C192.283 85.0411 193.343 84.929 194.397 84.8992C195.353 84.8768 196.302 84.7049 197.213 84.3986C197.915 84.2791 198.625 84.2492 199.335 84.3165C200.634 84.3165 201.934 84.4061 203.227 84.4958C203.637 84.5854 204.041 84.7124 204.422 84.8842C204.175 85.0336 203.921 85.1681 203.667 85.2876C202.532 85.7956 201.389 86.2737 200.238 86.7294C199.992 86.8265 199.738 86.9012 199.484 86.946C198.856 87.0058 198.348 87.4914 198.274 88.1189L196.645 88.7837L197.347 89.2021C196.735 89.2768 196.257 89.8371 195.696 89.2469C195.637 89.1871 195.42 89.2469 195.278 89.3067C194.165 89.5233 193.022 89.471 191.931 89.1647L193.067 88.8286L192.932 88.4625L193.948 88.5447L194.016 88.3729L193.134 87.9471C193.65 87.1403 194.389 87.8275 195.054 87.6632L193.47 86.7145L193.657 86.5501C194.613 86.9236 195.48 86.3559 196.496 86.3484C195.517 85.6835 194.441 86.5053 193.298 86.0571Z" fill="#DAF0F2"/>
<path d="M179.97 94.192L182.009 94.065V93.9305C181.583 93.9305 181.165 93.8483 180.754 93.8259C180.336 93.8035 179.917 93.8259 179.507 93.8259V93.5869L180.358 93.2731L179.223 93.0042C179.626 92.0704 180.455 91.9434 181.382 91.8164L181.329 92.3169C181.441 92.3169 181.531 92.3169 181.568 92.3169C181.957 91.9434 182.271 92.0853 182.629 92.3842C182.988 92.6904 183.13 91.8239 183.488 92.2721C183.697 92.5709 183.951 92.8249 184.243 93.0266L183.966 91.8538H185.05C185.221 92.4514 185.475 93.0266 185.804 93.5495C186.155 93.9679 186.775 94.1472 187.216 94.5804L186.536 94.6402L186.842 95.2005C186.446 95.2602 186.043 95.2602 185.655 95.2005C184.736 94.8568 183.959 95.2005 183.107 95.4694C182.652 95.5964 181.972 95.8504 181.628 95.0959C181.583 94.9988 181.329 94.9913 181.18 94.9465L179.932 94.5207L179.97 94.192Z" fill="#DAF0F2"/>
<path d="M302.415 140.913L301.862 141.316L303.558 143.042C302.796 143.027 302.094 142.638 301.668 142.011C301.474 141.637 301.018 141.495 300.645 141.682C300.488 141.764 300.361 141.899 300.294 142.063C300.182 142.384 299.83 142.549 299.509 142.437C299.427 142.407 299.345 142.362 299.285 142.295C298.837 141.772 298.351 141.794 297.574 142.018L298.18 141.174C298.082 140.614 297.664 140.173 297.111 140.046C296.581 139.927 296.058 139.762 295.55 139.56C295.378 139.493 295.281 139.239 295.139 139.052L295.707 138.806L294.295 138.134C294.586 137.992 294.885 137.872 295.199 137.783C295.542 137.67 295.909 137.857 296.021 138.201C296.036 138.238 296.043 138.276 296.043 138.305C296.14 138.642 296.26 138.978 296.394 139.306H296.626C296.723 139.142 296.842 138.985 296.977 138.843C297.425 138.47 297.791 138.089 298.493 138.649C299.024 139.052 299.86 139.03 300.465 139.359C301.16 139.837 301.803 140.352 302.415 140.913Z" fill="#DAF0F2"/>
<path d="M254.481 145.976C255.953 146.035 256.035 144.691 256.864 144.078C257.342 144.496 257.439 145.206 257.081 145.737C257.029 145.819 257.044 145.953 257.014 146.073C256.618 147.477 256.259 148.896 255.826 150.293C255.669 150.727 255.191 150.951 254.758 150.794C254.661 150.757 254.571 150.704 254.489 150.637C254.048 150.062 253.951 149.292 254.227 148.628C254.384 148.209 254.466 147.776 254.466 147.328C254.511 146.894 254.481 146.454 254.481 145.976Z" fill="#DAF0F2"/>
<path d="M232.488 104.06L231.883 103.881C231.883 103.545 231.883 103.276 231.883 103.007C231.883 102.902 232.04 102.715 232.062 102.73C232.443 102.88 232.652 102.626 232.585 102.379C232.518 102.133 232.174 101.998 231.95 101.834C231.898 101.834 231.816 101.834 231.681 101.834L231.771 101.371C231.136 100.773 230.889 100.317 231.061 100.071C231.427 99.5554 232.234 99.2267 232.577 99.4583C233.153 99.8393 233.168 100.116 232.734 100.885L234.333 103.081C234.333 103.081 234.617 103.081 234.721 103.261C234.826 103.44 234.617 103.597 234.55 103.776C234.482 103.955 234.438 104.09 234.311 104.448L231.39 104.912L232.488 104.06Z" fill="#DAF0F2"/>
<path d="M221.916 99.0634L220.87 98.7572L221.811 98.2641H220.765L220.668 98.1371L221.676 97.547L221.594 97.3079L222.14 98.0624L224.358 97.532L224.418 97.293C224.814 97.5768 225.165 97.9205 225.464 98.3089C225.778 98.8393 225.128 99.0634 224.851 99.2651C224.47 99.5415 224.045 99.7507 223.581 99.8628C223.298 99.9375 222.999 99.9375 222.707 99.8628C222.267 99.7731 221.848 99.6013 221.408 99.4668L221.916 99.0634Z" fill="#DAF0F2"/>
<path d="M176.696 90.8458C178.048 90.801 179.401 91.0101 180.686 91.4509C179.976 91.8991 179.408 92.2054 178.87 92.5864C178.332 92.9674 177.929 93.2438 177.548 93.5202L176.293 92.691C176.412 92.2427 177.16 91.7497 176.696 90.8458Z" fill="#DAF0F2"/>
<path d="M190.279 87.5869L190.675 87.2507L189.076 86.9295C189.375 86.1227 189.741 85.6745 190.51 85.7865C190.712 85.8388 190.906 85.9135 191.093 85.9957C191.302 86.0854 191.534 86.1377 191.758 86.1526C192.072 86.4663 192.326 86.9071 192.826 86.5037L193.506 87.0939C192.729 88.192 191.751 88.3489 190.279 87.5869Z" fill="#DAF0F2"/>
<path d="M239.116 85.5155L241.507 85.7172L241.26 85.1719L245.264 86.7705V87.0395H243.837C243.755 86.8378 243.725 86.6137 243.606 86.5315C243.449 86.4493 243.262 86.4493 243.105 86.5315C242.68 86.8228 242.291 87.1515 241.813 87.54L240.64 87.2412L241.126 86.9946L240.371 86.9349V86.8079L241.283 86.4792V86.2999C240.909 86.4194 240.513 86.4717 240.125 86.4568C239.744 86.285 239.4 86.0534 239.094 85.7695L239.116 85.5155Z" fill="#DAF0F2"/>
<path d="M190.811 89.3753L191.348 89.2109V89.6143C192.984 90.7349 194.785 89.6143 196.488 90.1522C196.301 90.7274 195.681 91.0337 195.106 90.8469C195.061 90.832 195.016 90.8096 194.972 90.7947C194.74 90.7722 194.508 90.7722 194.277 90.7947C193.283 90.7947 192.282 90.7946 191.244 90.705C191.087 90.705 190.893 90.3614 190.818 90.1522C190.781 89.8907 190.781 89.6293 190.811 89.3753Z" fill="#DAF0F2"/>
<path d="M180.553 90.0105L180.336 90.0628C180.269 90.0703 180.201 90.0703 180.142 90.0628C180.142 90.0031 180.142 89.9433 180.142 89.9209C180.851 88.9946 181.658 89.5474 182.413 89.8238C182.749 89.9358 183.063 90.0628 183.563 90.2571L183.13 89.3606L183.6 89.0469C183.66 89.0992 183.735 89.129 183.757 89.1813C183.914 89.5847 184.034 90.0255 184.639 89.6893C184.721 89.6445 185.042 89.8163 185.08 89.9358C185.117 90.0554 184.96 90.3766 184.848 90.3915C183.742 90.6007 182.622 90.78 181.494 90.9443C181.449 90.9443 181.389 90.8622 181.232 90.7352L182.36 90.4438V90.2795L179.865 90.4812V90.3766L180.627 90.1002L180.553 90.0105Z" fill="#DAF0F2"/>
<path d="M310.904 161.483L313.99 158.809C314.124 158.868 314.251 158.943 314.371 159.033C314.468 159.122 314.587 159.384 314.55 159.421C314.214 159.78 314.191 160.4 313.586 160.519C313.444 160.557 313.325 160.646 313.243 160.758C312.376 161.998 312.383 161.998 310.904 161.483Z" fill="#DAF0F2"/>
<path d="M290.279 138.586L290.831 139.774L290.361 140.125L289.808 138.989C289.808 140.214 289.808 140.297 289.39 140.566L289.083 139.199L288.941 139.236L289.636 136.89C290.391 136.778 291.212 137.585 291.915 136.539C291.683 137.294 291.586 137.376 290.973 137.294C290.637 137.234 290.301 137.234 289.965 137.294C289.3 137.503 289.733 137.861 289.868 138.145L291.048 137.749L291.115 137.906L290.279 138.586Z" fill="#DAF0F2"/>
<path d="M229.385 103.609V102.459C229.676 102.182 229.923 101.988 230.139 101.749C230.528 101.308 230.894 101.614 231.253 101.749C231.611 101.883 231.536 102.205 231.2 102.414C231.14 102.414 231.126 102.563 231.118 102.645C231.118 102.922 231.193 103.4 231.066 103.4C230.58 103.646 230.072 103.833 229.549 103.96C229.46 103.96 229.31 103.773 229.176 103.661L229.385 103.609Z" fill="#DAF0F2"/>
<path d="M188.86 91.5366L188.375 91.94L189.069 92.2463C189.279 93.0008 188.532 93.0008 188.203 93.2847C188.151 93.3295 187.8 93.0605 187.59 92.9335L186.365 92.2463L186.432 92.0296L187.501 92.2089L186.933 91.6113C187.463 91.0958 188.293 91.066 188.86 91.5366Z" fill="#DAF0F2"/>
<path d="M282.92 140.664C283.338 140.806 283.764 140.918 284.205 141C284.9 141.075 285.609 141.075 286.311 141.112C286.483 141.097 286.655 141.142 286.797 141.247L286.379 141.456L287.469 141.904V142.061C286.924 142.061 286.379 142.061 285.841 141.956C284.997 141.837 284.16 141.658 283.338 141.434C283.039 141.351 282.868 141.038 282.95 140.739C282.957 140.716 282.965 140.694 282.972 140.672L282.92 140.664Z" fill="#DAF0F2"/>
<path d="M316.62 157.222C316.545 157.416 316.448 157.603 316.336 157.782C315.985 158.253 315.627 158.716 315.246 159.164C315.201 159.224 315.029 159.164 315.074 159.037L314.551 158.006L315.014 156.774C315.492 156.557 315.851 157.924 316.598 156.968L316.62 157.222Z" fill="#DAF0F2"/>
<path d="M186.695 89.7613L186.643 89.3056L187.495 89.7613L187.293 89.2683C187.622 89.2234 187.965 89.2234 188.294 89.2683C188.421 89.2683 188.571 89.6493 188.533 89.8211C188.503 89.9929 188.346 90.4785 188.182 90.5083C188.025 90.5382 187.622 90.3365 187.33 90.2469C187.039 90.1647 186.935 90.1572 186.74 90.1049C186.531 90.0601 186.322 89.9929 186.128 89.9107C185.941 89.7912 185.762 89.6567 185.59 89.5073C185.679 89.4102 185.814 89.2085 185.851 89.2234C186.06 89.343 186.262 89.4849 186.456 89.6343C186.509 89.6791 186.546 89.7314 186.576 89.7912L186.695 89.7613Z" fill="#DAF0F2"/>
<path d="M289.643 127.832C290.644 128.131 290.808 128.587 290.397 129.162C289.986 129.729 290.158 130.006 290.86 130.148C291.07 130.2 291.279 130.275 291.48 130.35L291.241 130.872C290.778 130.432 290.016 130.529 289.583 129.916C289.075 129.147 290.136 128.639 289.643 127.832Z" fill="#DAF0F2"/>
<path d="M191.677 91.3466C191.632 91.8844 191.161 92.2878 190.624 92.243C190.526 92.243 190.347 92.243 190.347 92.3102C190.258 92.9079 189.832 92.6912 189.72 92.4671C189.608 92.2505 189.473 91.6304 189.63 91.4437C189.787 91.2569 190.317 91.1673 190.683 91.1523C191.019 91.1822 191.356 91.2495 191.677 91.3466Z" fill="#DAF0F2"/>
<path d="M292.042 133.995L292.139 134.525L291.945 134.645L291.146 133.614L290.54 133.733L290.443 133.576L292.341 132.516L292.468 133.995H292.042Z" fill="#DAF0F2"/>
<path d="M177.572 89.5518C178.058 89.253 178.566 88.999 179.089 88.7973C179.589 88.6703 180.09 88.5881 180.605 88.5508L180.725 88.7973C180.486 89.0364 180.232 89.2605 179.963 89.4696C179.918 89.4696 179.701 89.2829 179.567 89.1783C179.074 89.8058 177.819 90.015 177.572 89.5518Z" fill="#DAF0F2"/>
<path d="M199.559 127.878L200.664 127.983L200.104 127.333C201.165 127.041 202.338 127.46 202.278 128.095C201.374 128.057 200.448 128.498 199.559 127.878Z" fill="#DAF0F2"/>
<path d="M280.291 85.3047L280.097 86.0667C278.58 86.2982 278.154 86.246 277.385 85.596L280.291 85.3047Z" fill="#DAF0F2"/>
<path d="M246.431 85.6488C245.699 85.7235 244.967 85.7609 244.235 85.7459C243.69 85.6563 243.167 85.4845 242.674 85.2305H246.461L246.431 85.6488Z" fill="#DAF0F2"/>
<path d="M187.89 88.3561L185.424 87.8631L185.962 87.624L185.141 87.4074V87.1758C185.477 87.1758 185.805 87.2281 186.134 87.2953C186.463 87.3551 186.777 87.4597 187.083 87.6016C187.389 87.7734 187.681 87.9602 187.964 88.1693L187.89 88.3561Z" fill="#DAF0F2"/>
<path d="M301.717 160.428L301 158.852C301.426 158.815 301.852 158.815 302.285 158.852C302.464 158.994 302.554 159.218 302.524 159.442C302.292 159.801 302.023 160.13 301.717 160.428Z" fill="#DAF0F2"/>
<path d="M195.967 91.3945L197.797 91.7456L197.737 92.022C197.162 91.8203 196.355 92.6495 195.967 91.3945Z" fill="#DAF0F2"/>
<path d="M188.156 87.4922C188.754 87.6042 189.157 87.6715 189.561 87.7686C189.635 87.8284 189.673 87.918 189.658 88.0076C189.62 88.1122 189.538 88.1944 189.441 88.2318C188.903 88.4036 188.522 88.2093 188.156 87.4922Z" fill="#DAF0F2"/>
<path d="M181.615 88.3491L183.132 88.125C182.863 88.7973 182.347 88.9019 181.615 88.3491Z" fill="#DAF0F2"/>
<path d="M296.12 115.215C296.538 116.179 295.418 115.783 295.41 116.283C295.022 115.521 295.806 115.603 296.12 115.215Z" fill="#D1D3D4"/>
<path d="M294.539 139.466H293.127C293.194 139.316 293.246 139.055 293.314 139.047C293.777 139.017 294.292 138.913 294.539 139.466Z" fill="#D1D3D4"/>
<path d="M261.467 84.7889L262.617 84.6992V85.0429L261.497 85.1848L261.467 84.7889Z" fill="#D1D3D4"/>
<path d="M190.213 176.232C190.004 176.232 189.832 176.06 189.832 175.851V66.6193C189.84 66.4101 190.004 66.2458 190.213 66.2383C190.422 66.2383 190.594 66.4101 190.594 66.6193V175.851C190.594 176.06 190.422 176.232 190.213 176.232Z" fill="#D1D3D4"/>
<path d="M236.842 176.232C236.633 176.232 236.461 176.06 236.461 175.851V66.6193C236.461 66.4101 236.633 66.2383 236.842 66.2383C237.051 66.2383 237.223 66.4101 237.223 66.6193V175.851C237.215 176.06 237.051 176.232 236.842 176.232Z" fill="#D1D3D4"/>
<path d="M283.465 176.232C283.256 176.232 283.084 176.06 283.084 175.851V66.6193C283.084 66.4101 283.256 66.2383 283.465 66.2383C283.674 66.2458 283.838 66.4101 283.846 66.6193V175.851C283.846 176.06 283.674 176.232 283.465 176.232Z" fill="#D1D3D4"/>
<path d="M170.26 110.336C170.26 110.336 174.526 116.574 173.689 117.918C172.852 119.263 169.969 118.419 169.969 118.419" fill="white"/>
<path d="M162.283 112.863C162.148 111.818 161.722 110.824 161.065 110.002C160.654 109.307 160.146 108.673 159.548 108.12C158.928 107.567 158.092 107.328 157.27 107.47C156.568 107.657 155.97 108.142 155.649 108.8C155.328 109.449 155.163 110.159 155.156 110.884C155.066 114.081 156.68 117.092 159.399 118.78L159.167 118.533" fill="white"/>
<path d="M288.514 122.109H271.602V139.022H288.514V122.109Z" fill="white"/>
<path d="M288.522 139.401H271.609C271.4 139.401 271.229 139.23 271.229 139.02V122.108C271.229 121.898 271.4 121.727 271.609 121.727H288.522C288.732 121.734 288.896 121.898 288.903 122.108V139.02C288.903 139.23 288.732 139.401 288.522 139.401ZM271.983 138.647H288.141V122.489H271.983V138.647Z" fill="#D1D3D4"/>
<path d="M285.437 126.11H274.688C274.478 126.11 274.307 125.938 274.307 125.729C274.314 125.519 274.478 125.355 274.688 125.348H285.437C285.647 125.348 285.818 125.519 285.818 125.729C285.818 125.938 285.647 126.11 285.437 126.11Z" fill="#D1D3D4"/>
<path d="M285.437 129.274H274.688C274.478 129.274 274.307 129.102 274.307 128.893C274.314 128.684 274.478 128.519 274.688 128.512H285.437C285.647 128.512 285.818 128.684 285.818 128.893C285.818 129.102 285.647 129.274 285.437 129.274Z" fill="#D1D3D4"/>
<path d="M285.437 132.426H274.688C274.478 132.426 274.307 132.254 274.307 132.045C274.314 131.836 274.478 131.672 274.688 131.664H285.437C285.647 131.664 285.818 131.836 285.818 132.045C285.818 132.262 285.647 132.426 285.437 132.426Z" fill="#D1D3D4"/>
<path d="M281.209 135.602H274.68C274.471 135.602 274.299 135.43 274.299 135.221C274.306 135.012 274.471 134.847 274.68 134.84H281.209C281.418 134.847 281.582 135.012 281.59 135.221C281.59 135.43 281.418 135.602 281.209 135.602Z" fill="#D1D3D4"/>
<path d="M217.059 87.6055H200.146V104.518H217.059V87.6055Z" fill="white"/>
<path d="M217.071 104.901H200.151C199.941 104.901 199.77 104.73 199.77 104.52V87.6076C199.77 87.3984 199.941 87.2266 200.151 87.2266H217.063C217.273 87.2266 217.444 87.3984 217.444 87.6076V104.52C217.444 104.73 217.28 104.901 217.071 104.901ZM200.532 104.139H216.69V87.9811H200.532V104.139Z" fill="#D1D3D4"/>
<path d="M213.984 91.6096H203.227C203.018 91.6096 202.846 91.4378 202.846 91.2286C202.853 91.0195 203.018 90.8551 203.227 90.8477H213.984C214.193 90.8551 214.358 91.0195 214.365 91.2286C214.365 91.4378 214.193 91.6096 213.984 91.6096Z" fill="#D1D3D4"/>
<path d="M213.984 94.7659H203.227C203.018 94.7659 202.846 94.5941 202.846 94.3849C202.853 94.1757 203.018 94.0114 203.227 94.0039H213.984C214.193 94.0114 214.358 94.1757 214.365 94.3849C214.365 94.5941 214.193 94.7659 213.984 94.7659Z" fill="#D1D3D4"/>
<path d="M213.984 97.926H203.227C203.018 97.926 202.846 97.7542 202.846 97.545C202.853 97.3359 203.018 97.1715 203.227 97.1641H213.984C214.193 97.1715 214.358 97.3359 214.365 97.545C214.365 97.7542 214.193 97.926 213.984 97.926Z" fill="#D1D3D4"/>
<path d="M207.487 101.09H203.236C203.027 101.09 202.855 100.918 202.855 100.709C202.863 100.5 203.027 100.336 203.236 100.328H207.487C207.696 100.328 207.868 100.5 207.868 100.709C207.868 100.918 207.696 101.09 207.487 101.09Z" fill="#D1D3D4"/>
<path d="M272.223 94.5742H255.311V111.487H272.223V94.5742Z" fill="white"/>
<path d="M272.229 111.878H255.317C255.107 111.878 254.936 111.706 254.936 111.497V94.5763C254.936 94.3671 255.107 94.1953 255.317 94.1953H272.229C272.439 94.2028 272.603 94.3671 272.61 94.5763V111.489C272.603 111.706 272.439 111.878 272.229 111.878ZM255.69 111.116H271.848V94.9573H255.69V111.116Z" fill="#D1D3D4"/>
<path d="M269.146 98.5823H258.389C258.18 98.5823 258.008 98.4105 258.008 98.2013C258.008 97.9921 258.18 97.8203 258.389 97.8203H269.139C269.348 97.8203 269.52 97.9921 269.52 98.2013C269.52 98.4105 269.355 98.5823 269.146 98.5823Z" fill="#D1D3D4"/>
<path d="M269.146 101.746H258.389C258.18 101.746 258.008 101.575 258.008 101.365C258.008 101.156 258.18 100.984 258.389 100.984H269.139C269.348 100.984 269.52 101.156 269.52 101.365C269.52 101.575 269.355 101.746 269.146 101.746Z" fill="#D1D3D4"/>
<path d="M265.133 104.907H258.395C258.185 104.907 258.014 104.735 258.014 104.526C258.014 104.316 258.185 104.145 258.395 104.145H265.133C265.342 104.145 265.514 104.316 265.514 104.526C265.506 104.735 265.342 104.907 265.133 104.907Z" fill="#D1D3D4"/>
<path d="M325.085 178.703H308.172V195.616H325.085V178.703Z" fill="white"/>
<path d="M325.085 196.002H308.172C307.963 196.002 307.791 195.83 307.791 195.621V178.678C307.791 178.469 307.963 178.297 308.172 178.297H325.085C325.294 178.297 325.466 178.469 325.466 178.678V195.591C325.473 195.807 325.309 195.987 325.092 195.994C325.092 196.002 325.092 196.002 325.085 196.002ZM308.546 195.247H324.704V179.089H308.546V195.247Z" fill="#D1D3D4"/>
<path d="M321.998 182.707H311.248C311.039 182.707 310.867 182.535 310.867 182.326C310.867 182.117 311.039 181.945 311.248 181.945H321.998C322.207 181.945 322.379 182.117 322.379 182.326C322.379 182.535 322.207 182.707 321.998 182.707Z" fill="#D1D3D4"/>
<path d="M321.998 185.871H311.248C311.039 185.871 310.867 185.7 310.867 185.49C310.867 185.281 311.039 185.109 311.248 185.109H321.998C322.207 185.109 322.379 185.281 322.379 185.49C322.379 185.7 322.207 185.871 321.998 185.871Z" fill="#D1D3D4"/>
<path d="M317.969 189.028H311.231C311.021 189.028 310.85 188.856 310.85 188.647C310.85 188.437 311.021 188.266 311.231 188.266H317.969C318.178 188.266 318.35 188.437 318.35 188.647C318.35 188.863 318.178 189.028 317.969 189.028Z" fill="#D1D3D4"/>
<path d="M303.374 95.5469H286.461V112.46H303.374V95.5469Z" fill="white"/>
<path d="M303.374 112.842H286.461C286.252 112.842 286.08 112.671 286.08 112.461V95.5411C286.08 95.332 286.252 95.1602 286.461 95.1602H303.374C303.583 95.1602 303.755 95.332 303.755 95.5411V112.454C303.747 112.671 303.583 112.835 303.374 112.842ZM286.842 112.08H303V95.9221H286.842V112.08Z" fill="#D1D3D4"/>
<path d="M300.295 99.5471H289.537C289.328 99.5471 289.156 99.3753 289.156 99.1661C289.156 98.957 289.328 98.7852 289.537 98.7852H300.295C300.504 98.7852 300.676 98.957 300.676 99.1661C300.676 99.3753 300.504 99.5471 300.295 99.5471Z" fill="#D1D3D4"/>
<path d="M300.295 102.711H289.537C289.328 102.711 289.156 102.539 289.156 102.33C289.156 102.121 289.328 101.949 289.537 101.949H300.295C300.504 101.949 300.676 102.121 300.676 102.33C300.676 102.539 300.504 102.711 300.295 102.711Z" fill="#D1D3D4"/>
<path d="M300.07 105.891H289.537C289.328 105.883 289.164 105.719 289.156 105.51C289.156 105.301 289.328 105.129 289.537 105.129H300.07C300.28 105.129 300.451 105.301 300.451 105.51C300.444 105.719 300.28 105.891 300.07 105.891Z" fill="#D1D3D4"/>
<path d="M279.007 122.481L280.031 124.438H281.263L281.383 124.371C280.748 123.153 280.076 121.935 279.441 120.718C279.246 120.344 279.045 119.963 278.858 119.612C278.768 119.336 278.477 119.186 278.201 119.269C277.917 119.351 277.618 119.575 277.723 119.889C277.887 120.299 278.074 120.703 278.283 121.084C278.477 121.487 278.679 121.891 278.895 122.279C278.933 122.346 278.97 122.406 279.007 122.481Z" fill="#464646"/>
<path d="M279.057 121.479C280.77 120.58 281.844 119.25 281.454 118.508C281.065 117.767 279.361 117.895 277.647 118.794C275.934 119.693 274.86 121.023 275.25 121.765C275.639 122.506 277.343 122.379 279.057 121.479Z" fill="white"/>
<path d="M276.405 122.645C275.808 122.727 275.218 122.459 274.889 121.958C274.657 121.308 274.837 120.591 275.345 120.12C275.935 119.44 276.652 118.88 277.451 118.477C278.243 118.058 279.11 117.797 279.999 117.722C280.88 117.655 281.515 117.887 281.762 118.395C282.001 119.037 281.821 119.769 281.313 120.232C280.111 121.584 278.452 122.451 276.659 122.675L276.405 122.645ZM280.297 118.425H280.066C279.267 118.514 278.497 118.761 277.795 119.142C277.085 119.493 276.45 119.986 275.927 120.591C275.584 121.009 275.449 121.398 275.554 121.599C275.658 121.801 276.062 121.913 276.592 121.868C277.391 121.786 278.161 121.547 278.871 121.159C279.588 120.808 280.223 120.315 280.746 119.709C281.082 119.291 281.224 118.903 281.119 118.701C281.022 118.529 280.716 118.425 280.297 118.425Z" fill="#464646"/>
<path d="M280.109 118.837C279.848 119.524 279.332 120.077 278.675 120.398C278.062 120.787 277.308 120.884 276.613 120.675L274.566 115.699C274.364 115.206 274.566 114.646 275.037 114.392L275.844 113.974C276.314 113.727 276.889 113.877 277.181 114.325L280.109 118.837Z" fill="white"/>
<path d="M277.302 121.156C277.018 121.164 276.741 121.112 276.473 121.022C276.383 120.985 276.308 120.91 276.271 120.82L274.224 115.838C273.948 115.165 274.224 114.396 274.866 114.052L275.666 113.634C276.308 113.29 277.108 113.499 277.503 114.112L280.432 118.661C280.492 118.751 280.507 118.863 280.484 118.968C280.193 119.752 279.618 120.394 278.871 120.768C278.385 121.029 277.847 121.164 277.302 121.156ZM276.898 120.394C277.451 120.492 278.019 120.387 278.497 120.103C279.012 119.842 279.423 119.423 279.685 118.915L276.861 114.56C276.674 114.276 276.308 114.187 276.009 114.343L275.21 114.762C274.911 114.919 274.777 115.277 274.904 115.591L276.898 120.394Z" fill="#464646"/>
<path d="M262.748 94.2112L263.771 96.1685H265.004L265.123 96.1087C264.481 94.891 263.816 93.6659 263.181 92.4482C262.987 92.0822 262.785 91.6937 262.598 91.3426C262.509 91.0662 262.21 90.9168 261.941 91.0065C261.657 91.0812 261.358 91.3053 261.463 91.619C261.627 92.0299 261.814 92.4333 262.023 92.8143C262.217 93.2177 262.419 93.6286 262.636 94.0096C262.673 94.0768 262.71 94.144 262.748 94.2112Z" fill="#464646"/>
<path d="M262.807 93.2099C264.52 92.3107 265.594 90.9806 265.204 90.2389C264.815 89.4973 263.111 89.625 261.397 90.5242C259.684 91.4234 258.61 92.7536 259 93.4952C259.389 94.2368 261.093 94.1091 262.807 93.2099Z" fill="white"/>
<path d="M260.151 94.3695C259.554 94.4517 258.971 94.1828 258.635 93.6897C258.403 93.0398 258.583 92.3152 259.091 91.8446C260.301 90.4999 261.952 89.6333 263.745 89.4018C264.626 89.3345 265.261 89.5736 265.508 90.0741C265.747 90.7165 265.567 91.4486 265.059 91.9118C263.857 93.2639 262.198 94.1305 260.405 94.3546L260.151 94.3695ZM264.036 90.1563H263.819C262.236 90.3654 260.771 91.1274 259.703 92.3152C259.36 92.7335 259.225 93.122 259.33 93.3237C259.434 93.5254 259.838 93.6374 260.368 93.6001C261.167 93.503 261.944 93.249 262.639 92.8456C263.349 92.4945 263.984 92.0014 264.514 91.4038C264.85 90.9855 264.992 90.597 264.888 90.3878C264.768 90.2534 264.462 90.1563 264.036 90.1563Z" fill="#464646"/>
<path d="M263.85 90.5635C263.596 91.2507 263.088 91.811 262.423 92.1322C261.803 92.5132 261.056 92.6103 260.361 92.4012L258.314 87.4259C258.113 86.9329 258.314 86.3726 258.785 86.1186L259.584 85.7003C260.055 85.4537 260.637 85.6031 260.929 86.0514L263.85 90.5635Z" fill="white"/>
<path d="M261.042 92.8833C260.758 92.8908 260.482 92.8385 260.213 92.7488C260.123 92.7115 260.048 92.6368 260.011 92.5471L257.964 87.5719C257.688 86.8995 257.964 86.1301 258.607 85.7865L259.361 85.3681C260.004 85.0245 260.803 85.2337 261.199 85.8462L264.127 90.3957C264.187 90.4853 264.202 90.5974 264.18 90.7094C263.649 92.0093 262.409 92.8758 261.005 92.9206L261.042 92.8833ZM260.646 92.1288C261.199 92.2259 261.767 92.1213 262.245 91.8374C262.76 91.576 263.178 91.1576 263.432 90.6497L260.601 86.3019C260.422 86.018 260.056 85.9209 259.757 86.0778L259.003 86.5036C258.704 86.653 258.569 87.0116 258.696 87.3254L260.646 92.1288Z" fill="#464646"/>
<path d="M206.706 86.973L207.73 88.9302H208.97L209.089 88.8704C208.447 87.6453 207.775 86.4276 207.14 85.21C206.945 84.8439 206.751 84.448 206.557 84.1044C206.467 83.828 206.168 83.6785 205.899 83.7682C205.623 83.8429 205.317 84.067 205.421 84.3808C205.586 84.7916 205.78 85.1876 205.989 85.576C206.183 85.9794 206.378 86.3903 206.594 86.7713L206.706 86.973Z" fill="#464646"/>
<path d="M206.766 85.999C208.479 85.0998 209.553 83.7696 209.163 83.028C208.774 82.2864 207.07 82.4141 205.356 83.3133C203.643 84.2125 202.569 85.5426 202.959 86.2842C203.348 87.0259 205.052 86.8982 206.766 85.999Z" fill="white"/>
<path d="M204.131 87.1493C203.541 87.224 202.951 86.9625 202.615 86.4695C202.114 85.5133 203.212 84.0117 205.17 82.9883C205.954 82.555 206.82 82.2786 207.717 82.1815C208.464 81.9275 209.271 82.3309 209.525 83.0779C209.719 83.6532 209.525 84.2956 209.047 84.6617C208.464 85.3489 207.747 85.9017 206.94 86.3051C206.081 86.7982 205.117 87.0895 204.131 87.1493ZM208.031 82.9285H207.814C207.015 83.0107 206.245 83.2498 205.543 83.6382C203.855 84.5272 203.085 85.6851 203.265 86.096C203.444 86.5068 204.871 86.5367 206.566 85.6477C207.276 85.2966 207.911 84.8036 208.434 84.206C208.778 83.7876 208.912 83.3917 208.808 83.19C208.733 83.0331 208.419 82.9285 208.031 82.9285Z" fill="#464646"/>
<path d="M207.814 83.3369C207.552 84.0242 207.037 84.5844 206.38 84.9057C205.767 85.2867 205.012 85.3838 204.325 85.1746L202.271 80.1993C202.069 79.7138 202.263 79.1535 202.719 78.892L203.518 78.4737C203.989 78.2272 204.572 78.3766 204.863 78.8248L207.814 83.3369Z" fill="white"/>
<path d="M204.996 85.6606C204.712 85.6681 204.436 85.6158 204.167 85.5262C204.077 85.4888 204.003 85.4141 203.965 85.3245L201.963 80.3492C201.679 79.6769 201.963 78.9 202.613 78.5638L203.413 78.1455C204.055 77.8018 204.854 78.011 205.25 78.6236L208.141 83.1431C208.201 83.2328 208.216 83.3523 208.186 83.4569C207.648 84.7567 206.401 85.6158 204.996 85.6606ZM204.6 84.8987C205.146 84.9958 205.713 84.8912 206.192 84.6073C206.707 84.3459 207.125 83.9275 207.379 83.4195L204.556 79.0718C204.376 78.7879 204.003 78.6908 203.704 78.8477L202.949 79.2735C202.651 79.4304 202.524 79.7815 202.651 80.0952L204.6 84.8987Z" fill="#464646"/>
<path d="M293.409 95.5564L294.47 97.5435H295.71L295.822 97.4837C295.187 96.2586 294.515 95.0409 293.88 93.8232L293.297 92.7176C293.207 92.4412 292.909 92.2918 292.64 92.3815C292.363 92.4562 292.057 92.6803 292.162 92.994C292.326 93.4049 292.513 93.8083 292.729 94.1893C292.916 94.5927 293.118 95.0036 293.334 95.3846L293.409 95.5564Z" fill="#464646"/>
<path d="M293.463 94.5693C295.176 93.6701 296.25 92.34 295.861 91.5983C295.472 90.8567 293.767 90.9844 292.054 91.8836C290.34 92.7828 289.267 94.1129 289.656 94.8546C290.045 95.5962 291.75 95.4685 293.463 94.5693Z" fill="white"/>
<path d="M290.809 95.7253C290.211 95.8075 289.621 95.5386 289.292 95.0381C289.053 94.3956 289.232 93.671 289.74 93.2004C290.943 91.8482 292.602 90.9817 294.394 90.7576C295.126 90.4662 295.956 90.8248 296.247 91.5569C296.494 92.1844 296.277 92.8941 295.717 93.2676C295.126 93.9474 294.409 94.5077 293.61 94.9111C292.818 95.3294 291.952 95.5909 291.063 95.6656L290.809 95.7253ZM294.701 91.4747H294.469C293.67 91.5569 292.9 91.7959 292.198 92.1844C291.481 92.5355 290.846 93.0285 290.323 93.6336C289.987 94.052 289.845 94.4404 289.95 94.6421C290.054 94.8438 290.458 94.9559 290.995 94.9185C292.579 94.7019 294.036 93.9399 295.112 92.7596C295.455 92.3413 295.59 91.9453 295.485 91.7436C295.433 91.6092 295.119 91.4747 294.701 91.4747Z" fill="#464646"/>
<path d="M294.513 91.9228C294.251 92.6101 293.736 93.1704 293.079 93.4916C292.459 93.8726 291.712 93.9697 291.017 93.7605L288.97 88.7853C288.776 88.2922 288.977 87.732 289.448 87.478L290.247 87.0596C290.718 86.8131 291.301 86.9625 291.592 87.4107L294.513 91.9228Z" fill="white"/>
<path d="M291.696 94.2466C291.412 94.254 291.136 94.2018 290.867 94.1121C290.777 94.0748 290.703 94.0001 290.665 93.9104L288.618 88.9352C288.342 88.2628 288.618 87.4934 289.261 87.1498L290.068 86.7314C290.71 86.3878 291.51 86.5969 291.905 87.2095L294.834 91.7589C294.894 91.8486 294.909 91.9681 294.879 92.0727C294.348 93.3725 293.108 94.2391 291.704 94.2839V94.2466H291.696ZM291.3 93.4846C291.846 93.5817 292.413 93.4771 292.892 93.1933C293.407 92.9318 293.818 92.5135 294.079 92.0055L291.256 87.6577C291.076 87.3739 290.703 87.2767 290.404 87.4336L289.605 87.8594C289.306 88.0088 289.171 88.3674 289.298 88.6812L291.3 93.4846Z" fill="#464646"/>
<path d="M240.7 146.504H203.191V169.483H240.7V146.504Z" fill="white"/>
<path d="M240.698 169.87H203.19C202.98 169.87 202.809 169.698 202.809 169.489V146.51C202.809 146.301 202.98 146.129 203.19 146.129H240.698C240.907 146.129 241.079 146.301 241.079 146.51V169.489C241.072 169.698 240.907 169.862 240.698 169.87ZM203.541 169.108H240.295V146.883H203.563L203.541 169.108Z" fill="#D1D3D4"/>
<path d="M237.701 167.45H206.184C205.975 167.45 205.803 167.278 205.803 167.069V148.916C205.803 148.707 205.975 148.535 206.184 148.535H237.701C237.91 148.535 238.082 148.707 238.082 148.916V167.069C238.082 167.278 237.91 167.45 237.701 167.45ZM206.557 166.688H237.32V149.297H206.557V166.688Z" fill="#D1D3D4"/>
<path d="M206.185 162.892C206.065 162.892 205.953 162.832 205.879 162.743C205.752 162.578 205.789 162.339 205.953 162.212C208.045 160.621 218.616 152.725 220.618 153.405C222.62 154.077 229.373 160.823 229.664 161.107C229.814 161.256 229.814 161.495 229.664 161.644C229.515 161.794 229.276 161.794 229.126 161.644C227.206 159.717 221.888 154.622 220.386 154.122C219.303 153.771 212.43 158.253 206.409 162.817C206.342 162.862 206.26 162.885 206.185 162.892Z" fill="#D1D3D4"/>
<path d="M237.704 160.753C237.599 160.753 237.502 160.708 237.428 160.641C236.486 159.655 233.76 157.055 232.46 156.846C231.377 156.667 229.292 158.796 228.224 160.178C228.09 160.335 227.843 160.35 227.686 160.215C227.544 160.088 227.514 159.879 227.619 159.715C227.933 159.311 230.712 155.785 232.587 156.107C234.462 156.428 237.607 159.745 237.973 160.133C238.122 160.275 238.122 160.514 237.98 160.656C237.98 160.656 237.98 160.656 237.973 160.664C237.906 160.731 237.801 160.761 237.704 160.753Z" fill="#D1D3D4"/>
<path d="M228.479 155.556C227.403 155.563 226.529 154.689 226.522 153.614C226.514 152.538 227.388 151.664 228.464 151.656C229.54 151.649 230.414 152.523 230.421 153.599C230.421 153.606 230.421 153.606 230.421 153.614C230.414 154.689 229.547 155.556 228.479 155.556ZM228.479 152.426C227.821 152.418 227.284 152.949 227.284 153.606C227.276 154.263 227.806 154.801 228.464 154.801C229.121 154.809 229.659 154.278 229.659 153.621V153.614C229.659 152.964 229.129 152.433 228.479 152.426Z" fill="#D1D3D4"/>
<path d="M117.931 83.109C119.621 83.053 121.312 83.3145 122.919 83.8657C122.031 84.4261 121.322 84.8185 120.649 85.2855C119.976 85.7619 119.472 86.1076 118.996 86.4532L117.436 85.4163C117.585 84.8465 118.51 84.2393 117.931 83.109Z" fill="#D1D3D4"/>
<path d="M134.268 228.257L157.238 236.328L163.394 201.438L134.268 228.257Z" fill="#464646"/>
<path d="M157.237 236.805C157.191 236.814 157.134 236.814 157.088 236.805L134.117 228.734C133.968 228.678 133.846 228.547 133.818 228.379C133.79 228.22 133.837 228.052 133.959 227.931L163.085 201.112C163.234 200.971 163.459 200.943 163.636 201.046C163.814 201.14 163.916 201.336 163.87 201.541L157.714 236.441C157.686 236.571 157.602 236.693 157.489 236.767C157.405 236.805 157.321 236.814 157.237 236.805ZM135.173 228.071L156.864 235.656L162.683 202.7L135.173 228.071Z" fill="#464646"/>
<path d="M123.506 204.949C123.506 204.949 134.361 199.447 139.854 202.202C145.346 204.958 148.606 204.949 148.392 206.938C148.177 208.928 145.645 208.928 145.645 208.928C145.645 208.928 148.896 210.404 146.897 211.768C145.729 212.59 144.319 212.992 142.899 212.907C142.899 212.907 148.149 214.654 145.645 216.149C143.142 217.644 137.817 217.214 135.986 217.559C134.155 217.914 117.967 223.146 117.967 223.146L123.506 204.949Z" fill="white"/>
<path d="M117.874 223.659C117.743 223.659 117.622 223.612 117.528 223.528C117.407 223.397 117.36 223.21 117.416 223.042L123.105 204.808C123.142 204.686 123.226 204.584 123.339 204.528C123.796 204.303 134.464 198.96 140.116 201.781C141.75 202.585 143.432 203.294 145.141 203.911C147.589 204.854 149.065 205.368 148.868 207.012C148.728 208.049 147.981 208.909 146.972 209.189C147.514 209.534 147.888 210.086 148.018 210.712C148.046 211.328 147.71 211.898 147.178 212.187C146.468 212.673 145.683 213.038 144.842 213.243C145.786 213.729 146.739 214.401 146.795 215.186C146.795 215.56 146.711 216.129 145.898 216.587C144.067 217.69 140.984 217.802 138.509 217.886C137.696 217.895 136.884 217.951 136.071 218.054C134.296 218.39 118.229 223.575 118.061 223.631C117.995 223.659 117.939 223.668 117.874 223.659ZM123.927 205.265L118.621 222.435C122.04 221.333 134.268 217.409 135.875 217.12C136.725 216.998 137.584 216.933 138.444 216.933C140.685 216.858 143.749 216.746 145.384 215.775C145.515 215.69 145.851 215.476 145.823 215.279C145.767 214.738 144.17 213.86 142.731 213.383C142.498 213.308 142.367 213.066 142.423 212.832C142.479 212.589 142.703 212.43 142.946 212.458C144.254 212.524 145.543 212.159 146.617 211.403C146.925 211.188 147.075 210.973 147.056 210.786C147.056 210.291 146.113 209.656 145.44 209.366C145.179 209.31 145.011 209.058 145.057 208.797C145.113 208.535 145.365 208.367 145.627 208.414C145.711 208.414 147.71 208.414 147.916 206.826C148.009 206.003 147.234 205.639 144.796 204.733C143.049 204.107 141.339 203.388 139.677 202.575C134.8 200.202 125.319 204.602 123.927 205.265Z" fill="#464646"/>
<path d="M134.268 228.257L142.656 188.809L167.747 193.227L160.134 232.199L134.268 228.257Z" fill="white"/>
<path d="M160.142 232.665H160.068L134.201 228.723C134.071 228.704 133.959 228.629 133.874 228.526C133.8 228.424 133.772 228.284 133.8 228.153L142.179 188.713C142.226 188.461 142.469 188.293 142.721 188.34L167.83 192.749C167.952 192.777 168.064 192.842 168.129 192.945C168.204 193.048 168.232 193.179 168.204 193.309L160.619 232.291C160.581 232.515 160.376 232.674 160.142 232.665ZM134.837 227.863L159.759 231.656L167.186 193.608L143.02 189.358L134.837 227.863Z" fill="#464646"/>
<path d="M151.008 218.156C147.309 218.156 144.301 215.158 144.301 211.449C144.301 207.75 147.299 204.742 151.008 204.742C154.716 204.742 157.715 207.741 157.715 211.449C157.706 215.158 154.707 218.156 151.008 218.156ZM151.008 205.704C147.832 205.704 145.254 208.283 145.254 211.459C145.254 214.635 147.832 217.213 151.008 217.213C154.184 217.213 156.762 214.635 156.762 211.459C156.762 208.283 154.184 205.704 151.008 205.704Z" fill="#DAF0F2"/>
<path d="M135.818 203.539C135.818 203.539 148.008 204.623 146.794 206.902C145.579 209.191 137.817 208.695 137.817 208.695C137.817 208.695 137.695 213.74 133.566 213.077" fill="white"/>
<path d="M134.287 213.609C134.016 213.609 133.754 213.591 133.493 213.544C133.231 213.507 133.054 213.254 133.091 212.993C133.128 212.731 133.38 212.554 133.642 212.591C134.445 212.778 135.295 212.582 135.949 212.077C137.266 210.994 137.341 208.686 137.341 208.668C137.351 208.406 137.565 208.201 137.827 208.201C137.836 208.201 137.836 208.201 137.846 208.201C140.685 208.378 145.599 208.135 146.384 206.669C146.421 206.613 146.421 206.547 146.384 206.491C145.767 205.361 139.807 204.361 135.772 203.997C135.51 203.978 135.314 203.745 135.333 203.483C135.352 203.222 135.585 203.026 135.847 203.044C137.556 203.184 146.131 204.044 147.224 206.024C147.402 206.36 147.402 206.771 147.224 207.108C146.038 209.331 140.097 209.247 138.257 209.172C138.154 210.545 137.547 211.834 136.557 212.806C135.921 213.338 135.118 213.628 134.287 213.609Z" fill="#464646"/>
<path d="M155.397 225.837H155.322L140.909 223.679C140.647 223.642 140.47 223.399 140.507 223.137C140.544 222.876 140.787 222.698 141.049 222.735L155.462 224.893C155.724 224.912 155.92 225.136 155.901 225.398C155.883 225.65 155.659 225.846 155.397 225.837Z" fill="#DAF0F2"/>
<path d="M161.181 196.875H161.097L148.103 194.642C147.841 194.596 147.664 194.353 147.711 194.091C147.757 193.83 148 193.652 148.262 193.699L161.256 195.922C161.517 195.941 161.713 196.174 161.695 196.436C161.676 196.697 161.442 196.894 161.181 196.875Z" fill="#DAF0F2"/>
<path d="M158.059 199.709H157.975L149.11 198.158C148.849 198.111 148.681 197.868 148.718 197.616C148.765 197.355 149.008 197.187 149.269 197.224L158.144 198.775C158.405 198.803 158.601 199.027 158.573 199.288C158.545 199.55 158.321 199.746 158.059 199.718V199.709Z" fill="#DAF0F2"/>
<path d="M153.025 210C152.483 210.262 152.371 210.654 152.025 210.121C151.839 209.841 152.082 209.262 151.727 209.029C151.372 208.795 150.167 209.738 150.447 210.14C150.129 209.645 149.737 209.206 149.288 208.823C148.933 208.561 148.121 208.122 147.672 208.403C147.224 208.683 147.458 209.178 147.756 209.468C148.205 209.897 148.775 210.243 148.99 210.813C149.148 211.28 149.148 211.784 148.99 212.242C148.849 212.597 148.737 212.961 148.635 213.335C148.317 213.167 148.018 212.98 147.738 212.765C147.514 212.634 147.215 212.709 147.084 212.933C146.953 213.157 147.028 213.456 147.252 213.587C148.196 214.288 149.288 214.764 150.437 214.988C151.446 215.175 152.848 215.371 153.642 214.568C153.828 214.381 153.828 214.082 153.642 213.895C153.455 213.709 153.156 213.709 152.969 213.895C152.857 213.998 152.717 214.073 152.567 214.11C152.436 213.886 152.334 213.634 152.278 213.382C152.39 212.971 152.586 212.588 152.838 212.242C153.212 211.756 153.698 211.364 154.239 211.084C154.361 210.99 154.51 210.934 154.66 210.906C154.893 210.915 155.127 210.962 155.342 211.037C155.388 211.056 155.444 211.056 155.491 211.037C155.585 210.972 155.631 210.859 155.613 210.757C155.556 209.524 153.838 209.636 153.025 210ZM150.381 214.026L149.821 213.867L149.886 213.802C150.195 213.41 150.83 212.69 151.045 213.587C151.101 213.802 151.203 213.998 151.334 214.176C151.017 214.166 150.69 214.129 150.372 214.073L150.381 214.026Z" fill="#DAF0F2"/>
<path d="M58.4988 177.059C58.4988 177.059 43.9543 216.769 54.3419 220.786C64.7295 224.802 104.757 211.902 104.757 211.902L100.899 192.836L58.4988 177.059Z" fill="white"/>
<path d="M59.9943 222.043C58.0233 222.118 56.0522 221.847 54.1746 221.24C43.4694 217.093 57.4534 178.569 58.0513 176.906C58.0887 176.785 58.1821 176.691 58.2942 176.644C58.4063 176.598 58.537 176.598 58.6585 176.644L101.068 192.375C101.227 192.431 101.339 192.562 101.367 192.73L105.225 211.796C105.272 212.039 105.132 212.272 104.898 212.347C103.497 212.777 74.6229 222.043 59.9943 222.043ZM58.7799 177.672C56.4819 184.174 54.5483 190.806 52.9883 197.522C49.971 210.946 50.5128 218.793 54.5109 220.343C64.0671 224.042 100.022 212.87 104.216 211.534L100.489 193.141L58.7799 177.672Z" fill="#464646"/>
<path d="M72.1932 139.227C72.1932 139.227 65.2806 143.019 53.4824 184.289L74.7714 191.996L72.1932 139.227Z" fill="#209FAE"/>
<path d="M125.432 174.226C125.432 174.226 144.535 189.481 154.287 186.669C158.369 185.492 160.798 180.223 162.479 176.748C166.618 168.21 169.299 159.009 172.316 150.041C173.67 146.006 175.23 142.064 176.706 138.075C177.65 135.562 177.846 133.769 179.556 131.564C180.602 130.247 184.712 126.015 183.348 124.11C181.984 122.204 178.266 126.641 178.08 122.615C178.136 121.531 178.519 120.485 179.173 119.616C180.546 119.971 181.956 120.177 183.376 120.233C183.899 120.233 184.544 120.177 184.731 119.682C184.917 119.187 184.6 118.841 184.32 118.495C182.068 115.805 178.565 113.694 175.165 114.535C171.765 115.366 169.626 118.841 168.813 122.251C167.869 126.099 168.654 131.144 166.646 134.581C163.367 140.214 158.108 145.343 153.988 150.396C151.662 153.236 149.346 156.085 146.954 158.925C146.347 159.635 144.507 162.587 143.442 162.718L134.96 156.506" fill="white"/>
<path d="M151.634 187.487C141.424 187.487 125.861 175.166 125.142 174.596C124.936 174.428 124.908 174.129 125.067 173.924C125.235 173.718 125.534 173.69 125.739 173.849C125.926 173.998 144.758 188.917 154.184 186.17C157.976 185.087 160.33 180.126 161.918 176.838L162.077 176.502C165.375 169.683 167.766 162.284 170.12 155.204C170.709 153.41 171.288 151.617 171.895 149.842C172.839 146.937 173.96 144.041 175.024 141.229C175.454 140.108 175.865 138.978 176.286 137.866C176.528 137.212 176.725 136.614 176.902 136.035C177.35 134.316 178.135 132.71 179.209 131.29C179.359 131.084 179.592 130.813 179.854 130.505C181.078 129.076 183.936 125.769 182.993 124.405C182.656 123.929 182.049 124.116 180.966 124.471C180.078 124.779 179.153 125.106 178.434 124.62C177.874 124.125 177.575 123.396 177.64 122.649C177.687 121.463 178.088 120.323 178.798 119.379C178.901 119.202 179.116 119.118 179.321 119.174C180.667 119.51 182.04 119.716 183.422 119.772C183.917 119.772 184.244 119.697 184.31 119.538C184.375 119.379 184.31 119.239 183.973 118.819C181.993 116.437 178.668 114.186 175.295 115.026C171.932 115.867 170.017 119.37 169.298 122.397C168.981 123.938 168.803 125.498 168.747 127.058C168.57 129.795 168.373 132.635 167.066 134.877C164.786 138.791 161.564 142.462 158.444 146.002C157.005 147.646 155.604 149.188 154.371 150.748C151.895 153.793 149.625 156.539 147.327 159.276C147.197 159.435 146.991 159.715 146.748 160.042C145.534 161.724 144.45 163.116 143.507 163.2C143.395 163.209 143.282 163.181 143.18 163.116L134.698 156.894C134.492 156.736 134.446 156.446 134.595 156.231C134.744 156.016 135.043 155.97 135.258 156.128L143.563 162.2C144.217 161.92 145.459 160.229 145.982 159.473C146.244 159.118 146.459 158.828 146.608 158.66C148.934 155.923 151.167 153.177 153.633 150.122C154.922 148.534 156.351 146.908 157.734 145.33C160.919 141.948 163.777 138.277 166.272 134.363C167.467 132.308 167.645 129.618 167.813 126.946C167.869 125.33 168.065 123.714 168.392 122.126C169.177 118.828 171.353 114.98 175.09 114.055C178.826 113.13 182.554 115.578 184.721 118.184C185.16 118.613 185.347 119.239 185.216 119.847C185.057 120.267 184.618 120.79 183.394 120.697C182.058 120.641 180.741 120.454 179.443 120.145C178.929 120.855 178.64 121.705 178.602 122.584C178.602 123.237 178.761 123.667 178.985 123.817C179.209 123.966 180.013 123.817 180.676 123.564C181.722 123.2 183.021 122.752 183.796 123.826C185.16 125.722 182.311 129.095 180.611 131.103C180.349 131.402 180.125 131.663 179.975 131.85C178.966 133.205 178.229 134.737 177.817 136.371C177.631 136.951 177.425 137.567 177.182 138.268C176.762 139.398 176.342 140.528 175.921 141.64C174.856 144.433 173.773 147.329 172.792 150.178C172.194 151.962 171.615 153.746 171.026 155.531C168.682 162.677 166.29 170.075 162.937 176.941L162.778 177.287C161.115 180.715 158.602 185.918 154.455 187.114C153.53 187.375 152.577 187.497 151.634 187.487Z" fill="#464646"/>
<path d="M109.886 107.473C109.886 107.473 115.22 115.273 114.173 116.954C113.127 118.636 109.521 117.58 109.521 117.58" fill="white"/>
<path d="M111.783 118.365C110.97 118.356 110.167 118.234 109.382 118.02C109.13 117.945 108.99 117.683 109.055 117.431C109.12 117.179 109.373 117.039 109.625 117.104C109.634 117.104 109.634 117.104 109.644 117.113C110.587 117.366 113.053 117.795 113.772 116.684C114.324 115.824 111.979 111.378 109.485 107.744C109.345 107.52 109.401 107.23 109.616 107.081C109.83 106.941 110.129 106.997 110.269 107.212C111.568 109.108 115.706 115.413 114.566 117.188C113.903 118.029 112.848 118.468 111.783 118.365Z" fill="#464646"/>
<path d="M108.606 97.0671C111.968 99.72 111.09 105.465 111.128 109.192C111.165 114.442 111.09 119.683 110.894 124.914C110.773 128.239 102.169 128.454 100.637 127.483L102.188 140.589L84.0098 133.947L84.3367 118.776C84.3367 118.776 90.0256 118.72 93.2764 111.901C96.5272 105.082 96.2283 94.6757 96.2283 94.6757C96.2283 94.6757 105.317 94.4702 108.606 97.0671Z" fill="white"/>
<path d="M102.189 141.048C102.133 141.057 102.077 141.057 102.03 141.048L83.8424 134.406C83.6556 134.331 83.5341 134.154 83.5435 133.948L83.8704 118.778C83.8798 118.526 84.0853 118.32 84.3468 118.311C84.5617 118.311 89.7835 118.161 92.8755 111.679C96.0422 105.046 95.7807 94.7707 95.7807 94.6772C95.7713 94.5465 95.818 94.425 95.9021 94.3316C95.9862 94.2382 96.117 94.1821 96.2477 94.1821C96.6214 94.1821 105.552 94.0047 108.933 96.6669C111.913 99.0303 111.773 103.533 111.67 107.101C111.67 107.821 111.624 108.502 111.67 109.119C111.67 114.35 111.67 119.656 111.437 124.869C111.343 125.943 110.652 126.877 109.643 127.269C107.373 128.465 103.244 128.614 101.264 128.129L102.731 140.45C102.759 140.702 102.581 140.936 102.329 140.964C102.31 140.964 102.282 140.964 102.254 140.964L102.189 141.048ZM84.487 133.612L101.628 139.852L100.171 127.531C100.143 127.344 100.227 127.167 100.386 127.064C100.545 126.97 100.732 126.97 100.89 127.064C101.834 127.69 106.691 127.764 109.129 126.475C109.961 126.036 110.4 125.532 110.419 124.878C110.615 119.675 110.689 114.388 110.652 109.175C110.652 108.54 110.652 107.849 110.652 107.12C110.746 103.72 110.876 99.4787 108.27 97.4236C105.57 95.2938 98.5457 95.135 96.6587 95.135C96.6587 97.2928 96.5653 105.999 93.6602 112.09C90.755 118.18 86.2244 119.04 84.7578 119.198L84.487 133.612Z" fill="#464646"/>
<path d="M65.6456 239.725L65.627 213.093L126.01 212.766L132.222 239.725H65.6456Z" fill="#464646"/>
<path d="M132.22 240.195H65.6444C65.3828 240.195 65.168 239.98 65.168 239.718V213.095C65.168 212.834 65.3828 212.619 65.6444 212.619L126.036 212.283C126.26 212.264 126.466 212.423 126.503 212.656L132.715 239.606C132.743 239.746 132.715 239.896 132.622 240.017C132.519 240.139 132.37 240.204 132.22 240.195ZM66.1114 239.251H131.622L125.635 213.245L66.0928 213.581L66.1114 239.251Z" fill="#464646"/>
<path d="M112.194 137.336C103.656 129.929 75.8564 128.658 72.1946 139.233C68.5328 149.807 63.1055 215.486 63.1055 215.486C83.4043 222.38 129.737 215.598 129.737 215.598L123.236 183.903C123.236 183.894 121.452 145.314 112.194 137.336Z" fill="#209FAE"/>
<path d="M100.629 127.518C100.629 127.518 96.2103 127.378 94.0898 124.352C94.0898 124.352 94.3607 129.629 101.236 131.834L100.629 127.518Z" fill="#464646"/>
<path d="M101.237 132.253H101.097C93.9975 129.974 93.6239 124.575 93.6145 124.341C93.5958 124.08 93.792 123.855 94.0536 123.837C94.2217 123.827 94.3805 123.902 94.4739 124.042C96.4356 126.835 100.602 127.013 100.649 127.013C100.882 127.022 101.069 127.19 101.106 127.424L101.713 131.74C101.732 131.898 101.676 132.057 101.555 132.169C101.461 132.225 101.349 132.263 101.237 132.253ZM94.969 125.92C96.0246 128.386 98.0984 130.273 100.658 131.076L100.21 127.919C98.3132 127.76 96.501 127.069 94.969 125.939V125.92Z" fill="#464646"/>
<path d="M112.194 137.336L142.974 157.056L131.213 188.807L107.906 179.372L112.194 137.336Z" fill="#209FAE"/>
<path d="M123.974 186.004C123.89 186.004 123.806 185.986 123.732 185.939C123.591 185.855 109.224 177.466 102.349 169.582C102.153 169.405 102.144 169.106 102.312 168.91C102.489 168.714 102.788 168.704 102.984 168.872C103.012 168.9 103.04 168.928 103.059 168.956C109.832 176.71 124.068 185.024 124.208 185.08C124.432 185.21 124.507 185.5 124.376 185.734C124.292 185.874 124.143 185.967 123.974 185.967V186.004Z" fill="#464646"/>
<path d="M64.5618 199.45C64.3003 199.422 64.1135 199.198 64.1321 198.936C64.1321 198.936 64.1321 198.936 64.1321 198.927C65.085 187.988 68.5132 159.002 68.5413 158.703C68.5786 158.441 68.8122 158.264 69.0737 158.283C69.3353 158.32 69.5221 158.553 69.4941 158.815C69.4941 159.095 66.0658 188.082 65.0756 199.011C65.0569 199.273 64.8234 199.469 64.5618 199.45Z" fill="#464646"/>
<path d="M75.8 91.2444C70.5128 99.4834 71.1761 108.909 63.8991 116.354C60.0131 120.324 55.3611 123.528 51.1108 127.059C48.4392 129.086 46.1319 131.543 44.2823 134.345C42.4327 137.185 41.8348 140.66 42.6288 143.958C43.3762 146.517 45.2257 148.927 44.796 151.543C44.4131 153.906 42.3206 155.569 41.2557 157.727C39.6209 161.006 40.6672 165.125 42.9465 167.984C45.2257 170.851 48.5326 172.72 51.8394 174.261C65.4872 180.707 83.3759 186.162 96.9582 176.531C103.245 172.075 107.131 164.668 102.479 157.652C101.162 155.662 99.2749 153.86 98.9573 151.515C98.7705 150.02 99.2469 148.516 99.4337 147.012C100.218 140.445 93.6047 135.102 91.7084 129.002C91.0825 126.947 90.5687 124.743 91.1292 122.669C91.6897 120.595 93.4085 118.783 94.7537 116.98C98.8172 111.403 99.1535 105.004 97.8737 98.5119C101.601 98.2597 109.251 99.4648 109.644 94.0094C110.12 87.1715 96.7154 85.1912 92.1007 85.0791C87.0751 84.9576 81.5917 85.434 77.8738 88.8717C77.0891 89.5536 76.3885 90.3569 75.8 91.2444Z" fill="white"/>
<path d="M79.6204 182.277C71.6055 182.277 62.3295 179.754 51.643 174.691C48.3362 173.131 44.9453 171.272 42.5819 168.283C40.4147 165.555 39.0228 161.174 40.8351 157.522C41.2834 156.681 41.7972 155.878 42.3857 155.13C43.2918 154.084 43.9457 152.833 44.282 151.478C44.5436 149.843 43.8523 148.293 43.1237 146.639C42.7314 145.808 42.3951 144.958 42.1148 144.08C41.2741 140.661 41.8906 137.036 43.815 134.084C45.7019 131.245 48.0466 128.741 50.7556 126.677C52.0447 125.621 53.3618 124.603 54.6696 123.566C57.7803 121.24 60.7322 118.709 63.5066 115.981C67.6074 111.787 69.1114 107.022 70.6994 101.978C71.8671 98.307 73.0628 94.5144 75.3421 90.9553C75.9492 90.0025 76.6779 89.1338 77.4999 88.3771C81.4887 84.7246 87.3737 84.3977 92.0538 84.5098C95.3606 84.5939 104.777 85.7055 108.532 89.825C109.597 90.9273 110.148 92.4219 110.045 93.9539C109.7 98.8394 104.16 98.8394 100.097 98.8488C99.4801 98.8488 98.8916 98.8488 98.3685 98.8488C99.723 106.256 98.6394 112.244 95.0617 117.149C94.7534 117.597 94.4078 118.017 94.1182 118.447C92.9879 119.699 92.1192 121.175 91.5774 122.781C91.0356 124.752 91.5774 126.854 92.1472 128.853C93.044 131.273 94.249 133.561 95.7436 135.672C98.0322 139.241 100.386 142.912 99.9005 147.05C99.8445 147.536 99.7511 147.994 99.667 148.479C99.4334 149.451 99.3587 150.441 99.4334 151.441C99.639 153.057 100.657 154.393 101.731 155.803C102.133 156.317 102.516 156.84 102.88 157.363C106.113 162.239 106.57 170.273 97.1915 176.896C92.0538 180.502 85.8978 182.389 79.6204 182.277ZM76.1921 91.4878C73.9689 94.9254 72.8012 98.6619 71.6616 102.277C70.1109 107.209 68.4948 112.3 64.2352 116.663C61.4328 119.409 58.4435 121.959 55.3048 124.304C53.997 125.332 52.6893 126.35 51.4095 127.405C48.7752 129.395 46.4959 131.814 44.6744 134.561C42.8902 137.288 42.311 140.633 43.077 143.799C43.3385 144.631 43.6562 145.453 44.0205 146.247C44.7771 147.947 45.5524 149.703 45.2535 151.599C44.8892 153.103 44.1699 154.505 43.1517 155.663C42.5912 156.373 42.0868 157.12 41.6664 157.924C40.041 161.202 41.3208 165.182 43.3105 167.676C45.5711 170.516 48.8406 172.3 52.0447 173.823C71.3813 182.958 85.9819 183.724 96.6871 176.13C102.18 172.244 106.879 165.135 102.086 157.896C101.741 157.382 101.367 156.877 100.984 156.382C99.8818 154.934 98.7328 153.43 98.4993 151.571C98.4059 150.479 98.49 149.386 98.7422 148.321C98.8263 147.863 98.9103 147.377 98.957 146.947C99.4241 143.155 97.2476 139.727 94.9589 136.149C93.4176 133.972 92.1752 131.609 91.2598 129.105C90.6059 126.985 90.0734 124.706 90.6712 122.473C91.2504 120.764 92.1845 119.194 93.3896 117.858C93.7259 117.438 94.0528 117.027 94.3331 116.597C97.8454 111.787 98.8356 105.873 97.3783 98.4845C97.3503 98.3537 97.3877 98.2136 97.4718 98.1015C97.5558 97.9987 97.6773 97.9333 97.8174 97.924C98.49 97.924 99.2933 97.924 100.143 97.924C104.029 97.924 108.868 97.924 109.139 93.9165C109.205 92.6741 108.756 91.4504 107.897 90.5536C104.375 86.6957 95.0804 85.6214 92.0911 85.5467C87.5886 85.4346 81.9464 85.7428 78.2005 89.1711C77.4345 89.8437 76.7619 90.6284 76.1921 91.4878Z" fill="#464646"/>
<path d="M99.9107 110.638C99.7425 109.331 99.2101 108.088 98.388 107.061C97.8742 106.192 97.239 105.398 96.4917 104.707C95.7164 104.015 94.6702 103.716 93.6519 103.894C92.7739 104.127 92.0266 104.735 91.6249 105.557C91.2232 106.369 91.0177 107.257 91.0083 108.163C90.8962 112.161 92.914 115.926 96.3142 118.037L96.0247 117.728" fill="white"/>
<path d="M96.3056 118.541C96.2216 118.541 96.1375 118.513 96.0721 118.475C92.5131 116.271 90.3832 112.338 90.486 108.153C90.486 107.163 90.7195 106.192 91.1586 105.313C91.6256 104.37 92.485 103.679 93.5032 103.417C94.6709 103.221 95.8666 103.567 96.7447 104.361C97.5387 105.071 98.2206 105.902 98.7718 106.817C99.6499 107.91 100.201 109.218 100.378 110.61C100.388 110.872 100.182 111.096 99.9208 111.105C99.6685 111.124 99.4537 110.928 99.435 110.675C99.435 110.666 99.435 110.647 99.435 110.638C99.2575 109.424 98.7531 108.275 97.9871 107.322C97.4827 106.49 96.8661 105.734 96.1468 105.071C95.4836 104.473 94.5868 104.211 93.7088 104.351C92.9614 104.557 92.3356 105.071 91.9899 105.771C91.6256 106.518 91.4388 107.34 91.4295 108.172C91.3454 111.768 93.0455 115.178 95.9694 117.261C96.1095 117.252 96.2496 117.308 96.3524 117.41L96.6419 117.709C96.8288 117.896 96.8194 118.195 96.6326 118.382C96.5392 118.466 96.4271 118.522 96.2963 118.522V118.541H96.3056Z" fill="#464646"/>
<path d="M59.4525 108.926C59.4525 108.926 126.86 100.398 127.168 86.3484C127.476 72.299 98.6675 74.9052 76.0521 83.7889C54.4175 92.2895 44.88 109.3 59.4525 108.926Z" fill="#209FAE"/>
<path d="M58.9764 109.395C53.6799 109.395 52.3441 107.004 52.0919 105.603C50.9429 99.9138 60.4337 89.4795 75.8843 83.3889C92.6801 76.7565 115.239 73.076 123.974 79.1853C126.402 80.764 127.794 83.5197 127.645 86.4061C127.318 100.624 62.2833 109.087 59.5182 109.433H58.9764V109.395ZM110.317 76.9527C100.116 76.9527 86.9912 80.0073 76.2299 84.239C61.6481 89.9278 51.9517 100.119 53.0167 105.369C53.5584 108.031 56.8092 108.508 59.4061 108.452C60.1348 108.358 76.697 106.201 93.0818 102.417C114.95 97.3823 126.561 91.8148 126.683 86.2941C126.813 83.7252 125.571 81.2777 123.423 79.8765C120.461 77.8308 115.819 76.9527 110.317 76.9527Z" fill="#464646"/>
<path d="M106.478 85.3884C106.478 85.3884 89.2712 98.4197 71.3918 97.1866C71.3918 97.1866 66.936 81.7173 75.9223 74.9074C84.9087 68.0976 96.1838 70.6291 99.173 72.5721C104.208 75.9256 106.478 85.3884 106.478 85.3884Z" fill="#209FAE"/>
<path d="M73.7732 97.7369C72.9699 97.7369 72.1572 97.7369 71.3538 97.6622C71.1577 97.6435 70.9895 97.5127 70.9335 97.3165C70.1862 94.4861 69.8125 91.5716 69.8125 88.6384C69.8125 82.3049 71.8396 77.4381 75.6322 74.5703C84.7493 67.667 96.2019 70.0678 99.4433 72.2256C104.562 75.6352 106.851 84.9299 106.944 85.3222C106.991 85.509 106.916 85.7052 106.767 85.8173C106.608 85.892 90.7372 97.7369 73.7732 97.7369ZM71.7742 96.728C88.0001 97.6715 103.778 86.7608 105.954 85.2008C105.515 83.566 103.245 75.8501 98.9295 72.9729C95.959 70.9926 84.8428 68.76 76.23 75.2896C68.2899 81.2774 71.2044 94.5048 71.7742 96.728Z" fill="#464646"/>
<path d="M70.2791 92.4324C70.0176 92.4324 69.8027 92.2176 69.8027 91.956C69.8027 91.6944 70.0176 91.4796 70.2791 91.4796C70.5127 91.4796 94.4733 88.4903 104.412 79.8683C104.609 79.7001 104.908 79.7188 105.085 79.915C105.253 80.1111 105.235 80.4007 105.038 80.5689L105.029 80.5782C94.8283 89.4058 71.3347 92.3016 70.3352 92.4324H70.2791Z" fill="#464646"/>
</svg>
