<svg width="275" height="284" viewBox="0 0 275 284" fill="none" xmlns="http://www.w3.org/2000/svg">
<path d="M87.758 248H34.6518C17.722 248 4 234.259 4 217.306V66.6936C4 49.7408 17.722 36 34.6518 36H185.06C201.99 36 215.712 49.7408 215.712 66.6936V91.3198C215.712 96.3164 211.791 100.242 206.801 100.242C201.812 100.242 197.891 96.3164 197.891 91.3198V66.6936C197.891 59.5556 192.01 53.8451 185.06 53.8451H34.6518C27.5235 53.8451 21.8209 59.734 21.8209 66.6936V217.306C21.8209 224.444 27.7017 230.155 34.6518 230.155H87.758C92.7479 230.155 96.6685 234.081 96.6685 239.077C96.6685 244.074 92.7479 248 87.758 248Z" fill="white"/>
<path d="M157.792 239.645C155.297 239.645 152.803 238.575 151.02 236.612L80.9845 156.666C77.7767 152.918 78.1331 147.386 81.8755 143.996C85.6179 140.783 91.1423 141.14 94.5283 144.888L157.614 216.982L255.272 99.9181C258.48 96.1706 264.183 95.6353 267.747 98.8474C271.489 102.06 272.024 107.591 268.816 111.339L164.564 236.255C162.96 238.575 160.466 239.645 157.792 239.645Z" fill="white"/>
</svg>
