<svg width="16" height="19" viewBox="0 0 16 19" fill="none" xmlns="http://www.w3.org/2000/svg">
<path fill-rule="evenodd" clip-rule="evenodd" d="M11.1833 14.0782C10.0517 14.8459 8.70443 15.2913 7.25841 15.2913C3.2497 15.2913 0 11.8682 0 7.64563C0 3.42307 3.2497 0 7.25841 0C11.2671 0 14.5168 3.42307 14.5168 7.64563C14.5168 9.82125 13.6541 11.7846 12.2694 13.1769L15.8452 17.8127C16.086 18.1248 16.0409 18.5834 15.7446 18.837C15.4483 19.0905 15.0129 19.0431 14.7722 18.731L11.1833 14.0782ZM13.1343 7.64563C13.1343 11.0639 10.5036 13.835 7.25841 13.835C4.01327 13.835 1.38256 11.0639 1.38256 7.64563C1.38256 4.22737 4.01327 1.45631 7.25841 1.45631C10.5036 1.45631 13.1343 4.22737 13.1343 7.64563Z" fill="white"/>
</svg>
