<svg width="10" height="12" viewBox="0 0 10 12" fill="none" xmlns="http://www.w3.org/2000/svg">
<path fill-rule="evenodd" clip-rule="evenodd" d="M6.98954 8.8915C6.2823 9.37634 5.44027 9.65764 4.53651 9.65764C2.03106 9.65764 0 7.49571 0 4.82882C0 2.16194 2.03106 0 4.53651 0C7.04195 0 9.07302 2.16194 9.07302 4.82882C9.07302 6.20289 8.53384 7.44292 7.66839 8.32226L9.90326 11.2501C10.0537 11.4472 10.0256 11.7369 9.84038 11.897C9.65519 12.0572 9.38309 12.0272 9.23262 11.8301L6.98954 8.8915ZM8.20892 4.82882C8.20892 6.98773 6.56473 8.73787 4.53651 8.73787C2.50829 8.73787 0.864097 6.98773 0.864097 4.82882C0.864097 2.66991 2.50829 0.919775 4.53651 0.919775C6.56473 0.919775 8.20892 2.66991 8.20892 4.82882Z" fill="#464646"/>
</svg>
