<svg width="14" height="16" viewBox="0 0 14 16" fill="none" xmlns="http://www.w3.org/2000/svg">
<path fill-rule="evenodd" clip-rule="evenodd" d="M9.68175 11.3734C8.80328 11.9391 7.75738 12.2672 6.63482 12.2672C3.5228 12.2672 1 9.74499 1 6.63362C1 3.52226 3.5228 1 6.63482 1C9.74685 1 12.2696 3.52226 12.2696 6.63362C12.2696 8.23671 11.5999 9.68341 10.525 10.7093L13.3009 14.1251C13.4878 14.3551 13.4528 14.693 13.2228 14.8799C12.9928 15.0667 12.6548 15.0318 12.4679 14.8018L9.68175 11.3734ZM11.1963 6.63362C11.1963 9.15235 9.15408 11.1942 6.63482 11.1942C4.11556 11.1942 2.0733 9.15235 2.0733 6.63362C2.0733 4.1149 4.11556 2.07307 6.63482 2.07307C9.15408 2.07307 11.1963 4.1149 11.1963 6.63362Z" fill="#209FAE" stroke="#209FAE" stroke-width="0.5" stroke-linecap="round" stroke-linejoin="round"/>
</svg>
