<svg width="512" height="512" viewBox="0 0 512 512" fill="none" xmlns="http://www.w3.org/2000/svg">
<circle cx="255.986" cy="255.986" r="222.986" fill="#209FAE"/>
<path fill-rule="evenodd" clip-rule="evenodd" d="M165.4 370.231C168.024 372.861 171.431 374.225 174.896 374.225C177.197 374.225 179.525 373.622 181.665 372.39L363.539 267.663C367.77 265.227 370.296 260.857 370.296 255.975C370.296 251.092 367.77 246.722 363.539 244.286L181.67 139.565C176.31 136.478 169.774 137.346 165.405 141.725C161.036 146.104 160.183 152.641 163.282 157.995L219.999 255.975L163.277 353.961C160.179 359.314 161.032 365.852 165.4 370.231ZM171.679 363.965C171.094 363.378 169.311 361.243 170.954 358.405L227.677 260.418H358.343L177.238 364.703C174.396 366.34 172.265 364.552 171.679 363.965ZM358.367 251.547L177.242 147.254C174.401 145.618 172.271 147.404 171.685 147.991C171.099 148.578 169.316 150.714 170.959 153.551L227.684 251.547H358.367Z" fill="white"/>
</svg>
