<svg width="23" height="21" viewBox="0 0 23 21" fill="none" xmlns="http://www.w3.org/2000/svg">
<path fill-rule="evenodd" clip-rule="evenodd" d="M20 0H2C0.89543 0 0 0.89543 0 2V16C0 17.1046 0.89543 18 2 18H13V16.0001H1.99888V6.61787L10.9997 11.1187L19.9989 6.61912V12H22V2C22 0.89543 21.1046 0 20 0ZM10.9997 8.88263L1.99888 4.38176V2.00014H19.9989V4.38305L10.9997 8.88263ZM22.2992 17.4305H19.5136V20.3002H17.4705V17.4305H14.6992V15.5559H17.4705V12.7002H19.5136V15.5559H22.2992V17.4305ZM19.2144 17.1303H21.9992V17.1305H19.2144V17.1303ZM17.7713 20H19.2136V20.0002H17.7705V17.1305H14.9992V15.8559H15V17.1303H17.7713V20ZM17.7713 15.8557H17.7705V13.0002H17.7713V15.8557Z" fill="#464646"/>
</svg>
