<svg width="134" height="135" viewBox="0 0 134 135" fill="none" xmlns="http://www.w3.org/2000/svg">
<rect width="134" height="134" rx="67" fill="#E2ECF8" fill-opacity="0.3"/>
<path d="M68.3234 60.3413C76.1183 52.5465 76.1183 39.9086 68.3234 32.1138C60.5286 24.319 47.8907 24.319 40.0959 32.1138C32.3011 39.9086 32.3011 52.5465 40.0959 60.3413C47.8907 68.1361 60.5286 68.1361 68.3234 60.3413Z" fill="#F4F4F4"/>
<path d="M85.9645 128.856H22.4436V87.6298C22.4436 78.5707 29.7894 71.2249 38.8485 71.2249H69.5382C78.5973 71.2249 85.9431 78.5707 85.9431 87.6298V91.035V123.609" fill="#F4F4F4"/>
<path d="M54.2039 99.6444L65.9401 71.2249H42.4678L54.2039 99.6444Z" fill="#C6DBDC"/>
<path d="M85.9646 129.434C95.0012 129.434 102.327 122.109 102.327 113.072C102.327 104.036 95.0012 96.7102 85.9646 96.7102C76.9281 96.7102 69.6025 104.036 69.6025 113.072C69.6025 122.109 76.9281 129.434 85.9646 129.434Z" fill="url(#paint0_linear)"/>
<path d="M48.5288 85.8737L54.2041 78.1638L59.8581 85.8737L54.2041 99.6444L48.5288 85.8737Z" fill="#F4F4F4"/>
<path d="M49.0857 71.2249L54.2042 78.1638L59.3227 71.2249H49.0857Z" fill="#F4F4F4"/>
<path d="M74.1643 46.2321C74.1643 46.9602 74.1215 47.6884 74.0572 48.3951C64.2914 47.0673 55.3393 43.2338 47.8436 37.5799C44.4598 42.6341 39.8981 46.8103 34.5655 49.7443C34.3727 48.6093 34.2656 47.4314 34.2656 46.2321C34.2656 35.2026 43.1963 26.272 54.2257 26.272C65.2337 26.2506 74.1643 35.2026 74.1643 46.2321Z" fill="#C6DBDC"/>
<path d="M54.2041 67.2842C42.5964 67.2842 33.1304 57.8396 33.1304 46.2105C33.1304 34.6028 42.5964 25.1582 54.2041 25.1582C65.8117 25.1582 75.2564 34.6028 75.2564 46.2319C75.2564 57.8396 65.8117 67.2842 54.2041 67.2842ZM54.2041 27.3641C43.7957 27.3641 35.3363 35.8236 35.3363 46.2319C35.3363 56.6403 43.7957 65.0997 54.2041 65.0997C64.6124 65.0997 73.0719 56.6403 73.0719 46.2319C73.0719 35.8236 64.6124 27.3641 54.2041 27.3641Z" fill="#6F7273"/>
<path d="M69.8808 129.949H22.4436C21.8439 129.949 21.3513 129.456 21.3513 128.856V87.6299C21.3513 77.9711 29.2111 70.1113 38.8699 70.1113H69.5596C79.2183 70.1113 87.0781 77.9711 87.0781 87.6299V91.0351C87.0781 91.6348 86.5856 92.1274 85.9859 92.1274C85.3863 92.1274 84.8937 91.6348 84.8937 91.0351V87.6299C84.8937 79.1919 78.019 72.3172 69.581 72.3172H38.8485C30.4104 72.3172 23.5358 79.1919 23.5358 87.6299V127.743H69.8594C70.459 127.743 70.9516 128.235 70.9516 128.835C70.9516 129.435 70.4805 129.949 69.8808 129.949Z" fill="#6F7273"/>
<path d="M54.2045 100.737C53.7548 100.737 53.3693 100.458 53.198 100.051L41.4618 71.6319C41.3119 71.2892 41.3547 70.9037 41.5689 70.6039C41.783 70.3041 42.1257 70.1113 42.4898 70.1113H65.9621C66.3262 70.1113 66.6689 70.3041 66.883 70.6039C67.0972 70.9037 67.1186 71.2892 66.9901 71.6319L55.2539 100.051C55.0398 100.458 54.6543 100.737 54.2045 100.737ZM44.1174 72.3172L54.2045 96.7533L64.2916 72.3172H44.1174V72.3172Z" fill="#6F7273"/>
<path d="M85.9645 130.548C76.3272 130.548 68.4888 122.71 68.4888 113.072C68.4888 103.435 76.3272 95.5967 85.9645 95.5967C95.6019 95.5967 103.44 103.435 103.44 113.072C103.44 122.71 95.6019 130.548 85.9645 130.548ZM85.9645 97.8026C77.5479 97.8026 70.6947 104.656 70.6947 113.072C70.6947 121.489 77.5479 128.342 85.9645 128.342C94.3812 128.342 101.234 121.489 101.234 113.072C101.234 104.656 94.4026 97.8026 85.9645 97.8026Z" fill="#6F7273"/>
<path d="M92.304 123.545C91.9614 123.545 91.5973 123.373 91.3831 123.052C91.0405 122.56 91.169 121.874 91.683 121.532C94.5099 119.626 96.1804 116.456 96.1804 113.051C96.1804 112.451 96.673 111.958 97.2727 111.958C97.8723 111.958 98.3649 112.451 98.3649 113.051C98.3649 117.184 96.3089 121.018 92.8823 123.352C92.7324 123.502 92.5182 123.545 92.304 123.545Z" fill="#6F7273"/>
<path d="M77.3547 106.84C77.0977 106.84 76.8407 106.755 76.648 106.583C76.1768 106.198 76.134 105.491 76.5195 105.041C78.8753 102.257 82.3233 100.672 85.9855 100.672C89.3051 100.672 92.4104 101.957 94.7662 104.313C95.1946 104.741 95.1946 105.448 94.7662 105.877C94.3379 106.305 93.6312 106.305 93.2029 105.877C91.2754 103.949 88.7054 102.878 85.9855 102.878C82.9872 102.878 80.1389 104.185 78.19 106.476C77.9758 106.712 77.6546 106.84 77.3547 106.84Z" fill="#6F7273"/>
<path d="M54.204 100.737C53.7971 100.737 53.4116 100.523 53.2189 100.137C52.9405 99.6017 53.1546 98.9378 53.69 98.6594L69.1527 90.7139L66.2186 84.546C66.0901 84.2676 66.0687 83.9678 66.1758 83.6893C66.2829 83.4109 66.497 83.1968 66.754 83.0683L72.8791 80.3698L67.9748 71.7604C67.6749 71.225 67.8677 70.5611 68.3817 70.2613C68.9171 69.9615 69.581 70.1542 69.8808 70.6682L75.3848 80.3484C75.5347 80.6268 75.5776 80.948 75.4705 81.2265C75.3634 81.5263 75.1493 81.7619 74.8708 81.8904L68.6601 84.6317L71.5727 90.7353C71.8297 91.2707 71.6156 91.9132 71.0801 92.1916L54.6752 100.63C54.5467 100.694 54.3754 100.737 54.204 100.737Z" fill="#6F7273"/>
<path d="M54.2045 100.736C54.0331 100.736 53.8618 100.694 53.7119 100.608L37.2855 92.1914C36.7501 91.9129 36.536 91.2705 36.793 90.735L39.7056 84.6314L33.4948 81.8901C33.2164 81.7616 33.0023 81.526 32.8952 81.2262C32.7881 80.9264 32.8309 80.6051 32.9808 80.3481L38.4849 70.6679C38.7847 70.1325 39.4486 69.9612 39.984 70.261C40.5194 70.5608 40.6907 71.2247 40.3909 71.7602L35.4866 80.3695L41.6116 83.068C41.8901 83.1965 42.1042 83.4106 42.1899 83.6891C42.297 83.9675 42.2755 84.2673 42.147 84.5457L39.213 90.7136L54.6756 98.6591C55.211 98.9375 55.4252 99.6014 55.1468 100.137C54.9755 100.522 54.59 100.736 54.2045 100.736Z" fill="#6F7273"/>
<path d="M54.2043 129.949C53.6046 129.949 53.1121 129.456 53.1121 128.856V99.6445C53.1121 99.0448 53.6046 98.5522 54.2043 98.5522C54.804 98.5522 55.2965 99.0448 55.2965 99.6445V128.856C55.2965 129.456 54.804 129.949 54.2043 129.949Z" fill="#6F7273"/>
<path d="M48.5286 86.9656C48.293 86.9656 48.0789 86.9013 47.8861 86.7514C47.3936 86.3873 47.2865 85.702 47.6505 85.2094L53.3259 77.4995C53.54 77.2211 53.8613 77.0498 54.204 77.0498C54.5466 77.0498 54.8893 77.2211 55.082 77.4995L60.7359 85.2094C61.1 85.702 60.9929 86.3873 60.5004 86.7514C60.0078 87.1155 59.3225 87.0084 58.9584 86.5158L54.204 80.0267L49.4067 86.5373C49.1925 86.8157 48.8713 86.9656 48.5286 86.9656Z" fill="#6F7273"/>
<path d="M54.2044 79.2561C53.8617 79.2561 53.519 79.0848 53.3263 78.8064L48.2078 71.8675C47.9722 71.5248 47.9294 71.0965 48.1221 70.711C48.3149 70.3469 48.6789 70.1113 49.1073 70.1113H59.3443C59.7512 70.1113 60.1367 70.3469 60.3295 70.711C60.5222 71.0751 60.4794 71.5248 60.2438 71.8675L55.1253 78.8064C54.8897 79.1062 54.547 79.2561 54.2044 79.2561ZM51.2703 72.3172L54.2044 76.3007L57.1384 72.3172H51.2703Z" fill="#6F7273"/>
<path d="M42.0609 103.307H30.496C29.8964 103.307 29.4038 102.814 29.4038 102.215C29.4038 101.615 29.8964 101.122 30.496 101.122H42.0609C42.6605 101.122 43.1531 101.615 43.1531 102.215C43.1531 102.814 42.6605 103.307 42.0609 103.307Z" fill="#6F7273"/>
<path d="M34.5442 50.8364C34.3729 50.8364 34.223 50.7936 34.073 50.7293C33.7518 50.5794 33.5376 50.2796 33.4734 49.9369C33.2592 48.7162 33.1521 47.4741 33.1521 46.2319C33.1307 34.6028 42.5968 25.1582 54.2044 25.1582C65.8121 25.1582 75.2567 34.6028 75.2567 46.2319C75.2567 47.0029 75.2139 47.7739 75.1282 48.5235C75.0854 48.8233 74.9355 49.0803 74.7213 49.273C74.4857 49.4444 74.1859 49.53 73.9075 49.4872C64.6128 48.2236 55.7036 44.6471 48.1008 39.1431C44.6956 43.9189 40.2195 47.9024 35.0796 50.7293C34.9083 50.7936 34.7369 50.8364 34.5442 50.8364ZM54.2044 27.3641C43.7961 27.3641 35.3366 35.8236 35.3366 46.2319C35.3366 46.8102 35.358 47.3884 35.4223 47.9666C39.984 45.1825 43.946 41.4132 46.9229 36.9586C47.0942 36.7016 47.3512 36.5303 47.651 36.4875C47.9508 36.4446 48.2507 36.5089 48.4863 36.7016C55.6822 42.1414 64.163 45.7393 73.0508 47.1314C73.0722 46.8316 73.0722 46.5317 73.0722 46.2319C73.0722 35.8236 64.6128 27.3641 54.2044 27.3641Z" fill="#6F7273"/>
<path d="M47.822 38.6721C47.2223 38.6721 46.7297 38.1795 46.7297 37.5799V27.3C46.7297 26.7003 47.2223 26.2078 47.822 26.2078C48.4216 26.2078 48.9142 26.7003 48.9142 27.3V37.5799C48.9356 38.1795 48.443 38.6721 47.822 38.6721Z" fill="#6F7273"/>
<path d="M112.092 134.81C111.857 134.81 111.621 134.725 111.407 134.575L98.1289 124.081C97.6578 123.695 97.5721 123.01 97.9576 122.539C98.3431 122.067 99.0284 121.982 99.4996 122.367L112.778 132.861C113.249 133.247 113.335 133.932 112.949 134.403C112.735 134.66 112.414 134.81 112.092 134.81Z" fill="#6F7273"/>
<defs>
<linearGradient id="paint0_linear" x1="85.9728" y1="96.705" x2="85.9728" y2="129.442" gradientUnits="userSpaceOnUse">
<stop stop-color="#E1EEEE"/>
<stop offset="1" stop-color="#C6DBDC"/>
</linearGradient>
</defs>
</svg>
