<svg width="193" height="193" viewBox="0 0 193 193" fill="none" xmlns="http://www.w3.org/2000/svg">
<path fill-rule="evenodd" clip-rule="evenodd" d="M53.884 150.298C34.6879 135.204 21.438 111.599 24.1124 87.4511C26.5928 65.0562 46.9223 50.6986 66.1998 39.0988C82.4907 29.2961 101.623 23.8329 119.754 29.9007C136.587 35.5342 145.79 51.9185 152.978 68.1403C160.048 84.0964 164.335 101.109 158.562 117.487C151.613 137.202 139.656 156.338 119.684 162.598C97.3604 169.595 72.3712 164.834 53.884 150.298Z" fill="#DAF0F2"/>
<path d="M128.414 59.5H124.789V45C124.789 29.0065 111.783 16 95.7891 16C79.7956 16 66.7891 29.0065 66.7891 45V59.5H63.1641C57.1707 59.5 52.2891 64.3768 52.2891 70.375V121.125C52.2891 127.123 57.1707 132 63.1641 132H128.414C134.407 132 139.289 127.123 139.289 121.125V70.375C139.289 64.3768 134.407 59.5 128.414 59.5ZM76.4557 45C76.4557 34.3377 85.1267 25.6667 95.7891 25.6667C106.451 25.6667 115.122 34.3377 115.122 45V59.5H76.4557V45ZM100.622 96.823V107.833C100.622 110.501 98.4619 112.667 95.7891 112.667C93.1162 112.667 90.9557 110.501 90.9557 107.833V96.823C88.0799 95.1458 86.1224 92.0622 86.1224 88.5C86.1224 83.1688 90.4579 78.8333 95.7891 78.8333C101.12 78.8333 105.456 83.1688 105.456 88.5C105.456 92.0622 103.498 95.1458 100.622 96.823Z" fill="#209FAE"/>
<path d="M61.8468 150.496C61.6359 150.626 61.4251 150.738 61.2142 150.832C61.015 150.915 60.8042 150.973 60.5816 151.009C61.0385 151.08 61.4602 151.244 61.8468 151.504L64.6408 153.147L63.6216 154.915L60.8276 153.271C60.6167 153.141 60.4176 153.006 60.2301 152.865C60.0544 152.723 59.9021 152.57 59.7733 152.405C59.9256 152.794 60.0017 153.242 60.0017 153.748V157H57.9282V153.766C57.9282 153.53 57.9399 153.3 57.9633 153.077C57.9985 152.853 58.0512 152.641 58.1215 152.44C57.9926 152.605 57.8403 152.753 57.6646 152.882C57.4889 153.012 57.3014 153.141 57.1023 153.271L54.3258 154.897L53.2891 153.13L56.0831 151.504C56.5282 151.244 56.95 151.08 57.3483 151.009C56.9383 150.938 56.5165 150.767 56.0831 150.496L53.2891 148.853L54.3083 147.085L57.1023 148.747C57.3131 148.876 57.5064 149.012 57.6822 149.153C57.8579 149.283 58.016 149.43 58.1566 149.595C58.0043 149.206 57.9282 148.764 57.9282 148.27V145H60.0017V148.234C60.0017 148.482 59.9841 148.717 59.949 148.941C59.9256 149.165 59.8728 149.377 59.7908 149.577C59.9314 149.412 60.0896 149.265 60.2653 149.135C60.441 149.006 60.6285 148.876 60.8276 148.747L63.604 147.121L64.6408 148.888L61.8468 150.496Z" fill="#209FAE"/>
<path d="M76.7765 150.496C76.5656 150.626 76.3547 150.738 76.1439 150.832C75.9447 150.915 75.7338 150.973 75.5112 151.009C75.9681 151.08 76.3899 151.244 76.7765 151.504L79.5705 153.147L78.5513 154.915L75.7573 153.271C75.5464 153.141 75.3472 153.006 75.1598 152.865C74.9841 152.723 74.8318 152.57 74.7029 152.405C74.8552 152.794 74.9314 153.242 74.9314 153.748V157H72.8578V153.766C72.8578 153.53 72.8695 153.3 72.893 153.077C72.9281 152.853 72.9808 152.641 73.0511 152.44C72.9223 152.605 72.77 152.753 72.5942 152.882C72.4185 153.012 72.2311 153.141 72.0319 153.271L69.2555 154.897L68.2187 153.13L71.0127 151.504C71.4579 151.244 71.8796 151.08 72.2779 151.009C71.8679 150.938 71.4462 150.767 71.0127 150.496L68.2187 148.853L69.2379 147.085L72.0319 148.747C72.2428 148.876 72.4361 149.012 72.6118 149.153C72.7875 149.283 72.9457 149.43 73.0863 149.595C72.934 149.206 72.8578 148.764 72.8578 148.27V145H74.9314V148.234C74.9314 148.482 74.9138 148.717 74.8786 148.941C74.8552 149.165 74.8025 149.377 74.7205 149.577C74.8611 149.412 75.0192 149.265 75.1949 149.135C75.3707 149.006 75.5581 148.876 75.7573 148.747L78.5337 147.121L79.5705 148.888L76.7765 150.496Z" fill="#209FAE"/>
<path d="M91.7061 150.496C91.4952 150.626 91.2844 150.738 91.0735 150.832C90.8743 150.915 90.6635 150.973 90.4409 151.009C90.8978 151.08 91.3195 151.244 91.7061 151.504L94.5001 153.147L93.4809 154.915L90.6869 153.271C90.476 153.141 90.2769 153.006 90.0895 152.865C89.9137 152.723 89.7614 152.57 89.6326 152.405C89.7849 152.794 89.861 153.242 89.861 153.748V157H87.7875V153.766C87.7875 153.53 87.7992 153.3 87.8226 153.077C87.8578 152.853 87.9105 152.641 87.9808 152.44C87.8519 152.605 87.6996 152.753 87.5239 152.882C87.3482 153.012 87.1607 153.141 86.9616 153.271L84.1851 154.897L83.1484 153.13L85.9424 151.504C86.3875 151.244 86.8093 151.08 87.2076 151.009C86.7976 150.938 86.3758 150.767 85.9424 150.496L83.1484 148.853L84.1676 147.085L86.9616 148.747C87.1724 148.876 87.3657 149.012 87.5415 149.153C87.7172 149.283 87.8753 149.43 88.0159 149.595C87.8636 149.206 87.7875 148.764 87.7875 148.27V145H89.861V148.234C89.861 148.482 89.8434 148.717 89.8083 148.941C89.7849 149.165 89.7321 149.377 89.6501 149.577C89.7907 149.412 89.9489 149.265 90.1246 149.135C90.3003 149.006 90.4878 148.876 90.6869 148.747L93.4633 147.121L94.5001 148.888L91.7061 150.496Z" fill="#209FAE"/>
<path d="M106.636 150.496C106.425 150.626 106.214 150.738 106.003 150.832C105.804 150.915 105.593 150.973 105.371 151.009C105.827 151.08 106.249 151.244 106.636 151.504L109.43 153.147L108.411 154.915L105.617 153.271C105.406 153.141 105.207 153.006 105.019 152.865C104.843 152.723 104.691 152.57 104.562 152.405C104.715 152.794 104.791 153.242 104.791 153.748V157H102.717V153.766C102.717 153.53 102.729 153.3 102.752 153.077C102.787 152.853 102.84 152.641 102.91 152.44C102.782 152.605 102.629 152.753 102.454 152.882C102.278 153.012 102.09 153.141 101.891 153.271L99.1148 154.897L98.078 153.13L100.872 151.504C101.317 151.244 101.739 151.08 102.137 151.009C101.727 150.938 101.305 150.767 100.872 150.496L98.078 148.853L99.0972 147.085L101.891 148.747C102.102 148.876 102.295 149.012 102.471 149.153C102.647 149.283 102.805 149.43 102.946 149.595C102.793 149.206 102.717 148.764 102.717 148.27V145H104.791V148.234C104.791 148.482 104.773 148.717 104.738 148.941C104.715 149.165 104.662 149.377 104.58 149.577C104.72 149.412 104.879 149.265 105.054 149.135C105.23 149.006 105.417 148.876 105.617 148.747L108.393 147.121L109.43 148.888L106.636 150.496Z" fill="#209FAE"/>
<path d="M121.565 150.496C121.355 150.626 121.144 150.738 120.933 150.832C120.734 150.915 120.523 150.973 120.3 151.009C120.757 151.08 121.179 151.244 121.565 151.504L124.359 153.147L123.34 154.915L120.546 153.271C120.335 153.141 120.136 153.006 119.949 152.865C119.773 152.723 119.621 152.57 119.492 152.405C119.644 152.794 119.72 153.242 119.72 153.748V157H117.647V153.766C117.647 153.53 117.658 153.3 117.682 153.077C117.717 152.853 117.77 152.641 117.84 152.44C117.711 152.605 117.559 152.753 117.383 152.882C117.207 153.012 117.02 153.141 116.821 153.271L114.044 154.897L113.008 153.13L115.802 151.504C116.247 151.244 116.669 151.08 117.067 151.009C116.657 150.938 116.235 150.767 115.802 150.496L113.008 148.853L114.027 147.085L116.821 148.747C117.032 148.876 117.225 149.012 117.401 149.153C117.576 149.283 117.735 149.43 117.875 149.595C117.723 149.206 117.647 148.764 117.647 148.27V145H119.72V148.234C119.72 148.482 119.703 148.717 119.668 148.941C119.644 149.165 119.591 149.377 119.509 149.577C119.65 149.412 119.808 149.265 119.984 149.135C120.16 149.006 120.347 148.876 120.546 148.747L123.323 147.121L124.359 148.888L121.565 150.496Z" fill="#209FAE"/>
<path d="M136.495 150.496C136.284 150.626 136.073 150.738 135.862 150.832C135.663 150.915 135.452 150.973 135.23 151.009C135.687 151.08 136.108 151.244 136.495 151.504L139.289 153.147L138.27 154.915L135.476 153.271C135.265 153.141 135.066 153.006 134.878 152.865C134.703 152.723 134.55 152.57 134.422 152.405C134.574 152.794 134.65 153.242 134.65 153.748V157H132.576V153.766C132.576 153.53 132.588 153.3 132.612 153.077C132.647 152.853 132.699 152.641 132.77 152.44C132.641 152.605 132.489 152.753 132.313 152.882C132.137 153.012 131.95 153.141 131.751 153.271L128.974 154.897L127.937 153.13L130.731 151.504C131.176 151.244 131.598 151.08 131.997 151.009C131.587 150.938 131.165 150.767 130.731 150.496L127.937 148.853L128.957 147.085L131.751 148.747C131.961 148.876 132.155 149.012 132.33 149.153C132.506 149.283 132.664 149.43 132.805 149.595C132.653 149.206 132.576 148.764 132.576 148.27V145H134.65V148.234C134.65 148.482 134.632 148.717 134.597 148.941C134.574 149.165 134.521 149.377 134.439 149.577C134.58 149.412 134.738 149.265 134.914 149.135C135.089 149.006 135.277 148.876 135.476 148.747L138.252 147.121L139.289 148.888L136.495 150.496Z" fill="#209FAE"/>
</svg>
