<svg width="326" height="327" viewBox="0 0 326 327" fill="none" xmlns="http://www.w3.org/2000/svg">
<path d="M187.575 305H139.295C129.225 305 120.948 296.712 120.948 286.628V270.329C110.464 266.185 100.67 260.521 91.8416 253.477L77.6333 261.626C73.495 264.113 68.529 264.803 63.8389 263.422C59.1488 262.179 55.1484 259.14 52.6654 254.996L28.5251 213.004C26.0421 208.86 25.4903 203.887 26.7318 199.191C27.9733 194.494 31.0081 190.488 35.1464 188.002L49.3547 179.852C48.3891 173.912 47.9753 168.249 47.9753 163C47.9753 157.751 48.3891 152.088 49.3547 146.148L35.1464 137.998C26.4559 132.749 23.4211 121.56 28.3871 112.858L52.5274 71.0038C55.0104 66.7217 58.8729 63.6829 63.7009 62.4397C68.3911 61.1965 73.3571 61.8872 77.6333 64.3735L91.8416 72.5233C100.808 65.4785 110.464 59.9532 120.948 55.8092V39.3716C120.948 29.288 129.225 21 139.295 21H187.575C197.645 21 205.922 29.288 205.922 39.3716V55.8092C216.406 59.9532 226.062 65.6167 234.89 72.5233L249.098 64.3735C257.927 59.2626 269.238 62.3015 274.204 71.0038L298.345 112.858C303.449 121.698 300.276 133.025 291.585 137.998L277.515 146.148C278.343 151.811 278.757 157.337 278.757 163C278.757 168.525 278.343 174.189 277.515 179.852L291.585 188.002C295.862 190.488 299.034 194.494 300.276 199.329C301.517 204.025 300.828 208.998 298.345 213.142L274.342 254.996C269.238 263.699 257.927 266.737 249.236 261.626L235.028 253.477C226.338 260.521 216.544 266.185 206.06 270.329V286.628C205.922 296.85 197.645 305 187.575 305ZM92.5314 238.144C94.1867 238.144 95.7041 238.696 97.0835 239.802C106.878 248.228 117.913 254.72 130.19 258.864C132.949 259.831 134.88 262.455 134.88 265.356V286.49C134.88 289.115 136.812 291.049 139.433 291.049H187.713C190.334 291.049 192.265 289.115 192.265 286.49V265.356C192.265 262.455 194.059 259.831 196.955 258.864C209.232 254.582 220.268 248.228 229.786 239.802C231.993 237.868 235.304 237.591 237.787 238.973L256.134 249.609C258.341 250.852 261.238 250.161 262.479 247.951L286.619 206.097C287.171 204.992 287.309 203.887 287.033 202.782C286.757 201.539 285.93 200.572 284.826 199.881L266.617 189.383C264.134 187.864 262.755 184.963 263.307 182.062C264.548 175.708 265.1 169.216 265.1 162.862C265.1 156.508 264.548 150.154 263.307 143.661C262.755 140.761 264.134 137.86 266.617 136.34L284.826 125.842C287.033 124.599 287.861 121.698 286.619 119.488L262.479 77.6341C261.238 75.424 258.341 74.7334 256.134 75.9766L237.787 86.4746C235.304 87.994 232.131 87.5797 229.786 85.6458C220.13 77.2198 209.095 70.8656 196.817 66.5835C194.059 65.6166 192.127 62.9922 192.127 60.0915V38.819C192.127 36.3326 190.058 34.2606 187.575 34.2606H139.295C136.812 34.2606 134.742 36.3326 134.742 38.819V60.0915C134.742 62.9922 132.949 65.6166 130.052 66.5835C117.913 70.7275 106.878 77.2198 96.9456 85.6458C94.7385 87.5797 91.5657 87.856 89.0827 86.3365L70.7361 75.8385C69.6326 75.1479 68.3911 75.0096 67.2875 75.2859C66.1839 75.5622 65.2183 76.3911 64.5286 77.358L40.3883 119.212C39.1468 121.422 39.8365 124.323 42.0436 125.566L60.2523 136.064C62.7353 137.584 64.1148 140.484 63.563 143.385C62.1835 150.568 61.6318 156.646 61.6318 162.586C61.6318 168.387 62.3215 174.741 63.563 181.786C64.1148 184.687 62.7353 187.588 60.2523 189.107L41.9057 199.605C40.9401 200.158 40.2504 201.124 39.8365 202.368C39.6986 203.058 39.4227 204.302 40.2504 205.683L64.3907 247.813C64.9424 248.78 65.9081 249.609 67.1496 249.885C67.8393 250.023 69.2187 250.3 70.4602 249.471L88.8069 238.835C90.1863 238.558 91.4278 238.144 92.5314 238.144ZM163.435 216.319C134.053 216.319 110.188 192.422 110.188 163C110.188 133.578 134.053 109.681 163.435 109.681C192.817 109.681 216.681 133.578 216.681 163C216.681 192.422 192.817 216.319 163.435 216.319ZM163.435 123.494C141.64 123.494 123.983 141.175 123.983 163C123.983 184.825 141.64 202.506 163.435 202.506C185.23 202.506 202.887 184.825 202.887 163C202.887 141.175 185.23 123.494 163.435 123.494Z" fill="white"/>
</svg>
