<svg width="75" height="78" viewBox="0 0 75 78" fill="none" xmlns="http://www.w3.org/2000/svg">
<path fill-rule="evenodd" clip-rule="evenodd" d="M66.4225 38.552C66.4225 39.8628 66.3069 41.0964 66.1527 42.3301L74.2871 48.6912C75.0196 49.2695 75.2124 50.3104 74.7497 51.1585L67.0394 64.4975C66.6924 65.1143 66.037 65.4613 65.3816 65.4613C65.1503 65.4613 64.919 65.4227 64.6877 65.3456L55.0882 61.4904C53.0835 62.994 50.9246 64.3047 48.5729 65.2685L47.108 75.4848C46.9923 76.4101 46.1827 77.104 45.2189 77.104H29.7981C28.8343 77.104 28.0247 76.4101 27.9091 75.4848L26.4441 65.2685C24.0924 64.3047 21.9335 63.0325 19.9288 61.4904L10.3294 65.3456C10.1366 65.4227 9.90529 65.4613 9.67397 65.4613C8.98004 65.4613 8.32465 65.1143 7.97769 64.4975L0.267287 51.1585C-0.195337 50.3104 -0.00257678 49.2695 0.729911 48.6912L8.86438 42.3301C8.71017 41.0964 8.59452 39.8242 8.59452 38.552C8.59452 37.2798 8.71017 36.0076 8.86438 34.7739L0.729911 28.4128C-0.00257678 27.8345 -0.233889 26.7936 0.267287 25.9455L7.97769 12.6065C8.32465 11.9897 8.98004 11.6427 9.63542 11.6427C9.86674 11.6427 10.098 11.6813 10.3294 11.7584L19.9288 15.6136C21.9335 14.11 24.0924 12.7993 26.4441 11.8355L27.9091 1.61918C28.0247 0.693936 28.8343 0 29.7981 0H45.2189C46.1827 0 46.9923 0.693936 47.108 1.61918L48.5729 11.8355C50.9246 12.7993 53.0835 14.0715 55.0882 15.6136L64.6877 11.7584C64.8804 11.6813 65.1117 11.6427 65.3431 11.6427C66.037 11.6427 66.6924 11.9897 67.0394 12.6065L74.7497 25.9455C75.2124 26.7936 75.0196 27.8345 74.2871 28.4128L66.1527 34.7739C66.3069 36.0076 66.4225 37.2412 66.4225 38.552ZM58.7067 38.552C58.7067 37.7424 58.6681 36.9328 58.5139 35.7377L57.9742 31.3813L61.4053 28.6827L65.5304 25.4058L62.8317 20.741L57.9356 22.7071L53.8491 24.3649L50.3409 21.6662C48.7988 20.5097 47.2567 19.623 45.599 18.929L41.5125 17.2713L40.8956 12.9149L40.1631 7.7104H34.8044L34.0334 12.9149L33.4165 17.2713L29.33 18.929C27.7494 19.5844 26.1688 20.5097 24.511 21.7433L21.0414 24.3649L17.0319 22.7457L12.1358 20.7795L9.43721 25.4443L13.6008 28.6827L17.0319 31.3813L16.4922 35.7377C16.3766 36.8943 16.2995 37.781 16.2995 38.552C16.2995 39.323 16.3766 40.2097 16.4922 41.4048L17.0319 45.7612L13.6008 48.4599L9.43721 51.6982L12.1358 56.363L17.0319 54.3969L21.1185 52.7391L24.6267 55.4378C26.1688 56.5943 27.7109 57.481 29.3686 58.175L33.4551 59.8327L34.0719 64.1891L34.8044 69.3936H40.2017L40.9727 64.1891L41.5896 59.8327L45.6761 58.175C47.2567 57.5196 48.8373 56.5943 50.4951 55.3607L53.9648 52.7391L57.9742 54.3583L62.8703 56.3245L65.5689 51.6597L61.4053 48.4213L57.9742 45.7227L58.5139 41.3663C58.6296 40.2097 58.7067 39.3616 58.7067 38.552ZM37.5079 23.1312C28.9879 23.1312 22.0871 30.032 22.0871 38.552C22.0871 47.072 28.9879 53.9728 37.5079 53.9728C46.0279 53.9728 52.9287 47.072 52.9287 38.552C52.9287 30.032 46.0279 23.1312 37.5079 23.1312ZM29.7975 38.552C29.7975 42.7927 33.2672 46.2624 37.5079 46.2624C41.7486 46.2624 45.2183 42.7927 45.2183 38.552C45.2183 34.3113 41.7486 30.8416 37.5079 30.8416C33.2672 30.8416 29.7975 34.3113 29.7975 38.552Z" fill="#464646"/>
</svg>
