<svg width="123" height="140" viewBox="0 0 123 140" fill="none" xmlns="http://www.w3.org/2000/svg">
<path fill-rule="evenodd" clip-rule="evenodd" d="M99.3462 49.5124C112.41 49.5124 123 38.563 123 25.0562C123 11.5495 112.41 0.600098 99.3462 0.600098C86.2825 0.600098 75.6923 11.5495 75.6923 25.0562C75.6923 27.94 76.175 30.7072 77.0615 33.2761L39.4664 55.7799C35.2765 51.8834 29.733 49.5124 23.6538 49.5124C10.5902 49.5124 0 60.4618 0 73.9685C0 87.4753 10.5902 98.4247 23.6538 98.4247C32.1852 98.4247 39.6617 93.7548 43.8226 86.7526L74.8141 106.99C73.8526 109.653 73.3269 112.535 73.3269 115.544C73.3269 129.051 83.9171 140 96.9808 140C110.044 140 120.635 129.051 120.635 115.544C120.635 102.037 110.044 91.0878 96.9808 91.0878C91.1097 91.0878 85.7383 93.2993 81.6032 96.9606L47.3009 74.5612C47.3054 74.3642 47.3077 74.1666 47.3077 73.9685C47.3077 71.1737 46.8543 68.4884 46.0193 65.987L83.7224 43.4186C87.8894 47.2117 93.3579 49.5124 99.3462 49.5124ZM99.3462 37.2843C105.878 37.2843 111.173 31.8096 111.173 25.0562C111.173 18.3029 105.878 12.8282 99.3462 12.8282C92.8143 12.8282 87.5192 18.3029 87.5192 25.0562C87.5192 31.8096 92.8143 37.2843 99.3462 37.2843ZM96.9808 127.772C103.513 127.772 108.808 122.297 108.808 115.544C108.808 108.791 103.513 103.316 96.9808 103.316C90.4489 103.316 85.1538 108.791 85.1538 115.544C85.1538 122.297 90.4489 127.772 96.9808 127.772ZM35.4808 73.9685C35.4808 80.7219 30.1857 86.1966 23.6538 86.1966C17.122 86.1966 11.8269 80.7219 11.8269 73.9685C11.8269 67.2151 17.122 61.7404 23.6538 61.7404C30.1857 61.7404 35.4808 67.2151 35.4808 73.9685Z" fill="white"/>
</svg>
