<svg width="14" height="16" viewBox="0 0 14 16" fill="none" xmlns="http://www.w3.org/2000/svg">
<path fill-rule="evenodd" clip-rule="evenodd" d="M11.3077 5.61404C12.7946 5.61404 14 4.35729 14 2.80702C14 1.25674 12.7946 0 11.3077 0C9.82077 0 8.61539 1.25674 8.61539 2.80702C8.61539 3.13801 8.67033 3.45562 8.77123 3.75047L4.49212 6.33341C4.01521 5.88618 3.38424 5.61404 2.69231 5.61404C1.20539 5.61404 0 6.87078 0 8.42105C0 9.97132 1.20539 11.2281 2.69231 11.2281C3.66336 11.2281 4.51434 10.6921 4.98794 9.88838L8.51543 12.2112C8.40598 12.5168 8.34615 12.8476 8.34615 13.193C8.34615 14.7433 9.55154 16 11.0385 16C12.5254 16 13.7308 14.7433 13.7308 13.193C13.7308 11.6427 12.5254 10.386 11.0385 10.386C10.3702 10.386 9.75883 10.6398 9.28817 11.06L5.38384 8.48908C5.38436 8.46647 5.38462 8.44379 5.38462 8.42105C5.38462 8.10027 5.33301 7.79206 5.23797 7.50495L9.52937 4.9146C10.0037 5.34997 10.6261 5.61404 11.3077 5.61404ZM11.3077 4.21053C12.0512 4.21053 12.6538 3.58215 12.6538 2.80702C12.6538 2.03188 12.0512 1.40351 11.3077 1.40351C10.5642 1.40351 9.96154 2.03188 9.96154 2.80702C9.96154 3.58215 10.5642 4.21053 11.3077 4.21053ZM11.0385 14.5965C11.7819 14.5965 12.3846 13.9681 12.3846 13.193C12.3846 12.4178 11.7819 11.7895 11.0385 11.7895C10.295 11.7895 9.69231 12.4178 9.69231 13.193C9.69231 13.9681 10.295 14.5965 11.0385 14.5965ZM4.03846 8.42105C4.03846 9.19619 3.43577 9.82456 2.69231 9.82456C1.94885 9.82456 1.34615 9.19619 1.34615 8.42105C1.34615 7.64592 1.94885 7.01754 2.69231 7.01754C3.43577 7.01754 4.03846 7.64592 4.03846 8.42105Z" fill="#209FAE"/>
</svg>
