<svg width="263" height="299" viewBox="0 0 263 299" fill="none" xmlns="http://www.w3.org/2000/svg">
<path fill-rule="evenodd" clip-rule="evenodd" d="M212.423 104.912C240.356 104.912 263 81.4269 263 52.4561C263 23.4854 240.356 0 212.423 0C184.49 0 161.846 23.4854 161.846 52.4561C161.846 58.6415 162.878 64.5768 164.774 70.0869L84.3876 118.356C75.4286 109.998 63.5754 104.912 50.5769 104.912C22.6441 104.912 0 128.398 0 157.368C0 186.339 22.6441 209.825 50.5769 209.825C68.8189 209.825 84.8052 199.808 93.7019 184.789L159.968 228.197C157.912 233.907 156.788 240.089 156.788 246.544C156.788 275.515 179.433 299 207.365 299C235.298 299 257.942 275.515 257.942 246.544C257.942 217.573 235.298 194.088 207.365 194.088C194.812 194.088 183.327 198.831 174.485 206.684L101.139 158.64C101.149 158.217 101.154 157.793 101.154 157.368C101.154 151.374 100.184 145.614 98.3991 140.249L179.016 91.8416C187.926 99.9775 199.619 104.912 212.423 104.912ZM212.423 78.6842C226.39 78.6842 237.712 66.9415 237.712 52.4561C237.712 37.9708 226.39 26.2281 212.423 26.2281C198.457 26.2281 187.135 37.9708 187.135 52.4561C187.135 66.9415 198.457 78.6842 212.423 78.6842ZM207.365 272.772C221.332 272.772 232.654 261.029 232.654 246.544C232.654 232.058 221.332 220.316 207.365 220.316C193.399 220.316 182.077 232.058 182.077 246.544C182.077 261.029 193.399 272.772 207.365 272.772ZM75.8654 157.368C75.8654 171.854 64.5434 183.596 50.5769 183.596C36.6105 183.596 25.2885 171.854 25.2885 157.368C25.2885 142.883 36.6105 131.14 50.5769 131.14C64.5434 131.14 75.8654 142.883 75.8654 157.368Z" fill="#464646"/>
</svg>
