<svg width="326" height="327" viewBox="0 0 326 327" fill="none" xmlns="http://www.w3.org/2000/svg">
<path d="M70.4776 217.552C100.565 217.552 124.955 193.129 124.955 163.001C124.955 132.873 100.565 108.449 70.4776 108.449C40.3904 108.449 16 132.873 16 163.001C16 193.129 40.3904 217.552 70.4776 217.552Z" fill="#464646"/>
<path d="M255.897 39.4626C272.509 39.4626 285.946 52.9171 285.946 69.5517C285.946 86.1863 272.509 99.6407 255.897 99.6407C239.285 99.6407 225.849 86.1863 225.849 69.5517C225.605 52.9171 239.285 39.4626 255.897 39.4626ZM255.897 15C225.849 15 201.42 39.4626 201.42 69.5517C201.42 99.6407 225.849 124.103 255.897 124.103C285.946 124.103 310.375 99.6407 310.375 69.5517C310.375 39.4626 285.946 15 255.897 15Z" fill="#464646"/>
<path d="M255.899 226.361C272.511 226.361 285.948 239.816 285.948 256.45C285.948 273.085 272.511 286.539 255.899 286.539C239.287 286.539 225.851 273.085 225.851 256.45C225.607 240.06 239.287 226.361 255.899 226.361ZM255.899 201.898C225.851 201.898 201.422 226.361 201.422 256.45C201.422 286.539 225.851 311.002 255.899 311.002C285.948 311.002 310.377 286.539 310.377 256.45C310.377 226.361 285.948 201.898 255.899 201.898Z" fill="#464646"/>
<path d="M207.038 244.203C205.084 244.203 203.374 243.714 201.664 242.98L113.718 198.703C107.61 195.767 105.167 188.428 108.343 182.313C111.275 176.197 118.604 173.751 124.711 176.931L212.657 221.208C218.764 224.144 221.207 231.483 218.031 237.598C215.833 241.757 211.68 244.203 207.038 244.203Z" fill="#464646"/>
<path d="M119.344 150.778C114.947 150.778 110.55 148.331 108.351 143.928C105.419 137.812 107.618 130.474 113.725 127.538L201.671 83.2608C207.534 80.3253 214.863 82.527 218.039 88.6426C220.97 94.7583 218.772 102.097 212.664 105.033L124.719 149.31C123.009 150.288 121.054 150.778 119.344 150.778Z" fill="#464646"/>
</svg>
