<svg width="136" height="140" viewBox="0 0 136 140" fill="none" xmlns="http://www.w3.org/2000/svg">
<path d="M0 73C0 35.9969 29.9969 6 67 6V6C104.003 6 134 35.9969 134 73V73C134 110.003 104.003 140 67 140V140C29.9969 140 0 110.003 0 73V73Z" fill="#E2ECF8" fill-opacity="0.3"/>
<path d="M104.688 58.0868L103.105 41.1283C103.105 41.1283 101.032 39.3145 96.137 37.3854L95.1581 26.79C95.1581 26.79 90.2059 22.3272 77.0768 20.9452H77.595V8.67987C77.595 8.67987 75.2917 6.46289 68.8999 6.46289C62.5081 6.46289 60.0032 8.67987 60.0032 8.67987V21.0604H60.0896C47.5363 22.5576 42.4113 26.79 42.4113 26.79L41.49 37.5006C36.6242 39.3432 34.436 41.0995 34.436 41.0995L32.9388 58.4323C27.3244 61.1675 22.5737 64.0755 20.0112 66.8107C20.0112 75.2179 25.021 93.4432 30.5491 100.296L69.2166 112.59L107.913 100.353C113.412 93.5008 118.451 75.2755 118.451 66.8683C115.715 63.9603 110.648 60.9084 104.688 58.0868Z" fill="#F4F4F4"/>
<path d="M21.8256 79.1052C21.8256 79.1052 20.6163 73.8651 20.3284 71.9649C20.0405 70.0646 19.9829 66.8399 19.9829 66.8399C19.9829 66.8399 23.8698 63.4712 24.9639 62.809C26.058 62.1756 32.277 58.6054 33.8606 57.9432C35.4442 57.281 42.6997 54.2578 43.909 53.7972C45.1182 53.3077 55.2818 49.5936 57.1532 49.0753C59.0247 48.557 69.1883 46.3113 69.1883 46.3113C69.1883 46.3113 76.8469 47.8085 78.9199 48.3555C80.9641 48.9313 89.4002 51.6666 91.7035 52.5303C94.0069 53.3941 102.069 56.8491 103.854 57.7129C105.639 58.5766 111.484 61.5998 113.182 62.7227C114.881 63.8455 118.422 66.8687 118.422 66.8687C118.422 66.8687 118.163 71.4466 117.875 72.8862C117.587 74.3258 116.609 78.8749 116.609 78.8749C116.609 78.8749 112.088 75.132 109.9 74.0091C107.712 72.8574 99.9956 68.5674 98.6999 67.934C98.6999 67.934 90.4367 64.2486 88.0757 63.3849C85.7436 62.5211 77.6819 59.6131 75.9256 59.1237C74.1693 58.6342 69.2171 57.6841 69.2171 57.6841C69.2171 57.6841 62.6813 59.1237 60.8098 59.6419C58.9383 60.1602 50.9918 63.0394 49.1491 63.788C47.2776 64.5653 37.0565 69.0569 34.9835 70.2373C32.9105 71.4466 24.5032 76.2548 21.8256 79.1052Z" fill="#C6DBDC"/>
<path d="M60.0038 3.64113C60.0038 3.64113 62.7679 1.99999 65.0712 1.74086C67.3458 1.48174 69.8795 1.22261 72.3844 1.74086C74.8892 2.25912 77.279 3.26684 77.5957 3.64113C77.9124 4.04422 77.5957 10.8967 77.5957 10.8967C77.5957 10.8967 74.5725 9.16917 71.6646 8.93884C68.7566 8.7085 66.4532 8.7085 64.2075 9.28434C61.9617 9.86018 59.8887 10.9255 59.8887 10.9255L60.0038 3.64113Z" fill="#C6DBDC"/>
<path d="M132.559 104.672C119.43 125.863 95.9644 140 69.2167 140C42.4402 140 18.9748 125.863 5.8457 104.643C5.8457 104.643 8.75368 106.371 12.9573 106.573C17.1609 106.774 20.6447 106.313 22.8617 105.191C25.0787 104.068 28.0155 101.966 30.4916 100.353C32.9677 98.7123 36.941 96.8984 40.6263 96.8984C44.3117 96.8984 50.0989 98.1077 51.4809 98.8563C52.8629 99.6337 56.2603 102.484 58.9956 103.981C61.7308 105.478 64.8403 107.091 69.7061 106.659C74.572 106.227 76.2995 105.738 78.0846 104.787C79.8409 103.837 83.2959 101.188 85.2538 100.066C87.2116 98.9139 90.0332 97.1576 94.8127 97.0136C99.5921 96.8697 103.997 98.0789 105.207 98.7411C106.416 99.4033 109.842 101.793 111.57 103.06C113.297 104.298 116.435 106.025 118.883 106.371C121.33 106.716 123.892 106.947 125.735 106.716C127.549 106.486 129.939 105.939 130.601 105.651C131.321 105.306 132.559 104.672 132.559 104.672Z" fill="url(#paint0_linear)"/>
<path d="M110.389 116.534C110.13 116.534 109.9 116.448 109.67 116.275C108.777 115.498 106.359 113.598 103.335 112.878C102.76 112.734 102.385 112.158 102.529 111.582C102.673 111.006 103.249 110.632 103.825 110.776C107.309 111.611 110.073 113.742 111.08 114.634C111.541 115.037 111.57 115.699 111.196 116.16C110.994 116.39 110.706 116.534 110.389 116.534Z" fill="#6F7273"/>
<path d="M69.2167 121.256C63.0552 121.256 59.4562 119.586 55.9436 117.11C55.4542 116.765 55.339 116.102 55.6845 115.613C56.03 115.123 56.6922 115.008 57.1817 115.354C60.4352 117.657 63.6023 119.097 69.2167 119.097C75.8964 119.097 79.2075 116.851 82.7201 114.461C86.0024 112.215 89.4286 109.912 95.4749 109.912C96.0796 109.912 96.569 110.402 96.569 111.006C96.569 111.611 96.0796 112.1 95.4749 112.1C90.0908 112.1 87.0965 114.116 83.9294 116.275C80.4743 118.607 76.5586 121.256 69.2167 121.256Z" fill="#6F7273"/>
<path d="M27.5263 117.283C26.9792 117.283 26.5185 116.88 26.461 116.304C26.4034 115.7 26.8353 115.182 27.4399 115.124C29.225 114.951 30.7222 113.886 32.4497 112.648C34.8106 110.949 37.4883 109.049 41.5191 109.049C44.6574 109.049 46.932 109.913 48.314 110.632C48.8323 110.92 49.0338 111.554 48.7747 112.101C48.4868 112.619 47.8533 112.821 47.3063 112.561C45.6652 111.698 43.6209 111.237 41.5191 111.237C38.1793 111.237 35.9047 112.849 33.6877 114.433C31.8738 115.729 30.0024 117.082 27.6414 117.312C27.6126 117.283 27.555 117.283 27.5263 117.283Z" fill="#6F7273"/>
<path d="M123.432 107.724C116.292 107.724 112.721 105.133 109.238 102.628C105.898 100.209 102.731 97.9636 96.31 97.9636C89.8894 97.9636 86.7223 100.238 83.3824 102.628C79.8986 105.133 76.3284 107.724 69.188 107.724C62.0476 107.724 58.4774 105.133 54.9936 102.628C51.6538 100.209 48.4867 97.9636 42.0661 97.9636C35.6455 97.9636 32.4784 100.238 29.1385 102.628C25.6547 105.133 22.0845 107.724 14.9441 107.724C9.09934 107.724 5.70189 105.997 2.88029 104.125C2.39082 103.808 2.24687 103.117 2.56358 102.628C2.88029 102.138 3.57129 101.994 4.06075 102.311C6.59444 103.981 9.67518 105.536 14.9441 105.536C21.3647 105.536 24.5318 103.261 27.8717 100.872C31.3555 98.3667 34.9257 95.7754 42.0661 95.7754C49.2064 95.7754 52.7766 98.3667 56.2605 100.872C59.6003 103.29 62.7674 105.536 69.188 105.536C75.6086 105.536 78.7757 103.261 82.1156 100.872C85.5994 98.3667 89.1696 95.7754 96.31 95.7754C103.45 95.7754 107.021 98.3667 110.504 100.872C113.844 103.29 117.011 105.536 123.432 105.536C128.701 105.536 131.782 103.981 134.315 102.311C134.805 101.994 135.496 102.11 135.812 102.628C136.129 103.117 136.014 103.808 135.496 104.125C132.703 105.997 129.277 107.724 123.432 107.724Z" fill="#6F7273"/>
<path d="M30.5201 101.419C30.2034 101.419 29.8867 101.275 29.6852 101.015C23.7252 93.616 18.917 75.0452 18.917 66.8395C18.917 66.5516 19.0322 66.2925 19.2049 66.0909C28.0152 56.676 59.8591 46.1957 69.1013 45.188C69.1876 45.188 69.2452 45.188 69.3316 45.188C78.5738 46.1957 110.389 56.676 119.228 66.0909C119.43 66.2925 119.516 66.5516 119.516 66.8395C119.516 75.0452 114.708 93.616 108.748 100.987C108.373 101.447 107.682 101.534 107.222 101.159C106.761 100.785 106.675 100.094 107.049 99.6335C112.174 93.2705 117.155 75.9665 117.328 67.2714C108.748 58.6338 78.4586 48.4127 69.1876 47.3474C59.9454 48.4127 29.6276 58.605 21.0476 67.2714C21.2203 75.9665 26.2013 93.2993 31.3263 99.6335C31.7006 100.094 31.6142 100.785 31.1535 101.159C30.9808 101.332 30.7505 101.419 30.5201 101.419Z" fill="#6F7273"/>
<path d="M69.2167 101.735C68.612 101.735 68.1226 101.246 68.1226 100.641V68.1061C68.1226 67.5014 68.612 67.012 69.2167 67.012C69.8213 67.012 70.3107 67.5014 70.3107 68.1061V100.67C70.282 101.274 69.7925 101.735 69.2167 101.735Z" fill="#6F7273"/>
<path d="M81.77 79.8822C83.392 79.8822 84.7068 77.9486 84.7068 75.5634C84.7068 73.1782 83.392 71.2446 81.77 71.2446C80.1481 71.2446 78.8333 73.1782 78.8333 75.5634C78.8333 77.9486 80.1481 79.8822 81.77 79.8822Z" fill="#6F7273"/>
<path d="M96.4541 84.4601C98.076 84.4601 99.3909 82.5265 99.3909 80.1413C99.3909 77.7561 98.076 75.8225 96.4541 75.8225C94.8322 75.8225 93.5173 77.7561 93.5173 80.1413C93.5173 82.5265 94.8322 84.4601 96.4541 84.4601Z" fill="#6F7273"/>
<path d="M32.9391 59.5263C32.9103 59.5263 32.8815 59.5263 32.8527 59.5263C32.2481 59.4687 31.8162 58.9505 31.8738 58.3459L33.371 41.0131C33.3998 40.7252 33.5437 40.4373 33.7741 40.2645C34.1772 39.919 44.1967 32.0876 69.2169 32.0876C94.2658 32.0876 103.45 39.9766 103.825 40.2933C104.026 40.4661 104.17 40.7252 104.17 41.0131L105.754 57.9716C105.811 58.5762 105.38 59.0944 104.775 59.152C104.17 59.2096 103.652 58.7777 103.594 58.1731L102.068 41.6753C100.283 40.3509 90.8396 34.247 69.1881 34.247C47.5654 34.247 37.4018 40.3509 35.444 41.7041L33.9756 58.5474C33.9468 59.1232 33.4861 59.5263 32.9391 59.5263Z" fill="#6F7273"/>
<path d="M60.0035 22.1546C59.3989 22.1546 58.9094 21.6651 58.9094 21.0605V3.64141C58.9094 3.3247 59.0534 3.03678 59.2837 2.83523C59.4277 2.74886 62.1917 0.359131 68.9002 0.359131C75.6375 0.359131 78.2288 2.77765 78.344 2.86403C78.5455 3.06557 78.6607 3.35349 78.6607 3.64141V20.9453C78.6607 21.55 78.1712 22.0394 77.5666 22.0394C76.9619 22.0394 76.4725 21.55 76.4725 20.9453V4.18845C75.6663 3.6702 73.363 2.51852 68.8714 2.51852C64.3511 2.51852 61.9326 3.69899 61.04 4.21724V21.0893C61.0976 21.6651 60.6081 22.1546 60.0035 22.1546Z" fill="#6F7273"/>
<path d="M60.0032 11.9623C59.7153 11.9623 59.3986 11.8471 59.197 11.588C58.794 11.1273 58.8515 10.4651 59.2834 10.062C59.3986 9.94687 62.1914 7.58594 68.8999 7.58594C75.6372 7.58594 78.2285 10.0045 78.3437 10.0908C78.7755 10.4939 78.7755 11.1849 78.3724 11.6168C77.9694 12.0487 77.2784 12.0487 76.8465 11.6456C76.8465 11.6456 74.6871 9.74533 68.8999 9.74533C63.084 9.74533 60.723 11.6744 60.723 11.7032C60.5215 11.8759 60.2623 11.9623 60.0032 11.9623Z" fill="#6F7273"/>
<path d="M45.3482 80.1126C44.9163 80.1126 44.4845 79.8535 44.2829 79.4216C44.0238 78.8458 44.2829 78.1547 44.8875 77.8956L53.957 73.9511C54.5328 73.692 55.2238 73.9511 55.483 74.5558C55.7421 75.1316 55.483 75.8226 54.8783 76.0817L45.8089 80.0262C45.6649 80.0838 45.4922 80.1126 45.3482 80.1126Z" fill="#6F7273"/>
<path d="M49.6392 89.4987C49.0058 89.4987 48.4875 88.9804 48.4875 88.347V71.5613C48.4875 70.9279 49.0058 70.4097 49.6392 70.4097C50.2726 70.4097 50.7909 70.9279 50.7909 71.5613V88.347C50.7909 88.9804 50.2726 89.4987 49.6392 89.4987Z" fill="#6F7273"/>
<path d="M48.9472 89.585C48.0258 89.585 47.1621 89.2683 46.3847 88.6637C45.0027 87.5408 44.1677 85.5541 44.1965 84.3449C44.1965 83.7115 44.7148 83.222 45.3482 83.222H45.377C46.0104 83.222 46.5287 83.769 46.4999 84.4025C46.4999 84.8056 46.9317 86.1588 47.8243 86.8786C48.3138 87.2817 48.8032 87.3968 49.3791 87.2529C54.4464 86.0148 53.9282 81.3217 53.7842 80.3716C53.6691 79.7382 54.1009 79.1623 54.7344 79.0472C55.3678 78.932 55.9436 79.3639 56.0588 79.9973C56.5195 82.8477 55.7709 88.059 49.9261 89.4698C49.5806 89.5562 49.2639 89.585 48.9472 89.585Z" fill="#6F7273"/>
<path d="M69.2172 30.7056C67.2881 30.7056 65.7046 29.1221 65.7046 27.193C65.7046 25.264 67.2881 23.6804 69.2172 23.6804C71.1463 23.6804 72.7298 25.264 72.7298 27.193C72.7298 29.1221 71.1463 30.7056 69.2172 30.7056ZM69.2172 25.811C68.4686 25.811 67.864 26.4157 67.864 27.1642C67.864 27.9128 68.4686 28.5175 69.2172 28.5175C69.9658 28.5175 70.5704 27.9128 70.5704 27.1642C70.5704 26.4444 69.9658 25.811 69.2172 25.811Z" fill="#6F7273"/>
<path d="M83.6703 31.8861C81.7413 31.8861 80.1577 30.3025 80.1577 28.3735C80.1577 26.4444 81.7413 24.8608 83.6703 24.8608C85.5994 24.8608 87.1829 26.4444 87.1829 28.3735C87.1829 30.3025 85.5994 31.8861 83.6703 31.8861ZM83.6703 27.0202C82.9217 27.0202 82.3171 27.6249 82.3171 28.3735C82.3171 29.122 82.9217 29.7267 83.6703 29.7267C84.4189 29.7267 85.0235 29.122 85.0235 28.3735C85.0235 27.6249 84.4189 27.0202 83.6703 27.0202Z" fill="#6F7273"/>
<path d="M54.8207 31.8861C52.8917 31.8861 51.3081 30.3025 51.3081 28.3735C51.3081 26.4444 52.8917 24.8608 54.8207 24.8608C56.7498 24.8608 58.3333 26.4444 58.3333 28.3735C58.3333 30.3025 56.7498 31.8861 54.8207 31.8861ZM54.8207 27.0202C54.0721 27.0202 53.4675 27.6249 53.4675 28.3735C53.4675 29.122 54.0721 29.7267 54.8207 29.7267C55.5693 29.7267 56.1739 29.122 56.1739 28.3735C56.1739 27.6249 55.5693 27.0202 54.8207 27.0202Z" fill="#6F7273"/>
<path d="M60.6081 44.7271C58.679 44.7271 57.0955 43.1436 57.0955 41.2145C57.0955 39.2855 58.679 37.7019 60.6081 37.7019C62.5371 37.7019 64.1207 39.2855 64.1207 41.2145C64.1207 43.1436 62.5371 44.7271 60.6081 44.7271ZM60.6081 39.8325C59.8595 39.8325 59.2549 40.4371 59.2549 41.1857C59.2549 41.9343 59.8595 42.5389 60.6081 42.5389C61.3567 42.5389 61.9613 41.9343 61.9613 41.1857C61.9613 40.4371 61.3567 39.8325 60.6081 39.8325Z" fill="#6F7273"/>
<path d="M45.1464 48.5274C43.2173 48.5274 41.6338 46.9439 41.6338 45.0148C41.6338 43.0858 43.2173 41.5022 45.1464 41.5022C47.0755 41.5022 48.659 43.0858 48.659 45.0148C48.659 46.9439 47.0755 48.5274 45.1464 48.5274ZM45.1464 43.6616C44.3978 43.6616 43.7932 44.2662 43.7932 45.0148C43.7932 45.7634 44.3978 46.368 45.1464 46.368C45.895 46.368 46.4996 45.7634 46.4996 45.0148C46.4996 44.2662 45.895 43.6616 45.1464 43.6616Z" fill="#6F7273"/>
<path d="M77.8258 44.7271C75.8968 44.7271 74.3132 43.1436 74.3132 41.2145C74.3132 39.2855 75.8968 37.7019 77.8258 37.7019C79.7549 37.7019 81.3385 39.2855 81.3385 41.2145C81.3385 43.1436 79.7549 44.7271 77.8258 44.7271ZM77.8258 39.8325C77.0773 39.8325 76.4726 40.4371 76.4726 41.1857C76.4726 41.9343 77.0773 42.5389 77.8258 42.5389C78.5744 42.5389 79.1791 41.9343 79.1791 41.1857C79.1791 40.4371 78.5744 39.8325 77.8258 39.8325Z" fill="#6F7273"/>
<path d="M93.258 48.5274C91.3289 48.5274 89.7454 46.9439 89.7454 45.0148C89.7454 43.0858 91.3289 41.5022 93.258 41.5022C95.187 41.5022 96.7706 43.0858 96.7706 45.0148C96.7994 46.9439 95.2158 48.5274 93.258 48.5274ZM93.258 43.6616C92.5094 43.6616 91.9048 44.2662 91.9048 45.0148C91.9048 45.7634 92.5094 46.368 93.258 46.368C94.0066 46.368 94.6112 45.7634 94.6112 45.0148C94.64 44.2662 94.0066 43.6616 93.258 43.6616Z" fill="#6F7273"/>
<path d="M41.4899 38.5949C41.4611 38.5949 41.4323 38.5949 41.4035 38.5949C40.7989 38.5373 40.367 38.019 40.4246 37.4144L41.3459 26.7038C41.3747 26.4159 41.5187 26.1568 41.7202 25.9552C42.0369 25.6961 49.782 19.4771 69.1013 19.4771C88.4495 19.4771 95.5611 25.7249 95.8778 25.984C96.0793 26.1568 96.1945 26.4159 96.2233 26.675L97.2022 37.2704C97.2598 37.8751 96.8279 38.3933 96.2233 38.4509C95.6187 38.5085 95.1004 38.0766 95.0428 37.472L94.0927 27.3372C92.5667 26.2144 85.3399 21.6364 69.0725 21.6364C52.8339 21.6364 45.0601 26.2431 43.3901 27.366L42.4976 37.5872C42.4976 38.163 42.0369 38.5949 41.4899 38.5949Z" fill="#6F7273"/>
<path d="M116.608 80.199C116.349 80.199 116.061 80.0838 115.86 79.8822C105.725 70.0354 77.7391 59.9007 69.2167 58.749C60.6943 59.9007 32.7086 70.0066 22.5738 79.8822C22.1419 80.2853 21.4509 80.2853 21.0478 79.8535C20.6447 79.4216 20.6447 78.7306 21.0766 78.3275C31.7584 67.9336 60.2624 57.7125 69.0727 56.5896C69.1591 56.5896 69.2455 56.5896 69.3318 56.5896C78.1422 57.7125 106.675 67.9336 117.328 78.3275C117.76 78.7306 117.76 79.4216 117.357 79.8535C117.155 80.0838 116.867 80.199 116.608 80.199Z" fill="#6F7273"/>
<defs>
<linearGradient id="paint0_linear" x1="69.1968" y1="96.8871" x2="69.1968" y2="139.989" gradientUnits="userSpaceOnUse">
<stop stop-color="#E1EEEE"/>
<stop offset="1" stop-color="#C6DBDC"/>
</linearGradient>
</defs>
</svg>
