<svg width="135" height="135" viewBox="0 0 135 135" fill="none" xmlns="http://www.w3.org/2000/svg">
<path fill-rule="evenodd" clip-rule="evenodd" d="M67.5 -5.90104e-06C104.779 -2.64198e-06 135 30.2208 135 67.5C135 104.779 104.779 135 67.5 135C30.2208 135 2.64198e-06 104.779 5.90104e-06 67.5C9.16009e-06 30.2208 30.2208 -9.16009e-06 67.5 -5.90104e-06ZM67.4681 12.2408C36.9669 12.2408 12.2408 36.9668 12.2408 67.468C12.2408 97.9692 36.9669 122.695 67.468 122.695C97.9692 122.695 122.695 97.9692 122.695 67.468C122.695 36.9669 97.9692 12.2408 67.4681 12.2408ZM38.603 75.4332L47.2812 84.1113L67.4876 63.9049L87.6939 84.1113L96.3721 75.4332L67.4876 46.5487L38.603 75.4332Z" fill="#209FAE"/>
</svg>
