<svg width="212" height="212" viewBox="0 0 212 212" fill="none" xmlns="http://www.w3.org/2000/svg">
<path fill-rule="evenodd" clip-rule="evenodd" d="M106 212C47.4578 212 0 164.542 0 106C0 47.4578 47.4578 0 106 0C164.542 0 212 47.4578 212 106C212 164.542 164.542 212 106 212ZM106.016 192.777C153.914 192.777 192.743 153.948 192.743 106.05C192.743 58.152 153.914 19.3229 106.016 19.3229C58.1175 19.3229 19.2884 58.152 19.2884 106.05C19.2884 153.948 58.1175 192.777 106.016 192.777ZM151.344 93.5419L137.717 79.9141L105.985 111.646L74.2535 79.9141L60.6257 93.5419L105.985 138.901L151.344 93.5419Z" fill="#209FAE"/>
</svg>
