<svg width="24" height="25" viewBox="0 0 24 25" fill="none" xmlns="http://www.w3.org/2000/svg">
<path d="M6.9193 20.4106H5.21832L9.14269 16.5002L8.1616 15.5151L4.247 19.4158V17.7379H2.85681V21.801H6.9193V20.4106Z" fill="white"/>
<path d="M17.0532 20.4106V21.801H21.1157V17.7379H19.7255V19.4158L15.8109 15.5151L14.8298 16.5002L18.7542 20.4106H17.0532Z" fill="white"/>
<path d="M4.247 5.92719L8.1616 9.82787L9.14269 8.84283L5.21832 4.93238H6.9193V3.54199H2.85681V7.60507H4.247V5.92719Z" fill="white"/>
<path d="M15.8109 9.82787L19.7255 5.92719V7.60507H21.1157V3.54199H17.0532V4.93238H18.7542L14.8298 8.84283L15.8109 9.82787Z" fill="white"/>
<path d="M0.162842 0.848145V24.495H23.8097V0.848145H0.162842ZM22.4242 23.1095H1.5484V2.2337H22.4242V23.1095Z" fill="white"/>
</svg>
