<svg width="24" height="24" viewBox="0 0 24 24" fill="none" xmlns="http://www.w3.org/2000/svg">
<path d="M5.08009 16.2476L6.78107 16.2476L2.8567 20.158L3.83779 21.1431L7.75239 17.2424L7.75239 18.9203L9.14258 18.9203L9.14258 14.8572L5.08009 14.8572L5.08009 16.2476Z" fill="white"/>
<path d="M18.8923 16.2476L18.8923 14.8572L14.8298 14.8572L14.8298 18.9203L16.22 18.9203L16.22 17.2424L20.1346 21.1431L21.1157 20.158L17.1913 16.2476L18.8923 16.2476Z" fill="white"/>
<path d="M7.75239 6.78521L3.83779 2.88453L2.8567 3.86957L6.78107 7.78003L5.08009 7.78003L5.08009 9.17041L9.14258 9.17041L9.14258 5.10734L7.75239 5.10734L7.75239 6.78521Z" fill="white"/>
<path d="M20.1346 2.88453L16.22 6.78521L16.22 5.10734L14.8298 5.10734L14.8298 9.17041L18.8923 9.17041L18.8923 7.78003L17.1913 7.78003L21.1157 3.86957L20.1346 2.88453Z" fill="white"/>
<path d="M0.162842 0.19043V23.8373H23.8097V0.19043H0.162842ZM22.4242 22.4517H1.5484V1.57599H22.4242V22.4517Z" fill="white"/>
</svg>
