<svg width="22" height="22" viewBox="0 0 22 22" fill="none" xmlns="http://www.w3.org/2000/svg">
<path fill-rule="evenodd" clip-rule="evenodd" d="M11 22C4.92487 22 0 17.0751 0 11C0 4.92487 4.92487 0 11 0C17.0751 0 22 4.92487 22 11C22 17.0751 17.0751 22 11 22ZM11 20.001C15.9706 20.001 20 15.9715 20 11.001C20 6.03041 15.9706 2.00098 11 2.00098C6.02944 2.00098 2 6.03041 2 11.001C2 15.9715 6.02944 20.001 11 20.001ZM15.911 14.4484L14.2751 13.2979C13.5297 14.3576 12.3199 15 11.0004 15C9.68091 15 8.47111 14.3576 7.72575 13.2979L6.08984 14.4484C7.20586 16.0352 9.02285 17 11.0004 17C12.978 17 14.795 16.0352 15.911 14.4484ZM13 10V8H15V10H13ZM7 8V10H9V8H7Z" fill="#209FAE"/>
</svg>
