<svg width="42" height="42" viewBox="0 0 42 42" fill="none" xmlns="http://www.w3.org/2000/svg">
<circle cx="21" cy="21" r="21" fill="#209FAE"/>
<path fill-rule="evenodd" clip-rule="evenodd" d="M21 30C16.0294 30 12 25.9706 12 21C12 16.0294 16.0294 12 21 12C25.9706 12 30 16.0294 30 21C30 25.9706 25.9706 30 21 30ZM21.0015 28.3631C25.0683 28.3631 28.3651 25.0663 28.3651 20.9994C28.3651 16.9326 25.0683 13.6358 21.0015 13.6358C16.9347 13.6358 13.6379 16.9326 13.6379 20.9994C13.6379 25.0663 16.9347 28.3631 21.0015 28.3631ZM25.0194 23.8212L23.6809 22.8798C23.0711 23.7469 22.0812 24.2725 21.0016 24.2725C19.9221 24.2725 18.9322 23.7469 18.3224 22.8798L16.9839 23.8212C17.897 25.1195 19.3836 25.9089 21.0016 25.9089C22.6196 25.9089 24.1063 25.1195 25.0194 23.8212ZM22.6379 20.1816V18.5453H24.2742V20.1816H22.6379ZM17.7284 18.5453V20.1816H19.3648V18.5453H17.7284Z" fill="white"/>
</svg>
