<svg width="22" height="35" viewBox="0 0 22 35" fill="none" xmlns="http://www.w3.org/2000/svg">
<path d="M19.8326 15.6656L15.3487 14.537C15.077 14.4687 14.8328 14.3186 14.6491 14.1069L13.3765 12.6409L13.4062 10.7492L15.4573 10.8613L16.4345 11.987L20.5009 13.0105C21.2341 13.195 21.6789 13.939 21.4943 14.6722C21.3097 15.4055 20.5656 15.8501 19.8326 15.6656Z" fill="#FFB69E"/>
<path d="M15.4625 10.8582L12.9286 7.93944C12.433 7.36855 11.5684 7.30739 10.9974 7.80306C10.4265 8.29873 10.3654 9.16333 10.8611 9.73428L13.3818 12.6379L15.4625 10.8582Z" fill="#4699F2"/>
<path d="M4.19387 33.9775C3.37073 33.5959 3.01285 32.6192 3.39451 31.7961L6.59504 24.8935L6.28532 19.182L7.86468 17.3664L9.58719 18.9253L9.89671 25.1349C9.90998 25.4008 9.8584 25.6661 9.74634 25.9077L6.37527 33.1782C5.99368 34.0011 5.01708 34.3592 4.19387 33.9775Z" fill="#5F6E9B"/>
<path d="M12.8621 32.6267L12.1722 24.7239L10.0681 18.4666C9.7789 17.6066 10.2415 16.6751 11.1015 16.3859C11.9617 16.0967 12.8931 16.5594 13.1822 17.4194L15.3488 23.8624C15.3903 23.9857 15.417 24.1135 15.4284 24.2432L16.1352 32.3409C16.2141 33.2448 15.5454 34.0414 14.6415 34.1203C13.7335 34.1996 12.9406 33.5266 12.8621 32.6267Z" fill="#414B82"/>
<path d="M12.7491 7.16035L9.14272 6.91921C8.02587 6.84453 7.05992 7.68944 6.98524 8.80629L6.2915 19.1821L13.9424 19.6936L14.6362 9.3179C14.7109 8.20098 13.866 7.23503 12.7491 7.16035Z" fill="#64AFFF"/>
<path d="M11.8183 0.00679596C10.165 -0.103724 8.73507 1.1469 8.62448 2.80028C8.51389 4.45359 9.76458 5.88352 11.418 5.99411C13.0713 6.10463 14.5012 4.85401 14.6118 3.20063C14.7224 1.54725 13.4716 0.117316 11.8183 0.00679596Z" fill="#FFB69E"/>
<path d="M7.07191 4.4286L4.67121 4.18747C3.55436 4.11278 2.58841 4.95762 2.51372 6.07455L1.95429 14.4415C1.88001 15.5526 2.71735 16.5148 3.82804 16.5947L6.10925 16.8069C7.29824 16.8923 8.32997 15.9945 8.40947 14.805L8.95899 6.58609C9.03368 5.46923 8.18877 4.50329 7.07191 4.4286Z" fill="#E64937"/>
<path d="M4.87128 16.2323C5.99383 16.3493 6.98831 15.5089 7.05991 14.3826L7.08811 13.9397C7.1628 12.8228 6.31789 11.8569 5.20103 11.7822L2.80033 11.5411C1.68348 11.4664 0.717529 12.3113 0.642845 13.4281L0.611899 13.8914C0.535874 15.0287 1.43785 15.9929 2.57768 15.9929L4.87128 16.2323Z" fill="#87AFB9"/>
<path d="M8.03023 15.2321L7.90283 14.1333L11.1308 10.5815C11.4446 10.2432 11.6369 9.80754 11.6751 9.3518C11.7237 8.77173 11.5335 8.21625 11.1393 7.78783C10.7453 7.35942 10.2077 7.12344 9.62561 7.12344H8.78029V6.31966H9.62561C10.4234 6.31966 11.1908 6.65644 11.731 7.24374C12.2711 7.83097 12.5427 8.62384 12.4761 9.41891C12.423 10.0528 12.1555 10.6587 11.7229 11.1252L8.03023 15.2321Z" fill="#E64937"/>
<path d="M6.39899 9.20894L4.49422 10.2266C4.21618 10.3752 3.99789 10.6151 3.87625 10.906L1.72934 16.0408C1.4377 16.7384 1.76679 17.5403 2.46434 17.8319C3.15747 18.1218 3.96192 17.799 4.25543 17.0969L6.21425 12.4118L7.55215 11.697L8.02692 9.9221L6.39899 9.20894Z" fill="#FFB69E"/>
<path d="M11.3683 8.10439C11.012 7.43752 10.1827 7.18574 9.5158 7.54201L6.39746 9.20805L7.55062 11.6961L10.8059 9.95691C11.4728 9.6007 11.7246 8.77126 11.3683 8.10439Z" fill="#4699F2"/>
<path d="M5.23245 8.87924C5.22174 8.87924 5.21102 8.87883 5.20017 8.87796C4.97893 8.86035 4.81375 8.66677 4.83137 8.44546L5.1652 4.24455C5.18282 4.02325 5.37673 3.85847 5.59771 3.87575C5.81895 3.89337 5.98412 4.08695 5.96651 4.30825L5.63267 8.50916C5.61593 8.71955 5.43996 8.87924 5.23245 8.87924Z" fill="#87AFB9"/>
</svg>
