<svg width="18" height="13" viewBox="0 0 18 13" fill="none" xmlns="http://www.w3.org/2000/svg">
<path d="M0 1.13043L11.8562 1.13043V0H0V1.13043Z" fill="#464646"/>
<path d="M14.0538 12.8345L17.8264 9.23743C18.0579 9.0167 18.0579 8.65882 17.8264 8.43809C17.5949 8.21736 17.2195 8.21736 16.988 8.43809L14.2274 11.0702V0H13.0418V11.0702L10.2812 8.43809C10.0496 8.21736 9.6743 8.21736 9.4428 8.43809C9.21129 8.65882 9.21129 9.0167 9.4428 9.23743L13.2154 12.8345C13.4469 13.0552 13.8223 13.0552 14.0538 12.8345Z" fill="#464646"/>
<path d="M11.8562 3.95652L0 3.95652V2.82609L11.8562 2.82609V3.95652Z" fill="#464646"/>
<path d="M0 6.78261L11.8562 6.78261V5.65217L0 5.65217V6.78261Z" fill="#464646"/>
<path d="M8.29931 9.60869H0V8.47826H8.29931V9.60869Z" fill="#464646"/>
<path d="M0 12.4348H8.29931V11.3043H0V12.4348Z" fill="#464646"/>
</svg>
