<svg width="38" height="38" viewBox="0 0 38 38" fill="none" xmlns="http://www.w3.org/2000/svg">
<path d="M34.9505 24.9426C32.6241 24.9426 30.3397 24.5788 28.175 23.8634C27.0947 23.4954 25.8691 23.781 25.163 24.4984L20.8903 27.7239C15.9352 25.0788 12.883 22.0275 10.274 17.1096L13.4046 12.9482C14.2179 12.136 14.5096 10.9494 14.1601 9.83616C13.4417 7.66007 13.0767 5.3768 13.0767 3.0493C13.0768 1.3679 11.7089 0 10.0276 0H3.04907C1.36789 0 0 1.3679 0 3.0491C0 22.3213 15.6786 38 34.9505 38C36.6318 38 37.9997 36.6321 37.9997 34.9508V27.9918C37.9996 26.3105 36.6317 24.9426 34.9505 24.9426Z" fill="#209FAE"/>
<path d="M20.056 8.44441H17.945C17.3615 8.44441 16.8894 8.91654 16.8894 9.5C16.8894 10.0835 17.3615 10.5556 17.945 10.5556H20.056C21.8022 10.5556 23.2227 9.13514 23.2227 7.38892C23.2227 5.6427 21.8022 4.22225 20.056 4.22225C19.4736 4.22225 19.0005 3.74904 19.0005 3.16667C19.0005 2.5843 19.4736 2.11108 20.056 2.11108H22.1671C22.7505 2.11108 23.2227 1.63895 23.2227 1.05549C23.2227 0.47213 22.7505 0 22.1671 0H20.056C18.3098 0 16.8894 1.42045 16.8894 3.16667C16.8894 4.91288 18.3098 6.33333 20.056 6.33333C20.6384 6.33333 21.1116 6.80645 21.1116 7.38892C21.1115 7.97129 20.6384 8.44441 20.056 8.44441Z" fill="#D75995"/>
<path d="M34.8334 4.22225C34.251 4.22225 33.7778 3.74914 33.7778 3.16667C33.7778 2.5842 34.251 2.11108 34.8334 2.11108H36.9444C37.5279 2.11108 38 1.63895 38 1.05549C38 0.47213 37.5279 0 36.9444 0H34.8334C33.0872 0 31.6667 1.42045 31.6667 3.16667C31.6667 4.91288 33.0872 6.33333 34.8334 6.33333C35.4157 6.33333 35.889 6.80645 35.889 7.38892C35.889 7.97129 35.4158 8.44451 34.8334 8.44451H32.7223C32.1389 8.44441 31.6667 8.91654 31.6667 9.5C31.6667 10.0835 32.1389 10.5556 32.7223 10.5556H34.8334C36.5796 10.5556 38 9.13514 38 7.38892C38 5.6427 36.5796 4.22225 34.8334 4.22225Z" fill="#D75995"/>
<path d="M27.4437 10.5556C29.1899 10.5556 30.6104 9.13514 30.6104 7.38892V3.16667C30.6104 1.42045 29.1899 0 27.4437 0C25.6975 0 24.2771 1.42045 24.2771 3.16667V7.38892C24.2771 9.13514 25.6976 10.5556 27.4437 10.5556ZM26.3883 3.16667C26.3883 2.5843 26.8614 2.11108 27.4438 2.11108C28.0262 2.11108 28.4993 2.5843 28.4993 3.16667V7.38892C28.4993 7.97129 28.0262 8.44451 27.4437 8.44451C26.8614 8.44451 26.3882 7.97139 26.3882 7.38892V3.16667H26.3883Z" fill="#D75995"/>
</svg>
