<svg width="24" height="18" viewBox="0 0 24 18" fill="none" xmlns="http://www.w3.org/2000/svg">
<path d="M2.03906 17.8019V4.5802H7.01129V0.667969H16.8533V4.65701H21.8256V17.8019H2.03906Z" fill="#F4F4F4"/>
<path d="M13.4645 13.4922H10.4023V17.8038H13.4645V13.4922Z" fill="#C6DBDC"/>
<path d="M17.3007 0.986333C17.3007 1.07851 17.2239 1.15532 17.1317 1.15532H6.73148C6.63931 1.15532 6.5625 1.07851 6.5625 0.986333V0.356484C6.5625 0.264311 6.63931 0.1875 6.73148 0.1875H17.1368C17.229 0.1875 17.3058 0.264311 17.3058 0.356484V0.986333H17.3007Z" fill="#C6DBDC"/>
<path d="M16.8555 5.06547H22.1093C22.2015 5.06547 22.2783 4.98866 22.2783 4.89649V4.26664C22.2783 4.17447 22.2015 4.09766 22.1093 4.09766H16.8555V5.06547Z" fill="#C6DBDC"/>
<path d="M7.01269 5.06547H1.75883C1.66665 5.06547 1.58984 4.98866 1.58984 4.89649V4.26664C1.58984 4.17447 1.66665 4.09766 1.75883 4.09766H7.01269V5.06547Z" fill="#C6DBDC"/>
<path d="M22.9203 17.9946H0.9524C0.844865 17.9946 0.757812 17.9076 0.757812 17.8001C0.757812 17.6925 0.844865 17.6055 0.9524 17.6055H22.9254C23.033 17.6055 23.12 17.6925 23.12 17.8001C23.12 17.9076 23.0279 17.9946 22.9203 17.9946Z" fill="#6F7273"/>
<path d="M7.0149 17.9976C6.90736 17.9976 6.82031 17.9105 6.82031 17.803V1.15553C6.82031 1.04799 6.90736 0.960938 7.0149 0.960938C7.12244 0.960938 7.20949 1.04799 7.20949 1.15553V17.803C7.20437 17.9105 7.11731 17.9976 7.0149 17.9976Z" fill="#6F7273"/>
<path d="M16.8586 17.9976C16.7511 17.9976 16.6641 17.9105 16.6641 17.803V1.15553C16.6641 1.04799 16.7511 0.960938 16.8586 0.960938C16.9662 0.960938 17.0532 1.04799 17.0532 1.15553V17.803C17.0481 17.9105 16.9662 17.9976 16.8586 17.9976Z" fill="#6F7273"/>
<path d="M21.8313 17.9994C21.7238 17.9994 21.6367 17.9124 21.6367 17.8048V5.06959C21.6367 4.96205 21.7238 4.875 21.8313 4.875C21.9388 4.875 22.0259 4.96205 22.0259 5.06959V17.8048C22.0259 17.9124 21.9388 17.9994 21.8313 17.9994Z" fill="#6F7273"/>
<path d="M2.04224 17.9994C1.93471 17.9994 1.84766 17.9124 1.84766 17.8048V5.06959C1.84766 4.96205 1.93471 4.875 2.04224 4.875C2.14978 4.875 2.23683 4.96205 2.23683 5.06959V17.8048C2.23171 17.9124 2.14466 17.9994 2.04224 17.9994Z" fill="#6F7273"/>
<path d="M13.4689 17.9977C13.3614 17.9977 13.2743 17.9107 13.2743 17.8031V13.6861H10.5962V17.8031C10.5962 17.9107 10.5092 17.9977 10.4016 17.9977C10.2941 17.9977 10.207 17.9107 10.207 17.8031V13.4915C10.207 13.3839 10.2941 13.2969 10.4016 13.2969H13.4638C13.5713 13.2969 13.6584 13.3839 13.6584 13.4915V17.8031C13.6584 17.9107 13.5765 17.9977 13.4689 17.9977Z" fill="#6F7273"/>
<path d="M19.9146 7.94907H18.7727C18.6652 7.94907 18.5781 7.86201 18.5781 7.75448V6.61256C18.5781 6.50502 18.6652 6.41797 18.7727 6.41797H19.9146C20.0222 6.41797 20.1092 6.50502 20.1092 6.61256V7.75448C20.1041 7.86201 20.017 7.94907 19.9146 7.94907ZM18.9673 7.56501H19.7252V6.80714H18.9673V7.56501Z" fill="#6F7273"/>
<path d="M19.9146 11.3358H18.7727C18.6652 11.3358 18.5781 11.2487 18.5781 11.1412V9.99928C18.5781 9.89174 18.6652 9.80469 18.7727 9.80469H19.9146C20.0222 9.80469 20.1092 9.89174 20.1092 9.99928V11.1412C20.1041 11.2487 20.017 11.3358 19.9146 11.3358ZM18.9673 10.9517H19.7252V10.1939H18.9673V10.9517Z" fill="#6F7273"/>
<path d="M19.9146 14.742H18.7727C18.6652 14.742 18.5781 14.655 18.5781 14.5474V13.4055C18.5781 13.298 18.6652 13.2109 18.7727 13.2109H19.9146C20.0222 13.2109 20.1092 13.298 20.1092 13.4055V14.5474C20.1041 14.655 20.017 14.742 19.9146 14.742ZM18.9673 14.358H19.7252V13.6001H18.9673V14.358Z" fill="#6F7273"/>
<path d="M10.6302 4.55525H9.07349C8.96596 4.55525 8.87891 4.4682 8.87891 4.36066V2.80396C8.87891 2.69643 8.96596 2.60938 9.07349 2.60938H10.6302C10.7377 2.60938 10.8248 2.69643 10.8248 2.80396V4.36066C10.8197 4.4682 10.7377 4.55525 10.6302 4.55525ZM9.26296 4.1712H10.4356V2.99855H9.26296V4.1712Z" fill="#6F7273"/>
<path d="M10.6302 7.94978H9.07349C8.96596 7.94978 8.87891 7.86273 8.87891 7.75519V6.19849C8.87891 6.09096 8.96596 6.00391 9.07349 6.00391H10.6302C10.7377 6.00391 10.8248 6.09096 10.8248 6.19849V7.75519C10.8197 7.86273 10.7377 7.94978 10.6302 7.94978ZM9.26296 7.56573H10.4356V6.39308H9.26296V7.56573Z" fill="#6F7273"/>
<path d="M10.6302 11.3424H9.07349C8.96596 11.3424 8.87891 11.2553 8.87891 11.1478V9.59107C8.87891 9.48354 8.96596 9.39648 9.07349 9.39648H10.6302C10.7377 9.39648 10.8248 9.48354 10.8248 9.59107V11.1478C10.8197 11.2553 10.7377 11.3424 10.6302 11.3424ZM9.26296 10.9583H10.4356V9.78566H9.26296V10.9583Z" fill="#6F7273"/>
<path d="M14.7982 4.55525H13.2415C13.1339 4.55525 13.0469 4.4682 13.0469 4.36066V2.80396C13.0469 2.69643 13.1339 2.60938 13.2415 2.60938H14.7982C14.9057 2.60938 14.9928 2.69643 14.9928 2.80396V4.36066C14.9876 4.4682 14.9057 4.55525 14.7982 4.55525ZM13.4309 4.1712H14.6036V2.99855H13.4309V4.1712Z" fill="#6F7273"/>
<path d="M14.7982 7.94978H13.2415C13.1339 7.94978 13.0469 7.86273 13.0469 7.75519V6.19849C13.0469 6.09096 13.1339 6.00391 13.2415 6.00391H14.7982C14.9057 6.00391 14.9928 6.09096 14.9928 6.19849V7.75519C14.9876 7.86273 14.9057 7.94978 14.7982 7.94978ZM13.4309 7.56573H14.6036V6.39308H13.4309V7.56573Z" fill="#6F7273"/>
<path d="M14.7982 11.3424H13.2415C13.1339 11.3424 13.0469 11.2553 13.0469 11.1478V9.59107C13.0469 9.48354 13.1339 9.39648 13.2415 9.39648H14.7982C14.9057 9.39648 14.9928 9.48354 14.9928 9.59107V11.1478C14.9876 11.2553 14.9057 11.3424 14.7982 11.3424ZM13.4309 10.9583H14.6036V9.78566H13.4309V10.9583Z" fill="#6F7273"/>
<path d="M5.09701 7.94907H3.96021C3.85268 7.94907 3.76562 7.86201 3.76562 7.75448V6.61256C3.76562 6.50502 3.85268 6.41797 3.96021 6.41797H5.10213C5.20967 6.41797 5.29672 6.50502 5.29672 6.61256V7.75448C5.2916 7.86201 5.20455 7.94907 5.09701 7.94907ZM4.14968 7.56501H4.90755V6.80714H4.14968V7.56501Z" fill="#6F7273"/>
<path d="M5.09311 11.3358H3.95631C3.84877 11.3358 3.76172 11.2487 3.76172 11.1412V9.99928C3.76172 9.89174 3.84877 9.80469 3.95631 9.80469H5.09823C5.20576 9.80469 5.29282 9.89174 5.29282 9.99928V11.1412C5.2877 11.2487 5.20064 11.3358 5.09311 11.3358ZM4.14577 10.9517H4.90364V10.1939H4.14577V10.9517Z" fill="#6F7273"/>
<path d="M5.09701 14.742H3.96021C3.85268 14.742 3.76562 14.655 3.76562 14.5474V13.4055C3.76562 13.298 3.85268 13.2109 3.96021 13.2109H5.10213C5.20967 13.2109 5.29672 13.298 5.29672 13.4055V14.5474C5.2916 14.655 5.20455 14.742 5.09701 14.742ZM4.14968 14.358H4.90755V13.6001H4.14968V14.358Z" fill="#6F7273"/>
<path d="M17.1388 1.34675H6.73345C6.53374 1.34675 6.375 1.18801 6.375 0.9883V0.358451C6.375 0.158743 6.53374 0 6.73345 0H17.1388C17.3385 0 17.4972 0.158743 17.4972 0.358451V0.9883C17.4972 1.18801 17.3385 1.34675 17.1388 1.34675ZM6.75905 0.962697H17.1132V0.384055H6.75905V0.962697Z" fill="#6F7273"/>
<path d="M22.1074 5.25934H16.8586C16.7511 5.25934 16.6641 5.17228 16.6641 5.06475C16.6641 4.95721 16.7511 4.87016 16.8586 4.87016H22.0869V4.29152H16.8586C16.7511 4.29152 16.6641 4.20447 16.6641 4.09693C16.6641 3.9894 16.7511 3.90234 16.8586 3.90234H22.1125C22.3122 3.90234 22.471 4.06109 22.471 4.26079V4.90089C22.4658 5.10059 22.3071 5.25934 22.1074 5.25934Z" fill="#6F7273"/>
<path d="M7.01466 5.26081H1.76079C1.56109 5.26081 1.40234 5.10207 1.40234 4.90236V4.27251C1.40234 4.07281 1.56109 3.91406 1.76079 3.91406H7.01466C7.1222 3.91406 7.20925 4.00112 7.20925 4.10865C7.20925 4.21619 7.1222 4.30324 7.01466 4.30324H1.7864V4.88188H7.01466C7.1222 4.88188 7.20925 4.96893 7.20925 5.07647C7.20413 5.17376 7.11707 5.26081 7.01466 5.26081Z" fill="#6F7273"/>
</svg>
