<svg width="512" height="512" viewBox="0 0 512 512" fill="none" xmlns="http://www.w3.org/2000/svg">
<path d="M179.637 190.162C188.592 190.162 195.851 182.238 195.851 172.464C195.851 162.689 188.592 154.766 179.637 154.766C170.682 154.766 163.423 162.689 163.423 172.464C163.423 182.238 170.682 190.162 179.637 190.162Z" fill="#219FAE"/>
<path d="M302.25 455.306C298.438 455.306 295.348 452.216 295.348 448.404V355.479C295.348 322.326 322.323 295.355 355.48 295.355H448.397C452.209 295.355 455.299 298.445 455.299 302.257C455.299 306.069 452.209 309.159 448.397 309.159H355.48C329.935 309.159 309.151 329.938 309.151 355.479V448.404C309.151 452.216 306.061 455.306 302.25 455.306Z" fill="#219FAE"/>
<path d="M256.147 312.515C233.404 312.515 212.617 305.516 197.614 292.807C181.364 279.043 172.775 259.827 172.775 237.238C172.775 233.426 175.865 230.336 179.677 230.336C183.489 230.336 186.579 233.426 186.579 237.238C186.579 279.703 221.52 298.711 256.148 298.711C290.776 298.711 325.718 279.703 325.718 237.238C325.718 233.426 328.807 230.336 332.619 230.336C336.431 230.336 339.521 233.426 339.521 237.238C339.521 259.827 330.932 279.043 314.682 292.807C299.678 305.516 278.89 312.515 256.147 312.515Z" fill="#219FAE"/>
<path d="M332.618 190.162C341.573 190.162 348.832 182.238 348.832 172.464C348.832 162.689 341.573 154.766 332.618 154.766C323.663 154.766 316.404 162.689 316.404 172.464C316.404 182.238 323.663 190.162 332.618 190.162Z" fill="#219FAE"/>
<path d="M293.073 457.304H130.862C89.0321 457.304 55 423.272 55 381.442V130.862C55 89.032 89.0321 55 130.862 55H381.442C423.268 55 457.296 89.028 457.296 130.854V293.082C457.296 300.843 454.274 308.139 448.786 313.628L313.62 448.793C308.13 454.282 300.834 457.304 293.073 457.304ZM130.862 68.804C96.6431 68.804 68.803 96.643 68.803 130.863V381.443C68.803 415.662 96.6421 443.502 130.862 443.502H293.073C297.147 443.502 300.978 441.915 303.858 439.034L439.024 303.869C441.905 300.988 443.492 297.158 443.492 293.084V130.854C443.492 96.639 415.656 68.804 381.442 68.804H130.862Z" fill="#219FAE"/>
</svg>
