<svg width="520" height="520" viewBox="0 0 520 520" fill="none" xmlns="http://www.w3.org/2000/svg">
<path fill-rule="evenodd" clip-rule="evenodd" d="M260 520C116.406 520 0 403.594 0 260C0 116.406 116.406 0 260 0C403.594 0 520 116.406 520 260C520 403.594 403.594 520 260 520ZM259.998 472.727C377.484 472.727 472.725 377.486 472.725 260C472.725 142.514 377.484 47.2726 259.998 47.2726C142.512 47.2726 47.2709 142.514 47.2709 260C47.2709 377.486 142.512 472.727 259.998 472.727ZM141.819 283.638H297.483L243.288 337.834L276.715 371.261L387.974 260.002L276.715 148.743L243.288 182.17L297.483 236.366H141.819V283.638Z" fill="#C7C7C7"/>
</svg>
