<svg width="17" height="17" viewBox="0 0 17 17" fill="none" xmlns="http://www.w3.org/2000/svg">
<path fill-rule="evenodd" clip-rule="evenodd" d="M10.2 5.1H6.8V3.4C6.8 1.52223 5.27777 0 3.4 0C1.52223 0 0 1.52223 0 3.4C0 5.27777 1.52223 6.8 3.4 6.8H5.1V10.2H3.4C1.52223 10.2 0 11.7222 0 13.6C0 15.4778 1.52223 17 3.4 17C5.27777 17 6.8 15.4778 6.8 13.6V11.9H10.2V13.6C10.2 15.4778 11.7222 17 13.6 17C15.4778 17 17 15.4778 17 13.6C17 11.7222 15.4778 10.2 13.6 10.2H11.9V6.8H13.6C15.4778 6.8 17 5.27777 17 3.4C17 1.52223 15.4778 0 13.6 0C11.7222 0 10.2 1.52223 10.2 3.4V5.1ZM6.8 10.2V6.8H10.2V10.2H6.8ZM11.9 11.9V13.6C11.9 14.5389 12.6611 15.3 13.6 15.3C14.5389 15.3 15.3 14.5389 15.3 13.6C15.3 12.6611 14.5389 11.9 13.6 11.9H11.9ZM3.4 11.9H5.1V13.6C5.1 14.5389 4.33888 15.3 3.4 15.3C2.46112 15.3 1.7 14.5389 1.7 13.6C1.7 12.6611 2.46112 11.9 3.4 11.9ZM11.9 5.1H13.6C14.5389 5.1 15.3 4.33888 15.3 3.4C15.3 2.46112 14.5389 1.7 13.6 1.7C12.6611 1.7 11.9 2.46112 11.9 3.4V5.1ZM5.1 3.4V5.1H3.4C2.46112 5.1 1.7 4.33888 1.7 3.4C1.7 2.46112 2.46112 1.7 3.4 1.7C4.33888 1.7 5.1 2.46112 5.1 3.4Z" fill="#6C6C6C"/>
</svg>
