<svg width="240" height="274" viewBox="0 0 240 274" fill="none" xmlns="http://www.w3.org/2000/svg">
<path fill-rule="evenodd" clip-rule="evenodd" d="M0.918367 264.717C0.918367 269.419 4.73417 273.235 9.43577 273.235C14.1374 273.235 17.9532 269.419 17.9532 264.717V168.543C33.1341 163.638 77.9565 152.002 116.533 170.208C134.948 178.913 154.214 181.809 171.709 181.809C205.353 181.809 232.404 171.094 234.091 170.412C237.293 169.101 239.405 165.983 239.405 162.508V26.2297C239.405 23.4019 237.992 20.7615 235.641 19.1773C233.29 17.576 230.309 17.2864 227.685 18.3255C227.14 18.547 170.789 40.7093 123.79 18.5299C83.291 -0.598553 38.6773 8.34311 17.9532 14.4009V9.1952C17.9532 4.49359 14.1374 0.677795 9.43577 0.677795C4.73417 0.677795 0.918367 4.49359 0.918367 9.1952V26.147C0.918102 26.1746 0.917969 26.2021 0.917969 26.2297V162.508C0.917969 162.536 0.918102 162.563 0.918367 162.59V264.717Z" fill="#C4C4C4"/>
</svg>
