<svg width="294" height="295" viewBox="0 0 294 295" fill="none" xmlns="http://www.w3.org/2000/svg">
<path d="M236.025 5.61218H58.6654C27.2621 5.61218 1.80469 31.0695 1.80469 62.4728V234.704C1.80469 263.289 24.9775 286.461 53.5625 286.461H183.847L289.24 181.068V58.828C289.24 29.4377 265.415 5.61218 236.025 5.61218Z" fill="#C4C4C4"/>
<path d="M91.3832 99.3863C97.9095 99.3863 103.2 93.6095 103.2 86.4833C103.2 79.3572 97.9095 73.5803 91.3832 73.5803C84.857 73.5803 79.5664 79.3572 79.5664 86.4833C79.5664 93.6095 84.857 99.3863 91.3832 99.3863Z" fill="#E5E5E5"/>
<path d="M147.154 188.577C130.577 188.577 115.422 183.474 104.487 174.216C92.6409 164.178 86.3789 150.159 86.3789 133.706C86.3789 132.372 86.9089 131.093 87.8522 130.149C88.7955 129.206 90.0749 128.676 91.4089 128.676C92.7429 128.676 94.0223 129.206 94.9656 130.149C95.9089 131.093 96.4389 132.372 96.4389 133.706C96.4389 164.659 121.91 178.517 147.154 178.517C172.399 178.517 197.87 164.666 197.87 133.706C197.87 132.372 198.4 131.093 199.343 130.149C200.286 129.206 201.566 128.676 202.9 128.676C204.234 128.676 205.513 129.206 206.456 130.149C207.4 131.093 207.93 132.372 207.93 133.706C207.93 150.174 201.668 164.178 189.822 174.216C178.887 183.474 163.731 188.577 147.154 188.577Z" fill="#E5E5E5"/>
<path d="M202.856 99.3863C209.382 99.3863 214.673 93.6095 214.673 86.4833C214.673 79.3572 209.382 73.5803 202.856 73.5803C196.33 73.5803 191.039 79.3572 191.039 86.4833C191.039 93.6095 196.33 99.3863 202.856 99.3863Z" fill="#E5E5E5"/>
<path d="M174.064 294.127H55.8085C41.1501 294.1 27.0998 288.265 16.7348 277.9C6.36976 267.535 0.53479 253.485 0.507812 238.826V56.1577C0.53479 41.4994 6.36976 27.4491 16.7348 17.084C27.0998 6.719 41.1501 0.884033 55.8085 0.857056H238.477C253.138 0.87249 267.194 6.70275 277.561 17.0687C287.928 27.4347 293.76 41.4898 293.778 56.1504V174.413C293.786 177.197 293.241 179.954 292.177 182.525C291.112 185.097 289.547 187.431 287.574 189.394L189.037 287.923C187.076 289.896 184.743 291.461 182.172 292.525C179.602 293.59 176.846 294.135 174.064 294.127V294.127ZM55.8085 10.917C43.8153 10.9325 32.3179 15.7041 23.8381 24.1852C15.3583 32.6664 10.5886 44.1646 10.5751 56.1577V238.826C10.5886 250.82 15.3583 262.318 23.8381 270.799C32.3179 279.28 43.8153 284.052 55.8085 284.067H174.064C175.524 284.07 176.971 283.784 178.32 283.225C179.669 282.665 180.893 281.844 181.923 280.808L280.459 182.272C281.494 181.242 282.314 180.017 282.872 178.668C283.43 177.319 283.715 175.873 283.71 174.413V56.1504C283.687 44.1706 278.918 32.688 270.447 24.2169C261.976 15.7458 250.493 10.9766 238.514 10.9535L55.8085 10.917Z" fill="#C4C4C4"/>
<path d="M289.829 183.146H212.173C194.525 183.146 180.356 197.709 180.839 215.351L182.9 290.613L289.829 183.146Z" fill="#E0E0E0"/>
</svg>
