<svg width="45" height="40" viewBox="0 0 45 40" fill="none" xmlns="http://www.w3.org/2000/svg">
<path d="M2.92969 20.7693C2.92969 30.8376 12.3475 38.9995 23.9651 38.9995C35.5826 38.9995 45.0004 30.8376 45.0004 20.7693C45.0004 10.701 35.5826 2.53906 23.9651 2.53906V20.7693H2.92969Z" fill="#CDD6E0"/>
<path d="M23.9652 20.7715L31.9875 37.6285C29.5156 38.5137 26.8056 39.0018 23.9652 39.0018C12.3482 39.0018 2.92969 30.84 2.92969 20.7715H23.9652Z" fill="#209FAE"/>
<path d="M0 18.2302H21.0354V0C9.4178 0 0 8.16189 0 18.2302Z" fill="#14646E"/>
<path d="M11.2659 10.7948C11.2635 10.7894 11.261 10.7839 11.2585 10.7785C11.133 10.5143 10.8391 10.3438 10.5095 10.3438C10.5093 10.3438 10.5089 10.3438 10.5087 10.3438C10.1787 10.3441 9.8848 10.5152 9.7599 10.7798C9.75779 10.7843 9.75577 10.7887 9.75384 10.7932L7.58666 15.7246C7.45315 16.0284 7.62903 16.3684 7.97954 16.484C8.33032 16.5999 8.72241 16.4473 8.85583 16.1436L9.22903 15.2945H11.7735L12.1425 16.1419C12.2452 16.3776 12.5036 16.5228 12.778 16.5228C12.8576 16.5228 12.9386 16.5106 13.0176 16.4848C13.3684 16.37 13.5456 16.0305 13.4132 15.7264L11.2659 10.7948ZM9.74628 14.1174L10.5071 12.3861L11.2609 14.1174H9.74628Z" fill="white"/>
<path d="M19.5989 15.5955L17.6997 13.2558L19.3128 11.2713C19.5289 11.0055 19.4554 10.6384 19.1488 10.4512C18.8422 10.264 18.4184 10.3277 18.2025 10.5934L16.8695 12.2332L15.5387 10.5938C15.323 10.328 14.8994 10.2641 14.5926 10.451C14.2858 10.638 14.2121 11.0052 14.4279 11.271L16.0387 13.2555L14.1367 15.5953C13.9207 15.861 13.9941 16.2282 14.3008 16.4154C14.4197 16.488 14.5561 16.5228 14.6913 16.5228C14.9047 16.5228 15.1147 16.4359 15.247 16.2732L16.8688 14.2781L18.488 16.2729C18.6203 16.4357 18.8304 16.5228 19.044 16.5228C19.179 16.5228 19.3154 16.488 19.4341 16.4156C19.741 16.2285 19.8147 15.8614 19.5989 15.5955Z" fill="white"/>
<path d="M8.07281 10.9323C8.07281 10.6072 7.76879 10.3438 7.39375 10.3438H4.2064C3.83137 10.3438 3.52734 10.6072 3.52734 10.9323C3.52734 11.2573 3.83137 11.5208 4.2064 11.5208H5.11451V15.9341C5.11451 16.2591 5.41853 16.5226 5.79357 16.5226C6.16861 16.5226 6.47263 16.2591 6.47263 15.9341V11.5208H7.39366C7.76879 11.5208 8.07281 11.2573 8.07281 10.9323Z" fill="white"/>
<path d="M31.7659 24.0497C31.6783 24.0497 31.5893 24.0349 31.5034 24.0037C31.1575 23.8779 30.9948 23.5329 31.14 23.2333L36.1222 12.9449C36.2673 12.6451 36.6654 12.5042 37.0112 12.63C37.357 12.7557 37.5197 13.1007 37.3745 13.4004L32.3923 23.6888C32.2833 23.914 32.0313 24.0497 31.7659 24.0497Z" fill="#14646E"/>
<path d="M30.8122 17.7146C29.2238 17.7146 27.9316 16.4561 27.9316 14.9091C27.9316 13.3621 29.2238 12.1035 30.8122 12.1035C32.4005 12.1035 33.6927 13.3621 33.6927 14.9091C33.6927 16.4561 32.4005 17.7146 30.8122 17.7146ZM30.8122 13.2806C29.9728 13.2806 29.2898 14.0112 29.2898 14.9091C29.2898 15.807 29.9728 16.5376 30.8122 16.5376C31.6515 16.5376 32.3345 15.807 32.3345 14.9091C32.3345 14.0111 31.6515 13.2806 30.8122 13.2806Z" fill="#14646E"/>
<path d="M37.5407 24.7478C35.9524 24.7478 34.6602 23.4893 34.6602 21.9423C34.6602 20.3953 35.9524 19.1367 37.5407 19.1367C39.129 19.1367 40.4212 20.3953 40.4212 21.9423C40.4213 23.4893 39.1291 24.7478 37.5407 24.7478ZM37.5407 20.3138C36.7013 20.3138 36.0184 21.0444 36.0184 21.9423C36.0184 22.8403 36.7013 23.5708 37.5407 23.5708C38.38 23.5708 39.063 22.8402 39.063 21.9423C39.0631 21.0444 38.3801 20.3138 37.5407 20.3138Z" fill="#14646E"/>
<path d="M19.9748 28.5892C19.7777 28.5288 19.576 28.4654 19.3748 28.3995V25.6166C19.8808 25.7216 20.1822 25.9434 20.2084 25.9632C20.4843 26.1797 20.9105 26.1635 21.1633 25.9259C21.4176 25.687 21.4003 25.3146 21.1246 25.0943C21.086 25.0634 20.4371 24.5568 19.3749 24.4186V23.8502C19.3749 23.5252 19.0709 23.2617 18.6958 23.2617C18.3208 23.2617 18.0168 23.5252 18.0168 23.8502V24.4638C17.916 24.4831 17.8137 24.5051 17.7092 24.5324C16.7378 24.786 16.0119 25.5065 15.8149 26.4128C15.6352 27.2391 15.9407 28.0358 16.612 28.4921C16.9678 28.734 17.4105 28.9554 18.0168 29.1893V32.7184C17.4922 32.6849 17.1289 32.5737 16.5334 32.2361C16.2195 32.0581 15.7986 32.1345 15.5933 32.4065C15.388 32.6785 15.476 33.0433 15.7898 33.2212C16.658 33.7134 17.251 33.8601 18.0168 33.8975V34.5339C18.0168 34.859 18.3208 35.1224 18.6958 35.1224C19.0709 35.1224 19.3749 34.859 19.3749 34.5339V33.8507C20.8985 33.5916 21.7884 32.5028 21.9856 31.4858C22.2393 30.1781 21.45 29.0411 19.9748 28.5892ZM17.4499 27.5659C17.1791 27.3818 17.0639 27.0235 17.1494 26.6307C17.2259 26.2787 17.494 25.8558 18.0166 25.6847V27.8797C17.8034 27.7795 17.6104 27.675 17.4499 27.5659ZM20.6463 31.2905C20.5417 31.8293 20.1088 32.4004 19.3748 32.628V29.6532C19.4238 29.6685 19.4717 29.6835 19.5222 29.699C20.777 30.0834 20.6998 31.0143 20.6463 31.2905Z" fill="#F6F1F1"/>
</svg>
