<svg width="16" height="17" viewBox="0 0 16 17" fill="none" xmlns="http://www.w3.org/2000/svg">
<path fill-rule="evenodd" clip-rule="evenodd" d="M7.0893 5.07123C7.50379 4.51265 7.65242 3.92395 7.18364 3.40431C6.13165 1.93229 5.42416 1.022 4.98039 0.583626C4.13672 -0.249782 2.74887 -0.13705 2.01819 0.582914C1.62573 0.969614 1.49287 1.10241 1.08991 1.51171C-1.15467 3.75749 0.214189 8.505 3.85312 12.1475C7.49122 15.7892 12.2383 17.1588 14.4876 14.9082C14.8594 14.5498 15.1742 14.2348 15.4225 13.9723C16.1386 13.2155 16.2473 11.8889 15.4178 11.027C14.9926 10.5851 14.1245 9.9118 12.5906 8.81455C12.1208 8.39446 11.5637 8.48551 11.053 8.82056C10.8074 8.98172 10.6286 9.14476 10.291 9.48267L9.67799 10.096C9.59725 10.1768 8.50091 9.62775 7.43667 8.56246C6.37184 7.4966 5.82317 6.40019 5.90353 6.31984L6.51697 5.70606C6.62407 5.59886 6.67527 5.54695 6.74094 5.47794C6.87775 5.33415 6.99102 5.20366 7.0893 5.07123ZM10.8089 11.2257L11.4221 10.6122C11.6078 10.4262 11.7283 10.3119 11.8262 10.233C13.17 11.198 13.9482 11.8048 14.2661 12.1351C14.4569 12.3334 14.4273 12.6952 14.2614 12.8706C14.0318 13.1133 13.7335 13.4117 13.3674 13.7648C11.9129 15.2199 8.08099 14.1143 4.98429 11.0146C1.88663 7.91388 0.78159 4.08136 2.22508 2.63708C2.62642 2.22947 2.75358 2.10237 3.14043 1.72119C3.28548 1.57827 3.68057 1.54618 3.85702 1.72048C4.19868 2.05799 4.83246 2.86949 5.76478 4.1682C5.71651 4.22812 5.65623 4.29583 5.58287 4.37293C5.52903 4.42952 5.48417 4.47499 5.3861 4.57315L4.77327 5.18632C3.73073 6.22878 4.6186 8.003 6.3058 9.69186C7.99185 11.3796 9.76673 12.2684 10.8089 11.2257Z" fill="#464646"/>
</svg>
