<svg width="19" height="13" viewBox="0 0 19 13" fill="none" xmlns="http://www.w3.org/2000/svg">
<path d="M18.5079 6.50877C18.6662 6.50877 18.7771 6.38212 18.7929 6.23962V2.78819C18.7929 2.62987 18.6662 2.51904 18.5079 2.50321H17.748L17.4155 0.239198C17.3997 0.0808753 17.2572 -0.0141182 17.0988 0.00171403L12.8083 0.635004H12.7925L0.253316 2.51904C0.253316 2.51904 0.0158322 2.56654 0.0158322 2.78819V6.22379C0.0158322 6.38212 0.14249 6.49294 0.284981 6.50877C0.9816 6.50877 1.53573 7.0629 1.53573 7.75952C1.53573 8.45614 0.9816 9.01027 0.284981 9.01027C0.126658 9.01027 0.0158323 9.13693 0 9.27942V12.715C0 12.8733 0.126658 12.9842 0.284981 13H18.4921C18.6504 13 18.7612 12.8733 18.7771 12.715V9.29525C18.7771 9.13693 18.6504 9.0261 18.5079 9.01027C17.8113 9.01027 17.2572 8.45614 17.2572 7.75952C17.2572 7.0629 17.8113 6.50877 18.5079 6.50877ZM12.6025 1.23663L12.7133 1.98075C12.7291 2.12324 12.8558 2.21823 12.9825 2.21823H13.03C13.1883 2.2024 13.2833 2.05991 13.2674 1.90159L13.1566 1.15747L16.9089 0.60334L17.1938 2.51904H4.03723L12.6025 1.23663ZM18.2388 9.54857V12.4617H14.1382V11.7018C14.1382 11.5434 14.0115 11.4168 13.8532 11.4168C13.6949 11.4168 13.5682 11.5434 13.5682 11.7018V12.4617H0.585794V9.54857C1.56739 9.39024 2.24818 8.47197 2.08986 7.49037C1.9632 6.71459 1.36157 6.09713 0.585794 5.98631V3.07317H13.5841V3.81729C13.5841 3.97561 13.7107 4.10227 13.8691 4.10227C14.0274 4.10227 14.154 3.97561 14.154 3.81729V3.05734H18.2546V5.97048C17.273 6.1288 16.5922 7.04707 16.7505 8.02867C16.8455 8.82028 17.4472 9.42191 18.2388 9.54857Z" fill="#464646"/>
<path d="M13.8533 8.18652C13.695 8.18652 13.5842 8.31318 13.5684 8.45567V10.2922C13.5684 10.4505 13.695 10.5772 13.8533 10.5772C14.0117 10.5772 14.1383 10.4505 14.1383 10.2922V8.4715C14.1383 8.31318 14.0117 8.18652 13.8533 8.18652Z" fill="#464646"/>
<path d="M13.8533 4.95703C13.695 4.95703 13.5842 5.08369 13.5684 5.22618V7.06272C13.5684 7.22104 13.695 7.3477 13.8533 7.3477C14.0117 7.3477 14.1383 7.22104 14.1383 7.06272V5.22618C14.1383 5.08369 14.0117 4.95703 13.8533 4.95703Z" fill="#464646"/>
<path d="M3.59357 5.40081H7.02917C7.1875 5.40081 7.31416 5.27415 7.31416 5.11583C7.31416 4.95751 7.1875 4.84668 7.02917 4.84668H3.59357C3.43525 4.84668 3.30859 4.97334 3.30859 5.13166C3.30859 5.28998 3.43525 5.40081 3.59357 5.40081Z" fill="#464646"/>
<path d="M10.4648 6.60352H3.59357C3.43525 6.60352 3.30859 6.73017 3.30859 6.8885C3.30859 7.04682 3.43525 7.17348 3.59357 7.17348H10.4648C10.6231 7.17348 10.7498 7.04682 10.7498 6.8885C10.7498 6.73017 10.6231 6.60352 10.4648 6.60352Z" fill="#464646"/>
<path d="M10.4648 8.36133H3.59357C3.43525 8.36133 3.30859 8.48799 3.30859 8.64631C3.30859 8.80463 3.43525 8.93129 3.59357 8.93129H10.4648C10.6231 8.93129 10.7498 8.80463 10.7498 8.64631C10.7498 8.48799 10.6231 8.36133 10.4648 8.36133Z" fill="#464646"/>
<path d="M10.4648 10.1182H3.59357C3.43525 10.1182 3.30859 10.2448 3.30859 10.4031C3.30859 10.5615 3.43525 10.6881 3.59357 10.6881H10.4648C10.6231 10.6881 10.7498 10.5615 10.7498 10.4031C10.7498 10.2448 10.6231 10.1182 10.4648 10.1182Z" fill="#464646"/>
</svg>
