<svg width="14" height="14" viewBox="0 0 14 14" fill="none" xmlns="http://www.w3.org/2000/svg">
<path d="M6.48084 0.229894C6.76092 -0.0766311 7.23908 -0.0766314 7.51916 0.229894L8.69461 1.51635C8.84968 1.68606 9.07594 1.76955 9.30233 1.7406L11.0184 1.52114C11.4273 1.46885 11.7936 1.78046 11.8138 2.1978L11.8986 3.9493C11.9098 4.18036 12.0302 4.39178 12.222 4.51713L13.6757 5.46736C14.0221 5.69377 14.1051 6.17118 13.856 6.50405L12.8105 7.90106C12.6726 8.08535 12.6308 8.32576 12.6982 8.54677L13.2094 10.2221C13.3312 10.6212 13.0921 11.0411 12.6902 11.1337L11.0036 11.5225C10.7811 11.5738 10.5966 11.7308 10.5082 11.944L9.83761 13.5605C9.67783 13.9456 9.22851 14.1114 8.86191 13.9205L7.32336 13.1192C7.12039 13.0135 6.87961 13.0135 6.67664 13.1192L5.13809 13.9205C4.7715 14.1114 4.32217 13.9456 4.16239 13.5605L3.49181 11.944C3.40335 11.7308 3.2189 11.5738 2.9964 11.5225L1.30978 11.1337C0.907905 11.0411 0.668825 10.6212 0.790621 10.2221L1.30179 8.54677C1.36922 8.32576 1.32741 8.08535 1.18949 7.90106L0.143986 6.50405C-0.105127 6.17118 -0.0220954 5.69377 0.324287 5.46736L1.77802 4.51713C1.96979 4.39178 2.09019 4.18036 2.10138 3.9493L2.1862 2.1978C2.20641 1.78046 2.5727 1.46885 2.98159 1.52114L4.69767 1.7406C4.92406 1.76955 5.15032 1.68606 5.30539 1.51635L6.48084 0.229894Z" fill="#209FAE"/>
<path d="M8.84427 10.9269C8.84718 10.9155 8.74023 3.96324 8.73781 3.95211C8.72263 3.89443 8.67442 3.84572 8.6155 3.84683L8.42789 3.84983C8.3681 3.85113 8.32147 3.90068 8.30814 3.95915C8.26281 4.15544 8.08869 4.30344 7.87789 4.30697C7.66709 4.31051 7.48814 4.1673 7.43691 3.97221C7.42172 3.91454 7.37351 3.86582 7.31459 3.86693L7.17697 3.86896L7.12612 3.8701C7.06634 3.8714 7.0197 3.92096 7.00637 3.97942C6.96105 4.17572 6.78692 4.32371 6.57613 4.32724C6.36532 4.33078 6.18637 4.18757 6.13514 3.99248C6.11995 3.93481 6.07175 3.88609 6.01282 3.8872L5.82521 3.8902C5.76543 3.8915 5.71879 3.94106 5.70546 3.99952C5.66014 4.19581 5.48601 4.3438 5.27521 4.34734C5.06441 4.35087 4.88546 4.20766 4.83423 4.01257C4.81904 3.9549 4.77084 3.90619 4.71191 3.9073L4.50368 3.91029C4.4439 3.91158 4.39622 3.96047 4.39751 4.02024C4.39751 4.02024 4.50551 11.0064 4.507 11.0132C4.51776 11.0629 4.56233 11.0989 4.61422 11.0984L4.82245 11.0955C4.88223 11.0942 4.92887 11.0446 4.9422 10.9861C4.98752 10.7899 5.16165 10.6419 5.37245 10.6383C5.58325 10.6348 5.7622 10.778 5.81343 10.9731C5.82862 11.0308 5.87682 11.0795 5.93575 11.0784L6.12336 11.0754C6.18314 11.0741 6.22978 11.0245 6.24311 10.9661C6.28843 10.7698 6.46255 10.6218 6.67336 10.6182C6.88416 10.6147 7.0631 10.7579 7.11434 10.953C7.12952 11.0107 7.17773 11.0594 7.23666 11.0583L7.42427 11.0553C7.48405 11.054 7.53069 11.0044 7.54402 10.946C7.58934 10.7497 7.76346 10.6017 7.97427 10.5981C8.18508 10.5946 8.36402 10.7378 8.41526 10.9329C8.43044 10.9906 8.47865 11.0393 8.53758 11.0382L8.72519 11.0352C8.78515 11.0347 8.83094 10.9854 8.84427 10.9269ZM5.4131 5.69535C5.29249 5.69727 5.19265 5.60057 5.19072 5.47996C5.1888 5.35936 5.2855 5.25952 5.4061 5.25759L6.87333 5.23553L7.77754 5.2216C7.88389 5.22007 7.97341 5.29391 7.99512 5.39409C7.99809 5.4078 7.99953 5.42272 7.99992 5.43698C8.00185 5.55758 7.90515 5.65742 7.78454 5.65935L6.7757 5.67444L5.4131 5.69535ZM5.47452 9.72333C5.35392 9.72526 5.25408 9.62856 5.25215 9.50795C5.25022 9.38735 5.34692 9.2875 5.46753 9.28558L5.97419 9.278L6.5487 9.26916L7.01155 9.2621L7.83878 9.24872C7.94513 9.24718 8.03465 9.32103 8.05636 9.42121C8.05932 9.43491 8.06077 9.44984 8.06116 9.46409C8.0616 9.47027 8.06118 9.47663 8.06059 9.48214C8.05276 9.595 7.96002 9.68413 7.8456 9.68561L7.67861 9.68863L7.24618 9.69536L5.47452 9.72333Z" fill="white"/>
</svg>
