<svg width="39" height="41" viewBox="0 0 39 41" fill="none" xmlns="http://www.w3.org/2000/svg">
<path d="M38.3497 34.8505C38.35 35.0788 38.337 35.3071 38.3108 35.5339C38.0138 38.0123 36.1575 39.9639 33.8 40.2761C33.3683 40.3308 32.9318 40.3308 32.5001 40.2761C32.3894 40.2626 32.279 40.242 32.1748 40.2216C29.9614 39.7765 28.272 37.8844 27.989 35.5339C27.9369 35.0801 27.9369 34.6212 27.989 34.1673C28.272 31.8166 29.9614 29.9247 32.1748 29.4796C32.279 29.4589 32.3894 29.4386 32.5001 29.4248C32.9318 29.3701 33.3683 29.3701 33.8 29.4248C36.1575 29.737 38.0138 31.6889 38.3108 34.1673C38.337 34.3941 38.35 34.6221 38.3497 34.8505Z" fill="#14646E"/>
<path d="M38.3497 20.4726C38.3512 20.7103 38.3361 20.9477 38.3045 21.1833C37.9995 23.6501 36.1476 25.5885 33.8 25.8982C33.3683 25.9529 32.9318 25.9529 32.5 25.8982C32.3894 25.8844 32.279 25.8641 32.1748 25.8435C29.9712 25.4012 28.2859 23.5221 27.9955 21.1833C27.964 20.9477 27.9488 20.7103 27.95 20.4726C27.95 20.2533 27.9631 20.034 27.989 19.8163C28.2592 17.4543 29.9522 15.5475 32.1748 15.1014C32.279 15.0811 32.3894 15.0604 32.5 15.0467C32.9318 14.9923 33.3683 14.9923 33.8 15.0467C36.1667 15.3598 38.0269 17.3264 38.3108 19.8163C38.3369 20.034 38.3497 20.2533 38.3497 20.4726Z" fill="#14646E"/>
<path d="M38.3497 6.15123C38.35 6.37958 38.337 6.60762 38.3108 6.8344C38.0138 9.31276 36.1575 11.2647 33.8 11.5768C33.3683 11.6316 32.9318 11.6316 32.5001 11.5768C32.3894 11.5631 32.279 11.5427 32.1748 11.5221C29.9614 11.077 28.272 9.18513 27.989 6.8344C27.9369 6.38052 27.9369 5.92163 27.989 5.46775C28.272 3.11734 29.9614 1.22518 32.1748 0.780054C32.279 0.759722 32.3894 0.739077 32.5001 0.725626C32.9318 0.670885 33.3683 0.670885 33.8 0.725626C36.1575 1.03781 38.0138 2.9894 38.3108 5.46775C38.337 5.69454 38.35 5.92289 38.3497 6.15123Z" fill="#14646E"/>
<path d="M36.3995 34.8474C36.3995 35.0758 36.3867 35.3041 36.3605 35.5309C36.0775 37.8813 34.3881 39.7735 32.1744 40.2186C29.9609 39.7735 28.2715 37.8813 27.9885 35.5309C27.9364 35.077 27.9364 34.6181 27.9885 34.1643C28.2715 31.8135 29.9609 29.9217 32.1744 29.4766C34.3881 29.9217 36.0775 31.8135 36.3605 34.1643C36.3867 34.391 36.3995 34.6191 36.3995 34.8474Z" fill="#209FAE"/>
<path d="M36.3995 20.4727C36.4007 20.7105 36.3855 20.9479 36.3539 21.1834C36.0635 23.5223 34.3783 25.4013 32.1743 25.8436C29.9707 25.4013 28.2855 23.5223 27.9951 21.1834C27.9635 20.9479 27.9483 20.7105 27.9495 20.4727C27.9495 20.2535 27.9626 20.0342 27.9885 19.8165C28.2587 17.4545 29.9517 15.5476 32.1743 15.1016C34.3973 15.5476 36.0903 17.4545 36.3605 19.8165C36.3864 20.0342 36.3995 20.2535 36.3995 20.4727Z" fill="#209FAE"/>
<path d="M36.3997 6.14852C36.3997 6.37687 36.3869 6.6049 36.3607 6.83169C36.0778 9.18242 34.3883 11.0743 32.1746 11.5194C29.9612 11.0743 28.2717 9.18242 27.9888 6.83169C27.9367 6.37781 27.9367 5.91892 27.9888 5.46504C28.2717 3.11462 29.9612 1.22247 32.1746 0.777344C34.3883 1.22247 36.0778 3.11462 36.3607 5.46504C36.3869 5.69183 36.3997 5.92017 36.3997 6.14852Z" fill="#209FAE"/>
<path d="M24.6986 34.8475C24.6989 35.0759 24.6858 35.3042 24.6597 35.531C24.3627 38.0094 22.506 39.961 20.1489 40.2731C19.7169 40.3279 19.2807 40.3279 18.8486 40.2731C16.4915 39.961 14.6348 38.0094 14.3379 35.531C14.2858 35.0771 14.2858 34.6182 14.3379 34.1644C14.6348 31.686 16.4915 29.7341 18.8486 29.4219C19.2807 29.3672 19.7169 29.3672 20.1489 29.4219C22.506 29.7341 24.3627 31.686 24.6597 34.1644C24.6858 34.3911 24.6989 34.6192 24.6986 34.8475Z" fill="#209FAE"/>
<path d="M11.0492 34.8475C11.0495 35.0759 11.0364 35.3042 11.0102 35.531C10.7133 38.0094 8.85662 39.961 6.49919 40.2731C6.06745 40.3279 5.63096 40.3279 5.19922 40.2731C2.84179 39.961 0.985415 38.0094 0.688467 35.531C0.636397 35.0771 0.636397 34.6182 0.688467 34.1644C0.985415 31.686 2.84179 29.7341 5.19922 29.4219C5.63096 29.3672 6.06745 29.3672 6.49919 29.4219C8.85662 29.7341 10.7133 31.686 11.0102 34.1644C11.0364 34.3911 11.0495 34.6192 11.0492 34.8475Z" fill="#209FAE"/>
<path d="M24.6986 20.4726C24.6998 20.7103 24.6846 20.9478 24.6531 21.1833C24.3484 23.6501 22.4965 25.5885 20.1489 25.8982C19.7169 25.9529 19.2807 25.9529 18.8486 25.8982C16.501 25.5885 14.6491 23.6501 14.3444 21.1833C14.3129 20.9478 14.2977 20.7103 14.2989 20.4726C14.2989 20.2533 14.312 20.034 14.3379 19.8163C14.6217 17.3264 16.482 15.3598 18.8486 15.0467C19.2807 14.9923 19.7169 14.9923 20.1489 15.0467C22.5155 15.3598 24.3758 17.3264 24.6596 19.8163C24.6855 20.034 24.6986 20.2533 24.6986 20.4726Z" fill="#209FAE"/>
<path d="M11.0492 20.4726C11.0504 20.7103 11.0353 20.9478 11.0037 21.1833C10.699 23.6501 8.84712 25.5885 6.49921 25.8982C6.06747 25.9529 5.63098 25.9529 5.19924 25.8982C2.85163 25.5885 0.999722 23.6501 0.69474 21.1833C0.663201 20.9478 0.648026 20.7103 0.649514 20.4726C0.649514 20.2533 0.662308 20.034 0.688492 19.8163C0.972348 17.3264 2.83259 15.3598 5.19924 15.0467C5.63098 14.9923 6.06747 14.9923 6.49921 15.0467C8.86616 15.3598 10.7261 17.3264 11.0103 19.8163C11.0361 20.034 11.0492 20.2533 11.0492 20.4726Z" fill="#209FAE"/>
<path d="M24.7005 20.5017C24.7008 20.73 24.6878 20.9584 24.6616 21.1852C24.3646 23.6632 22.508 25.6151 20.1508 25.9273C19.7188 25.982 19.2826 25.982 18.8506 25.9273C17.7217 25.7797 16.6705 25.2438 15.8608 24.4036C16.9201 22.2099 19.1627 19.2786 23.7648 17.3721C24.251 18.0972 24.5589 18.9377 24.6616 19.8182C24.6878 20.045 24.7008 20.2733 24.7005 20.5017Z" fill="#14646E"/>
<path d="M11.0502 20.5017C11.0505 20.73 11.0374 20.9584 11.0112 21.1852C10.7143 23.6632 8.85762 25.6151 6.50018 25.9273C6.06845 25.982 5.63195 25.982 5.20022 25.9273C4.07104 25.7797 3.02012 25.2438 2.21021 24.4036C3.26976 22.2099 5.51234 19.2786 10.1141 17.3721C10.6006 18.0972 10.9086 18.9377 11.0112 19.8182C11.0374 20.045 11.0505 20.2733 11.0502 20.5017Z" fill="#14646E"/>
<path d="M38.3497 20.5017C38.35 20.73 38.3369 20.9584 38.3107 21.1852C38.0138 23.6632 36.1574 25.6151 33.8 25.9273C33.3683 25.982 32.9318 25.982 32.5 25.9273C31.3708 25.7797 30.3196 25.2438 29.51 24.4036C30.5696 22.2099 32.8118 19.2786 37.4139 17.3721C37.9001 18.0972 38.2084 18.9377 38.3107 19.8182C38.3369 20.045 38.35 20.2733 38.3497 20.5017Z" fill="#14646E"/>
<path d="M24.7005 34.8513C24.7008 35.0796 24.6878 35.308 24.6616 35.5348C24.3646 38.0131 22.508 39.9647 20.1508 40.2769C19.7188 40.3316 19.2826 40.3316 18.8506 40.2769C17.7217 40.1293 16.6705 39.5934 15.8608 38.7532C16.9201 36.5598 19.1627 33.6282 23.7648 31.7217C24.251 32.4471 24.5589 33.2873 24.6616 34.1681C24.6878 34.3949 24.7008 34.6229 24.7005 34.8513Z" fill="#14646E"/>
<path d="M11.0502 34.8513C11.0505 35.0796 11.0374 35.308 11.0112 35.5348C10.7143 38.0131 8.85762 39.9647 6.50018 40.2769C6.06845 40.3316 5.63195 40.3316 5.20022 40.2769C4.07104 40.1293 3.02012 39.5934 2.21021 38.7532C3.26976 36.5598 5.51234 33.6282 10.1141 31.7217C10.6006 32.4471 10.9086 33.2873 11.0112 34.1681C11.0374 34.3949 11.0505 34.6229 11.0502 34.8513Z" fill="#14646E"/>
<path d="M38.3497 34.8513C38.35 35.0796 38.3369 35.308 38.3107 35.5348C38.0138 38.0131 36.1574 39.9647 33.8 40.2769C33.3683 40.3316 32.9318 40.3316 32.5 40.2769C31.3708 40.1293 30.3196 39.5934 29.51 38.7532C30.5696 36.5598 32.8118 33.6282 37.4139 31.7217C37.9001 32.4471 38.2084 33.2873 38.3107 34.1681C38.3369 34.3949 38.35 34.6229 38.3497 34.8513Z" fill="#14646E"/>
<path d="M24.7003 6.15123C24.7006 6.37958 24.6875 6.60762 24.6614 6.8344C24.3644 9.31276 22.5077 11.2647 20.1506 11.5768C19.7186 11.6316 19.2824 11.6316 18.8503 11.5768C16.4932 11.2647 14.6365 9.31276 14.3396 6.8344C14.2875 6.38052 14.2875 5.92163 14.3396 5.46775C14.6365 2.9894 16.4932 1.03781 18.8503 0.725626C19.2824 0.670885 19.7186 0.670885 20.1506 0.725626C22.5077 1.03781 24.3644 2.9894 24.6614 5.46775C24.6875 5.69454 24.7006 5.92289 24.7003 6.15123Z" fill="#209FAE"/>
<path d="M24.7005 6.14915C24.7008 6.3775 24.6878 6.60553 24.6616 6.83231C24.3646 9.31067 22.508 11.2626 20.1508 11.5748C19.7188 11.6295 19.2826 11.6295 18.8506 11.5748C17.7217 11.4268 16.6705 10.8913 15.8608 10.0508C16.9201 7.85738 19.1627 4.92577 23.7648 3.01953C24.251 3.74461 24.5589 4.58512 24.6616 5.46567C24.6878 5.69245 24.7008 5.9208 24.7005 6.14915Z" fill="#14646E"/>
<path d="M11.0497 6.15123C11.05 6.37958 11.0369 6.60762 11.0107 6.8344C10.7138 9.31276 8.85711 11.2647 6.49967 11.5768C6.06794 11.6316 5.63144 11.6316 5.19971 11.5768C2.84436 11.2603 0.989771 9.31088 0.688955 6.8344C0.636885 6.38052 0.636885 5.92163 0.688955 5.46775C0.985903 2.9894 2.84227 1.03781 5.19971 0.725626C5.63144 0.670885 6.06794 0.670885 6.49967 0.725626C7.95912 0.918627 9.27248 1.75288 10.1136 3.02162C10.6001 3.7467 10.9081 4.58721 11.0107 5.46775C11.0369 5.69454 11.05 5.92289 11.0497 6.15123Z" fill="#209FAE"/>
<path d="M11.0502 6.14915C11.0505 6.3775 11.0374 6.60553 11.0112 6.83231C10.7143 9.31067 8.85762 11.2626 6.50018 11.5748C6.06845 11.6295 5.63195 11.6295 5.20022 11.5748C4.07104 11.4268 3.02012 10.8913 2.21021 10.0508C3.26976 7.85738 5.51234 4.92577 10.1141 3.01953C10.6006 3.74461 10.9086 4.58512 11.0112 5.46567C11.0374 5.69245 11.0505 5.9208 11.0502 6.14915Z" fill="#14646E"/>
<path d="M38.3497 6.14915C38.35 6.3775 38.3369 6.60553 38.3107 6.83231C38.0138 9.31067 36.1574 11.2626 33.8 11.5748C33.3683 11.6295 32.9318 11.6295 32.5 11.5748C31.3708 11.4268 30.3196 10.8913 29.51 10.0508C30.5696 7.85738 32.8118 4.92577 37.4139 3.01953C37.9001 3.74461 38.2084 4.58512 38.3107 5.46567C38.3369 5.69245 38.35 5.9208 38.3497 6.14915Z" fill="#14646E"/>
<path d="M19.4994 12.3001C16.2687 12.3001 13.6494 9.5465 13.6494 6.15006C13.6494 2.75331 16.2687 0 19.4994 0C22.7301 0 25.3494 2.75331 25.3494 6.15006C25.3458 9.54494 22.7286 12.2964 19.4994 12.3001ZM19.4994 1.36665C16.9867 1.36665 14.9494 3.50811 14.9494 6.15006C14.9494 8.7917 16.9867 10.9335 19.4994 10.9335C22.0122 10.9335 24.0494 8.7917 24.0494 6.15006C24.0465 3.50936 22.011 1.36977 19.4994 1.36665Z" fill="black"/>
<path d="M5.84999 12.3001C2.61897 12.3001 0 9.5465 0 6.15006C0 2.75331 2.61897 0 5.84999 0C9.08072 0 11.7 2.75331 11.7 6.15006C11.6964 9.54494 9.07923 12.2964 5.84999 12.3001ZM5.84999 1.36665C3.33695 1.36665 1.29997 3.50811 1.29997 6.15006C1.29997 8.7917 3.33695 10.9335 5.84999 10.9335C8.36274 10.9335 10.4 8.7917 10.4 6.15006C10.397 3.50936 8.36155 1.36977 5.84999 1.36665Z" fill="black"/>
<path d="M33.15 12.3001C29.9193 12.3001 27.3 9.5465 27.3 6.15006C27.3 2.75331 29.9193 0 33.15 0C36.3811 0 39 2.75331 39 6.15006C38.9965 9.54494 36.3796 12.2964 33.15 12.3001ZM33.15 1.36665C31.3097 1.36665 29.6506 2.53216 28.9464 4.31953C28.2424 6.1069 28.6316 8.16422 29.9327 9.53243C31.2342 10.9003 33.1911 11.3095 34.8913 10.5694C36.5914 9.82897 37.7001 8.08476 37.7001 6.15006C37.6971 3.50936 35.6619 1.36977 33.15 1.36665Z" fill="black"/>
<path d="M19.4994 26.6497C16.2687 26.6497 13.6494 23.8961 13.6494 20.4997C13.6494 17.1032 16.2687 14.3496 19.4994 14.3496C22.7301 14.3496 25.3494 17.1032 25.3494 20.4997C25.3458 23.8945 22.7286 26.646 19.4994 26.6497ZM19.4994 15.7163C16.9867 15.7163 14.9494 17.858 14.9494 20.4997C14.9494 23.1413 16.9867 25.2831 19.4994 25.2831C22.0122 25.2831 24.0494 23.1413 24.0494 20.4997C24.0465 17.8593 22.011 15.7194 19.4994 15.7163Z" fill="black"/>
<path d="M5.84999 26.6497C2.61897 26.6497 0 23.8961 0 20.4997C0 17.1032 2.61897 14.3496 5.84999 14.3496C9.08072 14.3496 11.7 17.1032 11.7 20.4997C11.6964 23.8945 9.07923 26.646 5.84999 26.6497ZM5.84999 15.7163C3.33695 15.7163 1.29997 17.858 1.29997 20.4997C1.29997 23.1413 3.33695 25.2831 5.84999 25.2831C8.36274 25.2831 10.4 23.1413 10.4 20.4997C10.397 17.8593 8.36155 15.7194 5.84999 15.7163Z" fill="black"/>
<path d="M32.85 26.3001C29.6193 26.3001 27 23.5465 27 20.1501C27 16.7536 29.6193 14 32.85 14C36.081 14 38.7 16.7536 38.7 20.1501C38.6964 23.5449 36.0795 26.2964 32.85 26.3001ZM32.85 15.3666C31.0097 15.3666 29.3506 16.5322 28.6463 18.3195C27.9423 20.1069 28.3315 22.1642 29.6327 23.5324C30.9341 24.9003 32.8911 25.3098 34.5912 24.5694C36.2914 23.829 37.4 22.0848 37.4 20.1501C37.397 17.5097 35.3619 15.3698 32.85 15.3666Z" fill="black"/>
<path d="M19.4994 40.9993C16.2687 40.9993 13.6494 38.246 13.6494 34.8493C13.6494 31.4528 16.2687 28.6992 19.4994 28.6992C22.7301 28.6992 25.3494 31.4528 25.3494 34.8493C25.3458 38.2445 22.7286 40.9956 19.4994 40.9993ZM19.4994 30.0659C16.9867 30.0659 14.9494 32.2076 14.9494 34.8493C14.9494 37.4912 16.9867 39.6327 19.4994 39.6327C22.0122 39.6327 24.0494 37.4912 24.0494 34.8493C24.0465 32.2089 22.011 30.069 19.4994 30.0659Z" fill="black"/>
<path d="M5.84999 40.9993C2.61897 40.9993 0 38.246 0 34.8493C0 31.4528 2.61897 28.6992 5.84999 28.6992C9.08072 28.6992 11.7 31.4528 11.7 34.8493C11.6964 38.2445 9.07923 40.9956 5.84999 40.9993ZM5.84999 30.0659C3.33695 30.0659 1.29997 32.2076 1.29997 34.8493C1.29997 37.4912 3.33695 39.6327 5.84999 39.6327C8.36274 39.6327 10.4 37.4912 10.4 34.8493C10.397 32.2089 8.36155 30.069 5.84999 30.0659Z" fill="black"/>
<path d="M33.15 40.9993C29.9193 40.9993 27.3 38.246 27.3 34.8493C27.3 31.4528 29.9193 28.6992 33.15 28.6992C36.3811 28.6992 39 31.4528 39 34.8493C38.9965 38.2445 36.3796 40.9956 33.15 40.9993ZM33.15 30.0659C31.3097 30.0659 29.6506 31.2314 28.9464 33.0187C28.2424 34.8061 28.6316 36.8637 29.9327 38.2316C31.2342 39.5995 33.1911 40.009 34.8913 39.2686C36.5914 38.5282 37.7001 36.784 37.7001 34.8493C37.6971 32.2089 35.6619 30.069 33.15 30.0659Z" fill="black"/>
<path d="M5.85057 2.73329C5.49144 2.73329 5.20044 2.42737 5.20044 2.05013V0.683479C5.20044 0.305924 5.49144 0 5.85057 0C6.20941 0 6.50041 0.305924 6.50041 0.683479V2.05013C6.50041 2.42737 6.20941 2.73329 5.85057 2.73329Z" fill="black"/>
<path d="M1.9501 6.83247H0.650132C0.290997 6.83247 0 6.52654 0 6.1493C0 5.77174 0.290997 5.46582 0.650132 5.46582H1.9501C2.30893 5.46582 2.59993 5.77174 2.59993 6.1493C2.59993 6.52654 2.30893 6.83247 1.9501 6.83247Z" fill="black"/>
<path d="M5.85057 12.299C5.49144 12.299 5.20044 11.9931 5.20044 11.6156V10.2489C5.20044 9.87167 5.49144 9.56543 5.85057 9.56543C6.20941 9.56543 6.50041 9.87167 6.50041 10.2489V11.6156C6.50041 11.9931 6.20941 12.299 5.85057 12.299Z" fill="black"/>
<path d="M11.0502 6.83247H9.75023C9.39139 6.83247 9.1001 6.52654 9.1001 6.1493C9.1001 5.77174 9.39139 5.46582 9.75023 5.46582H11.0502C11.4093 5.46582 11.7003 5.77174 11.7003 6.1493C11.7003 6.52654 11.4093 6.83247 11.0502 6.83247Z" fill="black"/>
<path d="M19.5 2.73329C19.1411 2.73329 18.8499 2.42737 18.8499 2.05013V0.683479C18.8499 0.305924 19.1411 0 19.5 0C19.8588 0 20.1501 0.305924 20.1501 0.683479V2.05013C20.1501 2.42737 19.8588 2.73329 19.5 2.73329Z" fill="black"/>
<path d="M15.5995 6.83247H14.2995C13.9404 6.83247 13.6494 6.52654 13.6494 6.1493C13.6494 5.77174 13.9404 5.46582 14.2995 5.46582H15.5995C15.9583 5.46582 16.2493 5.77174 16.2493 6.1493C16.2493 6.52654 15.9583 6.83247 15.5995 6.83247Z" fill="black"/>
<path d="M19.5 12.299C19.1411 12.299 18.8499 11.9931 18.8499 11.6156V10.2489C18.8499 9.87167 19.1411 9.56543 19.5 9.56543C19.8588 9.56543 20.1501 9.87167 20.1501 10.2489V11.6156C20.1501 11.9931 19.8588 12.299 19.5 12.299Z" fill="black"/>
<path d="M24.7003 6.83247H23.4003C23.0415 6.83247 22.7505 6.52654 22.7505 6.1493C22.7505 5.77174 23.0415 5.46582 23.4003 5.46582H24.7003C25.0594 5.46582 25.3504 5.77174 25.3504 6.1493C25.3504 6.52654 25.0594 6.83247 24.7003 6.83247Z" fill="black"/>
<path d="M33.1503 2.73329C32.7915 2.73329 32.5005 2.42737 32.5005 2.05013V0.683479C32.5005 0.305924 32.7915 0 33.1503 0C33.5095 0 33.8005 0.305924 33.8005 0.683479V2.05013C33.8005 2.42737 33.5095 2.73329 33.1503 2.73329Z" fill="black"/>
<path d="M29.2501 6.83247H27.9502C27.591 6.83247 27.3 6.52654 27.3 6.1493C27.3 5.77174 27.591 5.46582 27.9502 5.46582H29.2501C29.609 5.46582 29.9003 5.77174 29.9003 6.1493C29.9003 6.52654 29.609 6.83247 29.2501 6.83247Z" fill="black"/>
<path d="M33.1503 12.299C32.7915 12.299 32.5005 11.9931 32.5005 11.6156V10.2489C32.5005 9.87167 32.7915 9.56543 33.1503 9.56543C33.5095 9.56543 33.8005 9.87167 33.8005 10.2489V11.6156C33.8005 11.9931 33.5095 12.299 33.1503 12.299Z" fill="black"/>
<path d="M38.3497 6.83247H37.0497C36.6909 6.83247 36.3999 6.52654 36.3999 6.1493C36.3999 5.77174 36.6909 5.46582 37.0497 5.46582H38.3497C38.7088 5.46582 38.9998 5.77174 38.9998 6.1493C38.9998 6.52654 38.7088 6.83247 38.3497 6.83247Z" fill="black"/>
<path d="M5.85057 17.0829C5.49144 17.0829 5.20044 16.777 5.20044 16.3997V15.0331C5.20044 14.6555 5.49144 14.3496 5.85057 14.3496C6.20941 14.3496 6.50041 14.6555 6.50041 15.0331V16.3997C6.50041 16.777 6.20941 17.0829 5.85057 17.0829Z" fill="black"/>
<path d="M1.9501 21.1824H0.650132C0.290997 21.1824 0 20.8762 0 20.4989C0 20.1217 0.290997 19.8154 0.650132 19.8154H1.9501C2.30893 19.8154 2.59993 20.1217 2.59993 20.4989C2.59993 20.8762 2.30893 21.1824 1.9501 21.1824Z" fill="black"/>
<path d="M5.85057 26.6513C5.49144 26.6513 5.20044 26.3453 5.20044 25.9678V24.6011C5.20044 24.2239 5.49144 23.918 5.85057 23.918C6.20941 23.918 6.50041 24.2239 6.50041 24.6011V25.9678C6.50041 26.3453 6.20941 26.6513 5.85057 26.6513Z" fill="black"/>
<path d="M11.0502 21.1824H9.75023C9.39139 21.1824 9.1001 20.8762 9.1001 20.4989C9.1001 20.1217 9.39139 19.8154 9.75023 19.8154H11.0502C11.4093 19.8154 11.7003 20.1217 11.7003 20.4989C11.7003 20.8762 11.4093 21.1824 11.0502 21.1824Z" fill="black"/>
<path d="M19.5 17.0829C19.1411 17.0829 18.8499 16.777 18.8499 16.3997V15.0331C18.8499 14.6555 19.1411 14.3496 19.5 14.3496C19.8588 14.3496 20.1501 14.6555 20.1501 15.0331V16.3997C20.1501 16.777 19.8588 17.0829 19.5 17.0829Z" fill="black"/>
<path d="M15.5995 21.1824H14.2995C13.9404 21.1824 13.6494 20.8762 13.6494 20.4989C13.6494 20.1217 13.9404 19.8154 14.2995 19.8154H15.5995C15.9583 19.8154 16.2493 20.1217 16.2493 20.4989C16.2493 20.8762 15.9583 21.1824 15.5995 21.1824Z" fill="black"/>
<path d="M19.5 26.6513C19.1411 26.6513 18.8499 26.3453 18.8499 25.9678V24.6011C18.8499 24.2239 19.1411 23.918 19.5 23.918C19.8588 23.918 20.1501 24.2239 20.1501 24.6011V25.9678C20.1501 26.3453 19.8588 26.6513 19.5 26.6513Z" fill="black"/>
<path d="M24.7003 21.1824H23.4003C23.0415 21.1824 22.7505 20.8762 22.7505 20.4989C22.7505 20.1217 23.0415 19.8154 23.4003 19.8154H24.7003C25.0594 19.8154 25.3504 20.1217 25.3504 20.4989C25.3504 20.8762 25.0594 21.1824 24.7003 21.1824Z" fill="black"/>
<path d="M33.1503 17.0829C32.7915 17.0829 32.5005 16.777 32.5005 16.3997V15.0331C32.5005 14.6555 32.7915 14.3496 33.1503 14.3496C33.5095 14.3496 33.8005 14.6555 33.8005 15.0331V16.3997C33.8005 16.777 33.5095 17.0829 33.1503 17.0829Z" fill="black"/>
<path d="M29.2501 21.1824H27.9502C27.591 21.1824 27.3 20.8762 27.3 20.4989C27.3 20.1217 27.591 19.8154 27.9502 19.8154H29.2501C29.609 19.8154 29.9003 20.1217 29.9003 20.4989C29.9003 20.8762 29.609 21.1824 29.2501 21.1824Z" fill="black"/>
<path d="M33.1503 26.6513C32.7915 26.6513 32.5005 26.3453 32.5005 25.9678V24.6011C32.5005 24.2239 32.7915 23.918 33.1503 23.918C33.5095 23.918 33.8005 24.2239 33.8005 24.6011V25.9678C33.8005 26.3453 33.5095 26.6513 33.1503 26.6513Z" fill="black"/>
<path d="M38.3497 21.1824H37.0497C36.6909 21.1824 36.3999 20.8762 36.3999 20.4989C36.3999 20.1217 36.6909 19.8154 37.0497 19.8154H38.3497C38.7088 19.8154 38.9998 20.1217 38.9998 20.4989C38.9998 20.8762 38.7088 21.1824 38.3497 21.1824Z" fill="black"/>
<path d="M5.85057 31.4328C5.49144 31.4328 5.20044 31.1266 5.20044 30.7493V29.3827C5.20044 29.0051 5.49144 28.6992 5.85057 28.6992C6.20941 28.6992 6.50041 29.0051 6.50041 29.3827V30.7493C6.50041 31.1266 6.20941 31.4328 5.85057 31.4328Z" fill="black"/>
<path d="M1.9501 35.5346H0.650132C0.290997 35.5346 0 35.2287 0 34.8511C0 34.4739 0.290997 34.168 0.650132 34.168H1.9501C2.30893 34.168 2.59993 34.4739 2.59993 34.8511C2.59993 35.2287 2.30893 35.5346 1.9501 35.5346Z" fill="black"/>
<path d="M5.85057 40.9999C5.49144 40.9999 5.20044 40.694 5.20044 40.3164V38.9498C5.20044 38.5725 5.49144 38.2666 5.85057 38.2666C6.20941 38.2666 6.50041 38.5725 6.50041 38.9498V40.3164C6.50041 40.694 6.20941 40.9999 5.85057 40.9999Z" fill="black"/>
<path d="M11.0502 35.5346H9.75023C9.39139 35.5346 9.1001 35.2287 9.1001 34.8511C9.1001 34.4739 9.39139 34.168 9.75023 34.168H11.0502C11.4093 34.168 11.7003 34.4739 11.7003 34.8511C11.7003 35.2287 11.4093 35.5346 11.0502 35.5346Z" fill="black"/>
<path d="M19.5 31.4328C19.1411 31.4328 18.8499 31.1266 18.8499 30.7493V29.3827C18.8499 29.0051 19.1411 28.6992 19.5 28.6992C19.8588 28.6992 20.1501 29.0051 20.1501 29.3827V30.7493C20.1501 31.1266 19.8588 31.4328 19.5 31.4328Z" fill="black"/>
<path d="M15.5995 35.5346H14.2995C13.9404 35.5346 13.6494 35.2287 13.6494 34.8511C13.6494 34.4739 13.9404 34.168 14.2995 34.168H15.5995C15.9583 34.168 16.2493 34.4739 16.2493 34.8511C16.2493 35.2287 15.9583 35.5346 15.5995 35.5346Z" fill="black"/>
<path d="M19.5 40.9999C19.1411 40.9999 18.8499 40.694 18.8499 40.3164V38.9498C18.8499 38.5725 19.1411 38.2666 19.5 38.2666C19.8588 38.2666 20.1501 38.5725 20.1501 38.9498V40.3164C20.1501 40.694 19.8588 40.9999 19.5 40.9999Z" fill="black"/>
<path d="M24.7003 35.5346H23.4003C23.0415 35.5346 22.7505 35.2287 22.7505 34.8511C22.7505 34.4739 23.0415 34.168 23.4003 34.168H24.7003C25.0594 34.168 25.3504 34.4739 25.3504 34.8511C25.3504 35.2287 25.0594 35.5346 24.7003 35.5346Z" fill="black"/>
<path d="M33.1503 31.4328C32.7915 31.4328 32.5005 31.1266 32.5005 30.7493V29.3827C32.5005 29.0051 32.7915 28.6992 33.1503 28.6992C33.5095 28.6992 33.8005 29.0051 33.8005 29.3827V30.7493C33.8005 31.1266 33.5095 31.4328 33.1503 31.4328Z" fill="black"/>
<path d="M29.2501 35.5346H27.9502C27.591 35.5346 27.3 35.2287 27.3 34.8511C27.3 34.4739 27.591 34.168 27.9502 34.168H29.2501C29.609 34.168 29.9003 34.4739 29.9003 34.8511C29.9003 35.2287 29.609 35.5346 29.2501 35.5346Z" fill="black"/>
<path d="M33.1503 40.9999C32.7915 40.9999 32.5005 40.694 32.5005 40.3164V38.9498C32.5005 38.5725 32.7915 38.2666 33.1503 38.2666C33.5095 38.2666 33.8005 38.5725 33.8005 38.9498V40.3164C33.8005 40.694 33.5095 40.9999 33.1503 40.9999Z" fill="black"/>
<path d="M38.3497 35.5346H37.0497C36.6909 35.5346 36.3999 35.2287 36.3999 34.8511C36.3999 34.4739 36.6909 34.168 37.0497 34.168H38.3497C38.7088 34.168 38.9998 34.4739 38.9998 34.8511C38.9998 35.2287 38.7088 35.5346 38.3497 35.5346Z" fill="black"/>
<path d="M7.15054 6.83443H5.85057C5.49144 6.83443 5.20044 6.5285 5.20044 6.15126V4.10114C5.20044 3.72389 5.49144 3.41797 5.85057 3.41797C6.20941 3.41797 6.5004 3.72389 6.5004 4.10114V5.46778H7.15054C7.50937 5.46778 7.80037 5.77371 7.80037 6.15126C7.80037 6.5285 7.50937 6.83443 7.15054 6.83443Z" fill="black"/>
<path d="M19.5 8.20056C19.1411 8.20056 18.8499 7.89464 18.8499 7.5174V6.15075C18.8502 6.01593 18.8879 5.88393 18.9591 5.77163L20.2593 3.72151C20.387 3.51599 20.6098 3.39838 20.8431 3.41339C21.0764 3.42841 21.2841 3.57386 21.3867 3.79439C21.4897 4.01492 21.4721 4.27673 21.3409 4.47975L20.1501 6.35751V7.5174C20.1501 7.89464 19.8588 8.20056 19.5 8.20056Z" fill="black"/>
<path d="M34.4495 8.19911C34.2772 8.19943 34.1117 8.12748 33.9901 7.99892L32.8805 6.83247H31.1997C30.8406 6.83247 30.5496 6.52654 30.5496 6.1493C30.5496 5.77174 30.8406 5.46582 31.1997 5.46582H33.1495C33.3221 5.46582 33.4872 5.53777 33.6092 5.66602L34.9092 7.03266C35.0948 7.22817 35.1505 7.5222 35.0499 7.77745C34.9493 8.0327 34.7125 8.19911 34.4495 8.19911Z" fill="black"/>
<path d="M33.1505 23.2322C32.7916 23.2322 32.5006 22.9263 32.5006 22.549V21.1824H31.8505C31.4917 21.1824 31.2007 20.8762 31.2007 20.4989C31.2007 20.1217 31.4917 19.8154 31.8505 19.8154H33.1505C33.5096 19.8154 33.8006 20.1217 33.8006 20.4989V22.549C33.8006 22.9263 33.5096 23.2322 33.1505 23.2322Z" fill="black"/>
<path d="M21.4507 21.1841H19.5006C19.3283 21.1841 19.1629 21.1118 19.0412 20.9836L17.7409 19.6169C17.4949 19.3489 17.4981 18.9228 17.749 18.6591C17.9998 18.3954 18.4051 18.392 18.66 18.6507L19.7699 19.8171H21.4507C21.8095 19.8171 22.1005 20.1234 22.1005 20.5006C22.1005 20.8779 21.8095 21.1841 21.4507 21.1841Z" fill="black"/>
<path d="M5.84951 21.1834H4.54955C4.19041 21.1834 3.89941 20.8771 3.89941 20.4999C3.89941 20.1227 4.19041 19.8164 4.54955 19.8164H5.19938V18.4498C5.19938 18.0725 5.49038 17.7666 5.84951 17.7666C6.20835 17.7666 6.49935 18.0725 6.49935 18.4498V20.4999C6.49935 20.8771 6.20835 21.1834 5.84951 21.1834Z" fill="black"/>
<path d="M7.15054 36.8996C6.97796 36.8996 6.81282 36.8277 6.69083 36.6994L5.39087 35.3328C5.26917 35.2045 5.20044 35.0309 5.20044 34.8495V32.7997C5.20044 32.4221 5.49144 32.1162 5.85057 32.1162C6.20941 32.1162 6.5004 32.4221 6.5004 32.7997V34.5667L7.60994 35.7332C7.79591 35.9287 7.85155 36.2224 7.75098 36.4777C7.65041 36.7329 7.41327 36.8996 7.15054 36.8996Z" fill="black"/>
<path d="M19.5 35.5328C19.1411 35.5328 18.8499 35.2268 18.8499 34.8493V33.4826C18.8499 33.1054 19.1411 32.7995 19.5 32.7995C19.8588 32.7995 20.1501 33.1054 20.1501 33.4826V33.5724L21.0895 32.9143C21.2826 32.776 21.5316 32.7576 21.7411 32.8658C21.9508 32.974 22.0895 33.192 22.1038 33.4373C22.1181 33.6825 22.0062 33.9168 21.8104 34.0513L19.8606 35.418C19.7538 35.4927 19.6282 35.5328 19.5 35.5328Z" fill="black"/>
<path d="M31.8501 36.8991C31.5874 36.8991 31.3502 36.7323 31.2497 36.4771C31.1491 36.2218 31.2047 35.9281 31.3907 35.7326L32.231 34.8489L30.7406 33.2821C30.4942 33.014 30.4978 32.5877 30.7486 32.3243C30.9991 32.0606 31.4047 32.0568 31.6597 32.3158L33.6098 34.366C33.7318 34.4939 33.8002 34.6678 33.8002 34.8489C33.8002 35.0304 33.7318 35.204 33.6098 35.3322L32.3098 36.6989C32.1878 36.8271 32.0227 36.8991 31.8501 36.8991Z" fill="black"/>
</svg>
