<svg width="134" height="138" viewBox="0 0 134 138" fill="none" xmlns="http://www.w3.org/2000/svg">
<rect width="134" height="134" rx="67" fill="#E2ECF8" fill-opacity="0.3"/>
<path d="M130.685 86.7172L107.263 78.6426L67.5924 92.3343L27.9214 78.6426L4.5 86.7172L27.9214 94.8169V122.727L67.5924 136.419L107.263 122.727V94.8169L130.685 86.7172Z" fill="#F4F4F4"/>
<path d="M85.3462 86.2153L108.743 94.2899L116.717 91.5566L93.3205 83.4819L85.3462 86.2153Z" fill="#C6DBDC"/>
<path d="M18.4175 91.5566L41.8138 83.4819L49.7881 86.2153L26.3667 94.2899L18.4175 91.5566Z" fill="#C6DBDC"/>
<path d="M41.8135 99.606V127.516L49.7627 130.274V98.4775L44.1707 100.408L41.8135 99.606Z" fill="#C6DBDC"/>
<path d="M85.4468 130.274V98.4775L91.0137 100.408L93.396 99.606V127.516L85.4468 130.274Z" fill="#C6DBDC"/>
<path d="M36.2466 81.5258L41.1365 44.0867L46.1016 44.7387C45.8509 46.6695 47.205 48.45 49.1359 48.7007C51.0668 48.9515 52.8472 47.5974 53.098 45.6665L58.4894 46.3686C58.2386 48.2995 59.5928 50.0799 61.5237 50.3307C63.4545 50.5815 65.235 49.2273 65.4857 47.2965L70.4509 47.9484L67.4417 71.0689L56.9096 88.6977L36.2466 81.5258Z" fill="url(#paint0_linear)"/>
<path d="M41.061 83.1809L44.672 55.5466L64.0562 58.0794L60.9467 81.8268L56.8843 88.6476L41.061 83.1809Z" fill="#F4F4F4"/>
<path d="M56.8845 88.6479L67.5922 92.3341L94.6497 83.0057L95.101 82.2283L106.536 63.095L102.248 60.5372C101.245 62.2173 99.0882 62.7439 97.4081 61.7659C95.7279 60.7629 95.2013 58.6063 96.1793 56.9262L91.5151 54.1427C90.512 55.8228 88.3555 56.3494 86.6753 55.3714C84.9952 54.3684 84.4686 52.2118 85.4466 50.5317L81.1585 47.9739L57.2607 87.9959L56.8845 88.6479Z" fill="url(#paint1_linear)"/>
<path d="M87.3274 85.5384L87.6534 84.9616L96.6558 69.8907L79.8797 59.8601L62.1757 89.5255L61.6992 90.3029L67.5922 92.3341L87.3274 85.5384Z" fill="#F4F4F4"/>
<path d="M91.0134 101.512C90.888 101.512 90.7626 101.487 90.6623 101.462L67.2409 93.3871C66.6641 93.1864 66.3632 92.5595 66.5638 91.9828C66.7644 91.406 67.3914 91.1051 67.9681 91.3057L91.0134 99.2549L127.299 86.7418L106.912 79.7204C106.335 79.5198 106.034 78.8929 106.235 78.3161C106.435 77.7393 107.062 77.4384 107.639 77.639L131.06 85.7137C131.512 85.8641 131.813 86.2904 131.813 86.7669C131.813 87.2433 131.512 87.6696 131.06 87.8201L91.3895 101.512C91.2641 101.512 91.1388 101.512 91.0134 101.512Z" fill="#6F7273"/>
<path d="M44.1708 101.512C44.0454 101.512 43.92 101.487 43.8197 101.462L4.14878 87.7703C3.6974 87.6198 3.39648 87.1935 3.39648 86.717C3.39648 86.2406 3.6974 85.8143 4.14878 85.6638L27.5702 77.5892C28.147 77.3886 28.7739 77.6895 28.9745 78.2663C29.1751 78.843 28.8742 79.47 28.2974 79.6706L7.91025 86.692L44.1959 99.2051L67.2412 91.2559C67.8179 91.0553 68.4448 91.3562 68.6454 91.933C68.8461 92.5097 68.5451 93.1366 67.9684 93.3372L44.547 101.412C44.4216 101.512 44.2962 101.512 44.1708 101.512Z" fill="#6F7273"/>
<path d="M52.0197 75.1069C51.9695 75.1069 51.9194 75.1069 51.8692 75.1069C51.2674 75.0317 50.8411 74.48 50.9163 73.8781L52.4711 61.9417C52.5463 61.3399 53.098 60.9136 53.6998 60.9888C54.3017 61.0641 54.7279 61.6157 54.6527 62.2176L53.098 74.154C53.0478 74.7057 52.5714 75.1069 52.0197 75.1069Z" fill="#6F7273"/>
<path d="M46.653 70.7435C46.2769 70.7435 45.9008 70.5429 45.7001 70.1918C45.3992 69.6652 45.5998 68.9881 46.1264 68.6872L52.5209 65.1013C53.0475 64.8003 53.7246 65.001 54.0255 65.5276C54.3264 66.0542 54.1258 66.7312 53.5992 67.0322L47.2047 70.6181C47.0292 70.7184 46.8286 70.7435 46.653 70.7435Z" fill="#6F7273"/>
<path d="M58.3135 72.2735C58.0376 72.2735 57.7618 72.1732 57.5361 71.9726L52.27 66.857C51.8437 66.4307 51.8187 65.7286 52.245 65.3023C52.6713 64.876 53.3734 64.8509 53.7997 65.2772L59.0658 70.3928C59.4921 70.8191 59.5171 71.5212 59.0908 71.9475C58.8902 72.1481 58.6144 72.2735 58.3135 72.2735Z" fill="#6F7273"/>
<path d="M48.8095 76.9125C48.4334 76.9125 48.0572 76.7119 47.8566 76.3608C47.5557 75.8342 47.7563 75.1572 48.2829 74.8562L51.4927 73.0507C52.0193 72.7498 52.6964 72.9504 52.9973 73.477C53.2982 74.0036 53.0976 74.6807 52.571 74.9816L49.3612 76.7871C49.1857 76.8624 49.0102 76.9125 48.8095 76.9125Z" fill="#6F7273"/>
<path d="M54.6526 77.6645C54.3768 77.6645 54.1009 77.5642 53.8752 77.3635L51.2422 74.8057C50.8159 74.3794 50.7908 73.6773 51.2171 73.251C51.6434 72.8247 52.3456 72.7996 52.7719 73.2259L55.4049 75.7837C55.8312 76.21 55.8563 76.9122 55.43 77.3385C55.2294 77.5642 54.9284 77.6645 54.6526 77.6645Z" fill="#6F7273"/>
<path d="M79.4533 80.7489C79.2527 80.7489 79.0772 80.6987 78.8766 80.5984C78.35 80.2975 78.1744 79.5954 78.5004 79.0938L84.6693 68.7623C84.9702 68.2357 85.6723 68.0602 86.1738 68.3862C86.7004 68.6871 86.876 69.3892 86.55 69.8908L80.3812 80.2223C80.2056 80.5483 79.8295 80.7489 79.4533 80.7489Z" fill="#6F7273"/>
<path d="M76.2685 74.6054C75.7168 74.6054 75.2404 74.1791 75.1651 73.6023C75.115 73.0005 75.5413 72.4488 76.1431 72.3987L83.4404 71.6464C84.0422 71.5712 84.5939 72.0225 84.6441 72.6244C84.6942 73.2262 84.2679 73.7779 83.6661 73.828L76.3688 74.5803C76.3437 74.6054 76.3187 74.6054 76.2685 74.6054Z" fill="#6F7273"/>
<path d="M86.3746 80.6485C85.9483 80.6485 85.522 80.3977 85.3464 79.9714L82.5379 73.2008C82.3122 72.624 82.5629 71.9971 83.1397 71.7464C83.7165 71.5207 84.3434 71.7714 84.5941 72.3482L87.4027 79.1188C87.6284 79.6956 87.3776 80.3225 86.8009 80.5733C86.6504 80.6234 86.5 80.6485 86.3746 80.6485Z" fill="#6F7273"/>
<path d="M75.8173 81.1252C75.2656 81.1252 74.7892 80.6989 74.714 80.1221C74.6638 79.5203 75.0901 78.9686 75.6919 78.9185L79.3531 78.5423C79.9549 78.4922 80.5066 78.9185 80.5568 79.5203C80.6069 80.1221 80.1806 80.6738 79.5788 80.724L75.9176 81.1001C75.8926 81.1252 75.8424 81.1252 75.8173 81.1252Z" fill="#6F7273"/>
<path d="M80.8575 84.1345C80.4312 84.1345 80.0049 83.8838 79.8294 83.4575L78.4251 80.0721C78.1994 79.4954 78.4501 78.8685 79.0269 78.6177C79.6037 78.392 80.2306 78.6428 80.4814 79.2195L81.8856 82.6049C82.1113 83.1816 81.8606 83.8085 81.2838 84.0593C81.1333 84.1095 81.008 84.1345 80.8575 84.1345Z" fill="#6F7273"/>
<path d="M67.5921 137.522C67.3664 137.522 67.1408 137.447 66.9401 137.321C66.6392 137.121 66.4888 136.77 66.4888 136.419V92.3342C66.4888 91.8577 66.7897 91.4314 67.2411 91.281L106.912 77.5892C107.489 77.3886 108.116 77.6895 108.316 78.2663C108.517 78.843 108.216 79.47 107.639 79.6706L68.7206 93.1116V134.839L106.185 121.924V94.8168C106.185 94.2149 106.686 93.7134 107.288 93.7134C107.89 93.7134 108.392 94.2149 108.392 94.8168V122.727C108.392 123.203 108.091 123.63 107.639 123.78L67.9683 137.472C67.8429 137.497 67.7175 137.522 67.5921 137.522Z" fill="#6F7273"/>
<path d="M67.5921 137.522C67.4668 137.522 67.3414 137.497 67.2411 137.472L27.545 123.78C27.0936 123.629 26.7927 123.203 26.7927 122.727V94.8166C26.7927 94.2147 27.2943 93.7132 27.8961 93.7132C28.4979 93.7132 28.9995 94.2147 28.9995 94.8166V121.949L66.4637 134.864V93.1365L27.545 79.6955C26.9683 79.4949 26.6673 78.8679 26.868 78.2912C27.0686 77.7144 27.6955 77.4135 28.2722 77.6141L67.9432 91.3059C68.3946 91.4563 68.6955 91.8826 68.6955 92.3591V136.444C68.6955 136.795 68.52 137.146 68.2441 137.346C68.0435 137.447 67.8178 137.522 67.5921 137.522Z" fill="#6F7273"/>
<path d="M116.717 92.6601C116.591 92.6601 116.466 92.635 116.366 92.6099L92.9692 84.5353C92.3924 84.3347 92.0915 83.7078 92.2921 83.131C92.4927 82.5543 93.1196 82.2534 93.6964 82.454L117.093 90.5286C117.67 90.7292 117.97 91.3561 117.77 91.9329C117.594 92.3592 117.168 92.6601 116.717 92.6601Z" fill="#6F7273"/>
<path d="M108.743 95.3933C108.618 95.3933 108.492 95.3682 108.392 95.3431L84.9706 87.2685C84.3939 87.0679 84.093 86.4409 84.2936 85.8642C84.4942 85.2874 85.1211 84.9865 85.6979 85.1871L109.119 93.2618C109.696 93.4624 109.997 94.0893 109.796 94.666C109.646 95.1174 109.22 95.3933 108.743 95.3933Z" fill="#6F7273"/>
<path d="M18.4173 92.66C17.966 92.66 17.5397 92.3842 17.3641 91.9077C17.1635 91.331 17.4644 90.7041 18.0412 90.5034L41.4375 82.4288C42.0143 82.2282 42.6412 82.5291 42.8418 83.1059C43.0424 83.6826 42.7415 84.3096 42.1647 84.5102L18.7684 92.5848C18.6681 92.6349 18.5427 92.66 18.4173 92.66Z" fill="#6F7273"/>
<path d="M26.3663 95.3932C25.9149 95.3932 25.4886 95.1173 25.3131 94.6409C25.1125 94.0641 25.4134 93.4372 25.9902 93.2366L49.4116 85.162C49.9883 84.9614 50.6153 85.2623 50.8159 85.839C51.0165 86.4158 50.7156 87.0427 50.1388 87.2433L26.7174 95.318C26.6171 95.3932 26.4917 95.3932 26.3663 95.3932Z" fill="#6F7273"/>
<path d="M41.8138 128.62C41.212 128.62 40.7104 128.118 40.7104 127.516V99.606C40.7104 99.0042 41.212 98.5027 41.8138 98.5027C42.4156 98.5027 42.9172 99.0042 42.9172 99.606V127.516C42.9172 128.143 42.4407 128.62 41.8138 128.62Z" fill="#6F7273"/>
<path d="M49.7628 131.378C49.161 131.378 48.6594 130.877 48.6594 130.275V123.304C48.6594 122.702 49.161 122.2 49.7628 122.2C50.3646 122.2 50.8662 122.702 50.8662 123.304V130.275C50.8662 130.877 50.3897 131.378 49.7628 131.378Z" fill="#6F7273"/>
<path d="M49.7628 119.341C49.161 119.341 48.6594 118.84 48.6594 118.238V98.5025C48.6594 97.9007 49.161 97.3992 49.7628 97.3992C50.3646 97.3992 50.8662 97.9007 50.8662 98.5025V118.238C50.8662 118.84 50.3897 119.341 49.7628 119.341Z" fill="#6F7273"/>
<path d="M93.3956 128.62C92.7938 128.62 92.2922 128.118 92.2922 127.516V120.495C92.2922 119.893 92.7938 119.392 93.3956 119.392C93.9974 119.392 94.499 119.893 94.499 120.495V127.516C94.499 128.143 93.9974 128.62 93.3956 128.62Z" fill="#6F7273"/>
<path d="M93.3956 116.207C92.7938 116.207 92.2922 115.705 92.2922 115.103V99.606C92.2922 99.0042 92.7938 98.5027 93.3956 98.5027C93.9974 98.5027 94.499 99.0042 94.499 99.606V115.103C94.499 115.705 93.9974 116.207 93.3956 116.207Z" fill="#6F7273"/>
<path d="M85.4466 131.378C84.8448 131.378 84.3433 130.877 84.3433 130.275V98.4779C84.3433 97.876 84.8448 97.3745 85.4466 97.3745C86.0485 97.3745 86.55 97.876 86.55 98.4779V130.25C86.55 130.877 86.0485 131.378 85.4466 131.378Z" fill="#6F7273"/>
<path d="M56.885 89.751C56.6844 89.751 56.5088 89.7009 56.3082 89.6005C55.7816 89.2996 55.6061 88.5975 55.9321 88.096L80.2312 47.3718C80.3816 47.121 80.6324 46.9455 80.9082 46.8703C81.1841 46.795 81.485 46.8452 81.7358 46.9956L86.0238 49.5534C86.2746 49.7039 86.4501 49.9547 86.5254 50.2305C86.6006 50.5063 86.5504 50.8073 86.4 51.058C86.074 51.6097 85.9737 52.2617 86.1241 52.8886C86.2746 53.5155 86.6758 54.0421 87.2275 54.3681C87.7792 54.6941 88.4312 54.7944 89.0581 54.644C89.685 54.4935 90.2116 54.0923 90.5376 53.5406C90.6881 53.2898 90.9388 53.1143 91.2147 53.0391C91.4905 52.9638 91.7914 53.014 92.0422 53.1644L96.7064 55.9479C96.9572 56.0984 97.1327 56.3492 97.2079 56.625C97.2832 56.9008 97.233 57.2018 97.0826 57.4525C96.7566 58.0042 96.6563 58.6562 96.8067 59.2831C96.9572 59.91 97.3584 60.4366 97.9101 60.7626C98.4618 61.0886 99.1137 61.1889 99.7407 61.0385C100.368 60.888 100.894 60.4868 101.22 59.9351C101.371 59.6843 101.621 59.5088 101.897 59.4336C102.173 59.3583 102.474 59.4085 102.725 59.5589L107.013 62.1167C107.264 62.2672 107.439 62.518 107.514 62.7938C107.59 63.0696 107.539 63.3706 107.389 63.6213L95.5027 83.532C95.2018 84.0586 94.4997 84.2342 93.9981 83.9082C93.4715 83.6073 93.296 82.9051 93.622 82.4036L104.957 63.4458L102.449 61.9412C101.872 62.543 101.12 62.9693 100.292 63.17C99.0887 63.4709 97.8348 63.2953 96.7816 62.6433C95.7284 62.0164 94.9761 60.9883 94.6752 59.8097C94.4746 58.9822 94.4997 58.1296 94.7254 57.3271L91.7162 55.5467C91.1394 56.1485 90.3871 56.5748 89.5596 56.7755C88.3559 57.0764 87.1272 56.9008 86.0489 56.2489C84.9957 55.6219 84.2434 54.5938 83.9425 53.4152C83.7419 52.5877 83.767 51.7351 83.9926 50.9326L81.485 49.4281L57.7376 89.1742C57.6122 89.5504 57.2611 89.751 56.885 89.751Z" fill="#6F7273"/>
<path d="M61.6994 91.4061C61.4988 91.4061 61.3233 91.356 61.1227 91.2557C60.5961 90.9547 60.4205 90.2526 60.7465 89.7511L78.927 59.3082C79.2279 58.7816 79.93 58.6061 80.4316 58.9321L97.2077 68.9627C97.7343 69.2636 97.9099 69.9657 97.5839 70.4673L88.2304 86.115C87.9044 86.6416 87.2273 86.8171 86.7258 86.4911C86.1992 86.1902 86.0236 85.4881 86.3496 84.9865L95.1264 70.2917L80.256 61.4147L62.6524 90.9046C62.4517 91.2306 62.0756 91.4061 61.6994 91.4061Z" fill="#6F7273"/>
<path d="M36.2465 82.6294C36.1963 82.6294 36.1462 82.6294 36.096 82.6294C35.4942 82.5542 35.0679 82.0025 35.1431 81.4007L40.033 43.9615C40.1083 43.3597 40.66 42.9334 41.2618 43.0086L46.2269 43.6606C46.5278 43.7107 46.7786 43.8612 46.9541 44.0869C47.1297 44.3126 47.2049 44.6135 47.1798 44.9144C47.0043 46.2435 47.9321 47.4471 49.2612 47.6227C49.9132 47.6979 50.5401 47.5474 51.0416 47.1462C51.5431 46.745 51.8942 46.1933 51.9694 45.5413C52.0196 45.2404 52.17 44.9896 52.3957 44.8141C52.6214 44.6386 52.9223 44.5633 53.2233 44.5884L58.6147 45.2906C58.9156 45.3407 59.1664 45.4912 59.3419 45.7169C59.5175 45.9426 59.5927 46.2435 59.5676 46.5444C59.4924 47.1964 59.6428 47.8233 60.0441 48.3248C60.4453 48.8263 60.997 49.1774 61.649 49.2526C62.3009 49.3279 62.9279 49.1774 63.4294 48.7762C63.9309 48.375 64.282 47.8233 64.3572 47.1713C64.4074 46.8704 64.5578 46.6196 64.7835 46.4441C65.0092 46.2685 65.3101 46.1933 65.611 46.2184L70.5762 46.8704C71.178 46.9456 71.6043 47.4973 71.5291 48.0991L68.5199 71.2196C68.4447 71.8215 67.893 72.2478 67.2912 72.1725C66.6893 72.0973 66.263 71.5456 66.3383 70.9438L69.197 48.9267L66.3132 48.5505C66.0123 49.3279 65.5107 50.03 64.8086 50.5315C63.8306 51.2838 62.6019 51.6098 61.3731 51.4594C60.1444 51.3089 59.0661 50.682 58.3138 49.6789C57.7872 49.0019 57.4612 48.1994 57.386 47.3719L53.9003 46.8704C53.5994 47.6478 53.0979 48.3499 52.3957 48.8514C51.4178 49.6037 50.189 49.9297 48.9853 49.7793C46.8288 49.5034 45.1988 47.7731 44.9731 45.6918L42.0893 45.3156L37.3499 81.6514C37.2746 82.2282 36.7982 82.6294 36.2465 82.6294Z" fill="#6F7273"/>
<path d="M41.0607 84.2844C41.0105 84.2844 40.9604 84.2844 40.9102 84.2844C40.3084 84.2092 39.8821 83.6575 39.9573 83.0557L43.5683 55.3963C43.6436 54.7945 44.1953 54.3682 44.7971 54.4434L64.1812 56.9761C64.4821 57.0263 64.7329 57.1768 64.9084 57.4024C65.0839 57.6281 65.1592 57.9291 65.1341 58.23L62.0497 81.9774C61.9745 82.5792 61.4228 83.0055 60.8209 82.9303C60.2191 82.8551 59.7928 82.3034 59.868 81.7015L62.8271 59.0575L45.6497 56.8257L42.1891 83.3566C42.0888 83.8832 41.6124 84.2844 41.0607 84.2844Z" fill="#6F7273"/>
<defs>
<linearGradient id="paint0_linear" x1="53.3277" y1="44.0902" x2="53.3277" y2="88.641" gradientUnits="userSpaceOnUse">
<stop stop-color="#E1EEEE"/>
<stop offset="1" stop-color="#C6DBDC"/>
</linearGradient>
<linearGradient id="paint1_linear" x1="69.4905" y1="54.6944" x2="88.0385" y2="86.8205" gradientUnits="userSpaceOnUse">
<stop stop-color="#E1EEEE"/>
<stop offset="1" stop-color="#C6DBDC"/>
</linearGradient>
</defs>
</svg>
