<svg width="134" height="138" viewBox="0 0 134 138" fill="none" xmlns="http://www.w3.org/2000/svg">
<path d="M0 67C0 29.9969 29.9969 0 67 0V0C104.003 0 134 29.9969 134 67V67C134 104.003 104.003 134 67 134V134C29.9969 134 0 104.003 0 67V67Z" fill="#E2ECF8" fill-opacity="0.3"/>
<path d="M101.54 111.8C101.54 115.2 98.7753 117.94 95.3992 117.94H43.5115C40.111 117.94 37.3711 115.176 37.3711 111.8V51.0315C37.3711 47.6311 40.1355 44.8911 43.5115 44.8911H95.3992C98.7997 44.8911 101.54 47.6555 101.54 51.0315V111.8Z" fill="#F4F4F4"/>
<path d="M80.4517 44.8665V41.1725C80.4517 40.4141 79.8401 39.8025 79.0817 39.8025H59.8287C59.0703 39.8025 58.4587 40.4141 58.4587 41.1725V44.8665H80.4517V44.8665Z" fill="#C6DBDC"/>
<path d="M97.601 60.1323H41.3342V91.2503H97.601V60.1323Z" fill="url(#paint0_linear)"/>
<path d="M95.3504 118.797H43.5605C39.6707 118.797 36.5149 115.641 36.5149 111.751V51.0807C36.5149 47.191 39.6707 44.0352 43.5605 44.0352H95.3504C99.2401 44.0352 102.396 47.191 102.396 51.0807V111.751C102.396 115.641 99.2401 118.797 95.3504 118.797ZM43.5605 45.8699C40.6737 45.8699 38.3497 48.2185 38.3497 51.0807V111.751C38.3497 114.638 40.6982 116.962 43.5605 116.962H95.3504C98.2371 116.962 100.561 114.613 100.561 111.751V51.0807C100.561 48.194 98.2126 45.8699 95.3504 45.8699H43.5605V45.8699Z" fill="#6F7273"/>
<path d="M69.468 92.1556C68.9542 92.1556 68.5383 91.7397 68.5383 91.226V60.1569C68.5383 59.6432 68.9542 59.2273 69.468 59.2273C69.9817 59.2273 70.3976 59.6432 70.3976 60.1569V91.226C70.3731 91.7397 69.9572 92.1556 69.468 92.1556Z" fill="#6F7273"/>
<path d="M79.8157 52.4503H59.1193C58.6056 52.4503 58.1897 52.0344 58.1897 51.5207C58.1897 51.0069 58.6056 50.5911 59.1193 50.5911H79.8157C80.3294 50.5911 80.7453 51.0069 80.7453 51.5207C80.7209 52.0344 80.305 52.4503 79.8157 52.4503Z" fill="#6F7273"/>
<path d="M85.0263 53.0616C85.864 53.0616 86.543 52.3825 86.543 51.5448C86.543 50.7072 85.864 50.0281 85.0263 50.0281C84.1886 50.0281 83.5095 50.7072 83.5095 51.5448C83.5095 52.3825 84.1886 53.0616 85.0263 53.0616Z" fill="#6F7273"/>
<path d="M85.0268 53.1842C84.1216 53.1842 83.3877 52.4502 83.3877 51.5451C83.3877 50.6399 84.1216 49.906 85.0268 49.906C85.9319 49.906 86.6658 50.6399 86.6658 51.5451C86.6658 52.4502 85.9319 53.1842 85.0268 53.1842ZM85.0268 50.1506C84.2684 50.1506 83.6323 50.7867 83.6323 51.5451C83.6323 52.3035 84.2684 52.9395 85.0268 52.9395C85.7851 52.9395 86.4212 52.3035 86.4212 51.5451C86.4212 50.7622 85.8096 50.1506 85.0268 50.1506Z" fill="#6F7273"/>
<path d="M53.8837 53.0616C54.7214 53.0616 55.4005 52.3825 55.4005 51.5448C55.4005 50.7072 54.7214 50.0281 53.8837 50.0281C53.046 50.0281 52.3669 50.7072 52.3669 51.5448C52.3669 52.3825 53.046 53.0616 53.8837 53.0616Z" fill="#6F7273"/>
<path d="M53.8839 53.1842C52.9788 53.1842 52.2449 52.4502 52.2449 51.5451C52.2449 50.6399 52.9788 49.906 53.8839 49.906C54.7891 49.906 55.523 50.6399 55.523 51.5451C55.523 52.4502 54.7891 53.1842 53.8839 53.1842ZM53.8839 50.1506C53.1256 50.1506 52.4895 50.7867 52.4895 51.5451C52.4895 52.3035 53.1256 52.9395 53.8839 52.9395C54.6423 52.9395 55.2784 52.3035 55.2784 51.5451C55.2784 50.7622 54.6668 50.1506 53.8839 50.1506Z" fill="#6F7273"/>
<path d="M83.9747 108.448C81.9687 108.448 80.3296 106.809 80.3296 104.803C80.3296 102.797 81.9687 101.158 83.9747 101.158C85.9807 101.158 87.6198 102.797 87.6198 104.803C87.6198 106.809 85.9807 108.448 83.9747 108.448ZM83.9747 102.993C82.9717 102.993 82.1644 103.8 82.1644 104.803C82.1644 105.806 82.9717 106.613 83.9747 106.613C84.9777 106.613 85.785 105.806 85.785 104.803C85.785 103.8 84.9777 102.993 83.9747 102.993Z" fill="#6F7273"/>
<path d="M92.9282 105.023C90.3595 105.023 88.28 102.944 88.28 100.375C88.28 97.8062 90.3595 95.7268 92.9282 95.7268C95.4969 95.7268 97.5763 97.8062 97.5763 100.375C97.5763 102.944 95.4969 105.023 92.9282 105.023ZM92.9282 97.5371C91.3625 97.5371 90.1148 98.8093 90.1148 100.35C90.1148 101.916 91.3869 103.164 92.9282 103.164C94.4938 103.164 95.7415 101.892 95.7415 100.35C95.7415 98.8093 94.4938 97.5371 92.9282 97.5371Z" fill="#6F7273"/>
<path d="M54.545 108.448C52.539 108.448 50.8999 106.809 50.8999 104.803C50.8999 102.797 52.539 101.158 54.545 101.158C56.551 101.158 58.1901 102.797 58.1901 104.803C58.1901 106.809 56.551 108.448 54.545 108.448ZM54.545 102.993C53.542 102.993 52.7347 103.8 52.7347 104.803C52.7347 105.806 53.542 106.613 54.545 106.613C55.548 106.613 56.3553 105.806 56.3553 104.803C56.3553 103.8 55.548 102.993 54.545 102.993Z" fill="#6F7273"/>
<path d="M45.5912 105.023C43.0225 105.023 40.9431 102.944 40.9431 100.375C40.9431 97.8062 43.0225 95.7268 45.5912 95.7268C48.1599 95.7268 50.2394 97.8062 50.2394 100.375C50.2394 102.944 48.1599 105.023 45.5912 105.023ZM45.5912 97.5371C44.0256 97.5371 42.7779 98.8093 42.7779 100.35C42.7779 101.916 44.05 103.164 45.5912 103.164C47.1569 103.164 48.4046 101.892 48.4046 100.35C48.4046 98.8093 47.1569 97.5371 45.5912 97.5371Z" fill="#6F7273"/>
<path d="M77.3685 108.889H61.5649C61.0511 108.889 60.6353 108.473 60.6353 107.959C60.6353 107.445 61.0511 107.029 61.5649 107.029H77.3685C77.8822 107.029 78.2981 107.445 78.2981 107.959C78.2737 108.497 77.8578 108.889 77.3685 108.889Z" fill="#6F7273"/>
<path d="M71.2283 40.8056C70.9592 40.8056 70.6901 40.6832 70.4944 40.4386C70.1763 40.0472 70.2497 39.4601 70.6656 39.142L77.3687 34.0046L69.4669 28.3535L61.5651 34.0046L68.2682 39.1665C68.6596 39.4845 68.733 40.0472 68.4394 40.4631C68.1214 40.8545 67.5587 40.9279 67.1428 40.6343L59.4612 34.7141C59.241 34.5428 59.0942 34.2737 59.0942 33.9802C59.0942 33.6866 59.241 33.4175 59.4857 33.2462L68.9287 26.4942C69.2467 26.2741 69.6871 26.2741 70.0051 26.4942L79.4481 33.2462C79.6928 33.4175 79.8151 33.6866 79.8395 33.9802C79.8395 34.2737 79.7172 34.5428 79.4726 34.7141L71.791 40.6343C71.6197 40.7322 71.424 40.8056 71.2283 40.8056Z" fill="#6F7273"/>
<path d="M42.3864 137.976C42.0684 137.976 41.7259 137.854 41.4568 137.634C40.8207 137.12 40.7474 136.19 41.2611 135.579L56.1106 117.598C56.6244 116.962 57.554 116.888 58.1656 117.402C58.8016 117.916 58.875 118.845 58.3613 119.457L43.5118 137.438C43.2182 137.805 42.8023 137.976 42.3864 137.976Z" fill="#6F7273"/>
<path d="M96.5488 137.976C96.1329 137.976 95.717 137.804 95.4235 137.437L80.5984 119.457C80.0846 118.821 80.1825 117.915 80.7941 117.402C81.4302 116.888 82.3353 116.986 82.8491 117.597L97.6741 135.578C98.1879 136.214 98.09 137.119 97.4784 137.633C97.2093 137.878 96.8668 137.976 96.5488 137.976Z" fill="#6F7273"/>
<path d="M86.0783 125.279H52.8809C52.0736 125.279 51.4131 124.619 51.4131 123.812C51.4131 123.004 52.0736 122.344 52.8809 122.344H86.0783C86.8856 122.344 87.5461 123.004 87.5461 123.812C87.5461 124.619 86.8856 125.279 86.0783 125.279Z" fill="#6F7273"/>
<path d="M91.0939 131.42H47.8174C47.0101 131.42 46.3496 130.759 46.3496 129.952C46.3496 129.145 47.0101 128.484 47.8174 128.484H91.0939C91.9012 128.484 92.5617 129.145 92.5617 129.952C92.5617 130.759 91.9012 131.42 91.0939 131.42Z" fill="#6F7273"/>
<path d="M76.2187 114.54H62.6902C61.5649 114.54 60.6353 113.61 60.6353 112.485V103.458C60.6353 102.332 61.5649 101.403 62.6902 101.403H76.2187C77.344 101.403 78.2737 102.332 78.2737 103.458V112.485C78.2737 113.61 77.344 114.54 76.2187 114.54ZM62.6902 103.262C62.5679 103.262 62.47 103.36 62.47 103.482V112.509C62.47 112.632 62.5679 112.73 62.6902 112.73H76.2187C76.341 112.73 76.4389 112.632 76.4389 112.509V103.482C76.4389 103.36 76.341 103.262 76.2187 103.262H62.6902Z" fill="#6F7273"/>
<path d="M80.4279 45.8695C79.9141 45.8695 79.4982 45.4536 79.4982 44.9399V41.2458C79.4982 41.0012 79.3025 40.8055 79.0579 40.8055H59.8538C59.6092 40.8055 59.4134 41.0012 59.4134 41.2458V44.9399C59.4134 45.4536 58.9976 45.8695 58.4838 45.8695C57.9701 45.8695 57.5542 45.4536 57.5542 44.9399V41.2458C57.5542 39.9982 58.5817 38.9707 59.8293 38.9707H79.0824C80.33 38.9707 81.3575 39.9982 81.3575 41.2458V44.9399C81.3575 45.4536 80.9416 45.8695 80.4279 45.8695Z" fill="#6F7273"/>
<path d="M97.5277 92.1556H41.3832C40.8695 92.1556 40.4536 91.7397 40.4536 91.226V60.1569C40.4536 59.6432 40.8695 59.2273 41.3832 59.2273H97.5521C98.0659 59.2273 98.4818 59.6432 98.4818 60.1569V91.226C98.4573 91.7397 98.0414 92.1556 97.5277 92.1556ZM42.2884 90.3208H96.6225V61.0865H42.2884V90.3208Z" fill="#6F7273"/>
<defs>
<linearGradient id="paint0_linear" x1="69.4593" y1="60.1338" x2="69.4593" y2="91.2531" gradientUnits="userSpaceOnUse">
<stop stop-color="#E1EEEE"/>
<stop offset="1" stop-color="#C6DBDC"/>
</linearGradient>
</defs>
</svg>
