<svg width="15" height="13" viewBox="0 0 15 13" fill="none" xmlns="http://www.w3.org/2000/svg">
<path fill-rule="evenodd" clip-rule="evenodd" d="M1.44444 10.8333V1.44444H10.1111V10.8333C10.1111 11.0866 10.1546 11.3297 10.2344 11.5556H2.16667C1.76779 11.5556 1.44444 11.2322 1.44444 10.8333ZM12.2778 13H2.16667C0.97005 13 0 12.03 0 10.8333V0H10.1111H10.8333H11.5556L11.5556 3.61111H14.4444L14.4444 4.33333L14.4444 5.05556L14.4444 10.8333C14.4444 12.03 13.4744 13 12.2778 13ZM11.5556 5.05556H13V10.8333C13 11.2322 12.6767 11.5556 12.2778 11.5556C11.8789 11.5556 11.5556 11.2322 11.5556 10.8333L11.5556 5.05556ZM5.77778 2.88889V5.77778H2.88889V2.88889H5.77778ZM8.66667 5.05556V3.61111H6.5V5.05556H8.66667ZM8.66667 6.5V7.94444H2.88889V6.5H8.66667ZM8.66667 10.1111V8.66667H2.88889V10.1111H8.66667Z" fill="#209FAE"/>
</svg>
