<svg width="208" height="187" viewBox="0 0 208 187" fill="none" xmlns="http://www.w3.org/2000/svg">
<path fill-rule="evenodd" clip-rule="evenodd" d="M20.7778 155.833V20.7778H145.419V155.833C145.419 159.476 146.044 162.973 147.193 166.222H31.1667C25.429 166.222 20.7778 161.571 20.7778 155.833ZM176.586 166.222C170.849 166.222 166.197 161.571 166.197 155.833V0H155.833H145.419H0V155.833C0 173.046 13.9538 187 31.1667 187H176.586H176.611C193.813 186.987 207.753 173.038 207.753 155.833V72.6973H207.765V51.9195H166.21V72.6973H186.975V155.833C186.975 161.571 182.324 166.222 176.586 166.222ZM83.1361 41.5805V83.1361H41.5805V41.5805H83.1361ZM124.667 72.6973V51.9195H93.5V72.6973H124.667ZM124.692 93.5V114.278H41.5805V93.5H124.692ZM124.692 145.463V124.685H41.5805V145.463H124.692Z" fill="#D3D3D3"/>
</svg>
