<svg width="236" height="236" viewBox="0 0 236 236" fill="none" xmlns="http://www.w3.org/2000/svg">
<path opacity="0.35" d="M187.179 212.948C187.179 204.201 156.434 197.113 118.524 197.113C80.6137 197.113 49.8691 204.201 49.8691 212.948C49.8691 221.691 80.6137 228.784 118.524 228.784C156.434 228.778 187.179 221.691 187.179 212.948Z" fill="#D1D1D1"/>
<path d="M117.767 171.35C160.624 171.35 195.366 136.608 195.366 93.7514C195.366 50.8946 160.624 16.1523 117.767 16.1523C74.9103 16.1523 40.168 50.8946 40.168 93.7514C40.168 136.608 74.9103 171.35 117.767 171.35Z" fill="#209FAE"/>
<path fill-rule="evenodd" clip-rule="evenodd" d="M203.535 93.7674C203.535 141.135 165.135 179.535 117.767 179.535C70.3994 179.535 32 141.135 32 93.7674C32 46.3994 70.3994 8 117.767 8C165.135 8 203.535 46.3994 203.535 93.7674ZM195.366 93.7674C195.366 136.624 160.624 171.366 117.767 171.366C74.9106 171.366 40.1683 136.624 40.1683 93.7674C40.1683 50.9106 74.9106 16.1683 117.767 16.1683C160.624 16.1683 195.366 50.9106 195.366 93.7674Z" fill="#209FAE"/>
<path d="M146.356 26.3369L145.976 26.8437L132.39 31.7168C130.283 33.4821 128.299 35.3973 126.454 37.4476C125.769 38.6561 121.26 40.4885 121.26 40.4885C121.26 40.4885 107.541 41.4631 106 42.5548C104.478 43.6465 104.611 50.0205 104.611 50.0205L109.824 60.3126C110.211 61.0344 111.088 61.3106 111.803 60.9364C112.583 60.5272 113.402 60.0202 114.22 59.5914C115.208 58.8919 116.419 58.606 117.607 58.7922C118.407 59.0256 119.024 59.6801 119.224 60.5076C119.252 61.465 118.853 62.3834 118.139 63.0027C116.788 64.5036 115.476 66.0241 114.144 67.5834C112.774 69.2013 111.423 70.7997 110.053 72.4175C109.786 72.7488 109.501 73.0608 109.234 73.3921C108.196 74.8903 107.754 76.7374 107.998 78.5577L108.188 79.8832C108.442 81.7338 107.97 83.6123 106.875 85.1072L103.108 90.3312C102.857 90.6648 102.64 91.0242 102.461 91.4033L98.3509 99.9216C98.0694 100.532 97.4684 100.919 96.8097 100.916H92.9664C92.3946 100.912 91.8727 100.581 91.6155 100.058C91.2961 99.3607 91.4243 98.5341 91.9389 97.9726L92.3196 97.6022C92.7546 97.1599 92.9284 96.5146 92.7763 95.9063L89.1421 80.8385C89.123 80.7801 89.123 80.7215 89.1039 80.6631L86.4972 73.4703C86.3073 72.9532 86.2106 72.4049 86.2117 71.8523V71.5015C86.2189 69.7548 85.261 68.1544 83.7383 67.3691L83.51 67.2521C82.7424 66.8475 81.8752 66.6847 81.0175 66.7842L75.8992 67.3689C74.4341 67.5436 72.9817 66.95 72.0367 65.79L68.802 61.872C68.116 61.0368 67.7386 59.9811 67.7364 58.8897V55.4395C67.7283 54.2214 68.1938 53.0502 69.0303 52.1843L73.1782 47.8765C73.431 47.6101 73.6544 47.3161 73.8441 46.9994L75.1949 44.6602C75.9866 43.2781 77.4362 42.4317 79.0003 42.438H84.4991C85.7605 42.4279 86.9631 42.9834 87.7908 43.9585C88.6352 44.9077 89.8288 45.452 91.0825 45.4594H93.1183L94.8689 39.5141C93.5691 38.2971 92.493 36.8512 91.6914 35.2452C90.8543 33.1789 86.1354 31.2296 84.9558 31.1128C83.0261 30.0859 81.251 28.7795 79.6853 27.2339L79.5522 27.0584C99.1198 11.4578 126.445 11.1548 146.337 26.3176L146.356 26.3369Z" fill="#F6F6F6"/>
<path d="M196.389 97.8579C196.406 123.622 181.011 147.083 156.863 158.093L147.762 139.478C147.639 139.194 147.575 138.889 147.571 138.582V134.307C147.577 133.41 146.994 132.608 146.118 132.308L141.972 130.906C141.639 130.788 141.337 130.6 141.091 130.354L139.78 128.998C139.279 128.468 139.093 127.727 139.286 127.034C139.479 126.341 140.024 125.791 140.733 125.573L150.525 122.724C151.223 122.531 151.973 122.667 152.55 123.091L159.15 128.17C159.545 128.467 160.031 128.629 160.532 128.63H164.439C165.181 128.643 165.878 128.291 166.288 127.695C166.698 127.099 166.765 126.342 166.465 125.688L160.77 114.037C160.51 113.507 160.496 112.895 160.733 112.355C160.97 111.815 161.434 111.398 162.01 111.21L163.868 110.589C164.968 110.227 165.57 109.086 165.226 108.015L163.272 101.948C162.325 99.0602 162.743 95.9164 164.416 93.3528L165.202 92.1577C165.609 91.5327 166.319 91.1513 167.084 91.1465H169.753C170.328 91.1545 170.883 90.9408 171.295 90.5523C171.706 90.164 171.94 89.6333 171.945 89.0782V86.7339C171.948 85.6709 172.779 84.78 173.874 84.6656L186.168 83.1028C187.495 82.9291 188.846 83.1622 190.028 83.7694L190.981 84.2519C191.827 84.6873 192.763 84.9384 193.721 84.9874L195.103 85.0335C195.967 89.2575 196.398 93.5528 196.389 97.8579Z" fill="#F6F6F6"/>
<path d="M137.81 84.0979C137.33 84.0234 136.862 83.828 136.45 83.5074C135.17 82.5052 134.947 80.6592 135.945 79.3786L161.549 46.6763C162.551 45.3962 164.398 45.1733 165.679 46.1719C166.959 47.1741 167.182 49.0201 166.184 50.3007L140.58 83.003C139.902 83.8722 138.831 84.2563 137.81 84.0979Z" fill="#F6F6F6"/>
<path d="M129.023 61.7338C127.526 61.5015 126.437 60.1569 126.545 58.6227C126.658 57.0038 128.064 55.7827 129.684 55.8965L154.607 57.6495C156.23 57.7638 157.449 59.1692 157.335 60.7881C157.221 62.407 155.815 63.6281 154.196 63.5143L129.272 61.7613C129.187 61.7556 129.103 61.7462 129.023 61.7338Z" fill="#F6F6F6"/>
<path d="M161.656 87.2474C160.592 87.0821 159.662 86.3389 159.307 85.2461L151.619 61.4795C151.118 59.9326 151.967 58.2754 153.51 57.7785C155.058 57.2785 156.715 58.1273 157.213 59.6699L164.901 83.4366C165.401 84.9834 164.552 86.6407 163.009 87.1375C162.558 87.287 162.096 87.3156 161.656 87.2474Z" fill="#F6F6F6"/>
<path d="M126.195 83.2743C124.698 83.0419 123.608 81.6974 123.716 80.1631C123.83 78.5443 125.236 77.3232 126.855 77.4369L138.481 78.2562C140.101 78.37 141.322 79.7759 141.209 81.3948C141.095 83.0137 139.689 84.2348 138.069 84.121L126.443 83.3017C126.359 83.296 126.274 83.2867 126.195 83.2743Z" fill="#F6F6F6"/>
<path d="M141.414 95.1964C140.349 95.0311 139.419 94.2879 139.064 93.1951L135.476 82.1084C134.976 80.5615 135.825 78.9043 137.368 78.4074C138.911 77.9069 140.573 78.7562 141.07 80.2988L144.658 91.3855C145.159 92.9324 144.31 94.5896 142.767 95.0865C142.316 95.2323 141.854 95.2646 141.414 95.1964Z" fill="#F6F6F6"/>
<path fill-rule="evenodd" clip-rule="evenodd" d="M79.0592 155.903C95.5691 138.763 116.637 110.772 131.011 90.1953L132.063 90.8782C117.682 111.466 96.5688 139.522 79.9889 156.735C75.8426 161.04 71.9678 164.679 68.5433 167.357C65.1408 170.018 62.1059 171.792 59.6471 172.263C58.4 172.502 57.2448 172.416 56.2661 171.882C55.2862 171.348 54.5786 170.417 54.1202 169.149C53.2162 166.65 53.2063 162.638 54.1598 156.925L55.4123 157.119C54.4629 162.808 54.5257 166.556 55.3181 168.747C55.7079 169.824 56.2544 170.471 56.8907 170.818C57.5281 171.165 58.351 171.264 59.3999 171.064C61.5333 170.655 64.3625 169.052 67.744 166.407C71.1036 163.78 74.933 160.187 79.0592 155.903Z" fill="#F6F6F6"/>
<path fill-rule="evenodd" clip-rule="evenodd" d="M130.721 88.7266L133.574 90.5773L132.938 91.4867C118.55 112.085 97.3975 140.197 80.757 157.473C76.5932 161.796 72.6795 165.475 69.1997 168.196C65.777 170.873 62.5709 172.789 59.8446 173.311C58.4374 173.58 57.0104 173.506 55.7487 172.818C54.4792 172.126 53.6291 170.95 53.1079 169.509C52.103 166.73 52.1409 162.479 53.0982 156.743L53.2727 155.698L56.6442 156.221L56.4657 157.29C55.52 162.956 55.6307 166.465 56.3222 168.377C56.6488 169.28 57.0525 169.682 57.3999 169.871C57.755 170.065 58.3064 170.175 59.1943 170.005C61.0599 169.648 63.7177 168.186 67.0795 165.557C70.3838 162.973 74.1743 159.42 78.2829 155.154C94.7322 138.077 115.761 110.143 130.128 89.576L130.721 88.7266ZM131.444 91.7518C117.081 112.253 96.3299 139.76 79.9848 156.73C75.8385 161.034 71.9637 164.674 68.5392 167.351C65.1367 170.012 62.1018 171.787 59.643 172.258C58.3959 172.496 57.2407 172.41 56.262 171.877C55.2821 171.342 54.5746 170.411 54.1161 169.144C53.2121 166.645 53.2022 162.633 54.1557 156.92L55.4079 157.114C55.3477 157.475 55.2919 157.827 55.2398 158.173C54.4697 163.272 54.5718 166.69 55.314 168.741C55.7038 169.819 56.2503 170.465 56.8866 170.812C57.524 171.16 58.3469 171.259 59.3959 171.058C61.5292 170.65 64.3584 169.046 67.7399 166.402C71.0995 163.775 74.9289 160.181 79.0551 155.898C95.5649 138.757 116.633 110.767 131.007 90.19C131.007 90.19 131.007 90.1899 131.007 90.19L132.059 90.8728C131.856 91.1643 131.651 91.4573 131.444 91.7518Z" fill="#F6F6F6"/>
</svg>
