<svg width="188" height="187" viewBox="0 0 188 187" fill="none" xmlns="http://www.w3.org/2000/svg">
<path fill-rule="evenodd" clip-rule="evenodd" d="M19.6688 0H169.269C179.596 0 187.969 8.37228 187.969 18.7V168.3C187.969 178.628 179.596 187 169.269 187H19.6688C9.34103 187 0.96875 178.628 0.96875 168.3V18.7C0.96875 8.37228 9.34103 0 19.6688 0ZM19.6803 18.7112V127.012L57.0698 89.6229L89.8018 122.355L150.573 61.5841L169.28 80.2919V18.7112H19.6803ZM19.6803 168.311V153.458L57.0698 116.069L109.312 168.311H19.6803ZM169.28 168.311H135.758L103.025 135.578L150.573 88.0299L169.28 106.738V168.311ZM113.147 56.0888C113.147 40.5972 100.588 28.0388 85.0966 28.0388C69.605 28.0388 57.0466 40.5972 57.0466 56.0888C57.0466 71.5803 69.605 84.1388 85.0966 84.1388C100.588 84.1388 113.147 71.5803 113.147 56.0888ZM75.7716 56.1C75.7716 50.9361 79.9577 46.75 85.1216 46.75C90.2854 46.75 94.4716 50.9361 94.4716 56.1C94.4716 61.2639 90.2854 65.45 85.1216 65.45C79.9577 65.45 75.7716 61.2639 75.7716 56.1Z" fill="#D3D3D3"/>
</svg>
