<svg width="124" height="175" viewBox="0 0 124 175" fill="none" xmlns="http://www.w3.org/2000/svg">
<rect  width="115" height="175" rx="5" fill="#209FAE"/>
<g opacity="0.49">
<g opacity="0.1">
<path opacity="0.1" d="M6.29721 91.2545V44.1827V39.6859V30.6852L31.1115 34.7443V29.0616L0.125977 24V95.9278L31.1115 100.996V95.3137L6.29721 91.2545Z" fill="black"/>
<path opacity="0.1" d="M28.4569 49.8875C28.1829 50.3393 28.3503 51.0452 28.8297 51.4617L31.105 53.4313V45.5742C31.105 45.5742 31.105 45.5813 31.0973 45.5813L28.4569 49.8875Z" fill="black"/>
<path opacity="0.1" d="M30.1308 63.3768L28.4719 63.3132C27.8708 63.2921 27.3838 63.7297 27.3838 64.2874V64.7392C27.3838 65.2969 27.749 65.9958 28.198 66.2852C28.647 66.5747 29.1035 66.6735 29.21 66.497C29.3166 66.3205 29.621 66.1864 29.8797 66.2076C30.146 66.2288 30.2982 66.6311 30.2145 67.1041C30.1384 67.5771 30.3971 68.0007 30.7928 68.043C30.8993 68.0571 31.0135 68.0995 31.1124 68.156V63.7368C30.808 63.525 30.4504 63.3838 30.1308 63.3768Z" fill="black"/>
<path opacity="0.1" d="M30.1452 69.4035L29.3234 68.7047C28.8364 68.2952 27.9917 67.6881 27.4438 67.3634L24.149 65.3938C23.6011 65.0691 22.9162 64.3561 22.6271 63.8196L21.8509 62.3795C21.5618 61.843 20.9682 61.0241 20.5345 60.5652L19.4311 59.4004C18.9974 58.9416 18.6397 58.1086 18.6397 57.5509V55.8637C18.6397 55.306 18.343 54.4377 17.9853 53.9294L14.0132 48.3596C13.6556 47.8513 12.8794 47.4701 12.2859 47.5125L8.6562 47.7525C8.07027 47.7948 7.42347 47.3642 7.22563 46.8065L6.3125 44.1875V91.2664L31.1268 95.3255V70.1024C30.7463 69.8695 30.3963 69.6153 30.1452 69.4035Z" fill="black"/>
<path opacity="0.1" d="M8.93168 39.2505L12.8429 40.7471C13.4365 40.973 14.4105 41.213 15.0192 41.2836L18.1999 41.6507C18.8087 41.7213 19.7903 41.8978 20.3991 42.046L30.512 44.4956C30.7935 44.5662 30.999 44.7074 31.1131 44.8839V34.7466L6.29883 30.6875V39.6882L6.98368 39.314C7.46307 39.0528 8.33815 39.0246 8.93168 39.2505Z" fill="black"/>
<path opacity="0.1" d="M8.64253 47.7489L12.2722 47.5089C12.8581 47.4665 13.6343 47.8548 13.9996 48.356L17.9717 53.9258C18.3369 54.4341 18.6261 55.3024 18.6261 55.8601V57.5473C18.6261 58.105 18.9837 58.938 19.4175 59.3968L20.5208 60.5616C20.9546 61.0205 21.5481 61.8323 21.8372 62.3759L22.6134 63.816C22.9026 64.3525 23.5874 65.0584 24.1353 65.3902L27.4302 67.3598C27.978 67.6845 28.8227 68.2916 29.3097 68.7011L30.1315 69.3999C30.3826 69.6117 30.7326 69.8659 31.0979 70.0988V68.1434C30.999 68.0798 30.8924 68.0375 30.7783 68.0304C30.3826 67.9881 30.1239 67.5716 30.2 67.0915C30.2837 66.6186 30.1315 66.2162 29.8652 66.195C29.5988 66.1738 29.2945 66.3079 29.1955 66.4844C29.089 66.6609 28.6325 66.5691 28.1835 66.2726C27.7345 65.9762 27.3693 65.2843 27.3693 64.7267V64.2749C27.3693 63.7172 27.8639 63.2795 28.4574 63.3007L30.1163 63.3642C30.4359 63.3783 30.7859 63.5124 31.0979 63.7172V53.4317L28.8227 51.4621C28.3433 51.0456 28.1683 50.3397 28.4498 49.8879L31.0979 45.5817C31.0979 45.5817 31.0979 45.5746 31.1055 45.5746V44.8898C30.999 44.7063 30.7935 44.5651 30.512 44.4945L20.3991 42.0379C19.7979 41.8896 18.8087 41.7131 18.1999 41.6425L15.0192 41.2755C14.4105 41.2049 13.4365 40.9648 12.8429 40.7389L8.93168 39.2424C8.34576 39.0165 7.46307 39.0447 6.98368 39.3059L6.29883 39.68V44.1698L7.21196 46.7888C7.4098 47.3606 8.04899 47.7842 8.64253 47.7489Z" fill="black"/>
<path opacity="0.1" d="M36.2857 33.8972L51.7937 31.3629L62.0968 29.6757V24L31.1113 29.0616V34.7443L36.2857 33.8972Z" fill="black"/>
<path opacity="0.1" d="M31.1113 95.3186V101.001L62.0968 95.9328V90.25L31.1113 95.3186Z" fill="black"/>
<path opacity="0.1" d="M61.6629 67.4896C61.5564 66.9602 60.9704 66.5437 60.3693 66.5648L55.583 66.7413C54.9818 66.7625 54.3122 66.3813 54.0992 65.8942L53.3458 64.2C53.1328 63.7129 53.2089 62.8799 53.5208 62.3504L55.6591 58.7007C55.9711 58.1713 56.4581 57.6983 56.7548 57.6489C57.044 57.5995 57.7745 57.3947 58.368 57.19L60.1486 56.5759C60.7422 56.3711 61.2977 56.4911 61.3737 56.8441C61.4346 57.0982 61.7238 57.3665 62.0966 57.5289V54.1827L61.7542 54.0274C61.252 53.8015 60.4302 53.9357 59.928 54.3239L57.3332 56.357C56.8309 56.7523 56.1156 57.0206 55.7428 56.9641C55.3699 56.9006 55.0732 56.3994 55.0732 55.8417V55.5805C55.0732 55.0228 55.5678 54.4863 56.1765 54.3874L56.6635 54.3098C57.2723 54.211 57.5919 53.738 57.3788 53.265C57.1657 52.792 57.4321 52.1143 57.9647 51.7614L58.5202 51.3943C59.0529 51.0413 59.829 50.3636 60.2476 49.8906C60.2476 49.8906 61.1226 48.8882 61.1226 48.8035C61.1226 48.7117 61.0694 48.6411 61.0694 48.6411C60.7802 48.1964 60.7346 47.7234 60.9781 47.5893C61.2139 47.4552 61.564 47.6528 61.7466 48.034C61.8075 48.1682 61.9292 48.274 62.089 48.3517V46.5163C61.8684 46.361 61.5412 46.3327 61.2216 46.481C60.7422 46.7069 60.2552 46.4598 60.1334 45.9303L60.103 45.7962C59.9812 45.2738 60.1639 44.4196 60.5139 43.9114L62.0966 41.5818V29.6797L51.7935 31.3669L51.0326 39.2663C50.9793 39.831 50.6217 40.6993 50.2412 41.1935L45.6603 47.1728C45.2798 47.6669 44.5569 48.1399 44.0547 48.2246C43.5525 48.3093 42.9285 47.9987 42.6622 47.5399L36.0192 35.8566C35.7605 35.3978 35.8213 34.593 36.1638 34.0777L36.2779 33.9012L31.1035 34.7483V44.8856C31.2329 45.0479 31.2481 45.2879 31.1035 45.5703V53.4344L31.6894 53.745C32.1688 54.0062 32.595 53.7521 32.6254 53.1944L32.7928 50.2789C32.8232 49.7142 33.2646 49.0082 33.7668 48.7117C34.269 48.4082 35.0224 48.4364 35.4409 48.7682L39.8772 52.2838C40.2957 52.6156 40.3033 53.2791 39.8924 53.7592L38.4999 55.3687C38.089 55.8487 37.4574 56.6535 37.1073 57.1618L34.8473 60.402C34.4897 60.9103 33.782 61.6445 33.2798 62.0327L33.2037 62.0892C32.6939 62.4775 32.4123 63.2117 32.5721 63.7199C32.7319 64.2282 32.7319 64.7294 32.5721 64.8282C32.4123 64.9271 32.0471 64.6447 31.7655 64.2L31.7503 64.1788C31.6133 63.967 31.3851 63.8117 31.1111 63.7199V68.1391C31.3775 68.2167 31.5981 68.4568 31.659 68.7815C31.7427 69.2333 32.283 69.5792 32.8613 69.558C33.4472 69.5368 34.2919 69.2545 34.7332 68.9439C35.1822 68.6262 36.004 68.4709 36.5671 68.5979L40.212 69.4239C40.7675 69.551 41.4447 69.8969 41.7034 70.1934C41.9698 70.4899 42.6394 70.8428 43.1949 70.984L46.3756 71.7605C46.9311 71.8947 47.1137 72.4312 46.7789 72.9536L41.3534 81.4389C41.0186 81.9613 40.4707 82.8084 40.1359 83.3308L36.7421 88.5689C36.4073 89.0913 36.3997 89.8537 36.7345 90.2631L37.1606 90.7926C37.4954 91.202 37.2671 91.6256 36.6584 91.7244H36.6508C36.042 91.8232 35.3876 91.4985 35.1898 91.0044L34.4669 89.1548C34.269 88.6606 34.2005 87.7923 34.3071 87.2276L35.9355 78.6293C36.042 78.0645 35.7072 77.4363 35.1822 77.2386L34.7713 77.0833C34.2462 76.8856 33.607 76.3491 33.3407 75.8903L32.5721 74.5631C32.3058 74.1042 32.2525 73.2712 32.458 72.7136L32.8765 71.5488C33.082 70.9911 32.7776 70.4616 32.1993 70.3698L32.0699 70.3487C31.796 70.3063 31.4459 70.2145 31.1035 70.1086V95.3317L62.089 90.2631V69.551L61.6629 67.4896ZM56.8461 47.4622C57.1886 47.4057 57.6223 47.7728 57.7973 48.274L57.8125 48.3235C57.9952 48.8247 58.2235 49.6718 58.33 50.2012C58.4365 50.7307 58.1397 51.2249 57.6832 51.3025C57.219 51.3802 56.9831 50.999 57.1581 50.4624C57.3331 49.9259 57.2342 49.1212 56.9451 48.6764L56.7472 48.3658C56.4581 47.9281 56.5037 47.5187 56.8461 47.4622ZM55.6515 49.693C55.9711 49.3965 56.3363 49.4106 56.4657 49.7142C56.595 50.0177 56.4657 50.5825 56.1765 50.9566C55.8874 51.3307 55.5145 51.3237 55.3547 50.9354C55.2025 50.5472 55.3319 49.9895 55.6515 49.693ZM37.8226 66.5437C37.6476 66.5719 37.1758 66.5719 36.7649 66.5437C36.3616 66.5154 35.7148 66.6213 35.342 66.7766C34.9615 66.9319 34.6495 66.8613 34.6495 66.6213C34.6495 66.3813 34.3832 66.2966 34.056 66.4307C33.7288 66.5648 33.2798 66.5225 33.0439 66.3319C32.8156 66.1413 32.2982 66.0425 31.8873 66.106C31.484 66.1695 31.484 66.0919 31.8873 65.9295C32.2906 65.7671 33.0896 65.7036 33.6679 65.7954L37.0997 66.3248C37.678 66.4166 38.0052 66.5154 37.8226 66.5437ZM52.9045 44.6314C52.4555 45.0126 51.6794 45.1256 51.1771 44.8926L51.1695 44.8856C50.6673 44.6526 50.4086 44.2008 50.5988 43.8761C50.7814 43.5513 51.3902 43.2125 51.9457 43.1278C52.5012 43.036 53.1251 43.1842 53.3382 43.4525C53.5513 43.7278 53.3534 44.2573 52.9045 44.6314Z" fill="black"/>
<path opacity="0.1" d="M56.9547 48.6731C57.2439 49.1178 57.3428 49.9226 57.1678 50.4591C56.9928 50.9956 57.2363 51.3768 57.6928 51.2992C58.157 51.2215 58.4462 50.7273 58.3396 50.1979C58.2331 49.6684 57.9972 48.8213 57.8222 48.3201L57.807 48.2707C57.6244 47.7695 57.1982 47.4024 56.8558 47.4589C56.5134 47.5153 56.4677 47.9248 56.7569 48.3695L56.9547 48.6731Z" fill="black"/>
<path opacity="0.1" d="M56.1786 50.9548C56.4677 50.5807 56.5971 50.023 56.4677 49.7124C56.3384 49.4088 55.9655 49.3947 55.6535 49.6912C55.3339 49.9877 55.2046 50.5454 55.3644 50.9336C55.5166 51.3219 55.8894 51.329 56.1786 50.9548Z" fill="black"/>
<path opacity="0.1" d="M53.3391 43.4574C53.126 43.1892 52.502 43.0409 51.9465 43.1327C51.3911 43.2245 50.7823 43.5633 50.5997 43.881C50.4094 44.2057 50.6682 44.6575 51.1704 44.8905L51.178 44.8975C51.6802 45.1305 52.4564 45.0105 52.9053 44.6363C53.3543 44.2551 53.5521 43.7257 53.3391 43.4574Z" fill="black"/>
<path opacity="0.1" d="M36.0276 35.8569L42.6707 47.5402C42.9294 47.999 43.561 48.3097 44.0632 48.2249C44.5654 48.1402 45.2883 47.6673 45.6688 47.1731L50.2496 41.1938C50.6301 40.6997 50.9877 39.8314 51.041 39.2666L51.802 31.3672L36.294 33.9015L36.1798 34.078C35.8298 34.6004 35.7613 35.3981 36.0276 35.8569Z" fill="black"/>
<path opacity="0.1" d="M31.7445 64.1859L31.7597 64.2071C32.0488 64.6519 32.4141 64.9342 32.5663 64.8354C32.7261 64.7366 32.7261 64.2424 32.5663 63.7271C32.4065 63.2188 32.6956 62.4846 33.1979 62.0964L33.2739 62.0399C33.7838 61.6516 34.4915 60.9175 34.8415 60.4092L37.1015 57.1689C37.4591 56.6607 38.0831 55.8488 38.494 55.3759L39.8865 53.7663C40.2974 53.2863 40.2898 52.6227 39.8713 52.2909L35.435 48.7754C35.0165 48.4436 34.2632 48.4153 33.7609 48.7189C33.2587 49.0224 32.8174 49.7284 32.7869 50.2861L32.6195 53.2016C32.5891 53.7663 32.163 54.0134 31.6836 53.7522L31.0977 53.4416V63.7341C31.3792 63.8189 31.6151 63.9742 31.7445 64.1859Z" fill="black"/>
<path opacity="0.1" d="M32.0703 70.3392L32.1997 70.3604C32.7704 70.4522 33.0748 70.9816 32.8769 71.5393L32.4584 72.7041C32.2529 73.2618 32.3062 74.0948 32.5725 74.5537L33.3411 75.8808C33.6074 76.3397 34.2542 76.8762 34.7717 77.0739L35.1826 77.2292C35.7076 77.4268 36.0424 78.0551 35.9359 78.6199L34.3075 87.2182C34.201 87.7829 34.2694 88.6512 34.4673 89.1454L35.1978 91.002C35.3956 91.4961 36.05 91.8209 36.6588 91.722H36.6664C37.2752 91.6232 37.4958 91.1997 37.1686 90.7902L36.7425 90.2608C36.4077 89.8513 36.4153 89.0889 36.7501 88.5665L40.1439 83.3285C40.4787 82.8061 41.0266 81.9589 41.3614 81.4366L46.7869 72.9512C47.1217 72.4288 46.9391 71.8923 46.3836 71.7582L43.2029 70.9816C42.6474 70.8475 41.9778 70.4875 41.7114 70.191C41.4451 69.8945 40.7755 69.5486 40.22 69.4215L36.5751 68.5956C36.0196 68.4685 35.1902 68.6238 34.7412 68.9415C34.2923 69.2592 33.4476 69.5345 32.8693 69.5557C32.291 69.5768 31.7507 69.2239 31.667 68.7791C31.6138 68.4544 31.3855 68.2144 31.1191 68.1367V70.0851C31.4463 70.2051 31.7964 70.2898 32.0703 70.3392Z" fill="black"/>
<path opacity="0.1" d="M37.1077 66.3303L33.6758 65.8009C33.1051 65.7161 32.2985 65.7726 31.8952 65.935C31.4919 66.0973 31.4919 66.175 31.8952 66.1115C32.2985 66.0479 32.8236 66.1468 33.0519 66.3374C33.2802 66.528 33.7367 66.5703 34.0639 66.4362C34.3911 66.3021 34.6575 66.3868 34.6575 66.6268C34.6575 66.8668 34.9694 66.9374 35.3499 66.7821C35.7304 66.6268 36.3696 66.5209 36.7729 66.5491C37.1762 66.5774 37.6556 66.5774 37.8306 66.5491C38.0056 66.5138 37.6784 66.415 37.1077 66.3303Z" fill="black"/>
<path opacity="0.1" d="M61.7555 48.0247C61.5729 47.6435 61.2228 47.4387 60.9869 47.5799C60.751 47.7141 60.7891 48.187 61.0782 48.6318C61.0782 48.6318 61.1315 48.7094 61.1315 48.7941C61.1315 48.8859 60.2564 49.8813 60.2564 49.8813C59.8379 50.3543 59.0618 51.032 58.5291 51.3849L57.9736 51.752C57.441 52.105 57.1746 52.7827 57.3877 53.2557C57.6008 53.7286 57.2735 54.2016 56.6724 54.3004L56.1854 54.3781C55.5766 54.4769 55.082 55.0134 55.082 55.5711V55.8464C55.082 56.4041 55.3864 56.9124 55.7517 56.9689C56.1245 57.0324 56.8322 56.7571 57.342 56.3618L59.9368 54.3287C60.4391 53.9334 61.2609 53.7992 61.7631 54.0322L62.1055 54.1875V48.3423C61.9457 48.2647 61.824 48.1588 61.7555 48.0247Z" fill="black"/>
<path opacity="0.1" d="M61.3672 56.8525C61.2911 56.4995 60.7356 56.3795 60.1421 56.5843L58.3615 57.1984C57.768 57.4031 57.0375 57.6079 56.7483 57.6573C56.4592 57.7067 55.9645 58.1797 55.6526 58.7091L53.5143 62.3588C53.2023 62.8883 53.1262 63.7213 53.3393 64.2084L54.0926 65.9026C54.3057 66.3897 54.9753 66.7709 55.5765 66.7497L60.3628 66.5733C60.9639 66.5521 61.5422 66.9686 61.6564 67.498L62.0825 69.5594V57.5373C61.7249 57.3749 61.4281 57.1067 61.3672 56.8525Z" fill="black"/>
<path opacity="0.1" d="M60.1032 45.7926L60.1336 45.9267C60.2554 46.4491 60.75 46.6962 61.2218 46.4773C61.5414 46.3291 61.8686 46.3503 62.0893 46.5126V41.5781L60.5065 43.9077C60.1641 44.416 59.9815 45.2702 60.1032 45.7926Z" fill="black"/>
<path opacity="0.1" d="M117.828 30.693V42.3904V43.3716V91.2624L93.082 95.3144V100.997L123.999 95.9357V24.0078L93.082 29.0623V34.7451L117.828 30.693Z" fill="black"/>
<path opacity="0.1" d="M114.885 45.5987L111.894 47.653C111.369 48.013 110.692 48.7472 110.395 49.2837L108.881 52.0086C108.584 52.5451 108.295 52.531 108.242 51.9874L108.15 51.105C108.097 50.5614 108.333 49.6931 108.683 49.1778L109.634 47.7659C109.984 47.2506 109.794 47.06 109.223 47.3424L107.26 48.3095C106.689 48.5919 105.807 49.1425 105.304 49.5308L103.098 51.2391C102.596 51.6345 102.428 52.3122 102.725 52.7428L103.273 53.5405C103.57 53.9782 103.455 54.7053 103.014 55.1571L100.199 58.0373C99.7572 58.4891 99.5213 59.2797 99.6811 59.788C99.8409 60.2963 99.7344 60.8752 99.4376 61.0658C99.1485 61.2564 98.7756 61.0022 98.6234 60.4869L98.5245 60.1622C98.3647 59.6468 97.8016 59.3433 97.2766 59.4774C96.7439 59.6115 96.4928 60.1198 96.7211 60.5998L96.9722 61.1505C97.1929 61.6305 97.2157 62.4847 97.0255 63.0494L96.6678 64.1013C96.4776 64.659 95.8384 65.3014 95.2449 65.5202L94.4154 65.8308C93.9817 65.9932 93.4643 66.2473 93.0762 66.4803V74.4927C93.1142 74.4927 93.1523 74.4856 93.1903 74.4785C93.7458 74.3868 94.3622 74.3938 94.5676 74.4927C94.7731 74.5915 95.2144 74.5703 95.5492 74.4503C95.8841 74.3303 96.333 74.2738 96.5461 74.3162C96.7591 74.3656 97.307 74.3515 97.7636 74.295C98.2201 74.2385 98.6691 74.2809 98.7604 74.4009C98.8517 74.5138 98.4256 74.6621 97.8168 74.7256L94.697 75.0645C94.2556 75.1139 93.6164 75.128 93.0838 75.1068V95.3248L117.83 91.2728V43.375L116.757 44.2221C116.254 44.6174 115.417 45.2387 114.885 45.5987ZM96.0667 72.7984C95.8384 73.3067 95.222 73.7091 94.7046 73.702C94.1872 73.6879 93.6621 73.3773 93.548 73.0031C93.4338 72.629 93.7154 71.9725 94.1795 71.5348L94.6133 71.1254C95.0774 70.6877 95.6862 70.3982 95.9678 70.4829C96.2493 70.5677 96.4776 70.9136 96.4776 71.2524C96.4852 71.5983 96.295 72.2901 96.0667 72.7984ZM105.616 72.6078L106.142 73.1514C106.507 73.5326 106.37 73.7091 105.837 73.5326L105.731 73.4973C105.198 73.3208 104.612 73.3138 104.437 73.4691C104.262 73.6244 103.783 73.8079 103.379 73.8785C102.976 73.942 102.702 73.7797 102.771 73.5114C102.839 73.2361 102.512 72.9749 102.032 72.9255C101.553 72.8761 100.967 72.6925 100.716 72.5231C100.473 72.3537 100.473 72.0713 100.716 71.9019C100.96 71.7325 101.264 71.7607 101.393 71.9725C101.515 72.1772 101.789 72.2407 102.002 72.1066C102.215 71.9725 102.869 71.8736 103.471 71.8878L103.874 71.8948C104.46 71.9019 105.251 72.2196 105.616 72.6078ZM103.28 56.8725C103.425 56.4419 103.912 56.1807 104.369 56.2795C104.825 56.3854 105.069 56.6748 104.916 56.929C104.757 57.1831 104.27 57.4514 103.828 57.522C103.387 57.5926 103.136 57.3031 103.28 56.8725ZM100.556 61.0234C100.716 60.7763 101.119 60.4234 101.454 60.2257C101.789 60.0351 102.284 59.4845 102.542 58.9974C102.809 58.5173 103.136 58.1008 103.28 58.0796C103.425 58.0585 103.539 58.3691 103.539 58.7785C103.539 59.1809 103.425 59.7457 103.28 60.028C103.136 60.3104 102.535 60.6987 101.941 60.8963H101.934C101.34 61.094 100.906 61.5317 100.975 61.8776C101.043 62.2235 100.914 62.5341 100.686 62.5765C100.457 62.6118 100.267 62.3788 100.267 62.0541C100.267 61.7293 100.396 61.2634 100.556 61.0234ZM98.6615 70.0453C98.5245 70.2006 98.1593 69.9676 97.8625 69.5299L97.0255 68.3087C96.7287 67.871 96.683 67.3062 96.9341 67.0592C97.1776 66.805 97.3679 66.8827 97.3527 67.2286C97.3374 67.5745 97.6114 67.9133 97.9614 67.9839C98.3115 68.0545 98.6767 68.4922 98.7604 68.944C98.8517 69.3958 98.8061 69.89 98.6615 70.0453ZM107.26 79.1024L106.925 80.7049C106.804 81.2697 106.294 82.0462 105.784 82.4344L105.236 82.8439C104.726 83.2251 103.927 83.3098 103.471 83.0204C103.471 83.0204 101.043 81.5097 100.845 81.545C100.655 81.5732 96.6222 83.1474 96.6222 83.1474C96.0362 83.3804 95.4199 83.1474 95.2601 82.6321L94.4991 80.2037C94.3393 79.6884 94.6285 78.9612 95.1383 78.573L98.9582 75.6857C99.4681 75.2974 100.275 74.9233 100.746 74.8456C101.218 74.768 101.827 75.0433 102.093 75.4669C102.36 75.8834 102.885 75.8198 103.258 75.3257L103.334 75.2268C103.707 74.7256 104.216 74.7044 104.467 75.1704L104.726 75.6645C104.97 76.1304 105.54 76.7658 105.989 77.0693L106.674 77.5352C107.116 77.8247 107.382 78.5306 107.26 79.1024ZM113.317 84.2981L113.18 84.5593C112.899 85.1029 112.282 85.47 111.803 85.3711C111.324 85.2794 111.27 84.8134 111.689 84.3334L112.503 83.3945C112.914 82.9145 113.378 82.7027 113.538 82.9215C113.698 83.1333 113.599 83.7545 113.317 84.2981ZM115.463 81.545C115.25 81.9191 114.908 82.258 114.695 82.2933C114.481 82.3286 114.223 81.9191 114.116 81.3897L114.025 80.9237C113.918 80.3943 114.246 80.1402 114.748 80.3731L114.93 80.4578C115.433 80.6767 115.676 81.1638 115.463 81.545Z" fill="black"/>
<path opacity="0.1" d="M93.9115 38.7289C94.2311 39.1524 94.9159 39.6678 95.4257 39.8795L98.6521 41.1996C99.162 41.4114 100.052 41.3408 100.615 41.0443L102.989 39.8019C103.553 39.5054 104.466 39.3783 105.014 39.5266L108.012 40.3102C108.56 40.4513 109.473 40.6631 110.036 40.7831L117.797 42.3856C117.805 42.3856 117.813 42.3927 117.828 42.3927V30.6953L93.082 34.7474V37.6347L93.9115 38.7289Z" fill="black"/>
<path opacity="0.1" d="M105.981 77.0531C105.532 76.7496 104.968 76.1143 104.717 75.6483L104.459 75.1542C104.215 74.6812 103.705 74.7094 103.325 75.2107L103.249 75.3095C102.876 75.8107 102.351 75.8742 102.085 75.4507C101.818 75.0342 101.217 74.7518 100.738 74.8295C100.258 74.9071 99.4517 75.2883 98.9494 75.6695L95.1295 78.5568C94.6197 78.9451 94.3305 79.6722 94.4903 80.1875L95.2513 82.6159C95.4111 83.1242 96.0274 83.3572 96.6134 83.1313C96.6134 83.1313 100.639 81.5641 100.837 81.5288C101.027 81.5005 103.462 83.0042 103.462 83.0042C103.926 83.2936 104.717 83.2089 105.227 82.8277L105.775 82.4183C106.285 82.0371 106.802 81.2535 106.917 80.6887L107.251 79.0862C107.373 78.5215 107.107 77.8085 106.658 77.5049L105.981 77.0531Z" fill="black"/>
<path opacity="0.1" d="M114.931 80.4419L114.748 80.3572C114.246 80.1313 113.918 80.3783 114.025 80.9078L114.116 81.3737C114.223 81.9032 114.482 82.3126 114.695 82.2773C114.908 82.242 115.25 81.9102 115.463 81.529C115.676 81.1619 115.433 80.6748 114.931 80.4419Z" fill="black"/>
<path opacity="0.1" d="M112.502 83.3913L111.688 84.3302C111.277 84.8102 111.33 85.2761 111.802 85.3679C112.282 85.4597 112.898 85.0926 113.179 84.5561L113.316 84.2949C113.598 83.7584 113.697 83.1372 113.537 82.9183C113.377 82.6995 112.913 82.9113 112.502 83.3913Z" fill="black"/>
<path opacity="0.1" d="M94.697 75.0637L97.8168 74.7249C98.418 74.6613 98.8441 74.5131 98.7604 74.4001C98.6691 74.2801 98.2277 74.2378 97.7636 74.2943C97.307 74.3507 96.7591 74.3648 96.5461 74.3154C96.333 74.266 95.884 74.3296 95.5492 74.4496C95.2144 74.5696 94.7731 74.5907 94.5676 74.4919C94.3622 74.3931 93.7458 74.3931 93.1903 74.4778C93.1523 74.4849 93.1142 74.4849 93.0762 74.4919V75.1061C93.624 75.1202 94.2556 75.1061 94.697 75.0637Z" fill="black"/>
<path opacity="0.1" d="M95.9745 70.4874C95.6929 70.4027 95.0842 70.6921 94.62 71.1298L94.1863 71.5392C93.7221 71.9769 93.4405 72.6334 93.5547 73.0076C93.6688 73.3747 94.1862 73.6923 94.7113 73.7065C95.2287 73.7206 95.8451 73.3111 96.0734 72.8029C96.3017 72.2946 96.4919 71.6028 96.4919 71.2639C96.4843 70.9109 96.256 70.565 95.9745 70.4874Z" fill="black"/>
<path opacity="0.1" d="M98.7595 68.9378C98.6682 68.479 98.3106 68.0483 97.9606 67.9778C97.6105 67.9072 97.3366 67.5683 97.3518 67.2224C97.367 66.8765 97.1844 66.8059 96.9333 67.053C96.6898 67.3071 96.7278 67.8648 97.0246 68.3025L97.8616 69.5237C98.1584 69.9614 98.5236 70.1944 98.6606 70.0391C98.8052 69.8908 98.8509 69.3967 98.7595 68.9378Z" fill="black"/>
<path opacity="0.1" d="M103.463 71.8788C102.869 71.8647 102.207 71.9636 101.994 72.0977C101.781 72.2318 101.507 72.1683 101.385 71.9636C101.264 71.7588 100.959 71.7235 100.708 71.893C100.465 72.0624 100.465 72.3448 100.708 72.5142C100.952 72.6836 101.545 72.8672 102.024 72.9166C102.504 72.966 102.831 73.2342 102.763 73.5025C102.694 73.7708 102.968 73.9402 103.371 73.8696C103.775 73.8061 104.254 73.6225 104.429 73.4601C104.604 73.2978 105.19 73.3119 105.723 73.4884L105.829 73.5237C106.362 73.7002 106.499 73.5237 106.134 73.1425L105.608 72.5989C105.243 72.2177 104.452 71.893 103.858 71.8788H103.463Z" fill="black"/>
<path opacity="0.1" d="M103.826 57.5234C104.268 57.4528 104.755 57.1845 104.914 56.9304C105.074 56.6763 104.823 56.3868 104.366 56.2809C103.91 56.175 103.415 56.4433 103.278 56.8739C103.134 57.3045 103.385 57.594 103.826 57.5234Z" fill="black"/>
<path opacity="0.1" d="M100.684 62.5721C100.912 62.5368 101.042 62.2191 100.973 61.8732C100.905 61.5273 101.331 61.0896 101.932 60.8919H101.94C102.541 60.7013 103.142 60.306 103.279 60.0236C103.424 59.7413 103.538 59.1765 103.538 58.7741C103.538 58.3647 103.424 58.0541 103.279 58.0752C103.134 58.0964 102.807 58.5129 102.541 58.993C102.275 59.473 101.788 60.0236 101.453 60.2213C101.118 60.4119 100.715 60.7719 100.555 61.019C100.395 61.2661 100.266 61.732 100.266 62.0567C100.266 62.3744 100.456 62.6144 100.684 62.5721Z" fill="black"/>
<path opacity="0.1" d="M110.036 40.7852C109.473 40.6722 108.567 40.4534 108.012 40.3122L105.014 39.5286C104.466 39.3804 103.553 39.5074 102.989 39.8039L100.615 41.0464C100.052 41.3429 99.1696 41.4135 98.6521 41.2017L95.4257 39.8816C94.9083 39.6698 94.2311 39.1545 93.9115 38.7309L93.082 37.6367V66.4813C93.4625 66.2483 93.9876 65.9871 94.4213 65.8318L95.2507 65.5212C95.8443 65.3024 96.4834 64.667 96.6737 64.1023L97.0313 63.0504C97.2216 62.4927 97.1987 61.6385 96.978 61.1515L96.7269 60.6008C96.5063 60.1208 96.7574 59.6125 97.2824 59.4784C97.8075 59.3443 98.3706 59.6549 98.5304 60.1631L98.6293 60.4879C98.7891 61.0032 99.1543 61.2644 99.4435 61.0667C99.7327 60.8761 99.8468 60.2973 99.687 59.789C99.5272 59.2807 99.7631 58.4901 100.204 58.0383L103.02 55.1581C103.461 54.7063 103.583 53.9791 103.279 53.5415L102.731 52.7438C102.434 52.3061 102.601 51.6284 103.104 51.2401L105.31 49.5317C105.813 49.1364 106.695 48.5928 107.266 48.3105L109.229 47.3433C109.8 47.061 109.983 47.2516 109.64 47.7669L108.689 49.1788C108.339 49.6941 108.103 50.5624 108.156 51.106L108.248 51.9884C108.301 52.532 108.59 52.5461 108.887 52.0096L110.401 49.2847C110.698 48.7482 111.375 48.014 111.9 47.654L114.891 45.5997C115.416 45.2396 116.26 44.6184 116.763 44.2231L117.835 43.376V42.3947C117.828 42.3947 117.82 42.3877 117.805 42.3877L110.036 40.7852Z" fill="black"/>
<path opacity="0.1" d="M93.0147 34.7302V29.0545L62.0977 24V29.6757L93.0147 34.7302Z" fill="black"/>
<path opacity="0.1" d="M63.1846 48.7627L63.7934 48.7839C64.3945 48.8051 65.0337 48.4098 65.2087 47.9086L65.2392 47.8168C65.4142 47.3156 65.9697 46.8497 66.4719 46.7861C66.9741 46.7226 67.3622 46.5249 67.3394 46.3555C67.3165 46.179 66.9056 46.0731 66.4262 46.1155C65.9468 46.1578 65.4294 45.8543 65.2696 45.4378C65.1098 45.0213 65.2696 44.3648 65.6272 43.9694L65.8707 43.7012C66.2284 43.3059 66.3197 42.8329 66.0838 42.6493C65.8479 42.4658 65.3761 42.6493 65.0413 43.0588L64.5315 43.68C64.1967 44.0894 63.9456 44.8801 63.976 45.4448L64.0521 46.7085C64.0825 47.2732 63.7629 47.7321 63.3368 47.7391C62.9183 47.7462 62.4617 47.372 62.3248 46.9132C62.2791 46.7649 62.1954 46.6308 62.0889 46.5179V48.3533C62.3856 48.5792 62.7889 48.7486 63.1846 48.7627Z" fill="black"/>
<path opacity="0.1" d="M63.1786 58.149C63.7493 58.4385 64.4493 58.5232 64.7385 58.3396C65.0276 58.1561 65.7505 58.1843 66.3441 58.4032L68.3225 59.1303C68.9161 59.3491 69.5248 59.102 69.6694 58.5867L69.6998 58.4808C69.852 57.9655 69.4792 57.436 68.8704 57.3019L67.8964 57.0901C67.2876 56.956 66.793 56.5677 66.793 56.2289C66.793 55.89 66.58 55.5724 66.3136 55.53C66.0473 55.4876 65.9179 55.6853 66.0245 55.9677C66.131 56.2501 66.0397 56.5183 65.8342 56.5536C65.6212 56.5889 65.2788 56.3136 65.0657 55.9394C64.8526 55.5653 64.3808 54.8452 64.008 54.344L63.7188 53.9558C63.346 53.4545 62.8285 53.1298 62.5622 53.2286C62.2959 53.3345 62.4252 53.8005 62.8361 54.2734L63.0492 54.5205C63.4677 54.9935 63.6351 55.7277 63.4221 56.1583C63.209 56.5889 62.8209 56.6454 62.5546 56.2853C62.2883 55.9253 62.2883 55.6288 62.5546 55.6218C62.8209 55.6147 63.034 55.4594 63.034 55.2829C63.034 55.0994 62.6231 54.6264 62.1208 54.2311L62.0752 54.1958V57.5419C62.2198 57.6478 62.372 57.7537 62.5242 57.8314L63.1786 58.149Z" fill="black"/>
<path opacity="0.1" d="M74.1114 57.2151C74.1114 57.5258 74.4462 57.9493 74.8495 58.1611C75.2528 58.3729 75.5876 58.0905 75.5876 57.5328V57.441C75.5876 56.8834 75.3669 56.1633 75.093 55.8456C74.8191 55.528 74.8191 55.1962 75.093 55.1115C75.3669 55.0267 75.5039 54.7867 75.3974 54.5749C75.2909 54.3632 74.8419 54.1937 74.4006 54.2079C73.9592 54.2149 73.6016 54.4832 73.6016 54.8008C73.6016 55.1185 73.7157 55.6691 73.8603 56.0221C73.9972 56.361 74.1114 56.9045 74.1114 57.2151Z" fill="black"/>
<path opacity="0.1" d="M68.6951 55.518C69.1365 55.4615 69.7528 55.5604 70.0724 55.7439C70.392 55.9275 70.8638 56.0051 71.1301 55.9133C71.3965 55.8286 71.465 55.5674 71.2899 55.3345C71.1149 55.1015 70.8943 54.6427 70.8106 54.3109C70.7192 53.9791 70.3312 53.7532 69.9431 53.8026C69.555 53.852 69.0223 53.7673 68.756 53.612C68.4897 53.4567 68.0788 53.7108 67.8353 54.1838L67.8201 54.212C67.5766 54.685 67.4928 55.1933 67.6374 55.3486C67.7744 55.5039 68.2538 55.5815 68.6951 55.518Z" fill="black"/>
<path opacity="0.1" d="M73.3306 73.572L73.0642 73.7767C72.6381 74.1014 72.2881 74.8215 72.2881 75.3792V76.0075C72.2881 76.5652 72.4935 77.1229 72.7447 77.2499C72.9958 77.377 73.3382 77.0664 73.498 76.551L73.81 75.591C73.9774 75.0827 74.1067 74.285 74.1067 73.8261C74.1143 73.3602 73.7643 73.2473 73.3306 73.572Z" fill="black"/>
<path opacity="0.1" d="M92.3151 73.8126C92.3836 73.5161 92.064 72.9161 91.5998 72.4855L90.466 71.4266C90.0018 70.9889 89.3931 70.6006 89.1115 70.5512C88.83 70.5018 88.8985 70.883 89.2561 71.3842L90.7628 73.4879C91.128 73.9962 91.8966 74.6174 92.4825 74.8715L92.5434 74.8998C92.6803 74.9562 92.8478 75.0268 93.0152 75.0904V74.4903C92.5586 74.3491 92.2542 74.0738 92.3151 73.8126Z" fill="black"/>
<path opacity="0.1" d="M62.3347 46.9012C62.4641 47.3601 62.9207 47.7342 63.3468 47.7272C63.7729 47.7272 64.0925 47.2612 64.0621 46.6965L63.986 45.4329C63.9555 44.8681 64.199 44.0775 64.5415 43.668L65.0513 43.0468C65.3861 42.6374 65.8579 42.4538 66.0938 42.6374C66.3297 42.8209 66.2384 43.2939 65.8807 43.6892L65.6372 43.9575C65.2796 44.3528 65.1198 45.0093 65.2796 45.4258C65.4394 45.8423 65.9568 46.1459 66.4362 46.1035C66.9156 46.0611 67.3265 46.167 67.3493 46.3435C67.3722 46.52 66.9841 46.7106 66.4819 46.7741C65.9796 46.8377 65.4241 47.3036 65.2491 47.8048L65.2187 47.8966C65.0437 48.3978 64.4045 48.7931 63.8033 48.7719L63.1946 48.7508C62.8065 48.7366 62.3956 48.5672 62.1064 48.3272V54.1723L62.1521 54.2076C62.6543 54.603 63.0652 55.0759 63.0652 55.2595C63.0652 55.443 62.8522 55.5983 62.5858 55.5983C62.3195 55.6054 62.3195 55.9019 62.5858 56.2619C62.8522 56.6219 63.2402 56.5655 63.4533 56.1349C63.6664 55.7042 63.499 54.9701 63.0804 54.4971L62.8674 54.25C62.4489 53.777 62.3271 53.304 62.5934 53.2052C62.8598 53.0993 63.3772 53.4311 63.7501 53.9323L64.0392 54.3206C64.4121 54.8218 64.8839 55.5419 65.0969 55.916C65.31 56.2902 65.6524 56.5655 65.8655 56.5302C66.0786 56.4949 66.1623 56.2266 66.0557 55.9442C65.9492 55.6548 66.0786 55.4642 66.3449 55.5066C66.6112 55.5489 66.8243 55.8666 66.8243 56.2054C66.8243 56.5443 67.3189 56.9326 67.9276 57.0667L68.9016 57.2785C69.5104 57.4126 69.8756 57.942 69.7311 58.4574L69.7006 58.5633C69.5485 59.0786 68.9397 59.3257 68.3538 59.1068L66.3753 58.3797C65.7818 58.1609 65.0589 58.1327 64.7697 58.3162C64.4806 58.4997 63.7729 58.415 63.2098 58.1256L62.5782 57.8079C62.4184 57.7303 62.2662 57.6314 62.1293 57.5185V69.5265L63.3696 75.8658C63.4838 76.4305 64.0468 77.0941 64.6328 77.3412L66.6417 78.1883C67.2276 78.4354 67.9353 78.2659 68.2092 77.8141L74.4109 67.804C74.6924 67.3522 74.4261 66.8368 73.8249 66.6533L73.5053 66.5545C72.9042 66.3709 72.1661 65.785 71.8617 65.2555L69.7082 61.5211C69.4039 60.9917 69.3049 60.5611 69.4876 60.5681C69.6702 60.5752 70.0811 61.0129 70.3931 61.5423L72.1433 64.5143C72.4552 65.0438 73.1401 65.312 73.6575 65.1144L76.473 64.0413C76.9981 63.8437 77.1807 63.406 76.8915 63.0601C76.6024 62.7212 76.0393 62.4318 75.6436 62.4177C75.2479 62.4036 74.6848 61.9447 74.4033 61.4082L74.2891 61.1894C74.0076 60.6528 73.9239 60.2363 74.1065 60.2646C74.2891 60.2928 74.7 60.6317 75.0196 61.0129C75.3392 61.3941 76.0773 61.8953 76.6632 62.1353L79.7222 63.3636C80.3082 63.6037 81.0158 64.239 81.2898 64.7826L82.7964 67.7757C83.0704 68.3193 83.6182 68.4746 84.0139 68.1146L86.799 65.6297C87.1947 65.2767 87.8491 65.3826 88.2448 65.8697L88.7242 66.4556C89.1199 66.9427 89.5384 67.804 89.6449 68.3687L89.7286 68.8205C89.8351 69.3853 90.246 70.2465 90.6417 70.7407L91.2277 71.4607C91.6233 71.9478 92.0723 72.1314 92.2321 71.8631C92.3919 71.5949 92.1103 71.0654 91.6081 70.6771C91.1059 70.2889 90.695 69.59 90.695 69.117C90.695 68.644 91.0374 68.637 91.4635 69.1029L91.7527 69.4206C92.1788 69.8865 92.7191 69.8936 92.955 69.4347C93.0083 69.3359 93.0387 69.2229 93.0615 69.0958V68.5029C93.0159 68.2275 92.9169 67.9522 92.7648 67.7404C92.4223 67.2675 92.4223 66.7521 92.7648 66.5898C92.8409 66.5545 92.9474 66.5121 93.0615 66.4839V37.5264L92.4299 36.4886C92.1103 35.9592 91.4103 35.6768 90.8776 35.8533L86.9055 37.1663C86.3729 37.3428 85.5586 37.724 85.1097 38.0205L83.1617 39.2842C82.7051 39.5806 81.9213 39.6301 81.4191 39.4042C80.9169 39.1783 80.2321 39.3265 79.8972 39.736L78.8928 40.9713C78.558 41.3808 77.8047 41.7549 77.2187 41.7902L75.5066 41.9032C74.9207 41.9385 74.038 42.1856 73.5586 42.4397L71.4736 43.5339C70.9866 43.788 70.3322 43.6751 70.0126 43.2868C69.693 42.8915 69.9137 42.5385 70.4996 42.4891L70.5757 42.482C71.1616 42.4397 71.6182 42.115 71.5954 41.7761C71.5726 41.4302 71.1008 40.8866 70.5453 40.5619L68.1255 39.15C67.5776 38.8253 66.6645 38.6559 66.1014 38.7759L65.2644 38.9453C64.7013 39.0583 63.9555 39.4818 63.6055 39.8771L62.1293 41.5714V46.5059C62.2054 46.6188 62.2891 46.753 62.3347 46.9012ZM74.4033 54.1865C74.8446 54.1794 75.2936 54.3418 75.4001 54.5536C75.5066 54.7653 75.3696 55.0054 75.0957 55.0901C74.8218 55.1748 74.8218 55.5066 75.0957 55.8242C75.3696 56.1419 75.5903 56.862 75.5903 57.4197V57.5114C75.5903 58.0691 75.2555 58.3515 74.8522 58.1397C74.4489 57.9279 74.1141 57.5044 74.1141 57.1938C74.1141 56.8831 74 56.3396 73.8554 55.9866C73.7108 55.6336 73.5967 55.083 73.5967 54.7653C73.5967 54.4618 73.9619 54.1935 74.4033 54.1865ZM67.8211 54.2147L67.8363 54.1865C68.0798 53.7135 68.4907 53.4594 68.7571 53.6147C69.0234 53.77 69.5561 53.8617 69.9441 53.8053C70.3322 53.7558 70.7203 53.9817 70.8116 54.3135C70.9029 54.6453 71.116 55.1042 71.291 55.3371C71.466 55.5701 71.3975 55.8313 71.1312 55.916C70.8649 56.0007 70.3931 55.9231 70.0735 55.7466C69.7539 55.563 69.1375 55.4642 68.6962 55.5207C68.2549 55.5772 67.7831 55.4995 67.6385 55.3513C67.4939 55.196 67.5776 54.6877 67.8211 54.2147Z" fill="black"/>
<path opacity="0.1" d="M93.0147 95.3116L62.0977 90.25V95.9257L93.0147 100.987L93.0832 101.001V95.3186L93.0147 95.3116Z" fill="black"/>
<path opacity="0.1" d="M93.0146 34.7343L93.0831 34.7484V29.0727L93.0146 29.0586V34.7343Z" fill="black"/>
<path opacity="0.1" d="M93.0135 74.4751C93.0363 74.4821 93.0592 74.4821 93.082 74.4892V66.4768C93.0592 66.4839 93.0363 66.4909 93.0135 66.498C92.8994 66.5333 92.7928 66.5686 92.7167 66.6039C92.3743 66.7663 92.3743 67.2816 92.7167 67.7546C92.8689 67.9663 92.9679 68.2417 93.0135 68.517C93.0439 68.7217 93.0439 68.9264 93.0135 69.11C92.9907 69.23 92.9602 69.35 92.907 69.4488C92.6711 69.9077 92.1308 69.9006 91.7047 69.4347L91.4155 69.117C90.9894 68.644 90.647 68.6511 90.647 69.1311C90.647 69.6041 91.0579 70.3101 91.5601 70.6913C92.0623 71.0795 92.3439 71.609 92.1841 71.8772C92.0243 72.1455 91.5753 71.9619 91.1796 71.4748L90.5937 70.7548C90.198 70.2677 89.7871 69.4065 89.6806 68.8346L89.5969 68.3828C89.4903 67.8181 89.0718 66.9569 88.6761 66.4698L88.1968 65.8838C87.8011 65.3967 87.1467 65.2908 86.751 65.6438L83.9659 68.1287C83.5702 68.4817 83.0223 68.3334 82.7484 67.7899L81.2418 64.7967C80.9678 64.2531 80.2677 63.6178 79.6742 63.3778L76.6152 62.1494C76.0293 61.9165 75.2912 61.4082 74.9716 61.027C74.652 60.6458 74.2411 60.3069 74.0585 60.2787C73.8758 60.2505 73.9519 60.667 74.2411 61.2035L74.3552 61.4223C74.6368 61.9588 75.1999 62.4177 75.5956 62.4318C75.9913 62.4459 76.5544 62.7354 76.8435 63.0742C77.1327 63.4131 76.9424 63.8578 76.425 64.0555L73.6095 65.1285C73.0921 65.3261 72.4072 65.0579 72.0952 64.5284L70.3451 61.5564C70.0331 61.027 69.6298 60.5893 69.4396 60.5823C69.2569 60.5752 69.3559 61.0058 69.6602 61.5353L71.8137 65.2697C72.1181 65.7991 72.8638 66.385 73.4573 66.5686L73.7769 66.6674C74.3781 66.851 74.6368 67.3663 74.3628 67.8181L68.1764 77.8353C67.8948 78.2871 67.1872 78.4495 66.6012 78.2095L64.5924 77.3624C64.0064 77.1153 63.4433 76.4517 63.3292 75.8869L62.0889 69.5476V90.2457L93.0135 95.3072L93.082 95.3214V75.1034C93.0592 75.0963 93.0363 75.0892 93.0135 75.0822C92.8385 75.0186 92.6787 74.9551 92.5417 74.8916L92.4808 74.8633C91.8949 74.6092 91.1264 73.988 90.7611 73.4797L89.2545 71.376C88.8892 70.8677 88.8283 70.4936 89.1099 70.543C89.3914 70.5854 90.0002 70.9807 90.4644 71.4184L91.5982 72.4773C92.0623 72.915 92.3819 73.515 92.3134 73.8044C92.2526 74.0727 92.5569 74.348 93.0135 74.4751ZM73.8074 75.5905L73.4954 76.5505C73.328 77.0588 72.9932 77.3765 72.742 77.2494C72.4909 77.1223 72.2855 76.5646 72.2855 76.007V75.3787C72.2855 74.821 72.6355 74.1009 73.0616 73.7762L73.328 73.5715C73.7541 73.2467 74.1041 73.3597 74.1041 73.8256C74.1117 74.2845 73.9748 75.0822 73.8074 75.5905Z" fill="black"/>
<path opacity="0.1" d="M93.0135 34.7342L62.0889 29.6797V41.5818L63.5651 39.8875C63.9151 39.4851 64.6608 39.0686 65.2239 38.9557L66.061 38.7863C66.6241 38.6733 67.5372 38.8427 68.0851 39.1604L70.5049 40.5723C71.0604 40.897 71.5321 41.4406 71.555 41.7865C71.5854 42.1324 71.1212 42.4501 70.5353 42.4924L70.4592 42.4995C69.8733 42.5418 69.6526 42.9019 69.9722 43.2972C70.2918 43.6925 70.9462 43.8055 71.4332 43.5443L73.5182 42.4501C74.0052 42.1959 74.8803 41.9559 75.4662 41.9136L77.1783 41.8006C77.7642 41.7583 78.5176 41.3912 78.8524 40.9817L79.8568 39.7463C80.1917 39.3369 80.8765 39.1816 81.3787 39.4145C81.8809 39.6404 82.6647 39.591 83.1213 39.2945L85.0693 38.0309C85.5258 37.7344 86.3324 37.3532 86.8651 37.1767L90.8372 35.8637C91.3699 35.6872 92.0699 35.9696 92.3895 36.499L93.0211 37.5368L93.0896 37.6426V34.7554L93.0135 34.7342Z" fill="black"/>
<path opacity="0.1" d="M93.0146 75.0759C93.0375 75.0829 93.0603 75.09 93.0831 75.097V74.4829C93.0603 74.4758 93.0375 74.4758 93.0146 74.4688V75.0759Z" fill="black"/>
<path opacity="0.1" d="M93.0146 68.5195V69.1125C93.0527 68.9219 93.0527 68.7243 93.0146 68.5195Z" fill="black"/>
<path opacity="0.1" d="M93.0831 66.4778V37.6332L93.0146 37.5273V66.499C93.0375 66.4919 93.0603 66.4848 93.0831 66.4778Z" fill="black"/>
</g>
<path d="M5.69506 45.016L9.32475 44.776C9.91067 44.7336 10.6868 45.1219 11.0521 45.6231L15.0242 51.193C15.3894 51.7012 15.6786 52.5695 15.6786 53.1272V54.8144C15.6786 55.3721 16.0362 56.2051 16.47 56.664L17.5733 57.8288C18.0071 58.2876 18.6006 59.0994 18.8898 59.643L19.6659 61.0831C19.9551 61.6196 20.6399 62.3256 21.1878 62.6574L24.4827 64.6269C25.0306 64.9517 25.8752 65.5588 26.3622 65.9682L27.184 66.6671C27.4351 66.8789 27.7852 67.133 28.1504 67.366V65.4176C28.0515 65.354 27.945 65.3117 27.8308 65.3046C27.4351 65.2623 27.1764 64.8458 27.2525 64.3657C27.3362 63.8927 27.184 63.4904 26.9177 63.4692C26.6514 63.448 26.347 63.5821 26.2481 63.7586C26.1415 63.9351 25.685 63.8433 25.236 63.5468C24.7871 63.2503 24.4218 62.5585 24.4218 62.0008V61.549C24.4218 60.9914 24.9164 60.5537 25.51 60.5749L27.1688 60.6384C27.4884 60.6525 27.8384 60.7866 28.1504 60.9914V50.7059L25.8752 48.7363C25.3958 48.3198 25.2208 47.6139 25.5023 47.1621L28.1504 42.8559C28.1504 42.8559 28.1504 42.8488 28.158 42.8488V42.164C28.0439 41.9876 27.8384 41.8464 27.5569 41.7758L17.444 39.3191C16.8428 39.1709 15.8536 38.9944 15.2449 38.9238L12.0641 38.5567C11.4554 38.4861 10.4814 38.2461 9.88784 38.0202L5.97661 36.5236C5.39068 36.2977 4.50799 36.3259 4.0286 36.5871L3.34375 36.9613V41.451L4.25688 44.0701C4.46233 44.6278 5.10913 45.0584 5.69506 45.016Z" fill="white"/>
<path d="M54.0075 45.9465C54.2966 46.3912 54.3955 47.196 54.2205 47.7325C54.0455 48.269 54.289 48.6502 54.7456 48.5726C55.2098 48.4949 55.4989 48.0008 55.3924 47.4713C55.2858 46.9419 55.05 46.0948 54.8749 45.5935L54.8597 45.5441C54.6771 45.0429 54.251 44.6758 53.9085 44.7323C53.5661 44.7888 53.5205 45.1982 53.8096 45.643L54.0075 45.9465Z" fill="white"/>
<path d="M53.2401 48.2204C53.5293 47.8463 53.6586 47.2886 53.5293 46.978C53.3999 46.6744 53.0271 46.6603 52.7151 46.9568C52.3955 47.2533 52.2661 47.811 52.4259 48.1993C52.5781 48.5875 52.9433 48.6016 53.2401 48.2204Z" fill="white"/>
<path d="M50.3996 40.723C50.1866 40.4548 49.5626 40.3065 49.0071 40.3983C48.4516 40.4901 47.8428 40.8289 47.6602 41.1466C47.47 41.4713 47.7287 41.9231 48.2309 42.1561L48.2385 42.1632C48.7408 42.3961 49.5169 42.2761 49.9659 41.902C50.4148 41.5208 50.6051 40.9913 50.3996 40.723Z" fill="white"/>
<path d="M33.082 33.1265L39.725 44.8097C39.9837 45.2686 40.6153 45.5792 41.1175 45.4945C41.6198 45.4098 42.3427 44.9368 42.7231 44.4426L47.304 38.4634C47.6845 37.9692 48.0421 37.1009 48.0954 36.5361L48.8563 28.6367L33.3483 31.171L33.2342 31.3475C32.8842 31.8628 32.8233 32.6606 33.082 33.1265Z" fill="white"/>
<path d="M28.8042 61.4477L28.8194 61.4688C29.1086 61.9136 29.4739 62.196 29.6337 62.0971C29.7935 61.9983 29.7935 61.5041 29.6337 60.9888C29.4739 60.4805 29.763 59.7464 30.2652 59.3581L30.3413 59.3016C30.8512 58.9134 31.5588 58.1792 31.9089 57.6709L34.1689 54.4307C34.5265 53.9224 35.1505 53.1106 35.5614 52.6376L36.9539 51.028C37.3648 50.548 37.3572 49.8844 36.9387 49.5526L32.5024 46.0371C32.0839 45.7053 31.3306 45.6771 30.8283 45.9806C30.3261 46.2842 29.8848 46.9901 29.8543 47.5478L29.6869 50.4633C29.6565 51.028 29.2304 51.2751 28.751 51.0139L28.165 50.7033V60.9959C28.439 61.0876 28.6673 61.2429 28.8042 61.4477Z" fill="white"/>
<path d="M29.1328 67.6049L29.2622 67.626C29.8329 67.7178 30.1373 68.2473 29.9394 68.805L29.5209 69.9697C29.3154 70.5274 29.3687 71.3604 29.635 71.8193L30.4036 73.1465C30.6699 73.6053 31.3167 74.1418 31.8342 74.3395L32.2451 74.4948C32.7701 74.6925 33.1049 75.3207 32.9984 75.8855L31.37 84.4838C31.2635 85.0485 31.3319 85.9168 31.5298 86.411L32.2603 88.2676C32.4581 88.7618 33.1125 89.0865 33.7213 88.9877H33.7289C34.3377 88.8888 34.5583 88.4653 34.2311 88.0558L33.805 87.5264C33.4702 87.1169 33.4778 86.3545 33.8126 85.8321L37.2064 80.5941C37.5412 80.0717 38.0891 79.2246 38.4239 78.7022L43.8494 70.2168C44.1842 69.6944 44.0016 69.1579 43.4461 69.0238L40.2654 68.2473C39.7099 68.1131 39.0403 67.7531 38.7739 67.4566C38.5076 67.1601 37.838 66.8142 37.2825 66.6871L33.6376 65.8612C33.0821 65.7341 32.2527 65.8894 31.8037 66.2071C31.3548 66.5248 30.5101 66.8001 29.9318 66.8213C29.3535 66.8425 28.8132 66.4895 28.7295 66.0447C28.6763 65.72 28.448 65.48 28.1816 65.4023V67.3507C28.5088 67.4707 28.8513 67.5625 29.1328 67.6049Z" fill="white"/>
<path d="M34.1634 63.5959L30.7315 63.0665C30.1608 62.9818 29.3542 63.0382 28.9509 63.2006C28.5476 63.363 28.5476 63.4406 28.9509 63.3771C29.3542 63.3136 29.8793 63.4124 30.1075 63.603C30.3358 63.7936 30.7924 63.8359 31.1196 63.7018C31.4468 63.5677 31.7131 63.6524 31.7131 63.8924C31.7131 64.1324 32.0251 64.203 32.4056 64.0477C32.7861 63.8924 33.4252 63.7865 33.8285 63.8148C34.2318 63.843 34.7112 63.843 34.8863 63.8148C35.0613 63.7795 34.7417 63.6877 34.1634 63.5959Z" fill="white"/>
<path d="M58.817 45.2981C58.6344 44.9169 58.2843 44.7122 58.0485 44.8534C57.8126 44.9875 57.8506 45.4605 58.1398 45.9052C58.1398 45.9052 58.193 45.9829 58.193 46.0676C58.193 46.1594 57.318 47.1547 57.318 47.1547C56.8994 47.6277 56.1233 48.3054 55.5906 48.6584L55.0351 49.0255C54.5025 49.3784 54.2361 50.0561 54.4492 50.5291C54.6623 51.0021 54.3351 51.4751 53.7339 51.5739L53.2469 51.6515C52.6382 51.7504 52.1436 52.2869 52.1436 52.8446V53.1199C52.1436 53.6776 52.4479 54.1858 52.8132 54.2423C53.186 54.3059 53.8937 54.0305 54.4035 53.6352L56.9984 51.6021C57.5006 51.2068 58.3224 51.0727 58.8246 51.3056L59.167 51.4609V45.6158C58.9996 45.5381 58.8779 45.4322 58.817 45.2981Z" fill="white"/>
<path d="M58.4297 54.122C58.3536 53.7691 57.7981 53.6491 57.2046 53.8538L55.424 54.468C54.8305 54.6727 54.1 54.8774 53.8108 54.9268C53.5217 54.9762 53.0271 55.4492 52.7151 55.9787L50.5768 59.6283C50.2648 60.1578 50.1887 60.9908 50.4018 61.4779L51.1551 63.1721C51.3682 63.6592 52.0378 64.0404 52.639 64.0193L57.4253 63.8428C58.0264 63.8216 58.6047 64.2381 58.7189 64.7676L59.145 66.8289V54.8068C58.7798 54.6374 58.483 54.3762 58.4297 54.122Z" fill="white"/>
<path d="M57.1658 43.0692L57.1962 43.2033C57.318 43.7257 57.8126 43.9728 58.2844 43.7539C58.604 43.6057 58.9312 43.6268 59.1518 43.7892V38.8477L57.5691 41.1772C57.2267 41.6926 57.0364 42.5397 57.1658 43.0692Z" fill="white"/>
<path d="M103.041 74.3188C102.592 74.0152 102.029 73.3799 101.778 72.914L101.519 72.4198C101.276 71.9468 100.766 71.9751 100.385 72.4763L100.309 72.5751C99.9364 73.0763 99.4114 73.1399 99.1451 72.7163C98.8787 72.2998 98.2776 72.0174 97.7982 72.0951C97.3188 72.1727 96.5122 72.5539 96.01 72.9351L92.1901 75.8224C91.6802 76.2107 91.3911 76.9378 91.5509 77.4531L92.3118 79.8815C92.4716 80.3898 93.088 80.6228 93.6739 80.3969C93.6739 80.3969 97.6993 78.8297 97.8971 78.7944C98.0874 78.7662 100.522 80.2698 100.522 80.2698C100.987 80.5593 101.778 80.4745 102.288 80.0933L102.836 79.6839C103.345 79.3027 103.863 78.5191 103.977 77.9543L104.312 76.3519C104.434 75.7871 104.167 75.0741 103.718 74.7706L103.041 74.3188Z" fill="white"/>
<path d="M111.981 77.7153L111.799 77.6306C111.296 77.4047 110.969 77.6518 111.076 78.1812L111.167 78.6471C111.274 79.1766 111.532 79.586 111.745 79.5507C111.958 79.5154 112.301 79.1837 112.514 78.8025C112.727 78.4354 112.491 77.9412 111.981 77.7153Z" fill="white"/>
<path d="M109.553 80.6569L108.739 81.5958C108.328 82.0759 108.381 82.5418 108.853 82.6335C109.332 82.7253 109.949 82.3582 110.23 81.8217L110.367 81.5605C110.649 81.024 110.748 80.4028 110.588 80.1839C110.436 79.9651 109.964 80.1769 109.553 80.6569Z" fill="white"/>
<path d="M91.7565 72.3294L94.8764 71.9905C95.4775 71.927 95.9037 71.7787 95.82 71.6658C95.7287 71.5458 95.2873 71.5034 94.8231 71.5599C94.3666 71.6164 93.8187 71.6305 93.6056 71.5811C93.3926 71.5316 92.9436 71.5952 92.6088 71.7152C92.274 71.8352 91.8326 71.8564 91.6272 71.7575C91.4217 71.6587 90.8054 71.6587 90.2499 71.7434C90.2118 71.7505 90.1738 71.7505 90.1357 71.7575V72.3717C90.676 72.3929 91.3152 72.3788 91.7565 72.3294Z" fill="white"/>
<path d="M93.0282 67.753C92.7466 67.6683 92.1379 67.9577 91.6737 68.3954L91.24 68.8049C90.7758 69.2425 90.4942 69.8991 90.6084 70.2732C90.7225 70.6403 91.24 70.958 91.765 70.9721C92.2825 70.9862 92.8988 70.5768 93.1271 70.0685C93.3554 69.5602 93.5456 68.8684 93.5456 68.5295C93.538 68.1836 93.3097 67.8377 93.0282 67.753Z" fill="white"/>
<path d="M95.822 66.2113C95.7307 65.7524 95.3731 65.3218 95.0231 65.2512C94.673 65.1806 94.3991 64.8417 94.4143 64.4958C94.4295 64.1499 94.2469 64.0793 93.9958 64.3264C93.7523 64.5805 93.7903 65.1382 94.0871 65.5759L94.9241 66.7972C95.2209 67.2349 95.5861 67.4678 95.7231 67.3125C95.8601 67.1643 95.9057 66.6631 95.822 66.2113Z" fill="white"/>
<path d="M100.524 69.1484C99.9306 69.1343 99.2686 69.2331 99.0555 69.3672C98.8425 69.5013 98.5685 69.4378 98.4468 69.2331C98.325 69.0284 98.0207 68.9931 97.7695 69.1625C97.526 69.3319 97.526 69.6143 97.7695 69.7837C98.013 69.9531 98.6066 70.1367 99.086 70.1861C99.5654 70.2355 99.8926 70.5038 99.8241 70.772C99.7556 71.0403 100.03 71.2097 100.433 71.1391C100.836 71.0756 101.316 70.892 101.491 70.7297C101.666 70.5673 102.251 70.5814 102.784 70.7579L102.891 70.7932C103.423 70.9697 103.56 70.7932 103.195 70.412L102.67 69.8684C102.305 69.4872 101.513 69.1625 100.92 69.1484H100.524Z" fill="white"/>
<path d="M100.882 54.7929C101.323 54.7223 101.81 54.4541 101.97 54.1999C102.13 53.9458 101.879 53.6564 101.422 53.5505C100.966 53.4446 100.471 53.7128 100.334 54.1434C100.197 54.5741 100.441 54.8635 100.882 54.7929Z" fill="white"/>
<path d="M97.7369 59.8494C97.9651 59.8141 98.0945 59.4964 98.026 59.1505C97.9575 58.8046 98.3837 58.3669 98.9848 58.1693H98.9924C99.5936 57.9787 100.195 57.5833 100.332 57.301C100.476 57.0186 100.59 56.4538 100.59 56.0515C100.59 55.642 100.476 55.3314 100.332 55.3526C100.187 55.3738 99.8599 55.7903 99.5936 56.2703C99.3272 56.7503 98.8402 57.301 98.5054 57.4986C98.1706 57.6892 97.7673 58.0493 97.6075 58.2963C97.4477 58.5434 97.3184 59.0093 97.3184 59.3341C97.3184 59.6517 97.5086 59.8847 97.7369 59.8494Z" fill="white"/>
<path d="M107.097 38.0477C106.534 37.9347 105.629 37.7159 105.073 37.5747L102.075 36.7982C101.527 36.6499 100.614 36.777 100.051 37.0735L97.6769 38.3159C97.1138 38.6124 96.2311 38.683 95.7136 38.4712L92.4873 37.1511C91.9698 36.9393 91.2926 36.424 90.973 36.0005L90.1436 34.9062V63.7508C90.524 63.5178 91.0491 63.2566 91.4828 63.1013L92.3122 62.7907C92.9058 62.5719 93.545 61.9365 93.7352 61.3718L94.0928 60.3199C94.2831 59.7623 94.2602 58.9081 94.0396 58.421L93.7885 57.8703C93.5678 57.3903 93.8189 56.882 94.344 56.7479C94.869 56.6138 95.4321 56.9244 95.5919 57.4327L95.6908 57.7574C95.8506 58.2727 96.2159 58.5339 96.505 58.3363C96.7942 58.1457 96.9083 57.5668 96.7485 57.0585C96.5887 56.5503 96.8246 55.7596 97.266 55.3078L100.081 52.4276C100.523 51.9758 100.645 51.2487 100.34 50.811L99.7923 50.0133C99.4955 49.5756 99.6629 48.8979 100.165 48.5096L102.372 46.8013C102.874 46.4059 103.757 45.8624 104.327 45.58L106.291 44.6129C106.861 44.3305 107.044 44.5211 106.702 45.0364L105.75 46.4483C105.4 46.9636 105.165 47.8319 105.218 48.3755L105.309 49.2579C105.362 49.8015 105.652 49.8156 105.948 49.2791L107.463 46.5542C107.759 46.0177 108.437 45.2835 108.962 44.9235L111.952 42.8692C112.477 42.5092 113.322 41.888 113.824 41.4926L114.897 40.6455V39.6643C114.889 39.6643 114.882 39.6572 114.867 39.6572L107.097 38.0477Z" fill="white"/>
<path d="M70.3901 70.8493L70.1238 71.0541C69.6977 71.3788 69.3477 72.0988 69.3477 72.6565V73.2848C69.3477 73.8425 69.5531 74.4002 69.8042 74.5273C70.0553 74.6543 70.3978 74.3437 70.5576 73.8284L70.8695 72.8683C71.0369 72.36 71.1663 71.5623 71.1663 71.1035C71.1663 70.6376 70.8163 70.5246 70.3901 70.8493Z" fill="white"/>
<path d="M89.3786 71.0782C89.4471 70.7817 89.1275 70.1817 88.6633 69.7511L87.5295 68.6922C87.0653 68.2545 86.4566 67.8662 86.175 67.8168C85.8935 67.7674 85.9619 68.1486 86.3196 68.6498L87.8263 70.7535C88.1915 71.2618 88.9601 71.883 89.546 72.1371L89.6069 72.1654C89.7438 72.2219 89.9112 72.2924 90.0786 72.356V71.7418C89.6221 71.6218 89.3177 71.3394 89.3786 71.0782Z" fill="white"/>
<path d="M59.3902 44.1786C59.5195 44.6374 59.9761 45.0116 60.4022 45.0045C60.8284 45.0045 61.148 44.5386 61.1175 43.9738L61.0414 42.7102C61.011 42.1455 61.2545 41.3548 61.5969 40.9454L62.0991 40.3312C62.4339 39.9218 62.9057 39.7382 63.1416 39.9218C63.3775 40.1053 63.2862 40.5783 62.9286 40.9736L62.6851 41.2419C62.3274 41.6372 62.1676 42.2937 62.3274 42.7102C62.4872 43.1267 63.0047 43.4303 63.484 43.3879C63.9634 43.3455 64.3744 43.4514 64.3972 43.6279C64.42 43.8044 64.0319 43.995 63.5297 44.0585C63.0275 44.1221 62.472 44.588 62.297 45.0892L62.2665 45.181C62.0915 45.6822 61.4523 46.0775 60.8512 46.0563L60.2424 46.0352C59.8544 46.021 59.4435 45.8516 59.1543 45.6116V51.4568L59.2 51.4921C59.7022 51.8874 60.1131 52.3604 60.1131 52.5439C60.1131 52.7274 59.9 52.8827 59.6337 52.8827C59.3674 52.8898 59.3674 53.1863 59.6337 53.5463C59.9 53.9064 60.2881 53.8499 60.5012 53.4193C60.7142 52.9886 60.5468 52.2545 60.1283 51.7815L59.9152 51.5344C59.4967 51.0614 59.375 50.5885 59.6413 50.4896C59.9076 50.3837 60.4251 50.7155 60.7979 51.2167L61.0871 51.605C61.4599 52.1062 61.9317 52.8263 62.1448 53.2004C62.3579 53.5746 62.7003 53.8499 62.9133 53.8146C63.1264 53.7793 63.2101 53.511 63.1036 53.2287C62.997 52.9392 63.1264 52.7486 63.3927 52.791C63.6591 52.8333 63.8721 53.151 63.8721 53.4898C63.8721 53.8287 64.3667 54.217 64.9755 54.3511L65.9495 54.5629C66.5583 54.697 66.9235 55.2265 66.7789 55.7418L66.7485 55.8477C66.5963 56.363 65.9875 56.6101 65.4016 56.3912L63.4232 55.6641C62.8296 55.4453 62.1067 55.4171 61.8176 55.6006C61.5284 55.7841 60.8208 55.6994 60.2577 55.41L59.6261 55.0923C59.4663 55.0147 59.3141 54.9158 59.1771 54.8029V66.8109L60.4175 73.1502C60.5316 73.7149 61.0947 74.3785 61.6806 74.6256L63.6895 75.4727C64.2754 75.7198 64.9831 75.5504 65.257 75.0986L71.4587 65.0884C71.7403 64.6366 71.4739 64.1212 70.8728 63.9377L70.5532 63.8389C69.952 63.6553 69.2139 63.0694 68.9096 62.5399L66.7561 58.8055C66.4517 58.2761 66.3528 57.8455 66.5354 57.8525C66.718 57.8596 67.129 58.2973 67.4409 58.8267L69.1911 61.7987C69.5031 62.3282 70.1879 62.5964 70.7054 62.3988L73.5209 61.3257C74.0459 61.1281 74.2285 60.6904 73.9394 60.3445C73.6502 60.0056 73.0871 59.7162 72.6914 59.695C72.2957 59.6809 71.7326 59.2221 71.4511 58.6855L71.337 58.4667C71.0554 57.9302 70.9717 57.5137 71.1543 57.5419C71.337 57.5702 71.7479 57.909 72.0675 58.2902C72.3871 58.6714 73.1252 59.1726 73.7111 59.4127L76.7701 60.641C77.356 60.881 78.0637 61.5163 78.3376 62.0599L79.8443 65.0531C80.1182 65.5967 80.6661 65.752 81.0618 65.3919L83.8468 62.907C84.2425 62.5541 84.8969 62.66 85.2926 63.1471L85.772 63.733C86.1677 64.2201 86.5862 65.0813 86.6927 65.6461L86.7765 66.0979C86.883 66.6626 87.2939 67.5239 87.6896 68.018L88.2755 68.7381C88.6712 69.2252 89.1201 69.4087 89.2799 69.1405C89.4397 68.8722 89.1582 68.3427 88.656 67.9545C88.1538 67.5662 87.7428 66.8673 87.7428 66.3944C87.7428 65.9214 88.0853 65.9143 88.5114 66.3802L88.8006 66.6979C89.2267 67.1638 89.767 67.1709 90.0028 66.712C90.0561 66.6132 90.0865 66.5003 90.1094 66.3732V65.7802C90.0637 65.5049 89.9648 65.2296 89.8126 65.0178C89.4702 64.5448 89.4702 64.0295 89.8126 63.8671C89.8887 63.8318 89.9952 63.7895 90.1094 63.7612V34.8037L89.4778 33.766C89.1582 33.2365 88.4581 32.9542 87.9255 33.1307L83.9534 34.4437C83.4207 34.6202 82.6065 35.0014 82.1575 35.2979L80.2095 36.5615C79.753 36.858 78.9692 36.9074 78.467 36.6815C77.9648 36.4556 77.2799 36.6039 76.9451 37.0133L75.9407 38.2487C75.6058 38.6581 74.8525 39.0323 74.2666 39.0676L72.5545 39.1805C71.9685 39.2158 71.0858 39.4629 70.6065 39.717L68.5215 40.8112C68.0345 41.0654 67.3801 40.9524 67.0605 40.5642C66.7409 40.1688 66.9616 39.8159 67.5475 39.7665L67.6236 39.7594C68.2095 39.717 68.6661 39.3923 68.6432 39.0535C68.6204 38.7075 68.1486 38.164 67.5931 37.8392L65.1733 36.4274C64.6255 36.1026 63.7123 35.9332 63.1492 36.0532L62.3122 36.2227C61.7491 36.3356 61.0034 36.7592 60.6534 37.1545L59.1771 38.8487V43.7832C59.2608 43.8962 59.3521 44.0303 59.3902 44.1786ZM71.4587 51.4638C71.9001 51.4568 72.349 51.6191 72.4555 51.8309C72.5621 52.0427 72.4251 52.2827 72.1512 52.3674C71.8772 52.4521 71.8772 52.7839 72.1512 53.1016C72.4251 53.4193 72.6458 54.1393 72.6458 54.697V54.7888C72.6458 55.3465 72.311 55.6288 71.9077 55.4171C71.5044 55.2053 71.1696 54.7817 71.1696 54.4711C71.1696 54.1605 71.0554 53.6169 70.9108 53.264C70.7663 52.911 70.6521 52.3604 70.6521 52.0427C70.6597 51.7391 71.0174 51.4709 71.4587 51.4638ZM64.8842 51.4921L64.8994 51.4638C65.1429 50.9908 65.5538 50.7367 65.8201 50.892C66.0865 51.0473 66.6191 51.1391 67.0072 51.0826C67.3953 51.0332 67.7834 51.2591 67.8747 51.5909C67.966 51.9227 68.1791 52.3815 68.3541 52.6145C68.5291 52.8474 68.4606 53.1086 68.1943 53.1934C67.9279 53.2781 67.4562 53.2004 67.1366 53.0239C66.817 52.8404 66.2006 52.7416 65.7593 52.798C65.3179 52.8545 64.8461 52.7769 64.7016 52.6286C64.557 52.4733 64.6407 51.958 64.8842 51.4921Z" fill="white"/>
</g>
<g opacity="0.03">
<path opacity="0.03" d="M52.8581 87.4444C51.3914 88.0618 51.4698 88.8167 53.03 89.1296L67.9692 92.1255C69.5294 92.4384 71.8398 91.9113 73.1133 90.9682L92.5652 76.4391C93.8401 75.489 93.603 74.4511 92.0428 74.1382L89.7439 73.6772C88.1837 73.3643 85.7133 73.6153 84.2467 74.2326L52.8581 87.4444Z" fill="black"/>
<path opacity="0.03" d="M45.9183 86.71C44.2781 86.0437 39.3754 84.6012 37.5368 83.1703C35.9869 84.5245 34.1309 85.1499 32.4157 85.6097C35.3674 86.8978 41.0808 87.9862 44.0603 88.6339C47.4996 89.3883 47.8787 87.4978 45.9183 86.71Z" fill="black"/>
<path opacity="0.03" d="M97.7074 91.0517C95.3949 93.4156 92.7263 95.6938 92.7263 95.6938C83.9016 91.9648 42.329 78.9699 37.5469 83.1567C37.5456 83.1636 37.5387 83.1622 37.5373 83.1691C39.3759 84.6 44.2786 86.0425 45.9188 86.7088C47.8778 87.5035 47.5001 89.3871 44.0594 88.6396C41.0799 87.9919 35.3665 86.9035 32.4148 85.6154C29.8407 86.3121 27.5981 86.6446 27.2232 88.5144C26.642 91.4121 37.187 95.8018 45.3812 97.9834C60.2966 101.958 95.7871 107.109 98.5208 104.47C101.254 101.832 103.821 89.3926 103.821 89.3926C103.821 89.3926 101.665 87.001 97.7074 91.0517Z" fill="black"/>
<path opacity="0.03" d="M60.017 92.7505C59.9313 93.1424 59.5446 93.3878 59.1593 93.3034L57.8104 93.0113C57.4183 92.9255 57.1726 92.5389 57.257 92.1539L57.6458 90.3588C57.7315 89.9669 58.1183 89.7215 58.5035 89.8059L59.8524 90.098C60.2445 90.1838 60.4902 90.5703 60.4058 90.9553L60.017 92.7505Z" fill="black"/>
<path opacity="0.03" d="M64.978 93.8325C64.8922 94.2244 64.5055 94.4698 64.1203 94.3854L62.7713 94.0933C62.3792 94.0075 62.1336 93.621 62.218 93.236L62.6067 91.4408C62.6925 91.0489 63.0792 90.8035 63.4644 90.8879L64.8134 91.18C65.2055 91.2658 65.4511 91.6524 65.3667 92.0373L64.978 93.8325Z" fill="black"/>
<path opacity="0.03" d="M69.9389 94.9107C69.8532 95.3025 69.4664 95.5479 69.0812 95.4635L67.7323 95.1715C67.3402 95.0857 67.0945 94.6991 67.1789 94.3141L67.5676 92.5189C67.6534 92.127 68.0401 91.8816 68.4254 91.9661L69.7743 92.2581C70.1664 92.3439 70.412 92.7305 70.3277 93.1155L69.9389 94.9107Z" fill="black"/>
<path opacity="0.03" d="M74.8999 95.9927C74.8141 96.3846 74.4274 96.63 74.0422 96.5456L72.6932 96.2535C72.3011 96.1677 72.0555 95.7811 72.1398 95.3961L72.5286 93.6009C72.6144 93.2091 73.0011 92.9637 73.3863 93.0481L74.7352 93.3401C75.1274 93.426 75.373 93.8125 75.2886 94.1975L74.8999 95.9927Z" fill="black"/>
<path opacity="0.03" d="M79.8608 97.0747C79.775 97.4666 79.3883 97.712 79.0031 97.6276L77.6541 97.3355C77.262 97.2497 77.0164 96.8631 77.1008 96.4782L77.4895 94.683C77.5753 94.2911 77.962 94.0457 78.3472 94.1301L79.6962 94.4222C80.0883 94.508 80.3339 94.8946 80.2495 95.2795L79.8608 97.0747Z" fill="black"/>
<path opacity="0.03" d="M84.8286 98.1568C84.7428 98.5486 84.3561 98.794 83.9709 98.7096L82.6219 98.4176C82.2298 98.3317 81.9842 97.9452 82.0686 97.5602L82.4573 95.765C82.5431 95.3731 82.9298 95.1277 83.315 95.2122L84.6639 95.5042C85.0561 95.59 85.3017 95.9766 85.2173 96.3616L84.8286 98.1568Z" fill="black"/>
<path opacity="0.03" d="M54.7146 96.4872C54.6288 96.8791 54.2421 97.1245 53.8569 97.0401L49.1846 96.0241C48.7925 95.9383 48.5469 95.5518 48.6313 95.1668L50.3411 87.3209C50.4269 86.9291 50.8136 86.6837 51.1988 86.7681L55.8711 87.784C56.2632 87.8698 56.5089 88.2564 56.4245 88.6414L54.7146 96.4872Z" fill="black"/>
<path opacity="0.03" d="M57.1475 96.9619C56.0392 95.8282 56.3957 95.1605 57.9559 95.4733L72.8951 98.4693C74.4553 98.7822 76.3921 100.154 77.1952 101.521L89.534 122.425C90.344 123.793 89.7264 124.653 88.1731 124.341L85.8742 123.88C84.314 123.567 82.1314 122.383 81.0148 121.255L57.1475 96.9619Z" fill="black"/>
<path opacity="0.03" d="M54.0717 91.4575C53.986 91.8494 53.5992 92.0948 53.214 92.0104L51.8651 91.7183C51.473 91.6325 51.2273 91.246 51.3117 90.861L51.7005 89.0658C51.7862 88.6739 52.173 88.4285 52.5582 88.5129L53.9071 88.805C54.2992 88.8908 54.5449 89.2774 54.4605 89.6624L54.0717 91.4575Z" fill="black"/>
</g>
<path d="M50.7204 84.2452C49.2537 84.8626 49.3321 85.6175 50.8923 85.9304L65.8315 88.9263C67.3917 89.2392 69.7021 88.7121 70.9756 87.769L90.4275 73.2399C91.7024 72.2898 91.4653 71.2519 89.912 70.9404L87.6131 70.4794C86.0529 70.1665 83.5825 70.4174 82.1159 71.0348L50.7204 84.2452Z" fill="#E6E6E6"/>
<path d="M43.7894 83.5068C42.1492 82.8406 37.2465 81.3981 35.4079 79.9672C33.858 81.3214 32.002 81.9468 30.2868 82.4066C33.2385 83.6947 38.9518 84.7831 41.9314 85.4308C45.3638 86.1837 45.7415 84.3002 43.7894 83.5068Z" fill="#63C3E5"/>
<path d="M95.5711 87.8463C93.2587 90.2102 90.59 92.4883 90.59 92.4883C81.7653 88.7593 40.1928 75.7645 35.4107 79.9513C35.4093 79.9582 35.4024 79.9568 35.401 79.9637C37.2397 81.3946 42.1424 82.8371 43.7825 83.5034C45.7416 84.2981 45.3639 86.1817 41.9232 85.4342C38.9436 84.7865 33.2302 83.6981 30.2786 82.41C27.7058 83.0998 25.4632 83.4323 25.0869 85.3089C24.5058 88.2067 35.0507 92.5964 43.245 94.778C58.1603 98.7524 93.6508 103.903 96.3845 101.265C99.1182 98.6267 101.685 86.1872 101.685 86.1872C101.685 86.1872 99.5343 83.8039 95.5711 87.8463Z" fill="#F2F2F2"/>
<path d="M57.8794 89.5513C57.7936 89.9432 57.4069 90.1886 57.0216 90.1041L55.6727 89.8121C55.2806 89.7263 55.035 89.3397 55.1193 88.9547L55.5081 87.1595C55.5938 86.7677 55.9806 86.5223 56.3658 86.6067L57.7147 86.8987C58.1068 86.9845 58.3525 87.3711 58.2681 87.7561L57.8794 89.5513Z" fill="#63C3E5"/>
<path d="M62.8413 90.6255C62.7555 91.0174 62.3688 91.2628 61.9836 91.1784L60.6346 90.8863C60.2425 90.8005 59.9969 90.4139 60.0813 90.0289L60.47 88.2338C60.5558 87.8419 60.9425 87.5965 61.3277 87.6809L62.6766 87.973C63.0688 88.0588 63.3144 88.4453 63.23 88.8303L62.8413 90.6255Z" fill="#63C3E5"/>
<path d="M67.8022 91.7075C67.7164 92.0994 67.3297 92.3448 66.9445 92.2604L65.5956 91.9683C65.2034 91.8825 64.9578 91.496 65.0422 91.111L65.4309 89.3158C65.5167 88.9239 65.9034 88.6785 66.2886 88.7629L67.6376 89.055C68.0297 89.1408 68.2753 89.5274 68.1909 89.9123L67.8022 91.7075Z" fill="#63C3E5"/>
<path d="M72.769 92.7935C72.6832 93.1854 72.2965 93.4308 71.9113 93.3463L70.5623 93.0543C70.1702 92.9685 69.9246 92.5819 70.009 92.1969L70.3977 90.4017C70.4835 90.0098 70.8702 89.7644 71.2554 89.8489L72.6044 90.1409C72.9965 90.2267 73.2421 90.6133 73.1577 90.9983L72.769 92.7935Z" fill="#63C3E5"/>
<path d="M77.7309 93.8716C77.6451 94.2635 77.2584 94.5089 76.8732 94.4245L75.5243 94.1324C75.1321 94.0466 74.8865 93.66 74.9709 93.275L75.3596 91.4799C75.4454 91.088 75.8321 90.8426 76.2173 90.927L77.5663 91.2191C77.9584 91.3049 78.204 91.6914 78.1196 92.0764L77.7309 93.8716Z" fill="#63C3E5"/>
<path d="M82.6909 94.9575C82.6051 95.3494 82.2184 95.5948 81.8332 95.5104L80.4842 95.2183C80.0921 95.1325 79.8465 94.746 79.9309 94.361L80.3196 92.5658C80.4054 92.1739 80.7921 91.9285 81.1773 92.0129L82.5263 92.305C82.9184 92.3908 83.164 92.7774 83.0796 93.1623L82.6909 94.9575Z" fill="#63C3E5"/>
<path d="M52.5779 93.2841C52.4921 93.676 52.1054 93.9214 51.7202 93.837L47.0479 92.821C46.6558 92.7352 46.4101 92.3486 46.4945 91.9637L48.2044 84.1178C48.2902 83.7259 48.6769 83.4805 49.0621 83.565L53.7344 84.5809C54.1265 84.6667 54.3721 85.0533 54.2878 85.4383L52.5779 93.2841Z" fill="#E6E6E6"/>
<path d="M55.0108 93.7549C53.9025 92.6211 54.259 91.9534 55.8192 92.2663L70.7584 95.2623C72.3186 95.5752 74.2554 96.9468 75.0584 98.3135L87.3972 119.218C88.2072 120.586 87.5897 121.446 86.0364 121.134L83.7375 120.673C82.1773 120.36 79.9947 119.176 78.8781 118.048L55.0108 93.7549Z" fill="#E6E6E6"/>
<path d="M51.935 88.2505C51.8492 88.6424 51.4625 88.8878 51.0773 88.8034L49.7284 88.5113C49.3362 88.4255 49.0906 88.0389 49.175 87.6539L49.5637 85.8588C49.6495 85.4669 50.0362 85.2215 50.4215 85.3059L51.7704 85.598C52.1625 85.6838 52.4081 86.0703 52.3238 86.4553L51.935 88.2505Z" fill="#63C3E5"/>
</svg>
