<svg width="13" height="13" viewBox="0 0 13 13" fill="none" xmlns="http://www.w3.org/2000/svg">
<path fill-rule="evenodd" clip-rule="evenodd" d="M1.3 0H11.7C12.418 0 13 0.58203 13 1.3V11.7C13 12.418 12.418 13 11.7 13H1.3C0.58203 13 0 12.418 0 11.7V1.3C0 0.58203 0.58203 0 1.3 0ZM1.30015 1.2994V8.83106L3.90005 6.23116L6.17468 8.50578L10.3999 4.28056L11.7001 5.58081V1.2994H1.30015ZM1.30015 11.6994V10.6695L3.90005 8.06964L7.52982 11.6994H1.30015ZM11.7001 11.6994H9.36829L7.09391 9.42502L10.3999 6.11904L11.7001 7.41929V11.6994ZM7.7997 3.9006C7.7997 2.82364 6.92666 1.9506 5.8497 1.9506C4.77275 1.9506 3.8997 2.82364 3.8997 3.9006C3.8997 4.97755 4.77275 5.8506 5.8497 5.8506C6.92666 5.8506 7.7997 4.97755 7.7997 3.9006ZM5.19985 3.9C5.19985 3.54101 5.49087 3.25 5.84985 3.25C6.20884 3.25 6.49985 3.54101 6.49985 3.9C6.49985 4.25899 6.20884 4.55 5.84985 4.55C5.49087 4.55 5.19985 4.25899 5.19985 3.9Z" fill="#209FAE"/>
</svg>
