<svg width="325" height="325" viewBox="0 0 325 325" fill="none" xmlns="http://www.w3.org/2000/svg">
<g id="travel album">
<g id="Group">
<path id="Vector" d="M291.75 76.1799H265.645V50.0735C265.645 41.7621 258.882 35 250.57 35H34.0736C25.7621 35 19 41.7621 19 50.0735V232.746C19 241.057 25.7621 247.819 34.0736 247.819H60.1805V273.926C60.1805 282.238 66.9427 289 75.2535 289H291.75C300.063 289 306.824 282.238 306.824 273.926V91.2547C306.824 82.942 300.063 76.1799 291.75 76.1799ZM294.476 91.2547V174.124L262.566 141.038C261.425 139.857 259.862 139.177 258.219 139.151C256.562 139.081 254.993 139.754 253.814 140.899L165.881 226.476L125.894 185.013C123.564 182.599 119.333 182.599 117.004 185.013L72.5301 231.127V91.2547C72.5301 89.7513 73.7513 88.5295 75.2541 88.5295H291.751C293.252 88.5289 294.476 89.7513 294.476 91.2547ZM34.0736 235.471C32.5714 235.471 31.349 234.248 31.349 232.746V50.0735C31.349 48.5714 32.5714 47.3489 34.0736 47.3489H250.57C252.073 47.3489 253.296 48.5714 253.296 50.0735V76.1799H75.2535C66.9427 76.1799 60.1805 82.942 60.1805 91.2541V235.47H34.0736V235.471ZM291.75 276.652H75.2535C73.7513 276.652 72.5295 275.429 72.5295 273.927V248.917L121.448 198.194L161.298 239.514C162.439 240.695 164.003 241.375 165.645 241.401C167.263 241.416 168.872 240.797 170.05 239.653L257.984 154.075L294.476 191.914V273.927C294.476 275.429 293.252 276.652 291.75 276.652Z" fill="#D1D1D1"/>
<path id="Vector_2" d="M138.858 110.227C123.12 110.227 110.316 123.029 110.316 138.767C110.316 154.505 123.12 167.309 138.858 167.309C154.596 167.309 167.398 154.505 167.398 138.767C167.398 123.029 154.596 110.227 138.858 110.227ZM138.858 154.959C129.929 154.959 122.666 147.695 122.666 138.767C122.666 129.839 129.929 122.575 138.858 122.575C147.786 122.575 155.049 129.839 155.049 138.767C155.049 147.696 147.786 154.959 138.858 154.959Z" fill="#D1D1D1"/>
</g>
</g>
</svg>
