<svg width="115" height="175" viewBox="0 0 115 175" fill="none" xmlns="http://www.w3.org/2000/svg">
<rect width="115" height="175" rx="5" fill="#D75995"/>
<g opacity="0.16">
<path d="M57.6427 31.0729H41.5378V76.4001H30.1049V31.0729H14V22H57.6427V31.0729Z" fill="white"/>
<path d="M71.4407 77C69.6681 77 68.0982 76.7501 66.7308 76.2502C65.3634 75.7253 64.2112 74.988 63.2743 74.0382C62.3374 73.0884 61.6283 71.9386 61.1472 70.589C60.6661 69.2393 60.4255 67.7146 60.4255 66.015V45.1697H56.7412C56.1841 45.1697 55.703 44.9948 55.2978 44.6449C54.918 44.2949 54.7281 43.7701 54.7281 43.0702V39.0211L60.9953 37.8964L63.1224 27.8862C63.4009 26.7614 64.1732 26.199 65.4393 26.199H70.9089V37.9714H81.0124V45.1697H70.9089V65.3401C70.9089 66.4149 71.1621 67.2647 71.6686 67.8896C72.2003 68.5144 72.9473 68.8269 73.9096 68.8269C74.416 68.8269 74.8465 68.7769 75.201 68.6769C75.5555 68.5519 75.8594 68.4269 76.1126 68.302C76.3658 68.152 76.5937 68.027 76.7963 67.9271C77.0242 67.8021 77.2521 67.7396 77.48 67.7396C77.7839 67.7396 78.0371 67.8146 78.2397 67.9646C78.4422 68.0895 78.6448 68.3145 78.8474 68.6394L82 73.5883C80.5566 74.713 78.9234 75.5628 77.1002 76.1377C75.277 76.7126 73.3905 77 71.4407 77Z" fill="white"/>
</g>
<g opacity="0.1">
<g opacity="0.1">
<path opacity="0.1" d="M79.3568 106.797C79.3568 108.728 77.7946 110.291 75.8635 110.291H45.0168C43.0857 110.291 41.5234 108.728 41.5234 106.797V65.673C41.5234 63.7419 43.0857 62.1797 45.0168 62.1797H75.8707C77.8018 62.1797 79.3641 63.7419 79.3641 65.673V106.797H79.3568Z" fill="black"/>
<path opacity="0.1" d="M89.244 105.667C89.244 106.939 88.2098 107.974 86.9368 107.974H46.8975C45.6246 107.974 44.5903 106.939 44.5903 105.667C44.5903 104.394 45.6246 103.359 46.8975 103.359H86.9296C88.2098 103.367 89.244 104.394 89.244 105.667Z" fill="black"/>
</g>
<path opacity="0.1" d="M66.6572 116.15V104.91H72.1033V116.15L69.3839 113.278L66.6572 116.15Z" fill="black"/>
<path opacity="0.1" d="M53.3635 60.1758H49.3784V111.259H53.3635V60.1758Z" fill="black"/>
</g>
<path d="M76.3343 103.816C76.3343 105.732 74.7816 107.282 72.8623 107.282H42.197C40.2778 107.282 38.7251 105.732 38.7251 103.816V63.0129C38.7251 61.0969 40.2778 59.5469 42.197 59.5469H72.8623C74.7816 59.5469 76.3343 61.0969 76.3343 63.0129V103.816V103.816Z" fill="#63C3E5"/>
<path d="M72.7181 100.41C72.7181 101.807 71.9976 102.942 71.1109 102.942H43.2253C42.3386 102.942 41.6182 101.807 41.6182 100.41C41.6182 99.0137 42.3386 97.8789 43.2253 97.8789H71.1109C71.9976 97.8789 72.7181 99.0137 72.7181 100.41Z" fill="white"/>
<path d="M63.8652 113.349V102.109H69.3113V113.349L66.5847 110.477L63.8652 113.349Z" fill="#EFCA4F"/>
<path d="M50.2974 59.5469H46.6812V107.282H50.2974V59.5469Z" fill="#EFCA4F"/>
<rect x="70.5483" y="97.8789" width="5.78603" height="5.06277" fill="white"/>
<g opacity="0.1">
<path opacity="0.1" d="M84.2025 115.231C84.2025 115.231 83.7051 117.223 83.0048 117.086C82.3417 116.961 82.6652 115.042 82.6652 115.042L84.2025 115.231Z" fill="black"/>
<path opacity="0.1" d="M82.5212 115.3L81.8768 107.459L86.7748 108.054L84.2817 115.508L82.5212 115.3Z" fill="black"/>
<path opacity="0.1" d="M83.9028 90.6981L88.8047 91.2891L92.2961 62.327L87.3941 61.7361L83.9028 90.6981Z" fill="black"/>
<path opacity="0.1" d="M81.8801 107.459L86.7817 108.051L88.8072 91.2799L83.9056 90.6879L81.8801 107.459Z" fill="black"/>
<path opacity="0.1" d="M91.8539 73.4206L92.7349 73.5287L94.2602 60.9381L94.7153 57.1111L92.9548 56.9036L93.2281 54.6655L88.3228 54.0806L87.4028 61.7273L92.3008 62.3222L92.4898 60.7233L93.3707 60.8314L91.8539 73.4206Z" fill="black"/>
<path opacity="0.1" d="M89.5976 54.228L91.9492 54.5117L92.5062 49.895L90.1546 49.6113L89.5976 54.228Z" fill="black"/>
</g>
<path d="M81.4056 119.075C81.4056 119.075 80.9083 121.066 80.208 120.93C79.5448 120.805 79.8697 118.894 79.8697 118.894L81.4056 119.075Z" fill="#EFCA4F"/>
<path d="M79.7239 119.143L79.0795 111.302L83.9776 111.897L81.4858 119.359L79.7239 119.143Z" fill="#EFCA4F"/>
<path d="M81.1069 94.5419L86.0088 95.1328L89.5002 66.1708L84.5982 65.5798L81.1069 94.5419Z" fill="#EFCA4F"/>
<path d="M79.0745 111.31L83.9761 111.902L86.0016 95.1314L81.1 94.5395L79.0745 111.31Z" fill="#63C3E5"/>
<path d="M89.0569 77.263L89.9378 77.3711L91.4546 64.7819L91.9196 60.9621L90.1577 60.746L90.4238 58.5179L85.5258 57.923L84.5985 65.5797L89.5038 66.1646L89.6941 64.5743L90.575 64.6824L89.0569 77.263Z" fill="#63C3E5"/>
<path d="M86.8003 58.0835L89.1519 58.3672L89.7089 53.7505L87.3573 53.4668L86.8003 58.0835Z" fill="#EFCA4F"/>
</svg>
