<svg width="325" height="325" viewBox="0 0 325 325" fill="none" xmlns="http://www.w3.org/2000/svg">
<g id="travel stories">
<g id="Group">
<path id="Vector" d="M208.665 142.538V102.547C208.665 96.3784 203.646 91.3594 197.477 91.3594H111.577C105.407 91.3594 100.389 96.3784 100.389 102.547V142.538C100.389 148.707 105.407 153.726 111.577 153.726H197.476C203.646 153.726 208.665 148.707 208.665 142.538ZM196.083 141.144H112.971V103.941H196.083V141.144Z" fill="#D1D1D1"/>
<path id="Vector_2" d="M307.418 151.85L290.266 134.698C286.99 131.422 281.678 131.422 278.401 134.698L269.253 143.847V46.4299C269.253 38.4732 262.779 32 254.823 32H54.2283C46.2715 32 39.7984 38.4732 39.7984 46.4299V91.3581H22.2907C18.8161 91.3581 16 94.1741 16 97.6488C16 101.123 18.8161 103.939 22.2907 103.939H39.7978V156.324H22.2907C18.8161 156.324 16 159.14 16 162.614C16 166.089 18.8161 168.905 22.2907 168.905H39.7978V221.289H22.2907C18.8161 221.289 16 224.105 16 227.58C16 231.055 18.8161 233.871 22.2907 233.871H39.7978V278.799C39.7978 286.756 46.2709 293.23 54.2277 293.23H254.822C262.779 293.23 269.252 286.756 269.252 278.799V201.88L307.417 163.715C310.694 160.438 310.694 155.126 307.418 151.85ZM256.671 278.801C256.671 279.821 255.842 280.65 254.822 280.65H54.2283C53.2085 280.65 52.3798 279.821 52.3798 278.801V233.873H69.8869C73.3603 233.873 76.1776 231.057 76.1776 227.582C76.1776 224.107 73.3603 221.291 69.8869 221.291H52.3798V168.907H69.8869C73.3603 168.907 76.1776 166.091 76.1776 162.616C76.1776 159.142 73.3603 156.326 69.8869 156.326H52.3798V103.941H69.8869C73.3603 103.941 76.1776 101.125 76.1776 97.6506C76.1776 94.176 73.3603 91.3599 69.8869 91.3599H52.3798V46.4299C52.3798 45.4107 53.2085 44.5814 54.2283 44.5814H254.823C255.843 44.5814 256.672 45.4107 256.672 46.4299V156.428L201.641 211.459L196.743 240.158C196.219 243.229 198.887 245.897 201.958 245.373L230.657 240.475L256.671 214.461V278.801Z" fill="#D1D1D1"/>
</g>
</g>
</svg>
