<svg width="102" height="67" viewBox="0 0 102 67" fill="none" xmlns="http://www.w3.org/2000/svg">
<path d="M48.4001 8.40002H40.8001C40.7001 8.40002 40.6001 8.50003 40.6001 8.60003C40.6001 8.70003 40.7001 8.80002 40.8001 8.80002H48.4001C51.2001 8.80002 53.5001 11.1 53.5001 13.9V20.9C53.5001 21 53.6001 21.1 53.7001 21.1C53.8001 21.1 54.0001 21.2 54.0001 21V14C54.0001 11 51.5001 8.40002 48.4001 8.40002Z" fill="#6C6C6C"/>
<path d="M44.0999 57.9H8.39995C8.29995 57.9 8.19995 58 8.19995 58.1C8.19995 58.2 8.29995 58.3 8.39995 58.3H44.0999C44.1999 58.3 44.2999 58.2 44.2999 58.1C44.2999 58 44.1999 57.9 44.0999 57.9Z" fill="#6C6C6C"/>
<path d="M4.0999 23.9C3.9999 23.9 3.8999 24 3.8999 24.1V47.3C3.8999 47.4 3.9999 47.5 4.0999 47.5C4.1999 47.5 4.2999 47.4 4.2999 47.3V24.2C4.2999 24 4.1999 23.9 4.0999 23.9Z" fill="#6C6C6C"/>
<path d="M49.2 4.40002H9.2C4.1 4.40002 0 8.50002 0 13.5V53.3C0 58.4 4.1 62.5 9.2 62.5H49.2C54.3 62.5 58.4 58.4 58.4 53.3V13.5C58.3 8.50002 54.2 4.40002 49.2 4.40002ZM56.3 53.4C56.3 57.4 53.1 60.6 49.1 60.6H9.1C5.1 60.6 1.9 57.4 1.9 53.4V13.5C1.9 9.50002 5.1 6.30002 9.1 6.30002H49.1C53.1 6.30002 56.3 9.50002 56.3 13.5V53.4Z" fill="#6C6C6C"/>
<path d="M28.5001 14.1C17.8001 14.1 9.1001 22.8 9.1001 33.5C9.1001 44.2 17.8001 52.9 28.5001 52.9C39.2001 52.9 47.9001 44.2 47.9001 33.5C47.9001 22.8 39.2001 14.1 28.5001 14.1ZM29.6001 17.6H27.2001V16.6H29.6001V17.6ZM30.6001 18.6H31.6001V20.2H25.4001V18.6H26.3001H30.6001ZM27.3001 49.4H29.7001V50.4H27.3001V49.4ZM26.3001 48.4H25.3001V46.8H31.5001V48.4H30.6001H26.3001ZM30.7001 50.8V49.5H32.6001V45.9H24.4001V49.5H26.4001V50.8C17.8001 49.7 11.1001 42.4 11.1001 33.5C11.1001 24.7 17.7001 17.4 26.2001 16.2V17.5H24.3001V21.1H32.5001V17.5H30.5001V16.1C39.2001 17.1 45.9001 24.5 45.9001 33.4C45.9001 42.4 39.3001 49.7 30.7001 50.8Z" fill="#6C6C6C"/>
<path d="M20.4 35.8C21.7255 35.8 22.8 34.7255 22.8 33.4C22.8 32.0745 21.7255 31 20.4 31C19.0745 31 18 32.0745 18 33.4C18 34.7255 19.0745 35.8 20.4 35.8Z" fill="#6C6C6C"/>
<path d="M35.9 35.8C37.2255 35.8 38.3 34.7255 38.3 33.4C38.3 32.0745 37.2255 31 35.9 31C34.5745 31 33.5 32.0745 33.5 33.4C33.5 34.7255 34.5745 35.8 35.9 35.8Z" fill="#6C6C6C"/>
<path d="M98.9 33.1V15.1H92V2.2C92 1 91 0 89.8 0H88.4C87.2 0 86.2 1 86.2 2.2V15.1H77.1V2.2C77.1 1 76.1 0 74.9 0H73.5C72.3 0 71.3 1 71.3 2.2V15.1H63.7V33.1H61.5V34.1C61.5 37.1 63.8 39.5 66.8 39.7C66.9 42 68.7 43.8 71 43.8H76.8V47C76.8 48.7 77.8 50.1 79.1 50.8V66.9H81.1V51.3H83.8C83.9 51.3 83.9 51.3 84 51.3V66.9H86V50.7C87.3 50 88.1 48.6 88.1 47V43.8H93C95.3 43.8 97.2 41.9 97.2 39.6C99.8 39.1 101.7 36.8 101.7 34.1V33.1H98.9ZM88.3 2.2C88.3 2.1 88.4 2 88.5 2H89.9C90 2 90.1 2.1 90.1 2.2V14.5H88.3V2.2ZM73.3 2.2C73.3 2.1 73.4 2 73.5 2H74.9C75 2 75.1 2.1 75.1 2.2V14.5H73.3V2.2ZM96.9 32.5H96.4V17.1H96.9V32.5ZM96 17.1V32.5H83.2V17.1H96ZM80.4 32.5H67.9V17.1H80.4V32.5ZM65.7 17.1H67.5V32.5H65.7V17.1ZM86.1 47C86.1 48 85.5 48.8 84.6 49.1H80.3C79.4 48.8 78.8 48 78.8 47V43.8H86.2V47H86.1ZM93 41.8H88.1H76.7H70.9C70 41.8 69.3 41.3 68.9 40.6H94.9C94.6 41.3 93.9 41.8 93 41.8ZM96.1 37.7H67.1C65.4 37.7 64.1 36.6 63.6 35.1H99.6C99.1 36.6 97.7 37.7 96.1 37.7Z" fill="#6C6C6C"/>
<path d="M93.9001 21.2001H94.4001V17.8H91.6001V18.3H93.9001V21.2001Z" fill="#6C6C6C"/>
<path d="M72.2999 31.9V31.4H69.8999V28.5H69.3999V31.9H72.2999Z" fill="#6C6C6C"/>
</svg>
