<svg width="95" height="65" viewBox="0 0 95 65" fill="none" xmlns="http://www.w3.org/2000/svg">
<path d="M48.4 7.09998H40.8C40.7 7.09998 40.6 7.19998 40.6 7.29998C40.6 7.39998 40.7 7.49998 40.8 7.49998H48.4C51.2 7.49998 53.5 9.79998 53.5 12.6V19.6C53.5 19.7 53.6 19.8 53.7 19.8C53.8 19.8 53.9 19.7 53.9 19.6V12.6C54 9.59998 51.5 7.09998 48.4 7.09998Z" fill="#6C6C6C"/>
<path d="M44.0999 56.6H8.39995C8.29995 56.6 8.19995 56.7 8.19995 56.8C8.19995 56.9 8.29995 57 8.39995 57H44.0999C44.1999 57 44.2999 56.9 44.2999 56.8C44.2999 56.7 44.1999 56.6 44.0999 56.6Z" fill="#6C6C6C"/>
<path d="M4.10002 22.6C4.00002 22.6 3.90002 22.7 3.90002 22.8V46C3.90002 46.1 4.00002 46.2 4.10002 46.2C4.20002 46.2 4.30002 46.1 4.30002 46V22.8C4.30002 22.7 4.20002 22.6 4.10002 22.6Z" fill="#6C6C6C"/>
<path d="M85.1 26.8H75.7C75.6 26.8 75.5 26.9 75.5 27C75.5 27.1 75.6 27.2001 75.7 27.2001H85.1C85.2 27.2001 85.3 27.1 85.3 27C85.3 26.9 85.2 26.8 85.1 26.8Z" fill="#6C6C6C"/>
<path d="M85.1 29H75.7C75.6 29 75.5 29.1 75.5 29.2C75.5 29.3 75.6 29.4 75.7 29.4H85.1C85.2 29.4 85.3 29.3 85.3 29.2C85.3 29.1 85.2 29 85.1 29Z" fill="#6C6C6C"/>
<path d="M85.1 30.9H75.7C75.6 30.9 75.5 31 75.5 31.1C75.5 31.2 75.6 31.3 75.7 31.3H85.1C85.2 31.3 85.3 31.2 85.3 31.1C85.3 31 85.2 30.9 85.1 30.9Z" fill="#6C6C6C"/>
<path d="M49.2 3H9.2C4.1 3 0 7.1 0 12.2V52C0 57.1 4.1 61.2 9.2 61.2H49.2C54.3 61.2 58.4 57.1 58.4 52V12.2C58.3 7.1 54.2 3 49.2 3ZM56.3 52C56.3 56 53.1 59.2 49.1 59.2H9.1C5.2 59.2 2 56 2 52V12.2C2 8.2 5.2 5 9.2 5H49.2C53.2 5 56.4 8.2 56.4 12.2V52H56.3Z" fill="#6C6C6C"/>
<path d="M29.6 12.3C19.1 12.3 10.5 20.9 10.5 31.4C10.5 41.9 19 50.6 29.6 50.6C40.2 50.6 48.7 42 48.7 31.5C48.7 21 40.1 12.3 29.6 12.3ZM29.6 48.6C20.2 48.6 12.5 40.9 12.5 31.5C12.5 22.1 20.2 14.4 29.6 14.4C39 14.4 46.7 22 46.7 31.5C46.7 41 39 48.6 29.6 48.6Z" fill="#6C6C6C"/>
<path d="M21 34C22.3255 34 23.4 32.9254 23.4 31.6C23.4 30.2745 22.3255 29.2 21 29.2C19.6745 29.2 18.6 30.2745 18.6 31.6C18.6 32.9254 19.6745 34 21 34Z" fill="#6C6C6C"/>
<path d="M36.9001 34.4C38.336 34.4 39.5 33.2359 39.5 31.7999C39.5 30.364 38.336 29.2 36.9001 29.2C35.4641 29.2 34.3 30.364 34.3 31.7999C34.3 33.2359 35.4641 34.4 36.9001 34.4Z" fill="#6C6C6C"/>
<path d="M94.1 15.2C93.3 14.3 92.2 13.9 91.1 13.9H89.7V0.9C89.7 0.4 89.3 0 88.8 0H86.2C85.7 0 85.3 0.4 85.3 0.9V13.9H75.7V1.1C75.7 0.5 75.2 0 74.6 0H72.5C71.9 0 71.4 0.5 71.4 1.1V13.8H69.7C68.5 13.8 67.4 14.3 66.6 15.2C65.8 16.1 65.5 17.3 65.7 18.5L68.7 37.9C69 40 70.8 41.4 72.8 41.4H74.6V45C74.6 46.7 75.6 48.1 76.9 48.8V64.9H78.9V49.3H81.6C81.7 49.3 81.7 49.3 81.8 49.3V64.9H83.8V48.7C85.1 48 85.9 46.6 85.9 45V41.4H88.5C90.6 41.4 92.4 39.8 92.7 37.7L94.9 18.3C95.2 17.2 94.8 16 94.1 15.2ZM85.9 1.4C85.9 1.1 86.2 0.8 86.5 0.8H88.3C88.7 0.8 89 1 89 1.4V7.4H85.9V1.4ZM72 1.3C72 1 72.3 0.7 72.6 0.7H74.5C74.8 0.7 75.1 1 75.1 1.3V7.4H72V1.3ZM84.1 45C84.1 46 83.5 46.8 82.6 47.1H78.3C77.4 46.8 76.8 46 76.8 45V41.8H84.2V45H84.1ZM93.1 18.1L90.9 37.5C90.8 38.6 89.8 39.5 88.7 39.5H72.9C71.8 39.5 70.9 38.7 70.7 37.6L67.7 18.2C67.6 17.6 67.8 17 68.2 16.6C68.6 16.2 69.2 15.9 69.8 15.9H91.1C91.7 15.9 92.2 16.1 92.6 16.6C93 17.1 93.2 17.5 93.1 18.1Z" fill="#6C6C6C"/>
</svg>
