<svg width="29" height="23" viewBox="0 0 29 23" fill="none" xmlns="http://www.w3.org/2000/svg">
<circle cx="10.9407" cy="11.304" r="10.9407" fill="#209FAE"/>
<path d="M10.9481 4.53125C7.20735 4.53125 4.1723 7.57226 4.16797 11.3257C4.16797 14.6969 6.62718 17.5598 9.95231 18.0551C10.0129 18.0681 10.0779 18.0768 10.1385 18.0768C10.4069 18.0811 10.6234 17.8639 10.6277 17.5946V14.2364L7.74422 11.3475L10.9828 8.09792L14.2213 11.3475L11.3464 14.2321L11.3594 14.219V17.5468C11.3594 17.9117 11.5759 18.1289 11.8833 18.0594C15.5895 17.5337 18.1699 14.0931 17.646 10.3743C17.1784 7.02488 14.3209 4.53559 10.9481 4.53125ZM12.4029 16.8647V14.723L12.3856 14.7143L15.7064 11.3648L10.9568 6.60783L6.20721 11.3692L9.60595 14.7795V16.856C6.54059 16.0741 4.69185 12.9462 5.47118 9.8704C6.25051 6.79463 9.36782 4.93961 12.4332 5.72159C15.4985 6.50356 17.3473 9.63146 16.5679 12.7072C16.0484 14.7577 14.4464 16.3521 12.4029 16.8647Z" fill="white"/>
<circle cx="21.8804" cy="15.7358" r="5.75928" fill="#22BA64" stroke="#DAF0F2" stroke-width="1.5"/>
<path fill-rule="evenodd" clip-rule="evenodd" d="M21.0826 16.4946L24.2256 13.3516L24.7039 13.8299L21.0826 17.4512L19.1523 15.521L19.6307 15.0426L21.0826 16.4946Z" fill="#DAF0F2"/>
</svg>
