<svg width="31" height="31" viewBox="0 0 31 31" fill="none" xmlns="http://www.w3.org/2000/svg">
<path d="M15.7511 0.0128116C16.0721 -0.0293437 16.4318 0.0275813 16.6743 0.257743C16.9592 0.533445 16.9967 1.00423 16.8143 1.34578C16.6659 1.6261 16.365 1.81872 16.0475 1.83072C15.7508 1.8458 15.4253 1.78703 15.2074 1.56948C14.9902 1.35317 14.9413 1.01869 14.9942 0.727606C15.0653 0.362055 15.3837 0.0660443 15.7511 0.0128116ZM15.8124 0.168202C15.565 0.253128 15.4431 0.519907 15.405 0.761146C15.3702 1.01377 15.3788 1.30332 15.5478 1.50948C15.7167 1.7101 16.0459 1.70579 16.2342 1.53471C16.4589 1.33747 16.5198 1.01439 16.4992 0.728529C16.4832 0.494367 16.3604 0.24482 16.1284 0.160201C16.0272 0.113431 15.9142 0.138047 15.8124 0.168202Z" fill="white"/>
<path d="M14.0918 0.0798124C14.2324 0.0831971 14.374 0.0807354 14.5124 0.0527344C14.517 0.638601 14.5672 1.22416 14.6377 1.80572C14.4967 1.80018 14.3552 1.80818 14.217 1.83618C14.1992 1.2497 14.1724 0.661372 14.0918 0.0798124Z" fill="white"/>
<path d="M13.2632 0.168948C13.3374 0.156025 13.4109 0.140639 13.4845 0.124023C13.55 0.702506 13.6519 1.27545 13.7565 1.84778C13.6882 1.85362 13.6205 1.86378 13.5546 1.88132C13.1245 1.53977 12.6854 1.20929 12.2435 0.882512C12.3127 1.29145 12.3811 1.70131 12.4777 2.10471C12.4004 2.10532 12.3238 2.11671 12.25 2.13886C12.1887 1.557 12.113 0.974515 11.9629 0.408033C12.0423 0.404341 12.121 0.392648 12.1989 0.37634C12.6291 0.708352 13.0626 1.03575 13.4983 1.36007C13.4214 0.962822 13.3571 0.562808 13.2632 0.168948Z" fill="white"/>
<path d="M18.4745 0.297852C18.5392 0.319698 18.6069 0.329853 18.6752 0.333237C18.7586 0.776946 18.8549 1.21819 18.9564 1.65821C19.2583 1.32281 19.5447 0.974183 19.8251 0.62094C19.8887 0.649249 19.9568 0.664018 20.0266 0.666788C19.9531 1.25265 19.87 1.83729 19.8134 2.425C19.6807 2.38131 19.5447 2.349 19.4066 2.32869C19.4764 1.9416 19.5364 1.55267 19.5866 1.1625C19.3063 1.4942 19.0318 1.83021 18.7616 2.16992C18.7382 2.16684 18.6912 2.16069 18.6678 2.15761C18.5832 1.73421 18.4973 1.31112 18.4078 0.888949C18.2595 1.24927 18.1548 1.62528 18.0278 1.99299C17.9533 1.96653 17.877 1.94591 17.7988 1.93391C18.0438 1.39697 18.261 0.848025 18.4745 0.297852Z" fill="white"/>
<path d="M10.5835 0.783025C10.8565 0.707023 11.1743 0.736562 11.3968 0.923954C11.687 1.17012 11.8162 1.6009 11.683 1.96153C11.5811 2.25723 11.322 2.48986 11.018 2.56217C10.7377 2.64955 10.406 2.64925 10.1629 2.46585C9.80505 2.18923 9.68289 1.63844 9.91675 1.24489C10.0518 0.995341 10.3103 0.837797 10.5835 0.783025ZM10.5851 0.936262C10.4208 0.969494 10.2786 1.09042 10.2257 1.25012C10.1389 1.50213 10.1992 1.77814 10.3035 2.01507C10.3789 2.18523 10.5026 2.35416 10.6897 2.40862C10.8977 2.46555 11.1417 2.3757 11.2543 2.18892C11.3648 2.01261 11.3657 1.79014 11.3199 1.59321C11.2694 1.38397 11.1808 1.16981 11.0072 1.03319C10.8906 0.938723 10.7312 0.900568 10.5851 0.936262Z" fill="white"/>
<path d="M20.3739 1.89608C20.5117 1.57514 20.6585 1.25759 20.7739 0.927734C20.8973 0.990814 21.0231 1.04989 21.1557 1.09112C20.9985 1.38867 20.8597 1.69515 20.7366 2.00808C20.68 2.15978 20.6243 2.32532 20.6609 2.48841C20.6849 2.59364 20.7708 2.6718 20.8646 2.71826C20.977 2.77519 21.1093 2.82719 21.2348 2.78103C21.3979 2.7198 21.4945 2.56318 21.5754 2.41825C21.7428 2.10408 21.8567 1.7653 21.9825 1.43298C22.0558 1.47145 22.1321 1.50314 22.2108 1.52899C22.0579 1.82038 21.9311 2.1247 21.8007 2.42686C21.7108 2.62841 21.5816 2.83703 21.3674 2.92227C21.1508 3.00719 20.9108 2.93734 20.7117 2.83796C20.5203 2.74226 20.3379 2.58502 20.2905 2.36717C20.2529 2.20563 20.3006 2.04008 20.3739 1.89608Z" fill="white"/>
<path d="M8.77306 1.53417C8.83983 1.50648 8.90506 1.47509 8.96753 1.43848C9.30139 1.92403 9.62355 2.4182 9.98233 2.88653C9.85248 2.93976 9.72848 3.00622 9.61309 3.08561C9.41493 2.74683 9.19677 2.42036 8.97184 2.09881C8.98507 2.53544 9.00353 2.97176 9.02291 3.40839C9.00199 3.41824 8.96045 3.43793 8.93983 3.44778C8.59121 3.18869 8.2435 2.92868 7.89334 2.67175C8.02473 3.037 8.18627 3.39055 8.34135 3.74625C8.2672 3.77856 8.19673 3.81795 8.12873 3.86164C7.9518 3.29639 7.75425 2.73791 7.54102 2.18527C7.60471 2.15543 7.66687 2.12219 7.72748 2.08619C8.08719 2.35759 8.44505 2.63144 8.81614 2.88745C8.81583 2.43605 8.79983 1.98465 8.77306 1.53417Z" fill="white"/>
<path d="M22.8268 1.85645C22.8868 1.90075 22.9514 1.93799 23.0179 1.97183C23.125 2.50539 23.2256 3.04018 23.3443 3.57097C23.5505 3.22665 23.7653 2.88694 23.9527 2.53185C24.0161 2.57647 24.0825 2.61647 24.1518 2.65155C23.8188 3.12911 23.5167 3.62697 23.2185 4.12668C23.1634 4.08699 23.1056 4.05129 23.0456 4.0196C22.9526 3.47496 22.8502 2.93187 22.7296 2.39246C22.5114 2.73525 22.2849 3.07464 22.1034 3.43896C22.04 3.39312 21.9732 3.35188 21.9043 3.31496C22.2351 2.84417 22.5566 2.36477 22.8268 1.85645Z" fill="white"/>
<path d="M6.55664 2.84319C6.67664 2.77765 6.79173 2.70318 6.89604 2.61426C7.21143 3.11366 7.53421 3.60999 7.89915 4.07493C7.77761 4.1377 7.66653 4.21801 7.56037 4.30386C7.38159 4.00169 7.18374 3.71153 6.97727 3.42752C6.84588 3.22659 6.70588 3.0315 6.55664 2.84319Z" fill="white"/>
<path d="M23.5645 4.37815C23.9555 3.94675 24.322 3.49258 24.6639 3.02148C24.9479 3.29657 25.3233 3.48273 25.5353 3.82828C25.6476 4.00429 25.6762 4.23291 25.5947 4.42738C25.491 4.67354 25.3057 4.89878 25.0525 4.9994C24.774 5.11602 24.4362 5.07694 24.1956 4.89294C23.982 4.72524 23.7866 4.53477 23.5645 4.37815ZM23.9617 4.51354C24.1051 4.64 24.2534 4.78924 24.4543 4.80924C24.694 4.83539 24.9082 4.68308 25.062 4.51415C25.2257 4.34153 25.3559 4.10091 25.2987 3.85659C25.2504 3.64181 25.0584 3.51042 24.8857 3.39719C24.5839 3.77413 24.2602 4.13352 23.9617 4.51354Z" fill="white"/>
<path d="M5.86249 3.37446C6.02742 3.27354 6.26035 3.324 6.37051 3.48247C6.52006 3.65355 6.51052 3.91848 6.3699 4.09203C6.68898 4.21234 7.01577 4.31019 7.33978 4.41542C7.21547 4.5022 7.09331 4.59328 6.98684 4.7019C6.68868 4.59666 6.39728 4.47204 6.09604 4.37542C6.25358 4.6022 6.44498 4.80221 6.63083 5.00529C6.51544 5.08437 6.40836 5.17514 6.30713 5.27176C5.95542 4.80159 5.58341 4.34557 5.18555 3.91356C5.42863 3.75571 5.61079 3.52001 5.86249 3.37446ZM5.60433 3.77294C5.74372 3.95387 5.88896 4.13018 6.03389 4.3065C6.12343 4.24773 6.20743 4.16434 6.21512 4.0508C6.23512 3.87664 6.09727 3.73632 5.96527 3.64524C5.83049 3.57324 5.70403 3.69601 5.60433 3.77294Z" fill="white"/>
<path d="M12.1935 4.35497C14.6492 3.63218 17.3456 3.75987 19.7208 4.71622C21.615 5.47132 23.3003 6.7409 24.5511 8.35111C25.6986 9.8207 26.477 11.5746 26.7992 13.4107C27.0854 15.0178 27.0318 16.6859 26.6303 18.2687C26.1075 20.3491 24.9887 22.2735 23.4446 23.7615C21.896 25.2637 19.9168 26.3145 17.8041 26.7524C17.5186 26.8127 17.2303 26.8604 16.9416 26.9025C16.737 26.9324 16.5176 26.8653 16.3764 26.7115C16.1967 26.5204 16.1404 26.2471 16.1425 25.9924C16.1422 24.1154 16.1431 22.2381 16.1422 20.3611C17.7684 18.7327 19.3971 17.1065 21.0239 15.4784C19.1829 13.6368 17.3416 11.7955 15.5 9.95456C13.659 11.7952 11.8184 13.6368 9.97676 15.4772C11.6141 17.1151 13.2535 18.7512 14.8932 20.3866C14.896 22.2248 14.8932 24.0634 14.8945 25.9016C14.8939 26.0345 14.9016 26.1699 14.8662 26.2998C14.7929 26.5896 14.5514 26.8308 14.2585 26.8955C14.0341 26.9502 13.8061 26.8878 13.584 26.8552C11.7002 26.5527 9.89614 25.772 8.38624 24.6062C6.81542 23.3981 5.56337 21.7796 4.79135 19.9543C3.85562 17.7594 3.631 15.2717 4.15009 12.9436C4.39041 11.8562 4.79104 10.8047 5.33352 9.8324C6.10001 8.45666 7.15112 7.24061 8.4004 6.2815C9.5309 5.41193 10.8239 4.75345 12.1935 4.35497ZM12.5689 6.08211C10.6408 6.7009 8.91488 7.93479 7.71176 9.56439C6.33632 11.4115 5.65599 13.7587 5.81846 16.0551C5.96369 18.2281 6.86865 20.3389 8.33455 21.9482C9.60875 23.3603 11.3085 24.3772 13.152 24.8425C13.152 23.6661 13.151 22.4901 13.1523 21.3137C11.2202 19.3817 9.29028 17.4474 7.35482 15.5184C10.0518 12.8162 12.7562 10.1213 15.4557 7.42185C18.1555 10.1186 20.8605 12.8107 23.5563 15.5114C21.6719 17.4016 19.7888 19.2937 17.9094 21.1885C17.9306 21.3227 17.9207 21.4587 17.9223 21.594C17.9226 22.6818 17.922 23.7692 17.9226 24.8569C18.7531 24.6477 19.5568 24.332 20.3051 23.9151C22.3652 22.7787 23.9837 20.87 24.7638 18.6499C25.3669 16.9582 25.4939 15.0984 25.1151 13.3424C24.7154 11.4574 23.7419 9.70009 22.3575 8.36035C20.8938 6.93199 18.9663 5.99626 16.9425 5.71071C15.4816 5.4987 13.9732 5.62732 12.5689 6.08211Z" fill="white"/>
<path d="M4.85602 4.22949C4.90648 4.28549 4.96064 4.33811 5.01849 4.38673C4.90094 4.47935 4.7874 4.57658 4.68248 4.68305C5.05357 5.05014 5.42435 5.41938 5.81975 5.76093C5.71513 5.85078 5.61697 5.94802 5.53174 6.05663C5.17849 5.66739 4.78925 5.31322 4.40339 4.9569C4.30215 5.07629 4.20123 5.19599 4.10184 5.31692C4.0563 5.25937 4.00522 5.20645 3.94922 5.15906C4.256 4.85351 4.57632 4.56058 4.85602 4.22949Z" fill="white"/>
<path d="M25.0625 5.69736C25.5025 5.30042 25.9142 4.87271 26.3241 4.44531C26.4145 4.55085 26.513 4.64963 26.6195 4.73948C26.1835 5.14072 25.7668 5.5632 25.36 5.99368C25.2671 5.88875 25.1683 5.78905 25.0625 5.69736Z" fill="white"/>
<path d="M25.5664 6.16363C26.1784 5.99347 26.7834 5.799 27.3865 5.59961C27.4265 5.65192 27.4702 5.70177 27.5166 5.74915C27.1982 6.29994 26.8735 6.84827 26.5966 7.42152C26.5132 7.29844 26.4117 7.19044 26.3163 7.07751C26.4181 6.92643 26.5144 6.77165 26.6034 6.61257C26.4818 6.4581 26.3477 6.3141 26.2267 6.15901C26.055 6.21779 25.8864 6.28548 25.7196 6.35687C25.6744 6.28794 25.6233 6.22302 25.5664 6.16363ZM26.3898 6.10701C26.4883 6.22732 26.5868 6.34794 26.6852 6.46856C26.7969 6.28363 26.9052 6.09686 27.0098 5.90762C26.8015 5.96978 26.5948 6.03532 26.3898 6.10701Z" fill="white"/>
<path d="M3.41141 5.80176C4.01205 5.99007 4.60991 6.18669 5.21916 6.34578C5.11762 6.45286 5.02931 6.57132 4.94685 6.69317C4.7773 6.62886 4.6056 6.56978 4.43514 6.50794C4.30006 6.6544 4.1819 6.81533 4.06159 6.97411C4.15513 7.1298 4.25667 7.28058 4.36129 7.4292C4.30436 7.48705 4.25513 7.55197 4.21267 7.62121C3.91789 7.05596 3.59942 6.50363 3.28125 5.95161C3.32741 5.90422 3.37079 5.85407 3.41141 5.80176ZM3.65634 6.25808C3.76065 6.44978 3.87019 6.63809 3.98004 6.82641C4.07851 6.70333 4.17697 6.58055 4.27513 6.45747C4.07051 6.38639 3.86466 6.31839 3.65634 6.25808Z" fill="white"/>
<path d="M27.5306 7.10859C27.7681 6.98643 27.982 6.8255 28.1924 6.66211C28.2589 6.78396 28.3349 6.90058 28.4214 7.0092C27.9647 7.26613 27.5349 7.56614 27.1001 7.85723C27.2099 8.01508 27.3201 8.17293 27.4447 8.31971C27.3798 8.35479 27.3176 8.39386 27.2585 8.43694C27.0887 8.15601 26.8908 7.89354 26.709 7.6206C26.9896 7.46121 27.2619 7.28767 27.5306 7.10859Z" fill="white"/>
<path d="M2.59324 6.94079C2.70956 6.8014 2.9191 6.7534 3.08372 6.83094C3.2505 6.90848 3.3985 7.06418 3.4065 7.25619C3.41666 7.46942 3.29696 7.65774 3.18373 7.82821C3.3982 7.96421 3.61143 8.1036 3.83606 8.22299C3.75329 8.33715 3.67297 8.45377 3.6102 8.58023C3.40312 8.42515 3.18526 8.28545 2.96987 8.14268C2.70371 7.95006 2.41908 7.78574 2.13477 7.62205C2.30831 7.40911 2.41293 7.1488 2.59324 6.94079ZM2.47016 7.35311C2.67386 7.48481 2.87387 7.62266 3.08157 7.74851C3.13019 7.66359 3.17696 7.56851 3.15634 7.46758C3.13019 7.27403 2.93049 7.16295 2.75417 7.13526C2.6154 7.1208 2.53201 7.25003 2.47016 7.35311Z" fill="white"/>
<path d="M28.5166 8.98906C28.6868 8.90105 28.9009 9.06752 28.8628 9.25368C28.8449 9.43246 28.6136 9.52477 28.4751 9.41338C28.3212 9.31491 28.3523 9.05921 28.5166 8.98906Z" fill="white"/>
<path d="M2.08302 9.23253C2.19287 9.18791 2.33319 9.2353 2.38704 9.343C2.45319 9.45746 2.40981 9.62085 2.29072 9.68208C2.17287 9.74947 2.00671 9.69316 1.9501 9.571C1.8864 9.44792 1.95379 9.28022 2.08302 9.23253Z" fill="white"/>
<path d="M29.7797 10.1738C29.8505 10.1556 29.9203 10.1329 29.9887 10.1055C30.085 10.4221 30.2096 10.7292 30.3185 11.0415C30.0034 11.1283 29.692 11.2267 29.3834 11.3338C29.1225 11.3914 28.8738 11.4932 28.6298 11.5997C28.5954 11.4652 28.5532 11.3323 28.4941 11.2064C29.0028 11.0643 29.5009 10.8898 29.9976 10.7113C29.9299 10.5301 29.8631 10.3482 29.7797 10.1738Z" fill="white"/>
<path d="M0.708605 10.8694C1.33078 10.862 1.95265 10.8408 2.57452 10.8174C2.5259 10.9515 2.49021 11.09 2.47051 11.2316C2.0185 11.2319 1.56679 11.2316 1.11508 11.2319C1.49971 11.486 1.88065 11.7457 2.26805 11.9962C2.23912 12.078 2.22035 12.163 2.20466 12.2485C1.74433 12.251 1.28616 12.3011 0.826148 12.3168C1.21201 12.5584 1.59664 12.8024 1.99573 13.0215C1.96742 13.0938 1.94773 13.1685 1.93511 13.2452C1.41448 12.8931 0.891073 12.5448 0.353516 12.219C0.385517 12.1362 0.406441 12.0497 0.421518 11.9623C0.871996 11.9593 1.32217 11.9313 1.77049 11.887C1.40186 11.6279 1.02862 11.3756 0.650757 11.1306C0.670142 11.0435 0.693528 10.9574 0.708605 10.8694Z" fill="white"/>
<path d="M28.8457 12.5314C29.3814 12.1837 29.9205 11.84 30.4384 11.4658C30.4562 11.6138 30.4922 11.7594 30.535 11.9021C30.3741 11.9981 30.2101 12.0892 30.0553 12.1948C30.0953 12.3899 30.1347 12.5856 30.1845 12.7785C30.367 12.804 30.5501 12.8237 30.7341 12.836C30.7442 12.9173 30.7624 12.9979 30.7888 13.076C30.1556 12.9425 29.5171 12.8366 28.8792 12.7305C28.8709 12.6634 28.8608 12.5969 28.8457 12.5314ZM29.3639 12.6366C29.5811 12.6723 29.7977 12.7132 30.0156 12.7462C29.983 12.5899 29.9491 12.4339 29.9174 12.2772C29.7303 12.3929 29.5426 12.508 29.3639 12.6366Z" fill="white"/>
<path d="M0.73892 13.2149C0.986006 13.1666 1.25555 13.2017 1.46972 13.3386C1.70757 13.4872 1.86942 13.7478 1.90235 14.0257C1.92573 14.1909 1.88942 14.3568 1.84665 14.5159C1.78419 14.7359 1.65249 14.9454 1.45156 15.063C1.23463 15.1916 0.964774 15.1996 0.725073 15.1384C0.390908 15.0516 0.120129 14.7645 0.0536648 14.4257C0.00781702 14.2217 0.0548956 14.0118 0.11059 13.8149C0.19767 13.5241 0.434909 13.2734 0.73892 13.2149ZM0.673995 13.6137C0.56076 13.6331 0.449679 13.6783 0.364137 13.7561C0.181977 13.9192 0.14136 14.226 0.293366 14.4223C0.437679 14.6122 0.674918 14.7026 0.903541 14.739C1.10016 14.7679 1.31617 14.7725 1.4931 14.6688C1.70326 14.5466 1.78203 14.2568 1.68665 14.038C1.61218 13.8654 1.4491 13.7481 1.2774 13.6841C1.08539 13.6155 0.876463 13.5823 0.673995 13.6137Z" fill="white"/>
<path d="M29.0762 13.713C29.6747 13.6702 30.2747 13.6201 30.8661 13.5127C30.8658 13.6521 30.8836 13.7909 30.9104 13.9275C30.5541 13.9416 30.1999 13.9823 29.8473 14.0306C29.6027 14.0506 29.3602 14.0866 29.1183 14.1278C29.1165 13.9884 29.1045 13.8493 29.0762 13.713Z" fill="white"/>
<path d="M29.6806 14.5034C29.9394 14.4277 30.2332 14.4255 30.4757 14.5554C30.7585 14.6991 30.9536 15.0013 30.9625 15.3191C30.9689 15.5927 30.9505 15.8671 30.9733 16.1404C30.3748 16.1195 29.7747 16.1299 29.1775 16.1724C29.2043 15.7699 29.1061 15.3557 29.2317 14.9631C29.295 14.7486 29.464 14.5668 29.6806 14.5034ZM29.403 15.1351C29.2766 15.3139 29.303 15.544 29.3249 15.749C29.8221 15.7376 30.3197 15.7551 30.8169 15.7385C30.8225 15.5376 30.8416 15.3142 30.716 15.1425C30.5659 14.9323 30.2898 14.8723 30.0458 14.8689C29.8089 14.8603 29.5437 14.9299 29.403 15.1351Z" fill="white"/>
<path d="M0 15.6118C0.604945 15.6167 1.21081 15.5945 1.81268 15.5352C1.79268 15.8327 1.87237 16.1284 1.83545 16.4256C1.82191 16.5727 1.71545 16.7026 1.57821 16.7534C1.40282 16.81 1.19266 16.7715 1.0625 16.6364C0.99542 16.5715 0.961265 16.4829 0.928956 16.3976C0.633253 16.5878 0.347397 16.7927 0.0603098 16.9955C0.0667716 16.8383 0.0673871 16.6804 0.0455402 16.5244C0.316627 16.3438 0.604945 16.1878 0.866185 15.9927C0.582175 15.9909 0.299087 16.0152 0.0172313 16.045C0.0236931 15.9001 0.0153852 15.7555 0 15.6118ZM0.959727 15.9899C0.958496 16.0943 0.968342 16.209 1.04896 16.2856C1.18004 16.4238 1.39759 16.3995 1.56006 16.3386C1.69329 16.2672 1.66714 16.0933 1.66929 15.9675C1.43267 15.9699 1.19635 15.9779 0.959727 15.9899Z" fill="white"/>
<path d="M29.1489 16.5234C29.7363 16.641 30.3289 16.7259 30.9225 16.8047C30.9068 16.8736 30.8957 16.9438 30.8908 17.0145C30.4197 17.3269 29.9572 17.6515 29.4969 17.9795C29.9191 18.0401 30.3413 18.1047 30.7668 18.1383C30.7413 18.2137 30.7293 18.2921 30.728 18.3718C30.1394 18.246 29.5455 18.1352 28.9434 18.1026C28.9643 18.0241 28.9729 17.9432 28.9911 17.8647C29.4465 17.5416 29.9099 17.2287 30.3637 16.9028C29.9505 16.8493 29.5378 16.7878 29.1224 16.7536C29.1341 16.6773 29.1421 16.6001 29.1489 16.5234Z" fill="white"/>
<path d="M1.09321 17.2571C1.3566 17.2429 1.61538 17.1875 1.87078 17.126C1.88093 17.2651 1.90247 17.4029 1.93539 17.5386C1.40984 17.5848 0.891048 17.6811 0.370722 17.7642C0.405493 17.9546 0.440571 18.1454 0.493188 18.3319C0.419955 18.3386 0.347029 18.3482 0.274719 18.3605C0.23441 18.0331 0.164869 17.71 0.111328 17.3844C0.440263 17.3552 0.767044 17.3066 1.09321 17.2571Z" fill="white"/>
<path d="M0.363281 18.873C0.948533 18.7446 1.52671 18.5831 2.09504 18.3936C2.17627 18.8333 2.41935 19.2616 2.32335 19.7194C2.26181 20.0278 1.96518 20.2112 1.6784 20.277C1.24516 20.4004 0.745449 20.1456 0.597443 19.7188C0.50821 19.4401 0.462054 19.1487 0.363281 18.873ZM0.61529 19.2231C0.66083 19.4176 0.696524 19.6373 0.859914 19.7724C1.05007 19.9345 1.32239 19.9299 1.55348 19.8776C1.78918 19.8296 2.03688 19.7025 2.1295 19.4668C2.21535 19.2594 2.13258 19.0363 2.05719 18.8397C1.57871 18.9754 1.09254 19.0834 0.61529 19.2231Z" fill="white"/>
<path d="M29.2614 18.623C29.6432 18.5417 30.0762 18.707 30.2808 19.046C30.4405 19.2971 30.4713 19.6245 30.3602 19.9008C30.2685 20.1682 30.0943 20.4289 29.8229 20.5375C29.5005 20.663 29.1146 20.5729 28.8552 20.3522C28.6143 20.1442 28.4924 19.8082 28.5487 19.4944C28.6275 19.1165 28.8555 18.7116 29.2614 18.623ZM29.1669 18.9947C28.9681 19.0208 28.7928 19.1688 28.742 19.3642C28.6826 19.5415 28.7497 19.7384 28.8783 19.8673C29.0395 20.035 29.2626 20.1285 29.4866 20.1775C29.6402 20.2092 29.8088 20.2153 29.9531 20.1445C30.1857 20.0307 30.29 19.7193 30.182 19.4858C30.1033 19.3076 29.9405 19.1817 29.7666 19.1033C29.5799 19.0199 29.3725 18.9627 29.1669 18.9947Z" fill="white"/>
<path d="M28.2128 20.6602C28.7805 20.8512 29.3442 21.0546 29.9208 21.2177C29.8485 21.3405 29.787 21.4694 29.7411 21.6045C29.3743 21.45 28.9983 21.3183 28.6202 21.1956C28.8971 21.5408 29.175 21.8854 29.4599 22.2242C29.4439 22.2531 29.4282 22.2824 29.4131 22.3119C28.9731 22.3122 28.5328 22.3144 28.0931 22.319C28.4232 22.5353 28.7697 22.7252 29.1137 22.9184C29.0719 22.9892 29.0377 23.0642 29.0094 23.1415C28.5202 22.7913 28.0211 22.455 27.5078 22.1411C27.5417 22.0771 27.5721 22.0119 27.5986 21.9448C28.0571 21.9442 28.5158 21.95 28.974 21.931C28.6977 21.5639 28.4094 21.206 28.1115 20.8565C28.15 20.7937 28.1838 20.7282 28.2128 20.6602Z" fill="white"/>
<path d="M2.13829 21.4115C2.40354 21.2801 2.66724 21.1447 2.91955 20.9902C2.97432 21.1235 3.02971 21.2576 3.1131 21.3764C2.89309 21.4706 2.67924 21.5783 2.46508 21.6844C2.57616 21.918 2.6817 22.1558 2.81709 22.3767C3.03433 22.2884 3.2368 22.1564 3.44665 22.0478C3.49496 22.1826 3.55588 22.3127 3.63773 22.4309C3.08756 22.6743 2.55339 22.9534 2.0306 23.2503C1.98014 23.1162 1.92198 22.9842 1.83921 22.8666C2.11214 22.75 2.37676 22.6155 2.642 22.4823C2.53492 22.2389 2.41277 22.0035 2.28015 21.7736C2.01921 21.9023 1.76444 22.0435 1.51027 22.185C1.46196 22.0506 1.40381 21.9195 1.32227 21.802C1.60197 21.6878 1.86567 21.5404 2.13829 21.4115Z" fill="white"/>
<path d="M2.37891 23.7502C2.88169 23.4327 3.38387 23.1093 3.84788 22.7363C4.03835 23.0114 4.21005 23.3007 4.42359 23.5591C4.35898 23.5979 4.29744 23.6416 4.23959 23.6899C4.13866 23.5216 4.03927 23.352 3.93096 23.188C3.77372 23.292 3.61403 23.393 3.45802 23.4997C3.57618 23.6564 3.69372 23.8142 3.81311 23.9699C3.74665 24.0081 3.68418 24.0527 3.62572 24.1022C3.52849 23.9321 3.4211 23.7677 3.31156 23.6053C3.13032 23.7287 2.94508 23.8468 2.77431 23.9847C2.88662 24.1447 3.00385 24.3013 3.13339 24.4481C3.06939 24.4884 3.00693 24.5318 2.94662 24.5785C2.76815 24.2955 2.58414 24.0148 2.37891 23.7502Z" fill="white"/>
<path d="M26.2793 23.9472C26.4805 23.6807 26.6938 23.4223 26.8679 23.1367C26.9258 23.185 26.9879 23.2287 27.0522 23.2693C26.9246 23.418 26.8005 23.5694 26.6781 23.722C26.827 23.8392 26.9772 23.9543 27.1286 24.0688C27.2381 23.9057 27.3483 23.7429 27.4569 23.5792C27.5141 23.6294 27.5763 23.6737 27.6427 23.7115C27.515 23.8607 27.3938 24.0152 27.2763 24.1724C27.4516 24.3029 27.6246 24.4371 27.8086 24.5562C27.9258 24.3989 28.0338 24.2349 28.1311 24.0648C28.1904 24.1118 28.252 24.1564 28.3154 24.1989C28.1058 24.4598 27.9015 24.726 27.719 25.0066C27.2556 24.6318 26.7802 24.27 26.2793 23.9472Z" fill="white"/>
<path d="M4.61453 23.8408C4.77238 24.0842 5.00685 24.2673 5.15455 24.5178C5.21271 24.6095 5.22963 24.7252 5.19947 24.8298C5.13547 25.0486 4.88685 25.1883 4.66561 25.1489C4.57915 25.1366 4.50437 25.0879 4.43206 25.0427C4.31021 25.3664 4.2099 25.6975 4.10251 26.0264C4.01512 25.8987 3.92251 25.7744 3.81204 25.6658C3.92158 25.3636 4.04713 25.0673 4.1459 24.7615C3.9182 24.9252 3.71111 25.1153 3.50649 25.3064C3.42618 25.1889 3.33356 25.0806 3.23633 24.9769C3.71327 24.6205 4.17698 24.2448 4.61453 23.8408ZM4.2139 24.7042C4.27144 24.7824 4.3416 24.8636 4.44345 24.8806C4.6333 24.9224 4.79577 24.7713 4.89054 24.6242C4.95331 24.4885 4.83331 24.3658 4.75669 24.2661C4.57299 24.4085 4.39206 24.5547 4.2139 24.7042Z" fill="white"/>
<path d="M25.8623 24.4005C25.9155 24.3445 25.9672 24.2869 26.0164 24.2275C26.4287 24.6626 26.8684 25.0703 27.3063 25.4796C27.2509 25.523 27.2026 25.5744 27.1598 25.6304C26.5949 25.6134 26.0296 25.6156 25.4644 25.6177C25.7736 25.9119 26.0838 26.2064 26.4124 26.4787C26.3481 26.5255 26.2915 26.5821 26.2466 26.6479C25.8364 26.2061 25.4127 25.7741 24.9395 25.3996C25.0035 25.3516 25.0601 25.2947 25.1087 25.231C25.6699 25.2353 26.2312 25.2374 26.7924 25.2362C26.4838 24.9559 26.1832 24.6663 25.8623 24.4005Z" fill="white"/>
<path d="M5.1729 25.5478C5.34583 25.385 5.50922 25.2121 5.66769 25.0352C5.75477 25.1441 5.852 25.2441 5.95816 25.3349C5.51414 25.7389 5.07721 26.1534 4.67781 26.6023C4.59319 26.4915 4.49226 26.3955 4.38672 26.305C4.66273 26.0675 4.92089 25.8103 5.1729 25.5478Z" fill="white"/>
<path d="M6.01919 25.7138C6.0758 25.6648 6.12596 25.6098 6.16904 25.5488C6.49828 25.8424 6.81675 26.1485 7.16938 26.4144C7.11492 26.4676 7.06507 26.5255 7.01984 26.587C6.91737 26.4744 6.81244 26.3636 6.69706 26.2642C6.34935 26.6658 5.99518 27.0627 5.6724 27.4849C5.57578 27.3837 5.47055 27.2904 5.35547 27.2107C5.72933 26.8283 6.06534 26.4116 6.4032 25.9978C6.27612 25.9018 6.14719 25.8085 6.01919 25.7138Z" fill="white"/>
<path d="M24.3086 25.9881C24.4224 25.9075 24.5277 25.8158 24.6237 25.7148C25.0034 26.1801 25.3926 26.6395 25.8194 27.0626C25.7043 27.1404 25.6025 27.2358 25.5074 27.3371C25.3446 27.1312 25.1775 26.9293 25.0009 26.7355C24.7671 26.489 24.5544 26.2232 24.3086 25.9881Z" fill="white"/>
<path d="M23.6877 26.5311C24.0945 26.4253 24.5075 26.6939 24.6752 27.0582C24.8228 27.3668 24.7764 27.753 24.5687 28.0235C24.4542 28.1795 24.2859 28.2835 24.1167 28.3709C23.8794 28.489 23.5856 28.5158 23.3459 28.3893C23.0185 28.2142 22.7895 27.8459 22.8166 27.4696C22.8314 27.1976 22.9711 26.932 23.1951 26.7751C23.345 26.669 23.5056 26.569 23.6877 26.5311ZM23.5271 26.7687C23.3406 26.8154 23.1751 26.9684 23.1456 27.1634C23.1056 27.4114 23.2166 27.6558 23.361 27.8515C23.473 28.0019 23.6145 28.1459 23.8 28.1995C24.0111 28.2619 24.2462 28.1499 24.3588 27.9672C24.4558 27.8068 24.4499 27.6044 24.389 27.4327C24.3231 27.2508 24.2133 27.085 24.0751 26.9502C23.9327 26.812 23.7271 26.7194 23.5271 26.7687Z" fill="white"/>
<path d="M6.11719 27.8627C6.66736 27.5217 7.204 27.1592 7.73909 26.7949C7.78955 26.8386 7.8431 26.8786 7.89941 26.9152C7.75478 27.5377 7.59632 28.1577 7.4837 28.7873C7.36769 28.691 7.23938 28.6113 7.11045 28.5341C7.16492 28.3571 7.21292 28.178 7.25969 27.999C7.0963 27.8817 6.93137 27.7666 6.75998 27.6614C6.61105 27.7694 6.46397 27.8802 6.32335 27.999C6.25996 27.9457 6.19073 27.8999 6.11719 27.8627ZM6.90552 27.5685C7.03753 27.658 7.16923 27.7482 7.30031 27.8396C7.35662 27.6266 7.40893 27.4125 7.456 27.1974C7.27077 27.3186 7.08676 27.4414 6.90552 27.5685Z" fill="white"/>
<path d="M21.9418 27.6155C22.011 27.59 22.0787 27.5598 22.1436 27.5244C22.4648 28.0303 22.7729 28.5451 23.1209 29.0334C22.987 29.0842 22.8575 29.1457 22.7362 29.2217C22.5498 28.8697 22.3393 28.5312 22.1233 28.1967C22.1211 28.6405 22.1221 29.0839 22.1267 29.5276C22.1051 29.5371 22.0621 29.5562 22.0405 29.5654C21.6965 29.2882 21.3516 29.0125 21.006 28.7374C21.126 29.1137 21.2765 29.4789 21.4211 29.8463C21.3445 29.8759 21.2716 29.9134 21.2011 29.9556C21.042 29.3743 20.862 28.7989 20.666 28.2291C20.7322 28.2023 20.7965 28.1712 20.8593 28.1367C21.2153 28.4244 21.5664 28.7186 21.9353 28.99C21.9522 28.5318 21.9538 28.0734 21.9418 27.6155Z" fill="white"/>
<path d="M8.44512 27.7117C8.64729 27.5914 8.89652 27.5705 9.1233 27.6222C9.45408 27.6979 9.76825 27.8844 9.95995 28.1693C9.89071 28.2358 9.8261 28.3071 9.76517 28.3813C9.73009 28.2838 9.70209 28.1804 9.63655 28.0979C9.48424 27.9019 9.21007 27.8016 8.96945 27.8733C8.72698 27.9394 8.54605 28.1407 8.43928 28.3604C8.34051 28.5598 8.30327 28.8084 8.40974 29.0124C8.5159 29.2152 8.7399 29.3309 8.96145 29.3567C9.06176 29.1755 9.15007 28.9875 9.22977 28.7961C9.34177 28.8687 9.46055 28.9309 9.58824 28.9721C9.46393 29.1739 9.34362 29.3795 9.25069 29.598C8.86299 29.525 8.45866 29.3906 8.18942 29.0866C8.00019 28.8792 7.91095 28.5761 7.99403 28.3035C8.06819 28.0622 8.22696 27.8419 8.44512 27.7117Z" fill="white"/>
<path d="M10.3904 28.2012C10.7052 28.3156 11.0129 28.4516 11.3366 28.539C11.3055 28.608 11.2812 28.6793 11.2612 28.7523C11.0815 28.6732 10.9015 28.5963 10.7206 28.5212C10.6501 28.6969 10.5802 28.8729 10.5144 29.0501C10.7021 29.108 10.8889 29.1689 11.0766 29.228C11.0443 29.2966 11.019 29.3686 11.0009 29.4428C10.8221 29.3624 10.6403 29.2889 10.4562 29.2212C10.379 29.4255 10.3002 29.6292 10.2365 29.8382C10.4199 29.908 10.6083 29.9652 10.7993 30.0117C10.7707 30.0812 10.7449 30.1523 10.7218 30.2243C10.4122 30.0975 10.0996 29.976 9.7793 29.8794C10.007 29.3292 10.2264 28.7738 10.3904 28.2012Z" fill="white"/>
<path d="M19.7285 28.5168C19.8642 28.4857 19.9971 28.443 20.1242 28.3857C20.2953 28.9611 20.479 29.5344 20.7089 30.0895C20.5729 30.1184 20.4424 30.1667 20.3156 30.2224C20.2215 29.8772 20.1064 29.5378 19.9808 29.2027C19.907 28.9704 19.8221 28.7421 19.7285 28.5168Z" fill="white"/>
<path d="M18.1953 28.9481C18.4907 28.9103 18.7646 28.7736 19.063 28.7549C19.2178 28.7432 19.3726 28.838 19.4372 28.978C19.5037 29.129 19.5031 29.3155 19.4086 29.4552C19.3594 29.5371 19.2769 29.5881 19.1984 29.6383C19.4394 29.8881 19.6929 30.1251 19.9431 30.3654C19.7895 30.3879 19.6366 30.4159 19.4901 30.4685C19.2643 30.2395 19.0553 29.9928 18.8196 29.7743C18.8692 30.0503 18.9495 30.3196 19.0316 30.5873C18.8907 30.6079 18.7526 30.6436 18.6169 30.6866C18.5036 30.1011 18.3682 29.5189 18.1953 28.9481ZM18.6406 29.0041C18.6907 29.2334 18.7384 29.4635 18.8027 29.6894C18.9015 29.6638 19.0116 29.6346 19.0683 29.5411C19.1735 29.3912 19.1104 29.1918 19.027 29.0475C18.9369 28.9213 18.7655 28.9801 18.6406 29.0041Z" fill="white"/>
<path d="M16.6289 29.1602C17.0671 29.1165 17.5074 29.0869 17.9416 29.0088C17.9453 29.0845 17.9545 29.1602 17.9677 29.2353C17.8151 29.2325 17.6625 29.2374 17.5111 29.2543C17.5732 29.7817 17.6246 30.3113 17.7191 30.8344C17.5791 30.8375 17.4397 30.8522 17.3028 30.8827C17.2726 30.3488 17.1935 29.8196 17.1163 29.2913C16.9603 29.3205 16.8046 29.3513 16.6489 29.3817C16.6483 29.3073 16.6418 29.2331 16.6289 29.1602Z" fill="white"/>
<path d="M13.8963 29.1084C14.2024 29.1702 14.5289 29.1069 14.8252 29.2189C15.1483 29.3613 15.1382 29.8561 14.8726 30.0503C14.6855 30.1832 14.4415 30.1675 14.2243 30.1481C14.204 30.4078 14.1877 30.6681 14.1871 30.9291C14.0455 30.9029 13.9015 30.894 13.7578 30.8971C13.8261 30.3032 13.8901 29.7072 13.8963 29.1084ZM14.3012 29.277C14.2812 29.5229 14.2606 29.7687 14.2424 30.0149C14.3471 30.0238 14.4615 30.013 14.5437 29.9401C14.6929 29.8217 14.6929 29.6016 14.6391 29.4355C14.5889 29.2973 14.4271 29.281 14.3012 29.277Z" fill="white"/>
<path d="M15.77 29.1934C15.8374 29.1971 15.9048 29.1986 15.9725 29.198C16.2119 29.79 16.4436 30.386 16.7144 30.9648C16.5648 30.955 16.415 30.9617 16.266 30.9759C16.2051 30.8005 16.1423 30.6257 16.0762 30.4525C15.8756 30.4491 15.6746 30.4537 15.474 30.4642C15.4128 30.638 15.3586 30.8143 15.3118 30.9928C15.2291 30.9873 15.1463 30.9897 15.0645 31.0002C15.3171 30.4048 15.5429 29.7986 15.77 29.1934ZM15.5371 30.3048C15.6971 30.3026 15.8571 30.3002 16.0171 30.2977C15.9402 30.0974 15.8642 29.8965 15.778 29.7001C15.6749 29.8915 15.6174 30.1035 15.5371 30.3048Z" fill="white"/>
<path d="M12.3053 29.5858C12.4195 29.528 12.5764 29.5769 12.6302 29.6951C12.6915 29.808 12.6484 29.9655 12.5333 30.0262C12.4161 30.0954 12.2487 30.04 12.1908 29.9182C12.1296 29.8006 12.1868 29.6418 12.3053 29.5858Z" fill="white"/>
</svg>
