<svg width="129" height="102" viewBox="0 0 129 102" fill="none" xmlns="http://www.w3.org/2000/svg">
<path fill-rule="evenodd" clip-rule="evenodd" d="M41.0489 30.8308L64.507 19.1017V82.2229L41.0489 70.4938V30.8308ZM33.7895 21.3479L76.2352 0.125V101.2L33.8144 79.9892H11.7283C5.25092 79.9892 0 74.7383 0 68.2609V33.0761C0 26.5988 5.25092 21.3479 11.7283 21.3479H33.7895ZM29.3311 33.0574H11.7387V68.2422H29.3311V33.0574ZM109.526 0.568632C121.457 12.4378 129 30.5425 129 50.6676C129 70.7927 121.457 88.8973 109.526 100.766L100.284 93.3732C110.521 83.8213 117.272 68.3313 117.272 50.6676C117.272 33.0038 110.521 17.5139 100.284 7.96189L109.526 0.568632ZM105.555 50.6903C105.555 36.5538 100.071 23.7879 91.3331 15.1548L82.0825 22.5553C89.1776 28.9444 93.8268 39.1126 93.8268 50.6903C93.8268 62.268 89.1776 72.4362 82.0825 78.8253L91.3331 86.2258C100.071 77.5927 105.555 64.8267 105.555 50.6903Z" fill="white"/>
</svg>
