<svg width="325" height="326" viewBox="0 0 325 326" fill="none" xmlns="http://www.w3.org/2000/svg">
<circle cx="162.5" cy="162.854" r="162.5" fill="#F2DAE6"/>
<path d="M30.4687 162.854C30.4687 89.9356 89.5812 30.8233 162.5 30.8233C235.419 30.8233 294.531 89.9357 294.531 162.855C294.531 235.773 235.419 294.886 162.5 294.886C89.5811 294.886 30.4687 235.773 30.4687 162.854ZM271.5 162.855C271.5 102.656 222.699 53.8549 162.5 53.8549C102.301 53.8549 53.5004 102.656 53.5004 162.854C53.5004 223.053 102.301 271.854 162.5 271.854C222.699 271.854 271.5 223.053 271.5 162.855Z" fill="white"/>
<path d="M162.5 30.8232C179.839 30.8232 197.007 34.2383 213.026 40.8735C229.045 47.5087 243.6 57.2341 255.86 69.4943C268.12 81.7545 277.846 96.3096 284.481 112.328C291.116 128.347 294.531 145.516 294.531 162.855L271.15 162.855C271.15 148.586 268.34 134.458 262.879 121.276C257.419 108.094 249.416 96.1165 239.327 86.0274C229.238 75.9383 217.261 67.9352 204.079 62.4751C190.897 57.0149 176.768 54.2046 162.5 54.2046L162.5 30.8232Z" fill="#D75995"/>
<path fill-rule="evenodd" clip-rule="evenodd" d="M106.641 162.854C106.641 193.705 131.65 218.714 162.5 218.714C193.35 218.714 218.359 193.705 218.359 162.854C218.359 132.004 193.35 106.995 162.5 106.995C131.65 106.995 106.641 132.004 106.641 162.854ZM208.203 162.854C208.203 188.096 187.741 208.558 162.5 208.558C137.259 208.558 116.797 188.096 116.797 162.854C116.797 137.613 137.259 117.151 162.5 117.151C187.741 117.151 208.203 137.613 208.203 162.854ZM162.502 193.315C165.307 193.315 167.581 191.041 167.581 188.236C167.581 185.432 165.307 183.158 162.502 183.158C159.696 183.158 157.422 185.432 157.422 188.236C157.422 191.041 159.696 193.315 162.502 193.315ZM167.6 132.377H157.441V173.002H167.6V132.377Z" fill="#D75995"/>
</svg>
