<svg width="64" height="65" viewBox="0 0 64 65" fill="none" xmlns="http://www.w3.org/2000/svg">
<circle cx="32" cy="32.3545" r="32" fill="#DAF0F2"/>
<path d="M26.108 36.5385V37.3545H21.5V36.5385H23.342V30.6765C23.342 30.5005 23.348 30.3225 23.36 30.1425L21.83 31.4565C21.778 31.5005 21.726 31.5285 21.674 31.5405C21.622 31.5485 21.574 31.5485 21.53 31.5405C21.486 31.5325 21.444 31.5165 21.404 31.4925C21.368 31.4685 21.34 31.4425 21.32 31.4145L20.984 30.9525L23.546 28.7385H24.416V36.5385H26.108ZM33.5609 33.0585C33.5609 33.8105 33.4789 34.4625 33.3149 35.0145C33.1549 35.5625 32.9349 36.0165 32.6549 36.3765C32.3749 36.7365 32.0429 37.0045 31.6589 37.1805C31.2789 37.3565 30.8709 37.4445 30.4349 37.4445C29.9949 37.4445 29.5849 37.3565 29.2049 37.1805C28.8289 37.0045 28.5009 36.7365 28.2209 36.3765C27.9409 36.0165 27.7209 35.5625 27.5609 35.0145C27.4009 34.4625 27.3209 33.8105 27.3209 33.0585C27.3209 32.3065 27.4009 31.6545 27.5609 31.1025C27.7209 30.5505 27.9409 30.0945 28.2209 29.7345C28.5009 29.3705 28.8289 29.1005 29.2049 28.9245C29.5849 28.7485 29.9949 28.6605 30.4349 28.6605C30.8709 28.6605 31.2789 28.7485 31.6589 28.9245C32.0429 29.1005 32.3749 29.3705 32.6549 29.7345C32.9349 30.0945 33.1549 30.5505 33.3149 31.1025C33.4789 31.6545 33.5609 32.3065 33.5609 33.0585ZM32.4509 33.0585C32.4509 32.4025 32.3949 31.8525 32.2829 31.4085C32.1749 30.9605 32.0269 30.6005 31.8389 30.3285C31.6549 30.0565 31.4409 29.8625 31.1969 29.7465C30.9529 29.6265 30.6989 29.5665 30.4349 29.5665C30.1709 29.5665 29.9169 29.6265 29.6729 29.7465C29.4289 29.8625 29.2149 30.0565 29.0309 30.3285C28.8469 30.6005 28.6989 30.9605 28.5869 31.4085C28.4789 31.8525 28.4249 32.4025 28.4249 33.0585C28.4249 33.7145 28.4789 34.2645 28.5869 34.7085C28.6989 35.1525 28.8469 35.5105 29.0309 35.7825C29.2149 36.0545 29.4289 36.2505 29.6729 36.3705C29.9169 36.4865 30.1709 36.5445 30.4349 36.5445C30.6989 36.5445 30.9529 36.4865 31.1969 36.3705C31.4409 36.2505 31.6549 36.0545 31.8389 35.7825C32.0269 35.5105 32.1749 35.1525 32.2829 34.7085C32.3949 34.2645 32.4509 33.7145 32.4509 33.0585ZM40.5219 33.0585C40.5219 33.8105 40.4399 34.4625 40.2759 35.0145C40.1159 35.5625 39.8959 36.0165 39.6159 36.3765C39.3359 36.7365 39.0039 37.0045 38.6199 37.1805C38.2399 37.3565 37.8319 37.4445 37.3959 37.4445C36.9559 37.4445 36.5459 37.3565 36.1659 37.1805C35.7899 37.0045 35.4619 36.7365 35.1819 36.3765C34.9019 36.0165 34.6819 35.5625 34.5219 35.0145C34.3619 34.4625 34.2819 33.8105 34.2819 33.0585C34.2819 32.3065 34.3619 31.6545 34.5219 31.1025C34.6819 30.5505 34.9019 30.0945 35.1819 29.7345C35.4619 29.3705 35.7899 29.1005 36.1659 28.9245C36.5459 28.7485 36.9559 28.6605 37.3959 28.6605C37.8319 28.6605 38.2399 28.7485 38.6199 28.9245C39.0039 29.1005 39.3359 29.3705 39.6159 29.7345C39.8959 30.0945 40.1159 30.5505 40.2759 31.1025C40.4399 31.6545 40.5219 32.3065 40.5219 33.0585ZM39.4119 33.0585C39.4119 32.4025 39.3559 31.8525 39.2439 31.4085C39.1359 30.9605 38.9879 30.6005 38.7999 30.3285C38.6159 30.0565 38.4019 29.8625 38.1579 29.7465C37.9139 29.6265 37.6599 29.5665 37.3959 29.5665C37.1319 29.5665 36.8779 29.6265 36.6339 29.7465C36.3899 29.8625 36.1759 30.0565 35.9919 30.3285C35.8079 30.6005 35.6599 30.9605 35.5479 31.4085C35.4399 31.8525 35.3859 32.4025 35.3859 33.0585C35.3859 33.7145 35.4399 34.2645 35.5479 34.7085C35.6599 35.1525 35.8079 35.5105 35.9919 35.7825C36.1759 36.0545 36.3899 36.2505 36.6339 36.3705C36.8779 36.4865 37.1319 36.5445 37.3959 36.5445C37.6599 36.5445 37.9139 36.4865 38.1579 36.3705C38.4019 36.2505 38.6159 36.0545 38.7999 35.7825C38.9879 35.5105 39.1359 35.1525 39.2439 34.7085C39.3559 34.2645 39.4119 33.7145 39.4119 33.0585ZM45.2148 30.8325C45.2148 31.1685 45.1628 31.4705 45.0588 31.7385C44.9548 32.0025 44.8148 32.2265 44.6388 32.4105C44.4668 32.5905 44.2648 32.7285 44.0328 32.8245C43.8048 32.9205 43.5628 32.9685 43.3068 32.9685C43.0388 32.9685 42.7888 32.9205 42.5568 32.8245C42.3248 32.7285 42.1228 32.5905 41.9508 32.4105C41.7828 32.2265 41.6508 32.0025 41.5548 31.7385C41.4588 31.4705 41.4108 31.1685 41.4108 30.8325C41.4108 30.4885 41.4588 30.1825 41.5548 29.9145C41.6508 29.6465 41.7828 29.4205 41.9508 29.2365C42.1228 29.0525 42.3248 28.9125 42.5568 28.8165C42.7888 28.7205 43.0388 28.6725 43.3068 28.6725C43.5788 28.6725 43.8308 28.7205 44.0628 28.8165C44.2948 28.9125 44.4968 29.0525 44.6688 29.2365C44.8408 29.4205 44.9748 29.6465 45.0708 29.9145C45.1668 30.1825 45.2148 30.4885 45.2148 30.8325ZM44.3868 30.8325C44.3868 30.5685 44.3588 30.3445 44.3028 30.1605C44.2468 29.9765 44.1688 29.8265 44.0688 29.7105C43.9728 29.5905 43.8588 29.5045 43.7268 29.4525C43.5948 29.4005 43.4548 29.3745 43.3068 29.3745C43.1588 29.3745 43.0208 29.4005 42.8928 29.4525C42.7648 29.5045 42.6528 29.5905 42.5568 29.7105C42.4608 29.8265 42.3848 29.9765 42.3288 30.1605C42.2728 30.3445 42.2448 30.5685 42.2448 30.8325C42.2448 31.0925 42.2728 31.3145 42.3288 31.4985C42.3848 31.6785 42.4608 31.8265 42.5568 31.9425C42.6528 32.0545 42.7648 32.1365 42.8928 32.1885C43.0208 32.2365 43.1588 32.2605 43.3068 32.2605C43.4548 32.2605 43.5948 32.2365 43.7268 32.1885C43.8588 32.1365 43.9728 32.0545 44.0688 31.9425C44.1688 31.8265 44.2468 31.6785 44.3028 31.4985C44.3588 31.3145 44.3868 31.0925 44.3868 30.8325ZM48.2568 28.9365C48.2968 28.8885 48.3428 28.8465 48.3948 28.8105C48.4508 28.7745 48.5248 28.7565 48.6168 28.7565H49.3908L43.1028 37.1805C43.0668 37.2325 43.0208 37.2745 42.9648 37.3065C42.9088 37.3385 42.8408 37.3545 42.7608 37.3545H41.9748L48.2568 28.9365ZM49.9728 35.3265C49.9728 35.6625 49.9208 35.9625 49.8168 36.2265C49.7128 36.4905 49.5728 36.7145 49.3968 36.8985C49.2248 37.0785 49.0228 37.2165 48.7908 37.3125C48.5628 37.4085 48.3208 37.4565 48.0648 37.4565C47.7928 37.4565 47.5408 37.4085 47.3088 37.3125C47.0808 37.2165 46.8808 37.0785 46.7088 36.8985C46.5408 36.7145 46.4088 36.4905 46.3128 36.2265C46.2168 35.9625 46.1688 35.6625 46.1688 35.3265C46.1688 34.9825 46.2168 34.6765 46.3128 34.4085C46.4088 34.1365 46.5408 33.9085 46.7088 33.7245C46.8808 33.5405 47.0808 33.4005 47.3088 33.3045C47.5408 33.2085 47.7928 33.1605 48.0648 33.1605C48.3328 33.1605 48.5828 33.2085 48.8148 33.3045C49.0508 33.4005 49.2528 33.5405 49.4208 33.7245C49.5928 33.9085 49.7268 34.1365 49.8228 34.4085C49.9228 34.6765 49.9728 34.9825 49.9728 35.3265ZM49.1448 35.3265C49.1448 35.0625 49.1168 34.8385 49.0608 34.6545C49.0048 34.4665 48.9268 34.3145 48.8268 34.1985C48.7308 34.0825 48.6168 33.9985 48.4848 33.9465C48.3528 33.8945 48.2128 33.8685 48.0648 33.8685C47.9168 33.8685 47.7768 33.8945 47.6448 33.9465C47.5168 33.9985 47.4048 34.0825 47.3088 34.1985C47.2128 34.3145 47.1368 34.4665 47.0808 34.6545C47.0288 34.8385 47.0028 35.0625 47.0028 35.3265C47.0028 35.5865 47.0288 35.8065 47.0808 35.9865C47.1368 36.1665 47.2128 36.3145 47.3088 36.4305C47.4048 36.5425 47.5168 36.6245 47.6448 36.6765C47.7768 36.7245 47.9168 36.7485 48.0648 36.7485C48.2128 36.7485 48.3528 36.7245 48.4848 36.6765C48.6168 36.6245 48.7308 36.5425 48.8268 36.4305C48.9268 36.3145 49.0048 36.1665 49.0608 35.9865C49.1168 35.8065 49.1448 35.5865 49.1448 35.3265Z" fill="#209FAE"/>
<path d="M6 32.3545C6 17.9951 17.6406 6.35449 32 6.35449C46.3594 6.35449 58 17.9951 58 32.3545C58 46.7139 46.3594 58.3545 32 58.3545C17.6406 58.3545 6 46.7139 6 32.3545ZM53.4645 32.3545C53.4645 20.5 43.8545 10.89 32 10.89C20.1455 10.89 10.5355 20.5 10.5355 32.3545C10.5355 44.209 20.1455 53.819 32 53.819C43.8545 53.819 53.4645 44.209 53.4645 32.3545Z" fill="#209FAE"/>
</svg>
