<svg width="20" height="20" viewBox="0 0 20 20" fill="none" xmlns="http://www.w3.org/2000/svg">
<path d="M5.83203 16.666C5.83203 15.2853 7.69751 14.166 9.9987 14.166C12.2999 14.166 14.1654 15.2853 14.1654 16.666" stroke="#209FAE" stroke-width="2" stroke-linecap="round" stroke-linejoin="round"/>
<path d="M15 11.875C16.4716 12.2608 17.5 13.1418 17.5 14.167" stroke="#209FAE" stroke-width="2" stroke-linecap="round" stroke-linejoin="round"/>
<path d="M5 11.875C3.52841 12.2608 2.5 13.1418 2.5 14.167" stroke="#209FAE" stroke-width="2" stroke-linecap="round" stroke-linejoin="round"/>
<path d="M10 11.666C11.3807 11.666 12.5 10.5467 12.5 9.16602C12.5 7.7853 11.3807 6.66602 10 6.66602C8.61929 6.66602 7.5 7.7853 7.5 9.16602C7.5 10.5467 8.61929 11.666 10 11.666Z" stroke="#209FAE" stroke-width="2" stroke-linecap="round" stroke-linejoin="round"/>
<path d="M15.0013 8.52944C15.5128 8.07167 15.8346 7.40643 15.8346 6.66602C15.8346 5.2853 14.7153 4.16602 13.3346 4.16602C12.6943 4.16602 12.1103 4.40673 11.668 4.80259" stroke="#209FAE" stroke-width="2" stroke-linecap="round" stroke-linejoin="round"/>
<path d="M5.0013 8.52944C4.48984 8.07167 4.16797 7.40643 4.16797 6.66602C4.16797 5.2853 5.28726 4.16602 6.66797 4.16602C7.30826 4.16602 7.89234 4.40673 8.33464 4.80259" stroke="#209FAE" stroke-width="2" stroke-linecap="round" stroke-linejoin="round"/>
</svg>
