<svg width="13" height="13" viewBox="0 0 13 13" fill="none" xmlns="http://www.w3.org/2000/svg">
<path fill-rule="evenodd" clip-rule="evenodd" d="M6.5 0C4.70437 0 3.25 1.45437 3.25 3.25C3.25 5.04563 4.70437 6.5 6.5 6.5C8.29562 6.5 9.75 5.04563 9.75 3.25C9.75 1.45437 8.29562 0 6.5 0ZM8.125 3.25C8.125 2.35625 7.39375 1.625 6.5 1.625C5.60625 1.625 4.875 2.35625 4.875 3.25C4.875 4.14375 5.60625 4.875 6.5 4.875C7.39375 4.875 8.125 4.14375 8.125 3.25ZM11.375 10.5625C11.2125 9.98563 8.69375 8.9375 6.5 8.9375C4.30625 8.9375 1.7875 9.98563 1.625 10.5706V11.375H11.375V10.5625ZM0 10.5625C0 8.40125 4.33063 7.3125 6.5 7.3125C8.66938 7.3125 13 8.40125 13 10.5625V13H0V10.5625Z" fill="#464646"/>
</svg>
