<svg width="16" height="16" viewBox="0 0 16 16" fill="none" xmlns="http://www.w3.org/2000/svg">
<path fill-rule="evenodd" clip-rule="evenodd" d="M8 0C12.4183 0 16 3.58172 16 8C16 12.4183 12.4183 16 8 16C3.58172 16 0 12.4183 0 8C0 3.58172 3.58172 0 8 0ZM1.50229 7.20538C1.71432 7.47676 2.30387 7.82398 3.206 8.10728C3.56122 8.21883 3.95025 8.31689 4.36768 8.40016C4.36499 8.26755 4.36364 8.13413 4.36364 8C4.36364 5.5799 4.80405 3.3944 5.56695 1.92168C3.39209 2.79303 1.79365 4.79781 1.50229 7.20538ZM4.45755 9.89879C3.2897 9.69579 2.28832 9.38856 1.52943 8.9933C1.88245 11.3121 3.4522 13.2311 5.56695 14.0783C5.00994 13.0031 4.62485 11.5479 4.45755 9.89879ZM5.9483 10.0926C6.60073 10.1514 7.28791 10.1818 8 10.1818C8.7006 10.1818 9.39087 10.1421 10.0547 10.0685C9.7267 12.6849 8.81964 14.5455 8 14.5455C7.18289 14.5455 6.27888 12.6963 5.9483 10.0926ZM10.1718 8.5851C9.48127 8.67454 8.74767 8.72727 8 8.72727C7.24056 8.72727 6.51157 8.68967 5.82932 8.61834C5.82198 8.41495 5.81818 8.20871 5.81818 8C5.81818 4.35199 6.97717 1.45455 8 1.45455C9.02283 1.45455 10.1818 4.35199 10.1818 8C10.1818 8.19734 10.1784 8.39249 10.1718 8.5851ZM11.5485 9.83773C11.3846 11.5119 10.9969 12.9898 10.4331 14.0783C12.5851 13.2161 14.1728 11.2441 14.4881 8.87013C13.7171 9.27117 12.7016 9.60652 11.5485 9.83773ZM14.4935 7.17101C14.1512 7.55514 13.0718 8.01145 11.6336 8.33027C11.6354 8.2207 11.6364 8.1106 11.6364 8C11.6364 5.5799 11.196 3.3944 10.4331 1.92168C12.5976 2.78888 14.1911 4.77874 14.4935 7.17101Z" fill="#464646"/>
</svg>
