<svg width="13" height="14" viewBox="0 0 13 14" fill="none" xmlns="http://www.w3.org/2000/svg">
<path d="M11.8963 2.88674L11.7018 2.94839L10.6661 3.04066L10.3736 3.5078L10.1613 3.44036L9.33714 2.69724L9.21756 2.31079L9.05743 1.89868L8.53941 1.43403L7.92828 1.31445L7.91421 1.59416L8.51292 2.17839L8.80587 2.52346L8.47651 2.69559L8.2084 2.61656L7.80663 2.44898L7.82029 2.12501L7.29316 1.9082L7.11814 2.66993L6.58687 2.79034L6.63941 3.21527L7.33164 3.3485L7.45121 2.66952L8.02262 2.75393L8.28825 2.9095H8.71443L9.00613 3.49373L9.77945 4.27822L9.72276 4.58316L9.09922 4.50372L8.02179 5.04782L7.24599 5.97836L7.14503 6.39047H6.86657L6.34771 6.15132L5.84375 6.39047L5.96912 6.92215L6.18841 6.66934L6.57404 6.65734L6.54714 7.13482L6.86657 7.22833L7.18558 7.58665L7.7065 7.44018L8.30149 7.5341L8.99247 7.71988L9.33755 7.76043L9.92261 8.42452L11.0518 9.0886L10.3215 10.4838L9.55064 10.8421L9.25811 11.6394L8.14261 12.3842L8.02386 12.8137C10.8755 12.1268 12.9969 9.56526 12.9969 6.5026C12.996 5.16491 12.5905 3.9199 11.8963 2.88674Z" fill="#464646"/>
<path d="M7.24536 9.89861L6.77202 9.02102L7.20647 8.11572L6.77202 7.9858L6.2842 7.4959L5.20345 7.25344L4.84472 6.50288V6.9485H4.68667L3.75529 5.6857V4.6484L3.07259 3.53828L1.98853 3.73151H1.25825L0.890827 3.4907L1.35962 3.11914L0.892068 3.22713C0.328526 4.18954 0 5.30628 0 6.50246C0 10.091 2.90915 13.0014 6.49811 13.0014C6.7745 13.0014 7.04552 12.977 7.31363 12.9447L7.24578 12.1573C7.24578 12.1573 7.5441 10.988 7.5441 10.9483C7.54368 10.9082 7.24536 9.89861 7.24536 9.89861Z" fill="#464646"/>
<path d="M2.41286 2.09569L3.56725 1.93474L4.09935 1.64304L4.69806 1.81557L5.65468 1.76261L5.98238 1.24748L6.46027 1.3261L7.62088 1.21728L7.94071 0.864756L8.39171 0.563539L9.02973 0.659531L9.26227 0.624362C8.42192 0.228809 7.48682 0 6.49586 0C4.47877 0 2.67518 0.919372 1.48438 2.36298H1.48769L2.41286 2.09569ZM6.7706 0.646291L7.43427 0.280942L7.86044 0.527129L7.24353 0.996745L6.65433 1.05591L6.38911 0.883789L6.7706 0.646291ZM4.80481 0.699666L5.09776 0.821725L5.48131 0.699666L5.69026 1.0617L4.80481 1.29424L4.37905 1.04515C4.37864 1.04515 4.7953 0.777039 4.80481 0.699666Z" fill="#464646"/>
</svg>
