<svg width="115" height="177" viewBox="0 0 115 177" fill="none" xmlns="http://www.w3.org/2000/svg">
<path d="M110 0H5C2.23858 0 0 2.23857 0 5V171C0 173.761 2.23858 176 5 176H110C112.761 176 115 173.761 115 171V5C115 2.23858 112.761 0 110 0Z" fill="url(#paint0_linear_12457:289)"/>
<path d="M115 171.1C115 173.861 112.761 176.1 110 176.1H5C2.23858 176.1 0 173.861 0 171.1V47.8359L115 76.8715V171.1Z" fill="url(#paint1_linear_12457:289)"/>
<path opacity="0.35" d="M73.1932 88.5547H24.2969V114.895H73.1932V88.5547Z" fill="url(#paint2_linear_12457:289)"/>
<path opacity="0.35" d="M102.586 138.15H51.2617V103.799H94.0885L102.586 94.7773V138.15Z" fill="url(#paint3_linear_12457:289)"/>
<path d="M102.566 94.493L80.5547 88.5547L74.6182 110.572L96.6293 116.511L102.566 94.493Z" fill="white"/>
<path d="M99.6334 96.189L82.2383 91.4961L78.9165 103.816L96.3116 108.509L99.6334 96.189Z" fill="#8CCBD5"/>
<path d="M98.0314 102.093L96.3064 108.484L78.918 103.797L80.6536 97.3531C82.0804 97.0868 83.3476 96.6607 85.8286 97.3318C90.205 98.5141 89.6087 100.708 93.9851 101.88C95.8166 102.381 96.9772 102.285 98.0314 102.093Z" fill="#05A4AD"/>
<path d="M93.3718 104.462C93.3505 104.462 93.3292 104.462 93.2973 104.452C91.0505 103.845 90.0602 102.971 89.1126 102.119C88.1649 101.278 87.2704 100.479 85.1408 99.9036C84.3209 99.6799 83.5755 99.5628 82.8834 99.5521C82.7343 99.5521 82.6172 99.4243 82.6172 99.2858C82.6172 99.1367 82.745 99.0195 82.8834 99.0195C83.6288 99.0302 84.4061 99.158 85.2686 99.3923C87.5153 99.9995 88.5056 100.873 89.4533 101.725C90.401 102.566 91.2954 103.365 93.4251 103.94C93.5635 103.983 93.6487 104.122 93.6167 104.271C93.5954 104.377 93.489 104.462 93.3718 104.462Z" fill="#8CCBD5"/>
<path d="M96.9137 106.256L96.7646 106.8C96.3174 106.874 95.8276 106.938 95.2739 106.938C94.5604 106.938 93.7405 106.842 92.729 106.565C90.6952 106.022 89.6942 105.244 88.853 104.499C88.7465 104.403 88.7252 104.233 88.8317 104.126C88.9276 104.02 89.0979 104.009 89.2044 104.105C90.003 104.808 90.9507 105.532 92.8674 106.054C94.5498 106.512 95.6572 106.459 96.7965 106.256C96.8391 106.246 96.8817 106.246 96.9137 106.256Z" fill="#8CCBD5"/>
<path d="M84.0528 101.609C84.0208 101.758 83.8824 101.854 83.744 101.822C82.1254 101.513 81.1032 101.715 80.0384 101.939C79.868 101.971 79.6977 102.014 79.5273 102.046C79.506 102.046 79.4954 102.046 79.4741 102.046C79.4528 102.046 79.4315 102.046 79.4102 102.035L79.5592 101.492C79.687 101.47 79.8148 101.438 79.9319 101.417C81.0074 101.193 82.1254 100.97 83.8504 101.3C83.9782 101.321 84.0741 101.46 84.0528 101.609Z" fill="#8CCBD5"/>
<path d="M72.4242 94.0942L51.2656 103.645L60.8131 124.81L81.9717 115.259L72.4242 94.0942Z" fill="#EBEBEB"/>
<path d="M71.2036 97.3072L54.4805 104.855L59.8236 116.7L76.5467 109.152L71.2036 97.3072Z" fill="#1D7E8D"/>
<path d="M72.2463 106.747L73.0449 108.515L72.0227 108.973L70.0741 104.648L67.6356 105.756L69.7653 110.475L67.774 111.38L66.1981 107.886L64.2921 108.749L65.2398 110.837L62.6629 111.998L62.0134 110.549L60.1606 111.391L61.2574 113.83L59 114.852L59.181 115.257L59.4046 115.768L59.8306 116.684L76.5481 109.143L76.2713 108.536L75.8986 107.705L74.919 105.533L72.2463 106.747Z" fill="white"/>
<path d="M58.4756 106.78C58.7814 106.78 59.0293 106.532 59.0293 106.226C59.0293 105.92 58.7814 105.672 58.4756 105.672C58.1698 105.672 57.9219 105.92 57.9219 106.226C57.9219 106.532 58.1698 106.78 58.4756 106.78Z" fill="white"/>
<path d="M69.0342 100.803C69.34 100.803 69.5879 100.555 69.5879 100.249C69.5879 99.9433 69.34 99.6953 69.0342 99.6953C68.7284 99.6953 68.4805 99.9433 68.4805 100.249C68.4805 100.555 68.7284 100.803 69.0342 100.803Z" fill="white"/>
<path d="M65.8719 104.256C66.1248 104.256 66.3298 104.051 66.3298 103.798C66.3298 103.545 66.1248 103.34 65.8719 103.34C65.6191 103.34 65.4141 103.545 65.4141 103.798C65.4141 104.051 65.6191 104.256 65.8719 104.256Z" fill="white"/>
<path d="M66.5274 94.3287H26.0325C25.0742 94.3287 24.2969 93.5512 24.2969 92.5926V79.0547H73.1932V87.6503C73.1932 91.3357 70.2117 94.3287 66.5274 94.3287Z" fill="white"/>
<path d="M66.5274 89.5949H26.0325C25.0742 89.5949 24.2969 88.8173 24.2969 87.8587V30.8846C24.2969 29.926 25.0742 29.1484 26.0325 29.1484H66.5274C70.2117 29.1484 73.1932 32.1308 73.1932 35.8162V82.9271C73.1932 86.6125 70.2117 89.5949 66.5274 89.5949Z" fill="url(#paint4_linear_12457:289)"/>
<path d="M27.0243 38.0661H21.5831C21.2211 38.0661 20.9336 37.7785 20.9336 37.4164V37.0755C20.9336 36.7134 21.2211 36.4258 21.5831 36.4258H27.0243C27.3864 36.4258 27.6739 36.7134 27.6739 37.0755V37.4164C27.6739 37.7785 27.3864 38.0661 27.0243 38.0661Z" fill="white"/>
<path d="M27.0243 49.1325H21.5831C21.2211 49.1325 20.9336 48.8449 20.9336 48.4828V48.1419C20.9336 47.7798 21.2211 47.4922 21.5831 47.4922H27.0243C27.3864 47.4922 27.6739 47.7798 27.6739 48.1419V48.4828C27.6739 48.8449 27.3864 49.1325 27.0243 49.1325Z" fill="white"/>
<path d="M27.0243 60.1989H21.5831C21.2211 60.1989 20.9336 59.9113 20.9336 59.5492V59.2083C20.9336 58.8462 21.2211 58.5586 21.5831 58.5586H27.0243C27.3864 58.5586 27.6739 58.8462 27.6739 59.2083V59.5492C27.6739 59.9007 27.3864 60.1989 27.0243 60.1989Z" fill="white"/>
<path d="M27.0243 71.2614H21.5831C21.2211 71.2614 20.9336 70.9738 20.9336 70.6117V70.2708C20.9336 69.9087 21.2211 69.6211 21.5831 69.6211H27.0243C27.3864 69.6211 27.6739 69.9087 27.6739 70.2708V70.6117C27.6739 70.9738 27.3864 71.2614 27.0243 71.2614Z" fill="white"/>
<path d="M27.0243 82.3239H21.5831C21.2211 82.3239 20.9336 82.0363 20.9336 81.6742V81.3333C20.9336 80.9712 21.2211 80.6836 21.5831 80.6836H27.0243C27.3864 80.6836 27.6739 80.9712 27.6739 81.3333V81.6742C27.6739 82.0257 27.3864 82.3239 27.0243 82.3239Z" fill="white"/>
<path d="M79.4688 36.7437L81.7261 37.6491L83.2063 33.9531C83.2914 33.7294 83.185 33.4738 82.9613 33.3779L81.5238 32.8027C81.3002 32.7175 81.0447 32.824 80.9489 33.0477L79.4688 36.7437Z" fill="white"/>
<path d="M83.9447 39.1541C83.7957 38.8026 83.5188 38.5364 83.1674 38.3979L82.4646 38.1103L83.1781 36.3315C83.3059 36.012 82.5498 35.4049 81.485 34.9788C80.4202 34.5527 79.4619 34.4675 79.3234 34.7871L65.6193 68.9247L65.2041 74.7723C65.1828 75.0492 65.5341 75.1983 65.7152 74.9746L69.4633 70.4585L82.1026 39.005L82.8054 39.2926C82.9225 39.3352 83.0077 39.4311 83.0609 39.5376C83.1142 39.6547 83.1142 39.7719 83.0609 39.8891L79.2915 49.2836C79.1957 49.5285 79.3128 49.8055 79.5577 49.912C79.611 49.9333 79.6749 49.944 79.7387 49.944C79.9304 49.944 80.1114 49.8268 80.186 49.6457L83.9554 40.2512C84.0938 39.8891 84.0938 39.5056 83.9447 39.1541Z" fill="#17616E"/>
<path d="M35.0865 91.4219V99.453L31.6897 96.0339L28.293 99.453V91.4219H35.0865Z" fill="#D1D1D1"/>
<path d="M41.75 40.0664L45.9773 51.7296L53.4097 44.295L41.75 40.0664Z" fill="#8CCBD5"/>
<path d="M57.648 40.0664L53.4207 51.7296L45.9883 44.295L57.648 40.0664Z" fill="#8CCBD5"/>
<path d="M41.75 55.9377L45.9773 44.2852L53.4097 51.7198L41.75 55.9377Z" fill="#8CCBD5"/>
<path d="M57.648 55.9377L53.4207 44.2852L45.9883 51.7198L57.648 55.9377Z" fill="#8CCBD5"/>
<path d="M49.7055 34.0625L45.1055 48.0051H54.2948L49.7055 34.0625Z" fill="white"/>
<path d="M49.7055 61.9465L45.1055 48.0039H54.2948L49.7055 61.9465Z" fill="white"/>
<path d="M35.7617 48.0048L49.7001 52.6062V43.4141L35.7617 48.0048Z" fill="white"/>
<path d="M63.6376 48.0048L49.6992 52.6062V43.4141L63.6376 48.0048Z" fill="white"/>
<path d="M49.7068 53.4482C52.7119 53.4482 55.148 51.0113 55.148 48.0053C55.148 44.9993 52.7119 42.5625 49.7068 42.5625C46.7017 42.5625 44.2656 44.9993 44.2656 48.0053C44.2656 51.0113 46.7017 53.4482 49.7068 53.4482Z" fill="#8CCBD5"/>
<path d="M49.7038 51.57C51.6739 51.57 53.271 49.9725 53.271 48.0018C53.271 46.0311 51.6739 44.4336 49.7038 44.4336C47.7338 44.4336 46.1367 46.0311 46.1367 48.0018C46.1367 49.9725 47.7338 51.57 49.7038 51.57Z" fill="white"/>
<path d="M47.1939 72.0592C47.2898 72.7302 47.8009 73.2095 48.312 73.1243L48.493 74.3066C47.9819 74.3812 47.6412 74.9883 47.737 75.6593C47.8328 76.3304 48.3333 76.8097 48.855 76.7245L49.0361 77.9068C48.5249 77.9813 48.1842 78.5884 48.2801 79.2595C48.3759 79.9305 48.8764 80.4098 49.3981 80.3246L49.5791 81.5389L47.9074 81.7945C47.8328 81.2726 47.1513 80.953 46.3847 81.0702C45.6287 81.1874 45.0749 81.6986 45.1495 82.2099L43.5097 82.4549C43.4351 81.933 42.7537 81.6134 41.987 81.7306C41.231 81.8478 40.6773 82.359 40.7518 82.8703L39.112 83.1153C39.0374 82.5934 38.356 82.2738 37.6 82.391C36.8439 82.5081 36.2902 83.0194 36.3648 83.5307L34.693 83.7863L34.512 82.5721C35.0231 82.4975 35.3638 81.8904 35.268 81.2193C35.1722 80.5483 34.6717 80.069 34.15 80.1542L33.9689 78.9719C34.48 78.8973 34.8208 78.2902 34.7249 77.6192C34.6291 76.9481 34.1287 76.4688 33.6069 76.554L33.4259 75.3717C33.937 75.2972 34.2777 74.69 34.1819 74.019C34.086 73.348 33.5856 72.8687 33.0638 72.9539L32.8828 71.7396L34.5546 71.484C34.6291 72.0059 35.3106 72.3254 36.0773 72.2083C36.8333 72.0911 37.387 71.5799 37.3125 71.0686L38.9523 70.8236C39.0268 71.3455 39.7083 71.6651 40.4643 71.5479C41.2203 71.4307 41.774 70.9195 41.6995 70.4082L43.3393 70.1632C43.4138 70.6851 44.0953 71.0047 44.862 70.8875C45.618 70.7703 46.1717 70.2591 46.0972 69.7478L47.7689 69.4922L47.95 70.7064C47.4388 70.7917 47.0981 71.3881 47.1939 72.0592Z" fill="#D1D1D1"/>
<path d="M45.2835 72.8504L36.2383 74.2109L37.1725 80.4255L46.2177 79.065L45.2835 72.8504Z" fill="white"/>
<path d="M39.2598 78.2003C40.236 78.2003 41.0274 77.4087 41.0274 76.4322C41.0274 75.4557 40.236 74.6641 39.2598 74.6641C38.2836 74.6641 37.4922 75.4557 37.4922 76.4322C37.4922 77.4087 38.2836 78.2003 39.2598 78.2003Z" fill="#D1D1D1"/>
<path d="M65.621 68.9089L69.4648 70.4531L69.8776 69.4251L66.0337 67.8809L65.621 68.9089Z" fill="white"/>
<defs>
<linearGradient id="paint0_linear_12457:289" x1="57.5034" y1="0" x2="57.5034" y2="176.003" gradientUnits="userSpaceOnUse">
<stop offset="0.0035243" stop-color="#4BBECA"/>
<stop offset="0.2707" stop-color="#22A0AC"/>
</linearGradient>
<linearGradient id="paint1_linear_12457:289" x1="65.2261" y1="57.001" x2="47.5428" y2="182.786" gradientUnits="userSpaceOnUse">
<stop offset="0.0035243" stop-color="#4BBECA"/>
<stop offset="0.1781" stop-color="#43B8C4"/>
<stop offset="0.454" stop-color="#2CA7B3"/>
<stop offset="0.5529" stop-color="#22A0AC"/>
</linearGradient>
<linearGradient id="paint2_linear_12457:289" x1="48.7471" y1="88.551" x2="48.7471" y2="114.896" gradientUnits="userSpaceOnUse">
<stop stop-color="#016C7F"/>
<stop offset="0.8025" stop-color="#016C7F" stop-opacity="0"/>
</linearGradient>
<linearGradient id="paint3_linear_12457:289" x1="76.9233" y1="94.7734" x2="76.9233" y2="138.15" gradientUnits="userSpaceOnUse">
<stop stop-color="#016C7F"/>
<stop offset="0.9118" stop-color="#016C7F" stop-opacity="0"/>
</linearGradient>
<linearGradient id="paint4_linear_12457:289" x1="48.7471" y1="29.1479" x2="48.7471" y2="89.5942" gradientUnits="userSpaceOnUse">
<stop stop-color="#16919E"/>
<stop offset="0.9965" stop-color="#016C7F"/>
</linearGradient>
</defs>
</svg>
