<svg width="115" height="176" viewBox="0 0 115 176" fill="none" xmlns="http://www.w3.org/2000/svg">
<path d="M8.25586 68.8516H24.3824C25.2158 68.8516 25.7104 69.7829 25.2438 70.4735L23.7067 72.7474C23.0781 73.6774 24.1542 74.811 25.1156 74.2315L26.488 73.4043C28.4916 72.1965 30.705 74.615 29.3248 76.504L23.0393 85.1072C22.7692 85.4768 22.8125 85.9891 23.1408 86.3082L24.7041 87.8276C25.6452 88.7423 24.5451 90.2599 23.383 89.6501L16.9091 86.2529C16.0978 85.8271 15.3881 85.2311 14.8287 84.5055L11.8406 80.6297C10.9415 79.4636 11.1488 77.7909 12.3053 76.8795L12.4121 76.7953C13.6995 75.7807 12.982 73.7113 11.343 73.7113H10.7785C10.1084 73.7113 9.47128 73.4204 9.03233 72.9141L7.3089 70.9261C6.60508 70.1144 7.18163 68.8516 8.25586 68.8516Z" fill="#8DCED6"/>
<path d="M33.0206 72.3023L35.8437 68.441C36.2458 67.891 35.8529 67.1172 35.1716 67.1172H29.5254C28.8441 67.1172 28.4512 67.891 28.8534 68.441L31.6764 72.3023C32.009 72.7572 32.688 72.7572 33.0206 72.3023Z" fill="#8DCED6"/>
<path d="M91.2996 99.1332L94.9753 94.1056C95.4582 93.445 94.9865 92.5156 94.1682 92.5156H86.611C85.7927 92.5156 85.3209 93.445 85.8039 94.1056L89.4795 99.1332C89.93 99.7492 90.8493 99.7492 91.2996 99.1332Z" fill="#8DCED6"/>
<path d="M27.1154 91.3359H36.5328C37.2814 91.3359 37.9637 91.7651 38.2878 92.4399L39.2851 94.5157C39.4459 94.8504 39.7421 95.1004 40.099 95.2027L41.134 95.4992C41.6317 95.6417 41.8929 96.1872 41.692 96.6643L39.1365 102.734C39.0176 103.016 38.8662 103.284 38.6855 103.532L35.6622 107.674C35.4004 108.032 35.301 108.484 35.388 108.919L35.7177 110.57C35.9152 111.558 34.7885 112.268 33.9817 111.664L31.8392 110.059C31.3279 109.676 30.955 109.137 30.7767 108.524L28.9707 102.311C28.8598 101.93 28.6769 101.574 28.4316 101.262L24.8627 96.7194C24.1471 95.8086 24.0542 94.5553 24.6274 93.5489L25.2807 92.4023C25.6564 91.7429 26.3568 91.3359 27.1154 91.3359Z" fill="#8DCED6"/>
<path d="M48.3662 87.6133H58.0443C58.3937 87.6133 58.7218 87.7816 58.9256 88.0654L62.8395 93.5156C63.2166 94.0407 63.3735 94.6925 63.2767 95.3315L62.38 101.25C62.3318 101.568 62.211 101.87 62.0269 102.134L58.9242 106.577C57.9792 107.93 55.8791 107.532 55.4944 105.927L53.5034 97.6197C53.4018 97.1961 53.0231 96.8973 52.5874 96.8973H47.7874C46.967 96.8973 46.2426 96.3616 46.0024 95.5771L45.2911 93.2543C45.0303 92.4023 45.1403 91.4799 45.5945 90.7133L46.9542 88.4179C47.2497 87.9192 47.7865 87.6133 48.3662 87.6133Z" fill="#8DCED6"/>
<path d="M57.6806 64.5977H85.7939C86.4735 64.5977 87.1392 64.7903 87.7137 65.1531L89.7983 66.4697C90.2627 66.763 90.8007 66.9186 91.35 66.9186H98.9488C100.431 66.9186 100.921 68.9046 99.6094 69.5944L93.6129 72.7472C92.9438 73.099 92.5879 73.8509 92.7402 74.5914L92.8015 74.8901C92.9616 75.6683 92.5553 76.4525 91.8272 76.7706L86.53 79.085C86.1774 79.2391 85.9713 79.6099 86.0268 79.9908L86.1668 80.9535C86.2641 81.6225 86.0697 82.3009 85.6329 82.8168L79.6846 89.843C78.855 90.823 77.4325 91.0473 76.3417 90.3699L74.887 89.4667C74.322 89.1159 73.5878 89.2137 73.1342 89.7L69.6936 93.3886C68.4556 94.716 66.3042 94.5456 65.2904 93.0399L58.3734 82.7664C58.0344 82.2629 57.5072 81.917 56.9104 81.8064L49.0532 80.3515C48.1781 80.1894 47.3774 79.7529 46.767 79.1053L42.5351 74.6141C41.4942 73.5094 41.9394 71.6986 43.3738 71.2025L53.1651 67.816C53.4924 67.7028 53.7898 67.5165 54.0345 67.2712L56.0103 65.2906C56.4529 64.847 57.0538 64.5977 57.6806 64.5977Z" fill="#8DCED6"/>
<path d="M87.9891 86.6426C87.3345 86.1488 87.2042 85.218 87.6979 84.5635L89.8934 81.6531C90.3872 80.9985 91.318 80.8682 91.9725 81.362C92.6271 81.8558 92.7574 82.7866 92.2636 83.4411L90.0681 86.3515C89.5744 87.0059 88.6435 87.1363 87.9891 86.6426Z" fill="#8DCED6"/>
<path d="M78.3062 95.3477L83.3693 100.13C83.9682 100.695 84.9078 100.018 84.5609 99.2712L81.6567 93.0151C81.3012 92.2491 80.3498 91.9753 79.6414 92.4353L78.5034 93.1742C77.7492 93.6638 77.6525 94.7303 78.3062 95.3477Z" fill="#8DCED6"/>
<path d="M90.6097 104.249H86.3219C85.5875 104.249 84.9922 103.654 84.9922 102.92C84.9922 102.185 85.5875 101.59 86.3219 101.59H90.6097C91.344 101.59 91.9394 102.185 91.9394 102.92C91.9395 103.654 91.3442 104.249 90.6097 104.249Z" fill="#8DCED6"/>
<path d="M103.337 95.5776L101.427 98.1905C101.177 98.5331 100.778 98.7357 100.353 98.7357H96.2072C95.3932 98.7357 94.924 97.8112 95.4044 97.1542L97.3152 94.5411C97.5657 94.1985 97.9646 93.9961 98.3889 93.9961H102.535C103.348 93.9962 103.818 94.9206 103.337 95.5776Z" fill="#8DCED6"/>
<path d="M105.986 112.351L103.764 108.917C103.518 108.538 103.097 108.309 102.646 108.309H102.017H97.7783H97.1502C96.6985 108.309 96.2774 108.538 96.0321 108.917L93.8096 112.351C93.6177 112.648 93.5156 112.994 93.5156 113.347V115.144C93.5156 116.43 94.9555 117.191 96.0182 116.467L98.2451 114.948C98.4231 114.827 98.6335 114.762 98.849 114.762H100.947C101.162 114.762 101.372 114.827 101.551 114.948L103.777 116.467C104.84 117.191 106.28 116.43 106.28 115.144V113.347C106.28 112.993 106.178 112.648 105.986 112.351Z" fill="#8DCED6"/>
<path d="M100.764 90.7124C100.764 93.8741 96.8175 97.8095 96.8175 97.8095C96.8175 97.8095 92.8711 93.8518 92.8711 90.7124C92.8711 88.5323 94.638 86.7656 96.8175 86.7656C98.9971 86.7656 100.764 88.5323 100.764 90.7124Z" fill="#14646E"/>
<path d="M98.7111 90.7017C98.7111 89.656 97.8636 88.8086 96.8185 88.8086C95.7733 88.8086 94.9258 89.656 94.9258 90.7017C94.9258 91.7472 95.7733 92.5948 96.8185 92.5948C97.8636 92.5947 98.7111 91.7471 98.7111 90.7017Z" fill="#ECECEC"/>
<path d="M95.3773 63.9467C95.3773 67.1085 91.4308 71.0438 91.4308 71.0438C91.4308 71.0438 87.4844 67.0862 87.4844 63.9467C87.4844 61.7667 89.2512 60 91.4308 60C93.6104 60 95.3773 61.7667 95.3773 63.9467Z" fill="#14646E"/>
<path d="M93.3244 63.9361C93.3244 62.8904 92.4769 62.043 91.4317 62.043C90.3866 62.043 89.5391 62.8904 89.5391 63.9361C89.5391 64.9816 90.3866 65.8291 91.4317 65.8291C92.4768 65.829 93.3244 64.9814 93.3244 63.9361Z" fill="#ECECEC"/>
<path d="M34.1976 88.8764C34.1976 92.0382 30.2511 95.9735 30.2511 95.9735C30.2511 95.9735 26.3047 92.0159 26.3047 88.8764C26.3047 86.6963 28.0716 84.9297 30.2511 84.9297C32.4308 84.9297 34.1976 86.6964 34.1976 88.8764Z" fill="#14646E"/>
<path d="M32.1447 88.8657C32.1447 87.82 31.2972 86.9727 30.252 86.9727C29.2069 86.9727 28.3594 87.82 28.3594 88.8657C28.3594 89.9112 29.2069 90.7588 30.252 90.7588C31.2972 90.7587 32.1447 89.9111 32.1447 88.8657Z" fill="#ECECEC"/>
<path d="M36.1919 45.8881L27.1809 48.7232L19.8102 43.2294C19.4603 42.9686 19.5531 42.4211 19.9693 42.2901L24.7029 40.8008C25.1132 40.6717 25.5574 40.7048 25.9441 40.8932L36.1919 45.8881Z" fill="#CCCCCC"/>
<path d="M68.0621 41.3512L48.4572 24.9113C48.128 24.6352 48.2337 24.1047 48.6434 23.9757L54.3496 22.1804C54.6542 22.0845 54.9854 22.1245 55.2585 22.2901L80.3242 37.4932L68.0621 41.3512Z" fill="#CCCCCC"/>
<path d="M100.969 34.8357C101.52 36.5877 100.547 38.4547 98.7947 39.0058L40.755 57.2665C39.8209 57.5604 38.8026 57.3878 38.0176 56.8026L27.1814 48.7256L88.9 29.3077C90.0424 28.9482 91.2787 29.0354 92.3594 29.5516L99.2299 32.8331C100.062 33.2305 100.692 33.9559 100.969 34.8357Z" fill="white"/>
<path d="M68.8202 45.3419L62.3395 69.379C62.2277 69.7937 62.6181 70.1683 63.0279 70.0394L68.7341 68.2441C69.0387 68.1483 69.2874 67.9258 69.4164 67.6337L80.7055 42.0773C80.9221 41.5869 80.4597 41.07 79.9483 41.2309L69.6581 44.4685C69.2481 44.5974 68.9321 44.9267 68.8202 45.3419Z" fill="#CCCCCC"/>
<path d="M41.9624 50.5566C42.6482 50.4935 43.1529 49.8864 43.0898 49.2007C43.0267 48.5149 42.4196 48.0101 41.7339 48.0732C41.0481 48.1363 40.5433 48.7434 40.6065 49.4292C40.6696 50.1149 41.2766 50.6197 41.9624 50.5566Z" fill="#14646E"/>
<path d="M50.0991 48.0019C50.7849 47.9388 51.2896 47.3317 51.2265 46.646C51.1634 45.9602 50.5564 45.4554 49.8706 45.5185C49.1848 45.5817 48.6801 46.1887 48.7432 46.8745C48.8063 47.5603 49.4134 48.065 50.0991 48.0019Z" fill="#14646E"/>
<path d="M58.2319 45.4394C58.9177 45.3763 59.4225 44.7692 59.3594 44.0835C59.2962 43.3977 58.6892 42.8929 58.0034 42.956C57.3176 43.0192 56.8129 43.6262 56.876 44.312C56.9391 44.9978 57.5462 45.5025 58.2319 45.4394Z" fill="#14646E"/>
<path d="M97.3968 31.9557L88.542 34.741C87.8748 34.9517 87.1636 34.581 86.954 33.9136C86.7443 33.2463 87.1151 32.5362 87.7814 32.3266L94.0465 30.3554L97.3968 31.9557Z" fill="#CCCCCC"/>
<path d="M98.7952 39.0022L98.1029 39.2195C97.5554 38.6344 97.1271 37.92 96.8708 37.1044C96.3133 35.3335 96.6929 33.4913 97.7316 32.1141L99.2305 32.8302C100.062 33.227 100.692 33.9528 100.969 34.8325C101.521 36.5848 100.548 38.4518 98.7952 39.0022Z" fill="#CCCCCC"/>
<path fill-rule="evenodd" clip-rule="evenodd" d="M20.9694 56.9207C20.9992 57.2432 20.8675 57.5687 20.6753 57.6476L5.35109 63.9386C5.15885 64.0176 4.97884 63.82 4.94902 63.4975C4.9192 63.1749 5.05087 62.8494 5.24311 62.7705L20.5673 56.4795C20.7595 56.4006 20.9396 56.5981 20.9694 56.9207Z" fill="white"/>
<path fill-rule="evenodd" clip-rule="evenodd" d="M22.6686 59.7839C22.6984 60.1065 22.5667 60.432 22.3745 60.5109L7.0502 66.802C6.85796 66.881 6.67795 66.6834 6.64813 66.3609C6.61831 66.0383 6.74998 65.7128 6.94222 65.6339L22.2665 59.3428C22.4588 59.2638 22.6388 59.4614 22.6686 59.7839Z" fill="white"/>
<path fill-rule="evenodd" clip-rule="evenodd" d="M23.9616 55.6902C23.9914 56.0127 23.8597 56.3382 23.6675 56.4171L22.0683 57.0738C21.8761 57.1527 21.696 56.9552 21.6662 56.6326C21.6364 56.31 21.7681 55.9846 21.9603 55.9056L23.5595 55.249C23.7517 55.1701 23.9317 55.3676 23.9616 55.6902Z" fill="white"/>
<path fill-rule="evenodd" clip-rule="evenodd" d="M26.6334 54.5964C26.6633 54.919 26.5316 55.2444 26.3394 55.3234L25.0952 55.8343C24.903 55.9133 24.7229 55.7158 24.6931 55.3932C24.6633 55.0707 24.7949 54.7452 24.9872 54.6662L26.2313 54.1553C26.4236 54.0763 26.6036 54.2738 26.6334 54.5964Z" fill="white"/>
<path d="M110 0H5C2.23858 0 0 2.23858 0 5V170C0 172.761 2.23858 175 5 175H110C112.761 175 115 172.761 115 170V5C115 2.23858 112.761 0 110 0Z" fill="url(#paint0_linear_12457:290)"/>
<path d="M115 68.6399V170.949C115 173.731 112.731 175.977 109.95 175.949L4.94967 174.892C2.20802 174.865 0 172.634 0 169.893V68.6399C16.4088 57.5 36.2037 51 57.5 51C78.7963 51 98.5912 57.5 115 68.6399Z" fill="url(#paint1_linear_12457:290)"/>
<g clip-path="url(#clip0_12457:290)">
<path d="M-4.29036 71.0781H15.871C16.9187 71.0781 17.5365 72.2471 16.9455 73.107L15.0248 75.9554C14.2323 77.1243 15.5889 78.5351 16.7843 77.8096L18.5036 76.775C21.0154 75.2702 23.7824 78.2933 22.0497 80.658L14.192 91.4202C13.8562 91.877 13.9099 92.522 14.3129 92.9251L16.2739 94.8195C17.4559 95.9616 16.0724 97.8561 14.6218 97.1036L6.52234 92.8579C5.50152 92.3204 4.61501 91.5815 3.91655 90.6678L0.182473 85.8174C-0.945809 84.3529 -0.67717 82.2703 0.760047 81.1283L0.894366 81.0208C2.5062 79.7578 1.60626 77.1646 -0.448827 77.1646H-1.16072C-1.9935 77.1646 -2.79942 76.8019 -3.35012 76.1704L-5.49923 73.6847C-6.35888 72.6636 -5.63355 71.0781 -4.29036 71.0781Z" fill="url(#paint2_linear_12457:290)"/>
<path d="M26.7024 75.3707L30.1947 70.5875C30.7051 69.8888 30.2082 68.8945 29.3351 68.8945H22.3505C21.4774 68.8945 20.9804 69.8754 21.4908 70.5875L24.9831 75.3707C25.413 75.9484 26.2726 75.9484 26.7024 75.3707Z" fill="#B8E0E9"/>
<path d="M99.5926 108.933L104.146 102.712C104.764 101.866 104.159 100.684 103.112 100.684H93.7497C92.702 100.684 92.111 101.866 92.7155 102.712L97.2689 108.933C97.8465 109.726 99.0285 109.726 99.5926 108.933Z" fill="#8ECFD5"/>
<path d="M19.2989 99.207H31.0787C32.0189 99.207 32.8651 99.7445 33.2681 100.591L34.5173 103.184C34.7187 103.601 35.0948 103.91 35.5381 104.044L36.8276 104.42C37.4454 104.595 37.7812 105.28 37.526 105.885L34.3292 113.476C34.1815 113.825 33.9934 114.161 33.7651 114.47L29.9773 119.657C29.6549 120.1 29.5206 120.664 29.628 121.215L30.0444 123.284C30.2862 124.52 28.8759 125.407 27.8685 124.655L25.1821 122.653C24.5373 122.169 24.0807 121.497 23.8523 120.731L21.5957 112.952C21.4614 112.482 21.2331 112.025 20.9242 111.635L16.4648 105.952C15.5648 104.81 15.4574 103.238 16.1692 101.988L16.9886 100.551C17.4721 99.7176 18.3587 99.207 19.2989 99.207Z" fill="#8ECFD5"/>
<path d="M45.8767 94.5391H57.9789C58.4221 94.5391 58.8251 94.754 59.0803 95.1034L63.9695 101.929C64.4396 102.587 64.6411 103.407 64.5202 104.2L63.4054 111.603C63.3516 112.006 63.1904 112.382 62.9621 112.705L59.0803 118.267C57.8983 119.96 55.2656 119.463 54.7955 117.461L52.2971 107.061C52.1763 106.537 51.6927 106.161 51.1554 106.161H45.1514C44.1305 106.161 43.2172 105.489 42.9217 104.509L42.0351 101.606C41.7128 100.545 41.8471 99.3895 42.4112 98.4221L44.1171 95.5468C44.4798 94.9287 45.1514 94.5391 45.8767 94.5391Z" fill="#8ECFD5"/>
<path d="M57.8894 65.5977H93.0542C93.9004 65.5977 94.7332 65.8395 95.4585 66.2963L98.0643 67.949C98.6419 68.3117 99.3135 68.5133 100.012 68.5133H109.522C111.375 68.5133 111.993 70.9989 110.355 71.8588L102.86 75.809C102.027 76.2524 101.584 77.1929 101.772 78.12L101.852 78.4962C102.054 79.4636 101.543 80.4444 100.63 80.8475L94.0079 83.7497C93.5646 83.9378 93.3094 84.408 93.3766 84.8783L93.5512 86.0875C93.6721 86.9206 93.4303 87.767 92.8796 88.4254L85.4383 97.2125C84.4041 98.4352 82.6176 98.7173 81.261 97.8709L79.4074 96.7154C78.6955 96.272 77.7821 96.3929 77.218 97.011L72.9198 101.62C71.3751 103.286 68.6753 103.071 67.4127 101.19L58.7625 88.3313C58.3327 87.6998 57.6745 87.2699 56.9358 87.1355L47.1036 85.3217C46.0156 85.1201 45.0082 84.5692 44.2426 83.7631L38.9504 78.1469C37.6475 76.7629 38.2116 74.5057 39.9981 73.8742L52.248 69.6419C52.651 69.4941 53.0271 69.2657 53.336 68.9567L55.8075 66.4844C56.3582 65.9067 57.1104 65.5977 57.8894 65.5977Z" fill="url(#paint3_linear_12457:290)"/>
<path d="M95.5321 93.3978L95.3441 93.25C94.5785 92.6723 94.4307 91.5839 95.0083 90.8181L97.8962 86.9888C98.4737 86.223 99.5617 86.0752 100.327 86.6529L100.515 86.8007C101.281 87.3785 101.429 88.4668 100.851 89.2326L97.9633 93.0619C97.3857 93.8277 96.2977 93.9755 95.5321 93.3978Z" fill="#8ECFD5"/>
<path d="M83.3311 104.22L89.6575 110.199C90.4097 110.912 91.5783 110.065 91.1485 109.125L87.5219 101.291C87.0786 100.337 85.8832 99.9881 84.9967 100.566L83.5729 101.493C82.6326 102.124 82.5118 103.455 83.3311 104.22Z" fill="#8ECFD5"/>
<path d="M98.8255 115.356H93.2378C92.3781 115.356 91.6797 114.657 91.6797 113.797V113.582C91.6797 112.722 92.3781 112.023 93.2378 112.023H98.812C99.6717 112.023 100.37 112.722 100.37 113.582V113.797C100.384 114.67 99.6851 115.356 98.8255 115.356Z" fill="#8ECFD5"/>
<path d="M114.631 104.51L112.24 107.775C111.931 108.205 111.434 108.46 110.896 108.46H105.712C104.691 108.46 104.1 107.305 104.704 106.485L107.095 103.22C107.404 102.79 107.901 102.535 108.438 102.535H113.623C114.644 102.535 115.235 103.691 114.631 104.51Z" fill="#8ECFD5"/>
<path d="M117.936 125.499L115.156 121.199C114.847 120.729 114.323 120.434 113.759 120.434H112.98H107.675H106.895C106.331 120.434 105.807 120.716 105.499 121.199L102.718 125.499C102.476 125.875 102.355 126.305 102.355 126.748V128.992C102.355 130.605 104.155 131.559 105.485 130.645L108.266 128.75C108.494 128.603 108.749 128.522 109.018 128.522H111.637C111.906 128.522 112.174 128.603 112.389 128.75L115.17 130.645C116.499 131.545 118.299 130.605 118.299 128.992V126.748C118.313 126.305 118.178 125.875 117.936 125.499Z" fill="#8ECFD5"/>
<path d="M73.0471 92.025C73.0471 96.0424 68.0236 101.054 68.0236 101.054C68.0236 101.054 63 96.0155 63 92.025C63 89.2572 65.2431 87 68.0236 87C70.804 87 73.0471 89.2572 73.0471 92.025Z" fill="#17616E"/>
<path d="M70.4297 92.0144C70.4297 90.6843 69.3552 89.6094 68.0254 89.6094C66.6957 89.6094 65.6211 90.6843 65.6211 92.0144C65.6211 93.3446 66.6957 94.4195 68.0254 94.4195C69.3552 94.4195 70.4297 93.3446 70.4297 92.0144Z" fill="#EBEBEB"/>
<path d="M95.0471 63.7516C95.0471 67.769 90.0235 72.7806 90.0235 72.7806C90.0235 72.7806 85 67.7421 85 63.7516C85 60.9838 87.2431 58.7266 90.0235 58.7266C92.804 58.7266 95.0471 60.9704 95.0471 63.7516Z" fill="#17616E"/>
<path d="M92.4375 63.741C92.4375 62.4108 91.363 61.3359 90.0332 61.3359C88.7035 61.3359 87.6289 62.4108 87.6289 63.741C87.6289 65.0711 88.7035 66.146 90.0332 66.146C91.363 66.146 92.4375 65.0711 92.4375 63.741Z" fill="#EBEBEB"/>
<path d="M31.0822 93.8727C31.0822 97.8901 26.0587 102.902 26.0587 102.902C26.0587 102.902 21.0352 97.8632 21.0352 93.8727C21.0352 91.1049 23.2783 88.8477 26.0587 88.8477C28.8391 88.8477 31.0822 91.0915 31.0822 93.8727Z" fill="#17616E"/>
<path d="M28.4649 93.8621C28.4649 92.5319 27.3903 91.457 26.0606 91.457C24.7308 91.457 23.6562 92.5319 23.6562 93.8621C23.6562 95.1923 24.7308 96.2671 26.0606 96.2671C27.3903 96.2671 28.4649 95.1923 28.4649 93.8621Z" fill="#EBEBEB"/>
<path d="M36.5406 45.4215L27.5373 48.349L20.0984 42.9092C19.7472 42.6537 19.8324 42.1001 20.2474 41.9618L24.9725 40.4288C25.3876 40.2904 25.8239 40.3224 26.2177 40.514L36.5406 45.4215Z" fill="#CCCCCC"/>
<path d="M68.4372 40.5742L48.632 24.276C48.3021 23.9993 48.3979 23.467 48.813 23.3392L54.5172 21.4869C54.8258 21.3911 55.1557 21.4231 55.4324 21.5934L80.697 36.6034L68.4372 40.5742Z" fill="#CCCCCC"/>
<path d="M101.364 33.7264C101.928 35.4829 100.97 37.3565 99.225 37.9313L41.2249 56.7844C40.2884 57.0824 39.2668 56.9227 38.4793 56.3479L27.5391 48.3532L89.2213 28.3079C90.36 27.9353 91.6052 28.0098 92.6907 28.5208L99.6081 31.7463C100.438 32.1296 101.077 32.8535 101.364 33.7264Z" fill="white"/>
<path d="M69.2312 44.5756L62.9629 68.73C62.8565 69.1452 63.2503 69.5178 63.6547 69.39L69.3589 67.5377C69.6675 67.4419 69.9123 67.2184 70.04 66.9203L81.1079 41.1903C81.3207 40.7006 80.8525 40.179 80.3417 40.3494L70.0613 43.692C69.6569 43.8198 69.3376 44.1498 69.2312 44.5756Z" fill="#CCCCCC"/>
<path d="M42.2334 50.0535C42.9211 50.0535 43.4786 49.4959 43.4786 48.808C43.4786 48.1201 42.9211 47.5625 42.2334 47.5625C41.5457 47.5625 40.9883 48.1201 40.9883 48.808C40.9883 49.4959 41.5457 50.0535 42.2334 50.0535Z" fill="#17616E"/>
<path d="M50.3623 47.4168C51.05 47.4168 51.6075 46.8592 51.6075 46.1713C51.6075 45.4834 51.05 44.9258 50.3623 44.9258C49.6747 44.9258 49.1172 45.4834 49.1172 46.1713C49.1172 46.8592 49.6747 47.4168 50.3623 47.4168Z" fill="#17616E"/>
<path d="M58.4912 44.7762C59.1789 44.7762 59.7364 44.2185 59.7364 43.5307C59.7364 42.8428 59.1789 42.2852 58.4912 42.2852C57.8036 42.2852 57.2461 42.8428 57.2461 43.5307C57.2461 44.2185 57.8036 44.7762 58.4912 44.7762Z" fill="#17616E"/>
<path d="M97.7538 30.8841L88.8995 33.7584C88.229 33.9713 87.516 33.6093 87.3031 32.9387C87.0903 32.268 87.4521 31.5548 88.1226 31.3419L94.3802 29.3086L97.7538 30.8841Z" fill="#CCCCCC"/>
<path d="M99.2242 37.9334L98.5324 38.1569C97.979 37.5714 97.5427 36.8582 97.2766 36.0491C96.7019 34.282 97.0638 32.4297 98.0961 31.0352L99.6073 31.7378C100.448 32.1316 101.087 32.8555 101.363 33.7284C101.927 35.4849 100.969 37.3692 99.2242 37.9334Z" fill="#CCCCCC"/>
<path d="M72.0553 46.7578L41.2142 56.7751C40.2777 57.0732 39.256 56.9135 38.4685 56.3387L28.4648 49.0146L38.1812 52.5489C39.4157 52.996 40.7566 53.1025 42.055 52.8363L72.0553 46.7578Z" fill="#CCCCCC"/>
<path d="M81.1073 41.1908L70.0394 66.9101C69.9117 67.2082 69.6669 67.4318 69.3583 67.5276L63.6541 69.3799C63.239 69.5183 62.8453 69.1457 62.9623 68.7199L63.4838 66.7292L65.4313 66.0798C65.8677 65.9308 66.2401 65.6221 66.453 65.2069L79.0534 40.765L80.3411 40.3498C80.8519 40.1795 81.3201 40.6905 81.1073 41.1908Z" fill="#B2B2B2"/>
</g>
<defs>
<linearGradient id="paint0_linear_12457:290" x1="57.5002" y1="0" x2="57.5002" y2="175.003" gradientUnits="userSpaceOnUse">
<stop offset="0.0035243" stop-color="#4BBECA"/>
<stop offset="0.2707" stop-color="#22A0AC"/>
</linearGradient>
<linearGradient id="paint1_linear_12457:290" x1="57.5" y1="50.9957" x2="57.5" y2="215.62" gradientUnits="userSpaceOnUse">
<stop offset="0.00704948" stop-color="#4BBECA"/>
<stop offset="0.1937" stop-color="#47BBC7"/>
<stop offset="0.3787" stop-color="#3BB2BE"/>
<stop offset="0.5626" stop-color="#27A4B0"/>
<stop offset="0.6023" stop-color="#22A0AC"/>
</linearGradient>
<linearGradient id="paint2_linear_12457:290" x1="8.36538" y1="71.0816" x2="8.36538" y2="97.2802" gradientUnits="userSpaceOnUse">
<stop stop-color="#B6E0E9"/>
<stop offset="0.5414" stop-color="#8ECFD5"/>
</linearGradient>
<linearGradient id="paint3_linear_12457:290" x1="74.761" y1="65.5962" x2="74.761" y2="102.742" gradientUnits="userSpaceOnUse">
<stop stop-color="#B6E0E9"/>
<stop offset="0.5414" stop-color="#8ECFD5"/>
</linearGradient>
<clipPath id="clip0_12457:290">
<rect width="115" height="110" fill="white" transform="translate(0 21)"/>
</clipPath>
</defs>
</svg>
