<svg width="447" height="693" viewBox="0 0 447 693" fill="none" xmlns="http://www.w3.org/2000/svg">
<g clip-path="url(#clip0_12457:288)">
<path d="M427 0H20C8.95431 0 0 8.95432 0 20V669.062C0 680.108 8.95429 689.062 20 689.062H427C438.046 689.062 447 680.108 447 669.062V20C447 8.95431 438.046 0 427 0Z" fill="url(#paint0_linear_12457:288)"/>
<path d="M46.8948 343.91L33.3741 317.414H38.6771C39.8106 317.414 40.4988 316.215 39.9725 315.182L28.3545 292.406H32.6454C33.7789 292.406 34.4671 291.208 33.9408 290.174L22.8895 268.556C22.3228 267.481 20.825 267.481 20.2582 268.556L9.20688 290.174C8.68062 291.166 9.40931 292.406 10.5023 292.406H14.7933L3.17518 315.182C2.64893 316.174 3.37762 317.414 4.47061 317.414H9.77362L-3.74707 343.91C-4.27333 344.902 -3.54464 346.142 -2.45165 346.142H17.465V381.607C17.465 383.798 19.0843 385.741 21.2298 385.865C23.5777 386.03 25.5612 384.129 25.5612 381.731V346.142H45.4779C46.6924 346.101 47.3805 344.902 46.8948 343.91Z" fill="url(#paint1_linear_12457:288)"/>
<path d="M470.311 332.711L453.645 299.115H460.142C461.514 299.115 462.402 297.588 461.756 296.315L447.471 267.47H452.757C454.129 267.47 455.017 265.943 454.371 264.671L440.772 237.268C440.086 235.911 438.23 235.911 437.544 237.268L423.944 264.671C423.298 265.943 424.186 267.47 425.558 267.47H430.845L416.559 296.315C415.914 297.588 416.801 299.115 418.173 299.115H424.67L408.004 332.711C407.358 333.984 408.246 335.511 409.618 335.511H434.154V380.475C434.154 383.274 436.171 385.692 438.795 385.862C441.7 386.074 444.121 383.656 444.121 380.644V335.511H468.657C470.069 335.511 470.957 333.984 470.311 332.711Z" fill="url(#paint2_linear_12457:288)"/>
<path d="M423.282 341.388L408.707 315.732H414.387C415.576 315.732 416.369 314.563 415.796 313.595L403.291 291.57H407.914C409.103 291.57 409.896 290.4 409.323 289.432L397.434 268.537C396.818 267.488 395.189 267.488 394.616 268.537L382.727 289.432C382.155 290.4 382.947 291.57 384.136 291.57H388.76L376.254 313.595C375.682 314.563 376.474 315.732 377.663 315.732H383.344L368.768 341.388C368.196 342.356 368.988 343.526 370.177 343.526H391.666V377.813C391.666 379.951 393.427 381.807 395.761 381.928C398.315 382.089 400.429 380.234 400.429 377.934V343.526H421.917C423.062 343.526 423.855 342.356 423.282 341.388Z" fill="url(#paint3_linear_12457:288)"/>
<path d="M447 370.125H0V688C0 690.761 2.23859 693 5.00001 693H442C444.761 693 447 690.761 447 688V370.125Z" fill="url(#paint4_linear_12457:288)"/>
<path d="M289.568 430.624C348.357 430.624 396.015 422.035 396.015 411.441C396.015 400.846 348.357 392.258 289.568 392.258C230.779 392.258 183.121 400.846 183.121 411.441C183.121 422.035 230.779 430.624 289.568 430.624Z" fill="#8DCED6"/>
<path d="M213.509 400.308C288.455 400.308 349.21 395.986 349.21 390.654C349.21 385.322 288.455 381 213.509 381C138.564 381 77.8086 385.322 77.8086 390.654C77.8086 395.986 138.564 400.308 213.509 400.308Z" fill="#8DCED6"/>
<path d="M155.323 357.502L217.613 321.418L184.243 138.734L121.953 174.818L155.323 357.502Z" fill="#ECECEC"/>
<path d="M155.331 357.502L84.3424 345.969L50.9727 163.285L121.961 174.819L155.331 357.502Z" fill="white"/>
<path d="M288.608 332.955L350.898 296.871L317.529 114.188L255.238 150.271L288.608 332.955Z" fill="#ECECEC"/>
<path d="M288.615 332.952L217.628 321.418L184.258 138.734L255.246 150.268L288.615 332.952Z" fill="white"/>
<path d="M153.51 347.538L92.2997 337.593L62.5977 174.988L123.808 184.933L153.51 347.538Z" fill="#8DCED6"/>
<path d="M215.779 311.386L186.091 148.855L123.801 184.939L153.502 347.538L215.779 311.386Z" fill="#05A5AE"/>
<path d="M286.788 322.996L340.499 291.882L310.797 129.277L257.086 160.391L286.788 322.996Z" fill="#05A5AE"/>
<path d="M215.786 311.386L186.098 148.855L257.086 160.389L286.787 322.988L215.786 311.386Z" fill="#8DCED6"/>
<path d="M136.712 143.465C136.712 166.698 107.834 195.614 107.834 195.614C107.834 195.614 78.957 166.533 78.957 143.465C78.957 127.446 91.8857 114.465 107.834 114.465C123.783 114.465 136.712 127.446 136.712 143.465Z" fill="#14646E"/>
<path d="M121.679 143.403C121.679 135.719 115.478 129.492 107.83 129.492C100.182 129.492 93.9805 135.719 93.9805 143.403C93.9805 151.084 100.182 157.312 107.83 157.312C115.478 157.312 121.679 151.084 121.679 143.403Z" fill="#ECECEC"/>
<path d="M146.395 308.552C145.548 308.677 144.681 308.782 143.804 308.866C142.354 309.009 141.066 307.943 140.926 306.487C140.787 305.031 141.845 303.733 143.295 303.597C144.026 303.525 144.742 303.442 145.446 303.344L146.395 308.552Z" fill="#ECECEC"/>
<path d="M281.351 293.262C276.086 294.071 270.7 293.254 265.321 290.826C263.992 290.225 263.401 288.659 263.999 287.324C264.594 285.989 266.157 285.395 267.483 285.996C271.86 287.971 276.202 288.663 280.398 288.05L281.351 293.262Z" fill="#ECECEC"/>
<path d="M148.332 308.247C146.89 308.513 145.367 308.724 143.804 308.876C142.355 309.017 141.066 307.951 140.926 306.495C140.787 305.04 141.845 303.743 143.297 303.606C144.712 303.468 146.086 303.278 147.38 303.039C154.905 301.653 160.38 298.578 164.118 293.639C164.999 292.476 166.653 292.249 167.812 293.134C168.972 294.018 169.197 295.679 168.316 296.844C163.746 302.882 157.209 306.612 148.332 308.247Z" fill="#D2D2D1"/>
<path d="M175.975 233.438C175.656 233.497 175.32 233.497 174.982 233.429C173.555 233.141 172.629 231.746 172.915 230.312C174.907 220.333 178.513 211.969 183.632 205.453C184.535 204.305 186.192 204.109 187.335 205.014C188.478 205.92 188.674 207.585 187.772 208.733C183.172 214.588 179.913 222.199 178.086 231.353C177.867 232.447 177.006 233.248 175.975 233.438Z" fill="#D2D2D1"/>
<path d="M282.136 293.137C276.626 294.152 270.974 293.375 265.337 290.829C264.009 290.229 263.417 288.662 264.014 287.329C264.611 285.995 266.172 285.4 267.5 286.001C272.142 288.097 276.747 288.746 281.185 287.929C284.123 287.388 287.001 286.203 289.738 284.408C290.958 283.608 292.591 283.953 293.388 285.176C294.184 286.401 293.841 288.041 292.622 288.841C289.295 291.023 285.767 292.468 282.136 293.137Z" fill="#D2D2D1"/>
<path d="M304.599 274.172C304.055 274.273 303.476 274.203 302.943 273.935C301.641 273.279 301.116 271.688 301.769 270.381C303.855 266.206 305.065 261.889 305.087 258.536C305.097 257.073 306.288 255.896 307.741 255.906C309.197 255.916 310.37 257.11 310.36 258.572C310.331 262.77 308.954 267.808 306.482 272.755C306.096 273.528 305.385 274.028 304.599 274.172Z" fill="#D2D2D1"/>
<path d="M185.845 271.481C185.205 271.599 184.522 271.481 183.934 271.098L159.823 255.388C158.601 254.592 158.253 252.953 159.046 251.726C159.838 250.499 161.471 250.151 162.693 250.946L186.804 266.657C188.025 267.452 188.373 269.092 187.58 270.318C187.17 270.954 186.533 271.355 185.845 271.481Z" fill="#D2D2D1"/>
<path d="M166.603 281.043C166.138 281.128 165.645 281.09 165.173 280.905C163.816 280.375 163.144 278.84 163.672 277.478L177.229 242.504C177.757 241.141 179.286 240.467 180.642 240.997C181.999 241.528 182.671 243.062 182.143 244.425L168.586 279.398C168.242 280.287 167.472 280.883 166.603 281.043Z" fill="#D2D2D1"/>
<path d="M314.93 245.458C314.291 245.576 313.608 245.458 313.02 245.075L288.909 229.365C287.687 228.569 287.339 226.929 288.132 225.703C288.924 224.476 290.557 224.127 291.779 224.923L315.89 240.633C317.111 241.429 317.459 243.069 316.666 244.295C316.256 244.931 315.619 245.332 314.93 245.458Z" fill="#D2D2D1"/>
<path d="M295.689 255.019C295.224 255.105 294.731 255.066 294.259 254.882C292.902 254.351 292.23 252.817 292.758 251.454L306.315 216.481C306.843 215.118 308.372 214.444 309.728 214.974C311.085 215.504 311.757 217.039 311.229 218.401L297.672 253.375C297.328 254.263 296.558 254.859 295.689 255.019Z" fill="#D2D2D1"/>
<path d="M103.526 225.973C103.192 226.034 102.842 226.032 102.491 225.955C101.068 225.644 100.165 224.234 100.475 222.805C101.521 217.975 102.751 213.461 104.132 209.389C104.602 208.005 106.098 207.264 107.478 207.736C108.856 208.207 109.593 209.711 109.124 211.095C107.808 214.978 106.631 219.296 105.627 223.931C105.394 225.006 104.54 225.786 103.526 225.973Z" fill="white"/>
<path d="M124.268 307.932C123.908 307.999 123.53 307.99 123.152 307.895C114.227 305.648 107.428 299.426 102.943 289.401C102.347 288.067 102.939 286.501 104.267 285.901C105.597 285.302 107.156 285.897 107.753 287.231C111.543 295.702 117.155 300.927 124.435 302.76C125.847 303.115 126.705 304.553 126.35 305.971C126.091 307.011 125.253 307.751 124.268 307.932Z" fill="white"/>
<path d="M100.856 271.705C100.804 271.715 100.752 271.723 100.699 271.73C99.2541 271.908 97.9385 270.876 97.7604 269.425C96.7665 261.307 96.6723 252.358 97.4813 242.825C97.6052 241.368 98.8816 240.288 100.332 240.412C101.783 240.536 102.859 241.818 102.735 243.275C101.957 252.443 102.044 261.024 102.994 268.779C103.165 270.177 102.217 271.455 100.856 271.705Z" fill="white"/>
<path d="M146.391 308.548C145.544 308.673 144.678 308.779 143.8 308.862C142.35 309.005 141.062 307.939 140.922 306.483C140.783 305.027 141.841 303.729 143.292 303.593C144.022 303.521 144.738 303.438 145.442 303.34L146.391 308.548Z" fill="white"/>
<path d="M254.039 276.872C252.673 277.123 251.333 276.261 251.003 274.888C250.883 274.389 250.774 273.869 250.677 273.343C249.568 267.266 250.204 260.233 250.877 252.787C251.017 251.24 251.16 249.664 251.29 248.065C251.408 246.608 252.679 245.522 254.132 245.642C255.583 245.761 256.664 247.039 256.545 248.496C256.414 250.112 256.27 251.703 256.128 253.266C255.488 260.341 254.884 267.023 255.863 272.387C255.942 272.818 256.031 273.242 256.128 273.646C256.47 275.067 255.599 276.498 254.184 276.841C254.136 276.852 254.088 276.863 254.039 276.872Z" fill="white"/>
<path d="M254.447 230.972C254.391 230.982 254.334 230.991 254.277 230.998C252.833 231.167 251.527 230.147 251.355 228.697C251.355 228.694 251.351 228.656 251.35 228.652C251.268 227.934 251.16 227.208 251.03 226.494C249.755 219.513 246.234 212.567 241.115 206.936C240.133 205.857 240.209 204.182 241.285 203.196C242.361 202.21 244.028 202.287 245.01 203.366C250.786 209.72 254.766 217.595 256.217 225.539C256.368 226.369 256.494 227.213 256.589 228.048C256.748 229.441 255.802 230.722 254.447 230.972Z" fill="white"/>
<path d="M227.21 196.777C226.781 196.856 226.326 196.828 225.883 196.676C220.684 194.889 215.284 194.493 209.833 195.497C209.225 195.609 208.609 195.74 208.002 195.887C206.037 196.361 204.134 196.971 202.345 197.698C200.994 198.249 199.459 197.593 198.912 196.238C198.366 194.883 199.017 193.339 200.366 192.791C202.397 191.965 204.551 191.274 206.769 190.738C207.468 190.57 208.179 190.418 208.881 190.289C215.232 189.119 221.527 189.583 227.591 191.667C228.968 192.14 229.703 193.646 229.231 195.029C228.911 195.968 228.118 196.609 227.21 196.777Z" fill="white"/>
<path d="M281.355 293.242C276.089 294.052 270.704 293.235 265.325 290.807C263.996 290.205 263.404 288.64 264.003 287.304C264.598 285.969 266.161 285.376 267.487 285.977C271.864 287.951 276.206 288.643 280.402 288.031L281.355 293.242Z" fill="white"/>
<path d="M315.53 354.397L292.605 356.407L295.144 385.593L318.068 383.583C323.045 383.146 326.512 376.259 325.811 368.199C325.109 360.14 320.506 353.96 315.53 354.397Z" fill="#05A5AE"/>
<path d="M305.027 384.737L295.144 385.603L292.605 356.417L302.496 355.547C304.62 359.601 306.078 364.522 306.545 369.9C307.012 375.278 306.424 380.377 305.027 384.737Z" fill="#1D7E8E"/>
<path d="M287.122 349.868L265.879 351.731L269.63 394.855L290.873 392.992C298.227 392.347 303.348 382.171 302.313 370.262C301.277 358.354 294.476 349.223 287.122 349.868Z" fill="#05A5AE"/>
<path d="M276.805 394.222L269.63 394.849L265.879 351.725L273.05 351.098C276.7 356.676 279.238 364.025 279.95 372.217C280.662 380.413 279.43 388.091 276.805 394.222Z" fill="#1D7E8E"/>
<path d="M255.581 346.034L227.883 348.463L232.773 404.691L260.471 402.261C270.059 401.42 276.737 388.152 275.387 372.625C274.036 357.098 265.169 345.193 255.581 346.034Z" fill="#05A5AE"/>
<path d="M232.762 404.681C242.35 403.84 249.028 390.572 247.678 375.045C246.328 359.518 237.46 347.613 227.872 348.454C218.284 349.295 211.606 362.563 212.957 378.09C214.307 393.617 223.174 405.522 232.762 404.681Z" fill="white"/>
<path d="M232.323 399.756C239.234 399.15 243.933 388.275 242.819 375.466C241.705 362.658 235.2 352.765 228.29 353.371C221.379 353.977 216.68 364.852 217.794 377.661C218.908 390.469 225.413 400.362 232.323 399.756Z" fill="#CCCCCC"/>
<path fill-rule="evenodd" clip-rule="evenodd" d="M234.334 365.197C235.233 364.83 236.257 365.264 236.622 366.167C237.724 368.888 238.508 372.223 238.822 375.833L238.822 375.833C239.136 379.443 238.939 382.864 238.324 385.735C238.121 386.688 237.186 387.294 236.238 387.089C235.29 386.884 234.686 385.946 234.89 384.994C235.422 382.512 235.61 379.448 235.323 376.14C235.035 372.831 234.32 369.847 233.368 367.495C233.003 366.592 233.435 365.563 234.334 365.197Z" fill="white"/>
<path d="M371.56 371.762L346.34 373.974L349.133 406.084L374.353 403.871C379.829 403.391 383.642 395.814 382.871 386.947C382.1 378.081 377.036 371.282 371.56 371.762Z" fill="#05A5AE"/>
<path d="M360.004 405.138L349.134 406.091L346.34 373.98L357.217 373.027C359.556 377.486 361.16 382.899 361.673 388.814C362.189 394.729 361.545 400.338 360.004 405.138Z" fill="#1D7E8E"/>
<path d="M340.289 366.774L316.918 368.824L321.044 416.267L344.415 414.217C352.505 413.507 358.14 402.311 357 389.21C355.861 376.109 348.379 366.064 340.289 366.774Z" fill="#05A5AE"/>
<path d="M328.933 415.58L321.046 416.272L316.918 368.829L324.808 368.137C328.82 374.275 331.614 382.358 332.398 391.374C333.181 400.387 331.829 408.836 328.933 415.58Z" fill="#1D7E8E"/>
<path d="M305.605 362.554L275.133 365.226L280.513 427.086L310.985 424.413C321.534 423.488 328.88 408.89 327.395 391.808C325.909 374.726 316.153 361.629 305.605 362.554Z" fill="#05A5AE"/>
<path d="M280.495 427.09C291.043 426.165 298.39 411.567 296.904 394.485C295.419 377.404 285.663 364.306 275.115 365.231C264.567 366.156 257.22 380.754 258.705 397.835C260.191 414.917 269.946 428.015 280.495 427.09Z" fill="white"/>
<path d="M280.024 421.667C287.626 421 292.796 409.036 291.57 394.945C290.345 380.853 283.188 369.97 275.586 370.637C267.983 371.303 262.814 383.267 264.039 397.359C265.265 411.451 272.421 422.334 280.024 421.667Z" fill="#CCCCCC"/>
<path fill-rule="evenodd" clip-rule="evenodd" d="M282.291 383.802C283.19 383.435 284.214 383.87 284.579 384.772C285.784 387.747 286.643 391.399 286.987 395.355C287.331 399.312 287.115 403.057 286.443 406.198C286.239 407.15 285.305 407.756 284.356 407.551C283.408 407.346 282.804 406.408 283.008 405.456C283.597 402.705 283.805 399.317 283.487 395.662C283.17 392.007 282.38 388.707 281.325 386.1C280.96 385.198 281.392 384.169 282.291 383.802Z" fill="white"/>
<path fill-rule="evenodd" clip-rule="evenodd" d="M243.924 380.045C245.536 378.706 247.9 377.504 251.083 377.504C255.783 377.504 259.032 381.082 260.888 383.858C261.868 385.324 262.601 386.774 263.087 387.849C263.332 388.389 263.517 388.843 263.644 389.166C263.707 389.328 263.756 389.458 263.79 389.551C263.807 389.598 263.82 389.635 263.83 389.662L263.841 389.695L263.845 389.706L263.847 389.712C263.847 389.713 263.848 389.713 261.741 390.445L263.848 389.713C264.27 390.941 263.622 392.28 262.399 392.704C261.178 393.128 259.845 392.479 259.422 391.253C259.422 391.253 259.422 391.253 259.422 391.253C259.421 391.252 259.421 391.251 259.421 391.25L259.417 391.24C259.413 391.227 259.405 391.205 259.393 391.173C259.37 391.111 259.333 391.012 259.283 390.884C259.183 390.626 259.029 390.25 258.823 389.794C258.407 388.876 257.795 387.67 256.999 386.48C255.303 383.942 253.276 382.208 251.083 382.208C249.164 382.208 247.827 382.908 246.909 383.67C245.912 384.498 244.436 384.357 243.612 383.356C242.787 382.356 242.927 380.873 243.924 380.045Z" fill="white"/>
</g>
<defs>
<linearGradient id="paint0_linear_12457:288" x1="223.512" y1="0" x2="223.512" y2="689.075" gradientUnits="userSpaceOnUse">
<stop offset="0.0035243" stop-color="#4BBECA"/>
<stop offset="0.2707" stop-color="#22A0AC"/>
</linearGradient>
<linearGradient id="paint1_linear_12457:288" x1="21.6026" y1="267.768" x2="21.6026" y2="385.85" gradientUnits="userSpaceOnUse">
<stop stop-color="#1D7E8D"/>
<stop offset="0.3216" stop-color="#1B7684"/>
<stop offset="0.806" stop-color="#17616E"/>
</linearGradient>
<linearGradient id="paint2_linear_12457:288" x1="439.177" y1="236.195" x2="439.177" y2="385.882" gradientUnits="userSpaceOnUse">
<stop stop-color="#1D7E8D"/>
<stop offset="0.3216" stop-color="#1B7684"/>
<stop offset="0.806" stop-color="#17616E"/>
</linearGradient>
<linearGradient id="paint3_linear_12457:288" x1="396.043" y1="267.76" x2="396.043" y2="381.964" gradientUnits="userSpaceOnUse">
<stop stop-color="#1D7E8D"/>
<stop offset="0.3216" stop-color="#1B7684"/>
<stop offset="0.806" stop-color="#17616E"/>
</linearGradient>
<linearGradient id="paint4_linear_12457:288" x1="223.512" y1="370.134" x2="223.512" y2="693.012" gradientUnits="userSpaceOnUse">
<stop offset="0.0035243" stop-color="#4BBECA"/>
<stop offset="0.1781" stop-color="#43B8C4"/>
<stop offset="0.454" stop-color="#2CA7B3"/>
<stop offset="0.5529" stop-color="#22A0AC"/>
</linearGradient>
<clipPath id="clip0_12457:288">
<rect width="447" height="693" fill="white"/>
</clipPath>
</defs>
</svg>
