<svg width="444" height="222" viewBox="0 0 444 222" fill="none" xmlns="http://www.w3.org/2000/svg">
<g id="BRN">
<g id="Group 1">
<path id="Vector" d="M444 0H0V222H444V0Z" fill="#F7E017"/>
<path id="Vector_2" d="M0 15.4167V114.083L444 160.333V107.917L0 15.4167Z" fill="white"/>
<path id="Vector_3" d="M0 67.8333V114.083L444 206.583V160.333L0 67.8333Z" fill="black"/>
<g id="Group">
<path id="Vector_4" d="M270.821 164.144C269.409 163.916 269.116 163.833 269.116 163.657C269.116 163.562 269.431 162.96 269.816 162.319C270.874 160.568 270.744 159.276 269.385 157.984C267.84 156.516 264.975 156.097 262.651 157.003C260.93 157.669 260.782 157.54 261.652 156.125C262.241 155.166 262.401 154.678 262.466 153.689C262.564 152.144 262.253 151.179 261.337 150.161C260.332 149.051 259.348 148.598 257.945 148.604C256.333 148.61 255.386 149.101 253.419 150.954C246.318 157.642 237.225 162.18 228.201 163.54C225.213 163.99 220.119 164.141 217.588 163.858C207.558 162.732 198.958 158.576 191.049 151.034C188.401 148.512 187.285 147.907 185.49 148.037C183.292 148.197 181.497 149.998 181.337 152.199C181.214 153.938 181.411 154.66 182.41 156.121C183.276 157.383 183.468 157.823 183.153 157.823C183.07 157.823 182.509 157.635 181.907 157.407C179.518 156.498 176.814 156.707 175.217 157.928C173.656 159.122 173.289 160.639 174.184 162.205C174.458 162.683 174.683 163.192 174.683 163.33C174.683 163.469 174.137 163.78 173.471 164.024C172.152 164.505 171.02 165.378 170.561 166.263C170.212 166.938 170.166 169.05 170.499 169.05C170.622 169.05 171.008 168.877 171.35 168.664C171.695 168.452 172.688 168.039 173.561 167.746C175.439 167.117 178.038 167.033 179.996 167.545C182.373 168.162 185.182 169.704 187.615 171.723C189.964 173.672 192.862 174.668 194.762 174.174C196.747 173.659 197.537 172.67 197.537 170.706C197.537 170.012 197.626 169.451 197.737 169.451C197.845 169.451 198.539 169.864 199.276 170.37C203.078 172.972 208.55 174.871 214.52 175.664C222.416 176.709 232.73 175.485 239.877 172.657C242.22 171.729 243.525 171.032 245.572 169.626C246.352 169.087 247.043 168.649 247.111 168.649C247.175 168.649 247.188 169.303 247.132 170.101C247.049 171.328 247.098 171.658 247.441 172.201C248.082 173.215 249.297 173.73 251.073 173.749C252.984 173.764 254.221 173.212 256.185 171.461C257.967 169.873 260.153 168.584 262.197 167.915C263.532 167.48 264.192 167.391 266.107 167.379C268.623 167.363 269.847 167.591 271.999 168.479C272.761 168.794 273.461 169.05 273.553 169.05C273.649 169.05 273.726 168.538 273.726 167.909C273.726 165.812 272.668 164.44 270.821 164.144Z" fill="#CF1126"/>
<path id="Vector_5" d="M217.788 161.927C224.023 162.257 230.353 161.662 236.307 159.72C249.426 155.588 259.348 144.217 263.289 131.236C266.193 121.036 265.968 109.579 261.035 100.02C259.617 97.3624 257.209 93.4096 255.303 92.4013C258.648 99.123 259.786 106.844 258.759 114.268C257.557 127.989 247.709 140.261 234.777 144.818C228.916 146.72 222.567 148.595 216.431 146.819C200.922 144.571 187.957 131.587 185.185 116.245C183.4 108.561 184.531 100.43 187.877 93.3386C183.68 97.3501 181.22 102.986 180.002 108.617C177.708 120.987 180.076 134.52 187.59 144.766C194.512 154.589 205.893 160.787 217.788 161.927Z" fill="#CF1126"/>
<path id="Vector_6" d="M173.829 146.471C174.202 145.802 173.527 145.129 172.845 145.265C171.899 145.472 171.014 145.9 170.074 146.147C168.048 146.717 165.914 146.939 163.814 146.767C162.279 146.579 160.793 146.088 159.371 145.49C158.878 145.274 158.415 144.957 157.873 144.889C157.093 144.766 156.232 145.533 156.528 146.338C157.09 147.149 158.058 147.547 158.933 147.935C160.944 148.74 163.121 149.07 165.279 149.048C165.347 149.051 165.908 149.055 166.108 149.048C167.887 149.055 169.66 148.734 171.332 148.13C172.263 147.797 173.45 147.501 173.829 146.471Z" fill="#CF1126"/>
<path id="Vector_7" d="M163.969 143.572C162.624 143.4 161.342 142.903 160.124 142.33C159.667 142.108 159.254 141.762 158.739 141.685C157.95 141.568 157.272 142.475 157.602 143.199C158.209 144.078 159.226 144.547 160.179 144.957C161.77 145.595 163.494 145.869 165.205 145.845C165.331 145.848 165.738 145.848 165.896 145.842C167.41 145.845 168.914 145.546 170.314 144.969C171.168 144.636 172.217 144.315 172.571 143.372C172.849 142.854 172.636 142.102 171.985 142.062C171.39 142.031 170.878 142.41 170.326 142.58C168.325 143.409 166.124 143.76 163.969 143.572Z" fill="#CF1126"/>
<path id="Vector_8" d="M169.947 139.394C168.47 140.147 166.827 140.563 165.165 140.557C163.731 140.606 162.381 140.002 161.135 139.351C160.685 139.12 160.312 138.722 159.803 138.617C159.128 138.537 158.662 139.299 158.776 139.906C158.878 140.44 159.356 140.8 159.754 141.127C161.397 142.33 163.478 142.842 165.498 142.774C164.715 142.771 166.549 142.786 165.988 142.771C167.265 142.764 168.529 142.453 169.679 141.898C170.447 141.565 171.347 141.177 171.606 140.301C171.729 139.894 171.806 139.305 171.347 139.077C170.863 138.812 170.385 139.225 169.947 139.394Z" fill="#CF1126"/>
<path id="Vector_9" d="M159.041 118.517C159.895 120.108 159.59 122.02 159.772 123.756C159.914 128.495 159.871 133.234 159.787 137.973C161.927 139.046 164.249 140.128 166.713 139.715C168.171 139.367 170.878 139.151 171.183 137.699C171.066 129.528 170.989 121.354 170.881 113.183C170.052 110.679 167.505 109.384 165.6 107.784C164.027 106.233 162.566 104.568 161.224 102.82C160.416 101.457 157.256 100.967 158.4 103.338C159.069 105.388 160.78 106.918 161.209 109.073C161.301 110.254 162.714 112.428 161.508 113.115C160.743 111.814 159.633 110.704 158.215 110.044C156.849 109.027 154.589 108.601 154.096 106.8C153.735 104.247 152.424 101.935 150.738 100.02C151.173 97.7262 150.741 94.8587 148.758 93.3942L148.475 93.3294C147.47 94.3346 148.237 96.1877 148.182 97.5042C148.703 101.562 149.35 105.669 150.864 109.489C152.717 113.223 156.655 115.221 159.041 118.517Z" fill="#CF1126"/>
<path id="Vector_10" d="M151.395 99.8506C153.02 101.753 154.278 104.025 154.657 106.523C154.666 107.46 155.653 107.772 156.294 108.237C157.796 109.193 159.485 109.887 160.824 111.083C161.104 111.385 161.317 111.709 161.12 111.092C160.91 110.306 160.802 109.44 160.188 108.848C159.347 107.941 158.292 107.133 157.065 106.856C156.963 105.589 156.359 104.423 155.801 103.301C155.181 102.228 154.537 101.078 153.476 100.384C153.519 98.5032 153.488 96.533 152.677 94.7971C152.44 94.35 152.092 93.8227 151.53 93.795C150.618 93.943 150.649 95.1054 151.071 95.719C151.518 97.0386 151.638 98.4724 151.395 99.8506Z" fill="#CF1126"/>
<path id="Vector_11" d="M154.099 100.06C155.267 100.985 155.998 102.327 156.664 103.634C157.08 104.507 157.478 105.407 157.639 106.369C158.588 106.683 159.418 107.278 160.158 107.935C159.865 107.047 159.208 106.36 158.77 105.549C158.292 104.704 157.836 103.825 157.632 102.869C156.72 101.895 156.217 100.517 156.418 99.1847C156.458 97.7109 155.983 96.1908 154.996 95.0808C154.749 94.8372 154.45 94.5659 154.087 94.5474C153.451 94.7354 153.572 95.5217 153.772 96.0027C154.074 97.3254 154.124 98.7006 154.099 100.06Z" fill="#CF1126"/>
<path id="Vector_12" d="M156.997 99.6811C156.969 100.452 157.247 101.207 157.638 101.858C157.752 101.377 158.2 101.029 158.684 100.982C158.859 100.951 159.118 101.041 159.017 100.773C158.893 99.2957 158.668 97.8126 158.153 96.4189C157.953 95.9225 157.728 95.3983 157.296 95.0561C157.21 94.9944 157.105 94.942 156.994 94.9543C156.649 95.016 156.436 95.3459 156.251 95.6142C156.18 95.8824 156.51 96.1722 156.562 96.4652C156.963 97.4827 157.117 98.5957 156.997 99.6811Z" fill="#CF1126"/>
<path id="Vector_13" d="M286.127 144.886C285.581 144.954 285.119 145.271 284.629 145.487C283.207 146.085 281.721 146.579 280.186 146.764C278.086 146.936 275.952 146.714 273.926 146.144C272.986 145.9 272.101 145.469 271.154 145.262C270.473 145.126 269.801 145.799 270.171 146.468C270.553 147.497 271.737 147.793 272.668 148.12C274.343 148.725 276.113 149.045 277.892 149.039C278.092 149.045 278.653 149.042 278.721 149.039C280.879 149.061 283.059 148.731 285.066 147.926C285.939 147.538 286.907 147.14 287.472 146.329C287.768 145.53 286.907 144.763 286.127 144.886Z" fill="#CF1126"/>
<path id="Vector_14" d="M273.689 144.969C275.089 145.546 276.593 145.845 278.107 145.842C278.261 145.848 278.672 145.845 278.798 145.845C280.509 145.873 282.233 145.595 283.824 144.957C284.777 144.547 285.794 144.078 286.401 143.199C286.731 142.475 286.05 141.568 285.264 141.685C284.749 141.766 284.336 142.111 283.879 142.33C282.661 142.903 281.379 143.4 280.034 143.572C277.879 143.757 275.678 143.409 273.68 142.583C273.128 142.413 272.616 142.034 272.021 142.065C271.37 142.105 271.157 142.857 271.435 143.375C271.786 144.315 272.835 144.636 273.689 144.969Z" fill="#CF1126"/>
<path id="Vector_15" d="M274.321 141.901C275.471 142.453 276.732 142.768 278.012 142.774C277.454 142.789 279.288 142.774 278.502 142.777C280.519 142.845 282.603 142.333 284.246 141.13C284.644 140.803 285.122 140.443 285.224 139.909C285.338 139.302 284.872 138.54 284.197 138.62C283.688 138.725 283.315 139.123 282.865 139.354C281.622 140.005 280.269 140.606 278.835 140.56C277.176 140.569 275.53 140.15 274.053 139.397C273.615 139.228 273.134 138.815 272.653 139.083C272.194 139.311 272.271 139.9 272.394 140.307C272.653 141.18 273.553 141.568 274.321 141.901Z" fill="#CF1126"/>
<path id="Vector_16" d="M295.528 93.3325L295.245 93.3973C293.262 94.8619 292.83 97.7293 293.265 100.023C291.579 101.935 290.271 104.251 289.907 106.804C289.414 108.604 287.154 109.027 285.788 110.047C284.37 110.707 283.26 111.817 282.495 113.118C281.293 112.431 282.702 110.257 282.794 109.076C283.223 106.921 284.934 105.391 285.603 103.341C286.747 100.97 283.587 101.463 282.779 102.823C281.441 104.568 279.976 106.236 278.403 107.787C276.498 109.387 273.951 110.686 273.122 113.186C273.014 121.357 272.937 129.531 272.82 137.702C273.122 139.154 275.832 139.37 277.29 139.718C279.751 140.131 282.076 139.049 284.216 137.976C284.132 133.237 284.089 128.498 284.231 123.759C284.41 122.02 284.108 120.108 284.962 118.52C287.348 115.221 291.289 113.226 293.142 109.495C294.656 105.675 295.303 101.568 295.824 97.5104C295.766 96.1908 296.533 94.3377 295.528 93.3325Z" fill="#CF1126"/>
<path id="Vector_17" d="M288.202 103.298C287.644 104.42 287.04 105.586 286.938 106.853C285.711 107.13 284.656 107.938 283.815 108.845C283.198 109.44 283.093 110.306 282.883 111.089C282.683 111.703 282.896 111.379 283.179 111.08C284.518 109.884 286.204 109.19 287.709 108.234C288.35 107.772 289.337 107.46 289.346 106.52C289.725 104.022 290.983 101.75 292.608 99.8476C292.365 98.4724 292.488 97.0356 292.938 95.7128C293.361 95.0992 293.391 93.9368 292.479 93.7888C291.918 93.8166 291.569 94.3438 291.332 94.7909C290.524 96.5268 290.493 98.4971 290.533 100.378C289.469 101.078 288.822 102.228 288.202 103.298Z" fill="#CF1126"/>
<path id="Vector_18" d="M286.371 102.863C286.167 103.819 285.711 104.701 285.233 105.542C284.792 106.353 284.138 107.041 283.845 107.929C284.585 107.272 285.418 106.677 286.365 106.363C286.525 105.404 286.92 104.503 287.339 103.628C288.005 102.32 288.736 100.979 289.904 100.054C289.88 98.6944 289.926 97.3192 290.231 95.9903C290.431 95.5093 290.555 94.7261 289.917 94.535C289.55 94.5535 289.254 94.8248 289.007 95.0684C288.02 96.1784 287.545 97.6985 287.586 99.1723C287.786 100.51 287.283 101.889 286.371 102.863Z" fill="#CF1126"/>
<path id="Vector_19" d="M285.316 100.985C285.8 101.032 286.247 101.38 286.362 101.861C286.756 101.207 287.031 100.455 287.003 99.6842C286.883 98.5988 287.034 97.4858 287.441 96.4683C287.493 96.1753 287.823 95.8855 287.752 95.6173C287.567 95.349 287.357 95.0191 287.009 94.9574C286.898 94.942 286.793 94.9944 286.707 95.0592C286.275 95.4014 286.047 95.9256 285.85 96.422C285.335 97.8157 285.11 99.2988 284.986 100.776C284.882 101.044 285.141 100.955 285.316 100.985Z" fill="#CF1126"/>
<path id="Vector_20" d="M224.738 146.566C227.004 146.202 229.033 144.917 230.532 143.205C231.457 142.065 232.323 140.825 232.838 139.441C232.647 138.957 231.737 139.829 231.299 139.94C230.356 140.492 229.206 140.535 228.305 141.164C227.276 142.021 226.261 142.937 225.022 143.483C224.017 143.955 224.263 142.555 224.639 142.089C225.025 140.834 224.232 139.601 223.576 138.59C223.101 138.149 222.657 136.838 221.994 137.06C221.09 138.127 220.193 139.243 219.61 140.523C219.262 141.244 219.54 142.04 219.943 142.669C220.264 143.875 218.544 143.128 218.056 142.749C217.008 142.185 216.333 141.106 215.235 140.634C214.366 140.582 213.549 140.236 212.793 139.817C212.392 139.746 211.538 138.679 211.47 139.364C212.753 143.335 216.509 146.369 220.668 146.764C222.022 146.865 223.397 146.813 224.738 146.566Z" fill="#CF1126"/>
<path id="Vector_21" d="M215.562 136.903C215.466 138.25 216.043 139.524 216.805 140.6C217.202 141.059 218.127 142.462 218.624 141.691C218.676 140.033 219.783 138.682 220.665 137.362C221.229 136.897 221.701 135.269 222.552 135.768C223.452 136.937 224.377 138.124 225.034 139.456C225.46 140.215 225.651 141.069 225.558 141.901C225.607 142.108 225.845 142.114 225.993 142.021C227.174 141.189 228.148 139.956 228.469 138.525C229.163 135.303 228.102 132.034 226.73 129.139C226.018 127.665 225.608 126.007 225.894 124.369C226.064 123.065 226.862 121.967 227.8 121.092C228.475 120.503 227.599 120.25 227.088 120.543C225.823 120.796 225.117 121.961 224.131 122.652C223.307 122.615 223.844 121.184 223.335 120.608C223.088 119.951 222.336 118.548 221.618 119.532C220.884 120.188 220.813 121.193 220.458 122.038C219.567 122.439 219.037 120.823 218.059 120.759C217.489 120.315 215.692 120.497 216.783 121.354C217.93 122.307 218.217 123.867 218.149 125.282C218.248 127.163 217.279 128.834 216.681 130.558C215.889 132.574 215.473 134.732 215.562 136.903Z" fill="#CF1126"/>
<path id="Vector_22" d="M227.68 101.593C226.94 101.226 225.968 101.278 225.281 101.747C224.581 102.114 224.214 102.928 223.471 103.202C222.691 102.786 223.314 101.46 222.709 100.794C222.305 99.7427 221.328 100.711 221.309 101.445C221.054 101.966 221.279 103.076 220.73 103.242C219.959 102.595 219.339 101.679 218.303 101.414C217.838 101.324 216.598 101.065 216.53 101.537C217.502 102.761 218.76 103.85 219.17 105.422C219.493 106.788 219.626 108.293 219.093 109.625C218.254 111.755 217.313 113.941 217.4 116.282C217.391 117.725 217.634 119.479 219.003 120.278C219.863 121.129 220.289 120.04 220.64 119.39C221.14 118.906 221.593 117.978 222.327 117.981C223.082 118.529 223.628 119.328 224.075 120.136C224.229 120.404 224.353 120.719 224.581 120.931C225.512 120.5 226.415 119.803 226.687 118.761C227.137 117.043 227.149 115.212 226.835 113.47C226.576 111.919 225.823 110.519 225.401 109.02C224.865 107.109 225.305 104.978 226.554 103.437C226.866 102.841 227.939 102.274 227.68 101.593Z" fill="#CF1126"/>
<path id="Vector_23" d="M189.983 88.6089C191.978 88.726 193.038 88.4054 196.825 86.543C199.772 85.0939 201.44 84.5481 202.529 84.6776C203.374 84.7763 203.327 85.2018 202.458 85.3405C200.525 85.652 199.692 85.951 196.883 87.3509C195.098 88.2419 193.229 89.0159 192.286 89.2533C191.413 89.4753 190.652 89.7035 190.593 89.762C190.531 89.8206 190.658 90.1937 190.874 90.5915C192.119 92.904 195.989 93.1044 198.554 90.9892C200.744 89.1824 204.41 87.465 206.256 87.3848C207.209 87.3416 207.524 87.7733 206.67 87.9521C203.981 88.5164 200.592 90.132 198.804 91.7015C198.391 92.0622 197.765 92.5155 197.417 92.7005C197.068 92.8885 196.781 93.1352 196.781 93.2462C196.781 93.6686 198.036 94.8526 198.724 95.0808C199.698 95.4015 201.891 95.2195 203.007 94.7262C203.503 94.5073 204.45 93.832 205.106 93.2246C207.342 91.1711 210.289 89.2533 211.208 89.2533C211.917 89.2533 211.658 89.6264 210.567 90.1783C209.223 90.8566 206.512 92.8114 205.603 93.758C205.217 94.1619 204.61 94.6738 204.249 94.8958C203.466 95.3829 203.429 95.8362 204.107 96.641C205.43 98.2165 208.328 97.899 211.362 95.8516C211.89 95.494 213.475 94.0294 214.884 92.5956C216.65 90.798 217.511 90.0519 217.653 90.1937C217.797 90.3386 217.532 90.798 216.805 91.6737C215.895 92.7652 215.753 93.052 215.778 93.7272C215.833 95.1085 216.607 95.534 218.229 95.0684C219.237 94.7786 219.367 95.09 218.655 96.0767C218.171 96.7427 218.035 97.1405 218.035 97.8743C218.035 99.308 218.377 100.033 219.413 100.791C219.922 101.167 220.35 101.476 220.363 101.479C220.372 101.482 220.64 101.075 220.958 100.572C221.87 99.1323 222.694 99.123 223.631 100.548C223.899 100.951 224.22 101.281 224.346 101.281C224.476 101.281 224.951 100.964 225.404 100.578C226.862 99.3296 227.038 97.5135 225.848 96.0305C225.049 95.0376 225.241 94.7385 226.458 95.0684C227.649 95.3891 228.228 95.1949 228.577 94.3562C228.971 93.4096 228.771 92.7529 227.729 91.5874C226.887 90.6439 226.631 90.055 227.066 90.055C227.183 90.055 228.321 91.1372 229.597 92.46C232.863 95.8485 234.941 97.1343 237.605 97.4149C238.94 97.5567 239.97 97.199 240.592 96.385C241.203 95.5865 241.225 95.1517 240.67 94.8557C240.435 94.7293 239.729 94.1558 239.103 93.5761C237.777 92.3582 235.977 91.1033 234.225 90.1752C232.893 89.4691 232.554 89.0529 233.31 89.0529C234.235 89.0529 237.124 90.909 240.189 93.4744C241.641 94.6892 243.044 95.1702 244.656 95.0037C245.902 94.8742 247.052 94.2144 247.508 93.3634C247.783 92.8484 247.777 92.7868 247.428 92.5833C247.222 92.4599 246.408 91.8803 245.624 91.2914C243.084 89.3889 240.602 88.2049 238.487 87.8812C237.861 87.7856 237.568 87.6376 237.522 87.3971C237.287 86.1885 243.364 88.4516 245.803 90.4805C247.262 91.6922 248.168 92.0499 249.799 92.056C251.507 92.0591 252.716 91.538 253.428 90.4866C254.101 89.5 254.079 89.0529 253.357 89.0529C252.365 89.0529 250.69 88.4547 247.709 87.0364C244.952 85.729 242.976 85.0415 241.952 85.0415C241.678 85.0415 241.493 84.9212 241.493 84.7424C241.493 83.879 245.014 84.7455 247.959 86.3303C252.682 88.8771 256.04 88.8894 258.621 86.3673C260.033 84.989 261.235 82.6365 260.529 82.6365C260.412 82.6365 259.672 82.7845 258.883 82.9633C256.968 83.398 253.234 83.247 251.116 82.6457C249.022 82.0506 245.48 80.2685 243.747 78.9365C242.02 77.6045 240.207 76.5808 238.573 76.0073C234.694 74.6537 229.866 74.6969 227.075 76.1121C225.783 76.7658 224.575 77.8419 224.248 78.6281C224.195 78.7576 224.127 78.8686 224.057 78.9611V71.851L222.475 73.1028L221.056 72.0329V78.9611C220.816 78.7638 220.523 78.4986 220.209 78.181C218.059 76.0011 215.633 75.1193 211.819 75.1347C207.687 75.1532 204.447 76.3465 200.472 79.3188C198.394 80.8697 195.357 82.4145 193.072 83.0743C191.706 83.469 191.025 83.5368 188.463 83.5306C186.631 83.5275 185.111 83.4227 184.581 83.2654C184.103 83.1267 183.659 83.062 183.594 83.1267C183.326 83.395 184.695 85.7198 185.66 86.6355C187.137 88.0323 188.163 88.4979 189.983 88.6089Z" fill="#CF1126"/>
<path id="Vector_24" d="M217.292 72.6063L219.869 69.7296L222.499 72.1592L225.028 69.6309L227.655 72.705L229.936 70.1767L233.803 72.9517C232.4 69.8406 230.501 67.2043 230.738 62.826C226.992 65.6102 218.09 66.1128 214.258 62.9771C213.943 67.0193 212.916 69.8406 211.489 72.9517L214.911 69.7789L217.292 72.6063Z" fill="#CF1126"/>
<path id="Vector_25" d="M230.525 62.2186C229.819 61.7037 228.956 61.3985 228.006 61.2135C226.751 60.9699 225.364 60.9452 224.047 60.9236C224.047 61.6451 224.054 62.3697 224.054 63.0943L221.06 63.085V60.9144C219.684 60.939 218.235 60.9575 216.931 61.2135C216.028 61.3923 215.207 61.6852 214.523 62.1693C214.634 64.7994 227.165 65.897 230.525 62.2186Z" fill="#CF1126"/>
<path id="Vector_26" d="M221.565 47.6745V62.715L223.551 62.7242L223.532 55.5308L230.263 58.8176L226.468 53.7425L231.651 52.0621L223.511 47.8687V47.7454C224.195 47.5943 224.645 47.2675 224.645 46.8975C224.645 46.3918 223.81 45.9663 222.672 45.9663C221.534 45.9663 220.693 46.3918 220.693 46.8975C220.693 47.2181 221.029 47.5049 221.565 47.6745Z" fill="#CF1126"/>
</g>
<g id="Group_2">
<path id="Vector_27" d="M219.24 173.844C220.471 173.437 221.17 172.691 221.673 171.254C221.923 170.539 222.092 169.796 222.049 169.602C221.944 169.142 221.414 169.167 220.828 169.654C220.427 169.99 220.378 170.16 220.492 170.844C220.785 172.571 220.171 173 216.903 173.351C216.579 173.385 215.642 173.33 214.816 173.228C213.262 173.034 212.707 173.188 213.271 173.656C213.441 173.798 213.872 173.989 214.23 174.079C215.102 174.304 218.306 174.153 219.24 173.844Z" fill="#F7E017"/>
<path id="Vector_28" d="M226.014 173.558C226.199 173.388 226.835 173.095 227.427 172.904C228.216 172.651 228.623 172.38 228.956 171.883C229.915 170.456 229.736 169.226 228.327 167.567C227.562 166.666 227.223 166.691 226.613 167.69C226.085 168.553 226.098 168.609 226.856 168.806C227.254 168.908 227.636 169.201 227.846 169.562C228.672 170.992 228.429 171.877 227.205 171.887C226.095 171.896 225.789 172.053 225.49 172.771C225.333 173.145 225.207 173.542 225.207 173.656C225.207 173.959 225.626 173.906 226.014 173.558Z" fill="#F7E017"/>
<path id="Vector_29" d="M223.791 171.942C224.001 171.375 224.075 170.354 224.05 168.273C224.035 166.688 223.973 165.344 223.912 165.282C223.727 165.097 222.814 165.686 222.694 166.065C222.632 166.263 222.734 166.719 222.919 167.077C223.203 167.629 223.24 168.143 223.153 170.305C223.042 173.037 223.221 173.496 223.791 171.942Z" fill="#F7E017"/>
<path id="Vector_30" d="M218.574 170.641C218.685 170.132 218.827 169.09 218.892 168.328C218.957 167.567 219.114 166.605 219.237 166.189C219.552 165.122 219.234 164.841 218.393 165.439L217.767 165.886L217.896 167.419C218.016 168.8 217.797 171.375 217.48 172.374C217.394 172.639 217.517 172.571 217.865 172.164C218.146 171.837 218.467 171.15 218.574 170.641Z" fill="#F7E017"/>
<path id="Vector_31" d="M213.946 171.384C215.072 170.444 214.942 168.834 215.192 167.524C215.167 166.654 215.747 165.609 215.374 164.847C214.323 165.038 213.675 166.037 214.212 167.027C214.258 168.18 214.215 169.435 213.623 170.453C213.139 171.119 211.606 170.952 211.677 170.009C212.062 168.587 210.36 169.281 209.694 169.651C209.18 170.009 208.097 170.037 208.473 169.139C208.224 167.946 206.691 168.692 205.859 168.686C205.073 168.671 205.794 167.092 204.666 167.369C202.566 167.203 200.25 167.388 198.434 166.121C197.37 165.609 197.528 164.329 198.083 163.503C198.742 162.371 198.934 160.959 199.982 160.084C201.021 159.088 199.001 159.507 198.548 159.843C197.537 160.398 198.477 161.823 197.648 162.615C197.164 163.435 196.526 164.57 195.406 164.413C193.791 164.107 192.859 162.603 191.7 161.597C190.707 161.4 191.265 163.207 191.777 163.586C192.792 164.345 193.976 164.9 195.197 165.227C196.411 165.032 196.452 166.623 197.491 166.873C199.399 167.761 201.524 168.029 203.605 168.137C204.422 168.205 203.963 169.66 205.039 169.374C205.64 169.528 206.997 169.152 207.064 169.848C206.155 170.931 207.937 170.906 208.6 170.712C209.445 170.582 210.527 170.259 210.749 171.418C211.455 172.161 212.75 172.053 213.61 171.628C213.731 171.56 213.845 171.48 213.946 171.384Z" fill="#F7E017"/>
<path id="Vector_32" d="M195.52 162.051C195.863 161.616 196.374 160.737 196.658 160.096C196.939 159.452 197.361 158.721 197.592 158.471C198.135 157.885 197.833 157.524 196.957 157.719C196.495 157.82 196.307 157.99 196.23 158.391C195.967 159.698 195.493 161.036 195.07 161.659C194.306 162.788 194.287 162.834 194.602 162.834C194.765 162.834 195.178 162.482 195.52 162.051Z" fill="#F7E017"/>
<path id="Vector_33" d="M183.97 154.811C183.107 154.811 183.07 155.357 183.912 155.65C184.319 155.792 184.664 156.134 184.941 156.692C185.762 158.323 186.243 158.613 188.419 158.801L189.816 158.927L189.884 159.775C189.918 160.244 190.029 160.632 190.137 160.632C190.245 160.632 190.784 160.398 191.33 160.121C192.354 159.603 193.325 158.394 193.325 157.645C193.325 157.154 192.508 156.624 191.765 156.624C191.435 156.624 190.806 156.889 190.31 157.25C188.756 158.375 187.094 158.147 186.184 156.683C185.438 155.474 184.658 154.811 183.97 154.811ZM191.512 157.817C191.925 157.817 192.027 158.123 191.802 158.705C191.648 159.106 191.145 159.119 190.994 158.724C190.815 158.258 191.065 157.817 191.512 157.817Z" fill="#F7E017"/>
<path id="Vector_34" d="M250.009 155.921C249.445 155.943 249.278 156.066 248.921 156.596C248.335 157.466 248.276 159.35 248.816 160.016C249.152 160.429 249.201 160.438 249.913 160.142C250.906 159.726 251.073 159.741 251.07 160.275C251.063 161.638 249.109 164.265 247.061 165.661C246.509 166.038 246.016 166.457 245.964 166.596C245.816 166.984 246.574 166.898 247.505 166.423C248.776 165.775 250.444 164.073 251.128 162.732C251.671 161.662 251.748 161.298 251.813 159.427C251.871 157.703 251.825 157.198 251.532 156.624C251.205 155.98 251.1 155.921 250.28 155.921C250.182 155.921 250.092 155.918 250.009 155.921ZM250.077 157.124C250.502 157.124 250.576 157.219 250.626 157.83C250.669 158.335 250.579 158.644 250.299 158.897C249.916 159.242 249.886 159.239 249.546 158.724C249.072 157.996 249.365 157.124 250.077 157.124Z" fill="#F7E017"/>
<path id="Vector_35" d="M240.716 170.283C242.52 169.395 243.583 168.396 244.268 166.95C244.592 166.263 244.857 165.615 244.857 165.504C244.857 165.254 243.969 164.841 243.435 164.841C242.905 164.841 242.797 164.474 243.025 163.46C243.247 162.47 242.979 161.231 242.544 161.231C242.387 161.231 242.11 161.462 241.925 161.742C241.641 162.177 241.625 162.362 241.835 162.994C242.143 163.932 241.9 164.632 241.061 165.23C240.663 165.513 240.445 165.84 240.445 166.158C240.445 166.426 240.478 166.645 240.519 166.645C240.562 166.645 241 166.417 241.493 166.142L242.393 165.64L242.924 166.056C243.213 166.284 243.454 166.657 243.454 166.885C243.454 167.983 240.324 169.827 238.175 170C237.031 170.092 236.837 170.052 236.439 169.657C236.116 169.334 236.023 169.062 236.103 168.68C236.165 168.387 236.276 167.854 236.35 167.496C236.547 166.54 236.137 166.67 235.428 167.786C234.845 168.708 234.673 169.691 234.999 170.209C235.268 170.632 237.05 171.036 238.311 170.959C239.103 170.912 239.886 170.69 240.716 170.283Z" fill="#F7E017"/>
<path id="Vector_36" d="M252.753 163.568C253.888 162.436 254.369 161.058 254.375 158.927L254.378 157.327L255.316 156.883C256.533 156.303 257.687 155.15 257.687 154.509C257.687 153.849 257.394 153.883 256.863 154.601C256.478 155.122 255.963 155.437 254.079 156.303C253.604 156.522 253.573 156.639 253.466 158.631C253.339 160.928 253.028 161.789 251.745 163.358C250.959 164.314 250.931 164.44 251.477 164.44C251.702 164.44 252.275 164.049 252.753 163.568Z" fill="#F7E017"/>
<path id="Vector_37" d="M240.395 162.285C240.503 161.955 239.877 161.721 239.606 161.989C239.492 162.103 239.461 162.301 239.538 162.427C239.717 162.714 240.284 162.618 240.395 162.285Z" fill="#F7E017"/>
<path id="Vector_38" d="M257.437 157.873C257.548 157.543 256.919 157.309 256.651 157.577C256.533 157.694 256.503 157.891 256.58 158.018C256.759 158.304 257.326 158.209 257.437 157.873Z" fill="#F7E017"/>
<path id="Vector_39" d="M236.926 145.928C236.485 146.138 236.257 146.613 235.952 146.976C235.73 147.127 235.909 147.266 236.035 147.408C236.812 148.247 237.142 149.378 237.512 150.433C237.876 151.678 238.332 153.017 237.953 154.315C237.805 154.811 237.414 155.326 236.828 155.163C235.893 155.104 234.975 154.857 234.037 154.867C233.202 154.91 232.557 155.668 231.706 155.585C231.161 155.622 231.185 154.469 230.68 154.777C230.43 155.378 230.553 156.048 230.522 156.683C230.618 156.775 230.88 156.695 231.04 156.72H232.721C232.838 157.299 232.826 157.965 233.242 158.425C233.825 158.631 234.481 158.453 235.033 158.227C235.628 157.95 235.705 157.238 235.875 156.68C236.054 156.081 236.837 156.239 237.296 156.004C238.425 155.674 239.168 154.5 239.1 153.343C239.026 151.58 238.354 149.918 237.842 148.25C237.586 147.513 237.407 146.745 237.108 146.03C237.071 145.968 237 145.916 236.926 145.928ZM234.13 156.017C234.759 155.977 235.03 156.747 234.898 157.259C234.663 157.956 233.809 157.509 233.633 157.006C233.316 156.559 233.513 155.958 234.13 156.017Z" fill="#F7E017"/>
<path id="Vector_40" d="M210.881 150.226C210.601 150.22 210.286 150.325 209.975 150.544C208.338 151.691 207.918 153.047 209.031 153.578C209.848 153.969 209.642 154.429 208.356 155.073C206.515 155.992 204.89 155.878 201.804 154.601C201.046 154.287 200.848 154.407 201.024 155.101C201.194 155.782 201.816 156.155 203.364 156.507C205.029 156.889 207.043 156.766 208.338 156.208C208.97 155.937 209.719 155.366 210.351 154.679L211.353 153.578L212.519 153.723C213.955 153.898 213.983 153.914 213.983 154.601C213.983 155.147 214.014 155.16 215.334 155.283C216.077 155.354 217.054 155.419 217.511 155.419C218.093 155.422 218.423 155.523 218.617 155.795C218.876 156.155 219.031 156.174 221.201 155.98C223.23 155.795 223.628 155.81 224.544 156.122C225.194 156.344 225.91 156.433 226.452 156.374C228.006 156.199 230.149 154.928 230.461 153.994C230.498 153.88 231.062 153.68 231.712 153.55C233.282 153.236 233.35 152.893 231.885 152.711C231.25 152.631 230.297 152.4 229.767 152.19C229.233 151.981 228.506 151.805 228.148 151.805C227.359 151.805 226.616 152.298 226.616 152.807C226.616 153.14 226.733 153.174 227.667 153.078C228.546 152.989 228.802 153.038 229.264 153.405C229.569 153.646 229.773 153.929 229.708 154.031C229.502 154.367 227.667 155.203 226.856 155.332C226.313 155.419 225.876 155.36 225.45 155.141C224.738 154.771 223.69 154.716 223.492 155.033C223.409 155.172 223.184 155.082 222.876 154.793L222.395 154.339L221.306 154.793C220.199 155.252 219.792 155.234 219.792 154.706C219.792 154.466 219.468 154.438 217.837 154.543C216.04 154.66 215.852 154.629 215.516 154.253C215.204 153.908 215.198 153.787 215.42 153.433C215.624 153.106 215.624 152.964 215.429 152.77C215.235 152.576 214.982 152.579 214.273 152.77C212.485 153.248 211.979 152.98 211.979 151.583C211.979 150.744 211.498 150.235 210.881 150.226ZM210.437 151.509C210.533 151.509 210.613 151.567 210.736 151.691C210.894 151.848 210.977 152.122 210.909 152.298C210.749 152.714 209.99 152.699 209.83 152.28C209.753 152.076 209.852 151.848 210.08 151.682C210.24 151.564 210.342 151.506 210.437 151.509Z" fill="#F7E017"/>
<path id="Vector_41" d="M207.231 152.81C208.319 152.119 208.294 152.172 208.452 150.254C208.56 148.9 208.541 148.799 208.174 148.799C207.641 148.799 207.363 149.384 207.363 150.501C207.363 151.216 207.252 151.537 206.87 151.916C205.963 152.822 203.713 152.409 203.429 151.284C203.333 150.898 203.457 150.55 203.929 149.881C204.912 148.484 204.69 148.142 203.485 149.202C202.655 149.927 202.507 149.949 202.664 149.323C202.809 148.746 202.507 148.518 201.832 148.688C201.487 148.774 201.298 148.99 201.215 149.409C201.135 149.819 200.947 150.047 200.62 150.127C200.074 150.266 199.143 149.748 199.143 149.307C199.143 148.98 200.537 147.278 202.325 145.422C203 144.719 203.552 144.066 203.552 143.967C203.552 143.868 203.192 143.788 202.751 143.788C202.106 143.788 201.949 143.859 201.949 144.158C201.949 144.362 201.049 145.543 199.945 146.785C197.645 149.375 197.454 149.915 198.591 150.605C199.507 151.167 200.682 151.123 201.604 150.497L202.35 149.989V150.911C202.35 152.088 202.584 152.511 203.509 153.001C204.672 153.615 206.078 153.541 207.231 152.81Z" fill="#F7E017"/>
<path id="Vector_42" d="M255.503 136.804C254.649 137.313 255.318 138.383 255.448 139.095C255.1 140.067 253.854 140.326 252.944 140.508C251.659 140.72 250.746 141.796 250.256 142.94C249.99 143.683 249.349 144.833 248.652 143.705C248.045 143.091 246.932 142.604 246.213 143.32C245.668 143.838 245.532 144.602 245.328 145.293C245.008 144.759 244.863 143.967 244.181 143.801C243.093 143.955 243.488 145.324 244 145.891C244.465 146.551 244.912 147.42 244.456 148.204C244.055 149.144 242.664 149.779 241.847 148.974C241.086 148.574 241.595 147.137 240.845 147.057C240.475 147.325 240.444 148.829 239.849 148.012C239.421 147.316 239.649 146.363 239.125 145.737C238.505 145.814 238.006 146.881 238.212 147.454C239.038 148.57 239.378 149.97 239.701 151.299C239.902 151.833 239.671 152.912 240.17 153.121C240.515 152.264 240.195 151.293 240.466 150.427C241.274 150.325 242.171 150.695 243.019 150.498C244.231 150.34 245.165 149.317 245.591 148.228C245.72 147.411 245.566 146.579 245.544 145.755C246.5 145.903 247.496 145.9 248.415 146.212C248.871 146.912 248.27 147.892 248.144 148.657C247.663 150.214 246.442 151.345 245.254 152.388C244.758 152.681 244.69 153.461 245.424 153.041C247.018 152.36 248.208 150.914 248.893 149.351C249.392 148.148 248.991 146.807 249.315 145.577C249.796 144.652 250.956 144.849 251.813 144.849C252.701 144.815 253.459 143.782 253.16 142.919C252.876 141.917 253.937 141.436 254.662 141.078C255.621 140.594 256.358 139.61 256.284 138.5C256.243 137.933 256.271 136.857 255.503 136.804ZM252.103 142.586C253.129 142.86 251.918 144.821 251.369 143.579C251.202 143.104 251.6 142.567 252.103 142.586ZM247.333 143.992C248.671 143.915 248.19 145.866 247.061 144.978C246.472 144.685 246.667 143.955 247.333 143.992Z" fill="#F7E017"/>
<path id="Vector_43" d="M198.906 151.54C198.943 151.345 198.844 151.207 198.668 151.207C198.295 151.207 198.07 151.534 198.246 151.817C198.428 152.11 198.829 151.944 198.906 151.54Z" fill="#F7E017"/>
<path id="Vector_44" d="M214.582 149.788C214.582 149.502 214.474 149.394 214.233 149.44C213.709 149.539 213.65 150.205 214.165 150.205C214.452 150.205 214.582 150.075 214.582 149.788Z" fill="#F7E017"/>
<path id="Vector_45" d="M195.184 140.378C194.558 140.249 194.164 140.779 193.951 141.285C193.482 142.071 192.912 142.876 192.073 143.292C191.469 143.458 190.812 143.23 190.291 142.919C189.671 142.61 189.81 141.861 189.545 141.346C189.095 140.995 188.299 141.497 188.318 142.046C188.268 142.783 188.956 143.205 189.526 143.492C190.01 143.788 190.717 143.955 190.911 144.556C190.898 145.068 191.102 145.654 191.725 145.456C192.422 145.444 192.6 146.295 192.32 146.804C192.033 147.377 191.839 148.049 191.978 148.691C192.311 148.971 192.65 148.219 192.893 148.003C193.057 147.784 193.22 147.565 193.384 147.346C194.617 147.414 195.847 147.571 197.084 147.525C197.962 147.51 198.712 146.967 199.27 146.329C200.059 145.503 200.71 144.531 201.613 143.819C202.254 143.662 201.909 142.453 201.24 142.802C200.636 143.03 200.444 143.711 200.025 144.146C199.313 145.009 198.582 145.888 197.685 146.563C197.031 146.835 196.276 146.717 195.604 146.563C195.323 146.317 196.162 146.116 196.279 145.845C196.664 145.459 197.124 145.092 197.346 144.587C197.133 144.121 196.476 144.081 196.017 144.072C194.879 144.208 194.013 145.163 192.866 145.253C191.993 145.284 192.449 144.34 192.841 144.019C193.609 143.107 194.438 142.247 195.243 141.365C195.471 141.09 196.294 140.831 195.767 140.446C195.576 140.381 195.379 140.381 195.184 140.378ZM195.742 144.994C196.316 145.318 195.375 145.845 194.981 145.771C194.463 145.925 194.454 145.398 194.913 145.293C195.175 145.157 195.446 145.018 195.742 144.994ZM193.979 146.199C194.306 146.193 194.987 146.508 194.346 146.708C193.902 147.053 193.396 146.354 193.979 146.199Z" fill="#F7E017"/>
<path id="Vector_46" d="M207.863 146.995C207.863 146.56 207.083 146.622 206.997 147.063C206.941 147.346 207.03 147.414 207.394 147.362C207.653 147.325 207.863 147.161 207.863 146.995Z" fill="#F7E017"/>
<path id="Vector_47" d="M242.412 143.936C242.492 143.52 241.912 143.242 241.607 143.548C241.302 143.853 241.582 144.433 241.995 144.352C242.187 144.315 242.375 144.127 242.412 143.936Z" fill="#F7E017"/>
<path id="Vector_48" d="M188.644 139.703C189.187 139.237 189.193 139.206 188.959 138.183C188.626 136.749 188.648 136.595 189.193 136.459C189.884 136.283 191.638 137.224 192.027 137.976C192.329 138.559 192.32 138.599 191.808 139.074C191.256 139.582 191.259 140.178 191.811 140.178C192.267 140.178 193.528 138.984 193.528 138.556C193.528 137.961 192.129 136.555 191.022 136.04C190.337 135.719 189.653 135.571 188.86 135.568C187.442 135.568 187.251 135.873 187.633 137.523C188.083 139.456 187.473 139.718 185.916 138.26C184.759 137.177 184.303 136.052 184.309 134.279C184.312 132.377 185.04 131.436 186.68 131.214C187.769 131.069 187.741 130.813 186.622 130.647C184.988 130.4 183.606 131.492 183.082 133.44C182.499 135.602 183.834 138.235 186.196 139.592C187.433 140.301 187.926 140.322 188.644 139.703Z" fill="#F7E017"/>
<path id="Vector_49" d="M253.037 137.332C253.169 137.199 253.277 136.9 253.277 136.669C253.277 136.438 253.502 135.941 253.777 135.568C254.054 135.195 254.279 134.813 254.279 134.72C254.279 134.341 253.653 134.353 253.16 134.745C252.654 135.139 252.275 135.149 252.275 134.763C252.275 134.668 252.516 134.47 252.812 134.325C253.546 133.968 253.607 133.613 252.987 133.33C252.192 132.969 251.393 133.629 251.31 134.717C251.258 135.445 251.316 135.571 251.877 135.901C252.389 136.203 252.485 136.364 252.399 136.795C252.251 137.544 252.562 137.807 253.037 137.332Z" fill="#F7E017"/>
<path id="Vector_50" d="M259.089 136.647C259.533 136.249 259.894 135.796 259.894 135.645C259.894 135.494 260.277 135.093 260.745 134.757C262.074 133.801 262.367 132.836 261.772 131.353C261.541 130.77 260.813 129.966 259.231 128.541C258.016 127.443 256.897 126.546 256.752 126.546C256.321 126.546 256.398 128.134 256.836 128.273C257.625 128.526 258.103 128.849 259.345 129.969C260.788 131.273 261.454 132.491 261.091 133.169C260.742 133.826 260.28 133.622 259.006 132.257C258.337 131.538 257.674 130.952 257.539 130.952C257.391 130.955 257.286 131.214 257.286 131.578C257.286 132.035 257.529 132.469 258.189 133.203C259.265 134.399 259.37 135.118 258.562 135.753C258.272 135.981 257.973 136.169 257.899 136.169C257.828 136.169 257.591 135.812 257.375 135.377C256.925 134.464 254.172 131.557 253.758 131.557C253.57 131.557 253.478 131.791 253.478 132.253C253.478 132.812 253.589 133.009 254.033 133.237C254.579 133.521 255.929 134.88 257.286 136.521C257.674 136.989 258.057 137.369 258.14 137.372C258.22 137.372 258.649 137.045 259.089 136.647Z" fill="#F7E017"/>
<path id="Vector_51" d="M261.791 128.917C261.612 128.341 257.918 124.539 257.539 124.539C257.341 124.539 257.28 124.773 257.326 125.378C257.378 126.111 257.458 126.238 257.964 126.37C258.279 126.454 259.253 127.218 260.126 128.066C260.995 128.914 261.76 129.559 261.821 129.494C261.883 129.432 261.871 129.173 261.791 128.917Z" fill="#F7E017"/>
<path id="Vector_52" d="M239.729 171.708C239.729 171.985 239.483 172.21 239.18 172.21C238.878 172.21 238.632 171.985 238.632 171.708C238.632 171.43 238.878 171.205 239.18 171.205C239.483 171.205 239.729 171.43 239.729 171.708Z" fill="#F7E017"/>
<path id="Vector_53" d="M241.668 171.06C241.668 171.338 241.422 171.563 241.12 171.563C240.817 171.563 240.571 171.338 240.571 171.06C240.571 170.783 240.817 170.558 241.12 170.558C241.422 170.558 241.668 170.783 241.668 171.06Z" fill="#F7E017"/>
</g>
</g>
</g>
</svg>
