<svg width="450" height="300" viewBox="0 0 450 300" fill="none" xmlns="http://www.w3.org/2000/svg">
<g id="BTN">
<path id="Vector" d="M450 0H0V300H450V0Z" fill="#FFD520"/>
<path id="Vector_2" d="M0 300H450V0L0 300Z" fill="#FF4E12"/>
<g id="Group">
<g id="Group_2">
<path id="Vector_3" d="M240.87 93.7951C238.376 92.9097 236.766 94.1976 236.847 97.4172C236.926 100.637 238.618 102.488 241.112 101.281L240.87 93.7952L240.87 93.7951Z" fill="white" stroke="black" stroke-width="0.5208"/>
<path id="Vector_4" d="M243.06 87.7652C240.983 86.1252 239.046 86.8283 238.087 89.9031C237.129 92.9777 238.135 95.2741 240.885 94.9321L243.06 87.7656V87.7652Z" fill="white" stroke="black" stroke-width="0.5208"/>
<path id="Vector_5" d="M246.52 81.9301C244.73 79.9778 242.705 80.361 241.266 83.2424C239.828 86.1241 240.453 88.5514 243.224 88.6549L246.52 81.9299L246.52 81.9301Z" fill="white" stroke="black" stroke-width="0.5208"/>
<path id="Vector_6" d="M244.25 110.295C241.192 111.422 240.869 115.607 242.802 118.183C244.733 120.759 248.275 121.242 250.206 118.183L244.251 110.293L244.25 110.295Z" fill="white" stroke="black" stroke-width="0.5208"/>
<path id="Vector_7" d="M240.71 101.44C237.812 100.474 235.202 104.366 234.754 107.879C234.191 112.306 227.912 113.755 231.374 120.436C232.097 116.17 234.916 113.836 237.168 113.675C239.423 113.514 242.804 113.031 244.252 110.294L240.71 101.44L240.71 101.44Z" fill="white" stroke="black" stroke-width="0.5208"/>
<path id="Vector_8" d="M249.885 118.665C246.504 119.47 246.021 123.978 248.435 127.197C250.502 129.954 256.967 129.29 256.806 126.553L249.885 118.665V118.665Z" fill="white" stroke="black" stroke-width="0.5208"/>
<path id="Vector_9" d="M259.465 145.79C259.625 142.893 254.959 141.766 252.704 142.329C250.45 142.893 246.144 142.249 245.138 139.834C244.334 141.766 245.5 143.859 248.761 144.905C251.227 145.697 251.175 147.481 250.45 148.286C252.302 148.608 257.775 148.608 259.465 145.79V145.79Z" fill="white" stroke="black" stroke-width="0.5208"/>
<path id="Vector_10" d="M256.81 127.28C253.51 125.831 251.553 128.038 250.291 130.178C248.439 133.317 242.724 129.292 240.793 133.478C243.41 132.351 246.072 134.754 247.312 135.571C250.854 137.905 257.695 137.18 258.662 131.707L256.81 127.28L256.81 127.28Z" fill="white" stroke="black" stroke-width="0.5208"/>
<path id="Vector_11" d="M258.74 131.14C255.44 133.635 254.153 136.613 254.234 138.625C254.315 140.638 257.132 145.064 260.19 145.306C261.961 141.684 262.847 134.037 258.74 131.14H258.74Z" fill="white" stroke="black" stroke-width="0.5208"/>
<path id="Vector_12" d="M245.06 146.675C245.06 145.468 246.831 144.985 248.037 145.387C249.246 145.79 251.096 146.997 250.452 148.285L245.06 146.675H245.06Z" fill="white" stroke="black" stroke-width="0.5208"/>
<path id="Vector_13" d="M226.865 140.075C226.544 138.626 228.878 136.131 232.017 137.499C235.155 138.868 235.559 141.524 234.269 142.57L226.865 140.075L226.865 140.075Z" fill="white" stroke="black" stroke-width="0.5208"/>
<path id="Vector_14" d="M234.51 142.73C234.268 141.925 236.529 140.317 240.387 141.281C244.25 142.247 245.197 144.734 245.056 146.674L234.51 142.73L234.51 142.73Z" fill="white" stroke="black" stroke-width="0.5208"/>
<path id="Vector_15" d="M226.465 140.075C228.478 138.546 227.715 135.648 225.9 134.763C222.6 133.153 223.809 128.968 221.715 128.163C219.623 127.358 217.611 125.909 217.53 124.46C216.484 126.472 217.128 128.324 218.578 129.612C220.025 130.9 217.45 136.131 219.3 137.5L226.465 140.075L226.465 140.075Z" fill="white" stroke="black" stroke-width="0.5208"/>
<path id="Vector_16" d="M183.32 138.95C181.63 136.294 177.605 136.777 175.915 138.628C174.225 140.479 174.466 143.216 176.076 144.423L183.32 138.949L183.32 138.95Z" fill="white" stroke="black" stroke-width="0.5208"/>
<path id="Vector_17" d="M192.98 135.005C192.336 131.464 188.07 131.061 185.736 131.946C183.402 132.832 181.792 136.373 183.321 138.949L192.98 135.005H192.98Z" fill="white" stroke="black" stroke-width="0.5208"/>
<path id="Vector_18" d="M199.42 134.52C200.949 131.542 197.971 127.115 194.591 126.471C191.768 125.934 188.433 125.948 187.347 123.171C186.663 125.586 188.474 127.115 190.566 128.484C192.659 129.852 190.164 133.394 193.544 135.406L199.42 134.52L199.42 134.52Z" fill="white" stroke="black" stroke-width="0.5208"/>
<path id="Vector_19" d="M199.1 134.625C198.396 132.492 199.824 129.653 202.716 129.852C205.608 130.051 207.256 132.153 205.981 134.78L199.1 134.625H199.1Z" fill="white" stroke="black" stroke-width="0.5208"/>
<path id="Vector_20" d="M205.535 134.785C205.137 132.574 206.95 129.965 209.785 130.568C212.621 131.17 213.956 133.483 212.327 135.905L205.535 134.785L205.535 134.785Z" fill="white" stroke="black" stroke-width="0.5208"/>
<path id="Vector_21" d="M211.93 135.8C211.643 133.572 213.584 131.057 216.386 131.8C219.188 132.543 220.407 134.92 218.657 137.257L211.93 135.8L211.93 135.8Z" fill="white" stroke="black" stroke-width="0.5208"/>
<path id="Vector_22" d="M163.36 172.675C157.967 172.675 156.65 173.959 155.875 179.517C154.909 186.439 164.326 187.244 163.36 172.675Z" fill="white" stroke="black" stroke-width="0.5208"/>
<path id="Vector_23" d="M165.775 165.43C157.485 162.291 152.978 175.411 144.768 173.077C147.705 177.745 154.827 173.085 157.485 173.559C161.992 174.364 171.731 172.674 165.775 165.43V165.43Z" fill="white" stroke="black" stroke-width="0.5208"/>
<path id="Vector_24" d="M160.38 183.38C156.275 181.529 151.848 187.807 152.653 190.544C153.675 194.02 163.036 191.188 160.38 183.38Z" fill="white" stroke="black" stroke-width="0.5208"/>
<path id="Vector_25" d="M141.225 210.425C143.479 211.067 146.215 212.356 145.732 216.702C145.249 221.048 137.04 229.902 129.635 230.386C122.23 230.869 119.573 239.802 113.215 237.307C119.171 236.182 119.171 229.419 123.839 227.328C120.459 226.119 118.688 233.767 114.342 233.767C109.995 233.767 107.903 240.688 102.59 240.205C97.2778 239.723 96.7188 248.632 86.0903 248.738C77.9608 248.817 67.8998 258.315 64.2778 254.211C72.1658 253.084 75.3488 248.713 80.0538 243.907C87.6198 236.182 96.1518 239.643 99.0493 232.801C95.5881 235.134 91.5638 236.261 87.6198 236.182C82.669 236.08 77.2368 244.069 71.6828 240.528C74.9024 240.126 76.9953 238.757 80.3758 235.215C83.8377 231.588 88.9173 233.932 92.9323 230.226C99.2103 224.43 104.603 229.259 110.64 222.015C108.949 221.211 105.327 221.774 101.947 223.544C98.5662 225.315 94.2198 222.336 90.3563 224.43C90.8392 219.682 99.8538 222.399 105.488 219.117C111.847 215.415 117.119 216.501 122.15 216.944C115.147 216.905 112.411 210.263 102.752 212.194C98.5398 213.038 95.1863 206.4 91.0008 209.78C91.1215 207.286 95.5083 205.273 100.016 207.688C104.523 210.103 106.34 205.575 115.309 211.23C119.011 213.563 125.37 209.78 129.394 212.276C128.871 210.747 126.577 209.78 123.881 209.982C125.571 206.521 136.477 206.963 141.226 210.426L141.225 210.425Z" fill="white" stroke="black" stroke-width="0.5208"/>
<path id="Vector_26" d="M148.39 205.19C144.848 202.454 139.938 205.754 136.558 204.466C136.558 206.719 137.685 210.1 141.387 211.388C142.514 210.584 147.585 206.156 148.39 205.19L148.39 205.19Z" fill="white" stroke="black" stroke-width="0.5208"/>
<path id="Vector_27" d="M153.945 197.385C148.391 194.568 147.426 201.57 143.079 200.122C143.24 202.134 144.85 204.629 148.392 205.193L153.946 197.385L153.945 197.385Z" fill="white" stroke="black" stroke-width="0.5208"/>
<path id="Vector_28" d="M157.245 191.025C149.035 187.805 147.989 195.693 143.16 194.164C144.287 196.901 151.209 198.349 154.75 197.384L157.245 191.025L157.245 191.025Z" fill="white" stroke="black" stroke-width="0.5208"/>
<path id="Vector_29" d="M168.51 156.495C166.337 153.437 161.749 155.932 161.025 159.554C160.3 163.176 162.071 168.247 165.13 167.12L168.51 156.495L168.51 156.495Z" fill="white" stroke="black" stroke-width="0.5208"/>
<path id="Vector_30" d="M174.065 146.835C170.282 145.95 165.935 146.352 166.418 150.055C164.97 150.699 164.567 155.448 168.511 156.494L174.065 146.835L174.065 146.835Z" fill="white" stroke="black" stroke-width="0.5208"/>
<path id="Vector_31" d="M176.56 144.34C172.857 139.994 168.728 140.095 166.418 141.925C162.152 145.306 158.007 143.374 157.886 146.755C160.462 144.783 162.716 147.157 164.808 146.433C166.901 145.708 168.431 149.733 174.226 148.043L176.56 144.34L176.56 144.34Z" fill="white" stroke="black" stroke-width="0.5208"/>
<path id="Vector_32" d="M167.625 209.3C168.189 210.346 171.65 210.829 173.34 209.058C175.58 206.711 173.099 200.204 169.557 199.721C166.016 199.238 165.694 207.046 167.625 209.3L167.625 209.3Z" fill="white" stroke="black" stroke-width="0.5208"/>
<path id="Vector_33" d="M163.6 209.46C168.67 211.31 170.844 207.125 168.107 204.469C167.383 205.355 164.727 208.575 163.6 209.46Z" fill="white" stroke="black" stroke-width="0.5208"/>
<path id="Vector_34" d="M144.605 216.38C143.639 219.278 138.649 219.761 133.015 228.776C127.38 237.79 121.988 234.007 120.619 240.205C127.38 234.732 132.69 238.367 136.717 232.961C142.834 224.75 147.871 225.929 150.239 220.404C153.62 212.517 168.43 212.677 169.235 200.282C164.244 199.316 148.468 212.677 144.605 216.379V216.38Z" fill="white" stroke="black" stroke-width="0.5208"/>
<g id="Vector_35">
<path d="M271.62 94.6801C278.059 96.7728 278.22 105.144 285.624 107.88C293.03 110.617 293.755 117.217 299.79 115.607C294.157 114.078 294.559 107.558 288.684 105.948C281.792 104.06 279.186 93.5526 273.711 91.9431" fill="white"/>
<path d="M271.62 94.6801C278.059 96.7728 278.22 105.144 285.624 107.88C293.03 110.617 293.755 117.217 299.79 115.607C294.157 114.078 294.559 107.558 288.684 105.948C281.792 104.06 279.186 93.5526 273.711 91.9431" stroke="black" stroke-width="0.5208"/>
</g>
<path id="Vector_36" d="M301.16 138.385C302.287 140.961 302.127 145.549 298.102 146.756C300.274 148.124 303.493 146.836 305.264 143.859C302.608 149.734 304.379 155.047 308.564 156.093C306.552 151.988 311.06 150.056 309.612 147.4C312.268 148.527 314.602 152.149 314.52 154.403C317.983 150.539 311.945 145.388 313.072 141.766L301.16 138.385V138.385Z" fill="white" stroke="black" stroke-width="0.5208"/>
<path id="Vector_37" d="M259.465 179.755C255.521 176.294 253.838 180.66 251.899 179.151C250.088 177.743 247.674 177.541 246.749 178.95C250.13 179.071 248.478 181.687 255.038 182.331C248.478 182.773 249.686 190.098 245.299 189.736C249.967 194.162 252.382 185.792 256.165 187.16C255.038 187.482 257.936 190.138 255.923 193.679C259.184 193.599 260.511 189.092 260.915 186.757L259.465 179.755V179.755Z" fill="white" stroke="black" stroke-width="0.5208"/>
<path id="Vector_38" d="M172.615 217.345C171.166 216.139 166.981 215.574 165.371 216.541C163.762 217.506 164.325 217.747 166.257 217.91C168.188 218.07 170.683 221.195 166.498 221.37C164.566 221.449 165.21 226.118 161.186 226.441C162.836 228.454 167.545 227.124 169.235 224.912C168.913 226.722 171.327 228.372 170.361 230.545C173.34 230.868 171.609 224.51 176.318 224.831C174.386 225.073 175.191 229.418 178.572 228.291C176.559 229.258 177.606 231.591 179.859 231.029C178.411 231.512 177.928 233.362 179.94 234.41C181.872 231.754 179.698 222.256 172.615 217.346L172.615 217.345Z" fill="white" stroke="black" stroke-width="0.5208"/>
<path id="Vector_39" d="M347.925 128.535C354.086 128.535 359.079 123.54 359.079 117.379C359.079 111.219 354.085 106.224 347.925 106.224C341.763 106.224 336.769 111.219 336.769 117.379C336.769 123.54 341.762 128.535 347.925 128.535Z" fill="white" stroke="black" stroke-width="0.5208"/>
<path id="Vector_40" d="M289.65 142.01C293.031 138.791 298.184 137.181 301.723 139.595C305.265 142.01 317.017 144.908 322.813 140.883C328.607 136.859 331.344 134.766 333.919 135.249C335.853 138.147 338.186 139.515 341.084 139.756C341.969 140.722 345.109 141.527 346.88 141.285C349.455 141.929 352.594 141.125 355.088 138.388C358.953 138.951 362.574 136.054 363.942 131.707C368.046 131.225 368.288 126.636 365.713 123.578C363.298 123.095 365.151 114.965 356.376 116.575C360.08 118.829 357.261 123.336 360.321 125.429C358.228 125.429 355.532 126.315 354.888 129.454C355.692 127.281 354.767 125.832 354.202 125.349C354.284 123.498 350.18 118.95 346.315 120.6C349.092 121.204 347.523 125.671 349.536 127.361C348.086 127.442 346.557 128.166 345.671 129.454C344.625 127.603 340.923 125.671 338.669 125.51C338.669 124.866 338.548 123.578 338.267 122.934C337.261 121.003 336.415 118.709 336.817 115.771C334.886 117.863 333.276 120.761 332.311 122.854C329.253 120.761 321.686 123.82 318.144 124.624C314.603 125.429 302.69 123.498 299.953 120.6C297.218 117.702 291.905 115.932 286.915 114.483C280.053 112.491 279.992 104.985 272.426 99.834C272.265 109.171 286.432 138.791 289.651 142.01L289.65 142.01Z" fill="white" stroke="black" stroke-width="0.5208"/>
<path id="Vector_41" d="M210.77 213.16C216.727 213.16 221.556 208.331 221.556 202.375C221.556 196.418 216.726 191.59 210.77 191.59C204.814 191.59 199.985 196.418 199.985 202.375C199.985 208.331 204.813 213.16 210.77 213.16Z" fill="white" stroke="black" stroke-width="0.5208"/>
<g id="Vector_42">
<path d="M185.01 204.87C187.183 207.688 190.886 207.527 192.415 207.285C193.703 210.665 197.808 210.585 199.579 212.435C201.35 214.288 207.385 214.127 209.156 213.079C207.548 212.919 205.455 211.954 203.442 210.263C201.013 208.223 202.154 204.146 200.223 202.697C201.671 201.087 201.913 198.431 201.591 197.385C203.12 196.499 204.247 195.05 204.408 194.326C207.065 194.165 209.398 192.797 210.365 191.75C211.733 193.038 215.194 191.348 217.046 193.521C217.448 188.209 212.377 185.392 208.996 187.163C207.627 186.438 204.006 186.921 203.362 187.887C202.235 187.404 199.096 189.014 197.647 190.06C199.257 189.175 199.498 186.519 198.854 185.553C200.223 184.989 201.752 183.138 201.913 181.77C203.845 182.092 206.742 180.804 208.029 181.126C205.938 178.389 202.477 177.423 198.935 177.665C195.272 177.866 193.703 180.442 193.22 183.219C191.047 184.507 190.323 188.853 191.128 190.382C189.88 190.342 188.713 191.55 188.23 192.234C186.54 191.509 184.125 190.986 182.395 190.986" fill="white"/>
<path d="M185.01 204.87C187.183 207.688 190.886 207.527 192.415 207.285C193.703 210.665 197.808 210.585 199.579 212.435C201.35 214.288 207.385 214.127 209.156 213.079C207.548 212.919 205.455 211.954 203.442 210.263C201.013 208.223 202.154 204.146 200.223 202.697C201.671 201.087 201.913 198.431 201.591 197.385C203.12 196.499 204.247 195.05 204.408 194.326C207.065 194.165 209.398 192.797 210.365 191.75C211.733 193.038 215.194 191.348 217.046 193.521C217.448 188.209 212.377 185.392 208.996 187.163C207.627 186.438 204.006 186.921 203.362 187.887C202.235 187.404 199.096 189.014 197.647 190.06C199.257 189.175 199.498 186.519 198.854 185.553C200.223 184.989 201.752 183.138 201.913 181.77C203.845 182.092 206.742 180.804 208.029 181.126C205.938 178.389 202.477 177.423 198.935 177.665C195.272 177.866 193.703 180.442 193.22 183.219C191.047 184.507 190.323 188.853 191.128 190.382C189.88 190.342 188.713 191.55 188.23 192.234C186.54 191.509 184.125 190.986 182.395 190.986" stroke="black" stroke-width="0.5208"/>
</g>
<path id="Vector_43" d="M183.16 186.6C182.436 184.507 183.395 182.623 183.885 180.966C185.132 176.741 184.368 175.654 180.585 176.217C180.263 178.229 182.194 184.83 183.16 186.6L183.16 186.6Z" fill="white" stroke="black" stroke-width="0.5208"/>
<path id="Vector_44" d="M180.385 176.455C181.351 177.421 184.772 177.864 185.134 174.805C185.55 171.294 184.128 169.935 181.069 171.303C180.828 172.108 180.546 175.408 180.385 176.455L180.385 176.455Z" fill="white" stroke="black" stroke-width="0.5208"/>
<path id="Vector_45" d="M181.11 171.185C182.398 171.708 185.175 172.754 186.704 169.776C187.987 167.278 186.302 165.349 183.646 165.51C183.002 166.235 181.714 168.81 181.11 171.185L181.11 171.185Z" fill="white" stroke="black" stroke-width="0.5208"/>
<path id="Vector_46" d="M183.485 165.27C183.807 166.236 187.107 169.456 189.522 167.122C191.936 164.787 191.936 161.327 188.314 160.039C187.348 160.199 184.451 163.58 183.485 165.27L183.485 165.27Z" fill="white" stroke="black" stroke-width="0.5208"/>
<path id="Vector_47" d="M188.31 160.04C189.034 162.052 191.288 165.513 195.474 163.904C199.659 162.294 197.888 157.062 195.957 156.016C194.83 156.096 190.242 158.189 188.31 160.04L188.31 160.04Z" fill="white" stroke="black" stroke-width="0.5208"/>
<path id="Vector_48" d="M195.96 156.015C195.638 157.786 195.96 162.615 201.675 162.534C207.389 162.454 205.78 155.773 204.331 154.807C201.997 154.807 198.053 154.888 195.96 156.015L195.96 156.015Z" fill="white" stroke="black" stroke-width="0.5208"/>
<path id="Vector_49" d="M204.57 155.045C203.926 156.413 202.475 165.42 213.666 162.933C215.114 162.611 218.897 154.321 204.57 155.045Z" fill="white" stroke="black" stroke-width="0.5208"/>
<path id="Vector_50" d="M210.685 155.85C209.56 156.977 212.456 166.072 220.023 164.542C227.589 163.013 221.231 154.401 210.685 155.85Z" fill="white" stroke="black" stroke-width="0.5208"/>
<path id="Vector_51" d="M217.125 157.22C215.919 159.715 217.731 167.12 227.067 167.12C235.527 167.12 226.623 157.381 217.125 157.22Z" fill="white" stroke="black" stroke-width="0.5208"/>
<path id="Vector_52" d="M224.45 159.395C223.843 160.778 223.102 168.629 234.108 169.295C242.077 169.778 240.146 158.51 224.45 159.395Z" fill="white" stroke="black" stroke-width="0.5208"/>
<path id="Vector_53" d="M236.285 162.695C234.919 165.11 233.469 171.147 245.542 171.63C253.277 171.939 248.521 162.856 236.285 162.695Z" fill="white" stroke="black" stroke-width="0.5208"/>
<path id="Vector_54" d="M246.345 164.545C244.574 166.96 245.878 171.696 250.368 172.594C256.003 173.721 256.807 168.409 252.945 165.833C249.08 163.257 246.345 164.545 246.345 164.545V164.545Z" fill="white" stroke="black" stroke-width="0.5208"/>
<path id="Vector_55" d="M251.82 165.67C250.533 167.924 251.331 173.397 259.868 173.397C261.639 173.397 268.402 166.475 251.82 165.67Z" fill="white" stroke="black" stroke-width="0.5208"/>
<path id="Vector_56" d="M185.74 270.635C192.655 270.635 198.261 265.029 198.261 258.114C198.261 251.198 192.655 245.591 185.74 245.591C178.825 245.591 173.219 251.198 173.219 258.114C173.219 265.029 178.825 270.635 185.74 270.635Z" fill="white" stroke="black" stroke-width="0.5208"/>
<path id="Vector_57" d="M277.575 88.5652C276.608 89.531 274.598 92.4285 274.194 93.5554C270.008 106.112 281.181 115.491 287.717 128.97C292.869 139.595 292.225 156.337 284.175 166.961C281.421 170.595 282.244 171.63 278.702 175.332C277.344 176.753 275.804 178.552 276.287 183.703C278.542 182.898 281.76 184.991 282.404 186.762C284.014 185.957 286.268 186.279 287.073 187.245C289.808 185.957 292.062 186.601 294.477 189.177C296.57 188.855 298.825 189.177 300.916 191.43C302.043 189.177 304.297 188.372 305.906 188.855C305.745 185.957 308.643 183.864 311.218 184.991C310.414 181.128 313.956 178.23 317.337 179.357C320.233 177.103 326.029 176.942 328.927 180.323C323.775 178.874 323.937 184.347 319.589 183.864C320.716 187.084 317.818 188.935 314.923 189.981C316.773 189.096 318.785 188.05 319.429 189.177C321.039 187.768 324.258 188.291 325.064 189.015C327.196 188.332 329.25 188.854 330.214 191.43C333.112 193.201 335.043 197.708 332.952 201.089C332.308 197.548 329.893 197.708 328.927 196.26C326.673 197.065 324.418 197.065 323.775 195.616C322.487 196.904 318.141 198.031 316.21 196.099C315.485 198.996 312.989 201.411 310.091 201.411C310.898 203.665 308.643 207.529 306.873 209.46C309.61 210.908 308.804 214.129 308.16 216.06C312.345 216.704 308.804 220.406 316.048 222.821C312.508 223.948 305.585 222.821 304.619 218.475C301.077 218.314 298.662 214.773 298.825 211.068C296.087 208.493 295.685 204.791 299.468 202.216C296.247 203.182 294.477 198.03 289.808 200.123C287.487 201.164 281.358 199.399 281.439 197.225C280.472 198.835 274.597 198.191 273.791 195.455C271.86 196.501 267.351 194.73 267.432 192.074C264.936 193.201 261.557 191.189 261.718 188.613C259.384 188.291 259.143 186.199 259.303 184.428C257.209 183.462 257.774 181.45 258.578 179.035C257.13 177.425 257.774 175.172 258.901 173.079C257.291 171.469 257.614 169.537 258.095 167.284C250.368 166.64 240.688 164.776 218.495 157.947C185.011 147.645 175.996 171.791 183.401 186.923C191.945 204.383 182.435 208.173 185.333 221.213C188.392 221.856 190.002 224.431 189.841 227.169C191.651 227.248 192.939 228.938 192.295 232.159C193.825 231.878 195.797 232.319 197.085 233.607C198.211 231.515 201.914 231.032 203.846 233.446C208.03 233.123 210.124 236.505 209.964 240.69C212.216 244.715 211.411 249.626 208.997 252.763C209.239 251.074 208.997 248.659 208.918 247.211C208.768 244.547 205.053 243.99 205.456 241.817C203.524 241.978 201.672 240.932 201.029 239.484C199.902 240.449 198.292 240.771 196.924 240.288C199.097 241.255 200.787 245.117 200.143 247.692C201.27 249.625 201.029 253.167 199.66 254.696C199.016 257.834 196.602 258.961 193.463 257.592C195.234 256.467 195.878 254.454 195.797 252.763C194.67 251.798 194.107 249.946 194.026 248.819C190.887 249.302 186.541 246.646 185.739 245.596C178.824 245.596 173.218 251.203 173.218 258.119C172.896 255.542 169.638 253.005 170.041 250.832C168.109 244.875 170.846 239.321 178.734 238.196C177.768 235.942 181.148 233.607 179.861 231.032C178.215 227.742 175.192 223.465 170.685 218.475C173.422 213.806 172.617 207.529 171.007 203.665C168.695 198.117 166.499 199.48 158.289 208.494C144.909 223.186 127.059 219.119 111.283 228.778C107.091 231.344 102.913 232.319 107.42 227.813C111.928 223.305 123.84 218.798 131.567 214.934C146.037 207.698 158.289 195.616 163.119 172.114C174.467 116.884 216.239 135.089 242.639 145.391C267.424 155.064 262.922 133.157 250.366 119.957C235.274 104.091 238.293 91.625 245.376 81.644C258.092 79.8734 282.482 84.3002 277.572 88.5665L277.575 88.5652Z" fill="white" stroke="black" stroke-width="0.5208"/>
<path id="Vector_58" d="M322.41 224.24C330.019 224.24 336.187 218.073 336.187 210.465C336.187 202.856 330.018 196.688 322.41 196.688C314.802 196.688 308.633 202.856 308.633 210.465C308.633 218.073 314.802 224.24 322.41 224.24Z" fill="white" stroke="black" stroke-width="0.5208"/>
</g>
<g id="Group_3">
<path id="Vector_59" d="M269.85 89.2048C266.792 102.727 269.367 108.844 273.875 114.8C283.189 127.111 290.616 155.206 279.991 173.555" stroke="black" stroke-width="0.5208"/>
<g id="Group_4">
<path id="Vector_60" d="M285.945 157.705C287.233 157.222 289.647 155.693 290.212 153.036" stroke="black" stroke-width="0.5208" stroke-linecap="round"/>
<path id="Vector_61" d="M286.91 151.83C287.312 149.496 290.933 148.49 291.014 145.995" stroke="black" stroke-width="0.5208" stroke-linecap="round"/>
<path id="Vector_62" d="M286.99 142.73C286.748 140.315 290.613 138.142 290.048 135.727" stroke="black" stroke-width="0.5208" stroke-linecap="round"/>
<path id="Vector_63" d="M284.9 134.04C284.577 132.671 288.119 130.096 287.154 127.923" stroke="black" stroke-width="0.5208" stroke-linecap="round"/>
<path id="Vector_64" d="M282.245 125.59C281.52 124.061 283.934 122.29 282.888 120.68" stroke="black" stroke-width="0.5208" stroke-linecap="round"/>
<path id="Vector_65" d="M278.38 118.825C278.138 117.779 279.628 115.485 278.824 114.117" stroke="black" stroke-width="0.5208" stroke-linecap="round"/>
<path id="Vector_66" d="M274.515 110.86C274.836 110.458 276.126 109.492 275.601 108.284" stroke="black" stroke-width="0.5208" stroke-linecap="round"/>
<path id="Vector_67" d="M271.86 105.025C272.383 104.743 273.952 104.26 273.752 103.093" stroke="black" stroke-width="0.5208" stroke-linecap="round"/>
<path id="Vector_68" d="M191.29 256.785C188.07 255.658 184.046 257.268 183.241 260.006" stroke="black" stroke-width="0.5208" stroke-linecap="round" stroke-linejoin="round"/>
<path id="Vector_69" d="M185.655 262.5C186.057 259.764 190.243 258.556 191.53 259.844C188.874 258.396 187.586 263.546 189.92 263.708" stroke="black" stroke-width="0.5208" stroke-linecap="round" stroke-linejoin="round"/>
<path id="Vector_70" d="M211.575 198.835C209.644 199.801 209.081 203.342 211.575 205.999" stroke="black" stroke-width="0.5208" stroke-linecap="round" stroke-linejoin="round"/>
<path id="Vector_71" d="M214.47 199.64C213.103 200.767 213.183 204.147 215.195 204.952C213.505 203.745 215.195 201.652 216.403 201.572C217.61 201.491 218.414 202.94 216.966 204.389" stroke="black" stroke-width="0.5208" stroke-linecap="round" stroke-linejoin="round"/>
<path id="Vector_72" d="M327.56 207.605C323.054 206.399 319.431 211.63 323.535 216.299C323.456 211.791 326.674 208.813 330.618 209.617" stroke="black" stroke-width="0.5208" stroke-linecap="round" stroke-linejoin="round"/>
<path id="Vector_73" d="M328.805 212.735C327.697 212.735 327.074 213.602 327.074 214.445C327.074 215.331 327.838 216.177 329.086 216.177C329.892 216.177 330.536 215.252 330.536 214.527" stroke="black" stroke-width="0.5208" stroke-linecap="round" stroke-linejoin="round"/>
<path id="Vector_74" d="M344.7 113.915C345.425 116.651 349.208 117.778 352.185 117.134" stroke="black" stroke-width="0.5208" stroke-linecap="round" stroke-linejoin="round"/>
<path id="Vector_75" d="M352.185 115.365C349.851 115.445 347.92 113.272 348.081 111.421C348.081 112.789 351.22 113.433 352.185 112.548" stroke="black" stroke-width="0.5208" stroke-linecap="round" stroke-linejoin="round"/>
<path id="Vector_76" d="M192.415 207.285C191.771 205.674 194.347 204.065 194.427 202.535C194.508 201.006 197.325 199.799 200.222 202.696" stroke="black" stroke-width="0.5208" stroke-linecap="round"/>
<path id="Vector_77" d="M198.855 185.555C198.291 185.796 197.808 186.118 197.325 186.279" stroke="black" stroke-width="0.5208" stroke-linecap="round"/>
<path id="Vector_78" d="M204.41 194.325C203.726 194.366 202.317 194.285 201.552 193.761" stroke="black" stroke-width="0.5208" stroke-linecap="round"/>
<path id="Vector_79" d="M201.595 197.385C201.032 197.667 199.783 198.15 199.059 198.311" stroke="black" stroke-width="0.5208" stroke-linecap="round"/>
<path id="Vector_80" d="M173.985 246C173.904 247.45 175.353 249.542 176.158 250.185" stroke="black" stroke-width="0.5208" stroke-linecap="round"/>
<path id="Vector_81" d="M180.265 242.54C179.46 243.746 178.977 245.84 179.46 247.288" stroke="black" stroke-width="0.5208" stroke-linecap="round"/>
<path id="Vector_82" d="M192.255 247.37C190.806 246.403 191.772 243.907 191.611 242.299C191.45 240.689 193.301 238.114 196.923 240.286" stroke="black" stroke-width="0.5208" stroke-linecap="round"/>
<path id="Vector_83" d="M178.735 238.195C180.184 237.953 181.713 238.033 182.679 238.435" stroke="black" stroke-width="0.5208" stroke-linecap="round"/>
<path id="Vector_84" d="M197.085 233.605C196.441 234.49 196.28 235.457 196.2 236.101" stroke="black" stroke-width="0.5208" stroke-linecap="round"/>
<path id="Vector_85" d="M203.845 233.445C202.718 233.445 201.752 234.249 201.27 235.055" stroke="black" stroke-width="0.5208" stroke-linecap="round"/>
<path id="Vector_86" d="M188.23 192.235C189.518 192.678 192.858 194.73 192.979 196.863" stroke="black" stroke-width="0.5208" stroke-linecap="round"/>
<path id="Vector_87" d="M201.915 181.77C197.971 181.689 196.442 177.665 199.42 177.665" stroke="black" stroke-width="0.5208" stroke-linecap="round"/>
<path id="Vector_88" d="M209 187.16C207.471 187.804 208.196 190.46 210.369 191.748" stroke="black" stroke-width="0.5208" stroke-linecap="round"/>
<path id="Vector_89" d="M199.58 212.435C198.815 211.47 199.821 208.654 202.316 209.497" stroke="black" stroke-width="0.5208" stroke-linecap="round"/>
<path id="Vector_90" d="M205.455 241.815C205.615 239.361 208.715 237.911 209.963 240.688" stroke="black" stroke-width="0.5208" stroke-linecap="round"/>
<path id="Vector_91" d="M194.025 248.815C193.824 246.119 195.192 245.234 196.399 245.073C197.606 244.913 199.338 245.917 200.142 247.688" stroke="black" stroke-width="0.5208" stroke-linecap="round"/>
<path id="Vector_92" d="M170.04 250.83C170.201 249.219 171.569 247.53 173.018 247.771" stroke="black" stroke-width="0.5208" stroke-linecap="round"/>
<path id="Vector_93" d="M317.335 179.355C316.287 180.12 315.604 183.54 319.587 183.862" stroke="black" stroke-width="0.5208" stroke-linecap="round"/>
<path id="Vector_94" d="M311.22 184.99C311.22 185.392 311.743 185.956 312.066 186.197" stroke="black" stroke-width="0.5208" stroke-linecap="round"/>
<path id="Vector_95" d="M330.215 191.43C329.169 190.625 326.471 193.885 328.927 196.259" stroke="black" stroke-width="0.5208" stroke-linecap="round"/>
<path id="Vector_96" d="M304.62 218.475C304.016 216.181 306.149 215.577 308.162 216.06" stroke="black" stroke-width="0.5208" stroke-linecap="round"/>
<path id="Vector_97" d="M299.47 202.215C300.676 201.41 301.885 200.525 303.414 200.122" stroke="black" stroke-width="0.5208" stroke-linecap="round"/>
<path id="Vector_98" d="M298.825 211.065C298.825 209.134 299.79 207.525 300.675 207.042" stroke="black" stroke-width="0.5208" stroke-linecap="round"/>
<path id="Vector_99" d="M305.905 188.855C305.745 191.189 306.711 193.443 307.436 194.65" stroke="black" stroke-width="0.5208" stroke-linecap="round"/>
<path id="Vector_100" d="M325.065 189.015C323.896 189.377 322.85 189.82 322.409 190.786" stroke="black" stroke-width="0.5208" stroke-linecap="round"/>
<path id="Vector_101" d="M323.775 195.615C324.34 195.132 324.983 194.569 325.264 194.166" stroke="black" stroke-width="0.5208" stroke-linecap="round"/>
<path id="Vector_102" d="M354.2 125.345C354.2 127.599 351.383 128.806 349.533 127.357" stroke="black" stroke-width="0.5208" stroke-linecap="round"/>
<path id="Vector_103" d="M360.32 125.425C361.566 126.391 365.872 125.466 364.866 122.97" stroke="black" stroke-width="0.5208" stroke-linecap="round"/>
<path id="Vector_104" d="M355.085 138.385C354.2 138.224 352.67 137.258 352.027 136.453" stroke="black" stroke-width="0.5208" stroke-linecap="round"/>
<path id="Vector_105" d="M363.94 131.705C362.492 132.027 361.525 131.705 360.8 131.383" stroke="black" stroke-width="0.5208" stroke-linecap="round"/>
<path id="Vector_106" d="M341.08 139.755C341.884 139.755 343.815 139.433 345.144 138.749" stroke="black" stroke-width="0.5208" stroke-linecap="round"/>
<path id="Vector_107" d="M338.665 125.51C337.619 125.389 336.853 125.59 336.25 125.993" stroke="black" stroke-width="0.5208" stroke-linecap="round"/>
<path id="Vector_108" d="M354.885 129.45C354.604 130.456 353.879 132.026 352.993 132.71" stroke="black" stroke-width="0.5208" stroke-linecap="round"/>
<path id="Vector_109" d="M335.93 132.995C337.942 132.11 340.438 138.951 345.267 136.536" stroke="black" stroke-width="0.5208" stroke-linecap="round" stroke-linejoin="round"/>
<path id="Vector_110" d="M345.67 129.45C345.026 130.335 344.624 131.704 344.543 132.911" stroke="black" stroke-width="0.5208" stroke-linecap="round" stroke-linejoin="round"/>
</g>
<path id="Vector_111" d="M249.405 118.99C250.049 118.91 251.176 118.668 251.417 117.863" stroke="black" stroke-width="0.5208"/>
<path id="Vector_112" d="M166.58 193.925C168.995 195.293 170.685 197.627 169.639 201.088" stroke="black" stroke-width="0.5208"/>
<path id="Vector_113" d="M277.25 111.585C277.975 112.068 280.712 112.068 282.242 111.504" stroke="black" stroke-width="0.5208"/>
<path id="Vector_114" d="M284.175 113.195C284.094 114.322 284.417 118.587 282.244 119.473" stroke="black" stroke-width="0.5208"/>
<path id="Vector_115" d="M283.05 118.91C285.062 119.554 289.087 119.312 290.375 115.61" stroke="black" stroke-width="0.5208"/>
<path id="Vector_116" d="M287.555 118.745C288.601 120.355 288.921 123.494 285.784 125.184" stroke="black" stroke-width="0.5208"/>
<path id="Vector_117" d="M288.36 121.405C290.693 122.21 296.087 122.29 295.523 117.702" stroke="black" stroke-width="0.5208"/>
<path id="Vector_118" d="M293.675 121.405C295.285 123.659 302.369 126.315 301.241 121.646" stroke="black" stroke-width="0.5208"/>
<path id="Vector_119" d="M287.155 127.92C289.89 128.564 293.755 126.712 292.144 121.883" stroke="black" stroke-width="0.5208"/>
<path id="Vector_120" d="M299.87 124.3C300.272 126.151 309.286 128.083 308.08 123.897" stroke="black" stroke-width="0.5208"/>
<path id="Vector_121" d="M306.39 126.315C308.082 130.178 317.015 129.856 314.198 124.705" stroke="black" stroke-width="0.5208"/>
<path id="Vector_122" d="M312.75 128.725C314.521 130.898 322.41 129.61 319.271 124.378" stroke="black" stroke-width="0.5208"/>
<path id="Vector_123" d="M319.185 128.645C324.095 132.348 329.81 127.035 323.612 123.172" stroke="black" stroke-width="0.5208"/>
<path id="Vector_124" d="M326.43 127.44C330.778 130.901 336.09 124.623 332.307 122.852" stroke="black" stroke-width="0.5208"/>
<path id="Vector_125" d="M292.06 125.99C293.429 126.392 296.327 126.231 296.97 123.736" stroke="black" stroke-width="0.5208"/>
<path id="Vector_126" d="M295.885 125.425C295.725 129.088 301.883 130.496 303.452 126.27" stroke="black" stroke-width="0.5208"/>
<path id="Vector_127" d="M301.4 128.565C302.527 130.98 307.919 131.945 308.804 128.484" stroke="black" stroke-width="0.5208"/>
<path id="Vector_128" d="M307.92 130.095C308.805 132.51 313.474 132.268 314.761 129.773" stroke="black" stroke-width="0.5208"/>
<path id="Vector_129" d="M313.07 131.385C314.518 134.524 320.474 134.524 321.843 129.936" stroke="black" stroke-width="0.5208"/>
<path id="Vector_130" d="M320.8 131.945C323.133 133.394 328.125 132.83 327.721 128.323" stroke="black" stroke-width="0.5208"/>
<path id="Vector_131" d="M326.755 131.545C330.215 134.362 335.126 131.626 332.711 126.877" stroke="black" stroke-width="0.5208"/>
<path id="Vector_132" d="M332.47 135.245C334.322 134.923 335.286 131.22 333.355 130.255" stroke="black" stroke-width="0.5208"/>
<path id="Vector_133" d="M289.57 135.89C293.432 133.797 294.157 130.256 291.501 126.795" stroke="black" stroke-width="0.5208"/>
<path id="Vector_134" d="M292.87 132.35C295.285 133.799 299.872 132.269 300.677 128.728" stroke="black" stroke-width="0.5208"/>
<path id="Vector_135" d="M296.17 132.75C297.536 134.521 297.778 136.694 296.007 138.706" stroke="black" stroke-width="0.5208"/>
<path id="Vector_136" d="M297.295 135.005C301.56 132.349 306.872 137.259 302.928 140.237" stroke="black" stroke-width="0.5208"/>
<path id="Vector_137" d="M302.205 134.765C303.171 134.523 304.861 132.753 305.021 130.74" stroke="black" stroke-width="0.5208"/>
<path id="Vector_138" d="M304.135 136.615C305.906 134.764 317.981 138.547 310.333 142.41" stroke="black" stroke-width="0.5208"/>
<path id="Vector_139" d="M309.77 131.545C312.103 132.43 313.311 135.731 309.77 136.857" stroke="black" stroke-width="0.5208"/>
<path id="Vector_140" d="M312.83 139.595C315.405 136.939 323.455 138.629 320.557 142.01" stroke="black" stroke-width="0.5208"/>
<path id="Vector_141" d="M318.625 138.545C320.073 133.635 328.685 136.694 325.869 138.706" stroke="black" stroke-width="0.5208"/>
<path id="Vector_142" d="M316.855 133.635C317.097 134.601 317.176 137.016 315.567 138.304" stroke="black" stroke-width="0.5208"/>
<path id="Vector_143" d="M324.1 132.67C324.421 133.475 324.342 135.004 323.617 135.97" stroke="black" stroke-width="0.5208"/>
<path id="Vector_144" d="M329.57 132.75C330.053 133.635 330.858 135.326 329.087 136.694" stroke="black" stroke-width="0.5208"/>
<path id="Vector_145" d="M260.675 95.7249C260.754 100.313 262.364 103.371 268.562 100.474" stroke="black" stroke-width="0.5208"/>
<path id="Vector_146" d="M262.605 101.2C259.547 105.305 263.007 109.732 269.045 105.305" stroke="black" stroke-width="0.5208"/>
<path id="Vector_147" d="M253.185 103.21C257.37 107.717 264.856 104.417 260.027 97.5754" stroke="black" stroke-width="0.5208"/>
<path id="Vector_148" d="M265.1 107.075C264.294 111.502 267.917 112.387 270.894 110.375" stroke="black" stroke-width="0.5208"/>
<path id="Vector_149" d="M249.485 103.935C250.247 108.385 254.797 111.903 259.224 109.167" stroke="black" stroke-width="0.5208"/>
<path id="Vector_150" d="M254.96 110.055C254.96 116.414 263.733 117.138 265.745 110.538" stroke="black" stroke-width="0.5208"/>
<path id="Vector_151" d="M262.605 114.56C265.422 120.355 271.538 118.021 273.551 114.48" stroke="black" stroke-width="0.5208"/>
<path id="Vector_152" d="M256.405 105.305C257.532 108.122 259.786 111.261 265.017 108.927" stroke="black" stroke-width="0.5208"/>
<path id="Vector_153" d="M240.31 103.935C241.035 106.269 245.22 109.086 250.05 105.866" stroke="black" stroke-width="0.5208"/>
<path id="Vector_154" d="M243.285 106.915C240.708 110.698 245.86 114.24 252.058 108.605" stroke="black" stroke-width="0.5208"/>
<path id="Vector_155" d="M246.345 111.585C247.391 116.897 249.482 121.163 257.049 114.322" stroke="black" stroke-width="0.5208"/>
<path id="Vector_156" d="M253.265 117.055C256.003 120.435 260.188 122.528 264.132 116.813" stroke="black" stroke-width="0.5208"/>
<path id="Vector_157" d="M267.03 118.02C266.788 122.044 267.592 124.056 270.732 123.895C273.207 123.769 275.561 121.803 276.93 119.71" stroke="black" stroke-width="0.5208"/>
<path id="Vector_158" d="M270.17 123.9C270.089 128.488 273.71 132.11 280.472 127.442" stroke="black" stroke-width="0.5208"/>
<path id="Vector_159" d="M272.985 129.29C271.698 132.751 275.56 138.385 283.127 135.488" stroke="black" stroke-width="0.5208"/>
<path id="Vector_160" d="M256.97 120.115C256.489 124.542 260.593 127.52 267.193 121.805" stroke="black" stroke-width="0.5208"/>
<path id="Vector_161" d="M260.19 125.025C260.432 128.647 264.536 132.993 270.573 126.715" stroke="black" stroke-width="0.5208"/>
<path id="Vector_162" d="M263.085 129.615C262.602 135.812 268.316 137.583 273.145 132.835" stroke="black" stroke-width="0.5208"/>
<path id="Vector_163" d="M254.475 125.025C255.762 125.106 256.808 123.979 257.452 123.174" stroke="black" stroke-width="0.5208"/>
<path id="Vector_164" d="M257.21 129.53C258.337 129.771 260.27 128.725 260.914 127.437" stroke="black" stroke-width="0.5208"/>
<path id="Vector_165" d="M260.03 136.855C261.317 138.223 265.663 137.258 266.226 135.406" stroke="black" stroke-width="0.5208"/>
<path id="Vector_166" d="M264.86 136.775C267.274 142.409 273.712 142.167 276.368 135.809" stroke="black" stroke-width="0.5208"/>
<path id="Vector_167" d="M275.16 138.065C276.366 141.365 279.427 143.457 284.416 142.331" stroke="black" stroke-width="0.5208"/>
<path id="Vector_168" d="M277.575 141.445C274.758 146.033 278.46 151.426 284.737 146.113" stroke="black" stroke-width="0.5208"/>
<path id="Vector_169" d="M279.105 148.285C278.784 151.182 281.44 154.482 285.061 154.885" stroke="black" stroke-width="0.5208"/>
<path id="Vector_170" d="M267.19 139.835C266.223 146.354 270.892 149.494 276.769 146.032" stroke="black" stroke-width="0.5208"/>
<path id="Vector_171" d="M260.35 142.975C261.879 144.182 264.616 144.343 267.191 143.377" stroke="black" stroke-width="0.5208"/>
<path id="Vector_172" d="M270.33 147.16C268.88 152.633 274.515 156.577 279.344 150.46" stroke="black" stroke-width="0.5208"/>
<path id="Vector_173" d="M262.525 143.86C262.606 146.677 265.344 149.736 270.091 148.85" stroke="black" stroke-width="0.5208"/>
<path id="Vector_174" d="M283.37 154.485C280.149 156.658 279.505 160.521 284.014 163.016" stroke="black" stroke-width="0.5208"/>
<path id="Vector_175" d="M275.48 153.355C275.642 156.655 277.172 158.506 280.792 158.828" stroke="black" stroke-width="0.5208"/>
<path id="Vector_176" d="M270.735 151.665C265.906 156.092 270.654 161.244 276.369 156.897" stroke="black" stroke-width="0.5208"/>
<path id="Vector_177" d="M274.115 158.265C272.504 163.336 278.542 166.394 281.761 161.243" stroke="black" stroke-width="0.5208"/>
<path id="Vector_178" d="M264.135 147.48C262.364 152.47 264.618 155.77 268.722 155.448" stroke="black" stroke-width="0.5208"/>
<path id="Vector_179" d="M257.775 146.515C258.017 149.493 260.592 150.539 263.489 149.895" stroke="black" stroke-width="0.5208"/>
<path id="Vector_180" d="M259.625 149.655C257.452 153.84 260.752 156.094 265.1 154.484" stroke="black" stroke-width="0.5208"/>
<path id="Vector_181" d="M278.3 163.82C277.575 166.476 277.977 168.408 281.921 169.293" stroke="black" stroke-width="0.5208"/>
<path id="Vector_182" d="M278.54 167.605C273.79 169.778 273.388 174.366 277.09 177.344" stroke="black" stroke-width="0.5208"/>
<path id="Vector_183" d="M274.715 162.495C272.221 164.749 272.702 168.652 275.44 170.181" stroke="black" stroke-width="0.5208"/>
<path id="Vector_184" d="M253.59 147.805C250.852 150.501 253.469 157.946 259.504 153.882" stroke="black" stroke-width="0.5208"/>
<path id="Vector_185" d="M269.285 157.22C265.581 160.279 267.273 165.832 273.389 164.303" stroke="black" stroke-width="0.5208"/>
<path id="Vector_186" d="M263.165 154.885C261.234 160.358 263.086 162.29 267.432 162.37" stroke="black" stroke-width="0.5208"/>
<path id="Vector_187" d="M249.565 147.56C246.265 150.055 247.15 153.597 248.6 155.207C250.048 156.816 252.784 156.092 253.669 153.999" stroke="black" stroke-width="0.5208"/>
<path id="Vector_188" d="M242.64 145.39C238.938 150.139 242.64 155.773 247.873 154.083" stroke="black" stroke-width="0.5208"/>
<path id="Vector_189" d="M262.445 159.475C258.662 160.843 255.776 164.278 258.097 167.282C259.466 169.053 265.422 169.295 267.112 162.453" stroke="black" stroke-width="0.5208"/>
<path id="Vector_190" d="M255.6 155.045C253.427 158.184 254.15 161.162 258.175 162.691" stroke="black" stroke-width="0.5208"/>
<path id="Vector_191" d="M255.36 160.925C253.025 162.213 251.495 163.742 252.06 166.559" stroke="black" stroke-width="0.5208"/>
<path id="Vector_192" d="M250.13 156.015C249.244 159.798 250.29 162.132 252.624 163.259" stroke="black" stroke-width="0.5208"/>
<path id="Vector_193" d="M250.05 160.52C246.427 160.279 244.577 161.808 245.783 165.349" stroke="black" stroke-width="0.5208"/>
<path id="Vector_194" d="M246.105 161.405C242.563 160.117 241.999 157.058 243.528 153.839" stroke="black" stroke-width="0.5208"/>
<path id="Vector_195" d="M243.045 158.59C239.18 158.751 237.491 160.683 237.491 163.339" stroke="black" stroke-width="0.5208"/>
<path id="Vector_196" d="M237.81 143.535C234.993 144.742 234.108 148.525 235.154 150.618C236.201 152.711 239.501 152.872 241.514 151.503" stroke="black" stroke-width="0.5208"/>
<path id="Vector_197" d="M229.925 140.56C227.35 143.458 230.327 149.092 234.917 147.723" stroke="black" stroke-width="0.5208"/>
<path id="Vector_198" d="M223.325 138.305C220.91 141.685 223.566 147.32 229.764 145.71" stroke="black" stroke-width="0.5208"/>
<path id="Vector_199" d="M230.085 161.405C229.441 157.38 233.626 154.724 238.779 159.956" stroke="black" stroke-width="0.5208"/>
<path id="Vector_200" d="M236.285 151.83C234.756 153.198 234.033 155.372 234.273 157.143" stroke="black" stroke-width="0.5208"/>
<path id="Vector_201" d="M216.725 136.375C214.069 140.882 217.289 144.987 223.004 143.377" stroke="black" stroke-width="0.5208"/>
<path id="Vector_202" d="M231.615 147.56C227.832 151.343 229.119 155.126 231.936 157.299" stroke="black" stroke-width="0.5208"/>
<path id="Vector_203" d="M229.2 151.99C223.485 152.07 223.164 158.67 227.833 160.763" stroke="black" stroke-width="0.5208"/>
<path id="Vector_204" d="M224.855 145.39C222.521 146.999 221.796 151.426 225.821 153.197" stroke="black" stroke-width="0.5208"/>
<path id="Vector_205" d="M224.695 155.29C222.28 154.163 219.383 155.531 219.624 158.349" stroke="black" stroke-width="0.5208"/>
<path id="Vector_206" d="M221.07 155.37C218.897 150.219 212.538 151.104 213.103 156.416" stroke="black" stroke-width="0.5208"/>
<path id="Vector_207" d="M222.84 149.01C221.473 149.251 218.736 150.056 217.69 152.149" stroke="black" stroke-width="0.5208"/>
<path id="Vector_208" d="M218.095 143.215C215.52 146.112 217.53 149.573 219.624 150.298" stroke="black" stroke-width="0.5208"/>
<path id="Vector_209" d="M210.45 135.085C209.967 138.546 211.335 140.236 215.681 139.914" stroke="black" stroke-width="0.5208"/>
<path id="Vector_210" d="M211.975 139.515C210.283 143.7 212.538 145.551 216.883 145.31" stroke="black" stroke-width="0.5208"/>
<path id="Vector_211" d="M212.94 144.665C210.365 147.723 212.136 151.024 214.629 152.392" stroke="black" stroke-width="0.5208"/>
<path id="Vector_212" d="M211.735 148.53C207.147 147.966 206.422 153.279 207.952 155.774" stroke="black" stroke-width="0.5208"/>
<path id="Vector_213" d="M208.03 134.685C205.214 135.892 203.604 139.434 205.133 141.607C206.663 143.78 209.722 143.056 211.411 141.929" stroke="black" stroke-width="0.5208"/>
<path id="Vector_214" d="M206.1 142.57C203.766 146.111 205.858 148.767 208.354 149.814" stroke="black" stroke-width="0.5208"/>
<path id="Vector_215" d="M197.085 134.28C195.234 136.211 196.361 140.156 200.868 140.236C204.497 140.301 206.341 136.856 205.215 134.441" stroke="black" stroke-width="0.5208"/>
<path id="Vector_216" d="M200.225 140.235C198.776 143.455 199.662 146.916 205.135 146.352" stroke="black" stroke-width="0.5208"/>
<path id="Vector_217" d="M207.47 151.425C204.09 149.896 199.582 151.425 201.514 155.449" stroke="black" stroke-width="0.5208"/>
<path id="Vector_218" d="M201.03 145.71C199.662 147.641 200.145 150.378 201.674 152.068" stroke="black" stroke-width="0.5208"/>
<path id="Vector_219" d="M200.79 150.86C198.536 151.262 196.363 152.47 197.731 156.011" stroke="black" stroke-width="0.5208"/>
<path id="Vector_220" d="M197.405 153.115C194.508 152.23 190.805 154.322 193.059 157.3" stroke="black" stroke-width="0.5208"/>
<path id="Vector_221" d="M192.58 154.485C190.085 154.082 187.107 156.738 189.521 159.395" stroke="black" stroke-width="0.5208"/>
<path id="Vector_222" d="M188.555 157.22C186.301 157.784 183.645 160.359 185.979 162.371" stroke="black" stroke-width="0.5208"/>
<path id="Vector_223" d="M199.905 144.585C196.685 146.034 196.363 149.656 197.893 152.312" stroke="black" stroke-width="0.5208"/>
<path id="Vector_224" d="M196.52 137.905C191.69 139.756 191.771 146.196 197.083 148.208" stroke="black" stroke-width="0.5208"/>
<path id="Vector_225" d="M194.83 146.755C191.932 148.445 191.369 151.665 193.3 153.757" stroke="black" stroke-width="0.5208"/>
<path id="Vector_226" d="M189.76 135.49C187.828 136.134 187.989 142.09 193.141 141.929" stroke="black" stroke-width="0.5208"/>
<path id="Vector_227" d="M184.45 137.5C180.586 140.076 185.255 146.595 191.533 141.927" stroke="black" stroke-width="0.5208"/>
<path id="Vector_228" d="M188.07 143.535C187.507 146.191 188.231 149.089 192.497 149.411" stroke="black" stroke-width="0.5208"/>
<path id="Vector_229" d="M188.31 147.08C185.251 148.206 184.688 154.485 190.242 154.968" stroke="black" stroke-width="0.5208"/>
<path id="Vector_230" d="M178.575 141.365C174.631 144.987 181.795 148.126 184.451 142.894" stroke="black" stroke-width="0.5208"/>
<path id="Vector_231" d="M173.1 147.4C171.168 149.734 177.929 155.851 180.907 145.629" stroke="black" stroke-width="0.5208"/>
<path id="Vector_232" d="M181.63 145.47C181.791 147.885 183.24 149.333 186.218 149.494" stroke="black" stroke-width="0.5208"/>
<path id="Vector_233" d="M186.14 151.83C181.391 152.554 179.862 158.511 185.174 159.799" stroke="black" stroke-width="0.5208"/>
<path id="Vector_234" d="M177.365 151.025C177.204 153.278 179.538 155.13 182.194 154.727" stroke="black" stroke-width="0.5208"/>
<path id="Vector_235" d="M184.61 159.635C180.264 160.601 179.7 166.235 183.564 165.913" stroke="black" stroke-width="0.5208"/>
<path id="Vector_236" d="M181.55 171.145C177.928 170.058 177.847 165.752 181.067 164.142" stroke="black" stroke-width="0.5208"/>
<path id="Vector_237" d="M178.575 167.36C175.517 169.211 176.724 173.638 178.334 174.282C179.943 174.926 181.231 174.121 181.392 172.753" stroke="black" stroke-width="0.5208"/>
<path id="Vector_238" d="M181.15 178.95C181.472 181.042 173.705 180.238 177.689 173.718" stroke="black" stroke-width="0.5208"/>
<path id="Vector_239" d="M177.645 179.315C175.029 183.42 179.295 186.76 181.991 183.259" stroke="black" stroke-width="0.5208"/>
<path id="Vector_240" d="M178.01 184.265C176.964 187.565 180.947 189.94 183.523 187.364" stroke="black" stroke-width="0.5208"/>
<path id="Vector_241" d="M169.315 153.355C167.866 156.333 175.11 157.46 175.593 151.343" stroke="black" stroke-width="0.5208"/>
<path id="Vector_242" d="M167.305 157.785C165.856 163.58 176.802 162.373 173.985 154.887" stroke="black" stroke-width="0.5208"/>
<path id="Vector_243" d="M174.225 158.75C175.754 159.635 180.342 159.716 181.469 154.806" stroke="black" stroke-width="0.5208"/>
<path id="Vector_244" d="M178.17 158.91C178.492 160.439 179.86 162.29 181.148 162.854" stroke="black" stroke-width="0.5208"/>
<path id="Vector_245" d="M172.94 160.44C172.457 163.579 175.596 166.155 179.218 165.913" stroke="black" stroke-width="0.5208"/>
<path id="Vector_246" d="M173.5 163.5C171.729 165.915 171.166 170.583 176.72 170.905" stroke="black" stroke-width="0.5208"/>
<path id="Vector_247" d="M165.05 164.305C164.164 166.8 169.396 169.376 172.455 165.271" stroke="black" stroke-width="0.5208"/>
<path id="Vector_248" d="M163.44 170.66C162.997 172.552 167.706 175.087 170.362 167.038" stroke="black" stroke-width="0.5208"/>
<path id="Vector_249" d="M168.27 171.145C169.397 173.157 173.18 174.767 175.514 170.823" stroke="black" stroke-width="0.5208"/>
<path id="Vector_250" d="M171.73 173.24C170.764 176.057 173.42 178.713 176.64 177.908" stroke="black" stroke-width="0.5208"/>
<path id="Vector_251" d="M165.695 172.595C165.051 176.619 169.719 178.953 172.617 176.861" stroke="black" stroke-width="0.5208"/>
<path id="Vector_252" d="M162.635 174.365C161.267 179.516 167.867 181.448 170.362 177.584" stroke="black" stroke-width="0.5208"/>
<path id="Vector_253" d="M168.675 179.115C168.916 182.012 173.424 184.507 176.965 182.093" stroke="black" stroke-width="0.5208"/>
<path id="Vector_254" d="M160.625 181.53C160.303 182.818 165.696 184.105 166.5 179.598" stroke="black" stroke-width="0.5208"/>
<path id="Vector_255" d="M163.765 182.655C165.053 185.955 169.399 186.76 171.894 182.736" stroke="black" stroke-width="0.5208"/>
<path id="Vector_256" d="M170.445 184.345C171.008 187.404 174.952 189.094 178.413 187.001" stroke="black" stroke-width="0.5208"/>
<path id="Vector_257" d="M179.86 188.21C178.975 192.315 183.241 195.615 185.896 193.361" stroke="black" stroke-width="0.5208"/>
<path id="Vector_258" d="M173.02 187.485C171.732 191.992 177.366 194.568 180.505 192.073" stroke="black" stroke-width="0.5208"/>
<path id="Vector_259" d="M166.26 185.23C165.938 189.415 169.238 191.91 173.021 190.059" stroke="black" stroke-width="0.5208"/>
<path id="Vector_260" d="M159.095 185.635C157.968 188.371 163.924 190.625 166.741 188.291" stroke="black" stroke-width="0.5208"/>
<path id="Vector_261" d="M155.39 193.12C156.919 194.89 162.231 193.12 162.714 189.176" stroke="black" stroke-width="0.5208"/>
<path id="Vector_262" d="M161.27 192.07C163.202 194.324 167.79 195.531 169.641 190.702" stroke="black" stroke-width="0.5208"/>
<path id="Vector_263" d="M168.03 193.2C167.949 196.661 174.147 199.156 176.159 192.797" stroke="black" stroke-width="0.5208"/>
<path id="Vector_264" d="M183.44 194.045C182.876 195.735 184.205 198.431 186.981 198.753" stroke="black" stroke-width="0.5208"/>
<path id="Vector_265" d="M178.33 193C177.928 194.931 180.745 197.627 183.723 196.541" stroke="black" stroke-width="0.5208"/>
<path id="Vector_266" d="M184.29 197.345C183.485 199.438 184.169 202.455 186.986 202.415" stroke="black" stroke-width="0.5208"/>
<path id="Vector_267" d="M184.57 201.25C182.477 203.021 183.362 206.16 186.381 206.281" stroke="black" stroke-width="0.5208"/>
<path id="Vector_268" d="M183.485 204.225C180.507 206.236 181.553 210.663 185.497 210.424" stroke="black" stroke-width="0.5208"/>
<path id="Vector_269" d="M174.47 195.695C174.47 200.041 179.862 200.685 180.909 196.661" stroke="black" stroke-width="0.5208"/>
<path id="Vector_270" d="M178.815 199.235C178.01 201.81 180.103 204.306 183.403 203.581" stroke="black" stroke-width="0.5208"/>
<path id="Vector_271" d="M179.46 230.305C180.185 231.353 183.163 229.582 182.358 227.811C181.553 226.04 178.398 227.003 178.736 228.857" stroke="black" stroke-width="0.5208"/>
<path id="Vector_272" d="M181.63 227.085C182.032 223.543 177.847 222.981 176.801 226.039" stroke="black" stroke-width="0.5208"/>
<path id="Vector_273" d="M178.33 224.27C179.376 222.499 175.835 220.084 174.386 222.659" stroke="black" stroke-width="0.5208"/>
<path id="Vector_274" d="M175.675 221.61C176.641 219.033 172.616 217.908 172.294 220.241" stroke="black" stroke-width="0.5208"/>
<path id="Vector_275" d="M171.41 216.86C171.893 215.572 176.4 216.377 174.469 219.033" stroke="black" stroke-width="0.5208"/>
<path id="Vector_276" d="M177.93 222.255C179.701 220.645 176.723 217.345 174.871 218.553" stroke="black" stroke-width="0.5208"/>
<path id="Vector_277" d="M189.84 227.165C188.431 227.325 186.982 228.25 188.028 231.23C188.754 233.296 191.852 233.403 192.294 232.155" stroke="black" stroke-width="0.5208"/>
<path id="Vector_278" d="M187.79 228.655C186.422 227.769 183.444 229.259 184.812 232.157C185.842 234.338 188.434 233.444 188.836 232.317" stroke="black" stroke-width="0.5208"/>
<path id="Vector_279" d="M180.1 232.8C180.784 234.006 184.204 233.485 184.808 232.156" stroke="black" stroke-width="0.5208"/>
<path id="Vector_280" d="M182.435 228.815C183.159 228.332 184.487 228.934 184.769 229.538" stroke="black" stroke-width="0.5208"/>
<path id="Vector_281" d="M182.195 208.975C179.861 210.504 181.31 215.173 184.932 213.964" stroke="black" stroke-width="0.5208"/>
<path id="Vector_282" d="M181.47 212.76C179.618 214.208 181.309 218.716 184.77 217.026" stroke="black" stroke-width="0.5208"/>
<path id="Vector_283" d="M182.035 217.025C180.747 218.312 181.994 221.894 185.335 221.21" stroke="black" stroke-width="0.5208"/>
<path id="Vector_284" d="M181.55 218.795C180.826 218.472 178.934 218.714 178.129 219.92" stroke="black" stroke-width="0.5208"/>
<path id="Vector_285" d="M179.46 202.495C177.689 204.185 178.534 207.647 181.834 207.928" stroke="black" stroke-width="0.5208"/>
<path id="Vector_286" d="M178.815 206.035C176.279 207.283 176.279 212.312 181.35 212.514" stroke="black" stroke-width="0.5208"/>
<path id="Vector_287" d="M178.615 211.71C177.207 212.837 177.891 217.183 181.513 216.618" stroke="black" stroke-width="0.5208"/>
<path id="Vector_288" d="M179.78 216.46C179.256 216.983 179.176 218.312 179.619 218.875" stroke="black" stroke-width="0.5208"/>
<path id="Vector_289" d="M178.17 214.81C176.882 214.849 175.192 215.776 174.749 217.104" stroke="black" stroke-width="0.5208"/>
<path id="Vector_290" d="M172.415 212.435C172.898 211.148 176.883 211.229 177.164 215.012" stroke="black" stroke-width="0.5208"/>
<path id="Vector_291" d="M177.565 210.505C177.001 210.626 175.915 211.149 175.633 212.236" stroke="black" stroke-width="0.5208"/>
<path id="Vector_292" d="M175.835 198.715C174.104 200.284 173.259 205.235 178.531 206.2" stroke="black" stroke-width="0.5208"/>
<path id="Vector_293" d="M172.335 208.935C172.335 207.606 175.917 206.479 177.164 208.451" stroke="black" stroke-width="0.5208"/>
<path id="Vector_294" d="M170.04 201.73C170.563 202.736 173.058 204.105 174.587 202.978" stroke="black" stroke-width="0.5208"/>
<path id="Vector_295" d="M157.08 193.845C157 196.179 158.931 198.272 161.587 197.95C164.243 197.628 164.807 195.294 164.002 193.764" stroke="black" stroke-width="0.5208"/>
<path id="Vector_296" d="M161.99 198.03C160.219 200.203 162.392 203.262 164.405 202.376" stroke="black" stroke-width="0.5208"/>
<path id="Vector_297" d="M164.005 196.5C165.051 196.097 168.512 195.615 169.559 197.224" stroke="black" stroke-width="0.5208"/>
<path id="Vector_298" d="M152.815 197.145C152.01 198.352 157.001 199.56 158.69 197.225" stroke="black" stroke-width="0.5208"/>
<path id="Vector_299" d="M157 198.43C156.839 200.04 157.644 202.776 161.749 201.65" stroke="black" stroke-width="0.5208"/>
<path id="Vector_300" d="M162.395 204.145C163.039 202.776 159.98 200.523 157.646 203.018C155.312 205.513 157.968 208.33 159.417 207.364" stroke="black" stroke-width="0.5208"/>
<path id="Vector_301" d="M151.69 198.755C150.482 200.848 155.151 204.671 157.807 201.13" stroke="black" stroke-width="0.5208"/>
<path id="Vector_302" d="M148.59 202.375C146.9 204.106 148.992 207.285 151.528 206.319C154.063 205.353 153.822 202.697 153.218 202.013" stroke="black" stroke-width="0.5208"/>
<path id="Vector_303" d="M145.33 205.595C143.962 206.842 145.289 209.779 147.181 209.779C149.072 209.779 150.24 208.292 149.877 206.4" stroke="black" stroke-width="0.5208"/>
<path id="Vector_304" d="M153.015 205.355C152.773 207.206 155.51 208.494 157.281 206.764" stroke="black" stroke-width="0.5208"/>
<path id="Vector_305" d="M157.365 203.38C157.606 202.977 157.405 202.293 157.003 201.971" stroke="black" stroke-width="0.5208"/>
<path id="Vector_306" d="M142.395 208.09C140.826 209.338 144.206 212.798 146.339 209.619" stroke="black" stroke-width="0.5208"/>
<path id="Vector_307" d="M154.505 207.405C153.499 208.369 155.108 210.905 156.718 210.14" stroke="black" stroke-width="0.5208"/>
<path id="Vector_308" d="M148.995 209.175C149.236 210.904 152.617 212.192 154.75 209.538" stroke="black" stroke-width="0.5208"/>
<path id="Vector_309" d="M150.845 210.905C150.322 211.992 151.369 213.724 152.656 213.482" stroke="black" stroke-width="0.5208"/>
<path id="Vector_310" d="M182.88 220.85C181.633 223.304 185.616 226.162 188.514 223.183" stroke="black" stroke-width="0.5208"/>
<path id="Vector_311" d="M185.775 224.51C185.171 225.837 185.896 227.689 186.982 228.373" stroke="black" stroke-width="0.5208"/>
<path id="Vector_312" d="M181.995 227.285C182.277 226.077 184.007 224.95 185.577 225.514" stroke="black" stroke-width="0.5208"/>
<path id="Vector_313" d="M179.9 224.105C180.142 223.02 181.59 221.932 182.677 222.215" stroke="black" stroke-width="0.5208"/>
<path id="Vector_314" d="M274.675 173.88C268.96 173.961 271.375 183.136 276.285 181.285" stroke="black" stroke-width="0.5208"/>
<path id="Vector_315" d="M272.825 180.645C271.698 182.496 273.871 185.434 276.285 183.704" stroke="black" stroke-width="0.5208"/>
<path id="Vector_316" d="M275.645 184.065C273.953 186.882 279.991 191.188 282.405 186.761" stroke="black" stroke-width="0.5208"/>
<path id="Vector_317" d="M280.475 188.45C280.554 191.106 288.281 192.796 287.156 187.484" stroke="black" stroke-width="0.5208"/>
<path id="Vector_318" d="M286.43 190.38C288.28 193.519 295.203 193.841 294.478 189.173" stroke="black" stroke-width="0.5208"/>
<path id="Vector_319" d="M292.95 192.395C294.4 194.488 301.16 195.775 300.919 191.429" stroke="black" stroke-width="0.5208"/>
<path id="Vector_320" d="M265.5 165.915C266.464 168.41 269.764 169.296 273.387 167.847" stroke="black" stroke-width="0.5208"/>
<path id="Vector_321" d="M263.41 167.685C265.664 169.134 262.364 175.734 258.904 173.077" stroke="black" stroke-width="0.5208"/>
<path id="Vector_322" d="M263.41 171.79C265.906 172.997 268.964 172.112 269.849 168.57" stroke="black" stroke-width="0.5208"/>
<path id="Vector_323" d="M268.32 171.305C268.561 173.156 271.218 174.605 274.678 173.88" stroke="black" stroke-width="0.5208"/>
<path id="Vector_324" d="M262.12 173.24C265.341 175.976 260.672 181.611 258.578 179.035" stroke="black" stroke-width="0.5208"/>
<path id="Vector_325" d="M263.33 175.33C264.859 176.457 268.803 175.813 269.205 172.834" stroke="black" stroke-width="0.5208"/>
<path id="Vector_326" d="M267.435 175.33C267.758 177.261 269.287 177.986 271.46 178.066" stroke="black" stroke-width="0.5208"/>
<path id="Vector_327" d="M262.445 177.985C264.053 180.239 268.078 180.883 269.849 177.905" stroke="black" stroke-width="0.5208"/>
<path id="Vector_328" d="M268.075 179.595C267.915 181.768 270.329 183.539 272.825 183.056" stroke="black" stroke-width="0.5208"/>
<path id="Vector_329" d="M259.305 184.425C261.396 185.471 263.651 181.527 261.88 178.791" stroke="black" stroke-width="0.5208"/>
<path id="Vector_330" d="M261.72 188.61C264.216 188.771 264.536 184.988 262.203 182.895" stroke="black" stroke-width="0.5208"/>
<path id="Vector_331" d="M267.435 192.07C269.529 191.587 268.883 186.999 263.812 186.596" stroke="black" stroke-width="0.5208"/>
<path id="Vector_332" d="M273.79 195.455C275.802 194.891 274.192 189.82 268.64 190.142" stroke="black" stroke-width="0.5208"/>
<path id="Vector_333" d="M281.44 197.225C282.807 195.132 278.3 191.591 274.598 193.442" stroke="black" stroke-width="0.5208"/>
<path id="Vector_334" d="M285.22 200.12C287.716 200.844 289.405 194.244 281.518 195.29" stroke="black" stroke-width="0.5208"/>
<path id="Vector_335" d="M289.81 200.12C291.985 199.556 293.514 195.612 287.156 196.9" stroke="black" stroke-width="0.5208"/>
<path id="Vector_336" d="M294.64 200.445C296.571 201.411 297.457 195.777 291.58 197.306" stroke="black" stroke-width="0.5208"/>
<path id="Vector_337" d="M262.2 182.895C264.615 184.263 268.398 182.653 268.075 179.595" stroke="black" stroke-width="0.5208"/>
<path id="Vector_338" d="M267.11 182.255C267.916 183.704 267.593 186.521 266.064 187.245" stroke="black" stroke-width="0.5208"/>
<path id="Vector_339" d="M267.35 185.635C268.96 186.279 271.133 185.715 272.421 183.14" stroke="black" stroke-width="0.5208"/>
<path id="Vector_340" d="M270.17 185.635C270.651 186.762 270.814 189.015 269.766 190.142" stroke="black" stroke-width="0.5208"/>
<path id="Vector_341" d="M270.575 187.565C272.346 188.531 274.437 187.243 275.323 185.391" stroke="black" stroke-width="0.5208"/>
<path id="Vector_342" d="M274.195 187C275.482 187.805 276.609 191.588 274.436 193.117" stroke="black" stroke-width="0.5208"/>
<path id="Vector_343" d="M275.645 191.35C277.174 191.43 279.428 191.43 280.876 189.499" stroke="black" stroke-width="0.5208"/>
<path id="Vector_344" d="M279.83 190.545C281.199 190.947 282.807 193.201 282.244 195.213" stroke="black" stroke-width="0.5208"/>
<path id="Vector_345" d="M282.325 194.485C283.856 194.324 286.51 193.277 287.235 191.426" stroke="black" stroke-width="0.5208"/>
<path id="Vector_346" d="M286.51 192.635C287.799 193.359 288.685 194.889 288.522 196.659" stroke="black" stroke-width="0.5208"/>
<path id="Vector_347" d="M288.52 195.37C290.049 195.289 291.418 194.485 291.82 192.794" stroke="black" stroke-width="0.5208"/>
<path id="Vector_348" d="M291.42 193.925C292.547 194.327 293.916 195.615 293.997 197.144" stroke="black" stroke-width="0.5208"/>
<path id="Vector_349" d="M293.835 196.175C294.962 196.014 295.766 195.289 296.491 194.163" stroke="black" stroke-width="0.5208"/>
<path id="Vector_350" d="M299.55 194.005C301 195.454 299.069 200.283 296.089 199.398" stroke="black" stroke-width="0.5208"/>
<path id="Vector_351" d="M268.64 96.4498C265.661 98.2204 257.208 97.6571 261.394 90.6548" stroke="black" stroke-width="0.5208"/>
<path id="Vector_352" d="M269.445 91.6997C263.57 94.0338 256.324 89.5266 263.891 84.6167" stroke="black" stroke-width="0.5208"/>
<path id="Vector_353" d="M261.88 83.01C256.97 83.01 253.67 90.898 260.272 93.6345" stroke="black" stroke-width="0.5208"/>
<path id="Vector_354" d="M242.805 86.31C241.517 88.805 246.105 91.5415 249.244 89.0466C251.676 87.1135 251.497 81.8831 250.049 79.8706" stroke="black" stroke-width="0.5208"/>
<path id="Vector_355" d="M240.31 92.2651C238.699 97.5771 250.533 97.8991 248.681 89.4478" stroke="black" stroke-width="0.5208"/>
<path id="Vector_356" d="M239.665 100.155C240.067 104.179 251.015 102.892 247.471 94.762" stroke="black" stroke-width="0.5208"/>
<path id="Vector_357" d="M248.76 92.5051C249.645 93.7124 252.06 95.8051 256.164 95.4026" stroke="black" stroke-width="0.5208"/>
<path id="Vector_358" d="M250.69 86.7898C251.052 88.2385 253.507 89.3654 256.646 88.2792" stroke="black" stroke-width="0.5208"/>
<path id="Vector_359" d="M140.865 209.255C138.088 211.228 142.354 214.326 143.923 210.905" stroke="black" stroke-width="0.5208"/>
<path id="Vector_360" d="M138.69 210.785C135.914 212.756 140.179 215.854 141.749 212.433" stroke="black" stroke-width="0.5208"/>
<path id="Vector_361" d="M136.395 212.275C133.617 214.248 137.884 217.346 139.453 213.925" stroke="black" stroke-width="0.5208"/>
<path id="Vector_362" d="M133.98 213.645C131.324 215.053 134.422 218.514 137.119 215.455" stroke="black" stroke-width="0.5208"/>
<path id="Vector_363" d="M131.365 214.975C128.709 216.381 131.808 219.844 134.504 216.785" stroke="black" stroke-width="0.5208"/>
<path id="Vector_364" d="M144.85 210.825C144.809 212.877 148.713 213.723 150.121 210.662" stroke="black" stroke-width="0.5208"/>
<path id="Vector_365" d="M147.305 212.72C146.098 214.249 148.311 216.141 149.519 215.455" stroke="black" stroke-width="0.5208"/>
<path id="Vector_366" d="M142.11 212.435C141.989 214.166 145.369 215.173 147.02 213.281" stroke="black" stroke-width="0.5208"/>
<path id="Vector_367" d="M143.965 214.25C142.878 215.658 145.011 217.55 146.379 216.985" stroke="black" stroke-width="0.5208"/>
<path id="Vector_368" d="M139.86 214.005C139.98 215.374 141.912 216.942 144.005 216.057" stroke="black" stroke-width="0.5208"/>
<path id="Vector_369" d="M141.105 215.855C140.3 216.58 140.703 218.271 141.829 218.794" stroke="black" stroke-width="0.5208"/>
<path id="Vector_370" d="M136.92 215.735C136.598 216.983 138.731 219.197 140.904 217.747" stroke="black" stroke-width="0.5208"/>
<path id="Vector_371" d="M137.36 217.185C136.072 218.191 136.233 219.72 137.883 219.92" stroke="black" stroke-width="0.5208"/>
<path id="Vector_372" d="M134.265 217.025C134.104 217.869 135.191 219.237 136.559 219.077" stroke="black" stroke-width="0.5208"/>
<path id="Vector_373" d="M127.38 216.945C126.092 217.628 129.392 221.13 131.444 217.87" stroke="black" stroke-width="0.5208"/>
<path id="Vector_374" d="M124.2 218.39C122.59 219.157 126.574 223.019 128.345 219.075" stroke="black" stroke-width="0.5208"/>
<path id="Vector_375" d="M134.625 218.23C133.377 218.511 132.572 220.324 133.618 221.047" stroke="black" stroke-width="0.5208"/>
<path id="Vector_376" d="M130.56 218.875C130.399 219.6 131.928 220.806 133.176 220.365" stroke="black" stroke-width="0.5208"/>
<path id="Vector_377" d="M129.515 219.2C128.308 219.965 128.951 222.096 130.36 221.775" stroke="black" stroke-width="0.5208"/>
<path id="Vector_378" d="M125.21 220.605C124.083 221.449 124.847 223.14 126.417 222.738" stroke="black" stroke-width="0.5208"/>
<path id="Vector_379" d="M127.26 220.485C127.301 220.927 128.306 221.612 129.152 221.331" stroke="black" stroke-width="0.5208"/>
<path id="Vector_380" d="M121.305 219.76C119.897 220.364 119.977 223.906 124.726 221.975" stroke="black" stroke-width="0.5208"/>
<path id="Vector_381" d="M118.125 221.17C116.153 222.137 116.797 224.793 121.103 222.257" stroke="black" stroke-width="0.5208"/>
<path id="Vector_382" d="M121.465 222.46C120.942 222.862 120.379 224.633 122.35 223.947" stroke="black" stroke-width="0.5208"/>
<path id="Vector_383" d="M117.845 223.3C117.04 224.025 117.564 225.514 119.334 224.95" stroke="black" stroke-width="0.5208"/>
<path id="Vector_384" d="M113.7 223.545C112.251 224.391 115.43 225.518 117.563 223.264" stroke="black" stroke-width="0.5208"/>
<path id="Vector_385" d="M114.665 224.59C114.021 225.234 114.021 227.125 115.711 226.442" stroke="black" stroke-width="0.5208"/>
<path id="Vector_386" d="M110.56 225.355C109.594 226.08 111.244 227.047 114.263 225.717" stroke="black" stroke-width="0.5208"/>
<path id="Vector_387" d="M111.765 226.4C110.638 227.325 110.759 228.492 112.409 228.129" stroke="black" stroke-width="0.5208"/>
<path id="Vector_388" d="M108.425 226.925C107.178 228.052 108.988 228.817 111.161 227.89" stroke="black" stroke-width="0.5208"/>
<path id="Vector_389" d="M108.465 228.175C106.331 229.139 107.257 230.91 108.585 230.227" stroke="black" stroke-width="0.5208"/>
<path id="Vector_390" d="M179.7 234.33C179.205 235.395 180.827 236.261 182.356 236.02C183.825 235.788 185.23 234.578 184.127 232.882" stroke="black" stroke-width="0.5208"/>
<path id="Vector_391" d="M184.205 234.975C185.654 236.102 188.229 234.814 188.229 233.123" stroke="black" stroke-width="0.5208"/>
</g>
<g id="Group_5">
<path id="Vector_392" d="M272.985 64.4152C266.546 61.1956 253.185 55.2392 249.402 60.0687C252.862 58.62 263.004 60.1494 271.375 67.8762L272.985 64.4152H272.985Z" fill="white" stroke="black" stroke-width="0.5208"/>
<path id="Vector_393" d="M276.89 64.075C269.444 55.4015 265.059 57.3431 259.705 54.3555C254.676 51.5484 246.665 50.9749 245.113 55.4391C252.461 51.8603 259.207 57.3635 263.351 58.0293C269.042 58.9433 272.255 63.3433 273.92 65.3668L276.89 64.0752L276.89 64.075Z" fill="white" stroke="black" stroke-width="0.5208"/>
<path id="Vector_394" d="M304.94 62.965C301.076 54.111 292.813 56.4235 289.163 52.6625C283.853 47.1895 270.411 42.1185 264.857 45.9015C277.09 45.2575 282.301 54.334 288.842 57.492C293.511 59.7457 298.501 64.575 304.94 62.9655V62.965Z" fill="white" stroke="black" stroke-width="0.5208"/>
<path id="Vector_395" d="M290.455 62C283.855 53.79 273.711 46.546 269.044 49.2825C275.161 49.6044 277.092 53.8704 281.44 56.607C285.786 59.3437 283.855 63.2875 290.455 62Z" fill="white" stroke="black" stroke-width="0.5208"/>
<path id="Vector_396" d="M259.06 76.4901C252.137 73.9144 238.616 72.6267 232.337 80.5147C242.802 82.2853 258.577 81.3195 259.06 76.4901Z" fill="white" stroke="black" stroke-width="0.5208"/>
<path id="Vector_397" d="M257.775 79.5501C250.852 76.3305 245.446 80.8276 238.94 80.1938C226.546 78.9865 217.692 79.7109 216.565 85.6673C223.648 79.3088 235.561 84.5404 240.39 83.2527C245.219 81.9648 263.088 83.0917 268.721 85.5063C265.823 81.9648 261.317 80.999 257.775 79.5503V79.5501Z" fill="white" stroke="black" stroke-width="0.5208"/>
<path id="Vector_398" d="M279.505 61.1151C277.897 55.8026 277.976 50.1686 285.944 50.5711C283.932 48.0759 276.528 46.7882 275.319 56.1251C266.546 49.6861 256.967 48.5591 255.198 54.113C259.705 50.2494 266.707 53.0665 275.077 62.5645C275.802 62.162 277.734 61.3572 279.505 61.1157L279.505 61.1151Z" fill="white" stroke="black" stroke-width="0.5208"/>
<path id="Vector_399" d="M267.435 68.44C262.445 65.2206 255.683 59.9885 267.516 57.896C262.445 55.1593 255.039 56.3666 255.845 65.7035C242.322 60.23 232.612 62.0774 230.57 67.4741C228.316 73.4306 236.689 76.7306 238.137 72.9476C236.607 73.5916 231.376 71.8207 234.112 68.4401C236.849 65.0597 250.874 67.5974 264.216 74.5576C267.918 76.4893 280.635 76.1674 267.434 68.4401L267.435 68.44Z" fill="white" stroke="black" stroke-width="0.5208"/>
<path id="Vector_400" d="M263.89 77.2951C260.04 69.4341 247.55 76.5707 245.033 68.9561C241.594 80.1121 262.794 73.939 263.89 77.2951Z" fill="white" stroke="black" stroke-width="0.5208"/>
<path id="Vector_401" d="M343.335 85.8249C345.954 87.1262 348.219 85.0805 344.212 83.476C346.833 84.7766 349.119 82.7797 345.112 81.1745C347.733 82.4751 350.019 80.4785 346.012 78.8733C344.944 79.9491 343.414 83.8933 343.335 85.8248V85.8249Z" fill="white" stroke="black" stroke-width="0.5208"/>
<path id="Vector_402" d="M344.7 70.6952C350.496 64.5782 344.219 62.4852 351.3 56.2072C357.096 51.0707 352.406 47.6472 357.902 43.6507C359.673 42.363 363.535 39.7873 363.858 37.2117C366.192 43.0067 356.612 43.8117 357.256 53.1487C357.667 59.0937 353.648 58.5742 352.106 68.6027C351.784 70.6954 350.336 75.3637 344.7 70.6954V70.6952Z" fill="white" stroke="black" stroke-width="0.5208"/>
<path id="Vector_403" d="M347.28 73.4302C350.499 66.5082 354.195 66.6412 355.972 63.9327C359.353 58.7812 366.516 64.8181 372.553 60.2302C371.507 66.7497 363.378 64.4156 359.837 68.6012C356.295 72.7866 353.397 74.7187 347.28 73.4306V73.4302Z" fill="white" stroke="black" stroke-width="0.5208"/>
<path id="Vector_404" d="M348.085 75.6849C353.72 71.1774 357.872 74.1845 361.768 71.8214C371.587 65.8649 375.533 73.0287 384.306 70.2116C381.971 75.8456 369.012 71.0166 363.379 75.202C357.743 79.3874 337.943 83.412 348.085 75.6849V75.6849Z" fill="white" stroke="black" stroke-width="0.5208"/>
<path id="Vector_405" d="M331.665 107.8C331.584 105.225 329.169 101.924 325.788 101.522C322.409 101.12 320.959 97.5781 318.384 97.4173C315.809 97.2562 314.117 92.1048 310.576 92.1853C307.034 92.2659 305.586 96.8536 313.876 101.039C322.167 105.225 331.342 110.054 331.665 107.801V107.8Z" fill="white" stroke="black" stroke-width="0.5208"/>
<path id="Vector_406" d="M321.2 109.975C317.659 110.136 317.175 115.288 313.796 115.449C318.463 117.944 321.844 114.322 324.259 111.102L321.2 109.975L321.2 109.975Z" fill="white" stroke="black" stroke-width="0.5208"/>
<path id="Vector_407" d="M324.1 110.615C321.042 113.191 320.156 118.584 324.583 120.113C321.927 116.45 329.252 114.8 326.998 111.42L324.1 110.615L324.1 110.615Z" fill="white" stroke="black" stroke-width="0.5208"/>
<path id="Vector_408" d="M327.155 110.78C324.74 115.448 330.938 116.012 329.328 119.554C332.87 118.749 333.434 112.068 330.213 110.297L327.155 110.78L327.155 110.78Z" fill="white" stroke="black" stroke-width="0.5208"/>
<path id="Vector_409" d="M303.49 100.795C309.286 100.473 314.586 103.609 318.14 108.683C320.394 111.903 327.959 113.19 330.536 110.615C333.111 108.039 331.663 102.566 325.224 104.337C323.613 101.6 318.944 102.566 316.692 100.312C314.438 98.0587 305.744 91.6197 303.49 100.795V100.795Z" fill="white" stroke="black" stroke-width="0.5208"/>
<g id="Vector_410">
<path d="M325.225 104.34C323.696 104.662 323.213 107.318 324.177 108.686L325.225 104.34Z" fill="white"/>
<path d="M325.225 104.34C323.696 104.662 323.213 107.318 324.177 108.686" stroke="black" stroke-width="0.5208" stroke-linecap="round"/>
</g>
<g id="Vector_411">
<path d="M328.525 105.95C329.008 106.755 328.686 107.882 328.444 108.445L328.525 105.95Z" fill="white"/>
<path d="M328.525 105.95C329.008 106.755 328.686 107.882 328.444 108.445" stroke="black" stroke-width="0.5208" stroke-linecap="round"/>
</g>
<g id="Vector_412">
<path d="M312.67 101.04C315.647 101.201 316.212 103.374 319.43 104.179L312.67 101.04Z" fill="white"/>
<path d="M312.67 101.04C315.647 101.201 316.212 103.374 319.43 104.179" stroke="black" stroke-width="0.5208" stroke-linecap="round"/>
</g>
<path id="Vector_413" d="M310.7 93.7149C320.986 96.2905 329.146 98.5443 334.207 101.442C339.267 104.34 347.103 105.144 353.959 103.213C360.815 101.281 374.036 99.5103 373.384 108.042C376.977 103.776 372.404 99.1882 363.263 98.3832C363.427 94.1978 358.948 90.4147 355.727 92.9097C358.706 92.5074 361.277 98.0612 355.402 100.315C356.544 96.1293 352.381 92.3462 348.056 94.1977C350.831 95.0025 353.638 99.6562 347.429 101.442C343.51 102.569 337.797 101.12 333.554 98.5442C329.31 95.9683 305.477 86.6317 310.7 93.7148L310.7 93.7149Z" fill="white" stroke="black" stroke-width="0.5208"/>
<path id="Vector_414" d="M336.655 89.5301C333.436 90.9788 335.528 94.3595 330.538 96.2911C325.547 98.2227 322.086 102.65 323.213 106.433C326.595 99.0276 332.551 99.3496 334.642 96.4521C336.736 93.5544 339.794 89.2886 336.655 89.5301Z" fill="white" stroke="black" stroke-width="0.5208"/>
<path id="Vector_415" d="M337.54 90.0099C337.38 95.8854 332.755 93.7451 334.561 102.003C335.125 104.579 336.171 108.764 334.4 112.949C339.592 109.167 336.253 101.219 338.586 98.2199C339.713 96.7712 341.161 94.5174 341.725 92.5859C340.517 95.9663 340.598 102.245 343.898 103.854C341.242 97.5759 351.063 92.4249 344.3 85.1809C343.336 86.9518 340.275 90.0907 337.54 90.0103L337.54 90.0099Z" fill="white" stroke="black" stroke-width="0.5208"/>
<path id="Vector_416" d="M321.12 84.1348C321.927 85.3421 322.731 88.4009 322.006 90.0913C323.616 89.1255 325.952 86.6303 326.675 84.9398C329.975 85.4227 331.262 89.5277 328.125 91.2983C330.056 91.2983 333.356 91.2983 335.206 89.1252C332.954 86.63 325.952 82.7662 321.121 84.1348H321.12Z" fill="white" stroke="black" stroke-width="0.5208"/>
<path id="Vector_417" d="M271.055 72.59C270.534 72.1154 269.655 71.6641 268.078 71.3402C263.205 70.3408 265.722 65.9482 269.87 65.9872C278.722 56.3287 283.693 63.7741 294.478 60.7157C298.253 59.6455 300.845 59.9617 302.901 60.8515C307.73 57.6319 313.395 58.5315 317.501 62.3146C317.957 61.5888 318.57 61.035 319.43 60.7961C323.212 59.7459 326.27 62.97 327.316 67.1556C330.264 66.6095 333.63 68.0687 335.845 70.0808C338.912 68.5058 341.024 68.4358 341.801 70.0552C344.539 68.7673 348.085 67.9598 349.855 72.3062C351.626 76.6527 345.67 75.3648 344.703 84.5407C344.108 90.2012 337.782 92.4287 332.791 89.0482C324.807 83.6397 317.016 82.7697 313.151 90.9799C309.289 99.1899 306.262 103.96 296.893 101.282C293.514 100.316 289.166 101.604 286.43 105.307C283.693 109.009 279.507 105.548 274.518 105.951C280.795 104.985 278.391 103.406 283.855 103.053C288.845 102.731 287.557 98.0628 290.776 97.419C278.22 100.639 278.703 95.9701 268.401 99.1896C272.908 93.3946 279.991 96.614 283.533 93.2336C274.195 93.0726 270.02 86.9726 265.824 89.5311C259.224 93.5555 262.12 105.014 244.897 104.019C236.526 103.536 231.214 104.663 226.224 109.654C234.918 91.6241 246.743 101.529 252.464 95.8096C255.845 92.429 258.42 89.8531 260.191 86.6336C260.814 85.5003 261.658 84.8526 262.712 84.6022C248.385 80.0947 257.049 73.0732 271.056 72.5907L271.055 72.59Z" fill="white" stroke="black" stroke-width="0.5208"/>
<g id="Vector_418">
<path d="M341.795 70.0552C342.014 70.5079 342.126 71.0952 342.126 71.8214C342.126 75.3629 336.814 75.5239 336.493 80.7559C336.324 83.4926 336.009 85.0218 334.157 84.6999C332.307 84.3778 330.697 81.4803 332.468 78.0999" fill="white"/>
<path d="M341.795 70.0552C342.014 70.5079 342.126 71.0952 342.126 71.8214C342.126 75.3629 336.814 75.5239 336.493 80.7559C336.324 83.4926 336.009 85.0218 334.157 84.6999C332.307 84.3778 330.697 81.4803 332.468 78.0999" stroke="black" stroke-width="0.5208" stroke-linecap="round"/>
</g>
<g id="Vector_419">
<path d="M273.71 67.3151C272.377 66.3782 271.044 65.9976 269.848 65.9866L273.71 67.3151Z" fill="white"/>
<path d="M273.71 67.3151C272.377 66.3782 271.044 65.9976 269.848 65.9866" stroke="black" stroke-width="0.5208"/>
</g>
<g id="Vector_420">
<path d="M302.87 60.8252C307.133 62.6706 309.212 67.0982 315.404 67.3152C321.364 67.5244 325.064 76.1692 335.043 70.5346C335.314 70.3821 335.579 70.2398 335.835 70.1077" fill="white"/>
<path d="M302.87 60.8252C307.133 62.6706 309.212 67.0982 315.404 67.3152C321.364 67.5244 325.064 76.1692 335.043 70.5346C335.314 70.3821 335.579 70.2398 335.835 70.1077" stroke="black" stroke-width="0.5208"/>
</g>
<g id="Vector_421">
<path d="M317.5 62.3152C316.61 63.7298 316.408 65.7043 316.652 67.4372L317.5 62.3152Z" fill="white"/>
<path d="M317.5 62.3152C316.61 63.7298 316.408 65.7043 316.652 67.4372" stroke="black" stroke-width="0.5208"/>
</g>
<path id="Vector_422" d="M298.02 80.5151C290.455 80.5151 288.522 84.3785 288.522 88.0811C288.522 91.7836 292.064 96.6131 298.343 96.6131C304.62 96.6131 308.001 92.7498 308.001 88.5641C308.001 84.3785 304.137 80.5151 298.02 80.5151Z" fill="white" stroke="black" stroke-width="0.5208"/>
<g id="Vector_423">
<path d="M299.385 96.4501C299.225 94.3574 295.441 94.6792 295.602 93.0694C295.762 91.4596 297.696 90.8157 297.696 88.5621C297.696 86.3084 301.075 86.1473 302.202 87.9182C303.329 89.6888 306.71 93.1497 307.435 91.3792" fill="white"/>
<path d="M299.385 96.4501C299.225 94.3574 295.441 94.6792 295.602 93.0694C295.762 91.4596 297.696 90.8157 297.696 88.5621C297.696 86.3084 301.075 86.1473 302.202 87.9182C303.329 89.6888 306.71 93.1497 307.435 91.3792" stroke="black" stroke-width="0.5208"/>
</g>
<g id="Vector_424">
<path d="M302.205 87.9199C300.434 89.6905 299.63 93.3124 301.963 96.1299L302.205 87.9199Z" fill="white"/>
<path d="M302.205 87.9199C300.434 89.6905 299.63 93.3124 301.963 96.1299" stroke="black" stroke-width="0.5208"/>
</g>
<g id="Vector_425">
<path d="M304.62 90.655C304.058 91.8623 303.897 93.7136 304.541 94.8404L304.62 90.655Z" fill="white"/>
<path d="M304.62 90.655C304.058 91.8623 303.897 93.7136 304.541 94.8404" stroke="black" stroke-width="0.5208"/>
</g>
<path id="Vector_426" d="M334.68 84.74C340.596 85.2229 341.603 78.703 337.176 78.301" stroke="black" stroke-width="0.5208"/>
<path id="Vector_427" d="M327.4 67.1551C325.348 64.5394 320.64 63.654 320.559 69.2078" stroke="black" stroke-width="0.5208"/>
<path id="Vector_428" d="M319.995 75.5249C317.983 70.5345 312.831 69.8099 310.093 72.3053C307.816 74.382 307.76 79.7908 312.67 80.9178C314.36 78.9057 317.66 76.2495 319.995 75.5253L319.995 75.5249Z" fill="white" stroke="black" stroke-width="0.5208"/>
<g id="Vector_429">
<path d="M317.78 72.3852C314.882 69.8094 310.615 74.6794 314.48 79.1462L317.78 72.3852Z" fill="white"/>
<path d="M317.78 72.3852C314.882 69.8094 310.615 74.6794 314.48 79.1462" stroke="black" stroke-width="0.5208"/>
</g>
<g id="Vector_430">
<path d="M262.655 84.5801C264.595 84.1197 267.43 85.0689 271.778 87.1139C274.516 88.4018 282.726 91.1385 287.876 88.4018C282.564 90.3334 278.541 82.2843 274.516 83.2503C270.491 84.2161 263.126 85.7051 260.028 82.7671C267.593 83.2503 271.662 77.2566 280.31 82.4453C282.726 83.894 285.785 84.8601 288.52 84.699C281.439 76.167 272.101 81.6403 271.135 74.7185C275.401 79.3064 285.824 73.6721 291.137 82.2845" fill="white"/>
<path d="M262.655 84.5801C264.595 84.1197 267.43 85.0689 271.778 87.1139C274.516 88.4018 282.726 91.1385 287.876 88.4018C282.564 90.3334 278.541 82.2843 274.516 83.2503C270.491 84.2161 263.126 85.7051 260.028 82.7671C267.593 83.2503 271.662 77.2566 280.31 82.4453C282.726 83.894 285.785 84.8601 288.52 84.699C281.439 76.167 272.101 81.6403 271.135 74.7185C275.401 79.3064 285.824 73.6721 291.137 82.2845" stroke="black" stroke-width="0.5208"/>
</g>
<g id="Vector_431">
<path d="M272.665 76.0052C271.669 74.7656 272.119 73.53 271.051 72.5525L272.665 76.0052Z" fill="white"/>
<path d="M272.665 76.0052C271.669 74.7656 272.119 73.53 271.051 72.5525" stroke="black" stroke-width="0.5208"/>
</g>
</g>
<path id="Vector_432" d="M327.4 67.1552C325.629 65.2637 321.766 66.7527 322.852 70.5762C323.698 68.8056 325.508 67.3162 327.4 67.1552Z" fill="black"/>
<path id="Vector_433" d="M316.455 77.4652C317.674 76.5804 318.932 75.8535 319.993 75.5243C319.414 74.0922 318.578 73.0113 317.614 72.2571C316.693 71.621 314.047 75.1792 316.455 77.4651V77.4652Z" fill="black"/>
<g id="Group_6">
<path id="Vector_434" d="M311.7 70.9351C308.802 69.0034 306.146 69.1644 305.26 70.7742C303.169 70.6936 301.437 72.223 301.356 75.2815" stroke="black" stroke-width="0.5208" stroke-linecap="round"/>
<path id="Vector_435" d="M305.825 76.5702C302.365 74.196 297.615 75.0814 297.938 80.3937" stroke="black" stroke-width="0.5208" stroke-linecap="round"/>
<path id="Vector_436" d="M295.845 83.4099C297.535 82.0416 299.949 81.0758 301.801 83.4905" stroke="black" stroke-width="0.5208" stroke-linecap="round"/>
<path id="Vector_437" d="M321.685 78.1799C321.041 79.0651 320.558 80.4335 321.604 82.5264C320.316 80.836 317.098 80.836 313.635 85.3433" stroke="black" stroke-width="0.5208" stroke-linecap="round"/>
<path id="Vector_438" d="M329.33 77.9399C325.144 78.4229 325.226 81.1593 328.605 82.3668" stroke="black" stroke-width="0.5208" stroke-linecap="round"/>
<path id="Vector_439" d="M299.55 67.7151C296.008 66.9907 293.434 69.0834 298.344 70.8542" stroke="black" stroke-width="0.5208" stroke-linecap="round"/>
<path id="Vector_440" d="M306.31 65.3C301.318 64.0927 299.306 65.3804 301.56 66.5073" stroke="black" stroke-width="0.5208" stroke-linecap="round"/>
<path id="Vector_441" d="M291.9 85.3452C291.74 87.1161 292.704 89.4502 295.602 86.7942" stroke="black" stroke-width="0.5208" stroke-linecap="round"/>
<path id="Vector_442" d="M292.87 90.655C292.87 91.1379 292.789 91.7013 292.466 92.1038" stroke="black" stroke-width="0.5208" stroke-linecap="round"/>
<path id="Vector_443" d="M281.275 67.0701C278.217 66.1847 277.654 63.3677 281.196 63.6091" stroke="black" stroke-width="0.5208" stroke-linecap="round"/>
<path id="Vector_444" d="M280.23 73.5899C276.849 72.463 276.849 69.163 279.665 69.4849" stroke="black" stroke-width="0.5208" stroke-linecap="round"/>
<path id="Vector_445" d="M286.51 71.9001C282.566 70.9341 282.406 68.1974 285.385 68.5999" stroke="black" stroke-width="0.5208" stroke-linecap="round"/>
<path id="Vector_446" d="M286.99 63.5299C284.898 63.369 281.678 65.7032 287.071 67.0715" stroke="black" stroke-width="0.5208" stroke-linecap="round"/>
<path id="Vector_447" d="M292.87 68.1999C287.96 67.4755 288.041 69.4878 290.937 70.7758" stroke="black" stroke-width="0.5208" stroke-linecap="round"/>
<path id="Vector_448" d="M296.57 63.53C292.787 62.8056 291.499 65.0594 294.074 66.0252" stroke="black" stroke-width="0.5208" stroke-linecap="round"/>
<path id="Vector_449" d="M284.66 77.4551C283.733 76.6907 282.97 73.028 287.395 74.1151" stroke="black" stroke-width="0.5208" stroke-linecap="round"/>
<path id="Vector_450" d="M293.835 76.33C290.858 75.525 288.041 78.4227 290.777 80.1129" stroke="black" stroke-width="0.5208" stroke-linecap="round"/>
<path id="Vector_451" d="M297.775 72.8701C294.638 72.3066 291.981 73.192 293.671 74.3189" stroke="black" stroke-width="0.5208" stroke-linecap="round"/>
</g>
<g id="Vector_452">
<path d="M327.23 67.155C325.461 67.4827 323.876 68.5221 322.849 70.5748L327.23 67.155Z" fill="white"/>
<path d="M327.23 67.155C325.461 67.4827 323.876 68.5221 322.849 70.5748" stroke="black" stroke-width="0.5208"/>
</g>
</g>
</g>
</svg>
