<svg width="450" height="300" viewBox="0 0 450 300" fill="none" xmlns="http://www.w3.org/2000/svg">
<g id="CHN">
<path id="Vector" d="M0 0H450V299.118H0V0Z" fill="#EE1C25"/>
<path id="Vector_2" d="M75.4411 29.1177L102.418 111.176L31.7646 60.4624H119.118L48.4645 111.176L75.4411 29.1177Z" fill="#FFFF00"/>
<path id="Vector_3" d="M155.869 16.1929L153.367 44.6155L138.671 20.1435L164.954 31.3193L137.134 37.7128L155.869 16.1929Z" fill="#FFFF00"/>
<path id="Vector_4" d="M190.767 49.5607L177.432 74.7851L173.384 46.5281L193.27 67.0273L165.149 62.1238L190.767 49.5607Z" fill="#FFFF00"/>
<path id="Vector_5" d="M194.092 99.8655L171.627 117.456L179.458 90.0058L189.252 116.834L165.578 100.886L194.092 99.8655Z" fill="#FFFF00"/>
<path id="Vector_6" d="M155.294 120.968L153.973 149.47L138.275 125.628L164.999 135.705L137.467 143.246L155.294 120.968Z" fill="#FFFF00"/>
</g>
</svg>
