<svg width="456" height="305" viewBox="0 0 456 305" fill="none" xmlns="http://www.w3.org/2000/svg">
<g id="IND">
<rect id="Rectangle 18" x="1.5" y="1.5" width="453" height="302" stroke="#D1D1D1" stroke-width="3"/>
<g id="Group 1745">
<path id="Vector" d="M453 2H3V302.312H453V2Z" fill="#FF9933"/>
<path id="Vector_2" d="M453 102.104H3V202.208H453V102.104Z" fill="white"/>
<path id="Vector_3" d="M453 202.208H3V302.312H453V202.208Z" fill="#128807"/>
<g id="Group">
<path id="Vector_4" d="M228 159.163C231.866 159.163 235 156.026 235 152.156C235 148.286 231.866 145.149 228 145.149C224.134 145.149 221 148.286 221 152.156C221 156.026 224.134 159.163 228 159.163Z" fill="#000088"/>
<g id="Group_2">
<path id="Vector_5" d="M228 112.114C205.9 112.114 188 130.033 188 152.156C188 174.279 205.9 192.197 228 192.197C250.1 192.197 268 174.279 268 152.156C268 130.033 250.1 112.114 228 112.114ZM250.64 178.844C250.04 178.123 248.98 177.983 248.24 178.563C247.48 179.144 247.34 180.205 247.9 180.966C247.12 181.506 246.32 182.007 245.5 182.467L236.04 163.688L230 155.619L233.96 164.889L245.48 182.467C244.66 182.948 243.82 183.368 242.96 183.789C242.56 182.948 241.58 182.547 240.72 182.908C239.86 183.268 239.44 184.249 239.76 185.13C238.88 185.45 237.96 185.731 237.04 185.971L232.78 165.39L229.04 156.02L230.46 165.99L237.04 185.951C236.12 186.191 235.22 186.411 234.28 186.592C234.12 185.671 233.28 185.03 232.34 185.15C231.4 185.27 230.76 186.111 230.84 187.052C229.9 187.132 228.96 187.192 228 187.192C227.04 187.192 226.1 187.132 225.16 187.052C225.24 186.131 224.6 185.29 223.66 185.15C222.72 185.03 221.88 185.671 221.72 186.592C220.78 186.411 219.86 186.211 218.96 185.951L225.54 165.99L226.96 156.02L223.22 165.37L218.96 185.951C218.04 185.711 217.14 185.43 216.24 185.11C216.56 184.229 216.14 183.248 215.28 182.888C214.42 182.527 213.44 182.928 213.04 183.769C212.18 183.368 211.34 182.928 210.52 182.447L222.04 164.869L226 155.619L219.96 163.688L210.52 182.467C209.7 181.987 208.9 181.506 208.12 180.966C208.66 180.205 208.52 179.144 207.78 178.563C207.04 177.983 205.98 178.123 205.38 178.844C203.94 177.622 202.6 176.281 201.36 174.819C202.08 174.219 202.22 173.158 201.64 172.417C201.06 171.656 200 171.516 199.24 172.077C198.7 171.296 198.2 170.495 197.74 169.674L216.5 160.224L224.54 154.158L215.28 158.122L197.72 169.654C197.24 168.833 196.82 167.992 196.4 167.131C197.24 166.731 197.64 165.75 197.28 164.889C196.92 164.028 195.94 163.608 195.06 163.928C194.74 163.047 194.46 162.126 194.22 161.205L214.78 156.941L224.12 153.197L214.16 154.618L194.22 161.205C193.98 160.284 193.76 159.383 193.58 158.442C194.5 158.282 195.14 157.441 195.02 156.5C194.9 155.559 194.06 154.919 193.12 154.999C193.06 154.058 193 153.117 193 152.156C193 151.195 193.06 150.254 193.14 149.313C194.06 149.393 194.9 148.752 195.04 147.811C195.16 146.87 194.52 146.029 193.6 145.869C193.78 144.928 193.98 144.007 194.24 143.106L214.18 149.693L224.14 151.115L214.8 147.371L194.24 143.106C194.48 142.185 194.76 141.285 195.08 140.384C195.96 140.704 196.94 140.284 197.3 139.423C197.66 138.562 197.26 137.581 196.42 137.18C196.82 136.319 197.26 135.479 197.74 134.658L215.3 146.19L224.54 150.154L216.48 144.107L197.72 134.658C198.2 133.837 198.68 133.036 199.22 132.255C199.98 132.796 201.04 132.656 201.62 131.915C202.2 131.174 202.06 130.113 201.34 129.512C201.96 128.792 202.58 128.071 203.26 127.41C203.94 126.749 204.64 126.109 205.36 125.488C205.96 126.209 207.02 126.349 207.76 125.768C208.52 125.188 208.66 124.127 208.1 123.366C208.88 122.825 209.68 122.325 210.5 121.864L219.94 140.644L226 148.692L222.04 139.423L210.52 121.844C211.34 121.364 212.18 120.943 213.04 120.523C213.44 121.364 214.42 121.764 215.28 121.404C216.14 121.044 216.56 120.063 216.24 119.182C217.12 118.861 218.04 118.581 218.96 118.341L223.22 138.922L226.96 148.272L225.54 138.301L218.96 118.341C219.88 118.1 220.78 117.88 221.72 117.7C221.88 118.621 222.72 119.262 223.66 119.142C224.6 119.021 225.24 118.181 225.16 117.24C226.1 117.18 227.04 117.119 228 117.119C228.96 117.119 229.9 117.18 230.84 117.26C230.76 118.181 231.4 119.021 232.34 119.162C233.28 119.282 234.12 118.641 234.28 117.72C235.22 117.9 236.14 118.1 237.04 118.361L230.46 138.301L229.04 148.292L232.78 138.942L237.04 118.361C237.96 118.601 238.86 118.881 239.76 119.202C239.44 120.083 239.86 121.064 240.72 121.424C241.58 121.784 242.56 121.384 242.96 120.543C243.82 120.943 244.66 121.384 245.48 121.864L233.96 139.423L230 148.692L236.04 140.624L245.48 121.844C246.3 122.325 247.1 122.805 247.88 123.346C247.34 124.107 247.48 125.168 248.22 125.748C248.96 126.329 250.02 126.189 250.62 125.468C251.34 126.089 252.06 126.709 252.72 127.39C253.38 128.071 254.02 128.772 254.64 129.492C253.92 130.093 253.78 131.154 254.36 131.895C254.94 132.656 256 132.796 256.76 132.235C257.3 133.016 257.8 133.817 258.26 134.638L239.52 144.107L231.46 150.154L240.72 146.19L258.28 134.658C258.76 135.479 259.18 136.319 259.6 137.18C258.76 137.581 258.36 138.562 258.72 139.423C259.08 140.284 260.06 140.704 260.94 140.384C261.26 141.265 261.54 142.185 261.78 143.106L241.22 147.371L231.86 151.115L241.82 149.693L261.76 143.106C262 144.027 262.22 144.928 262.4 145.869C261.48 146.029 260.84 146.87 260.96 147.811C261.08 148.752 261.92 149.393 262.86 149.313C262.94 150.254 263 151.195 263 152.156C263 153.117 262.94 154.058 262.86 154.999C261.94 154.919 261.1 155.559 260.96 156.5C260.84 157.441 261.48 158.282 262.4 158.442C262.22 159.383 262.02 160.304 261.76 161.205L241.84 154.618L231.86 153.197L241.2 156.941L261.76 161.205C261.52 162.126 261.24 163.027 260.92 163.928C260.04 163.608 259.06 164.028 258.7 164.889C258.34 165.75 258.74 166.731 259.58 167.131C259.18 167.992 258.74 168.833 258.26 169.654L240.72 158.122L231.46 154.158L239.52 160.204L258.28 169.654C257.8 170.475 257.32 171.276 256.78 172.056C256.02 171.516 254.96 171.656 254.38 172.397C253.8 173.138 253.94 174.199 254.66 174.799C253.44 176.281 252.1 177.622 250.64 178.844Z" fill="#000088"/>
<path id="Vector_6" d="M228 156.16L226.8 166.171L228 187.192L229.2 166.171L228 156.16Z" fill="#000088"/>
<path id="Vector_7" d="M203.26 176.922L218.94 162.907L225.18 154.979L217.26 161.225L203.26 176.922Z" fill="#000088"/>
<path id="Vector_8" d="M224 152.156L214 150.955L193 152.156L214 153.357L224 152.156Z" fill="#000088"/>
<path id="Vector_9" d="M225.18 149.333L218.94 141.405L203.26 127.39L217.26 143.086L225.18 149.333Z" fill="#000088"/>
<path id="Vector_10" d="M228 148.152L229.2 138.141L228 117.12L226.8 138.141L228 148.152Z" fill="#000088"/>
<path id="Vector_11" d="M230.82 149.333L238.74 143.086L252.74 127.39L237.06 141.405L230.82 149.333Z" fill="#000088"/>
<path id="Vector_12" d="M232 152.156L242 153.357L263 152.156L242 150.955L232 152.156Z" fill="#000088"/>
<path id="Vector_13" d="M230.82 154.979L237.06 162.907L252.74 176.922L238.74 161.225L230.82 154.979Z" fill="#000088"/>
</g>
</g>
</g>
</g>
</svg>
