<svg width="464" height="268" viewBox="0 0 464 268" fill="none" xmlns="http://www.w3.org/2000/svg">
<g id="IRN">
<path id="Vector" d="M461 3H3V264.714H461V3Z" fill="#DA0000"/>
<path id="Vector_2" d="M461 3H3V177.476H461V3Z" fill="white"/>
<path id="Vector_3" d="M461 3H3V90.2381H461V3Z" fill="#239F40"/>
<g id="Group">
<path id="Vector_4" d="M35.5689 75.9891H9.10669V78.0247H35.5689V75.9891Z" fill="white"/>
<path id="Vector_5" d="M11.1422 82.0957H17.2489V86.1668H27.4267V80.0602H21.32V82.0957H25.3911V84.1313H19.2845V80.0602H9.10669V86.1668H11.1422V82.0957Z" fill="white"/>
<path id="Vector_6" d="M15.2133 84.1313H13.1777V86.1669H15.2133V84.1313Z" fill="white"/>
<path id="Vector_7" d="M45.7466 84.1314H43.711V75.9891H41.6755V84.1314H39.6399V75.9891H37.6044V80.0602H29.4622V86.1669H35.5688V84.1314H31.4977V82.0958H37.6044V86.1669H47.7822V75.9891H45.7466V84.1314Z" fill="white"/>
<path id="Vector_8" d="M47.7822 88.2025H29.4622V92.2736H47.7822V88.2025Z" fill="white"/>
<path id="Vector_9" d="M27.4267 88.2025H9.10669V92.2736H27.4267V88.2025Z" fill="white"/>
<path id="Vector_10" d="M27.4267 175.441H9.10669V179.512H27.4267V175.441Z" fill="white"/>
<path id="Vector_11" d="M47.7822 175.441H29.4622V179.512H47.7822V175.441Z" fill="white"/>
<path id="Vector_12" d="M21.32 187.654H25.3911V189.69H19.2845V185.618H9.10669V191.725H11.1422V187.654H17.2489V191.725H27.4267V185.618H21.32V187.654Z" fill="white"/>
<path id="Vector_13" d="M45.7466 189.689H43.711V181.547H41.6755V189.689H39.6399V181.547H37.6044V185.618H29.4622V191.725H35.5688V189.689H31.4977V187.654H37.6044V191.725H47.7822V181.547H45.7466V189.689Z" fill="white"/>
<path id="Vector_14" d="M15.2133 189.689H13.1777V191.725H15.2133V189.689Z" fill="white"/>
<path id="Vector_15" d="M35.5689 181.547H9.10669V183.583H35.5689V181.547Z" fill="white"/>
<path id="Vector_16" d="M55.9245 84.1313H53.8889V86.1669H55.9245V84.1313Z" fill="white"/>
<path id="Vector_17" d="M51.8532 82.0957H57.9598V86.1668H68.1376V80.0602H62.031V82.0957H66.1021V84.1313H59.9954V80.0602H49.8176V86.1668H51.8532V82.0957Z" fill="white"/>
<path id="Vector_18" d="M76.2799 75.9891H49.8176V78.0247H76.2799V75.9891Z" fill="white"/>
<path id="Vector_19" d="M86.4577 84.1314H84.4221V75.9891H82.3865V84.1314H80.351V75.9891H78.3154V80.0602H70.1732V86.1669H76.2799V84.1314H72.2088V82.0958H78.3154V86.1669H88.4932V75.9891H86.4577V84.1314Z" fill="white"/>
<path id="Vector_20" d="M88.4932 88.2025H70.1732V92.2736H88.4932V88.2025Z" fill="white"/>
<path id="Vector_21" d="M68.1376 88.2025H49.8176V92.2736H68.1376V88.2025Z" fill="white"/>
<path id="Vector_22" d="M68.1376 175.441H49.8176V179.512H68.1376V175.441Z" fill="white"/>
<path id="Vector_23" d="M88.4932 175.441H70.1732V179.512H88.4932V175.441Z" fill="white"/>
<path id="Vector_24" d="M76.2799 181.547H49.8176V183.583H76.2799V181.547Z" fill="white"/>
<path id="Vector_25" d="M55.9245 189.689H53.8889V191.725H55.9245V189.689Z" fill="white"/>
<path id="Vector_26" d="M86.4577 189.689H84.4221V181.547H82.3865V189.689H80.351V181.547H78.3154V185.618H70.1732V191.725H76.2799V189.689H72.2088V187.654H78.3154V191.725H88.4932V181.547H86.4577V189.689Z" fill="white"/>
<path id="Vector_27" d="M62.031 187.654H66.1021V189.69H59.9954V185.618H49.8176V191.725H51.8532V187.654H57.9598V191.725H68.1376V185.618H62.031V187.654Z" fill="white"/>
<path id="Vector_28" d="M127.169 84.1314H125.133V75.9891H123.098V84.1314H121.062V75.9891H119.027V80.0602H110.884V86.1669H116.991V84.1314H112.92V82.0958H119.027V86.1669H129.204V75.9891H127.169V84.1314Z" fill="white"/>
<path id="Vector_29" d="M96.6355 84.1313H94.6V86.1669H96.6355V84.1313Z" fill="white"/>
<path id="Vector_30" d="M116.991 75.9891H90.5288V78.0247H116.991V75.9891Z" fill="white"/>
<path id="Vector_31" d="M92.5644 82.0957H98.671V86.1668H108.849V80.0602H102.742V82.0957H106.813V84.1313H100.707V80.0602H90.5288V86.1668H92.5644V82.0957Z" fill="white"/>
<path id="Vector_32" d="M129.204 88.2025H110.884V92.2736H129.204V88.2025Z" fill="white"/>
<path id="Vector_33" d="M108.849 88.2025H90.5288V92.2736H108.849V88.2025Z" fill="white"/>
<path id="Vector_34" d="M129.204 175.441H110.884V179.512H129.204V175.441Z" fill="white"/>
<path id="Vector_35" d="M108.849 175.441H90.5288V179.512H108.849V175.441Z" fill="white"/>
<path id="Vector_36" d="M96.6355 189.689H94.6V191.725H96.6355V189.689Z" fill="white"/>
<path id="Vector_37" d="M102.742 187.654H106.813V189.69H100.707V185.618H90.5288V191.725H92.5644V187.654H98.671V191.725H108.849V185.618H102.742V187.654Z" fill="white"/>
<path id="Vector_38" d="M127.169 189.689H125.133V181.547H123.098V189.689H121.062V181.547H119.027V185.618H110.884V191.725H116.991V189.689H112.92V187.654H119.027V191.725H129.204V181.547H127.169V189.689Z" fill="white"/>
<path id="Vector_39" d="M116.991 181.547H90.5288V183.583H116.991V181.547Z" fill="white"/>
<path id="Vector_40" d="M157.702 75.9891H131.24V78.0247H157.702V75.9891Z" fill="white"/>
<path id="Vector_41" d="M137.347 84.1313H135.311V86.1669H137.347V84.1313Z" fill="white"/>
<path id="Vector_42" d="M133.276 82.0957H139.382V86.1668H149.56V80.0602H143.453V82.0957H147.524V84.1313H141.418V80.0602H131.24V86.1668H133.276V82.0957Z" fill="white"/>
<path id="Vector_43" d="M167.88 84.1314H165.844V75.9891H163.809V84.1314H161.773V75.9891H159.738V80.0602H151.595V86.1669H157.702V84.1314H153.631V82.0958H159.738V86.1669H169.915V75.9891H167.88V84.1314Z" fill="white"/>
<path id="Vector_44" d="M149.56 88.2025H131.24V92.2736H149.56V88.2025Z" fill="white"/>
<path id="Vector_45" d="M169.915 88.2025H151.595V92.2736H169.915V88.2025Z" fill="white"/>
<path id="Vector_46" d="M169.915 175.441H151.595V179.512H169.915V175.441Z" fill="white"/>
<path id="Vector_47" d="M149.56 175.441H131.24V179.512H149.56V175.441Z" fill="white"/>
<path id="Vector_48" d="M137.347 189.689H135.311V191.725H137.347V189.689Z" fill="white"/>
<path id="Vector_49" d="M157.702 181.547H131.24V183.583H157.702V181.547Z" fill="white"/>
<path id="Vector_50" d="M143.453 187.654H147.524V189.69H141.418V185.618H131.24V191.725H133.276V187.654H139.382V191.725H149.56V185.618H143.453V187.654Z" fill="white"/>
<path id="Vector_51" d="M167.88 189.689H165.844V181.547H163.809V189.689H161.773V181.547H159.738V185.618H151.595V191.725H157.702V189.689H153.631V187.654H159.738V191.725H169.915V181.547H167.88V189.689Z" fill="white"/>
<path id="Vector_52" d="M208.591 84.1314H206.556V75.9891H204.52V84.1314H202.484V75.9891H200.449V80.0602H192.307V86.1669H198.413V84.1314H194.342V82.0958H200.449V86.1669H210.627V75.9891H208.591V84.1314Z" fill="white"/>
<path id="Vector_53" d="M178.058 84.1313H176.022V86.1669H178.058V84.1313Z" fill="white"/>
<path id="Vector_54" d="M198.413 75.9891H171.951V78.0247H198.413V75.9891Z" fill="white"/>
<path id="Vector_55" d="M173.987 82.0957H180.093V86.1668H190.271V80.0602H184.164V82.0957H188.236V84.1313H182.129V80.0602H171.951V86.1668H173.987V82.0957Z" fill="white"/>
<path id="Vector_56" d="M190.271 88.2025H171.951V92.2736H190.271V88.2025Z" fill="white"/>
<path id="Vector_57" d="M210.627 88.2025H192.307V92.2736H210.627V88.2025Z" fill="white"/>
<path id="Vector_58" d="M210.627 175.441H192.307V179.512H210.627V175.441Z" fill="white"/>
<path id="Vector_59" d="M190.271 175.441H171.951V179.512H190.271V175.441Z" fill="white"/>
<path id="Vector_60" d="M178.058 189.689H176.022V191.725H178.058V189.689Z" fill="white"/>
<path id="Vector_61" d="M184.164 187.654H188.236V189.69H182.129V185.618H171.951V191.725H173.987V187.654H180.093V191.725H190.271V185.618H184.164V187.654Z" fill="white"/>
<path id="Vector_62" d="M208.591 189.689H206.556V181.547H204.52V189.689H202.484V181.547H200.449V185.618H192.307V191.725H198.413V189.689H194.342V187.654H200.449V191.725H210.627V181.547H208.591V189.689Z" fill="white"/>
<path id="Vector_63" d="M198.413 181.547H171.951V183.583H198.413V181.547Z" fill="white"/>
<path id="Vector_64" d="M239.124 75.9891H212.662V78.0247H239.124V75.9891Z" fill="white"/>
<path id="Vector_65" d="M214.698 82.0957H220.804V86.1668H230.982V80.0602H224.875V82.0957H228.947V84.1313H222.84V80.0602H212.662V86.1668H214.698V82.0957Z" fill="white"/>
<path id="Vector_66" d="M218.769 84.1313H216.733V86.1669H218.769V84.1313Z" fill="white"/>
<path id="Vector_67" d="M249.302 84.1314H247.267V75.9891H245.231V84.1314H243.195V75.9891H241.16V80.0602H233.018V86.1669H239.124V84.1314H235.053V82.0958H241.16V86.1669H251.338V75.9891H249.302V84.1314Z" fill="white"/>
<path id="Vector_68" d="M251.338 88.2025H233.018V92.2736H251.338V88.2025Z" fill="white"/>
<path id="Vector_69" d="M230.982 88.2025H212.662V92.2736H230.982V88.2025Z" fill="white"/>
<path id="Vector_70" d="M230.982 175.441H212.662V179.512H230.982V175.441Z" fill="white"/>
<path id="Vector_71" d="M251.338 175.441H233.018V179.512H251.338V175.441Z" fill="white"/>
<path id="Vector_72" d="M239.124 181.547H212.662V183.583H239.124V181.547Z" fill="white"/>
<path id="Vector_73" d="M224.875 187.654H228.947V189.69H222.84V185.618H212.662V191.725H214.698V187.654H220.804V191.725H230.982V185.618H224.875V187.654Z" fill="white"/>
<path id="Vector_74" d="M249.302 189.689H247.267V181.547H245.231V189.689H243.195V181.547H241.16V185.618H233.018V191.725H239.124V189.689H235.053V187.654H241.16V191.725H251.338V181.547H249.302V189.689Z" fill="white"/>
<path id="Vector_75" d="M218.769 189.689H216.733V191.725H218.769V189.689Z" fill="white"/>
<path id="Vector_76" d="M290.013 84.1314H287.978V75.9891H285.942V84.1314H283.907V75.9891H281.871V80.0602H273.729V86.1669H279.835V84.1314H275.764V82.0958H281.871V86.1669H292.049V75.9891H290.013V84.1314Z" fill="white"/>
<path id="Vector_77" d="M259.48 84.1313H257.444V86.1669H259.48V84.1313Z" fill="white"/>
<path id="Vector_78" d="M255.409 82.0957H261.516V86.1668H271.693V80.0602H265.587V82.0957H269.658V84.1313H263.551V80.0602H253.373V86.1668H255.409V82.0957Z" fill="white"/>
<path id="Vector_79" d="M279.836 75.9891H253.373V78.0247H279.836V75.9891Z" fill="white"/>
<path id="Vector_80" d="M292.049 88.2025H273.729V92.2736H292.049V88.2025Z" fill="white"/>
<path id="Vector_81" d="M271.693 88.2025H253.373V92.2736H271.693V88.2025Z" fill="white"/>
<path id="Vector_82" d="M292.049 175.441H273.729V179.512H292.049V175.441Z" fill="white"/>
<path id="Vector_83" d="M271.693 175.441H253.373V179.512H271.693V175.441Z" fill="white"/>
<path id="Vector_84" d="M279.836 181.547H253.373V183.583H279.836V181.547Z" fill="white"/>
<path id="Vector_85" d="M290.013 189.689H287.978V181.547H285.942V189.689H283.907V181.547H281.871V185.618H273.729V191.725H279.835V189.689H275.764V187.654H281.871V191.725H292.049V181.547H290.013V189.689Z" fill="white"/>
<path id="Vector_86" d="M259.48 189.689H257.444V191.725H259.48V189.689Z" fill="white"/>
<path id="Vector_87" d="M265.587 187.654H269.658V189.69H263.551V185.618H253.373V191.725H255.409V187.654H261.516V191.725H271.693V185.618H265.587V187.654Z" fill="white"/>
<path id="Vector_88" d="M296.12 82.0957H302.227V86.1668H312.404V80.0602H306.298V82.0957H310.369V84.1313H304.262V80.0602H294.084V86.1668H296.12V82.0957Z" fill="white"/>
<path id="Vector_89" d="M320.547 75.9891H294.084V78.0247H320.547V75.9891Z" fill="white"/>
<path id="Vector_90" d="M330.724 84.1314H328.689V75.9891H326.653V84.1314H324.618V75.9891H322.582V80.0602H314.44V86.1669H320.547V84.1314H316.476V82.0958H322.582V86.1669H332.76V75.9891H330.724V84.1314Z" fill="white"/>
<path id="Vector_91" d="M300.191 84.1313H298.156V86.1669H300.191V84.1313Z" fill="white"/>
<path id="Vector_92" d="M332.76 88.2025H314.44V92.2736H332.76V88.2025Z" fill="white"/>
<path id="Vector_93" d="M312.404 88.2025H294.084V92.2736H312.404V88.2025Z" fill="white"/>
<path id="Vector_94" d="M332.76 175.441H314.44V179.512H332.76V175.441Z" fill="white"/>
<path id="Vector_95" d="M312.404 175.441H294.084V179.512H312.404V175.441Z" fill="white"/>
<path id="Vector_96" d="M320.547 181.547H294.084V183.583H320.547V181.547Z" fill="white"/>
<path id="Vector_97" d="M300.191 189.689H298.156V191.725H300.191V189.689Z" fill="white"/>
<path id="Vector_98" d="M330.724 189.689H328.689V181.547H326.653V189.689H324.618V181.547H322.582V185.618H314.44V191.725H320.547V189.689H316.476V187.654H322.582V191.725H332.76V181.547H330.724V189.689Z" fill="white"/>
<path id="Vector_99" d="M306.298 187.654H310.369V189.69H304.262V185.618H294.084V191.725H296.12V187.654H302.227V191.725H312.404V185.618H306.298V187.654Z" fill="white"/>
<path id="Vector_100" d="M336.831 82.0957H342.938V86.1668H353.115V80.0602H347.009V82.0957H351.08V84.1313H344.973V80.0602H334.795V86.1668H336.831V82.0957Z" fill="white"/>
<path id="Vector_101" d="M371.435 84.1314H369.4V75.9891H367.364V84.1314H365.329V75.9891H363.293V80.0602H355.151V86.1669H361.258V84.1314H357.187V82.0958H363.293V86.1669H373.471V75.9891H371.435V84.1314Z" fill="white"/>
<path id="Vector_102" d="M340.902 84.1313H338.867V86.1669H340.902V84.1313Z" fill="white"/>
<path id="Vector_103" d="M361.258 75.9891H334.795V78.0247H361.258V75.9891Z" fill="white"/>
<path id="Vector_104" d="M373.471 88.2025H355.151V92.2736H373.471V88.2025Z" fill="white"/>
<path id="Vector_105" d="M353.115 88.2025H334.795V92.2736H353.115V88.2025Z" fill="white"/>
<path id="Vector_106" d="M373.471 175.441H355.151V179.512H373.471V175.441Z" fill="white"/>
<path id="Vector_107" d="M353.115 175.441H334.795V179.512H353.115V175.441Z" fill="white"/>
<path id="Vector_108" d="M340.902 189.689H338.867V191.725H340.902V189.689Z" fill="white"/>
<path id="Vector_109" d="M361.258 181.547H334.795V183.583H361.258V181.547Z" fill="white"/>
<path id="Vector_110" d="M371.435 189.689H369.4V181.547H367.364V189.689H365.329V181.547H363.293V185.618H355.151V191.725H361.258V189.689H357.187V187.654H363.293V191.725H373.471V181.547H371.435V189.689Z" fill="white"/>
<path id="Vector_111" d="M347.009 187.654H351.08V189.69H344.973V185.618H334.795V191.725H336.831V187.654H342.938V191.725H353.115V185.618H347.009V187.654Z" fill="white"/>
<path id="Vector_112" d="M401.969 75.9891H375.507V78.0247H401.969V75.9891Z" fill="white"/>
<path id="Vector_113" d="M381.613 84.1313H379.578V86.1669H381.613V84.1313Z" fill="white"/>
<path id="Vector_114" d="M377.542 82.0957H383.649V86.1668H393.827V80.0602H387.72V82.0957H391.791V84.1313H385.684V80.0602H375.507V86.1668H377.542V82.0957Z" fill="white"/>
<path id="Vector_115" d="M412.147 84.1314H410.111V75.9891H408.076V84.1314H406.04V75.9891H404.004V80.0602H395.862V86.1669H401.969V84.1314H397.898V82.0958H404.004V86.1669H414.182V75.9891H412.147V84.1314Z" fill="white"/>
<path id="Vector_116" d="M393.827 88.2025H375.507V92.2736H393.827V88.2025Z" fill="white"/>
<path id="Vector_117" d="M414.182 88.2025H395.862V92.2736H414.182V88.2025Z" fill="white"/>
<path id="Vector_118" d="M414.182 175.441H395.862V179.512H414.182V175.441Z" fill="white"/>
<path id="Vector_119" d="M393.827 175.441H375.507V179.512H393.827V175.441Z" fill="white"/>
<path id="Vector_120" d="M401.969 181.547H375.507V183.583H401.969V181.547Z" fill="white"/>
<path id="Vector_121" d="M381.613 189.689H379.578V191.725H381.613V189.689Z" fill="white"/>
<path id="Vector_122" d="M412.147 189.689H410.111V181.547H408.076V189.689H406.04V181.547H404.004V185.618H395.862V191.725H401.969V189.689H397.898V187.654H404.004V191.725H414.182V181.547H412.147V189.689Z" fill="white"/>
<path id="Vector_123" d="M387.72 187.654H391.791V189.69H385.684V185.618H375.507V191.725H377.542V187.654H383.649V191.725H393.827V185.618H387.72V187.654Z" fill="white"/>
<path id="Vector_124" d="M422.324 84.1313H420.289V86.1669H422.324V84.1313Z" fill="white"/>
<path id="Vector_125" d="M442.68 75.9891H416.218V78.0247H442.68V75.9891Z" fill="white"/>
<path id="Vector_126" d="M418.253 82.0957H424.36V86.1668H434.538V80.0602H428.431V82.0957H432.502V84.1313H426.396V80.0602H416.218V86.1668H418.253V82.0957Z" fill="white"/>
<path id="Vector_127" d="M452.858 75.9891V84.1314H450.822V75.9891H448.787V84.1314H446.751V75.9891H444.715V80.0602H436.573V86.1669H442.68V84.1314H438.609V82.0958H444.715V86.1669H454.893V75.9891H452.858Z" fill="white"/>
<path id="Vector_128" d="M434.538 88.2025H416.218V92.2736H434.538V88.2025Z" fill="white"/>
<path id="Vector_129" d="M454.893 88.2025H436.573V92.2736H454.893V88.2025Z" fill="white"/>
<path id="Vector_130" d="M454.893 175.441H436.573V179.512H454.893V175.441Z" fill="white"/>
<path id="Vector_131" d="M434.538 175.441H416.218V179.512H434.538V175.441Z" fill="white"/>
<path id="Vector_132" d="M422.324 189.689H420.289V191.725H422.324V189.689Z" fill="white"/>
<path id="Vector_133" d="M428.431 187.654H432.502V189.69H426.396V185.618H416.218V191.725H418.253V187.654H424.36V191.725H434.538V185.618H428.431V187.654Z" fill="white"/>
<path id="Vector_134" d="M452.858 189.689H450.822V181.547H448.787V189.689H446.751V181.547H444.715V185.618H436.573V191.725H442.68V189.689H438.609V187.654H444.715V191.725H454.893V181.547H452.858V189.689Z" fill="white"/>
<path id="Vector_135" d="M442.68 181.547H416.218V183.583H442.68V181.547Z" fill="white"/>
</g>
<g id="Group_2">
<path id="Vector_136" d="M251.665 142.065C255.38 130.622 251.869 118.074 242.752 110.23C252.661 124.886 249.084 144.689 234.879 155.005L235.868 130.578V111.35C234.326 110.608 233.003 109.496 232.007 108.107C231.011 109.496 229.688 110.608 228.147 111.35V130.578L229.136 155.005C214.931 144.689 211.354 124.893 221.263 110.23C212.146 118.074 208.628 130.629 212.35 142.065C214.858 149.785 220.223 155.783 226.882 159.272C222.811 160.763 218.464 161.432 214.08 161.221C219.22 162.893 224.49 163.082 229.427 162.042L229.47 163.067L232 166.571L234.545 163.067L234.588 162.042C239.524 163.082 244.788 162.893 249.935 161.221C245.551 161.432 241.204 160.755 237.133 159.272C243.792 155.776 249.157 149.785 251.665 142.065Z" fill="#DA0000"/>
<path id="Vector_137" d="M261.363 121.353C257.975 115.493 252.363 111.262 245.798 109.612C260.236 120.466 263.144 140.982 252.29 155.419C252.268 155.441 252.254 155.47 252.232 155.492C264.176 148.586 268.269 133.305 261.363 121.353Z" fill="#DA0000"/>
<path id="Vector_138" d="M218.209 109.612C211.645 111.255 206.032 115.493 202.644 121.353C195.738 133.305 199.824 148.593 211.775 155.499C211.754 155.478 211.739 155.449 211.717 155.427C200.856 140.982 203.764 120.473 218.209 109.612Z" fill="#DA0000"/>
<path id="Vector_139" d="M225.421 107.809C227.551 109.307 230.495 108.798 232 106.661C233.498 108.791 236.442 109.307 238.579 107.809C240.368 106.552 241.058 104.232 240.251 102.197C239.793 104.618 237.46 106.21 235.039 105.752C233.766 105.512 232.654 104.727 232.007 103.607C231.353 104.734 230.248 105.512 228.976 105.752C226.555 106.21 224.221 104.618 223.763 102.197C222.942 104.232 223.632 106.552 225.421 107.809Z" fill="#DA0000"/>
</g>
<rect id="Rectangle 25" x="1.5" y="1.5" width="461" height="265" stroke="#D1D1D1" stroke-width="3"/>
</g>
</svg>
