<svg width="464" height="311" viewBox="0 0 464 311" fill="none" xmlns="http://www.w3.org/2000/svg">
<g id="IRQ">
<g id="Group 1746">
<path id="Vector" d="M3 3H461V308.333H3V3Z" fill="#CE1126"/>
<path id="Vector_2" d="M3 104.778H461V308.333H3V104.778Z" fill="white"/>
<path id="Vector_3" d="M3 206.556H461V308.333H3V206.556Z" fill="black"/>
<g id="Group">
<path id="Vector_4" d="M276.647 136.624C276.025 136.295 275.325 135.768 275.092 135.449C274.742 134.961 274.945 134.941 276.388 135.333C278.971 136.034 280.638 135.76 282.292 134.36L283.75 133.131L285.466 134.005C286.411 134.482 287.414 134.813 287.703 134.736C288.447 134.54 289.988 132.563 289.938 131.879C289.878 131.033 290.592 131.246 290.936 132.173C291.622 133.99 290.623 136.075 288.858 136.539C287.997 136.763 287.2 136.681 285.895 136.226C284.292 135.666 284.018 135.675 283.215 136.291C281.412 137.671 278.903 137.8 276.647 136.624ZM283.037 130.782C282.409 129.983 281.656 126.967 281.899 126.227C282.113 125.585 282.334 125.457 282.917 125.64C283.94 125.959 284.177 126.665 284.024 129.054C283.905 131.001 283.616 131.512 283.037 130.782ZM207.8 128.614C207.594 130.075 210.391 133.704 211.653 134.362C210.795 134.746 209.728 134.571 208.941 135.003C204.541 139.403 188.474 155.069 185.539 158.813C194.23 158.984 203.868 158.695 212.018 158.322C212.01 152.417 217.609 152.113 221.357 149.963C223.285 152.999 228.127 152.766 228.732 157.336C228.732 162.808 228.742 171.051 228.742 177H154.498C153.192 182.768 147.986 187.169 140.731 185.358C142.976 183.013 146.754 182.208 148.107 178.968C149.248 171.875 145.827 167.495 143.615 163.472C147.275 162.14 147.83 161.807 151.55 159.308C148.938 167.242 158.338 166.37 165.316 166.189C165.551 163.495 165.415 160.315 163.348 159.922C166.018 158.952 166.462 158.62 170.724 155.005V165.695C187.312 165.695 205.204 165.571 222.139 165.571C222.139 162.226 223.025 156.853 220.377 156.853C217.849 156.853 220.258 163.732 218.294 163.732H178.589C178.589 162.252 178.551 159.158 178.551 156.929C180.234 155.247 180.035 155.393 191.531 143.895C192.677 142.746 200.743 135.461 207.8 128.614ZM307.044 128.331C309.816 129.823 312.011 131.887 315.404 132.757C315.01 134.162 313.759 134.717 313.432 136.197V166.184C317.223 167.02 318.021 164.871 319.825 163.727C320.317 168.527 323.375 173.231 323.266 176.999H307.042C307.044 160.78 307.044 144.556 307.044 128.331ZM285.412 144.391C285.412 144.391 291.314 139.408 291.314 139.217V165.386L295.564 165.38C295.564 155.41 295.433 145.297 295.433 136.03C297.158 134.304 300.536 131.805 301.381 130.059V176.929C289.406 176.929 267.067 176.942 264.114 176.942C263.564 167.215 263.471 157.139 274.811 159.306V155.336C274.465 154.657 273.844 155.5 273.699 154.617C275.499 152.815 276.11 152.356 280.985 148.096C280.985 153.235 281.074 165.369 281.074 165.369C282.267 165.369 284.588 165.373 285.372 165.373C285.373 165.375 285.412 145.062 285.412 144.391ZM271.424 165.121C272.222 166.319 274.939 166.298 274.811 164.28C274.353 162.616 270.782 163.25 271.424 165.121Z" fill="#007A3D"/>
<path id="Vector_5" d="M163.541 184.801C164.798 184.801 165.816 183.782 165.816 182.525C165.816 181.268 164.798 180.25 163.541 180.25C162.284 180.25 161.265 181.268 161.265 182.525C161.265 183.782 162.284 184.801 163.541 184.801Z" fill="#007A3D"/>
<path id="Vector_6" d="M233.77 128.379C236.542 129.871 238.736 131.934 242.13 132.804C241.736 134.208 240.485 134.765 240.16 136.244V166.232C243.949 167.067 244.747 164.917 246.551 163.774C247.043 168.574 250.101 173.277 249.993 177.046H233.768C233.77 160.825 233.77 144.602 233.77 128.379Z" fill="#007A3D"/>
</g>
</g>
<rect id="Rectangle 24" x="1.5" y="1.5" width="461" height="308" stroke="#D1D1D1" stroke-width="3"/>
</g>
</svg>
