<svg width="464" height="235" viewBox="0 0 464 235" fill="none" xmlns="http://www.w3.org/2000/svg">
<g id="JOR">
<g id="Group 1748">
<path id="Vector" d="M461 3H3V232H461V3Z" fill="#007A3D"/>
<path id="Vector_2" d="M461 3H3V155.667H461V3Z" fill="white"/>
<path id="Vector_3" d="M461 3H3V79.3333H461V3Z" fill="black"/>
<path id="Vector_4" d="M3 3V232L232 117.5L3 3Z" fill="#CE1126"/>
<path id="Vector_5" d="M73.7649 101.143L77.3135 110.131L86.5534 107.301L81.7384 115.68L89.7119 121.14L80.1592 122.599L80.862 132.237L73.7649 125.679L66.6678 132.237L67.3706 122.599L57.8179 121.14L65.7914 115.68L60.9764 107.301L70.2164 110.131L73.7649 101.143Z" fill="white"/>
</g>
<rect id="Rectangle 26" x="1.5" y="1.5" width="461" height="232" stroke="#D1D1D1" stroke-width="3"/>
</g>
</svg>
