<svg width="450" height="225" viewBox="0 0 450 225" fill="none" xmlns="http://www.w3.org/2000/svg">
<g id="KAZ">
<path id="Vector" d="M450 0H0V225H450V0Z" fill="#00AFCA"/>
<g id="sun 1">
<path id="Vector_2" d="M243.106 124.774C259.826 124.774 273.38 111.22 273.38 94.5001C273.38 77.7803 259.826 64.2263 243.106 64.2263C226.386 64.2263 212.832 77.7803 212.832 94.5001C212.832 111.22 226.386 124.774 243.106 124.774Z" fill="#FEC50C"/>
<g id="Group">
<path id="Vector_3" d="M240.631 57.6C240.631 58.95 241.306 60.0975 243.106 60.0975C244.906 60.075 245.581 58.95 245.581 57.6C245.581 55.8 243.106 47.2275 243.106 47.2275C243.106 47.2275 240.631 55.8 240.631 57.6Z" fill="#FEC50C"/>
<path id="Vector_4" d="M277.509 94.5001C277.531 96.3001 278.656 96.9751 280.006 96.9751C281.806 96.9751 290.379 94.5001 290.379 94.5001C290.379 94.5001 281.806 92.0251 280.006 92.0251C278.656 92.0251 277.509 92.7001 277.509 94.5001Z" fill="#FEC50C"/>
<path id="Vector_5" d="M243.106 128.903C241.306 128.925 240.631 130.05 240.631 131.4C240.631 133.2 243.106 141.773 243.106 141.773C243.106 141.773 245.581 133.2 245.581 131.4C245.581 130.05 244.906 128.903 243.106 128.903Z" fill="#FEC50C"/>
<path id="Vector_6" d="M208.703 94.5001C208.681 92.7001 207.556 92.0251 206.206 92.0251C204.406 92.0251 195.833 94.5001 195.833 94.5001C195.833 94.5001 204.406 96.9751 206.206 96.9751C207.556 96.9751 208.703 96.3001 208.703 94.5001Z" fill="#FEC50C"/>
<path id="Vector_7" d="M256.271 62.7164C257.942 63.3847 258.995 62.6039 259.513 61.3552C260.201 59.6924 261.196 50.8252 261.196 50.8252C261.196 50.8252 255.629 57.7979 254.941 59.4607C254.423 60.7094 254.608 62.0279 256.271 62.7164Z" fill="#FEC50C"/>
<path id="Vector_8" d="M274.889 107.665C274.221 109.336 275.002 110.389 276.251 110.907C277.913 111.595 286.781 112.59 286.781 112.59C286.781 112.59 279.808 107.023 278.145 106.335C276.896 105.817 275.578 106.002 274.889 107.665Z" fill="#FEC50C"/>
<path id="Vector_9" d="M229.941 126.284C228.269 125.615 227.216 126.396 226.699 127.645C226.01 129.308 225.016 138.175 225.016 138.175C225.016 138.175 230.582 131.202 231.271 129.539C231.788 128.291 231.604 126.972 229.941 126.284Z" fill="#FEC50C"/>
<path id="Vector_10" d="M211.322 81.3354C211.991 79.6637 211.21 78.6107 209.961 78.0932C208.298 77.4047 199.431 76.4102 199.431 76.4102C199.431 76.4102 206.404 81.9767 208.067 82.6652C209.315 83.1827 210.634 82.9982 211.322 81.3354Z" fill="#FEC50C"/>
<path id="Vector_11" d="M267.433 70.1728C268.722 71.4305 269.993 71.111 270.95 70.157C272.223 68.8835 276.534 61.0715 276.534 61.0715C276.534 61.0715 268.722 65.3825 267.449 66.656C266.492 67.6123 266.159 68.9015 267.433 70.1728Z" fill="#FEC50C"/>
<path id="Vector_12" d="M267.433 118.827C266.175 120.116 266.495 121.387 267.449 122.344C268.722 123.617 276.534 127.928 276.534 127.928C276.534 127.928 272.223 120.116 270.95 118.843C269.993 117.886 268.704 117.553 267.433 118.827Z" fill="#FEC50C"/>
<path id="Vector_13" d="M218.779 118.827C217.49 117.569 216.218 117.889 215.262 118.843C213.989 120.116 209.678 127.928 209.678 127.928C209.678 127.928 217.49 123.617 218.763 122.344C219.719 121.387 220.052 120.098 218.779 118.827Z" fill="#FEC50C"/>
<path id="Vector_14" d="M218.779 70.1728C220.037 68.8835 219.717 67.6123 218.763 66.656C217.49 65.3825 209.678 61.0715 209.678 61.0715C209.678 61.0715 213.989 68.8835 215.262 70.157C216.218 71.1133 217.508 71.4463 218.779 70.1728Z" fill="#FEC50C"/>
<path id="Vector_15" d="M274.889 81.3354C275.598 82.9892 276.896 83.1827 278.143 82.6652C279.806 81.9767 286.778 76.4102 286.778 76.4102C286.778 76.4102 277.911 77.4047 276.248 78.0932C275.002 78.6084 274.201 79.6727 274.889 81.3354Z" fill="#FEC50C"/>
<path id="Vector_16" d="M256.271 126.283C254.617 126.992 254.424 128.29 254.941 129.537C255.63 131.2 261.196 138.172 261.196 138.172C261.196 138.172 260.202 129.305 259.513 127.642C258.998 126.396 257.934 125.595 256.271 126.283Z" fill="#FEC50C"/>
<path id="Vector_17" d="M211.322 107.665C210.614 106.011 209.315 105.818 208.069 106.335C206.406 107.024 199.433 112.59 199.433 112.59C199.433 112.59 208.301 111.596 209.963 110.907C211.21 110.392 212.011 109.328 211.322 107.665Z" fill="#FEC50C"/>
<path id="Vector_18" d="M229.941 62.7166C231.595 62.0079 231.788 60.7096 231.271 59.4631C230.582 57.8004 225.016 50.8276 225.016 50.8276C225.016 50.8276 226.01 59.6949 226.699 61.3576C227.214 62.6041 228.278 63.4051 229.941 62.7166Z" fill="#FEC50C"/>
<path id="Vector_19" d="M247.878 57.8272C247.615 59.1502 248.054 60.408 249.818 60.759C251.588 61.0875 252.468 60.1155 252.731 58.7925C253.082 57.0262 252.326 48.1365 252.326 48.1365C252.326 48.1365 248.229 56.061 247.878 57.8272Z" fill="#FEC50C"/>
<path id="Vector_20" d="M276.847 101.212C276.519 102.983 277.491 103.862 278.814 104.126C280.58 104.477 289.47 103.723 289.47 103.723C289.47 103.723 281.545 99.6234 279.779 99.2724C278.456 99.0092 277.198 99.4457 276.847 101.212Z" fill="#FEC50C"/>
<path id="Vector_21" d="M236.394 128.241C234.623 127.913 233.744 128.885 233.48 130.208C233.129 131.974 233.885 140.864 233.885 140.864C233.885 140.864 237.985 132.939 238.336 131.173C238.597 129.85 238.16 128.592 236.394 128.241Z" fill="#FEC50C"/>
<path id="Vector_22" d="M209.365 87.7884C209.693 86.0177 208.721 85.1379 207.398 84.8747C205.632 84.5237 196.742 85.2774 196.742 85.2774C196.742 85.2774 204.667 89.3769 206.433 89.7279C207.756 89.9912 209.014 89.5547 209.365 87.7884Z" fill="#FEC50C"/>
<path id="Vector_23" d="M262.22 65.8958C263.729 66.8768 264.915 66.3166 265.664 65.1938C266.663 63.6976 269.37 55.1948 269.37 55.1948C269.37 55.1948 262.55 60.9481 261.549 62.4443C260.798 63.5671 260.721 64.8946 262.22 65.8958Z" fill="#FEC50C"/>
<path id="Vector_24" d="M275.162 112.943C274.039 112.194 272.709 112.118 271.71 113.614C270.729 115.124 271.289 116.309 272.412 117.059C273.908 118.058 282.411 120.764 282.411 120.764C282.411 120.764 276.658 113.942 275.162 112.943Z" fill="#FEC50C"/>
<path id="Vector_25" d="M223.992 123.104C222.483 122.123 221.297 122.683 220.548 123.806C219.549 125.302 216.842 133.805 216.842 133.805C216.842 133.805 223.662 128.052 224.663 126.556C225.414 125.433 225.491 124.105 223.992 123.104Z" fill="#FEC50C"/>
<path id="Vector_26" d="M211.05 76.0568C212.173 76.8061 213.503 76.8826 214.502 75.3863C215.483 73.8766 214.923 72.6908 213.8 71.9416C212.304 70.9426 203.801 68.2358 203.801 68.2358C203.801 68.2358 209.554 75.0578 211.05 76.0568Z" fill="#FEC50C"/>
<path id="Vector_27" d="M271.71 75.3863C272.729 76.8713 274.039 76.8061 275.162 76.0568C276.658 75.0578 282.411 68.2358 282.411 68.2358C282.411 68.2358 273.908 70.9403 272.412 71.9416C271.289 72.6908 270.711 73.8901 271.71 75.3863Z" fill="#FEC50C"/>
<path id="Vector_28" d="M262.22 123.104C260.735 124.123 260.8 125.433 261.549 126.556C262.548 128.052 269.37 133.805 269.37 133.805C269.37 133.805 266.666 125.302 265.665 123.806C264.915 122.683 263.716 122.105 262.22 123.104Z" fill="#FEC50C"/>
<path id="Vector_29" d="M214.502 113.614C213.483 112.129 212.173 112.194 211.05 112.943C209.554 113.942 203.801 120.764 203.801 120.764C203.801 120.764 212.304 118.06 213.8 117.059C214.923 116.309 215.501 115.11 214.502 113.614Z" fill="#FEC50C"/>
<path id="Vector_30" d="M223.992 65.8958C225.477 64.8766 225.412 63.5671 224.663 62.4443C223.664 60.9481 216.842 55.1948 216.842 55.1948C216.842 55.1948 219.546 63.6976 220.548 65.1938C221.297 66.3166 222.496 66.8948 223.992 65.8958Z" fill="#FEC50C"/>
<path id="Vector_31" d="M278.813 84.8747C277.49 85.1379 276.496 86.0244 276.847 87.7884C277.22 89.5502 278.456 89.9912 279.779 89.7279C281.545 89.3769 289.469 85.2774 289.469 85.2774C289.469 85.2774 280.58 84.5237 278.813 84.8747Z" fill="#FEC50C"/>
<path id="Vector_32" d="M249.818 128.241C248.056 128.615 247.615 129.85 247.878 131.173C248.229 132.939 252.329 140.864 252.329 140.864C252.329 140.864 253.085 131.974 252.734 130.208C252.468 128.885 251.584 127.89 249.818 128.241Z" fill="#FEC50C"/>
<path id="Vector_33" d="M207.398 104.126C208.721 103.862 209.716 102.976 209.365 101.212C208.991 99.4501 207.756 99.0091 206.433 99.2724C204.667 99.6234 196.742 103.723 196.742 103.723C196.742 103.723 205.632 104.477 207.398 104.126Z" fill="#FEC50C"/>
<path id="Vector_34" d="M236.394 60.759C238.156 60.3855 238.597 59.1502 238.334 57.8272C237.983 56.061 233.883 48.1365 233.883 48.1365C233.883 48.1365 233.127 57.0262 233.478 58.7925C233.744 60.1155 234.628 61.11 236.394 60.759Z" fill="#FEC50C"/>
</g>
</g>
<g id="bird 1">
<path id="Vector_35" d="M237.706 160.081C236.896 160.126 236.108 160.232 235.337 160.479C234.279 160.621 233.267 160.99 232.216 161.161L231.795 161.228L231.091 161.296C231.136 161.492 231.165 161.685 231.165 161.881C231.165 162.083 231.143 162.279 231.091 162.443C231.046 162.601 230.904 162.797 230.792 162.916C230.641 163.08 230.483 163.224 230.297 163.314C230.117 163.404 229.914 163.442 229.712 163.456C229.509 163.463 229.3 163.456 229.104 163.382C228.902 163.314 228.715 163.186 228.542 163.037C228.332 163.089 228.114 163.127 227.912 163.15C227.702 163.172 227.507 163.172 227.32 163.15C227.111 163.089 226.892 163.022 226.69 162.941C226.487 162.857 226.292 162.754 226.105 162.632C225.34 163.082 224.485 163.51 224.019 164.297C223.756 164.657 223.704 165.069 223.643 165.497C223.605 166.021 223.74 166.577 223.965 167.065C224.048 167.207 224.116 166.547 224.37 166.457C224.798 166.104 225.331 165.85 225.871 165.708C226.328 165.476 226.269 165.724 226.08 166.084C226.035 166.271 225.781 166.984 226.125 166.624C227.648 165.949 229.336 165.814 230.978 165.686C233.363 165.438 235.755 165.386 238.149 165.355C240.399 165.384 242.649 165.416 244.899 165.497C245.972 165.526 247.052 165.767 248.11 165.587C248.364 165.519 248.762 165.503 248.913 165.355C248.434 165.078 247.871 165.069 247.338 165.002H243.047C241.855 164.882 240.611 164.867 239.486 164.417C239.186 164.297 238.907 164.012 238.624 164.32C238.196 164.471 237.74 164.574 237.29 164.606C236.502 164.666 235.715 164.5 234.988 164.207C235.512 163.481 236.142 162.842 236.72 162.167C236.255 162.092 235.805 161.993 235.341 161.881C236.153 161.318 236.909 160.679 237.706 160.081Z" fill="#FEC50C"/>
<path id="Vector_36" d="M272.745 167.852C271.114 168.831 269.87 167.096 268.508 166.574C267.536 167.103 267.444 168.871 266.535 169.708C265.448 170.946 264.114 169.362 264.213 168.142C262.913 169.238 262.253 171.724 260.15 171.394C259.153 170.579 258.413 168.874 257.65 170.818C257.029 171.767 255.375 173.119 254.518 171.684C254.252 170.417 253.618 168.928 252.929 170.939C252.457 172.361 250.938 173.41 249.469 172.786C248.666 172.129 250.112 169.697 249.091 169.87C247.561 170.883 246.672 173.394 244.537 173.191C243.709 172.26 245.041 170.685 244.13 169.652C243.056 171.029 241.866 173.047 240.01 173.191C239.112 172.465 240.046 170.379 239.472 170.071C237.566 171.214 235.557 173.25 233.161 172.611C234.095 169.04 237.996 167.787 241.277 167.508C246.922 166.815 252.86 168.091 258.291 166.052C259.169 165.519 261.295 164.761 260.537 163.523C259.866 162.544 262.28 162.927 262.514 161.786C262.37 160.339 263.624 160.537 264.845 160.411C270.331 160.175 275.747 161.329 281.216 161.525C281.63 164.189 278.674 166.061 276.293 165.238C275.157 165.422 273.452 162.625 273.787 164.659C273.562 165.728 273.722 167.139 272.745 167.852ZM226.08 162.396C227.349 163.559 228.24 162.178 229.428 161.671C233.408 160.301 236.882 157.909 240.307 155.52C242.381 153.803 244.179 151.576 246.967 151.02C252.403 149.377 258.179 149.575 263.635 148.059C267.788 142.371 274.844 140.341 280.757 137.072C282.085 136.66 282.598 135.567 283.021 134.361C285.278 130.799 288.351 127.642 291.985 125.487C293.704 124.546 295.756 124.006 297.704 124.436C297.565 126.756 296.235 128.81 294.629 130.414C295.943 130.385 297.072 129.555 298.402 129.602C298.856 131.983 296.287 133.227 294.919 134.71C295.682 134.887 298.598 135.108 297.009 135.871C294.982 137.277 292.669 138.242 290.799 139.876C292.525 140.186 292.721 140.553 290.966 141.176C290.016 141.82 288.189 142.045 288.011 143.3C289.314 144.101 287.411 144.898 286.677 145.156C285.273 145.483 283.797 146.095 285.662 147.161C284.956 148.228 283.442 148.455 282.206 148.349C282.582 149.557 283.124 150.91 281.556 151.443C278.042 154.1 273.915 156.033 269.496 156.476C275.018 156.901 280.703 155.875 285.419 152.874C286.043 152.138 289.307 151.346 287.48 150.727C286.621 150.37 284.776 149.971 284.652 149.317C287.206 147.739 290.426 148.302 293.175 147.364C293.247 146.473 291.085 146.722 290.279 146.518C288.358 146.36 288.47 145.87 290.324 145.687C292.669 145.066 295.326 144.945 297.297 143.415C295.691 142.67 293.67 143.325 291.958 142.717C294.863 141.446 298.289 141.318 300.897 139.41C302.085 138.089 299.376 138.501 298.586 138.535C296.978 138.814 296.233 138.044 298.062 137.376C301.183 135.074 305.134 133.58 307.328 130.243C307.847 129.496 308.549 127.246 306.893 128.056C304.715 128.781 302.798 131.229 300.317 130.471C305.206 126.682 309.859 122.366 313.202 117.121C313.376 115.609 311 115.445 310.383 116.633C307.242 119.659 304.398 123.235 300.375 125.131C304.227 121.412 307.413 117.011 310.192 112.448C310.788 111.091 312.388 109.458 311.519 107.953C310.118 106.794 308.367 107.854 307.638 109.242C305.197 112.43 303.341 116.152 300.202 118.748C302.951 113.501 305.798 107.914 305.867 101.862C305.858 100.615 305.609 98.7817 303.917 99.0134C302.576 99.2542 302.893 101.261 302.342 102.276C301.124 106.411 300.553 110.889 298.055 114.509C298.618 111.15 299.601 107.647 298.845 104.254C298.492 102.737 296.044 103.39 296.359 104.89C293.434 119.709 283.491 132.669 270.486 140.166C264.533 143.534 257.882 145.708 251.114 146.691C249.293 147.089 247.325 146.855 245.585 147.476C241.369 150.709 238.817 156.118 233.48 157.81C231.089 158.998 227.968 159.241 226.258 161.462C226.105 161.752 226.073 162.081 226.08 162.396Z" fill="#FEC50C"/>
<path id="Vector_37" d="M242.055 147.365C241.267 148.794 240.804 150.438 239.791 151.719C236.745 148.947 232.328 149.039 228.463 148.854C225.272 148.683 221.805 148.391 219.337 146.114C216.74 143.988 214.621 141.227 211.72 139.501C209.072 138.781 206.404 137.881 204.275 136.065C199.726 132.357 197.12 126.854 192.674 123.031C191.826 122.196 190.827 121.551 189.877 120.842C188.975 121.062 189.382 123.009 188.28 122.016C187.679 121.589 186.176 121.548 186.041 122.145C187.4 123.936 188.761 125.981 188.948 128.271C188.021 128.366 186.372 128.076 185.913 128.42C187.144 130.265 188.721 131.901 190.514 133.203C189.655 133.341 187.96 133.266 187.63 133.613C189.409 135.064 191.317 136.545 193.648 136.918C194.125 137.546 192.951 138.761 193.939 139.299C194.512 139.533 196.402 139.924 195.1 140.577C194.206 141.18 194.537 142.581 195.68 142.55C196.402 142.919 198.025 143.009 198.151 143.648C197.509 144.3 195.518 145.072 197.215 145.682C198.799 146.559 200.605 147.131 202.412 147.194C201.505 147.957 200.387 148.391 199.451 149.109C203.625 151.557 208.251 153.165 212.823 154.716C214.643 155.323 216.484 155.89 218.371 156.248C212.888 155.931 207.589 154.308 202.594 152.088C200.007 150.951 197.401 149.856 194.749 148.877C195.912 148.272 197.257 148.123 198.463 147.599C195.959 147.097 193.225 146.933 191.023 145.556C191.36 144.953 192.638 144.926 193.347 144.62C194.677 144.3 195.502 143.916 193.626 143.799C191.734 143.286 189.567 143.515 187.9 142.374C188.008 141.69 189.751 141.929 190.462 141.634C191.358 141.481 192.352 141.353 193.066 140.75C190.143 139.537 186.318 140.397 184.027 137.814C183.499 136.83 185.668 137.622 186.284 137.458C187.852 137.458 189.54 137.958 191.034 137.323C186.775 135.453 182.209 133.703 178.96 130.242C178.6 129.687 177.518 128.168 178.391 127.979C180.92 128.314 182.749 131.073 185.456 130.643C185.816 130.159 183.886 129.365 183.402 128.672C179.458 125.288 175.63 121.616 172.865 117.181C172.676 115.701 175.003 115.478 175.615 116.623C178.632 119.528 181.354 122.919 185.112 124.901C186.444 125.547 184.347 124.136 184.068 123.623C180.596 119.593 177.293 115.336 174.865 110.589C174.431 109.734 173.711 108.183 175.012 107.729C176.31 107.079 177.599 107.965 178.258 109.081C180.81 112.299 182.689 116.126 185.868 118.808C183.159 113.552 180.268 108.019 180.198 101.971C180.261 100.799 180.337 99.0259 181.926 99.0732C183.26 98.8707 183.051 100.581 183.487 101.395C184.801 105.839 185.375 110.647 188.014 114.571C187.432 111.275 186.574 107.88 187.144 104.529C187.274 103.429 188.514 103.096 189.322 103.762C189.974 105.362 190.111 107.337 190.708 109.047C194.096 120.639 201.706 130.834 211.619 137.676C219.784 143.277 229.475 146.62 239.366 147.203C240.264 147.282 241.162 147.309 242.055 147.365Z" fill="#FEC50C"/>
<path id="Vector_38" d="M229.5 162.733C229.795 162.733 230.033 162.495 230.033 162.2C230.033 161.906 229.795 161.667 229.5 161.667C229.206 161.667 228.967 161.906 228.967 162.2C228.967 162.495 229.206 162.733 229.5 162.733Z" fill="#FEC50C"/>
<path id="Vector_39" d="M229.455 162.333C229.576 162.333 229.673 162.235 229.673 162.115C229.673 161.994 229.576 161.896 229.455 161.896C229.335 161.896 229.237 161.994 229.237 162.115C229.237 162.235 229.335 162.333 229.455 162.333Z" fill="#FEC50C" stroke="#00AFCA" stroke-width="0.3813"/>
</g>
<path id="Vector_40" d="M39.2603 83.4615C40.1468 81.621 40.5 80.415 40.5 78.4912C40.5 75.411 38.5965 72.99 35.001 72.5715C38.5965 72.153 40.5 69.732 40.5 66.6517C40.5 64.728 40.1468 63.522 39.2603 61.6815C39.2603 61.6815 32.1097 46.8112 29.3265 41.0602C28.98 40.3425 28.8675 39.5257 28.8675 38.3287C28.8675 36.4792 30.6608 34.9695 32.5417 34.9222C34.2563 34.8795 36.1238 36.5197 36.1238 38.3895C36.1238 40.6597 34.9447 41.6722 33.7365 41.6722C32.247 41.6722 31.6553 41.0602 31.6553 40.0162C31.6553 39.2872 32.0063 38.9722 32.5125 38.9722C33.7882 38.9722 33.4305 40.6912 33.4305 40.6912C34.065 40.5517 34.5847 39.9037 34.2878 39.096C34.7512 38.9925 35.1855 38.7495 35.5275 38.3602C35.1855 38.0295 34.7917 37.773 34.2878 37.6852C34.587 36.6975 34.1865 36.216 33.3225 36.0135C33.4958 36.3937 33.5025 36.7425 33.444 37.0732C32.085 36.6862 29.9993 37.3027 29.9993 39.6517C29.9993 41.9827 31.617 43.947 34.6522 43.4565C33.93 43.8007 33.5632 44.5072 33.489 45.297C34.0402 45.0832 34.6522 45.0517 34.6522 45.0517C34.2967 45.6772 33.804 46.2172 33.8265 47.4457C34.389 47.1892 34.911 46.7167 35.6332 47.016C34.5015 49.2435 35.892 52.3057 39.429 53.0302C38.1353 51.5137 37.5007 49.8735 37.5007 48.2422C37.5007 42.9547 38.97 42.066 38.97 38.3917C38.97 36.873 38.1982 35.235 36.6705 34.1077C37.6717 33.8265 38.3197 33.3247 38.6932 32.6452H38.691H38.6932C37.9777 31.6845 37.512 31.401 36.306 31.3245C37.647 30.627 39.015 29.115 39.015 26.7615C39.015 23.13 37.521 21.6337 37.521 17.541C37.521 15.2707 39.384 12.3795 39.384 12.3795C36.0922 12.708 34.461 15.7567 35.3902 18.1912C34.866 18.2677 34.3912 18.1485 33.9817 17.7615C33.741 18.4365 34.1213 19.2195 34.6298 19.8945C34.2203 20.1127 33.9187 19.9822 33.264 19.8472C33.327 20.5425 33.7432 21.2827 34.7625 21.978C31.8037 21.2107 29.9835 23.2717 29.9835 25.4317C29.9835 27.063 31.1265 28.2307 32.2425 28.2307C32.6025 28.2307 33.1335 28.0822 33.4327 27.8595C33.6442 28.3072 33.534 28.908 33.318 29.358C34.137 29.142 34.6567 28.656 34.2855 27.6435C34.9132 27.585 35.415 27.3735 35.7547 26.9685C35.4105 26.5275 34.8863 26.2732 34.2855 26.2935C34.7445 25.3485 34.2337 24.8197 33.489 24.39C33.489 24.39 33.9615 26.2935 32.7533 26.2935C32.211 26.2935 31.716 26.1157 31.716 25.317C31.716 24.6195 32.3257 23.6543 33.7342 23.7172C35.1427 23.778 36.2835 24.6892 36.2835 26.937C36.2835 29.0115 34.6117 30.042 32.4067 30.1095C30.42 30.1702 28.9192 29.0947 28.9192 27.045C28.9192 24.3157 32.859 18.0968 32.859 15.6645C32.859 13.8398 31.2188 12.8228 29.6122 12.8228C28.6132 12.8228 27.6907 13.2997 26.9977 13.7925C26.307 13.2975 25.3845 12.8228 24.3833 12.8228C22.779 12.8228 21.1365 13.842 21.1365 15.6645C21.1365 18.0968 25.0762 24.3157 25.0762 27.045C25.0762 29.0947 23.5755 30.1725 21.5887 30.1095C19.3837 30.042 17.712 29.0115 17.712 26.937C17.712 24.6892 18.8528 23.7802 20.2613 23.7172C21.6698 23.6565 22.2795 24.6217 22.2795 25.317C22.2795 26.118 21.7845 26.2935 21.2423 26.2935C20.034 26.2935 20.5065 24.39 20.5065 24.39C19.764 24.8197 19.2532 25.3485 19.71 26.2935C19.1092 26.2732 18.585 26.5275 18.2407 26.9685C18.5805 27.3735 19.0822 27.585 19.71 27.6435C19.341 28.656 19.8608 29.142 20.6775 29.358C20.4592 28.9102 20.3512 28.3095 20.5627 27.8595C20.862 28.0822 21.393 28.2307 21.753 28.2307C22.869 28.2307 24.012 27.0607 24.012 25.4317C24.012 23.2717 22.1918 21.2107 19.233 21.978C20.2523 21.2827 20.6685 20.5425 20.7315 19.8472C20.079 19.9822 19.7775 20.1127 19.3657 19.8945C19.8742 19.2195 20.2545 18.4365 20.0137 17.7615C19.6042 18.1485 19.1295 18.2655 18.6053 18.1912C19.5413 15.7522 17.91 12.7035 14.6183 12.375C14.6183 12.375 16.4812 15.2663 16.4812 17.5365C16.4812 21.6292 14.9873 23.1277 14.9873 26.757C14.9873 29.1127 16.353 30.6247 17.6963 31.32C16.4903 31.3965 16.0245 31.68 15.309 32.6407H15.3113H15.309C15.6825 33.3202 16.3305 33.822 17.3317 34.1033C15.804 35.2305 15.0322 36.8685 15.0322 38.3872C15.0322 42.0637 16.5015 42.9502 16.5015 48.2377C16.5015 49.869 15.867 51.507 14.5732 53.0257C18.1102 52.3012 19.5007 49.2367 18.369 47.0115C19.089 46.7122 19.6132 47.1847 20.1757 47.4412C20.196 46.2127 19.7032 45.6727 19.35 45.0472C19.35 45.0472 19.962 45.0787 20.5132 45.2925C20.439 44.5027 20.0722 43.7962 19.35 43.452C22.3853 43.9425 24.003 41.9782 24.003 39.6472C24.003 37.2983 21.9195 36.684 20.5583 37.0687C20.4998 36.738 20.5065 36.3892 20.6798 36.009C19.8158 36.2115 19.4175 36.6952 19.7145 37.6807C19.2105 37.7685 18.8168 38.025 18.4748 38.3557C18.8168 38.745 19.251 38.988 19.7145 39.0915C19.4175 39.9015 19.9373 40.5495 20.5717 40.6867C20.5717 40.6867 20.214 38.9677 21.4898 38.9677C21.996 38.9677 22.347 39.2827 22.347 40.0117C22.347 41.058 21.753 41.6677 20.2657 41.6677C19.0552 41.6677 17.8785 40.6552 17.8785 38.385C17.8785 36.5152 19.746 34.875 21.4605 34.9177C23.3415 34.965 25.1347 36.4747 25.1347 38.3242C25.1347 39.5212 25.0222 40.338 24.6757 41.0557C21.8925 46.8067 14.742 61.677 14.742 61.677C13.8555 63.5175 13.5022 64.7235 13.5022 66.6472C13.5022 69.7275 15.4057 72.1485 19.0012 72.567C15.4035 72.99 13.5 75.411 13.5 78.4912C13.5 80.415 13.8533 81.621 14.7398 83.4615C14.7398 83.4615 21.8903 98.3317 24.6735 104.083C25.02 104.8 25.1325 105.617 25.1325 106.814C25.1325 108.664 23.3393 110.173 21.4583 110.221C19.7438 110.263 17.8762 108.623 17.8762 106.753C17.8762 104.483 19.0552 103.471 20.2635 103.471C21.753 103.471 22.3447 104.083 22.3447 105.127C22.3447 105.856 21.9937 106.171 21.4875 106.171C20.2118 106.171 20.5695 104.452 20.5695 104.452C19.935 104.591 19.4152 105.239 19.7122 106.047C19.2488 106.15 18.8145 106.393 18.4725 106.783C18.8145 107.113 19.2083 107.37 19.7122 107.458C19.413 108.445 19.8135 108.927 20.6775 109.129C20.5043 108.749 20.4975 108.4 20.556 108.07C21.915 108.457 24.0007 107.84 24.0007 105.491C24.0007 103.16 22.383 101.196 19.3477 101.686C20.07 101.342 20.4368 100.636 20.511 99.846C19.9598 100.06 19.3477 100.091 19.3477 100.091C19.7032 99.4657 20.196 98.9257 20.1735 97.6972C19.611 97.9537 19.089 98.4262 18.3667 98.127C19.4985 95.8995 18.108 92.8372 14.571 92.1127C15.8648 93.6292 16.4993 95.2695 16.4993 96.9007C16.4993 102.188 15.03 103.077 15.03 106.751C15.03 108.27 15.8017 109.908 17.3295 111.035C16.3282 111.316 15.6802 111.818 15.3067 112.498H15.309H15.3067C15.6802 113.177 16.3282 113.679 17.3295 113.96C15.8017 115.087 15.03 116.725 15.03 118.244C15.03 121.921 16.4993 122.807 16.4993 128.095C16.4993 129.726 15.8648 131.364 14.571 132.883C18.108 132.158 19.4985 129.094 18.3667 126.868C19.0867 126.569 19.611 127.042 20.1735 127.298C20.1938 126.07 19.701 125.53 19.3477 124.904C19.3477 124.904 19.9598 124.936 20.511 125.149C20.4368 124.36 20.07 123.653 19.3477 123.309C22.383 123.799 24.0007 121.835 24.0007 119.504C24.0007 117.155 21.9172 116.541 20.556 116.926C20.4975 116.595 20.5043 116.246 20.6775 115.866C19.8135 116.068 19.4152 116.552 19.7122 117.538C19.2083 117.625 18.8145 117.882 18.4725 118.213C18.8145 118.602 19.2488 118.845 19.7122 118.948C19.4152 119.758 19.935 120.406 20.5695 120.544C20.5695 120.544 20.2118 118.825 21.4875 118.825C21.9937 118.825 22.3447 119.14 22.3447 119.869C22.3447 120.915 21.7507 121.525 20.2635 121.525C19.053 121.525 17.8762 120.512 17.8762 118.242C17.8762 116.372 19.7438 114.732 21.4583 114.775C23.3393 114.822 25.1325 116.332 25.1325 118.181C25.1325 119.378 25.02 120.195 24.6735 120.913C21.8903 126.664 14.7398 141.534 14.7398 141.534C13.851 143.379 13.5 144.585 13.5 146.509C13.5 149.589 15.4035 152.01 18.999 152.428C15.4035 152.847 13.5 155.268 13.5 158.348C13.5 160.272 13.8533 161.478 14.7398 163.318C14.7398 163.318 21.8903 178.189 24.6735 183.94C25.02 184.657 25.1325 185.474 25.1325 186.671C25.1325 188.521 23.3393 190.03 21.4583 190.078C19.7438 190.12 17.8762 188.48 17.8762 186.61C17.8762 184.34 19.0552 183.328 20.2635 183.328C21.753 183.328 22.3447 183.94 22.3447 184.984C22.3447 185.713 21.9937 186.028 21.4875 186.028C20.2118 186.028 20.5695 184.309 20.5695 184.309C19.935 184.448 19.4152 185.096 19.7122 185.904C19.2488 186.007 18.8145 186.25 18.4725 186.64C18.8145 186.97 19.2083 187.227 19.7122 187.315C19.413 188.302 19.8135 188.784 20.6775 188.986C20.5043 188.606 20.4975 188.257 20.556 187.927C21.915 188.314 24.0007 187.697 24.0007 185.348C24.0007 183.017 22.383 181.053 19.3477 181.543C20.07 181.199 20.4368 180.493 20.511 179.703C19.9598 179.917 19.3477 179.948 19.3477 179.948C19.7032 179.323 20.196 178.783 20.1735 177.554C19.611 177.811 19.089 178.283 18.3667 177.984C19.4985 175.756 18.108 172.694 14.571 171.97C15.8648 173.486 16.4993 175.126 16.4993 176.758C16.4993 182.045 15.03 182.934 15.03 186.608C15.03 188.127 15.8017 189.765 17.3295 190.892C16.3282 191.173 15.6802 191.675 15.3067 192.355H15.309H15.3067C16.0222 193.315 16.488 193.599 17.694 193.675C16.353 194.373 14.985 195.885 14.985 198.238C14.985 201.87 16.479 203.366 16.479 207.459C16.479 209.729 14.616 212.62 14.616 212.62C17.9077 212.292 19.539 209.243 18.6097 206.809C19.134 206.732 19.6087 206.851 20.0182 207.238C20.259 206.563 19.8787 205.78 19.3702 205.105C19.7797 204.887 20.0813 205.018 20.736 205.153C20.673 204.457 20.2567 203.717 19.2375 203.022C22.1962 203.789 24.0165 201.728 24.0165 199.568C24.0165 197.937 22.8735 196.769 21.7575 196.769C21.3975 196.769 20.8665 196.918 20.5673 197.14C20.3558 196.693 20.466 196.092 20.682 195.642C19.863 195.858 19.3433 196.344 19.7145 197.356C19.0868 197.415 18.585 197.626 18.2452 198.031C18.5895 198.472 19.1138 198.727 19.7145 198.706C19.2555 199.651 19.7663 200.18 20.511 200.61C20.511 200.61 20.0385 198.706 21.2467 198.706C21.789 198.706 22.284 198.884 22.284 199.683C22.284 200.38 21.6742 201.346 20.2657 201.283C18.8572 201.222 17.7165 200.311 17.7165 198.063C17.7165 195.988 19.3882 194.958 21.5933 194.89C23.58 194.83 25.0807 195.905 25.0807 197.955C25.0807 200.684 21.141 206.903 21.141 209.335C21.141 211.16 22.7812 212.179 24.3877 212.179C25.3867 212.179 26.3092 211.702 27.0022 211.21C27.693 211.705 28.6155 212.179 29.6168 212.179C31.221 212.179 32.8635 211.16 32.8635 209.335C32.8635 206.903 28.9237 200.684 28.9237 197.955C28.9237 195.905 30.4245 194.827 32.4113 194.89C34.6163 194.958 36.288 195.988 36.288 198.063C36.288 200.311 35.1472 201.22 33.7387 201.283C32.3302 201.343 31.7205 200.378 31.7205 199.683C31.7205 198.882 32.2155 198.706 32.7577 198.706C33.966 198.706 33.4935 200.61 33.4935 200.61C34.236 200.18 34.7467 199.651 34.29 198.706C34.8907 198.727 35.415 198.472 35.7592 198.031C35.4195 197.626 34.9177 197.415 34.29 197.356C34.659 196.344 34.1393 195.858 33.3225 195.642C33.5408 196.09 33.6488 196.69 33.4373 197.14C33.138 196.918 32.607 196.769 32.247 196.769C31.131 196.769 29.988 197.939 29.988 199.568C29.988 201.728 31.8083 203.789 34.767 203.022C33.7478 203.717 33.3315 204.457 33.2685 205.153C33.921 205.018 34.2225 204.887 34.6342 205.105C34.1257 205.78 33.7455 206.563 33.9862 207.238C34.3958 206.851 34.8705 206.734 35.3947 206.809C34.4677 209.245 36.0967 212.292 39.3885 212.62C39.3885 212.62 37.5255 209.729 37.5255 207.459C37.5255 203.366 39.0195 201.87 39.0195 198.238C39.0195 195.883 37.6537 194.371 36.3105 193.675C37.5165 193.599 37.9823 193.315 38.6978 192.355H38.6955H38.6978C38.3243 191.675 37.6762 191.173 36.675 190.892C38.2027 189.765 38.9745 188.127 38.9745 186.608C38.9745 182.934 37.5052 182.045 37.5052 176.758C37.5052 175.126 38.1397 173.488 39.4335 171.97C35.8965 172.694 34.506 175.759 35.6377 177.984C34.9177 178.283 34.3935 177.811 33.831 177.554C33.8107 178.783 34.3035 179.323 34.6567 179.948C34.6567 179.948 34.0448 179.917 33.4935 179.703C33.5677 180.493 33.9345 181.199 34.6567 181.543C31.6215 181.053 30.0038 183.017 30.0038 185.348C30.0038 187.697 32.0872 188.311 33.4485 187.927C33.507 188.257 33.5002 188.606 33.327 188.986C34.191 188.784 34.5893 188.3 34.2922 187.315C34.7962 187.227 35.19 186.97 35.532 186.64C35.19 186.25 34.7558 186.007 34.2922 185.904C34.5893 185.094 34.0695 184.446 33.435 184.309C33.435 184.309 33.7928 186.028 32.517 186.028C32.0107 186.028 31.6598 185.713 31.6598 184.984C31.6598 183.937 32.2538 183.328 33.741 183.328C34.9515 183.328 36.1283 184.34 36.1283 186.61C36.1283 188.48 34.2607 190.12 32.5462 190.078C30.6652 190.03 28.872 188.521 28.872 186.671C28.872 185.474 28.9845 184.657 29.331 183.94C32.1143 178.189 39.2647 163.318 39.2647 163.318C40.1512 161.478 40.5045 160.272 40.5045 158.348C40.5045 155.268 38.601 152.847 35.0055 152.428C38.601 152.01 40.5045 149.589 40.5045 146.509C40.5045 144.585 40.1512 143.379 39.2647 141.538C39.2647 141.538 32.1143 126.668 29.331 120.917C28.9845 120.199 28.872 119.383 28.872 118.186C28.872 116.336 30.6652 114.826 32.5462 114.779C34.2607 114.736 36.1283 116.377 36.1283 118.246C36.1283 120.517 34.9493 121.529 33.741 121.529C32.2515 121.529 31.6598 120.917 31.6598 119.873C31.6598 119.144 32.0107 118.829 32.517 118.829C33.7928 118.829 33.435 120.548 33.435 120.548C34.0695 120.409 34.5893 119.761 34.2922 118.953C34.7558 118.849 35.19 118.606 35.532 118.217C35.19 117.886 34.7962 117.63 34.2922 117.542C34.5915 116.554 34.191 116.073 33.327 115.87C33.5002 116.251 33.507 116.599 33.4485 116.93C32.0895 116.543 30.0038 117.16 30.0038 119.509C30.0038 121.84 31.6215 123.804 34.6567 123.313C33.9345 123.658 33.5677 124.364 33.4935 125.154C34.0448 124.94 34.6567 124.909 34.6567 124.909C34.3012 125.534 33.8085 126.074 33.831 127.303C34.3935 127.046 34.9155 126.574 35.6377 126.873C34.506 129.1 35.8965 132.163 39.4335 132.887C38.1397 131.371 37.5052 129.73 37.5052 128.099C37.5052 122.812 38.9745 121.923 38.9745 118.249C38.9745 116.73 38.2027 115.092 36.675 113.965C37.6762 113.683 38.3243 113.182 38.6978 112.502H38.6955H38.6978C38.3243 111.823 37.6762 111.321 36.675 111.04C38.2027 109.912 38.9745 108.274 38.9745 106.756C38.9745 103.081 37.5052 102.193 37.5052 96.9052C37.5052 95.274 38.1397 93.636 39.4335 92.1172C35.8965 92.8417 34.506 95.9062 35.6377 98.1315C34.9177 98.4307 34.3935 97.9582 33.831 97.7017C33.8107 98.9302 34.3035 99.4702 34.6567 100.096C34.6567 100.096 34.0448 100.064 33.4935 99.8505C33.5677 100.64 33.9345 101.347 34.6567 101.691C31.6215 101.2 30.0038 103.165 30.0038 105.496C30.0038 107.845 32.0872 108.459 33.4485 108.074C33.507 108.405 33.5002 108.754 33.327 109.134C34.191 108.931 34.5893 108.448 34.2922 107.462C34.7962 107.374 35.19 107.118 35.532 106.787C35.19 106.398 34.7558 106.155 34.2922 106.051C34.5893 105.241 34.0695 104.593 33.435 104.456C33.435 104.456 33.7928 106.175 32.517 106.175C32.0107 106.175 31.6598 105.86 31.6598 105.131C31.6598 104.085 32.2538 103.475 33.741 103.475C34.9515 103.475 36.1283 104.488 36.1283 106.758C36.1283 108.628 34.2607 110.268 32.5462 110.225C30.6652 110.178 28.872 108.668 28.872 106.819C28.872 105.622 28.9845 104.805 29.331 104.087C32.1097 98.3317 39.2603 83.4615 39.2603 83.4615ZM27 76.941C25.9852 74.358 23.4382 72.8865 21.087 72.5715C23.4382 72.2565 25.9875 70.785 27 68.202C28.0147 70.785 30.5617 72.2565 32.913 72.5715C30.5617 72.8865 28.0147 74.358 27 76.941ZM24.1042 15.5025C24.8265 14.6048 26.9302 16.3508 26.9977 16.4048L27 16.407H27.0022H27.0045L27.0067 16.4048C27.0742 16.3485 29.178 14.6048 29.9002 15.5025C30.7867 16.6005 28.3027 20.9812 27.0045 24.1875C25.7017 20.9812 23.2177 16.6005 24.1042 15.5025ZM22.959 32.7127C22.842 32.6677 22.7205 32.625 22.5923 32.5845C24.507 32.1458 26.1158 31.4257 27.0022 29.934C27.8865 31.4257 29.4975 32.1458 31.4123 32.5845C31.284 32.625 31.1602 32.6677 31.0455 32.7127C28.9237 32.958 27.441 34.587 27.0045 35.4127V35.415V35.4127C26.5635 34.587 25.0807 32.958 22.959 32.7127ZM16.1933 66.3457C16.1933 65.2702 16.4587 64.2757 16.8975 63.3375C18.9652 58.9185 25.5938 44.8627 27 41.9175V41.9152V41.9175C28.4062 44.8627 35.0347 58.9185 37.1025 63.3375C37.5412 64.2757 37.8067 65.268 37.8067 66.3457C37.8067 69.0525 35.3272 69.9975 33.9187 69.9975C32.2358 69.9975 30.5212 68.715 30.5212 67.113C30.5212 66.0982 31.0725 65.4862 31.869 65.4862C33.7725 65.4862 33.6555 67.1062 33.2775 68.1255C34.461 67.5922 35.1495 66.6427 34.9605 65.6392C35.631 65.547 36.27 65.2297 36.8595 64.566C36.396 63.981 35.8313 63.5377 34.9605 63.522C35.3407 61.9672 34.299 61.308 33.2775 60.9435C33.6015 62.0842 33.813 63.3982 31.869 63.3982C30.4515 63.3982 29.3355 63.6435 28.6852 64.5637C28.647 63.3352 28.5322 58.4865 28.5322 58.4865C28.4512 56.664 30.9713 56.7157 32.5732 57.258C31.968 55.1587 30.7282 54.0247 27.8595 54.3127C28.557 54.0202 29.2973 53.3655 29.2973 52.1032C29.2973 50.3955 27.9113 48.501 27 47.943V47.9497V47.943C26.091 48.5032 24.705 50.3955 24.7028 52.1032C24.7028 53.3655 25.4452 54.0202 26.1405 54.3127C23.2717 54.0247 22.032 55.161 21.4268 57.258C23.0288 56.7157 25.5487 56.664 25.4678 58.4865C25.4678 58.4865 25.353 63.3352 25.3147 64.5637C24.6645 63.6435 23.5485 63.3982 22.131 63.3982C20.187 63.3982 20.3985 62.0842 20.7225 60.9435C19.701 61.308 18.6593 61.965 19.0395 63.522C18.171 63.5377 17.604 63.981 17.1405 64.566C17.73 65.2297 18.3668 65.5492 19.0395 65.6392C18.8505 66.6427 19.539 67.5922 20.7225 68.1255C20.3422 67.1062 20.2275 65.4862 22.131 65.4862C22.9275 65.4862 23.4787 66.0982 23.4787 67.113C23.4787 68.715 21.7642 69.9975 20.0812 69.9975C18.6727 69.9975 16.1933 69.0525 16.1933 66.3457ZM27 148.059C28.0147 150.642 30.5617 152.113 32.913 152.428C30.5617 152.743 28.0125 154.217 27 156.798C25.9852 154.215 23.4382 152.743 21.087 152.428C23.4382 152.113 25.9852 150.642 27 148.059ZM29.8957 209.497C29.1735 210.395 27.0697 208.649 27.0022 208.595L27 208.593H26.9977H26.9955L26.9932 208.595C26.9257 208.651 24.822 210.395 24.0997 209.497C23.2133 208.399 25.6973 204.019 26.9955 200.812C28.2983 204.019 30.7822 208.399 29.8957 209.497ZM31.041 192.287C31.158 192.332 31.2795 192.375 31.4077 192.415C29.493 192.854 27.8842 193.574 26.9977 195.066C26.1135 193.574 24.5025 192.854 22.5877 192.415C22.716 192.375 22.8397 192.332 22.9545 192.287C25.0762 192.042 26.559 190.413 26.9955 189.587V189.585V189.587C27.4365 190.413 28.9193 192.042 31.041 192.287ZM37.8067 158.654C37.8067 159.73 37.5412 160.724 37.1025 161.662C35.0347 166.081 28.4062 180.137 27 183.082V183.085V183.082C25.5938 180.137 18.9652 166.081 16.8975 161.662C16.4587 160.724 16.1933 159.732 16.1933 158.654C16.1933 155.947 18.6727 155.002 20.0812 155.002C21.7642 155.002 23.4787 156.285 23.4787 157.887C23.4787 158.902 22.9275 159.514 22.131 159.514C20.2275 159.514 20.3445 157.894 20.7225 156.874C19.539 157.408 18.8505 158.357 19.0395 159.361C18.369 159.453 17.73 159.77 17.1405 160.434C17.604 161.019 18.1688 161.462 19.0395 161.478C18.6593 163.033 19.701 163.692 20.7225 164.056C20.3985 162.916 20.187 161.602 22.131 161.602C23.5485 161.602 24.6645 161.356 25.3147 160.436C25.353 161.665 25.4678 166.513 25.4678 166.513C25.5487 168.336 23.0288 168.284 21.4268 167.742C22.032 169.841 23.2717 170.975 26.1405 170.687C25.443 170.98 24.7028 171.634 24.7028 172.897C24.7028 174.604 26.0887 176.499 27 177.057V177.05V177.057C27.909 176.497 29.295 174.604 29.2973 172.897C29.2973 171.634 28.5547 170.98 27.8595 170.687C30.7282 170.975 31.968 169.839 32.5732 167.742C30.9713 168.284 28.4512 168.336 28.5322 166.513C28.5322 166.513 28.647 161.665 28.6852 160.436C29.3355 161.356 30.4515 161.602 31.869 161.602C33.813 161.602 33.6015 162.916 33.2775 164.056C34.299 163.692 35.3407 163.035 34.9605 161.478C35.829 161.462 36.396 161.019 36.8595 160.434C36.27 159.77 35.6333 159.451 34.9605 159.361C35.1495 158.357 34.461 157.408 33.2775 156.874C33.6577 157.894 33.7725 159.514 31.869 159.514C31.0725 159.514 30.5212 158.902 30.5212 157.887C30.5212 156.285 32.2358 155.002 33.9187 155.002C35.3272 155.002 37.8067 155.947 37.8067 158.654ZM37.1025 143.194C37.5412 144.133 37.8067 145.125 37.8067 146.203C37.8067 148.909 35.3272 149.854 33.9187 149.854C32.2358 149.854 30.5212 148.572 30.5212 146.97C30.5212 145.955 31.0725 145.343 31.869 145.343C33.7725 145.343 33.6555 146.963 33.2775 147.982C34.461 147.449 35.1495 146.5 34.9605 145.496C35.631 145.404 36.27 145.087 36.8595 144.423C36.396 143.838 35.8313 143.395 34.9605 143.379C35.3407 141.824 34.299 141.165 33.2775 140.8C33.6015 141.941 33.813 143.255 31.869 143.255C30.4515 143.255 29.3355 143.5 28.6852 144.421C28.647 143.192 28.5322 138.343 28.5322 138.343C28.4512 136.521 30.9713 136.573 32.5732 137.115C31.968 135.016 30.7282 133.882 27.8595 134.17C28.557 133.877 29.2973 133.222 29.2973 131.96C29.2973 130.252 27.9113 128.358 27 127.8V127.807V127.8C26.091 128.36 24.705 130.252 24.7028 131.96C24.7028 133.222 25.4452 133.877 26.1405 134.17C23.2717 133.882 22.032 135.018 21.4268 137.115C23.0288 136.573 25.5487 136.521 25.4678 138.343C25.4678 138.343 25.353 143.192 25.3147 144.421C24.6645 143.5 23.5485 143.255 22.131 143.255C20.187 143.255 20.3985 141.941 20.7225 140.8C19.701 141.165 18.6593 141.822 19.0395 143.379C18.171 143.395 17.604 143.838 17.1405 144.423C17.73 145.087 18.3668 145.406 19.0395 145.496C18.8505 146.5 19.539 147.449 20.7225 147.982C20.3422 146.963 20.2275 145.343 22.131 145.343C22.9275 145.343 23.4787 145.955 23.4787 146.97C23.4787 148.572 21.7642 149.854 20.0812 149.854C18.6727 149.854 16.1933 148.909 16.1933 146.203C16.1933 145.127 16.4587 144.133 16.8975 143.194C18.9652 138.775 25.5938 124.72 27 121.774V121.772V121.774C28.4062 124.72 35.0347 138.775 37.1025 143.194ZM31.041 112.43C31.104 112.455 31.1715 112.475 31.2367 112.5C31.1715 112.522 31.104 112.545 31.041 112.57C28.9193 112.815 27.4365 114.444 27 115.27V115.272V115.27C26.5635 114.444 25.083 112.815 22.959 112.57C22.896 112.545 22.8285 112.525 22.7632 112.5C22.8285 112.477 22.896 112.455 22.959 112.43C25.0807 112.185 26.5635 110.556 27 109.73V109.728V109.73C27.4365 110.556 28.9193 112.185 31.041 112.43ZM27 103.225C25.5915 100.28 18.963 86.2245 16.8975 81.8055C16.4587 80.8672 16.1933 79.875 16.1933 78.7972C16.1933 76.0905 18.6727 75.1455 20.0812 75.1455C21.7642 75.1455 23.4787 76.428 23.4787 78.03C23.4787 79.0447 22.9275 79.6567 22.131 79.6567C20.2275 79.6567 20.3445 78.0367 20.7225 77.0175C19.539 77.5507 18.8505 78.5002 19.0395 79.5037C18.369 79.596 17.73 79.9132 17.1405 80.577C17.604 81.162 18.1688 81.6052 19.0395 81.621C18.6593 83.1757 19.701 83.835 20.7225 84.1995C20.3985 83.0587 20.187 81.7447 22.131 81.7447C23.5485 81.7447 24.6645 81.4995 25.3147 80.5792C25.353 81.8077 25.4678 86.6565 25.4678 86.6565C25.5487 88.479 23.0288 88.4272 21.4268 87.885C22.032 89.9842 23.2717 91.1182 26.1405 90.8302C25.443 91.1227 24.7028 91.7775 24.7028 93.0397C24.7028 94.7475 26.0887 96.642 27 97.2V97.1932V97.2C27.909 96.6397 29.295 94.7475 29.2973 93.0397C29.2973 91.7775 28.5547 91.1227 27.8595 90.8302C30.7282 91.1182 31.968 89.982 32.5732 87.885C30.9713 88.4272 28.4512 88.479 28.5322 86.6565C28.5322 86.6565 28.647 81.8077 28.6852 80.5792C29.3355 81.4995 30.4515 81.7447 31.869 81.7447C33.813 81.7447 33.6015 83.0587 33.2775 84.1995C34.299 83.835 35.3407 83.178 34.9605 81.621C35.829 81.6052 36.396 81.162 36.8595 80.577C36.27 79.9132 35.6333 79.5937 34.9605 79.5037C35.1495 78.5002 34.461 77.5507 33.2775 77.0175C33.6577 78.0367 33.7725 79.6567 31.869 79.6567C31.0725 79.6567 30.5212 79.0447 30.5212 78.03C30.5212 76.428 32.2358 75.1455 33.9187 75.1455C35.3272 75.1455 37.8067 76.0905 37.8067 78.7972C37.8067 79.8727 37.5412 80.8672 37.1025 81.8055C35.0347 86.2245 28.4062 100.28 27 103.225Z" fill="#FEC50C"/>
</g>
</svg>
