<svg width="450" height="270" viewBox="0 0 450 270" fill="none" xmlns="http://www.w3.org/2000/svg">
<g id="KIR">
<path id="Vector" d="M0 0H450V270H0V0Z" fill="#FF0000"/>
<path id="Vector_2" d="M204.691 116.672C199.661 113.548 194.327 110.957 188.84 108.823C184.115 115.834 181.372 124.217 181.372 133.285C181.372 137.781 182.057 142.125 183.353 146.241C185.639 140.982 188.535 135.877 192.041 130.999C195.703 125.761 199.947 120.955 204.691 116.672ZM191.278 105.622C197.223 107.68 202.938 110.347 208.425 113.472C209.645 112.405 210.94 111.49 212.159 110.576C206.368 107.375 200.195 104.784 193.869 102.803C192.955 103.717 192.041 104.632 191.278 105.622ZM196.613 100.212C203.471 102.041 210.025 104.555 216.198 107.832C217.646 106.918 219.094 106.079 220.466 105.242C213.912 101.888 206.977 99.45 199.813 97.6968C198.682 98.4497 197.612 99.2907 196.613 100.212ZM203.09 95.6394C210.635 97.1636 217.951 99.6021 224.81 102.955C231.744 99.6021 239.06 97.1636 246.528 95.6394C240.203 91.9053 232.735 89.7714 224.81 89.7714C216.884 89.7714 209.492 91.9053 203.09 95.6394ZM249.805 97.7733C242.653 99.4491 235.722 101.956 229.153 105.242C230.592 106.077 232.015 106.941 233.421 107.832C239.669 104.555 246.223 102.041 253.006 100.212C252.015 99.297 250.948 98.4591 249.805 97.7729L249.805 97.7733ZM255.749 102.879C249.424 104.784 243.328 107.375 237.46 110.576C238.762 111.498 240.033 112.464 241.27 113.472C246.68 110.347 252.396 107.68 258.34 105.622C257.578 104.632 256.74 103.717 255.749 102.879ZM260.779 108.899C255.277 110.964 249.993 113.568 245.004 116.672C249.653 120.864 253.844 125.665 257.655 130.999C261.028 135.792 263.937 140.895 266.342 146.241C267.561 142.049 268.247 137.781 268.247 133.285C268.247 124.217 265.504 115.834 260.779 108.9V108.899ZM257.045 138.772C252.472 131.38 246.986 124.826 240.889 119.263C239.517 120.254 238.069 121.245 236.774 122.235C247.062 131.837 255.368 143.878 260.626 157.9C261.846 156.071 262.989 154.166 263.903 152.261C261.998 147.689 259.712 143.192 257.045 138.772ZM232.887 118.959C234.259 117.968 235.631 116.977 237.079 116.063C235.859 114.996 234.564 114.005 233.268 113.014C231.821 113.929 230.372 114.843 228.924 115.834H229.001C230.296 116.825 231.592 117.891 232.887 118.958V118.959ZM224.81 112.862C226.257 111.947 227.781 111.033 229.153 110.195C227.705 109.28 226.257 108.366 224.81 107.528C223.361 108.366 221.99 109.28 220.542 110.195C221.99 111.033 223.361 111.947 224.81 112.862ZM220.694 115.834C219.246 114.843 217.875 113.929 216.427 113.014L212.54 115.987C213.988 116.977 215.36 117.891 216.732 118.882C218.02 117.824 219.341 116.808 220.694 115.834ZM224.81 118.882C223.514 119.873 222.218 120.94 220.847 122.083C222.218 123.15 223.514 124.293 224.81 125.436C226.105 124.293 227.4 123.15 228.772 122.083C227.476 121.016 226.181 119.873 224.81 118.882ZM224.81 133.133C218.854 139.555 213.804 146.759 209.797 154.547C206.977 159.881 204.767 165.445 203.09 171.008C209.492 174.59 216.884 176.723 224.81 176.723C232.735 176.723 240.127 174.589 246.528 171.008C244.852 165.445 242.642 159.881 239.822 154.547C235.707 146.546 230.677 139.382 224.81 133.133ZM199.661 162.015C204.614 149.365 211.931 138.315 220.923 129.17C219.627 127.951 218.332 126.808 216.96 125.589C206.52 135.724 198.137 148.298 193.031 162.853C194.467 164.442 196.021 165.919 197.68 167.274C198.29 165.521 198.976 163.768 199.661 162.015ZM228.696 129.17C237.688 138.315 245.004 149.365 250.034 162.015C250.72 163.768 251.329 165.521 251.939 167.274C253.615 165.902 255.216 164.454 256.664 162.854C251.482 148.298 243.099 135.724 232.658 125.589C231.287 126.808 229.991 127.951 228.696 129.17V129.17ZM188.992 157.9C194.251 143.878 202.557 131.913 212.921 122.312C211.556 121.253 210.158 120.236 208.73 119.263C202.633 124.902 197.147 131.456 192.574 138.848C189.943 143.134 187.65 147.619 185.716 152.261C186.63 154.242 187.773 156.071 188.992 157.9ZM225.038 86.2659C251.863 86.2659 273.734 108.137 273.734 134.962C273.734 161.786 251.863 183.658 225.038 183.658C198.214 183.658 176.342 161.787 176.342 134.962C176.342 108.137 198.213 86.2659 225.038 86.2659ZM246.528 75.5968C245.157 77.1975 243.633 79.2549 242.108 82.5314C241.727 81.6935 241.727 80.703 241.955 79.636C242.337 76.1305 243.328 73.9967 245.157 71.0244C245.766 69.9579 246.376 69.0431 246.68 67.9001C247.823 64.4711 247.595 59.8986 245.08 56.3171C245.461 60.3558 244.242 63.7088 242.871 65.7662C242.642 66.1473 242.413 66.3759 242.108 66.681C240.66 68.1286 239.06 69.5767 237.002 72.9297C235.859 74.7585 234.716 76.9684 233.649 80.4739C233.192 79.7121 233.04 78.7977 233.116 77.7308C232.963 74.1488 233.573 71.9392 234.869 68.6623C235.326 67.5193 235.783 66.5284 235.935 65.3089C236.469 61.8034 235.555 57.3075 232.506 54.1827C233.497 58.0693 232.887 61.5749 231.821 63.8613C231.592 64.242 231.439 64.5471 231.211 64.8518C229.991 66.5285 228.696 68.2047 227.096 71.7862C226.334 73.8441 225.495 76.2066 225.038 79.7882C224.428 79.1024 224.123 78.188 224.047 77.121C223.361 73.6155 223.59 71.3295 224.352 67.9005C224.657 66.7571 224.962 65.6901 224.886 64.4706C224.886 60.8891 223.285 56.6217 219.78 53.9541C221.38 57.6882 221.304 61.2702 220.618 63.7087C220.466 64.0134 220.313 64.3946 220.161 64.6992C219.246 66.6045 218.179 68.4338 217.189 72.2439C216.732 74.3778 216.274 76.8924 216.35 80.4744C215.741 79.8647 215.284 79.0263 214.979 78.0354C213.759 74.6064 213.607 72.3965 213.912 68.8149C213.988 67.5954 214.064 66.5284 213.912 65.3854C213.302 61.8034 211.016 57.8407 207.206 55.7833C209.339 59.2123 209.797 62.7944 209.492 65.2329L209.263 66.3759C208.654 68.3573 207.891 70.3386 207.511 74.3013C207.358 76.4352 207.282 78.9498 207.968 82.5318C207.206 81.9981 206.672 81.2362 206.215 80.3218C204.462 77.121 204.005 74.9111 203.7 71.4056C203.624 70.1861 203.548 69.1196 203.09 67.9766C202.024 64.5471 199.128 60.9655 195.013 59.5935C197.68 62.5657 198.747 65.9948 198.747 68.5098C198.747 68.891 198.747 69.2716 198.67 69.6528C198.366 71.7102 197.985 73.8441 198.213 77.7308C198.442 79.8647 198.747 82.3792 199.966 85.8083C199.128 85.4276 198.442 84.7417 197.832 83.9034C195.623 81.0837 194.86 78.9503 194.022 75.5208C193.717 74.3013 193.489 73.3109 192.879 72.1679C191.278 69.0431 187.849 65.9187 183.582 65.1569C186.63 67.7475 188.23 71.0249 188.688 73.463C188.764 73.8441 188.764 74.2253 188.764 74.606C188.84 76.6638 188.764 78.7977 189.602 82.6843C190.135 84.7418 190.822 87.1803 192.574 90.3047C191.736 90.0761 190.974 89.5428 190.211 88.7805C187.544 86.3419 186.401 84.3606 185.106 81.0837C184.648 79.9407 184.191 78.9502 183.505 77.9594C181.372 75.1397 177.561 72.625 173.141 72.5485C176.647 74.6064 178.704 77.5022 179.543 79.8647L179.771 81.0077C180.152 83.0651 180.381 85.199 181.829 88.857C182.667 90.8384 183.81 93.1244 186.02 95.9445C185.106 95.868 184.267 95.4108 183.429 94.8011C180.457 92.8197 179.009 90.9909 177.104 88.0187C176.494 86.9522 175.961 86.0373 175.046 85.1989C172.532 82.6843 168.34 80.7791 163.997 81.3888C167.731 82.913 170.245 85.5036 171.465 87.714C171.617 88.0187 171.769 88.3998 171.922 88.7805C172.608 90.6858 173.141 92.7436 175.123 96.1726C176.266 98.0019 177.714 100.059 180.381 102.574C179.467 102.574 178.552 102.269 177.637 101.812C174.361 100.288 172.684 98.7638 170.398 96.0966C169.559 95.1822 168.874 94.3439 167.883 93.5816C164.987 91.5242 160.567 90.3047 156.376 91.6002C160.339 92.5146 163.234 94.6485 164.682 96.6299C164.987 96.935 165.14 97.2396 165.292 97.6208C166.283 99.4496 167.197 101.431 169.712 104.403C171.084 106.079 172.836 107.909 175.809 109.966C174.97 110.119 174.056 109.966 172.989 109.585C169.56 108.671 167.655 107.375 164.987 105.089C164.073 104.327 163.234 103.641 162.168 103.032C158.967 101.431 154.394 100.974 150.432 102.879C154.471 103.108 157.671 104.86 159.5 106.537C159.729 106.842 159.957 107.07 160.186 107.451C161.482 109.052 162.625 110.88 165.597 113.472C167.197 114.843 169.255 116.367 172.531 117.968C171.693 118.273 170.703 118.273 169.712 118.044C166.13 117.663 164.073 116.672 161.024 114.843C159.958 114.234 159.043 113.624 157.9 113.319C154.471 112.176 149.975 112.405 146.393 114.92C150.356 114.539 153.785 115.758 155.843 117.129C156.147 117.358 156.452 117.587 156.68 117.891C158.205 119.34 159.653 120.94 162.93 122.998C164.758 124.141 167.045 125.36 170.474 126.351C169.712 126.808 168.798 126.96 167.731 126.96C164.149 127.037 161.939 126.427 158.662 125.131C157.519 124.674 156.528 124.217 155.309 124.065C151.803 123.531 147.307 124.445 144.183 127.494C148.069 126.503 151.651 127.112 153.861 128.179C154.242 128.408 154.547 128.561 154.852 128.789C156.528 130.009 158.205 131.304 161.863 132.904C163.844 133.666 166.207 134.505 169.788 134.962C169.102 135.572 168.188 135.876 167.197 135.953C163.615 136.715 161.406 136.41 157.9 135.648C156.757 135.343 155.69 135.114 154.471 135.114C150.889 135.114 146.622 136.715 144.031 140.22C147.688 138.62 151.27 138.696 153.709 139.382C154.09 139.534 154.394 139.687 154.775 139.839C156.604 140.754 158.51 141.821 162.32 142.811C164.378 143.268 166.892 143.726 170.474 143.649C169.865 144.259 169.026 144.716 168.035 145.021C164.682 146.241 162.396 146.393 158.891 146.088C157.671 146.012 156.605 145.935 155.385 146.088C151.88 146.698 147.917 148.984 145.859 152.87C149.212 150.66 152.794 150.203 155.309 150.508C155.69 150.584 155.995 150.66 156.376 150.737C158.357 151.423 160.339 152.109 164.301 152.489C166.435 152.642 168.95 152.718 172.532 152.032C171.998 152.794 171.236 153.328 170.322 153.785C167.197 155.538 164.911 155.995 161.405 156.3C160.186 156.452 159.119 156.528 157.976 156.91C154.547 157.976 151.042 160.872 149.593 164.987C152.642 162.32 156.071 161.329 158.586 161.253C158.967 161.253 159.348 161.253 159.729 161.33C161.71 161.634 163.844 162.015 167.807 161.787C169.941 161.634 172.455 161.253 175.809 160.034C175.504 160.872 174.818 161.558 173.903 162.168C171.084 164.377 168.95 165.14 165.521 165.978C164.378 166.283 163.311 166.511 162.244 167.121C159.043 168.722 155.995 172.151 155.233 176.418C157.747 173.37 161.024 171.77 163.463 171.312C163.844 171.236 164.225 171.236 164.606 171.236C166.664 171.16 168.874 171.236 172.684 170.398C174.742 169.865 177.18 169.178 180.381 167.426C180.152 168.264 179.543 169.102 178.78 169.789C176.342 172.456 174.361 173.599 171.084 174.894C170.017 175.428 169.026 175.809 168.035 176.494C165.14 178.628 162.625 182.439 162.548 186.858C164.606 183.353 167.578 181.296 169.941 180.457C170.322 180.381 170.626 180.305 171.007 180.229C173.065 179.847 175.199 179.619 178.857 178.171C180.838 177.333 183.124 176.19 186.02 174.056C185.868 174.894 185.487 175.733 184.801 176.571C182.82 179.543 181.067 180.991 178.019 182.896C177.028 183.506 176.113 184.039 175.199 184.954C172.684 187.468 170.855 191.66 171.465 196.003C172.913 192.269 175.504 189.755 177.714 188.535C178.095 188.383 178.4 188.23 178.78 188.078C180.762 187.468 182.82 186.858 186.173 184.877C188.002 183.734 190.059 182.286 192.574 179.619C192.65 180.533 192.345 181.448 191.812 182.363C190.288 185.639 188.764 187.316 186.097 189.602C185.182 190.44 184.344 191.126 183.658 192.117C181.6 195.013 180.381 199.433 181.677 203.624C182.515 199.661 184.648 196.766 186.706 195.318C187.011 195.089 187.316 194.86 187.621 194.708C189.449 193.717 191.431 192.803 194.479 190.288C196.079 188.916 197.908 187.164 199.966 184.191C200.119 185.03 199.966 186.02 199.661 187.011C198.67 190.44 197.451 192.345 195.089 195.013C194.327 195.927 193.641 196.766 193.108 197.909C191.507 201.109 190.974 205.605 192.879 209.568C193.184 205.529 194.86 202.329 196.613 200.576C196.842 200.271 197.146 200.043 197.451 199.814C199.128 198.518 200.88 197.375 203.471 194.403C204.843 192.802 206.367 190.745 207.968 187.469C208.273 188.307 208.273 189.297 208.12 190.288C207.663 193.87 206.748 195.927 204.92 198.976C204.234 200.042 203.7 200.957 203.319 202.1C202.252 205.529 202.481 210.101 204.996 213.683C204.614 209.644 205.758 206.215 207.206 204.157C207.434 203.853 207.663 203.548 207.891 203.319C209.339 201.795 210.94 200.347 213.074 197.07C214.14 195.242 215.36 192.955 216.35 189.526C216.808 190.288 216.96 191.202 216.96 192.269C217.112 195.851 216.503 198.061 215.131 201.338C214.674 202.481 214.293 203.472 214.064 204.691C213.531 208.197 214.445 212.693 217.493 215.817C216.503 211.931 217.112 208.349 218.256 206.139C218.408 205.758 218.56 205.453 218.789 205.148C220.009 203.472 221.38 201.795 222.904 198.137C223.743 196.156 224.581 193.793 225.038 190.212C225.571 190.898 225.876 191.812 226.029 192.803C226.714 196.385 226.486 198.594 225.647 202.1C225.343 203.243 225.114 204.31 225.114 205.529C225.114 209.111 226.791 213.378 230.296 215.969C228.696 212.312 228.696 208.73 229.458 206.291C229.535 205.91 229.687 205.605 229.839 205.225C230.754 203.395 231.821 201.49 232.811 197.68C233.268 195.622 233.725 193.108 233.649 189.526C234.335 190.135 234.716 190.974 235.021 191.965C236.317 195.318 236.393 197.604 236.164 201.185C236.012 202.329 235.935 203.396 236.164 204.615C236.698 208.197 238.984 212.159 242.87 214.217C240.736 210.788 240.203 207.206 240.584 204.767C240.584 204.386 240.66 204.005 240.813 203.624C241.422 201.643 242.185 199.661 242.566 195.699C242.642 193.565 242.718 191.05 242.108 187.468C242.794 188.002 243.404 188.764 243.861 189.678C245.614 192.802 246.071 195.089 246.376 198.594C246.452 199.814 246.528 200.88 246.91 202.023C248.053 205.453 250.872 208.958 255.064 210.407C252.396 207.358 251.329 203.929 251.253 201.414C251.253 201.033 251.253 200.652 251.329 200.271C251.634 198.29 252.091 196.156 251.787 192.193C251.634 190.059 251.253 187.545 250.11 184.191C250.872 184.572 251.558 185.182 252.168 186.097C254.377 188.916 255.216 191.05 256.054 194.479C256.283 195.622 256.588 196.689 257.121 197.756C258.798 200.957 262.151 204.005 266.494 204.767C263.37 202.253 261.769 198.976 261.312 196.537C261.236 196.156 261.236 195.775 261.236 195.394C261.236 193.336 261.313 191.202 260.474 187.316C259.941 185.258 259.179 182.82 257.426 179.619C258.34 179.847 259.102 180.457 259.789 181.219C262.456 183.658 263.599 185.639 264.97 188.916C265.427 189.983 265.809 190.974 266.57 191.965C268.704 194.86 272.515 197.375 276.858 197.451C273.429 195.394 271.372 192.422 270.533 190.059C270.381 189.678 270.305 189.374 270.229 188.993C269.924 186.935 269.619 184.801 268.171 181.143C267.333 179.162 266.266 176.876 264.056 174.056C264.97 174.132 265.809 174.513 266.647 175.199C269.619 177.18 271.067 178.933 272.896 181.981C273.505 182.972 274.115 183.963 274.954 184.801C277.468 187.316 281.659 189.145 286.003 188.535C282.269 187.087 279.755 184.496 278.611 182.286C278.383 181.905 278.23 181.6 278.154 181.219C277.468 179.238 276.858 177.18 274.877 173.827C273.734 171.998 272.286 169.941 269.695 167.426C270.533 167.426 271.448 167.655 272.438 168.188C275.639 169.712 277.392 171.236 279.678 173.903C280.44 174.818 281.126 175.656 282.117 176.342C285.013 178.476 289.433 179.619 293.624 178.4C289.737 177.485 286.842 175.351 285.317 173.294C285.089 172.989 284.86 172.684 284.708 172.379C283.717 170.55 282.879 168.569 280.364 165.521C278.916 163.921 277.163 162.092 274.191 160.034C275.106 159.881 276.02 160.034 277.011 160.339C280.44 161.33 282.345 162.625 285.088 164.911C286.003 165.673 286.842 166.359 287.909 166.892C291.109 168.493 295.605 169.026 299.568 167.121C295.529 166.816 292.405 165.14 290.576 163.387C290.271 163.158 290.042 162.854 289.813 162.549C288.594 160.872 287.375 159.12 284.479 156.528C282.802 155.157 280.745 153.633 277.545 152.032C278.383 151.727 279.297 151.727 280.364 151.88C283.869 152.337 286.003 153.252 288.976 155.157C290.042 155.766 290.957 156.3 292.1 156.681C295.529 157.747 300.101 157.519 303.683 155.004C299.644 155.385 296.291 154.242 294.234 152.794L293.319 152.109C291.871 150.66 290.423 149.06 287.07 146.926C285.241 145.86 283.031 144.64 279.526 143.649C280.288 143.192 281.278 143.04 282.269 143.04C285.927 142.888 288.137 143.497 291.338 144.869C292.481 145.326 293.471 145.707 294.691 145.935C298.196 146.469 302.692 145.555 305.817 142.506C301.931 143.497 298.425 142.888 296.139 141.744C295.834 141.592 295.453 141.439 295.148 141.211C293.471 139.991 291.795 138.696 288.214 137.096C286.232 136.334 283.793 135.495 280.212 134.962C280.898 134.429 281.812 134.124 282.879 133.971C286.384 133.285 288.67 133.514 292.099 134.352C293.243 134.657 294.31 134.886 295.529 134.886C299.111 134.886 303.378 133.209 306.046 129.78C302.312 131.304 298.73 131.304 296.367 130.542C295.987 130.465 295.605 130.313 295.301 130.161C293.395 129.246 291.566 128.179 287.756 127.189C285.622 126.732 283.184 126.274 279.526 126.351C280.135 125.665 280.974 125.284 281.965 124.979C285.394 123.683 287.68 123.607 291.185 123.836C292.405 123.988 293.471 124.065 294.691 123.836C298.196 123.302 302.159 121.016 304.217 117.13C300.788 119.263 297.282 119.797 294.767 119.492C294.386 119.416 294.005 119.34 293.624 119.187C291.643 118.578 289.661 117.815 285.775 117.434C283.641 117.358 281.05 117.282 277.544 117.968C278.002 117.206 278.764 116.596 279.755 116.139C282.879 114.386 285.089 113.929 288.594 113.624C289.814 113.548 290.88 113.472 292.023 113.09C295.453 111.947 299.034 109.128 300.406 104.936C297.434 107.604 294.005 108.671 291.49 108.747C291.109 108.747 290.728 108.747 290.347 108.671C288.289 108.366 286.156 107.909 282.269 108.213C280.135 108.366 277.621 108.747 274.192 109.966C274.572 109.128 275.258 108.442 276.097 107.832C278.916 105.623 281.05 104.784 284.479 103.946C285.699 103.717 286.689 103.412 287.832 102.879C290.957 101.202 294.081 97.8493 294.843 93.5055C292.252 96.6298 289.052 98.2305 286.537 98.6877C286.156 98.7638 285.775 98.7638 285.394 98.7638C283.336 98.7638 281.202 98.6873 277.392 99.5261C275.258 100.059 272.82 100.821 269.695 102.574C269.924 101.66 270.457 100.898 271.219 100.211C273.658 97.5443 275.639 96.4013 278.916 95.0297C280.059 94.5725 281.05 94.1913 282.041 93.4295C284.86 91.2956 287.375 87.485 287.451 83.1416C285.394 86.5706 282.498 88.6284 280.135 89.4668C279.755 89.6189 279.373 89.6954 278.992 89.7714C276.935 90.1526 274.801 90.3811 271.143 91.8288C269.238 92.6671 266.952 93.7341 264.055 95.9441C264.132 95.1057 264.589 94.1913 265.199 93.353C267.18 90.3812 269.009 88.9331 271.981 87.1043C273.048 86.4945 273.963 85.8848 274.801 85.0464C277.316 82.5318 279.221 78.3405 278.611 73.9966C277.087 77.7307 274.496 80.2454 272.286 81.4649C271.981 81.6174 271.6 81.7695 271.295 81.846C269.314 82.5318 267.256 83.1416 263.827 85.1229C261.998 86.2659 259.941 87.714 257.426 90.3047C257.426 89.4668 257.731 88.5519 258.188 87.6375C259.712 84.3606 261.236 82.6843 263.903 80.3218C264.818 79.5595 265.656 78.8738 266.418 77.8829C268.476 74.9871 269.695 70.5672 268.4 66.3764C267.485 70.2626 265.351 73.1583 263.37 74.6825C263.065 74.9111 262.76 75.1396 262.379 75.2922C260.55 76.2826 258.569 77.121 255.597 79.636C253.921 81.0837 252.091 82.8365 250.11 85.8087C249.881 84.9704 250.033 83.9799 250.415 82.989C251.405 79.56 252.625 77.6547 254.911 74.9115C255.673 73.9967 256.435 73.2344 256.968 72.0914C258.569 68.891 259.026 64.3946 257.121 60.4319C256.892 64.4706 255.216 67.5954 253.463 69.4242C253.158 69.7289 252.93 69.9575 252.625 70.1865C250.948 71.406 249.119 72.625 246.528 75.5968Z" fill="#FFFF00"/>
</g>
</svg>
