<svg width="444" height="285" viewBox="0 0 444 285" fill="none" xmlns="http://www.w3.org/2000/svg">
<g id="KMH">
<path id="Vector" d="M444 0H0V284.16H444V0Z" fill="#032EA1"/>
<path id="Vector_2" d="M444 71.04H0V213.12H444V71.04Z" fill="#E00025"/>
<g id="Group 1750">
<g id="Group">
<g id="Group_2">
<g id="Group_3">
<path id="Vector_3" d="M181.344 133.058H262.187V164.166H181.344V133.058Z" fill="white"/>
<path id="Vector_4" d="M262.187 164.507H181.344L181.003 164.166V133.058L181.344 132.717H262.187L262.528 133.058V164.166L262.187 164.507ZM181.685 163.825H261.846V133.399H181.685V163.825Z" fill="black"/>
</g>
<g id="Group_4">
<path id="Vector_5" d="M260.568 150.235H258.017V161.95H260.568V150.235Z" fill="white"/>
<path id="Vector_6" d="M260.568 162.298H258.017L257.676 161.957V150.235L258.017 149.894H260.568L260.909 150.235V161.957L260.568 162.298ZM258.358 161.616H260.227V150.584H258.358V161.616Z" fill="black"/>
</g>
<g id="Group_5">
<path id="Vector_7" d="M262.187 144.446H181.344V148.062H262.187V144.446Z" fill="white"/>
<path id="Vector_8" d="M262.187 148.403H181.344L181.003 148.062V144.446L181.344 144.105H262.187L262.528 144.446V148.062L262.187 148.403ZM181.685 147.721H261.846V144.787H181.685V147.721Z" fill="black"/>
</g>
<g id="Group_6">
<path id="Vector_9" d="M262.187 139.544H181.344V142.734H262.187V139.544Z" fill="white"/>
<path id="Vector_10" d="M262.187 143.075H181.344L181.003 142.734V139.544L181.344 139.203H262.187L262.528 139.544V142.734L262.187 143.075ZM181.685 142.393H261.846V139.885H181.685V142.393Z" fill="black"/>
</g>
<g id="Group_7">
<path id="Vector_11" d="M262.187 134.649H181.344V137.739H262.187V134.649Z" fill="white"/>
<path id="Vector_12" d="M262.187 138.08H181.344L181.01 137.747V134.656L181.344 134.322H262.187L262.521 134.656V137.747L262.187 138.08ZM181.678 137.406H261.854V134.983H181.678V137.406Z" fill="black"/>
</g>
<g id="Group_8">
<path id="Vector_13" d="M205.178 150.235H202.627V161.95H205.178V150.235Z" fill="white"/>
<path id="Vector_14" d="M205.178 162.298H202.627L202.286 161.957V150.235L202.627 149.894H205.178L205.519 150.235V161.957L205.178 162.298ZM202.968 161.616H204.837V150.584H202.968V161.616Z" fill="black"/>
</g>
<g id="Group_9">
<path id="Vector_15" d="M239.98 150.235H237.43V161.95H239.98V150.235Z" fill="white"/>
<path id="Vector_16" d="M239.98 162.298H237.43L237.089 161.957V150.235L237.43 149.894H239.98L240.321 150.235V161.957L239.98 162.298ZM237.771 161.616H239.632V150.584H237.771V161.616Z" fill="black"/>
</g>
<g id="Group_10">
<path id="Vector_17" d="M184.533 150.235H181.983V161.95H184.533V150.235Z" fill="white"/>
<path id="Vector_18" d="M184.533 162.298H181.983L181.642 161.957V150.235L181.983 149.894H184.533L184.874 150.235V161.957L184.533 162.298ZM182.324 161.616H184.192V150.584H182.324V161.616Z" fill="black"/>
</g>
<g id="Group_11">
<path id="Vector_19" d="M189.528 150.235H186.977V161.95H189.528V150.235Z" fill="white"/>
<path id="Vector_20" d="M189.528 162.298H186.977L186.636 161.957V150.235L186.977 149.894H189.528L189.869 150.235V161.957L189.528 162.298ZM187.318 161.616H189.187V150.584H187.318V161.616Z" fill="black"/>
</g>
<g id="Group_12">
<path id="Vector_21" d="M194.856 150.235H192.305V161.95H194.856V150.235Z" fill="white"/>
<path id="Vector_22" d="M194.856 162.298H192.305L191.964 161.957V150.235L192.305 149.894H194.856L195.197 150.235V161.957L194.856 162.298ZM192.646 161.616H194.515V150.584H192.646V161.616Z" fill="black"/>
</g>
<g id="Group_13">
<path id="Vector_23" d="M200.184 150.235H197.633V161.95H200.184V150.235Z" fill="white"/>
<path id="Vector_24" d="M200.184 162.298H197.633L197.292 161.957V150.235L197.633 149.894H200.184L200.525 150.235V161.957L200.184 162.298ZM197.974 161.616H199.843V150.584H197.974V161.616Z" fill="black"/>
</g>
<g id="Group_14">
<path id="Vector_25" d="M244.811 150.235H242.261V161.95H244.811V150.235Z" fill="white"/>
<path id="Vector_26" d="M244.811 162.298H242.261L241.92 161.957V150.235L242.261 149.894H244.811L245.152 150.235V161.957L244.811 162.298ZM242.602 161.616H244.463V150.584H242.602V161.616Z" fill="black"/>
</g>
<g id="Group_15">
<path id="Vector_27" d="M250.139 150.235H247.589V161.95H250.139V150.235Z" fill="white"/>
<path id="Vector_28" d="M250.139 162.298H247.589L247.248 161.957V150.235L247.589 149.894H250.139L250.48 150.235V161.957L250.139 162.298ZM247.93 161.616H249.791V150.584H247.93V161.616Z" fill="black"/>
</g>
<g id="Group_16">
<path id="Vector_29" d="M255.467 150.235H252.917V161.95H255.467V150.235Z" fill="white"/>
<path id="Vector_30" d="M255.467 162.298H252.917L252.576 161.957V150.235L252.917 149.894H255.467L255.808 150.235V161.957L255.467 162.298ZM253.258 161.616H255.119V150.584H253.258V161.616Z" fill="black"/>
</g>
<g id="Group_17">
<path id="Vector_31" d="M149.724 165.8C150.974 165.161 152.402 163.683 152.871 162.021H290.028C290.497 163.683 291.918 165.161 293.168 165.8H149.724Z" fill="white"/>
<path id="Vector_32" d="M293.168 166.141H149.724L149.568 165.495C150.711 164.912 152.097 163.499 152.537 161.929L152.608 161.68H290.284L290.355 161.929C290.795 163.506 292.188 164.912 293.324 165.495L293.168 166.141ZM150.861 165.459H292.024C291.108 164.728 290.198 163.634 289.772 162.362H153.12C152.693 163.634 151.784 164.728 150.861 165.459Z" fill="black"/>
</g>
</g>
<g id="Group_18">
<g id="Group_19">
<g id="Group_20">
<path id="Vector_33" d="M219.691 85.7026C219.691 85.7026 219.592 82.7829 221.289 82.7474C222.994 82.7758 222.888 85.7026 222.888 85.7026H219.691Z" fill="white"/>
<path id="Vector_34" d="M223.215 86.0436H219.364L219.35 85.7168C219.35 85.6387 219.293 83.813 220.146 82.9108C220.451 82.584 220.835 82.4206 221.282 82.4064C221.744 82.4135 222.128 82.584 222.433 82.9108C223.286 83.8059 223.229 85.6387 223.229 85.7168L223.215 86.0436ZM220.032 85.3616H222.54C222.511 84.7862 222.376 83.8414 221.936 83.3796C221.758 83.1878 221.545 83.0955 221.282 83.0884C221.034 83.0955 220.821 83.1878 220.636 83.3796C220.196 83.8485 220.061 84.7862 220.032 85.3616Z" fill="black"/>
</g>
<g id="Group_21">
<path id="Vector_35" d="M210.818 124.448V120.512C210.761 118.544 208.858 118.402 208.801 116.967C208.801 116.967 208.552 114.815 209.12 113.834C209.888 116.712 211.294 116.179 211.294 115C211.294 113.969 210.499 113.01 208.872 110.503C208.353 109.7 208.673 107.192 209.405 106.297C209.689 108.478 210.008 109.522 210.946 109.522C211.514 109.522 211.983 109.153 211.983 108.059C211.983 106.667 211.046 105.97 210.577 104.706C210.037 103.228 210.406 101.722 211.308 100.884C211.692 103.036 211.578 103.896 212.537 103.896C214.463 103.285 212.537 100.493 212.125 99.7899C211.649 98.9658 212.765 97.3319 212.765 97.3319C213.376 99.2429 213.575 99.3991 214.235 99.2215C215.066 99.0013 214.96 97.7581 213.944 96.7636C213.305 96.1313 213.369 95.1936 214.058 94.4405C214.747 95.7974 215.635 95.7122 215.72 94.9094L215.166 91.7908H227.427L226.816 94.81C226.639 95.6767 227.811 95.8614 228.536 94.4477C229.225 95.2007 229.296 96.1455 228.649 96.7707C227.633 97.7723 227.527 99.0084 228.358 99.2286C229.019 99.4062 229.218 99.25 229.829 97.339C229.829 97.339 230.823 98.4543 230.468 99.797C230.056 100.5 228.131 103.292 230.056 103.903C231.015 103.903 230.894 103.044 231.285 100.891C232.18 101.729 232.556 103.235 232.017 104.713C231.555 105.977 230.61 106.681 230.61 108.066C230.61 109.16 231.079 109.529 231.647 109.529C232.585 109.529 232.905 108.485 233.189 106.304C233.92 107.199 234.24 109.714 233.722 110.51C232.095 113.018 231.299 113.977 231.299 115.007C231.299 116.186 232.699 116.719 233.473 113.842C234.041 114.822 233.793 116.974 233.793 116.974C233.736 118.409 231.832 118.552 231.775 120.519V124.455L210.818 124.448Z" fill="white"/>
<path id="Vector_36" d="M232.109 124.789H210.477V120.512C210.449 119.603 209.966 119.155 209.461 118.679C208.985 118.239 208.495 117.784 208.467 116.982C208.46 116.918 208.218 114.73 208.836 113.664L209.248 112.954L209.461 113.749C209.873 115.291 210.42 115.646 210.641 115.611C210.825 115.589 210.96 115.326 210.96 115.007C210.96 114.268 210.442 113.494 209.419 111.945C209.17 111.575 208.9 111.163 208.595 110.695C207.998 109.778 208.318 107.107 209.149 106.084L209.653 105.466L209.753 106.255C210.037 108.443 210.342 109.181 210.96 109.181C211.131 109.181 211.657 109.181 211.657 108.059C211.657 107.292 211.33 106.752 210.953 106.134C210.712 105.736 210.456 105.324 210.271 104.82C209.71 103.292 210.044 101.616 211.088 100.635L211.55 100.209L211.664 100.827C211.742 101.268 211.799 101.651 211.848 101.992C212.047 103.335 212.125 103.541 212.502 103.555C212.765 103.463 212.928 103.321 212.999 103.115C213.298 102.326 212.346 100.777 211.983 100.195L211.848 99.9675C211.28 98.9871 212.374 97.3319 212.495 97.1472L212.886 96.5647L213.099 97.2324C213.674 99.0298 213.788 98.9943 214.157 98.8948C214.313 98.8522 214.399 98.7669 214.441 98.6106C214.534 98.2696 214.342 97.6232 213.717 97.0051C212.957 96.2592 212.999 95.1084 213.816 94.2062L214.15 93.8438L214.37 94.2843C214.718 94.9663 215.088 95.1794 215.237 95.1439C215.315 95.1297 215.365 95.0231 215.386 94.9094L214.768 91.4427H227.854L227.165 94.8668C227.15 94.945 227.136 95.087 227.236 95.1226C227.435 95.1936 227.889 94.9734 228.244 94.2772L228.472 93.8367L228.806 94.199C229.63 95.1013 229.672 96.2521 228.912 96.998C228.287 97.6161 228.095 98.2625 228.188 98.6035C228.23 98.7527 228.315 98.8451 228.472 98.8877C228.841 98.9871 228.955 99.0156 229.53 97.2254L229.715 96.657L230.113 97.1046C230.155 97.1543 231.228 98.3762 230.823 99.8751L230.788 99.9604L230.646 100.188C230.29 100.77 229.338 102.319 229.63 103.107C229.708 103.313 229.871 103.456 230.127 103.548C230.504 103.534 230.575 103.328 230.781 101.985C230.83 101.651 230.887 101.26 230.965 100.82L231.079 100.202L231.534 100.628C232.578 101.609 232.905 103.292 232.351 104.812C232.166 105.317 231.91 105.729 231.669 106.127C231.292 106.745 230.965 107.278 230.965 108.052C230.965 109.174 231.491 109.174 231.661 109.174C232.28 109.174 232.585 108.435 232.869 106.247L232.969 105.459L233.473 106.077C234.304 107.1 234.624 109.764 234.027 110.687C233.722 111.156 233.452 111.568 233.203 111.938C232.173 113.486 231.661 114.261 231.661 115C231.661 115.319 231.796 115.582 231.981 115.603C232.223 115.646 232.748 115.284 233.16 113.742L233.374 112.947L233.786 113.657C234.404 114.723 234.162 116.903 234.148 116.996C234.119 117.77 233.629 118.225 233.153 118.665C232.642 119.141 232.159 119.589 232.137 120.505L232.109 124.789ZM211.159 124.107H231.427V120.512C231.463 119.297 232.13 118.679 232.663 118.182C233.089 117.784 233.423 117.479 233.445 116.96C233.487 116.562 233.537 115.703 233.437 114.957C232.862 116.25 232.173 116.328 231.86 116.285C231.32 116.214 230.944 115.689 230.944 115.007C230.944 114.062 231.498 113.231 232.599 111.568C232.841 111.199 233.118 110.787 233.423 110.325C233.722 109.863 233.672 108.471 233.359 107.434C233.111 108.869 232.706 109.87 231.64 109.87C231.228 109.87 230.262 109.693 230.262 108.066C230.262 107.107 230.674 106.432 231.065 105.786C231.292 105.416 231.526 105.033 231.683 104.592C232.052 103.583 231.967 102.497 231.484 101.694C231.463 101.836 231.441 101.971 231.42 102.092C231.221 103.427 231.1 104.237 230.042 104.237L229.942 104.223C229.445 104.067 229.118 103.775 228.962 103.356C228.55 102.255 229.552 100.621 230.035 99.8396L230.141 99.662C230.283 99.0582 230.113 98.5041 229.921 98.1204C229.481 99.3779 229.14 99.797 228.266 99.5555C227.875 99.4489 227.605 99.1789 227.499 98.7882C227.321 98.1275 227.676 97.2324 228.408 96.522C228.813 96.1242 228.855 95.5772 228.557 95.0444C228.046 95.7335 227.42 95.9182 226.994 95.769C226.589 95.6269 226.383 95.2149 226.483 94.739L227.008 92.1318H215.571L216.061 94.8881V94.9379C216.011 95.4067 215.741 95.7406 215.358 95.8116C214.903 95.8969 214.434 95.6127 214.029 95.0515C213.731 95.5772 213.781 96.1242 214.179 96.522C214.903 97.2324 215.258 98.1204 215.081 98.7882C214.981 99.1789 214.704 99.4489 214.313 99.5555C213.447 99.7899 213.106 99.3921 212.672 98.1702C212.424 98.6888 212.225 99.3068 212.41 99.6265L212.537 99.8396C213.021 100.621 214.022 102.255 213.61 103.356C213.454 103.775 213.12 104.067 212.63 104.223L212.523 104.237C211.465 104.237 211.344 103.427 211.145 102.092C211.124 101.964 211.11 101.836 211.088 101.694C210.612 102.497 210.52 103.583 210.889 104.592C211.053 105.04 211.287 105.416 211.507 105.786C211.905 106.432 212.31 107.1 212.31 108.066C212.31 109.693 211.344 109.87 210.932 109.87C209.866 109.87 209.461 108.876 209.213 107.441C208.893 108.478 208.851 109.87 209.149 110.332C209.454 110.794 209.724 111.206 209.966 111.575C211.067 113.238 211.621 114.069 211.621 115.014C211.621 115.696 211.245 116.229 210.705 116.292C210.392 116.335 209.703 116.25 209.128 114.957C209.028 115.696 209.078 116.555 209.12 116.932C209.142 117.472 209.476 117.784 209.902 118.182C210.435 118.679 211.102 119.297 211.138 120.505V124.107H211.159Z" fill="black"/>
</g>
<g id="Group_22">
<path id="Vector_37" d="M215.947 91.7553L215.663 89.5388H226.916L226.632 91.7553H215.947Z" fill="white"/>
<path id="Vector_38" d="M226.93 92.0963H215.649L215.28 89.1978H227.307L226.93 92.0963ZM216.246 91.4143H226.333L226.532 89.8727H216.054L216.246 91.4143Z" fill="black"/>
</g>
<g id="Group_23">
<path id="Vector_39" d="M216.7 89.4891L216.459 87.6633H226.12L225.879 89.4891H216.7Z" fill="white"/>
<path id="Vector_40" d="M226.177 89.8301H216.402L216.068 87.3224H226.511L226.177 89.8301ZM216.999 89.1481H225.58L225.73 88.0044H216.85L216.999 89.1481Z" fill="black"/>
</g>
<g id="Group_24">
<path id="Vector_41" d="M218.235 87.5994L218.072 85.7737H224.508L224.344 87.5994H218.235Z" fill="white"/>
<path id="Vector_42" d="M224.657 87.9405H217.922L217.702 85.4327H224.884L224.657 87.9405ZM218.548 87.2585H224.039L224.138 86.1147H218.448L218.548 87.2585Z" fill="black"/>
</g>
<g id="Group_25">
<path id="Vector_43" d="M241.692 165.8C240.25 165.246 238.154 163.726 238.154 162.199V144.936L240.03 142.549H202.535L204.332 144.936V162.199C204.332 163.726 202.89 165.246 201.455 165.8H241.692Z" fill="white"/>
<path id="Vector_44" d="M241.692 166.141H201.455L201.334 165.481C202.613 164.99 203.998 163.591 203.998 162.199V145.049L201.86 142.208H240.74L238.503 145.049V162.191C238.503 163.499 240.428 164.941 241.82 165.473L241.692 166.141ZM202.755 165.459H240.271C239.014 164.671 237.814 163.463 237.814 162.199V144.822L239.327 142.897H203.217L204.673 144.829V162.206C204.673 163.456 203.821 164.671 202.755 165.459Z" fill="black"/>
</g>
<g id="Group_26">
<path id="Vector_45" d="M211.756 150.235H209.206V161.95H211.756V150.235Z" fill="white"/>
<path id="Vector_46" d="M211.756 162.298H209.206L208.865 161.957V150.235L209.206 149.894H211.756L212.097 150.235V161.957L211.756 162.298ZM209.547 161.616H211.415V150.584H209.547V161.616Z" fill="black"/>
</g>
<g id="Group_27">
<path id="Vector_47" d="M233.295 150.235H230.745V161.95H233.295V150.235Z" fill="white"/>
<path id="Vector_48" d="M233.295 162.298H230.745L230.404 161.957V150.235L230.745 149.894H233.295L233.636 150.235V161.957L233.295 162.298ZM231.086 161.616H232.947V150.584H231.086V161.616Z" fill="black"/>
</g>
<g id="Group_28">
<path id="Vector_49" d="M201.867 122.906V133.314V138.294V142.556H240.243V138.322L240.3 122.906C238.73 123.524 238.453 124.945 238.453 124.945V133.314H203.821V124.945C203.821 124.945 203.437 123.524 201.867 122.906Z" fill="white"/>
<path id="Vector_50" d="M240.584 142.897H201.526V122.409L201.995 122.594C203.707 123.269 204.14 124.796 204.155 124.86L204.169 124.952V132.98H238.119V124.952C238.14 124.824 238.453 123.276 240.179 122.594L240.648 122.409L240.584 142.897ZM202.208 142.215H239.902V138.322L239.959 123.453C239 124.043 238.801 124.966 238.794 125.009V133.655H203.48V124.995C203.416 124.803 203.103 123.986 202.208 123.453V142.215Z" fill="black"/>
</g>
<g id="Group_29">
<path id="Vector_51" d="M235.036 165.8C233.778 165.246 231.05 163.726 231.05 162.199V142.883C231.32 141.803 232.784 141.171 233.721 140.496H208.275C209.483 141.135 210.839 141.668 211.315 142.883V162.199C211.315 163.726 209.156 165.246 207.898 165.8H235.036Z" fill="white"/>
<path id="Vector_52" d="M235.036 166.141H207.899L207.764 165.488C209.057 164.912 210.975 163.47 210.975 162.199V142.947C210.591 142.059 209.632 141.568 208.623 141.057C208.453 140.972 208.282 140.879 208.112 140.794L208.268 140.155H234.78L233.913 140.773C233.686 140.936 233.438 141.093 233.175 141.256C232.386 141.746 231.576 142.25 231.384 142.925V162.199C231.384 163.477 233.857 164.912 235.171 165.488L235.036 166.141ZM209.22 165.459H233.622C232.379 164.749 230.71 163.534 230.71 162.199L230.717 142.797C230.93 141.931 231.761 141.341 232.564 140.837H209.668C210.506 141.299 211.273 141.853 211.635 142.755L211.657 142.883V162.199C211.657 163.456 210.428 164.664 209.22 165.459Z" fill="black"/>
</g>
<g id="Group_30">
<path id="Vector_53" d="M238.453 140.702V126.785H234.965V125.428H207.373V126.785H203.885V140.702H238.453Z" fill="white"/>
<path id="Vector_54" d="M238.794 141.043H203.544V126.444H207.032V125.087H235.306V126.444H238.794V141.043ZM204.226 140.361H238.112V127.126H234.624V125.769H207.714V127.126H204.226V140.361Z" fill="black"/>
</g>
<g id="Group_31">
<path id="Vector_55" d="M229.537 165.8C228.308 165.246 226.518 163.726 226.518 162.199V145.703L227.527 144.204H214.96L215.968 145.703V162.199C215.968 163.726 214.178 165.246 212.949 165.8H229.537Z" fill="white"/>
<path id="Vector_56" d="M229.537 166.141H212.949L212.807 165.488C213.987 164.955 215.628 163.513 215.628 162.199V145.81L214.321 143.863H228.173L226.866 145.81V162.199C226.866 163.513 228.5 164.955 229.686 165.488L229.537 166.141ZM214.193 165.459H228.294C227.214 164.671 226.177 163.456 226.177 162.199V145.604L226.888 144.552H215.599L216.31 145.604V162.199C216.31 163.456 215.272 164.671 214.193 165.459Z" fill="black"/>
</g>
<g id="Group_32">
<path id="Vector_57" d="M218.064 144.211H224.437V165.793H218.064V144.211Z" fill="white"/>
<path id="Vector_58" d="M224.778 166.141H217.716V143.863H224.785V166.141H224.778ZM218.413 165.445H224.081V144.559H218.413V165.445Z" fill="black"/>
</g>
<g id="Group_33">
<path id="Vector_59" d="M227.776 139.466C227.79 138.045 231.924 137.981 234.048 136.773H208.51C210.634 137.981 214.676 138.08 214.676 139.466L215.542 142.222L226.113 142.648L227.776 139.466Z" fill="white"/>
<path id="Vector_60" d="M226.092 142.989L215.521 142.563L215.209 142.322L214.328 139.459C214.328 138.904 212.864 138.521 211.571 138.18C210.428 137.882 209.248 137.576 208.339 137.057L208.51 136.418H234.048L234.219 137.057C233.31 137.576 232.109 137.882 230.944 138.173C229.623 138.507 228.124 138.883 228.117 139.466L228.081 139.622L226.419 142.805L226.092 142.989ZM215.791 141.895L225.907 142.3L227.442 139.373C227.534 138.336 229.04 137.96 230.781 137.519C231.292 137.391 231.811 137.263 232.301 137.114H210.236C210.726 137.263 211.238 137.398 211.742 137.533C213.468 137.981 214.96 138.372 215.01 139.416L215.791 141.895Z" fill="black"/>
</g>
<g id="Group_34">
<path id="Vector_61" d="M232.77 124.448C232.77 120.967 232.919 119.624 233.984 119.624V130.692C231.363 131.644 229.488 134.99 229.488 134.99H212.999C212.999 134.99 211.131 131.644 208.502 130.692V119.624C209.824 119.624 209.831 121.024 209.831 124.448H232.77Z" fill="white"/>
<path id="Vector_62" d="M229.488 135.331H212.8L212.701 135.154C212.68 135.118 210.861 131.907 208.389 131.012L208.161 130.934V119.283H208.502C210.115 119.283 210.172 120.796 210.172 124.107H232.422C232.429 121.024 232.542 119.283 233.977 119.283H234.318V130.934L234.091 131.012C231.619 131.907 229.8 135.125 229.779 135.154L229.679 135.331H229.488ZM213.198 134.649H229.296C229.715 133.953 231.37 131.41 233.643 130.458V120.079C233.231 120.427 233.111 121.599 233.111 124.441V124.782H209.497V124.441C209.497 121.507 209.461 120.299 208.85 120.029V130.458C211.124 131.41 212.779 133.953 213.198 134.649Z" fill="black"/>
</g>
<g id="Group_35">
<path id="Vector_63" d="M233.984 123.02C233.984 119.028 237.43 118.58 237.43 118.58V122.132C236.116 122.075 235.483 123.254 235.483 125.002C235.483 126.757 236.542 126.785 236.542 126.785V136.866H233.984V123.02Z" fill="white"/>
<path id="Vector_64" d="M236.883 137.207H233.643V123.02C233.643 118.779 237.352 118.246 237.387 118.239L237.771 118.189V122.487L237.416 122.473C237.025 122.459 236.719 122.565 236.478 122.8C236.059 123.198 235.831 123.986 235.831 125.002C235.831 126.373 236.535 126.437 236.563 126.444L236.883 126.465L236.89 126.785V137.207H236.883ZM234.325 136.525H236.201V127.048C235.789 126.892 235.142 126.416 235.142 125.002C235.142 123.773 235.441 122.842 236.002 122.302C236.3 122.011 236.67 121.848 237.089 121.798V118.999C236.243 119.241 234.325 120.122 234.325 123.013V136.525Z" fill="black"/>
</g>
<g id="Group_36">
<path id="Vector_65" d="M208.524 123.02C208.524 119.028 205.078 118.58 205.078 118.58V122.132C206.392 122.075 207.025 123.254 207.025 125.002C207.025 126.757 205.966 126.785 205.966 126.785V136.866H208.524V123.02Z" fill="white"/>
<path id="Vector_66" d="M208.865 137.207H205.625V126.451L205.959 126.444C205.98 126.444 206.684 126.373 206.684 125.002C206.684 123.979 206.456 123.198 206.037 122.8C205.789 122.565 205.483 122.459 205.1 122.473L204.744 122.487V118.189L205.128 118.239C205.164 118.246 208.872 118.779 208.872 123.02V137.207H208.865ZM206.307 136.525H208.183V123.02C208.183 120.107 206.265 119.241 205.419 119.006V121.805C205.838 121.855 206.201 122.018 206.506 122.31C207.067 122.85 207.366 123.78 207.366 125.009C207.366 126.423 206.719 126.892 206.307 127.055V136.525Z" fill="black"/>
</g>
</g>
<g id="Group_37">
<g id="Group_38">
<path id="Vector_67" d="M227.484 95.2362H215.315V95.8045H227.484V95.2362Z" fill="black"/>
</g>
<g id="Group_39">
<path id="Vector_68" d="M228.735 99.0369H213.873V99.6052H228.735V99.0369Z" fill="black"/>
</g>
<g id="Group_40">
<path id="Vector_69" d="M230.12 103.647H212.431V104.216H230.12V103.647Z" fill="black"/>
</g>
<g id="Group_41">
<path id="Vector_70" d="M231.91 109.281H210.925V109.849H231.91V109.281Z" fill="black"/>
</g>
<g id="Group_42">
<path id="Vector_71" d="M232.059 115.703H210.442V116.271H232.059V115.703Z" fill="black"/>
</g>
<g id="Group_43">
<path id="Vector_72" d="M238.453 136.596H203.885V137.278H238.453V136.596Z" fill="black"/>
</g>
<g id="Group_44">
<path id="Vector_73" d="M228.01 141.995H214.512V136.603H228.01V141.995ZM215.194 141.313H227.328V137.285H215.194V141.313Z" fill="black"/>
</g>
</g>
<g id="Group_45">
<g id="Group_46">
<path id="Vector_74" d="M213.248 126.508C215.372 129.058 215.173 133.385 215.152 135.935H227.47C227.449 133.385 227.25 129.058 229.374 126.508H213.248Z" fill="white"/>
<path id="Vector_75" d="M227.818 136.276H214.804L214.811 135.445C214.846 132.887 214.896 129.023 212.978 126.728L212.509 126.167H230.091L229.623 126.728C227.712 129.023 227.761 132.887 227.79 135.445L227.818 136.276ZM215.493 135.594H227.122V135.452C227.094 132.987 227.044 129.35 228.692 126.849H213.923C215.578 129.35 215.528 132.987 215.493 135.452V135.594Z" fill="black"/>
</g>
<g id="Group_47">
<path id="Vector_76" d="M220.174 97.2893L218.484 96.4226V93.9362C219.173 94.1422 219.947 94.2275 220.025 95.3286C220.267 93.7586 220.7 93.8368 221.382 93.2258C222.064 93.8368 222.497 93.7586 222.739 95.3286C222.817 94.2275 223.591 94.1422 224.281 93.9362V96.4226L222.59 97.2893H220.174Z" fill="white"/>
<path id="Vector_77" d="M222.668 97.6303H220.089L218.143 96.6286V93.4744L218.803 93.6662C219.173 93.7728 219.627 93.8936 219.947 94.2345C220.146 93.7515 220.409 93.5313 220.764 93.2755C220.885 93.1903 221.013 93.0908 221.155 92.97L221.382 92.764L221.609 92.97C221.751 93.0979 221.879 93.1903 222 93.2755C222.348 93.5313 222.618 93.7515 222.817 94.2345C223.144 93.8936 223.591 93.7728 223.961 93.6662L224.621 93.4744V96.6286L222.668 97.6303ZM220.252 96.9483H222.497L223.925 96.2095V94.3837C223.392 94.5471 223.108 94.7176 223.066 95.3499L222.391 95.3783C222.227 94.2985 222 94.128 221.588 93.8296C221.517 93.7799 221.446 93.7302 221.375 93.6662C221.304 93.7231 221.226 93.7799 221.162 93.8296C220.75 94.128 220.522 94.2985 220.359 95.3783L219.684 95.3499C219.642 94.7176 219.357 94.5471 218.825 94.3837V96.2095L220.252 96.9483Z" fill="black"/>
</g>
<g id="Group_48">
<path id="Vector_78" d="M220.06 101.367L217.254 99.4418V97.1543C218.235 97.3816 219.343 97.474 219.45 98.6816C219.791 96.9625 220.409 96.0674 221.375 95.3996C222.341 96.0674 222.959 96.9625 223.3 98.6816C223.406 97.474 224.508 97.3816 225.495 97.1543V99.4418L222.689 101.367H220.06Z" fill="white"/>
<path id="Vector_79" d="M222.803 101.708H219.954L216.913 99.6194V96.721L217.645 96.8844C218.242 97.0122 218.931 97.1614 219.364 97.6232C219.727 96.4937 220.288 95.7335 221.183 95.1084L221.375 94.9734L221.566 95.1084C222.462 95.7264 223.023 96.4865 223.385 97.6161C223.818 97.1543 224.508 97.0051 225.104 96.8773L225.836 96.7139V99.6123L222.803 101.708ZM220.167 101.026H222.597L225.168 99.2571V97.5735C224.273 97.7653 223.726 97.95 223.655 98.7101L222.98 98.7456C222.703 97.339 222.234 96.4723 221.389 95.8188C220.543 96.4723 220.075 97.339 219.798 98.7456L219.123 98.7101C219.052 97.95 218.505 97.7724 217.61 97.5735V99.2571L220.167 101.026Z" fill="black"/>
</g>
<g id="Group_49">
<path id="Vector_80" d="M219.862 107.725L216.636 104.891V101.523C217.766 101.857 219.038 101.992 219.158 103.768C219.549 101.239 220.26 99.932 221.375 98.9445C222.49 99.932 223.201 101.239 223.591 103.768C223.712 101.999 224.984 101.857 226.113 101.523V104.891L222.888 107.725H219.862Z" fill="white"/>
<path id="Vector_81" d="M223.023 108.066H219.734L216.295 105.047V101.069L216.736 101.196C216.857 101.232 216.977 101.268 217.098 101.296C217.787 101.488 218.597 101.708 219.08 102.404C219.485 100.721 220.124 99.5981 221.155 98.6888L221.382 98.4899L221.609 98.6888C222.639 99.5981 223.279 100.721 223.684 102.404C224.167 101.708 224.976 101.488 225.666 101.296C225.786 101.26 225.907 101.232 226.028 101.196L226.468 101.069V105.047L223.023 108.066ZM219.989 107.384H222.767L225.779 104.741V101.978C224.799 102.248 224.032 102.482 223.939 103.797L223.264 103.825C222.938 101.708 222.384 100.401 221.382 99.4205C220.38 100.408 219.833 101.715 219.499 103.825L218.824 103.797C218.732 102.482 217.965 102.248 216.984 101.978V104.741L219.989 107.384Z" fill="black"/>
</g>
<g id="Group_50">
<path id="Vector_82" d="M225.808 111.483L222.895 115.518H219.592L216.679 111.483H225.808Z" fill="white"/>
<path id="Vector_83" d="M223.066 115.859H219.414L216.004 111.142H226.468L223.066 115.859ZM219.762 115.177H222.717L225.14 111.824H217.34L219.762 115.177Z" fill="black"/>
</g>
<g id="Group_51">
<path id="Vector_84" d="M214.995 118.253C216.452 119.049 216.992 120.64 217.148 123.617H225.353C225.509 120.633 226.049 119.049 227.506 118.253H214.995Z" fill="white"/>
<path id="Vector_85" d="M225.673 123.958H216.821L216.807 123.631C216.651 120.626 216.111 119.248 214.832 118.544L214.995 117.905H227.506L227.669 118.544C226.383 119.248 225.85 120.626 225.694 123.631L225.673 123.958ZM217.468 123.276H225.026C225.154 121.23 225.495 119.617 226.49 118.594H216.004C216.999 119.624 217.34 121.237 217.468 123.276Z" fill="black"/>
</g>
<g id="Group_52">
<path id="Vector_86" d="M227.626 111.483V107.434C226.241 107.817 225.346 108.634 224.941 109.75C224.941 108.407 223.172 105.303 221.24 103.761C219.307 105.487 217.503 108.293 217.539 109.75C217.212 108.691 216.239 107.817 214.853 107.434V111.483H227.626Z" fill="white"/>
<path id="Vector_87" d="M227.626 111.824H214.861L214.52 111.483V107.434L214.953 107.107C215.99 107.391 216.843 107.96 217.382 108.691C217.908 107.029 219.499 104.862 221.013 103.505L221.453 103.491C223.108 104.812 224.572 107.121 225.09 108.72C225.63 107.945 226.461 107.398 227.534 107.1L227.967 107.427V111.476L227.626 111.824ZM215.202 111.142H227.278V107.903C226.277 108.279 225.588 108.954 225.261 109.863L224.6 109.75C224.6 108.549 223.009 105.736 221.254 104.216C219.435 105.928 217.858 108.499 217.887 109.743L217.219 109.849C216.956 108.997 216.217 108.293 215.202 107.903V111.142Z" fill="black"/>
</g>
<g id="Group_53">
<path id="Vector_88" d="M228.244 118.253V114.204C226.724 114.588 225.744 115.404 225.303 116.52C225.303 115.177 223.364 112.073 221.247 110.531C219.123 112.257 217.155 115.063 217.191 116.52C216.828 115.461 215.77 114.588 214.25 114.204V118.253H228.244Z" fill="white"/>
<path id="Vector_89" d="M228.244 118.594H214.257L213.916 118.253V114.204L214.342 113.87C215.507 114.161 216.452 114.751 217.034 115.511C217.588 113.842 219.35 111.632 221.034 110.261L221.453 110.247C223.286 111.59 224.913 113.934 225.452 115.539C226.042 114.737 226.958 114.168 228.159 113.863L228.585 114.197V118.246L228.244 118.594ZM214.598 117.912H227.903V114.659C226.774 115.035 225.985 115.717 225.623 116.641L224.962 116.513C224.962 115.312 223.193 112.478 221.261 110.957C219.251 112.669 217.503 115.255 217.539 116.498L216.878 116.619C216.587 115.753 215.748 115.035 214.605 114.651V117.912H214.598Z" fill="black"/>
</g>
<g id="Group_54">
<path id="Vector_90" d="M229.949 126.565V121.89C228.06 122.381 226.887 123.773 226.291 124.59C226.291 122.061 223.435 118.203 221.247 116.939C219.002 118.232 216.203 122.217 216.203 124.59C215.592 123.78 214.434 122.381 212.544 121.89V126.565H229.949Z" fill="white"/>
<path id="Vector_91" d="M229.949 126.906H212.545L212.204 126.565V121.89L212.63 121.564C214.143 121.954 215.209 122.885 215.955 123.745C216.473 121.223 219.038 117.827 221.077 116.648H221.418C223.478 117.834 226.028 121.173 226.539 123.73C227.52 122.608 228.628 121.876 229.864 121.564L230.29 121.89V126.565L229.949 126.906ZM212.886 126.224H229.608V122.352C228.472 122.75 227.47 123.553 226.568 124.796L225.95 124.597C225.95 122.324 223.35 118.672 221.247 117.344C219.187 118.651 216.544 122.359 216.544 124.597L215.933 124.803C215.315 123.986 214.349 122.878 212.886 122.359V126.224Z" fill="black"/>
</g>
<g id="Group_55">
<path id="Vector_92" d="M228.926 136.937V132.134C227.257 132.788 226.76 134.393 226.234 135.487C226.44 130.614 223.492 125.378 221.247 124.05C219.002 125.378 215.997 130.728 216.26 135.487C215.72 134.401 215.237 132.788 213.567 132.134V136.937H228.926Z" fill="white"/>
<path id="Vector_93" d="M213.568 137.278L213.227 136.937V132.134L213.695 131.815C214.86 132.269 215.486 133.143 215.933 133.996C216.26 129.414 219.059 124.938 221.076 123.752H221.425C223.456 124.952 226.206 129.35 226.554 134.003C227.001 133.143 227.633 132.269 228.806 131.815L229.274 132.134V136.937L228.934 137.278H213.568ZM213.909 132.681V136.596H228.585V132.674C227.612 133.257 227.165 134.251 226.767 135.139C226.689 135.31 226.618 135.473 226.539 135.63L225.893 135.466C226.092 130.749 223.286 125.833 221.247 124.448C219.144 125.876 216.345 130.941 216.601 135.459L215.954 135.63C215.869 135.459 215.784 135.274 215.699 135.083C215.301 134.223 214.86 133.25 213.909 132.681Z" fill="black"/>
</g>
<g id="Group_56">
<path id="Vector_94" d="M227.761 144.211V139.409C226.014 139.821 225.907 140.467 225.353 141.547C225.559 138.635 223.499 135.317 221.254 133.989C219.009 135.317 216.949 138.635 217.155 141.547C216.601 140.474 216.53 139.828 214.747 139.409V144.211H227.761Z" fill="white"/>
<path id="Vector_95" d="M228.102 144.552H214.399V138.976L214.818 139.075C215.997 139.352 216.509 139.736 216.85 140.24C217.205 137.491 219.158 134.82 221.076 133.69L221.247 133.591L221.417 133.69C223.343 134.827 225.289 137.505 225.644 140.254C225.992 139.743 226.511 139.352 227.676 139.075L228.095 138.976V144.552H228.102ZM215.081 143.87H227.42V139.856C226.412 140.169 226.206 140.588 225.843 141.334C225.786 141.455 225.722 141.576 225.659 141.704L225.012 141.526C225.204 138.784 223.25 135.686 221.247 134.393C219.244 135.686 217.29 138.784 217.489 141.526L216.842 141.704C216.764 141.561 216.7 141.419 216.636 141.291C216.288 140.567 216.089 140.162 215.074 139.856V143.87H215.081Z" fill="black"/>
</g>
</g>
</g>
<g id="tower 3">
<g id="Group_57">
<g id="Group_58">
<path id="Vector_96" d="M152.864 162.021V147.5C152.388 145.653 150.818 144.012 149.639 143.685V130.905L152.296 132.34L155.329 145.703V162.021H152.864Z" fill="white"/>
<path id="Vector_97" d="M155.677 162.362H152.53V147.543C152.068 145.824 150.598 144.303 149.553 144.012L149.305 143.941V130.337L152.601 132.12L155.677 145.71V162.362ZM153.205 161.68H154.988V145.746L151.997 132.568L149.98 131.474V143.437C151.201 143.927 152.715 145.547 153.198 147.408L153.212 147.493V161.68H153.205Z" fill="black"/>
</g>
<g id="Group_59">
<path id="Vector_98" d="M152.864 162.078V147.5C152.388 145.653 150.818 144.012 149.639 143.685V130.017C151.422 130.017 152.296 132.34 152.296 132.34L155.329 145.703V161.964L152.864 162.078Z" fill="white"/>
<path id="Vector_99" d="M152.523 162.433V147.543C152.061 145.824 150.591 144.304 149.546 144.012L149.298 143.941V129.669H149.639C151.635 129.669 152.58 132.113 152.615 132.212L155.67 145.696V162.277L152.523 162.433ZM149.98 143.444C151.201 143.934 152.715 145.554 153.198 147.415L153.212 147.5V161.723L154.995 161.637V145.746L151.969 132.418C151.969 132.418 151.28 130.664 149.987 130.394V143.444H149.98Z" fill="black"/>
</g>
<g id="Group_60">
<path id="Vector_100" d="M150.974 165.8C152.203 165.246 153.993 163.726 153.993 162.198V144.048L153.148 142.549H184.065L182.857 144.048V162.198C182.857 163.726 184.086 165.246 185.315 165.8H150.974Z" fill="white"/>
<path id="Vector_101" d="M185.322 166.141H150.974L150.832 165.488C152.011 164.955 153.652 163.513 153.652 162.198V144.14L152.565 142.215H184.782L183.205 144.176V162.206C183.205 163.605 184.377 165.005 185.464 165.495L185.322 166.141ZM152.217 165.459H184.178C183.262 164.671 182.523 163.456 182.523 162.198V143.927L183.361 142.89H153.738L154.334 143.955V162.191C154.334 163.456 153.297 164.671 152.217 165.459Z" fill="black"/>
</g>
<g id="Group_61">
<path id="Vector_102" d="M179.085 165.8C177.856 165.246 176.066 163.726 176.066 162.198V144.936L178.637 142.549H157.617L160.188 144.936V162.198C160.188 163.726 158.398 165.246 157.169 165.8H179.085Z" fill="white"/>
<path id="Vector_103" d="M179.085 166.141H157.169L157.027 165.488C158.206 164.955 159.847 163.513 159.847 162.198V145.085L156.75 142.208H179.504L176.407 145.085V162.198C176.407 163.513 178.04 164.955 179.227 165.488L179.085 166.141ZM158.412 165.459H177.842C176.762 164.671 175.725 163.456 175.725 162.198V144.787L177.77 142.89H158.49L160.536 144.787V162.198C160.529 163.456 159.492 164.671 158.412 165.459Z" fill="black"/>
</g>
<g id="Group_62">
<path id="Vector_104" d="M176.136 165.8C174.907 165.246 173.117 163.726 173.117 162.198V146.591L174.801 144.204H161.445L163.129 146.591V162.198C163.129 163.726 161.339 165.246 160.11 165.8H176.136Z" fill="white"/>
<path id="Vector_105" d="M176.136 166.141H160.11L159.968 165.488C161.147 164.955 162.788 163.513 162.788 162.198V146.705L160.792 143.87H175.462L173.465 146.705V162.198C173.465 163.513 175.099 164.955 176.286 165.488L176.136 166.141ZM161.353 165.459H174.893C173.813 164.671 172.776 163.456 172.776 162.198V146.484L174.14 144.545H162.099L163.463 146.484V162.198C163.47 163.456 162.433 164.671 161.353 165.459Z" fill="black"/>
</g>
<g id="Group_63">
<path id="Vector_106" d="M164.934 144.211H171.313V165.8H164.934V144.211Z" fill="white"/>
<path id="Vector_107" d="M171.654 166.141H164.593V143.87H171.654V166.141ZM165.275 165.459H170.972V144.552H165.275V165.459Z" fill="black"/>
</g>
<g id="Group_64">
<path id="Vector_108" d="M158.803 150.235H156.252V161.95H158.803V150.235Z" fill="white"/>
<path id="Vector_109" d="M158.803 162.298H156.252L155.911 161.957V150.235L156.252 149.894H158.803L159.144 150.235V161.957L158.803 162.298ZM156.593 161.616H158.462V150.583H156.593V161.616Z" fill="black"/>
</g>
<g id="Group_65">
<path id="Vector_110" d="M180.648 150.235H178.097V161.95H180.648V150.235Z" fill="white"/>
<path id="Vector_111" d="M180.648 162.298H178.097L177.756 161.957V150.235L178.097 149.894H180.648L180.989 150.235V161.957L180.648 162.298ZM178.438 161.616H180.307V150.583H178.438V161.616Z" fill="black"/>
</g>
<g id="Group_66">
<path id="Vector_112" d="M154.079 130.472H157.148V142.485H154.079V130.472Z" fill="white"/>
<path id="Vector_113" d="M157.147 142.826H154.079L153.738 142.485V130.472L154.079 130.131H157.147L157.488 130.472V142.485L157.147 142.826ZM154.42 142.144H156.806V130.813H154.42V142.144Z" fill="black"/>
</g>
<g id="Group_67">
<path id="Vector_114" d="M154.079 128.213H157.126V130.444H154.079V128.213Z" fill="white"/>
<path id="Vector_115" d="M157.126 130.785H154.079L153.738 130.444V128.213L154.079 127.872H157.126L157.467 128.213V130.444L157.126 130.785ZM154.42 130.103H156.785V128.554H154.42V130.103Z" fill="black"/>
</g>
<g id="Group_68">
<path id="Vector_116" d="M179.319 133.058H183.695V142.329H179.319V133.058Z" fill="white"/>
<path id="Vector_117" d="M183.695 142.698H179.319L178.95 142.329V133.058L179.319 132.688H183.695L184.065 133.058V142.329L183.695 142.698ZM179.689 141.966H183.326V133.427H179.689V141.966Z" fill="black"/>
</g>
<g id="Group_69">
<path id="Vector_118" d="M157.098 142.392V121.834C157.972 121.834 158.107 124.846 160.117 124.846C161.161 124.846 161.055 123.595 160.465 122.579C159.947 121.677 159.3 120.434 160.174 118.118C160.771 119.887 162.383 120.455 162.085 119.34C161.573 117.429 160.103 117.116 161.204 114.154C161.588 116.626 163.172 116.52 162.788 115.078C162.355 113.458 161.46 112.797 162.561 110.51C163.179 113.103 164.017 112.954 164.017 111.341C164.017 108.961 163.925 106.397 167.001 105.445C167.001 105.445 167.178 103.264 168.287 103.264C169.395 103.264 169.573 105.445 169.573 105.445C172.649 106.397 172.556 108.961 172.556 111.341C172.556 112.946 173.394 113.103 174.013 110.51C175.121 112.79 174.226 113.458 173.785 115.078C173.402 116.513 174.986 116.626 175.369 114.154C176.478 117.116 175 117.429 174.488 119.34C174.19 120.448 175.803 119.887 176.399 118.118C177.273 120.434 176.627 121.677 176.108 122.579C175.519 123.595 175.412 124.846 176.456 124.846C178.467 124.846 178.602 121.834 179.476 121.834V142.392H157.098Z" fill="white"/>
<path id="Vector_119" d="M179.838 142.733H156.75V121.493H157.098C157.659 121.493 157.936 122.068 158.263 122.736C158.668 123.567 159.122 124.505 160.117 124.505C160.394 124.505 160.465 124.384 160.494 124.341C160.664 124.043 160.529 123.375 160.167 122.75C159.549 121.684 158.966 120.349 159.854 117.997L160.188 117.102L160.494 118.004C160.842 119.042 161.524 119.532 161.779 119.567C161.779 119.539 161.772 119.489 161.758 119.425C161.609 118.871 161.367 118.452 161.133 118.047C160.586 117.102 160.074 116.214 160.884 114.026L161.339 112.804L161.538 114.097C161.715 115.241 162.142 115.674 162.348 115.745C162.412 115.767 162.433 115.753 162.44 115.745C162.497 115.696 162.547 115.497 162.454 115.17C162.355 114.801 162.227 114.474 162.106 114.168C161.701 113.131 161.346 112.236 162.255 110.368L162.674 109.508L162.895 110.439C163.172 111.611 163.449 112.009 163.562 112.129C163.612 112.023 163.676 111.781 163.676 111.348V111.149C163.676 108.847 163.669 106.247 166.688 105.196C166.773 104.557 167.107 102.93 168.294 102.93C169.473 102.93 169.807 104.557 169.899 105.196C172.918 106.247 172.911 108.847 172.911 111.149V111.348C172.911 111.781 172.975 112.023 173.025 112.129C173.146 112.009 173.416 111.611 173.693 110.439L173.913 109.508L174.332 110.368C175.234 112.236 174.886 113.131 174.481 114.168C174.361 114.481 174.233 114.801 174.133 115.17C174.048 115.497 174.098 115.696 174.155 115.745C174.162 115.753 174.183 115.767 174.247 115.745C174.453 115.674 174.879 115.241 175.057 114.097L175.256 112.804L175.71 114.026C176.527 116.207 176.009 117.102 175.462 118.047C175.227 118.452 174.986 118.864 174.837 119.425C174.822 119.489 174.815 119.539 174.815 119.567C175.071 119.532 175.753 119.042 176.101 118.004L176.407 117.102L176.74 117.997C177.628 120.349 177.046 121.684 176.428 122.75C176.066 123.375 175.931 124.043 176.101 124.334C176.129 124.377 176.193 124.498 176.478 124.498C177.472 124.498 177.927 123.56 178.332 122.729C178.658 122.061 178.936 121.485 179.497 121.485H179.838V142.733ZM157.439 142.052H179.163V122.615C179.085 122.757 179.014 122.913 178.95 123.034C178.509 123.943 177.905 125.187 176.485 125.187C176.051 125.187 175.703 125.009 175.519 124.682C175.156 124.05 175.447 123.098 175.845 122.416C176.229 121.748 176.79 120.782 176.364 119.063C175.831 119.923 175.078 120.384 174.574 120.235C174.282 120.15 174.034 119.844 174.19 119.262C174.361 118.615 174.638 118.139 174.879 117.72C175.27 117.053 175.59 116.484 175.398 115.404C175.163 115.923 174.844 116.278 174.474 116.406C174.183 116.506 173.899 116.449 173.693 116.257C173.416 115.994 173.338 115.539 173.48 114.999C173.586 114.587 173.728 114.232 173.849 113.92C174.147 113.16 174.382 112.57 174.084 111.568C173.757 112.478 173.373 112.911 172.94 112.861C172.677 112.833 172.236 112.591 172.236 111.355V111.156C172.236 108.833 172.244 106.638 169.494 105.786L169.274 105.715L169.253 105.487C169.203 104.876 168.905 103.619 168.308 103.619C167.711 103.619 167.413 104.876 167.363 105.487L167.342 105.715L167.122 105.786C164.372 106.638 164.372 108.833 164.379 111.156V111.355C164.379 112.591 163.939 112.833 163.676 112.861C163.236 112.911 162.852 112.478 162.532 111.568C162.234 112.57 162.468 113.167 162.767 113.92C162.888 114.232 163.03 114.587 163.136 114.999C163.278 115.539 163.2 115.994 162.923 116.257C162.717 116.449 162.433 116.506 162.142 116.406C161.772 116.278 161.453 115.923 161.218 115.404C161.026 116.491 161.346 117.053 161.737 117.72C161.978 118.139 162.255 118.615 162.426 119.262C162.582 119.844 162.326 120.15 162.042 120.235C161.538 120.384 160.785 119.93 160.252 119.063C159.833 120.782 160.387 121.748 160.771 122.416C161.168 123.098 161.46 124.057 161.097 124.689C160.906 125.016 160.565 125.194 160.131 125.194C158.71 125.194 158.107 123.951 157.666 123.041C157.609 122.92 157.531 122.764 157.453 122.622V142.052H157.439Z" fill="black"/>
</g>
<g id="Group_70">
<path id="Vector_120" d="M152.288 126.863V142.549H154.071V126.821C153.432 126.501 152.828 126.451 152.288 126.863Z" fill="white"/>
<path id="Vector_121" d="M154.412 142.89H151.947V126.7L152.082 126.6C152.686 126.139 153.404 126.11 154.228 126.529L154.412 126.622V142.89ZM152.629 142.208H153.73V127.041C153.198 126.821 152.857 126.906 152.629 127.041V142.208Z" fill="black"/>
</g>
<g id="Group_71">
<path id="Vector_122" d="M152.345 137.015C154.555 138.144 156.743 139.451 157.304 142.549H152.345V137.015Z" fill="white"/>
<path id="Vector_123" d="M157.709 142.89H152.004V136.454L152.501 136.709C154.881 137.924 157.062 139.281 157.638 142.492L157.709 142.89ZM152.686 142.208H156.885C156.309 139.8 154.604 138.592 152.686 137.576V142.208Z" fill="black"/>
</g>
<g id="Group_72">
<path id="Vector_124" d="M183.013 132.319V142.556H184.462V132.298C184.008 132.085 183.39 132.049 183.013 132.319Z" fill="white"/>
<path id="Vector_125" d="M184.796 142.897H182.665V132.149L182.807 132.049C183.326 131.68 184.1 131.758 184.597 131.992L184.796 132.085V142.897ZM183.354 142.215H184.121V132.532C183.851 132.454 183.567 132.447 183.354 132.525V142.215Z" fill="black"/>
</g>
<g id="Group_73">
<path id="Vector_126" d="M184.462 136.937C182.253 138.066 180.065 139.373 179.504 142.471H184.462V136.937Z" fill="white"/>
<path id="Vector_127" d="M184.803 142.812H179.099L179.17 142.407C179.745 139.203 181.926 137.846 184.306 136.624L184.803 136.368V142.812ZM179.923 142.13H184.114V137.498C182.203 138.521 180.505 139.721 179.923 142.13Z" fill="black"/>
</g>
</g>
<g id="Group_74">
<g id="Group_75">
<path id="Vector_128" d="M169.842 113.032L171.128 111.952V110.567C170.659 110.609 170.396 110.773 170.048 111.234C169.75 110.318 169.103 109.593 168.229 109.153C167.356 109.6 166.702 110.282 166.411 111.206C166.063 110.751 165.807 110.623 165.331 110.574V111.959L166.617 113.039H169.842V113.032Z" fill="white"/>
<path id="Vector_129" d="M169.963 113.373H166.496L164.99 112.108V110.183L165.367 110.218C165.757 110.254 166.042 110.353 166.297 110.567C166.66 109.842 167.271 109.245 168.073 108.833L168.23 108.755L168.386 108.833C169.189 109.245 169.793 109.842 170.162 110.595C170.432 110.361 170.709 110.254 171.093 110.218L171.469 110.183V112.108L169.963 113.373ZM166.752 112.691H169.721L170.794 111.788V110.993C170.645 111.064 170.51 111.199 170.332 111.433L169.935 111.952L169.736 111.334C169.487 110.574 168.976 109.948 168.237 109.536C167.484 109.963 166.986 110.552 166.745 111.305L166.546 111.923L166.148 111.405C165.971 111.177 165.843 111.057 165.686 110.986V111.796L166.752 112.691Z" fill="black"/>
</g>
<g id="Group_76">
<path id="Vector_130" d="M170.531 116.505L171.128 115.205V113.401C170.659 113.451 170.396 113.614 170.048 114.076C169.75 113.145 169.103 112.414 168.229 111.966C167.356 112.421 166.702 113.11 166.411 114.047C166.063 113.586 165.807 113.451 165.331 113.408V115.213L165.928 116.513L170.531 116.505Z" fill="white"/>
<path id="Vector_131" d="M170.752 116.846H165.722L164.997 115.205V113.025L165.374 113.06C165.765 113.096 166.049 113.195 166.304 113.415C166.667 112.676 167.278 112.08 168.08 111.661L168.237 111.582L168.393 111.661C169.196 112.073 169.8 112.684 170.169 113.444C170.439 113.209 170.716 113.103 171.1 113.067L171.476 113.032L171.448 115.355L170.752 116.846ZM166.155 116.164H170.318L170.794 115.134V113.841C170.645 113.913 170.51 114.047 170.332 114.289L169.935 114.815L169.736 114.182C169.487 113.408 168.976 112.776 168.237 112.357C167.484 112.783 166.986 113.387 166.745 114.154L166.546 114.786L166.148 114.261C165.971 114.026 165.843 113.905 165.686 113.834V115.134L166.155 116.164Z" fill="black"/>
</g>
<g id="Group_77">
<path id="Vector_132" d="M170.624 121.215L172.535 118.878V116.576C171.832 116.655 171.455 116.932 170.936 117.72C170.496 116.143 169.53 115.795 168.23 115.028C166.93 115.795 165.964 116.079 165.523 117.663C165.005 116.882 164.621 116.655 163.925 116.576V118.878L165.836 121.215H170.624Z" fill="white"/>
<path id="Vector_133" d="M170.787 121.556H165.686L163.591 118.999V116.193L163.967 116.235C164.6 116.307 165.019 116.505 165.424 116.953C165.885 115.944 166.638 115.532 167.484 115.056C167.669 114.957 167.86 114.85 168.059 114.729L168.23 114.63L168.4 114.729C168.571 114.829 168.734 114.921 168.89 115.014C169.778 115.518 170.56 115.958 171.036 117.003C171.462 116.513 171.874 116.307 172.492 116.235L172.869 116.193V118.999L170.787 121.556ZM166.006 120.874H170.46L172.194 118.757V116.996C171.831 117.116 171.569 117.372 171.221 117.905L170.808 118.53L170.61 117.813C170.269 116.576 169.587 116.193 168.564 115.617C168.457 115.554 168.343 115.497 168.237 115.433C168.095 115.518 167.953 115.596 167.818 115.667C166.837 116.207 166.191 116.569 165.864 117.763L165.665 118.487L165.253 117.862C164.891 117.315 164.642 117.102 164.28 116.996V118.772L166.006 120.874Z" fill="black"/>
</g>
<g id="Group_78">
<path id="Vector_134" d="M171.185 125.84C171.185 125.84 173.415 123.894 173.55 122.828V120.363C172.684 120.462 171.867 120.69 171.227 121.699C170.688 119.66 169.835 119.091 168.237 118.104C166.638 119.091 165.786 119.66 165.246 121.699C164.607 120.69 163.79 120.462 162.923 120.363V122.828C163.207 123.894 165.288 125.84 165.288 125.84H171.185Z" fill="white"/>
<path id="Vector_135" d="M171.313 126.181H165.153L165.054 126.089C164.834 125.883 162.894 124.043 162.596 122.913L162.582 122.828V119.979L162.965 120.022C163.704 120.107 164.471 120.292 165.111 120.967C165.686 119.34 166.56 118.729 168.059 117.813L168.237 117.699L168.414 117.813C169.906 118.736 170.787 119.347 171.362 120.967C172.009 120.292 172.769 120.107 173.508 120.022L173.891 119.979V122.828C173.742 124.036 171.646 125.89 171.412 126.103L171.313 126.181ZM165.423 125.499H171.057C171.888 124.76 173.131 123.439 173.209 122.785V120.761C172.513 120.889 171.973 121.166 171.519 121.883L171.099 122.544L170.901 121.791C170.417 119.979 169.721 119.432 168.237 118.509C166.752 119.432 166.056 119.979 165.573 121.791L165.374 122.544L164.955 121.883C164.5 121.166 163.96 120.889 163.264 120.761V122.778C163.498 123.546 164.812 124.917 165.423 125.499Z" fill="black"/>
</g>
<g id="Group_79">
<path id="Vector_136" d="M172.137 134.379C172.137 134.379 175.191 130.998 175.262 129.676V125.833C174.119 125.989 173.039 126.778 172.193 128.355C171.476 125.179 170.354 122.963 168.237 121.421C166.12 122.963 164.997 125.179 164.28 128.355C163.434 126.778 162.354 125.989 161.211 125.833V129.676C161.431 130.998 164.336 134.379 164.336 134.379H172.137Z" fill="white"/>
<path id="Vector_137" d="M172.286 134.72H164.173L164.074 134.599C163.768 134.244 161.097 131.104 160.87 129.733L160.863 125.442L161.254 125.499C162.362 125.655 163.349 126.33 164.138 127.481C164.926 124.462 166.12 122.544 168.031 121.151L168.23 121.002L168.429 121.151C170.34 122.544 171.526 124.462 172.322 127.481C173.11 126.337 174.098 125.655 175.206 125.499L175.596 125.442V129.676C175.525 131.09 172.705 134.251 172.385 134.606L172.286 134.72ZM164.493 134.038H171.988C173.139 132.745 174.879 130.507 174.922 129.662V126.259C173.977 126.529 173.146 127.304 172.492 128.525L172.059 129.335L171.86 128.44C171.135 125.243 170.048 123.254 168.237 121.855C166.425 123.254 165.338 125.243 164.614 128.44L164.415 129.335L163.981 128.525C163.328 127.311 162.497 126.536 161.552 126.259V129.676C161.708 130.586 163.64 133.029 164.493 134.038Z" fill="black"/>
</g>
<g id="Group_80">
<path id="Vector_138" d="M172.137 139.43C172.137 139.43 174.751 136.773 175.262 135.615V131.772C174.119 131.928 173.039 132.717 172.193 134.294C171.476 131.118 170.354 129.293 168.237 127.751C166.12 129.293 164.997 131.111 164.28 134.294C163.434 132.717 162.354 131.928 161.211 131.772V135.615C161.871 136.766 164.336 139.43 164.336 139.43H172.137Z" fill="white"/>
<path id="Vector_139" d="M172.279 139.771H164.187L164.088 139.665C163.989 139.558 161.594 136.965 160.92 135.793L160.877 135.715V131.395L161.268 131.452C162.383 131.609 163.363 132.283 164.159 133.434C164.898 130.678 166.027 128.966 168.052 127.495L168.251 127.346L168.45 127.495C170.467 128.966 171.604 130.671 172.343 133.434C173.131 132.291 174.119 131.609 175.227 131.452L175.618 131.395L175.589 135.764C175.057 136.958 172.506 139.565 172.393 139.679L172.279 139.771ZM164.486 139.089H171.995C172.755 138.308 174.488 136.432 174.922 135.544V132.198C173.977 132.468 173.146 133.243 172.492 134.464L172.059 135.274L171.86 134.379C171.192 131.417 170.169 129.655 168.237 128.192C166.304 129.662 165.281 131.424 164.614 134.379L164.415 135.274L163.981 134.464C163.328 133.25 162.497 132.475 161.552 132.198V135.523C162.163 136.532 164.031 138.592 164.486 139.089Z" fill="black"/>
</g>
<g id="Group_81">
<path id="Vector_140" d="M173.188 142.364C172.428 139.046 171.767 136.588 168.102 134.095C164.429 136.588 163.775 139.046 163.015 142.364H173.188Z" fill="white"/>
<path id="Vector_141" d="M173.614 142.705H162.582L162.681 142.286C163.399 139.153 164.024 136.453 167.91 133.811L168.102 133.683L168.293 133.811C172.179 136.453 172.804 139.153 173.522 142.286L173.614 142.705ZM163.441 142.023H172.762C172.023 138.862 171.284 136.738 168.102 134.507C164.912 136.731 164.18 138.862 163.441 142.023Z" fill="black"/>
</g>
<g id="Group_82">
<path id="Vector_142" d="M175.078 144.211V139.409C173.408 140.062 171.902 141.029 171.348 142.101C170.73 139.437 169.529 138.258 168.045 136.645C166.553 138.258 165.558 139.43 164.94 142.101C164.386 141.029 162.88 140.055 161.211 139.409V144.211H175.078Z" fill="white"/>
<path id="Vector_143" d="M175.419 144.552H160.863V138.904L161.325 139.089C162.866 139.693 164.081 140.474 164.784 141.298C165.416 139.103 166.368 137.952 167.782 136.418L168.031 136.148L168.521 136.681C169.75 138.009 170.83 139.174 171.476 141.306C172.187 140.481 173.401 139.7 174.943 139.096L175.412 138.911V144.552H175.419ZM161.545 143.87H174.737V139.92C173.21 140.588 172.073 141.448 171.654 142.265L171.228 143.089L171.014 142.186C170.446 139.757 169.388 138.606 168.038 137.157C166.695 138.627 165.828 139.757 165.26 142.186L165.047 143.089L164.621 142.265C164.202 141.448 163.065 140.588 161.538 139.92L161.545 143.87Z" fill="black"/>
</g>
</g>
</g>
<g id="tower 4">
<g id="Group_83">
<g id="Group_84">
<path id="Vector_144" d="M291.894 162.021V147.5C292.37 145.653 293.94 144.012 295.12 143.685V130.905L292.463 132.34L289.429 145.703V162.021H291.894Z" fill="white"/>
<path id="Vector_145" d="M289.081 162.362H292.228V147.543C292.69 145.824 294.16 144.303 295.205 144.012L295.453 143.941V130.337L292.157 132.12L289.081 145.71V162.362ZM291.553 161.68H289.77V145.746L292.761 132.568L294.778 131.474V143.437C293.557 143.927 292.043 145.547 291.56 147.408L291.546 147.493V161.68H291.553Z" fill="black"/>
</g>
<g id="Group_85">
<path id="Vector_146" d="M291.894 162.078V147.5C292.37 145.653 293.94 144.012 295.12 143.685V130.017C293.337 130.017 292.463 132.34 292.463 132.34L289.429 145.703V161.964L291.894 162.078Z" fill="white"/>
<path id="Vector_147" d="M292.235 162.433V147.543C292.697 145.824 294.168 144.304 295.212 144.012L295.46 143.941V129.669H295.119C293.123 129.669 292.178 132.113 292.143 132.212L289.088 145.696V162.277L292.235 162.433ZM294.778 143.444C293.557 143.934 292.043 145.554 291.56 147.415L291.546 147.5V161.723L289.763 161.637V145.746L292.789 132.418C292.789 132.418 293.478 130.664 294.771 130.394V143.444H294.778Z" fill="black"/>
</g>
<g id="Group_86">
<path id="Vector_148" d="M293.784 165.8C292.555 165.246 290.765 163.726 290.765 162.198V144.048L291.61 142.549H260.694L261.901 144.048V162.198C261.901 163.726 260.672 165.246 259.443 165.8H293.784Z" fill="white"/>
<path id="Vector_149" d="M259.436 166.141H293.784L293.926 165.488C292.747 164.955 291.106 163.513 291.106 162.198V144.14L292.193 142.215H259.976L261.553 144.176V162.206C261.553 163.605 260.381 165.005 259.294 165.495L259.436 166.141ZM292.541 165.459H260.58C261.496 164.671 262.235 163.456 262.235 162.198V143.927L261.397 142.89H291.02L290.424 143.955V162.191C290.424 163.456 291.461 164.671 292.541 165.459Z" fill="black"/>
</g>
<g id="Group_87">
<path id="Vector_150" d="M265.673 165.8C266.902 165.246 268.692 163.726 268.692 162.198V144.936L266.121 142.549H287.142L284.57 144.936V162.198C284.57 163.726 286.36 165.246 287.589 165.8H265.673Z" fill="white"/>
<path id="Vector_151" d="M265.673 166.141H287.589L287.731 165.488C286.552 164.955 284.911 163.513 284.911 162.198V145.085L288.008 142.208H265.254L268.352 145.085V162.198C268.352 163.513 266.718 164.955 265.531 165.488L265.673 166.141ZM286.346 165.459H266.917C267.996 164.671 269.034 163.456 269.034 162.198V144.787L266.988 142.89H286.268L284.222 144.787V162.198C284.229 163.456 285.266 164.671 286.346 165.459Z" fill="black"/>
</g>
<g id="Group_88">
<path id="Vector_152" d="M268.622 165.8C269.851 165.246 271.641 163.726 271.641 162.198V146.591L269.957 144.204H283.313L281.629 146.591V162.198C281.629 163.726 283.419 165.246 284.648 165.8H268.622Z" fill="white"/>
<path id="Vector_153" d="M268.622 166.141H284.648L284.79 165.488C283.611 164.955 281.97 163.513 281.97 162.198V146.705L283.966 143.87H269.296L271.293 146.705V162.198C271.293 163.513 269.659 164.955 268.472 165.488L268.622 166.141ZM283.405 165.459H269.865C270.945 164.671 271.982 163.456 271.982 162.198V146.484L270.618 144.545H282.659L281.295 146.484V162.198C281.288 163.456 282.325 164.671 283.405 165.459Z" fill="black"/>
</g>
<g id="Group_89">
<path id="Vector_154" d="M279.824 144.211H273.445V165.8H279.824V144.211Z" fill="white"/>
<path id="Vector_155" d="M273.104 166.141H280.166V143.87H273.104V166.141ZM279.484 165.459H273.786V144.552H279.484V165.459Z" fill="black"/>
</g>
<g id="Group_90">
<path id="Vector_156" d="M285.955 150.235H288.506V161.95H285.955V150.235Z" fill="white"/>
<path id="Vector_157" d="M285.955 162.298H288.506L288.847 161.957V150.235L288.506 149.894H285.955L285.614 150.235V161.957L285.955 162.298ZM288.165 161.616H286.296V150.583H288.165V161.616Z" fill="black"/>
</g>
<g id="Group_91">
<path id="Vector_158" d="M264.111 150.235H266.661V161.95H264.111V150.235Z" fill="white"/>
<path id="Vector_159" d="M264.11 162.298H266.661L267.002 161.957V150.235L266.661 149.894H264.11L263.769 150.235V161.957L264.11 162.298ZM266.32 161.616H264.451V150.583H266.32V161.616Z" fill="black"/>
</g>
<g id="Group_92">
<path id="Vector_160" d="M290.679 130.472H287.611V142.485H290.679V130.472Z" fill="white"/>
<path id="Vector_161" d="M287.611 142.826H290.68L291.021 142.485V130.472L290.68 130.131H287.611L287.27 130.472V142.485L287.611 142.826ZM290.339 142.144H287.952V130.813H290.339V142.144Z" fill="black"/>
</g>
<g id="Group_93">
<path id="Vector_162" d="M290.679 128.213H287.632V130.444H290.679V128.213Z" fill="white"/>
<path id="Vector_163" d="M287.632 130.785H290.68L291.021 130.444V128.213L290.68 127.872H287.632L287.291 128.213V130.444L287.632 130.785ZM290.339 130.103H287.973V128.554H290.339V130.103Z" fill="black"/>
</g>
<g id="Group_94">
<path id="Vector_164" d="M265.439 133.058H261.063V142.329H265.439V133.058Z" fill="white"/>
<path id="Vector_165" d="M261.063 142.698H265.439L265.808 142.329V133.058L265.439 132.688H261.063L260.693 133.058V142.329L261.063 142.698ZM265.07 141.966H261.432V133.427H265.07V141.966Z" fill="black"/>
</g>
<g id="Group_95">
<path id="Vector_166" d="M287.66 142.392V121.834C286.787 121.834 286.652 124.846 284.641 124.846C283.597 124.846 283.703 123.595 284.293 122.579C284.812 121.677 285.458 120.434 284.584 118.118C283.988 119.887 282.375 120.455 282.673 119.34C283.185 117.429 284.655 117.116 283.554 114.154C283.171 116.626 281.586 116.52 281.97 115.078C282.403 113.458 283.299 112.797 282.197 110.51C281.579 113.103 280.741 112.954 280.741 111.341C280.741 108.961 280.833 106.397 277.757 105.445C277.757 105.445 277.58 103.264 276.472 103.264C275.363 103.264 275.186 105.445 275.186 105.445C272.11 106.397 272.202 108.961 272.202 111.341C272.202 112.946 271.364 113.103 270.746 110.51C269.638 112.79 270.533 113.458 270.973 115.078C271.357 116.513 269.773 116.626 269.389 114.154C268.281 117.116 269.758 117.429 270.27 119.34C270.568 120.448 268.956 119.887 268.359 118.118C267.485 120.434 268.132 121.677 268.65 122.579C269.24 123.595 269.346 124.846 268.302 124.846C266.292 124.846 266.157 121.834 265.283 121.834V142.392H287.66Z" fill="white"/>
<path id="Vector_167" d="M264.92 142.733H288.008V121.493H287.66C287.099 121.493 286.822 122.068 286.495 122.736C286.09 123.567 285.636 124.505 284.641 124.505C284.364 124.505 284.293 124.384 284.264 124.341C284.094 124.043 284.229 123.375 284.591 122.75C285.209 121.684 285.792 120.349 284.904 117.997L284.57 117.102L284.264 118.004C283.916 119.042 283.234 119.532 282.979 119.567C282.979 119.539 282.986 119.489 283 119.425C283.149 118.871 283.391 118.452 283.625 118.047C284.172 117.102 284.684 116.214 283.874 114.026L283.419 112.804L283.22 114.097C283.043 115.241 282.616 115.674 282.41 115.745C282.346 115.767 282.325 115.753 282.318 115.745C282.261 115.696 282.211 115.497 282.304 115.17C282.403 114.801 282.531 114.474 282.652 114.168C283.057 113.131 283.412 112.236 282.503 110.368L282.084 109.508L281.863 110.439C281.586 111.611 281.309 112.009 281.196 112.129C281.146 112.023 281.082 111.781 281.082 111.348V111.149C281.082 108.847 281.089 106.247 278.07 105.196C277.985 104.557 277.651 102.93 276.464 102.93C275.285 102.93 274.951 104.557 274.859 105.196C271.84 106.247 271.847 108.847 271.847 111.149V111.348C271.847 111.781 271.783 112.023 271.733 112.129C271.612 112.009 271.342 111.611 271.065 110.439L270.845 109.508L270.426 110.368C269.524 112.236 269.872 113.131 270.277 114.168C270.397 114.481 270.525 114.801 270.625 115.17C270.71 115.497 270.66 115.696 270.604 115.745C270.596 115.753 270.575 115.767 270.511 115.745C270.305 115.674 269.879 115.241 269.701 114.097L269.502 112.804L269.048 114.026C268.231 116.207 268.749 117.102 269.296 118.047C269.531 118.452 269.772 118.864 269.922 119.425C269.936 119.489 269.943 119.539 269.943 119.567C269.687 119.532 269.005 119.042 268.657 118.004L268.352 117.102L268.018 117.997C267.13 120.349 267.712 121.684 268.33 122.75C268.693 123.375 268.828 124.043 268.657 124.334C268.629 124.377 268.565 124.498 268.28 124.498C267.286 124.498 266.831 123.56 266.426 122.729C266.1 122.061 265.823 121.485 265.261 121.485H264.92V142.733ZM287.319 142.052H265.595V122.615C265.673 122.757 265.744 122.913 265.808 123.034C266.249 123.943 266.853 125.187 268.273 125.187C268.707 125.187 269.055 125.009 269.24 124.682C269.602 124.05 269.311 123.098 268.913 122.416C268.529 121.748 267.968 120.782 268.394 119.063C268.927 119.923 269.68 120.384 270.184 120.235C270.476 120.15 270.724 119.844 270.568 119.262C270.397 118.615 270.12 118.139 269.879 117.72C269.488 117.053 269.168 116.484 269.36 115.404C269.595 115.923 269.914 116.278 270.284 116.406C270.575 116.506 270.859 116.449 271.065 116.257C271.342 115.994 271.42 115.539 271.278 114.999C271.172 114.587 271.03 114.232 270.909 113.92C270.611 113.16 270.376 112.57 270.675 111.568C271.001 112.478 271.385 112.911 271.818 112.861C272.081 112.833 272.522 112.591 272.522 111.355V111.156C272.522 108.833 272.514 106.638 275.264 105.786L275.484 105.715L275.505 105.487C275.555 104.876 275.853 103.619 276.45 103.619C277.047 103.619 277.345 104.876 277.395 105.487L277.416 105.715L277.636 105.786C280.386 106.638 280.386 108.833 280.379 111.156V111.355C280.379 112.591 280.819 112.833 281.082 112.861C281.522 112.911 281.906 112.478 282.226 111.568C282.524 112.57 282.29 113.167 281.991 113.92C281.87 114.232 281.728 114.587 281.622 114.999C281.48 115.539 281.558 115.994 281.835 116.257C282.041 116.449 282.325 116.506 282.616 116.406C282.986 116.278 283.305 115.923 283.54 115.404C283.732 116.491 283.412 117.053 283.021 117.72C282.78 118.139 282.503 118.615 282.332 119.262C282.176 119.844 282.432 120.15 282.716 120.235C283.22 120.384 283.973 119.93 284.506 119.063C284.925 120.782 284.371 121.748 283.987 122.416C283.59 123.098 283.298 124.057 283.661 124.689C283.852 125.016 284.193 125.194 284.627 125.194C286.048 125.194 286.651 123.951 287.092 123.041C287.149 122.92 287.227 122.764 287.305 122.622V142.052H287.319Z" fill="black"/>
</g>
<g id="Group_96">
<path id="Vector_168" d="M292.47 126.863V142.549H290.687V126.821C291.326 126.501 291.93 126.451 292.47 126.863Z" fill="white"/>
<path id="Vector_169" d="M290.346 142.89H292.811V126.7L292.676 126.6C292.072 126.139 291.354 126.11 290.53 126.529L290.346 126.622V142.89ZM292.129 142.208H291.028V127.041C291.56 126.821 291.901 126.906 292.129 127.041V142.208Z" fill="black"/>
</g>
<g id="Group_97">
<path id="Vector_170" d="M292.413 137.015C290.203 138.144 288.015 139.451 287.454 142.549H292.413V137.015Z" fill="white"/>
<path id="Vector_171" d="M287.049 142.89H292.754V136.454L292.257 136.709C289.877 137.924 287.696 139.281 287.12 142.492L287.049 142.89ZM292.072 142.208H287.873C288.449 139.8 290.154 138.592 292.072 137.576V142.208Z" fill="black"/>
</g>
<g id="Group_98">
<path id="Vector_172" d="M261.745 132.319V142.556H260.296V132.298C260.75 132.085 261.368 132.049 261.745 132.319Z" fill="white"/>
<path id="Vector_173" d="M259.962 142.897H262.093V132.149L261.951 132.049C261.432 131.68 260.658 131.758 260.161 131.992L259.962 132.085V142.897ZM261.404 142.215H260.637V132.532C260.907 132.454 261.191 132.447 261.404 132.525V142.215Z" fill="black"/>
</g>
<g id="Group_99">
<path id="Vector_174" d="M260.296 136.937C262.505 138.066 264.693 139.373 265.254 142.471H260.296V136.937Z" fill="white"/>
<path id="Vector_175" d="M259.955 142.812H265.659L265.588 142.407C265.013 139.203 262.832 137.846 260.452 136.624L259.955 136.368V142.812ZM264.835 142.13H260.644V137.498C262.555 138.521 264.253 139.721 264.835 142.13Z" fill="black"/>
</g>
</g>
<g id="Group_100">
<g id="Group_101">
<path id="Vector_176" d="M274.916 113.032L273.63 111.952V110.567C274.099 110.609 274.362 110.773 274.71 111.234C275.008 110.318 275.655 109.593 276.528 109.153C277.402 109.6 278.056 110.282 278.347 111.206C278.695 110.751 278.951 110.623 279.427 110.574V111.959L278.141 113.039H274.916V113.032Z" fill="white"/>
<path id="Vector_177" d="M274.795 113.373H278.262L279.768 112.108V110.183L279.391 110.218C279 110.254 278.716 110.353 278.46 110.567C278.098 109.842 277.487 109.245 276.684 108.833L276.528 108.755L276.372 108.833C275.569 109.245 274.965 109.842 274.596 110.595C274.326 110.361 274.049 110.254 273.665 110.218L273.289 110.183V112.108L274.795 113.373ZM278.006 112.691H275.036L273.964 111.788V110.993C274.113 111.064 274.248 111.199 274.425 111.433L274.823 111.952L275.022 111.334C275.271 110.574 275.782 109.948 276.521 109.536C277.274 109.963 277.771 110.552 278.013 111.305L278.212 111.923L278.61 111.405C278.787 111.177 278.915 111.057 279.071 110.986V111.796L278.006 112.691Z" fill="black"/>
</g>
<g id="Group_102">
<path id="Vector_178" d="M274.227 116.505L273.63 115.205V113.401C274.099 113.451 274.362 113.614 274.71 114.076C275.008 113.145 275.655 112.414 276.528 111.966C277.402 112.421 278.056 113.11 278.347 114.047C278.695 113.586 278.951 113.451 279.427 113.408V115.213L278.83 116.513L274.227 116.505Z" fill="white"/>
<path id="Vector_179" d="M274.006 116.846H279.036L279.76 115.205V113.025L279.384 113.06C278.993 113.096 278.709 113.195 278.453 113.415C278.091 112.676 277.48 112.08 276.677 111.661L276.521 111.582L276.365 111.661C275.562 112.073 274.958 112.684 274.589 113.444C274.319 113.209 274.042 113.103 273.658 113.067L273.282 113.032L273.31 115.355L274.006 116.846ZM278.603 116.164H274.44L273.964 115.134V113.841C274.113 113.913 274.248 114.047 274.425 114.289L274.823 114.815L275.022 114.182C275.271 113.408 275.782 112.776 276.521 112.357C277.274 112.783 277.771 113.387 278.013 114.154L278.212 114.786L278.61 114.261C278.787 114.026 278.915 113.905 279.071 113.834V115.134L278.603 116.164Z" fill="black"/>
</g>
<g id="Group_103">
<path id="Vector_180" d="M274.134 121.215L272.223 118.878V116.576C272.926 116.655 273.303 116.932 273.821 117.72C274.262 116.143 275.228 115.795 276.528 115.028C277.828 115.795 278.794 116.079 279.235 117.663C279.753 116.882 280.137 116.655 280.833 116.576V118.878L278.922 121.215H274.134Z" fill="white"/>
<path id="Vector_181" d="M273.971 121.556H279.071L281.167 118.999V116.193L280.79 116.235C280.158 116.307 279.739 116.505 279.334 116.953C278.872 115.944 278.119 115.532 277.274 115.056C277.089 114.957 276.897 114.85 276.699 114.729L276.528 114.63L276.358 114.729C276.187 114.829 276.024 114.921 275.867 115.014C274.979 115.518 274.198 115.958 273.722 117.003C273.296 116.513 272.884 116.307 272.266 116.235L271.889 116.193V118.999L273.971 121.556ZM278.752 120.874H274.297L272.564 118.757V116.996C272.926 117.116 273.189 117.372 273.537 117.905L273.949 118.53L274.148 117.813C274.489 116.576 275.171 116.193 276.194 115.617C276.301 115.554 276.414 115.497 276.521 115.433C276.663 115.518 276.805 115.596 276.94 115.667C277.92 116.207 278.567 116.569 278.894 117.763L279.093 118.487L279.505 117.862C279.867 117.315 280.116 117.102 280.478 116.996V118.772L278.752 120.874Z" fill="black"/>
</g>
<g id="Group_104">
<path id="Vector_182" d="M273.573 125.84C273.573 125.84 271.342 123.894 271.207 122.828V120.363C272.074 120.462 272.891 120.69 273.53 121.699C274.07 119.66 274.923 119.091 276.521 118.104C278.12 119.091 278.972 119.66 279.512 121.699C280.151 120.69 280.968 120.462 281.835 120.363V122.828C281.551 123.894 279.469 125.84 279.469 125.84H273.573Z" fill="white"/>
<path id="Vector_183" d="M273.445 126.181H279.604L279.704 126.089C279.924 125.883 281.863 124.043 282.162 122.913L282.176 122.828V119.979L281.792 120.022C281.054 120.107 280.286 120.292 279.647 120.967C279.072 119.34 278.198 118.729 276.699 117.813L276.521 117.699L276.344 117.813C274.852 118.736 273.971 119.347 273.395 120.967C272.749 120.292 271.989 120.107 271.25 120.022L270.866 119.979V122.828C271.016 124.036 273.111 125.89 273.346 126.103L273.445 126.181ZM279.334 125.499H273.701C272.87 124.76 271.627 123.439 271.548 122.785V120.761C272.245 120.889 272.785 121.166 273.239 121.883L273.658 122.544L273.857 121.791C274.34 119.979 275.037 119.432 276.521 118.509C278.006 119.432 278.702 119.979 279.185 121.791L279.384 122.544L279.803 121.883C280.258 121.166 280.798 120.889 281.494 120.761V122.778C281.26 123.546 279.945 124.917 279.334 125.499Z" fill="black"/>
</g>
<g id="Group_105">
<path id="Vector_184" d="M272.621 134.379C272.621 134.379 269.566 130.998 269.495 129.676V125.833C270.639 125.989 271.719 126.778 272.564 128.355C273.282 125.179 274.404 122.963 276.521 121.421C278.638 122.963 279.76 125.179 280.478 128.355C281.323 126.778 282.403 125.989 283.547 125.833V129.676C283.327 130.998 280.421 134.379 280.421 134.379H272.621Z" fill="white"/>
<path id="Vector_185" d="M272.472 134.72H280.585L280.684 134.599C280.989 134.244 283.661 131.104 283.888 129.733L283.895 125.442L283.504 125.499C282.396 125.655 281.409 126.33 280.62 127.481C279.832 124.462 278.638 122.544 276.727 121.151L276.528 121.002L276.329 121.151C274.418 122.544 273.232 124.462 272.436 127.481C271.648 126.337 270.66 125.655 269.552 125.499L269.161 125.442V129.676C269.232 131.09 272.053 134.251 272.372 134.606L272.472 134.72ZM280.265 134.038H272.77C271.619 132.745 269.879 130.507 269.836 129.662V126.259C270.781 126.529 271.612 127.304 272.266 128.525L272.699 129.335L272.898 128.44C273.623 125.243 274.71 123.254 276.521 121.855C278.333 123.254 279.42 125.243 280.144 128.44L280.343 129.335L280.776 128.525C281.43 127.311 282.261 126.536 283.206 126.259V129.676C283.05 130.586 281.117 133.029 280.265 134.038Z" fill="black"/>
</g>
<g id="Group_106">
<path id="Vector_186" d="M272.621 139.43C272.621 139.43 270.007 136.773 269.495 135.615V131.772C270.639 131.928 271.719 132.717 272.564 134.294C273.282 131.118 274.404 129.293 276.521 127.751C278.638 129.293 279.761 131.111 280.478 134.294C281.324 132.717 282.403 131.928 283.547 131.772V135.615C282.886 136.766 280.421 139.43 280.421 139.43H272.621Z" fill="white"/>
<path id="Vector_187" d="M272.479 139.771H280.57L280.67 139.665C280.769 139.558 283.163 136.965 283.838 135.793L283.881 135.715V131.395L283.49 131.452C282.375 131.609 281.394 132.283 280.599 133.434C279.86 130.678 278.73 128.966 276.706 127.495L276.507 127.346L276.308 127.495C274.29 128.966 273.154 130.671 272.415 133.434C271.626 132.291 270.639 131.609 269.531 131.452L269.14 131.395L269.168 135.764C269.701 136.958 272.252 139.565 272.365 139.679L272.479 139.771ZM280.272 139.089H272.763C272.003 138.308 270.27 136.432 269.836 135.544V132.198C270.781 132.468 271.612 133.243 272.266 134.464L272.699 135.274L272.898 134.379C273.566 131.417 274.589 129.655 276.521 128.192C278.453 129.662 279.476 131.424 280.144 134.379L280.343 135.274L280.776 134.464C281.43 133.25 282.261 132.475 283.206 132.198V135.523C282.595 136.532 280.727 138.592 280.272 139.089Z" fill="black"/>
</g>
<g id="Group_107">
<path id="Vector_188" d="M271.57 142.364C272.33 139.046 272.991 136.588 276.656 134.095C280.329 136.588 280.983 139.046 281.743 142.364H271.57Z" fill="white"/>
<path id="Vector_189" d="M271.144 142.705H282.176L282.077 142.286C281.359 139.153 280.734 136.453 276.848 133.811L276.656 133.683L276.464 133.811C272.579 136.453 271.953 139.153 271.236 142.286L271.144 142.705ZM281.316 142.023H271.996C272.735 138.862 273.474 136.738 276.656 134.507C279.846 136.731 280.578 138.862 281.316 142.023Z" fill="black"/>
</g>
<g id="Group_108">
<path id="Vector_190" d="M269.68 144.211V139.409C271.349 140.062 272.855 141.029 273.409 142.101C274.028 139.437 275.228 138.258 276.713 136.645C278.205 138.258 279.199 139.43 279.817 142.101C280.371 141.029 281.877 140.055 283.547 139.409V144.211H269.68Z" fill="white"/>
<path id="Vector_191" d="M269.339 144.552H283.895V138.904L283.433 139.089C281.892 139.693 280.677 140.474 279.974 141.298C279.341 139.103 278.389 137.952 276.976 136.418L276.727 136.148L276.237 136.681C275.008 138.009 273.928 139.174 273.282 141.306C272.571 140.481 271.356 139.7 269.815 139.096L269.346 138.911V144.552H269.339ZM283.213 143.87H270.021V139.92C271.548 140.588 272.685 141.448 273.104 142.265L273.53 143.089L273.743 142.186C274.312 139.757 275.37 138.606 276.72 137.157C278.063 138.627 278.929 139.757 279.498 142.186L279.711 143.089L280.137 142.265C280.556 141.448 281.693 140.588 283.22 139.92L283.213 143.87Z" fill="black"/>
</g>
</g>
</g>
<g id="Group_109">
<g id="Group_110">
<path id="Vector_192" d="M134.223 183.347H308.505V192.248H134.223V183.347Z" fill="white"/>
<path id="Vector_193" d="M308.846 192.589H133.882V183.006H308.846V192.589ZM134.564 191.907H308.164V183.688H134.564V191.907Z" fill="black"/>
</g>
<g id="Group_111">
<path id="Vector_194" d="M129.634 192.234H313.102V201.121H129.634V192.234Z" fill="white"/>
<path id="Vector_195" d="M313.443 201.462H129.293V191.893H313.443V201.462ZM129.975 200.78H312.761V192.575H129.975V200.78Z" fill="black"/>
</g>
<g id="Group_112">
<path id="Vector_196" d="M143.373 170.034H299.348V175.796H143.38L143.373 170.034Z" fill="white"/>
<path id="Vector_197" d="M299.696 176.137H143.039V169.693H299.696V176.137ZM143.721 175.455H299.014V170.375H143.721V175.455Z" fill="black"/>
</g>
<g id="Group_113">
<path id="Vector_198" d="M138.819 175.753H303.916V183.297H138.819V175.753Z" fill="white"/>
<path id="Vector_199" d="M304.257 183.638H138.478V175.412H304.257V183.638ZM139.16 182.956H303.575V176.094H139.16V182.956Z" fill="black"/>
</g>
<g id="Group_114">
<path id="Vector_200" d="M146.101 165.608H296.628V169.992H146.101V165.608Z" fill="white"/>
<path id="Vector_201" d="M296.968 170.34H145.76V165.267H296.968V170.34ZM146.442 169.651H296.286V165.949H146.442V169.651Z" fill="black"/>
</g>
<g id="Group_115">
<path id="Vector_202" d="M162.44 165.63H173.813V201.1H162.447L162.44 165.63Z" fill="white"/>
<path id="Vector_203" d="M174.183 201.477H162.071V165.26H174.183V201.477ZM162.809 200.731H173.437V165.999H162.809V200.731Z" fill="black"/>
</g>
<g id="Group_116">
<path id="Vector_204" d="M164.955 165.63H171.292V201.107H164.955V165.63Z" fill="white"/>
<path id="Vector_205" d="M171.661 201.477H164.585V165.26H171.661V201.477ZM165.324 200.731H170.915V165.999H165.324V200.731Z" fill="black"/>
</g>
<g id="Group_117">
<path id="Vector_206" d="M215.486 165.63H226.859V201.1H215.486V165.63Z" fill="white"/>
<path id="Vector_207" d="M227.229 201.477H215.116V165.26H227.229V201.477ZM215.855 200.731H226.483V165.999H215.855V200.731Z" fill="black"/>
</g>
<g id="Group_118">
<path id="Vector_208" d="M218.079 165.63H224.415V201.107H218.079V165.63Z" fill="white"/>
<path id="Vector_209" d="M224.785 201.477H217.709V165.26H224.785V201.477ZM218.448 200.731H224.039V165.999H218.448V200.731Z" fill="black"/>
</g>
<g id="Group_119">
<path id="Vector_210" d="M268.844 165.63H280.21V201.1H268.844V165.63Z" fill="white"/>
<path id="Vector_211" d="M280.587 201.477H268.474V165.26H280.587V201.477ZM269.213 200.731H279.841V165.999H269.213V200.731Z" fill="black"/>
</g>
<g id="Group_120">
<path id="Vector_212" d="M271.359 165.63H277.695V201.107H271.359V165.63Z" fill="white"/>
<path id="Vector_213" d="M278.065 201.477H270.989V165.26H278.065V201.477ZM271.728 200.731H277.319V165.999H271.728V200.731Z" fill="black"/>
</g>
</g>
<g id="Group_121">
<g id="Group_122">
<path id="Vector_214" d="M290.021 161.68H152.864V162.362H290.021V161.68Z" fill="black"/>
</g>
<g id="Group_123">
<path id="Vector_215" d="M171.405 196.987H164.841V196.305H171.405V196.987ZM171.405 192.547H164.841V191.865H171.405V192.547ZM171.405 188.107H164.841V187.425H171.405V188.107ZM171.405 183.667H164.841V182.985H171.405V183.667ZM171.405 179.227H164.841V178.545H171.405V179.227ZM171.405 174.787H164.841V174.105H171.405V174.787ZM171.405 170.347H164.841V169.665H171.405V170.347Z" fill="black"/>
</g>
<g id="Group_124">
<path id="Vector_216" d="M224.223 196.994H218.107V196.312H224.223V196.994ZM224.223 192.554H218.107V191.872H224.223V192.554ZM224.223 188.107H218.107V187.425H224.223V188.107ZM224.223 183.667H218.107V182.985H224.223V183.667ZM224.223 179.227H218.107V178.545H224.223V179.227ZM224.223 174.78H218.107V174.098H224.223V174.78ZM224.223 170.34H218.107V169.658H224.223V170.34Z" fill="black"/>
</g>
<g id="Group_125">
<path id="Vector_217" d="M277.809 196.987H271.245V196.305H277.809V196.987ZM277.809 192.547H271.245V191.865H277.809V192.547ZM277.809 188.107H271.245V187.425H277.809V188.107ZM277.809 183.667H271.245V182.985H277.809V183.667ZM277.809 179.227H271.245V178.545H277.809V179.227ZM277.809 174.787H271.245V174.105H277.809V174.787ZM277.809 170.347H271.245V169.665H277.809V170.347Z" fill="black"/>
</g>
</g>
</g>
</g>
</g>
</svg>
