<svg width="462" height="311" viewBox="0 0 462 311" fill="none" xmlns="http://www.w3.org/2000/svg">
<g id="KOR">
<g id="Group 1753">
<path id="Vector" d="M3 3H461V308.333H3V3Z" fill="white"/>
<g id="Group">
<path id="Vector_2" d="M295.513 198.01C318.898 162.932 309.419 115.539 274.342 92.1545C239.265 68.7696 191.872 78.2483 168.487 113.326C145.102 148.403 154.581 195.796 189.658 219.181C224.735 242.566 272.128 233.087 295.513 198.01Z" fill="#CD2E3A"/>
<path id="Vector_3" d="M168.487 113.326C162.872 121.748 160.833 132.056 162.818 141.982C164.803 151.908 170.65 160.638 179.072 166.253C187.495 171.868 197.803 173.907 207.729 171.922C217.654 169.937 226.385 164.09 232 155.668C237.615 147.245 246.346 141.398 256.272 139.413C266.197 137.428 276.505 139.467 284.928 145.082C293.35 150.697 299.197 159.428 301.182 169.354C303.167 179.279 301.128 189.587 295.513 198.01C284.283 214.854 266.822 226.548 246.97 230.519C227.119 234.489 206.503 230.411 189.658 219.181C172.813 207.951 161.119 190.49 157.149 170.638C153.179 150.786 157.257 130.17 168.487 113.326Z" fill="#0047A0"/>
</g>
<g id="Group_2">
<g id="Vector_4">
<path d="M107.62 238.586L123.498 228.001L107.62 238.586ZM321.977 95.6818L340.502 83.332L321.977 95.6818ZM356.38 72.7465L372.258 62.161L356.38 72.7465Z" fill="black"/>
<path d="M356.38 72.7465L372.258 62.161M107.62 238.586L123.498 228.001L107.62 238.586ZM321.977 95.6818L340.502 83.332L321.977 95.6818Z" stroke="white"/>
</g>
</g>
<path id="Vector_5" d="M131.201 38.995L88.8586 102.512L99.4448 109.569L141.787 46.052L131.201 38.995Z" fill="black"/>
<path id="Vector_6" d="M115.329 28.444L72.9873 91.9609L83.5735 99.018L125.916 35.501L115.329 28.444Z" fill="black"/>
<path id="Vector_7" d="M147.088 49.6315L104.746 113.148L115.332 120.205L157.674 56.6885L147.088 49.6315Z" fill="black"/>
<path id="Vector_8" d="M379.945 204.882L337.595 268.392L348.18 275.45L390.53 211.941L379.945 204.882Z" fill="black"/>
<path id="Vector_9" d="M364.11 194.278L321.76 257.788L332.345 264.846L374.694 201.337L364.11 194.278Z" fill="black"/>
<path id="Vector_10" d="M348.18 183.662L305.838 247.179L316.425 254.236L358.767 190.719L348.18 183.662Z" fill="black"/>
<path id="Vector_11" d="M323.527 209.248L319.998 214.541L372.929 249.826L376.457 244.533L323.527 209.248Z" fill="white"/>
<path id="Vector_12" d="M115.29 183.686L104.703 190.743L147.045 254.26L157.632 247.203L115.29 183.686Z" fill="black"/>
<path id="Vector_13" d="M99.4638 194.282L88.8777 201.339L131.22 264.856L141.806 257.799L99.4638 194.282Z" fill="black"/>
<path id="Vector_14" d="M83.5498 204.859L72.9636 211.917L115.306 275.433L125.892 268.376L83.5498 204.859Z" fill="black"/>
<path id="Vector_15" d="M348.206 28.4598L337.62 35.5168L379.962 99.0338L390.548 91.9768L348.206 28.4598Z" fill="black"/>
<path id="Vector_16" d="M316.466 49.6337L305.88 56.6907L348.222 120.208L358.808 113.151L316.466 49.6337Z" fill="black"/>
<path id="Vector_17" d="M332.323 39.014L321.738 46.071L364.08 109.58L374.665 102.523L332.323 39.014Z" fill="black"/>
<path id="Vector_18" d="M107.385 234.853L123.288 224.293L107.385 234.853ZM321.755 91.9187L340.266 79.5781L321.755 91.9187ZM356.105 69.0187L372.008 58.4592L356.105 69.0187Z" fill="black"/>
<path id="Vector_19" d="M109.167 237.525L105.668 232.245L121.571 221.686L125.07 226.966L109.167 237.525ZM323.473 94.591L319.974 89.3113L338.485 76.9707L341.984 82.2504L323.473 94.591ZM357.887 71.691L354.388 66.4113L370.291 55.8518L373.789 61.1315L357.887 71.691Z" fill="white"/>
</g>
<rect id="Rectangle 22" x="1.5" y="1.5" width="459" height="308" stroke="#D1D1D1" stroke-width="3"/>
</g>
</svg>
