<svg width="450" height="225" viewBox="0 0 450 225" fill="none" xmlns="http://www.w3.org/2000/svg">
<g id="LKA">
<path id="Vector" d="M0 0H450V225H0V0Z" fill="#FFBE29"/>
<path id="Vector_2" d="M21 21H138V204H21V21Z" fill="#EB7400"/>
<path id="Vector_3" d="M21 21H79.5V204H21V21Z" fill="#00534E"/>
<path id="Vector_4" d="M159 21H429V204H159V21Z" fill="#8D153A"/>
<path id="Vector_5" d="M188.346 168.456C188.346 168.456 185.863 173.637 183.12 175.748C179.057 178.876 170.725 178.65 167.188 182.3C162.951 186.603 167.517 192.288 167.479 192.781L167.247 195.783C167.247 195.783 170.104 195.819 171.307 196.011C173.116 196.3 173.822 197.809 177.189 197.585C185.658 197.022 185.316 189.201 185.795 182.517C186.221 179.973 187.205 176.655 187.764 174.111C188.243 171.929 188.345 168.456 188.345 168.456H188.346Z" fill="#FFBE29" stroke="black" stroke-width="2.096"/>
<g id="Group">
<g id="a">
<path id="Vector_6" d="M251.634 180.924L253.34 179.963L254.069 180.926C255.042 182.209 257.732 182.194 259.517 180.896L260.882 179.904L262.025 180.896C263.528 182.201 266.334 182.203 268.126 180.901C269.381 179.989 269.556 179.971 270.385 180.665C270.88 181.078 272.33 181.549 273.609 181.711C275.91 182.002 275.945 181.986 277.292 180.015C278.42 178.364 278.597 177.695 278.328 176.094C278.149 175.032 277.957 173.323 277.9 172.297C277.799 170.437 277.809 170.426 280.585 169.483C282.118 168.962 283.892 168.263 284.528 167.931C285.637 167.35 288.693 163.845 288.693 163.155C288.693 162.971 287.499 162.691 286.04 162.532C280.235 161.896 279.252 158.855 283.026 153.207C289.179 143.994 292.893 135.022 292.918 129.307C292.929 126.753 293.078 125.895 293.415 126.451C294.789 128.721 292.326 138.24 288.595 145.076L287.092 147.828L288.526 147.506C289.314 147.329 293.95 145.421 298.827 143.265C312.178 137.366 316.763 136.21 325.403 136.565C332.642 136.862 335.724 138.242 340.835 143.472C343.542 146.243 346.15 148.225 350.921 151.139C361.086 157.347 361.51 157.884 361.993 165.185C362.483 172.582 362.239 172.983 356.505 174.219C351.604 175.276 348.532 177.505 347.708 180.602C347.267 182.256 348.194 182.304 350.665 180.754L352.475 179.619L353.281 180.754C354.339 182.247 356.589 182.253 358.458 180.768L359.869 179.646L361.312 180.768C363.554 182.511 366.535 182.088 367.376 179.908C367.538 179.489 367.97 179.623 368.844 180.364C370.482 181.753 374.68 182.349 375.133 181.257C375.306 180.841 374.978 179.811 374.403 178.97C371.96 175.397 371.196 173.693 371.164 171.747C371.12 169.041 371.947 167.736 375.101 165.536C378.933 162.863 380.117 159.414 377.203 159.414C375.404 159.414 373.591 157.862 372.434 155.334C370.083 150.194 370.544 144.432 374.072 134.847C377.656 125.11 378.054 123.315 378.068 116.804C378.08 111.538 377.944 110.628 376.716 107.742C375.965 105.976 374.442 103.349 373.331 101.902L371.312 99.2714L373.905 97.1752C381.823 90.7744 380.204 80.2992 370.672 76.263C367.755 75.0286 367.027 74.9194 361.917 74.953C358.851 74.9733 354.176 75.3665 351.529 75.8274C348.829 76.2978 344.26 76.6754 341.125 76.688C336.146 76.7071 335.3 76.5876 333.381 75.591C331.38 74.5517 331.037 74.0584 330.645 71.6564C330.565 71.1627 330.211 70.6702 329.859 70.5617C329.179 70.3525 326.036 73.0142 325.571 74.1928C325.342 74.7747 325.155 74.7342 324.483 73.9588C324.037 73.4437 323.413 72.2601 323.098 71.3288C322.305 68.986 323.279 67.23 326.101 65.9143L328.29 64.8933L326.999 64.1113C324.335 62.4981 319.805 63.602 318.166 66.2629C317.703 67.0158 317.197 67.6328 317.043 67.6347C316.888 67.6359 316.007 66.9181 315.085 66.0387C311.645 62.7589 312.829 57.9072 317.43 56.4257C319.883 55.6357 322.054 56.2386 322.506 57.8346C323.196 60.2718 325.339 57.0683 324.955 54.1753C324.699 52.2521 324.738 52.1853 326.102 52.1853C327.999 52.1853 332.036 54.6144 333.285 56.5074C334.735 58.7052 334.63 62.1667 333.034 64.747L331.78 66.7726L333.42 66.4519C335.824 65.9822 338.16 64.5256 339.341 62.7593C340.59 60.8915 340.724 57.255 339.617 55.2929C338.543 53.391 338.667 53.089 340.253 53.7316C342.952 54.8248 344.395 56.0302 345.478 58.0962C346.452 59.9568 346.507 60.4191 345.979 62.3557C345.653 63.5508 344.929 65.1224 344.369 65.849C343.497 66.9799 343.468 67.1697 344.162 67.1697C345.456 67.1697 348.156 65.9754 349.116 64.9792C349.6 64.4756 350.307 63.2366 350.686 62.2251L351.374 60.3863L352.167 61.7876C353.286 63.77 355.462 65.5534 358.116 66.6634C360.97 67.8573 362.159 67.9245 360.666 66.8081C359.66 66.0548 357.806 60.7456 358.367 60.2263C358.698 59.9209 362.573 62.8296 366.997 66.705C371.182 70.3705 373.812 71.5717 377.656 71.5717C382.567 71.5717 385.426 67.4011 383.219 63.4576C381.932 61.1583 379.066 60.8391 377.39 62.8082C376.619 63.7135 376.407 64.4336 376.633 65.3835C376.909 66.5469 376.801 66.702 375.715 66.702C374.288 66.702 371.474 64.92 366.477 60.8521C358.858 54.6484 349.599 49.39 342.914 47.4694C338.624 46.2365 329.459 45.7554 325.098 46.534C320.377 47.3766 314.794 50.0123 311.753 52.834C306.364 57.8331 306.278 64.4859 311.526 70.5442L313.028 72.2799L312.011 73.8221C310.53 76.066 310.657 79.0854 312.325 81.3095C313.06 82.2893 313.801 83.0903 313.972 83.0896C314.143 83.0896 314.331 82.4596 314.389 81.6902C314.536 79.7441 315.392 78.4405 316.862 77.9243C318.185 77.4593 319.04 77.6788 325.099 80.0385C331.474 82.521 341.957 82.6917 353.103 80.4943C358.568 79.4172 365.011 79.4806 367.846 80.6394C373.043 82.7635 374.247 88.2895 370.427 92.4842C368.774 94.3001 367.179 95.0393 361.824 96.4734C357.75 97.5643 356.785 97.6368 347.524 97.5463C339.612 97.4696 336.769 97.6177 333.539 98.2756C330.033 98.9896 327.877 99.0621 317.577 98.8086L305.669 98.5157L306.989 99.5829C307.716 100.17 308.742 100.891 309.27 101.187C310.168 101.69 310.138 101.758 308.803 102.241C308.018 102.524 306.277 102.757 304.933 102.757H302.49L302.161 104.783C301.98 105.897 301.994 107.198 302.192 107.673C302.483 108.375 302.374 108.476 301.616 108.207C301.103 108.025 299.671 107.666 298.436 107.411C297.201 107.155 295.538 106.634 294.742 106.253C293.401 105.613 293.252 105.63 292.759 106.482C292.318 107.244 288.179 110.249 287.572 110.249C287.474 110.249 287.347 109.669 287.291 108.961C287.234 108.253 286.637 106.409 285.964 104.864C285.291 103.319 284.588 101.633 284.402 101.118C284.122 100.341 283.995 100.301 283.656 100.884C283.432 101.27 283.105 102.323 282.929 103.225C282.753 104.126 282.129 105.59 281.543 106.479L280.477 108.094L279.797 106.713C279.067 105.23 277.856 103.693 277.417 103.693C277.269 103.693 277.017 104.167 276.857 104.747C276.522 105.957 273.649 109.312 272.947 109.312C272.689 109.312 272.477 108.364 272.477 107.205C272.477 106.046 272.249 105.098 271.971 105.098C271.692 105.098 271.464 105.398 271.464 105.764C271.464 106.655 269.01 109.312 268.187 109.312C267.828 109.312 267.25 109.628 266.903 110.015C265.999 111.022 265.259 110.881 265.639 109.773C265.817 109.254 265.702 108.042 265.381 107.081L264.625 104.806C264.504 104.442 263.625 104.539 261.764 105.12C258.756 106.061 257.749 105.895 259.295 104.713C259.86 104.281 260.72 102.784 261.206 101.387C261.692 99.9896 262.408 98.7502 262.799 98.6322C263.345 98.4669 263.316 98.6711 262.672 99.5207C262.212 100.127 261.834 100.946 261.833 101.339C261.833 101.732 261.485 102.665 261.064 103.411C260.642 104.158 260.378 104.843 260.475 104.933C260.573 105.023 261.717 104.599 263.018 103.991L265.383 102.884L265.393 103.874C265.398 104.418 265.683 105.855 266.026 107.066L266.65 109.267L268.26 108.545C269.905 107.807 271.464 105.177 271.464 103.137C271.464 102.129 272.056 102.284 272.298 103.355C272.369 103.67 272.741 104.85 273.124 105.978L273.82 108.029L274.922 106.734C275.529 106.022 276.289 104.625 276.611 103.63C277.172 101.902 278.051 101.159 278.051 102.414C278.051 103.318 280.58 106.561 281.068 106.282C281.304 106.147 281.773 104.93 282.111 103.577C282.814 100.764 283.949 98.8506 284.67 99.2622C284.94 99.4168 285.046 99.7173 284.904 99.9296C284.762 100.142 285.344 101.971 286.198 103.994C286.836 105.503 287.471 107.011 288.104 108.521C288.416 109.271 288.697 109.162 290.528 107.585C291.667 106.603 292.701 105.505 292.826 105.143C293.013 104.597 293.268 104.616 294.333 105.261C295.823 106.164 300.831 107.617 301.218 107.259C301.362 107.125 301.511 105.842 301.548 104.407L301.614 101.799L303.055 102.09C303.847 102.251 305.512 102.24 306.756 102.068L309.017 101.755L307.002 100.406C305.894 99.6642 304.773 98.704 304.512 98.2725C304.234 97.8128 303.247 97.4226 302.13 97.3298C299.111 97.0797 293.76 94.1516 293.76 92.7495C293.76 92.4865 294.501 92.934 295.407 93.7442C297.416 95.541 300.208 96.6689 302.646 96.6689H304.47L303.342 95.2046C302.694 94.3631 302.112 92.7671 301.976 91.4544C301.758 89.3617 301.531 89.0287 299.292 87.5099C297.947 86.5973 296.28 85.2296 295.589 84.4706L294.332 83.0903L293.691 84.7291C293.338 85.6302 292.907 86.3678 292.733 86.3678C292.559 86.3678 291.881 85.8409 291.226 85.1972C290.572 84.5534 289.905 84.0288 289.744 84.0319C289.584 84.0346 289.004 84.9024 288.456 85.9589L287.459 87.881L286.689 86.7733C286.265 86.164 285.264 85.0857 284.465 84.3778C283.665 83.6695 283.245 83.0899 283.53 83.0899C283.816 83.0899 284.803 83.828 285.723 84.7295L287.397 86.369L288.078 85.1678C288.482 84.4549 288.633 83.3603 288.45 82.4748C288.183 81.1843 288.221 81.1095 288.728 81.9193C289.05 82.4347 290.03 83.4221 290.904 84.114L292.493 85.3717L293.59 83.4114C294.682 81.4603 294.69 81.4565 295.186 82.6218C295.85 84.1796 300.656 88.0242 304.749 90.2704C305.379 90.6167 305.114 89.4262 303.949 86.689C303.64 85.9635 303.388 84.6565 303.388 83.7841C303.388 82.4897 303.005 81.9136 301.308 80.6539C298.859 78.8354 298.067 77.5421 297.605 74.6079C297.418 73.4193 296.99 72.0974 296.653 71.6702C296.153 71.0363 296.07 71.3914 296.204 73.5972C296.294 75.084 296.096 76.9328 295.764 77.7052L295.159 79.1103L294.692 77.9392C294.435 77.2955 293.299 76.1756 292.167 75.4513C291.034 74.7266 290.24 74.0118 290.401 73.8629C290.562 73.7144 291.726 74.3746 292.989 75.3306C294.912 76.7869 295.336 76.9446 295.602 76.3031C295.915 75.5498 295.602 72.2704 294.997 69.9791C294.696 68.8352 294.722 68.8413 296.169 70.2525C297.235 71.2933 297.826 72.535 298.283 74.7006C298.863 77.4524 299.156 77.9106 301.764 80.1446C303.33 81.4863 304.693 82.5084 304.793 82.4164C304.892 82.3248 305.09 78.8541 305.231 74.7041C305.504 66.747 305.196 64.8532 303.232 62.3947L302.223 61.1316L303.809 59.4619C305.879 57.2837 306.829 55.538 307.241 53.1562L307.577 51.2185L305.786 52.8729C304.32 54.2276 303.62 54.5273 301.922 54.5273C300.241 54.5273 299.584 54.2524 298.451 53.0745C297.091 51.661 294.682 50.301 292.366 49.6393C291.51 49.3949 291.226 49.5011 291.226 50.0662C291.226 50.4801 290.754 51.6748 290.176 52.7209L289.125 54.6235L286.924 52.5014C285.574 51.1994 283.973 50.1861 282.781 49.8802C279.736 49.099 279.571 49.1765 279.571 51.3899C279.571 54.7472 278.102 55.3727 275.458 53.1413C273.442 51.4403 271.77 51.0703 267.948 51.4804L264.996 51.7969L265.527 53.097C265.971 54.1833 265.871 54.6407 264.92 55.874C263.379 57.8747 261.374 58.7414 258.288 58.7414C256.867 58.7414 255.088 59.0286 254.335 59.3791C253.583 59.73 251.713 60.1339 250.18 60.2771C248.647 60.4203 247.013 60.6757 246.549 60.8449C245.823 61.1095 245.743 60.8915 245.977 59.2802C246.336 56.8144 244.57 54.9954 241.819 54.9954C238.249 54.9954 236.602 58.1107 238.001 62.2202C238.27 63.0109 238.622 64.2583 238.783 64.9918C238.95 65.7528 240.558 67.7726 242.528 69.695C244.425 71.5484 246.22 73.4765 246.514 73.9802C246.809 74.4842 247.782 75.2921 248.678 75.7762L250.306 76.6567L250.091 74.9568C249.855 73.0886 250.273 72.7958 251.291 74.1138C251.655 74.5853 252.581 75.3471 253.347 75.8068C254.555 76.5307 254.74 76.5456 254.74 75.9167C254.74 75.5177 254.987 74.5979 255.288 73.8729L255.835 72.5548L256.784 74.3482C257.305 75.3345 259.003 77.5765 260.556 79.3302C263.568 82.7329 265.404 86.5351 264.456 87.4106C264.072 87.7657 263.033 87.7382 260.88 87.3159C259.212 86.9887 257.147 86.8157 256.293 86.9314C254.549 87.1681 254.412 86.9482 255.484 85.6378C256.616 84.2545 256.436 84.0265 254.213 84.0265C251.639 84.0265 245.251 82.823 242.798 81.8761C240.414 80.9556 239.863 81.1851 239.162 83.3916C238.846 84.3843 238.267 86.1842 237.876 87.3907L237.166 89.5839L239.745 89.3414C241.164 89.2082 242.989 88.905 243.801 88.6679C244.613 88.4308 245.351 88.3048 245.441 88.3877C245.531 88.4709 245.169 89.3281 244.636 90.2922L243.669 92.0459L245.277 91.7259C246.162 91.5499 247.493 91.1192 248.235 90.7691C249.527 90.1597 249.63 90.204 250.649 91.7988C251.901 93.7606 252.903 93.68 253.126 91.5995C253.356 89.4491 254.081 89.7668 255.444 92.6171C256.756 95.3574 258.12 96.3249 258.383 94.7002C258.47 94.1611 259.176 93.2829 259.953 92.7492C261.523 91.6698 262.707 91.9935 263.386 93.6884C264.088 95.4433 262.521 97.2519 257.965 99.9472C248.836 105.346 243.53 112.73 242.015 122.141C240.649 130.63 244.916 139.402 253.477 145.703C257.574 148.717 264.082 151.9 263.669 150.685C261.912 145.529 261.97 135.69 263.766 134.031C264.036 133.781 263.943 134.808 263.56 136.312C262.134 141.914 262.754 146.378 266.41 156.84C269.717 166.302 269.259 170.346 264.579 173.019C263.076 173.877 262.108 174.019 258.066 173.971C253.68 173.919 253.203 174.005 251.795 175.1C250.43 176.161 248.66 179.645 248.66 181.272C248.66 182.152 249.662 182.036 251.633 180.926L251.634 180.924Z" fill="#FFBE29"/>
<path id="Vector_7" d="M322.82 180.733L324.66 179.58L325.908 180.733C327.544 182.245 329.46 182.211 331.032 180.643C331.719 179.959 332.335 179.485 332.402 179.589C332.468 179.694 332.775 180.201 333.081 180.716C333.47 181.368 334.27 181.696 335.712 181.796C337.45 181.915 337.917 181.751 338.608 180.777L339.431 179.616L341.242 180.752C346.2 183.86 348.841 180.599 346.626 174.104C345.499 170.801 346.119 168.945 349.75 164.741C351.281 162.968 352.535 161.077 352.537 160.537C352.537 159.676 352.253 159.561 350.215 159.6C348.265 159.639 347.695 159.434 346.668 158.332C344.999 156.538 345.098 154.485 346.964 152.206L348.455 150.385L345.81 148.634C344.355 147.67 341.732 145.391 339.98 143.569C336.045 139.476 332.177 137.535 327.076 137.095L323.656 136.8L323.66 139.326C323.667 142.578 325.231 145.706 329.5 151.005C334.355 157.03 334.694 157.962 334.891 165.837L335.057 172.497L333.652 173.797C332.383 174.972 331.81 175.122 327.714 175.352C323.815 175.572 322.996 175.768 321.852 176.757C320.332 178.071 319.877 178.785 319.408 180.599C319.135 181.657 319.246 181.887 320.028 181.887C320.551 181.887 321.808 181.368 322.82 180.733H322.82ZM219.269 161.467C219.269 160.625 219.655 160.4 221.551 160.138L223.833 159.822L222.311 158.638C220.503 157.232 220.336 156.134 221.93 156.132C223.517 156.132 226.205 154.523 226.614 153.334C226.804 152.78 226.684 152.042 226.343 151.662C225.454 150.672 223.781 150.821 223.47 151.919C223.136 153.099 222.577 153.102 221.309 151.93C219.402 150.168 219.359 146.521 221.221 144.396C222.098 143.396 222.09 143.33 220.972 142.296C219.768 141.185 218.909 138.984 219.474 138.462C219.654 138.296 220.605 138.428 221.587 138.756C222.982 139.222 223.533 139.23 224.108 138.789C225.849 137.453 223.963 135.736 221.17 136.115C220.046 136.268 219.582 136.115 219.421 135.546C219.299 135.114 218.316 134.551 217.208 134.278C215.229 133.79 215.215 133.796 215.215 135.126C215.215 136.584 214.362 136.859 212.742 135.924C211.425 135.164 210.148 135.754 210.148 137.122C210.148 138.399 211.464 139.029 213.822 138.88C215.63 138.767 215.698 140.079 213.98 141.965L212.745 143.322L213.723 144.694C215.173 146.725 215.05 150.099 213.467 151.775L212.226 153.089L211.412 152.035C210.28 150.571 208.732 150.669 208.308 152.232C208.03 153.255 208.259 153.723 209.573 154.807C210.455 155.536 211.744 156.132 212.436 156.132C214.15 156.132 214.083 157.447 212.301 158.775L210.908 159.814L213.062 160.14C214.246 160.32 215.215 160.657 215.215 160.89C215.215 161.783 215.773 164.493 217.188 164.561C218.45 164.621 219.24 162.747 219.269 161.467V161.467Z" fill="#FFBE29"/>
<path id="Vector_8" d="M246.523 151.662C248.48 150.91 252.714 147.411 252.714 146.546C252.714 146.274 251.545 145.02 250.117 143.759C247.11 141.105 243.84 136.635 242.993 134.022C242.551 132.659 240.416 130.327 234.403 124.637L226.401 117.064L224.095 117.634C222.827 117.948 221.279 118.212 220.656 118.221C219.582 118.237 219.601 118.297 221.029 119.375L222.535 120.513L224.647 119.369C226.693 118.261 226.767 118.254 227.019 119.146C227.167 119.668 226.848 120.573 226.282 121.238C225.733 121.882 225.421 122.613 225.587 122.862C225.754 123.111 225.227 123.632 224.416 124.019C222.914 124.737 221.871 127.101 223.057 127.101C224.123 127.101 226.476 124.269 226.205 123.311C226.066 122.821 226.133 122.316 226.354 122.19C227.27 121.667 227.213 123.89 226.282 124.984C225.733 125.628 225.421 126.359 225.587 126.608C225.754 126.857 225.227 127.378 224.416 127.765C222.923 128.479 221.87 130.847 223.045 130.847C224.197 130.847 226.511 128.141 226.225 127.128C226.075 126.599 226.133 126.062 226.354 125.936C226.971 125.584 227.304 127.339 226.783 128.199C226.504 128.659 226.506 129.288 226.79 129.787C227.302 130.691 226.782 132.426 225.838 132.965C225.433 133.196 225.707 133.65 226.689 134.373C228.11 135.42 228.138 135.53 228.138 140.15C228.138 144.011 228.297 145.008 229.024 145.68C229.84 146.434 229.911 146.437 229.911 145.714C229.911 144.923 231.333 143.958 232.495 143.958C232.838 143.958 234.98 145.729 237.256 147.895C239.546 150.074 241.942 151.927 242.62 152.045C243.295 152.163 244.024 152.287 244.242 152.323C244.46 152.358 245.487 152.06 246.523 151.662V151.662ZM222.057 132.983C222.057 131.738 219.426 130.41 216.279 130.066C213.738 129.787 213.696 129.803 213.696 131.042C213.696 132.067 214.096 132.47 215.85 133.215C218.668 134.412 222.057 134.286 222.057 132.983Z" fill="#FFBE29"/>
<path id="Vector_9" d="M224.941 132.869C226.225 131.732 226.833 130.381 226.06 130.381C225.173 130.381 222.816 132.445 222.816 133.222C222.816 134.436 223.253 134.363 224.941 132.869ZM222.206 129.188C222.315 128.485 221.869 128.017 220.535 127.429C217.657 126.161 214.215 125.573 213.386 126.209C211.86 127.38 212.877 128.951 215.344 129.234C216.337 129.348 217.684 129.643 218.337 129.891C220.233 130.609 222.036 130.282 222.206 129.188ZM222.206 125.427C222.361 124.425 221.704 124.067 216.345 122.226C212.343 120.852 210.572 121.5 211.851 123.87C212.296 124.696 213.044 125.073 214.721 125.318C215.968 125.5 217.672 125.856 218.509 126.11C220.742 126.786 222.033 126.548 222.206 125.427ZM224.89 121.903C225.699 121.103 226.361 120.159 226.361 119.805C226.361 118.657 223.167 120.688 222.76 122.095C222.272 123.782 223.063 123.71 224.89 121.903ZM222.206 121.666C222.382 120.525 220.437 119.494 216.612 118.702C213.806 118.121 212.568 118.451 212.778 119.723C212.893 120.418 213.828 120.925 216.479 121.733C220.722 123.025 221.998 123.01 222.206 121.666ZM225.947 116.355C230.848 114.226 231.272 108.858 226.651 107.449C224.731 106.863 223.506 107.179 222.772 108.447C222.209 109.418 222.585 111.184 223.355 111.184C223.615 111.184 223.828 111.511 223.828 111.91C223.828 113.774 216.344 114.619 213.275 113.101C212.197 112.568 211.728 111.184 212.625 111.184C213.296 111.184 213.759 109.774 213.417 108.776C212.95 107.417 211.546 106.946 209.51 107.466C204.916 108.638 205.045 113.905 209.723 116.14C213.558 117.973 221.966 118.085 225.947 116.355V116.355Z" fill="#FFBE29"/>
<path id="Vector_10" d="M222.899 112.228C223.182 111.965 223.059 111.563 222.583 111.198C221.541 110.398 221.597 109.21 222.74 107.849C223.598 106.828 223.705 105.298 224.001 89.8757C224.51 63.297 226.536 43.3054 229.205 38.5098C230.268 36.6003 230.119 36.593 227.373 38.4162C223.834 40.7652 221.14 43.8239 218.753 48.2022C214.247 56.4693 212.681 67.5909 212.681 91.3323C212.681 104.813 212.775 106.576 213.562 107.844C214.309 109.047 214.349 109.492 213.824 110.777C213.483 111.611 213.329 112.407 213.481 112.547C214.487 113.477 221.817 113.23 222.899 112.23V112.228ZM264.078 86.8826C264.231 86.6531 263.892 85.4943 263.324 84.3072C262.438 82.4566 262.081 82.1492 260.82 82.1492C256.867 82.1492 250.512 80.4257 243.96 77.5766C240.177 75.9313 238.87 75.5529 238.417 75.9725C237.259 77.042 239.183 79.5807 242.162 80.9156C244.805 82.0992 252.194 83.5539 255.564 83.5539C257.52 83.5539 257.566 83.6402 256.453 85.2095L255.635 86.3637L257.847 86.4191C259.064 86.4496 260.742 86.6352 261.579 86.8318C263.75 87.3423 263.77 87.3427 264.078 86.8826H264.078Z" fill="#FFBE29"/>
<path id="Vector_11" d="M287.17 98.8603C287.17 98.173 285.102 96.3116 283.007 95.112C281.362 94.17 281.09 94.1414 281.086 94.9096C281.081 96.0761 280.018 99.0069 279.6 99.0069C279.365 99.0069 279.017 98.4342 278.826 97.7343C278.636 97.0344 277.839 95.6549 277.054 94.6687L275.627 92.876L274.516 94.537C273.48 96.0856 271.686 97.6022 270.89 97.6022C270.7 97.6022 270.663 96.7866 270.807 95.7897C270.965 94.7069 270.843 93.8478 270.506 93.6553C270.195 93.4778 269.941 93.5396 269.941 93.7928C269.941 94.3762 267.449 97.1337 266.922 97.1337C266.705 97.1337 266.401 96.3437 266.246 95.3781C266.092 94.4121 265.83 92.8848 265.663 91.9834C265.497 91.0819 265.851 91.6932 266.451 93.3415L267.543 96.3388L268.739 94.5121C269.397 93.5076 269.937 92.4099 269.939 92.0723C269.939 91.7356 270.162 91.5863 270.433 91.7405C270.704 91.8952 271.08 93.1028 271.27 94.4243L271.615 96.8267L272.932 95.4182C273.656 94.6435 274.505 93.6065 274.817 93.1135C275.376 92.2338 275.407 92.2346 276.518 93.154C277.141 93.6691 278.098 94.9008 278.645 95.8916C279.192 96.8825 279.713 97.6198 279.803 97.5304C279.892 97.4411 280.092 96.4197 280.248 95.2609C280.404 94.1021 280.543 93.1109 280.557 93.0582C280.634 92.771 284.523 95.2376 285.962 96.4861C286.887 97.2887 287.765 97.8332 287.913 97.6957C288.062 97.5583 288.184 96.3743 288.184 95.0642C288.184 93.0341 287.963 92.49 286.691 91.3805C285.227 90.104 285.187 90.0972 284.646 91.0307C283.944 92.2422 283.116 92.2598 283.116 91.0628C283.116 90.1896 280.351 86.8323 279.632 86.8323C279.445 86.8323 278.863 87.5699 278.338 88.4714C277.812 89.3725 277.248 90.1094 277.083 90.1082C276.373 90.104 272.475 85.8636 272.477 85.098C272.477 84.4894 272.74 84.6448 273.423 85.6616C273.942 86.4344 274.98 87.5879 275.728 88.2247C277.244 89.5149 277.795 89.2011 278.379 86.7154C278.546 86.0072 278.836 85.4276 279.023 85.4276C279.671 85.4276 283.064 88.9441 283.542 90.1102L284.021 91.2808L284.384 89.9929C284.828 88.4183 285.317 88.3599 286.026 89.7967C286.322 90.3969 287.783 91.6447 289.274 92.5698L291.985 94.2517L292.529 92.5603C292.828 91.6298 293.224 91.0953 293.409 91.3721C293.685 91.7848 292.981 94.5881 292.449 95.191C292.37 95.2815 291.491 94.7825 290.498 94.0818L288.691 92.8085L288.683 95.0879C288.679 96.3418 288.539 97.842 288.371 98.4212C288.042 99.5544 287.17 99.8732 287.17 98.8603ZM273.658 80.6858C270.437 78.0619 269.948 77.4613 270.019 76.2177L270.095 74.894L270.305 76.1727C270.428 76.9191 271.285 78.0379 272.367 78.8614L274.218 80.2719L275.356 78.9878C275.982 78.2815 276.502 77.4403 276.512 77.1184C276.539 76.2788 276.693 76.3495 278.874 78.1955C280.812 79.8358 280.842 79.8439 281.13 78.7809C281.291 78.1883 281.233 77.073 281.003 76.3021C280.37 74.183 280.494 73.8631 281.453 75.1414C281.932 75.7779 282.7 76.6782 283.161 77.1413C283.964 77.9481 284.013 77.9382 284.312 76.9073C284.484 76.3151 284.628 75.2311 284.631 74.4984L284.639 73.1666L286.386 75.0986C288.017 76.9039 288.168 76.9703 288.666 76.1104C288.959 75.6042 289.203 74.3858 289.207 73.4034C289.213 72.1338 289.35 71.8135 289.681 72.2969C290.233 73.104 289.849 75.3018 288.829 77.1746L288.097 78.5186L287.135 77.0573C285.906 75.1891 285.497 75.2193 284.708 77.2353C283.962 79.1405 283.477 79.2856 282.751 77.8206C282.281 76.8726 282.191 76.9886 281.858 78.9802L281.487 81.1936L279.264 79.5109L277.042 77.8282L276.043 78.9367C275.494 79.546 275.037 80.3081 275.027 80.63C275.007 81.3276 274.473 81.3494 273.658 80.6858ZM302.311 70.9112C301.138 69.8803 300.331 68.8971 300.516 68.7261C300.701 68.555 300.91 68.5058 300.979 68.6173C301.049 68.7284 302.007 69.7116 303.109 70.8024C305.646 73.3132 305.124 73.3843 302.311 70.9112ZM264.145 67.0625C263.078 65.6555 263.152 64.7231 264.45 63.1981C265.388 62.0962 265.817 61.9465 267.455 62.1497C268.505 62.2795 270.767 63.1855 272.48 64.1626C274.458 65.2909 276.505 66.0469 278.089 66.2347C279.462 66.3974 280.585 66.4589 280.585 66.371C280.585 66.2832 280.015 65.3772 279.318 64.3573C277.663 61.9351 277.72 61.6754 279.586 63.1264C281.502 64.6158 283.793 65.0515 288.914 64.8995L291.416 64.8254L289.964 63.4257C287.934 61.4681 288.559 61.2925 290.801 63.1905C292.903 64.9709 292.771 65.0962 288.347 65.5272C286.466 65.7105 284.444 65.5776 282.763 65.1607C280.249 64.5364 280.151 64.546 280.628 65.3684C280.902 65.8426 281.347 66.2301 281.616 66.2301C281.885 66.2301 282.105 66.4707 282.105 66.7639C282.105 67.6669 276.673 66.8727 274.078 65.5906C268.149 62.6621 267.403 62.4082 265.992 62.8419C265.207 63.0836 264.42 63.7903 264.15 64.4982C263.246 66.8609 266.68 68.6971 268.096 66.6089C268.507 66.0034 268.411 65.5895 267.689 64.8529C266.701 63.8442 266.794 63.7002 268.127 64.1733C269.074 64.5093 269.202 66.7277 268.321 67.5413C267.313 68.4729 265.013 68.2091 264.144 67.0625H264.145Z" fill="black"/>
<path id="Vector_12" d="M287.499 61.2282C286.757 60.5432 287.338 60.3752 290.663 60.3149C294.775 60.2401 297.272 59.5715 300.219 57.7567C302.58 56.302 303.22 56.5884 300.979 58.0966C298.935 59.4719 295.746 60.5291 292.668 60.8525C291.177 61.0091 289.478 61.2259 288.892 61.3347C288.307 61.4432 287.679 61.3951 287.499 61.2282Z" fill="black"/>
</g>
</g>
<path id="Vector_13" d="M399.674 168.498C399.674 168.498 402.154 173.672 404.895 175.78C408.955 178.904 417.28 178.678 420.814 182.322C425.047 186.619 420.485 192.296 420.523 192.788L420.756 195.786C420.756 195.786 417.9 195.822 416.698 196.014C414.891 196.302 414.186 197.809 410.821 197.586C402.36 197.023 402.701 189.213 402.222 182.54C401.797 179.998 400.814 176.685 400.255 174.144C399.777 171.966 399.674 168.498 399.674 168.498Z" fill="#FFBE29" stroke="black" stroke-width="2.094"/>
<path id="Vector_14" d="M399.656 56.5396C399.656 56.5396 402.139 51.359 404.881 49.2485C408.945 46.121 417.276 46.3467 420.812 42.6983C425.049 38.396 420.483 32.7117 420.521 32.2182L420.754 29.2163C420.754 29.2163 417.896 29.1811 416.694 28.9887C414.885 28.7 414.179 27.191 410.811 27.4152C402.344 27.9785 402.686 35.798 402.207 42.4801C401.781 45.0245 400.797 48.3421 400.238 50.8857C399.759 53.0671 399.657 56.5396 399.657 56.5396H399.656ZM188.346 56.5441C188.346 56.5441 185.863 51.3627 183.12 49.2518C179.057 46.124 170.725 46.3497 167.188 42.7006C162.951 38.3975 167.517 32.7125 167.479 32.2193L167.246 29.2167C167.246 29.2167 170.104 29.1815 171.307 28.9891C173.116 28.7 173.822 27.191 177.189 27.4152C185.658 27.9785 185.316 35.7995 185.795 42.4827C186.221 45.0275 187.205 48.3455 187.764 50.8895C188.243 53.0712 188.345 56.5441 188.345 56.5441H188.346Z" fill="#FFBE29" stroke="black" stroke-width="2.096"/>
</g>
</svg>
