<svg width="398" height="265" viewBox="0 0 398 265" fill="none" xmlns="http://www.w3.org/2000/svg">
<g id="MDV">
<path id="Vector" d="M0 0H397.5V265H0V0Z" fill="#D21034"/>
<g id="Group">
<path id="Vector_2" d="M66.25 66.25H331.25V198.75H66.25V66.25Z" fill="#007E3A"/>
<path id="Vector_3" d="M215.312 176.667C239.705 176.667 259.479 156.893 259.479 132.5C259.479 108.107 239.705 88.3333 215.312 88.3333C190.92 88.3333 171.146 108.107 171.146 132.5C171.146 156.893 190.92 176.667 215.312 176.667Z" fill="white"/>
<path id="Vector_4" d="M231.875 176.667C256.268 176.667 276.042 156.893 276.042 132.5C276.042 108.107 256.268 88.3333 231.875 88.3333C207.482 88.3333 187.708 108.107 187.708 132.5C187.708 156.893 207.482 176.667 231.875 176.667Z" fill="#007E3A"/>
</g>
</g>
</svg>
