<svg width="444" height="222" viewBox="0 0 444 222" fill="none" xmlns="http://www.w3.org/2000/svg">
<g id="MNG">
<g id="Group">
<g id="Group_2">
<path id="Vector" d="M444 0H0V222H444V0Z" fill="#C4272F"/>
<path id="Vector_2" d="M296 0H148V222H296V0Z" fill="#015197"/>
<path id="Vector_3" d="M74 96.2C85.239 96.2 94.35 87.089 94.35 75.85C94.35 64.611 85.239 55.5 74 55.5C62.761 55.5 53.65 64.611 53.65 75.85C53.65 87.089 62.761 96.2 74 96.2Z" fill="#F9CF02"/>
<path id="Vector_4" d="M74 88.7999C86.2608 88.7999 96.2001 78.8606 96.2001 66.5999C96.2001 54.3392 86.2608 44.3999 74 44.3999C61.7393 44.3999 51.8 54.3392 51.8 66.5999C51.8 78.8606 61.7393 88.7999 74 88.7999Z" fill="#C4272F"/>
<path id="Vector_5" d="M74 85.1C82.1738 85.1 88.8 78.4738 88.8 70.3C88.8 62.1262 82.1738 55.5 74 55.5C65.8261 55.5 59.2 62.1262 59.2 70.3C59.2 78.4738 65.8261 85.1 74 85.1Z" fill="#F9CF02"/>
<path id="Vector_6" d="M64.75 42.55C64.75 45.0032 65.7246 47.356 67.4593 49.0907C69.194 50.8254 71.5467 51.8 74 51.8C76.4533 51.8 78.806 50.8254 80.5407 49.0907C82.2754 47.356 83.25 45.0032 83.25 42.55C83.25 38.85 80.9375 38.3875 80.9375 37C80.9375 35.6125 82.325 33.7625 79.55 31.45C80.9375 33.7625 78.625 34.225 78.625 36.5375C78.625 38.85 79.55 38.85 79.55 40.7C79.55 41.1906 79.3551 41.6612 79.0081 42.0081C78.6612 42.355 78.1907 42.55 77.7 42.55C77.2093 42.55 76.7388 42.355 76.3919 42.0081C76.0449 41.6612 75.85 41.1906 75.85 40.7C75.85 38.85 77.7 37 77.7 34.225C77.7 31.45 77.2375 30.525 75.85 28.2125C74.4625 25.9 72.15 24.05 74 22.2C71.225 23.125 72.6125 26.825 72.6125 29.1375C72.6125 31.45 70.7625 32.8375 70.7625 35.6125C70.7625 38.3875 72.15 38.85 72.15 40.7C72.15 41.1906 71.9551 41.6612 71.6081 42.0081C71.2612 42.355 70.7907 42.55 70.3 42.55C69.8093 42.55 69.3388 42.355 68.9919 42.0081C68.6449 41.6612 68.45 41.1906 68.45 40.7C68.45 38.85 69.375 38.85 69.375 36.5375C69.375 34.225 67.0625 33.7625 68.45 31.45C65.675 33.7625 67.0625 35.6125 67.0625 37C67.0625 38.3875 64.75 38.85 64.75 42.55Z" fill="#F9CF02"/>
<path id="Vector_7" d="M33.3 99.8999V188.7H51.8V99.8999H33.3ZM96.2001 99.8999V188.7H114.7V99.8999H96.2001ZM55.5 114.7V122.1H92.5V114.7H55.5ZM55.5 166.5V173.9H92.5V166.5H55.5ZM55.5 99.8999H92.5L74 111L55.5 99.8999ZM55.5 177.6H92.5L74 188.7L55.5 177.6Z" fill="#F9CF02"/>
</g>
<g id="Group_3">
<path id="Vector_8" d="M74 163.91C84.8303 163.91 93.61 155.13 93.61 144.3C93.61 133.47 84.8303 124.69 74 124.69C63.1697 124.69 54.39 133.47 54.39 144.3C54.39 155.13 63.1697 163.91 74 163.91Z" fill="#F9CF02" stroke="#C4272F" stroke-width="24"/>
<path id="Vector_9" d="M74.0001 124.69C76.6005 124.69 79.0945 125.723 80.9332 127.562C82.772 129.401 83.8051 131.894 83.8051 134.495C83.8051 137.095 82.772 139.589 80.9332 141.428C79.0945 143.267 76.6005 144.3 74.0001 144.3C71.3996 144.3 68.9057 145.333 67.0669 147.172C65.2281 149.011 64.1951 151.504 64.1951 154.105C64.1951 156.705 65.2281 159.199 67.0669 161.038C68.9057 162.877 71.3996 163.91 74.0001 163.91" stroke="#C4272F" stroke-width="24"/>
</g>
</g>
<g id="Group_4">
<path id="Vector_10" d="M74 138.195C76.0435 138.195 77.7 136.538 77.7 134.495C77.7 132.451 76.0435 130.795 74 130.795C71.9566 130.795 70.3 132.451 70.3 134.495C70.3 136.538 71.9566 138.195 74 138.195Z" fill="#C4272F"/>
<path id="Vector_11" d="M74 157.805C76.0435 157.805 77.7 156.148 77.7 154.105C77.7 152.062 76.0435 150.405 74 150.405C71.9566 150.405 70.3 152.062 70.3 154.105C70.3 156.148 71.9566 157.805 74 157.805Z" fill="#C4272F"/>
</g>
</g>
</svg>
