<svg width="426" height="213" viewBox="0 0 426 213" fill="none" xmlns="http://www.w3.org/2000/svg">
<g id="MYS">
<g id="Group">
<path id="red 1" d="M426 0H0V213H426V0Z" fill="#CC0001"/>
<g id="Group_2">
<path id="Vector" d="M426 197.786H0V213H426V197.786Z" fill="white"/>
<path id="Vector_2" d="M426 167.357H0V182.571H426V167.357Z" fill="white"/>
<path id="Vector_3" d="M426 136.929H0V152.143H426V136.929Z" fill="white"/>
<path id="Vector_4" d="M426 106.5H0V121.714H426V106.5Z" fill="white"/>
<path id="Vector_5" d="M426 76.0714H0V91.2857H426V76.0714Z" fill="white"/>
<path id="Vector_6" d="M426 45.6429H0V60.8572H426V45.6429Z" fill="white"/>
<path id="Vector_7" d="M426 15.2143H0V30.4286H426V15.2143Z" fill="white"/>
</g>
</g>
<path id="blue 1" d="M213 0H0V121.714H213V0Z" fill="#010066"/>
<path id="path4945 1" d="M87.6342 15.2143C62.3557 15.2143 41.8392 35.6638 41.8392 60.8572C41.8392 86.0505 62.3557 106.5 87.6342 106.5C96.7674 106.5 105.275 103.828 112.423 99.2306C108.262 100.667 103.795 101.452 99.1454 101.452C76.7301 101.452 58.5384 83.321 58.5384 60.9804C58.5384 38.6397 76.7301 20.5089 99.1454 20.5089C104.099 20.5089 108.844 21.3928 113.234 23.0147C105.925 18.0913 97.1127 15.2143 87.6342 15.2143Z" fill="#FFCC00"/>
<path id="path4959 1" d="M163.58 84.6173L144.289 74.553L149.993 95.1516L137.091 77.9215L133.064 98.8928L129.105 77.9093L116.149 95.1014L121.918 74.5211L102.596 84.5275L116.949 68.4262L95.0894 69.263L115.184 60.8297L95.1152 52.3356L116.972 53.2409L102.669 37.0955L121.959 47.1597L116.255 26.5611L129.157 43.7913L133.186 22.8214L137.145 43.805L150.101 26.6128L144.332 47.1947L163.654 37.1883L149.301 53.2895L171.161 52.4497L151.066 60.883L171.135 69.3771L149.278 68.4719L163.58 84.6173Z" fill="#FFCC00"/>
</g>
</svg>
