<svg width="432" height="524" viewBox="0 0 432 524" fill="none" xmlns="http://www.w3.org/2000/svg">
<g id="NPL">
<g id="Group 1759">
<path id="Vector" d="M429 3.17798H4.18713V521.062H429V3.17798Z" fill="white"/>
<g id="Group">
<path id="Vector_2" d="M427.813 269.035L3 3V520.883H411.49L159.641 269.035H427.813Z" fill="#003893"/>
<path id="b 2" d="M17.6016 253.721H373.739L17.6016 30.7192V505.57H373.739L17.6016 149.432V253.721Z" fill="#DC143C"/>
<g id="Group_2">
<path id="Vector_3" d="M146.345 207.542L140.35 203.09L152.281 194.127L137.798 190.447L145.455 177.626L130.675 179.763L132.812 164.983L119.991 172.581L116.311 158.098L107.348 170.029L98.3854 158.098L94.7053 172.581L81.8844 164.983L84.0212 179.763L69.2415 177.626L76.8391 190.447L62.3562 194.127L74.2868 203.09L68.2918 207.601C54.2837 199.232 42.828 186.47 36.3582 170.088C36.3582 209.263 68.1137 241.019 107.289 241.019C146.464 241.019 178.22 209.263 178.22 170.088C172.106 185.877 160.769 198.994 146.345 207.542Z" fill="white"/>
<path id="Vector_4" d="M173.353 417.722L154.062 392.14L154.002 392.259C154.002 392.14 154.062 392.021 154.062 391.902V392.081L183.562 379.556L154.062 367.032V367.21C154.062 367.092 154.002 366.973 154.002 366.854L154.062 366.973L173.353 341.39L141.538 345.308L145.455 313.612L119.873 332.902L119.991 332.962C119.873 332.902 119.754 332.902 119.635 332.902H119.813L107.289 303.402L94.7649 332.902H94.9429C94.8242 332.902 94.7055 332.962 94.5868 332.962L94.7055 332.902L69.123 313.612L73.0405 345.427L41.2255 341.509L60.5163 367.092L60.5757 366.973C60.5757 367.092 60.5163 367.21 60.5163 367.329V367.151L31.0162 379.675L60.5163 392.199V392.021C60.5163 392.14 60.5757 392.259 60.5757 392.377L60.5163 392.259L41.2255 417.841L73.0405 413.924L69.123 445.739L94.7055 426.448L94.5868 426.388C94.7055 426.388 94.8242 426.448 94.9429 426.448H94.7649L107.289 455.948L119.813 426.448H119.635C119.754 426.448 119.873 426.388 119.991 426.388L119.873 426.448L145.455 445.62L141.538 413.805L173.353 417.722Z" fill="white"/>
</g>
</g>
</g>
<rect id="Rectangle 19" x="1.5" y="1.5" width="429" height="521" stroke="#D1D1D1" stroke-width="3"/>
</g>
</svg>
