<svg width="403" height="271" viewBox="0 0 403 271" fill="none" xmlns="http://www.w3.org/2000/svg">
<g id="PKT">
<path id="Vector" d="M400 3H3V267.667H400V3Z" fill="white"/>
<path id="Vector_2" d="M400 3H102.25V267.667H400V3Z" fill="#01411C"/>
<path id="Vector_3" d="M251.125 214.732C294.976 214.732 330.525 179.183 330.525 135.332C330.525 91.4805 294.976 55.9319 251.125 55.9319C207.274 55.9319 171.725 91.4805 171.725 135.332C171.725 179.183 207.274 214.732 251.125 214.732Z" fill="white"/>
<rect id="Rectangle 20" x="1.5" y="1.5" width="400" height="268" stroke="#D1D1D1" stroke-width="3"/>
<path id="Vector_4" d="M319.775 171.693C349.819 144.988 352.525 98.9837 325.82 68.94C299.114 38.8963 253.11 36.1901 223.066 62.8956C193.022 89.6011 190.316 135.605 217.022 165.649C243.727 195.693 289.732 198.399 319.775 171.693Z" fill="#01411C"/>
<path id="Vector_5" d="M280.078 75.9197L313.524 113.546L264.349 102.765L310.47 82.5831L285.02 126.019L280.078 75.9197Z" fill="white"/>
</g>
</svg>
