<svg width="432" height="220" viewBox="0 0 432 220" fill="none" xmlns="http://www.w3.org/2000/svg">
<g id="PHI">
<rect id="Rectangle 15" x="1.5" y="1.5" width="429" height="217" stroke="#D1D1D1" stroke-width="3"/>
<path id="Vector" d="M429 3H3V216H429V3Z" fill="#0038A8"/>
<path id="Vector_2" d="M429 109H3V216H429V109Z" fill="#CE1126"/>
<path id="Vector_3" d="M188 109.5L3 216V3" fill="white"/>
<path id="Vector_4" d="M13.5607 21L19.8619 26.7881L27.1575 22.519L23.9259 30.6777L30 36.7338L21.7016 35.9881L18.16 44L16.2629 35.3805L8 34.276L15.1259 29.6945L13.5607 21Z" fill="#FCD116"/>
<path id="Vector_5" d="M158.597 99L158.774 107.281L167 110L158.774 112.719L158.597 121L153.336 114.4L145 116.798L149.974 110L145 103.202L153.336 105.6L158.597 99Z" fill="#FCD116"/>
<path id="Vector_6" d="M18.16 175L21.7016 183.012L30 182.266L23.9259 188.322L27.1575 196.481L19.8619 192.212L13.5607 198L15.1259 189.305L8 184.724L16.2629 183.62L18.16 175Z" fill="#FCD116"/>
<path id="Vector_7" d="M69.5 64L66.7633 66.7982L68.1205 87.9927C67.6591 88.0231 67.2023 88.0689 66.7493 88.1292L64.2574 68.7889L62.024 71.0724L65.3866 88.3595C62.6206 88.9191 60.0499 90.0301 57.7882 91.5787L48.2123 76.9248H45.0528L56.6673 92.4034C56.3029 92.6898 55.9499 92.9895 55.6049 93.2991L41.9045 77.3258H38.033V81.2843L53.6552 95.2926C53.352 95.6458 53.0595 96.0087 52.7792 96.3818L37.6408 84.5034V87.7339L51.9754 97.5278C50.4612 99.8399 49.3714 102.467 48.8242 105.294L31.917 101.856L29.6837 104.14L48.5989 106.688C48.5399 107.151 48.4952 107.618 48.4654 108.09L27.7367 106.702L25 109.5L27.7367 112.298L48.4654 110.91C48.4953 111.382 48.5399 111.852 48.5989 112.315L29.6837 114.86L31.917 117.144L48.8242 113.706C49.3714 116.534 50.4578 119.162 51.9726 121.475L37.6408 131.266V134.497L52.7792 122.621C53.0593 122.994 53.3524 123.354 53.6552 123.707L38.033 137.716V141.674H41.9045L55.6049 125.701C55.9505 126.011 56.3051 126.31 56.6701 126.597L45.0528 142.075H48.2123L57.791 127.418C60.0517 128.968 62.621 130.084 65.3866 130.643L62.024 147.928L64.2574 150.211L66.7493 130.871C67.2021 130.931 67.6591 130.977 68.1205 131.007L66.7633 152.202L69.5 155L72.2367 152.202L70.8795 131.007C71.341 130.977 71.7977 130.931 72.2507 130.871L74.7427 150.211L76.976 147.928L73.6135 130.64C76.3794 130.081 78.9501 128.97 81.2118 127.421L90.7877 142.075H93.9472L82.3327 126.597C82.6971 126.31 83.0501 126.011 83.3951 125.701L97.0956 141.674H100.967V137.716L85.3448 123.707C85.648 123.354 85.9405 122.991 86.2209 122.618L101.359 134.497V131.266L87.0247 121.472C88.5388 119.16 89.6287 116.533 90.1758 113.706L107.083 117.144L109.316 114.86L90.4011 112.312C90.4601 111.849 90.5048 111.382 90.5346 110.91L111.263 112.298L114 109.5L111.263 106.702L90.5346 108.09C90.5051 107.618 90.4601 107.151 90.4011 106.688L109.316 104.14L107.083 101.856L90.1758 105.294C89.6285 102.466 88.542 99.8375 87.0274 97.525L101.359 87.7339V84.5034L86.2209 96.3789C85.9407 96.0063 85.6477 95.6454 85.3448 95.2926L100.967 81.2843V77.3258H97.0956L83.3951 93.2991C83.0497 92.9891 82.6948 92.6901 82.3299 92.4034L93.9472 76.9248H90.7877L81.2091 91.5815C78.9478 90.0334 76.3788 88.919 73.6135 88.3595L76.976 71.0724L74.7427 68.7889L72.2507 88.1292C71.7977 88.0689 71.3409 88.0231 70.8795 87.9927L72.2367 66.7982L69.5 64Z" fill="#FCD116"/>
</g>
</svg>
