<svg width="458" height="229" viewBox="0 0 458 229" fill="none" xmlns="http://www.w3.org/2000/svg">
<g id="PRK">
<path id="Vector" d="M458 0H0V229H458V0Z" fill="#024FA2"/>
<path id="Vector_2" d="M458 38.1667H0V190.833H458V38.1667Z" fill="white"/>
<path id="Vector_3" d="M458 44.5278H0V184.472H458V44.5278Z" fill="#ED1C27"/>
<path id="Vector_4" d="M152.667 165.389C180.772 165.389 203.556 142.605 203.556 114.5C203.556 86.3948 180.772 63.6111 152.667 63.6111C124.562 63.6111 101.778 86.3948 101.778 114.5C101.778 142.605 124.562 165.389 152.667 165.389Z" fill="white"/>
<path id="Vector_5" d="M170.605 120.289L199.548 99.297H163.735L152.667 65.2014L141.598 99.297H105.785L134.728 120.289L123.66 154.384L152.667 133.329L181.673 154.384L170.605 120.289Z" fill="#ED1C27"/>
</g>
</svg>
