<svg width="458" height="306" viewBox="0 0 458 306" fill="none" xmlns="http://www.w3.org/2000/svg">
<g id="KSA">
<path id="Vector" d="M458 0H0V305.333H458V0Z" fill="#006C35"/>
<path id="Vector_2" fill-rule="evenodd" clip-rule="evenodd" d="M197.416 72.1137C197.179 72.1066 196.825 72.2388 196.329 72.5335C195.212 73.2819 192.999 75.5872 192.932 78.2395C192.864 79.7358 192.582 79.7299 193.561 80.6821C194.269 81.7027 194.976 81.6023 196.405 80.8539C197.225 80.2494 197.502 79.8639 197.779 78.8502C198.119 77.1501 195.99 79.6545 195.718 77.7624C195.242 76.0058 196.601 75.2832 197.893 73.5832C197.923 72.7825 197.937 72.1292 197.416 72.1138L197.416 72.1137ZM218.217 72.2282C217.818 72.2819 217.33 72.7931 216.652 74.022C216.166 75.309 214.072 77.2568 215.583 81.2737C216.82 83.8206 217.328 87.9599 216.766 92.571C215.91 93.8814 215.714 94.333 214.591 95.6434C213.013 97.3404 211.304 96.9065 209.992 96.2731C208.766 95.4471 207.803 95.0231 207.244 92.3992C207.345 88.2168 207.589 81.3711 206.824 79.9184C205.697 77.6687 203.84 78.4755 203.046 79.155C199.231 82.6432 197.346 88.533 196.194 93.2193C195.136 96.6347 194.009 95.647 193.217 94.2689C191.29 92.463 191.155 78.3409 188.828 80.6626C185.102 91.3127 190.967 102.979 195.03 101.845C197.962 103.059 199.822 97.4789 201.022 91.3688C201.844 89.654 202.471 89.4569 202.893 90.3383C202.784 98.4639 203.475 100.276 205.564 102.742C210.224 106.337 214.079 103.198 214.381 102.895C214.683 102.593 218.007 99.269 218.007 99.269C218.814 98.4196 219.882 98.3679 221.022 99.1164C222.131 100.124 221.988 101.86 224.362 103.067C226.359 103.866 230.624 103.261 231.613 101.54C232.945 99.2583 233.268 98.4743 233.884 97.6088C234.835 96.344 236.461 96.904 236.461 97.3035C236.309 98.0089 235.354 98.7047 236.003 99.9752C237.133 100.823 237.395 100.278 238.064 100.09C240.428 98.9596 242.205 93.8303 242.205 93.8303C242.309 91.9173 241.221 92.0624 240.525 92.4563C239.618 93.0109 239.562 93.1994 238.655 93.754C237.499 93.9257 235.26 94.6882 234.151 92.9716C233.02 90.9078 233.013 88.0306 232.148 85.9489C232.148 85.7975 230.635 82.6758 232.033 82.4758C232.739 82.6069 234.256 82.9989 234.495 81.7315C235.235 80.4962 232.899 76.9918 231.308 75.2242C229.927 73.7089 228.021 73.5241 226.175 75.0716C224.881 76.2613 225.073 77.5901 224.82 78.8501C224.49 80.2972 224.553 82.0895 226.022 84.0026C227.313 86.5477 229.658 89.8131 228.884 94.4217C228.884 94.4217 227.522 96.6151 225.125 96.3301C224.126 96.1122 222.498 95.6798 221.633 89.2885C220.978 84.4505 221.797 77.6724 219.744 74.4987C219.28 73.3012 218.882 72.1383 218.217 72.2278L218.217 72.2282ZM211.634 72.7411C211.013 72.7954 210.325 73.5188 209.764 74.9166C209.282 75.9796 208.694 81.5387 208.79 81.5387C208.406 83.1932 210.519 83.8943 211.481 81.7677C212.923 77.869 212.93 76.2081 213.027 74.5545C212.802 73.2949 212.255 72.6873 211.634 72.7416L211.634 72.7411ZM235.946 73.18C235.308 73.2379 234.8 73.6114 234.61 74.554C234.356 76.7705 234.486 77.9757 234.858 79.821C235.144 81.0515 236.934 83.1116 237.816 84.3057C242.027 89.9662 246.079 95.6537 249.991 101.538C250.606 105.907 251.057 110.181 251.346 114.438C251.98 123.772 252.173 135.39 251.594 145.22C253.343 145.289 256.145 142.396 257.129 138.159C257.768 132.298 256.901 120.34 256.842 116.881C256.801 115.445 256.713 113.732 256.613 111.938C261.164 119.376 265.58 127.255 269.914 135.907C271.494 135.156 271.144 126.26 270.22 125.01C266.751 117.544 261.958 110.174 260.43 107.339C259.878 106.315 258 103.458 255.774 100.164C255.364 95.4624 254.918 91.4805 254.629 90.2781C253.913 85.3084 256.671 90.8385 256.289 87.9499C255.394 82.987 252.655 79.6143 249.419 75.0685C248.376 73.59 248.396 73.2885 246.785 75.4311C245.823 77.6153 245.836 79.4326 246.117 81.1371C245.694 80.5213 245.17 79.7912 244.419 78.8852C241.625 76.4878 241.452 76.3568 239.133 74.4006C238.402 73.8817 237.009 73.0829 235.946 73.1793L235.946 73.18ZM308.004 73.9243C307.694 73.876 307.355 74.0287 306.974 74.5923C306.245 75.2312 305.461 76.3881 305.485 77.8746C305.663 80.4936 306.129 83.1752 306.306 85.7943C306.368 86.1448 306.434 86.4934 306.497 86.844C306.215 86.4849 305.97 86.2047 305.829 86.0616C300.724 80.6986 308.174 85.1851 304.856 81.0426C302.049 77.9608 301.228 76.9801 298.825 75.1268C297.621 74.3482 296.893 72.8605 296.497 75.394C296.339 77.6197 296.176 80.197 296.325 82.0734C296.317 83.1161 297.397 85.0789 298.329 86.2336C301.735 90.4177 305.213 94.8696 308.71 99.5156C309.446 108.991 309.643 117.676 310.39 127.167C310.284 131.226 309.035 136.618 307.852 137.128C307.852 137.128 306.044 138.167 304.836 137.014C303.958 136.661 300.447 131.155 300.447 131.155C298.65 129.508 297.452 129.978 296.173 131.155C292.646 134.561 291.051 140.94 288.654 145.334C288.036 146.315 286.296 147.149 284.36 145.258C279.445 138.543 282.32 128.985 281.708 131.442C277.33 136.375 279.269 144.55 280.257 146.308C281.701 149.195 282.869 151.044 285.677 152.472C288.235 154.355 290.227 153.18 291.326 151.861C293.9 149.194 293.934 142.371 295.142 141.022C295.99 138.543 298.114 138.969 299.15 140.068C300.154 141.511 301.339 142.45 302.814 143.235C305.215 145.353 308.081 145.738 310.905 143.808C312.836 142.725 314.088 141.318 315.218 138.541C316.431 135.298 315.831 118.302 315.562 108.847C317.375 111.402 319.165 114.012 320.943 116.652C321.724 124.952 322.078 133.126 321.821 140.964C321.637 142.523 327.26 136.311 327.222 133.369C327.196 130.794 327.226 128.461 327.222 126.289C329.949 130.643 332.589 135.07 335.084 139.552C336.63 138.732 336.1 129.978 335.122 128.77C332.51 124.386 329.164 119.649 326.573 115.984C326.061 111.358 325.363 105.9 325.046 104.228C324.552 101.621 324.057 97.7045 323.309 94.6102C323.104 93.402 322.486 89.5426 322.68 89.1715C322.984 88.308 324.136 89.1991 324.703 88.1982C325.551 87.2731 321.76 77.4517 319.836 74.6488C319.144 73.3925 317.893 73.8272 316.344 75.8701C314.907 77.2144 315.433 80.2812 315.981 83.1981C317.406 90.6323 318.677 98.2034 319.684 105.755C317.821 102.986 315.548 99.6354 313.309 96.4044C313.249 96.0928 313.023 94.9508 313.023 94.935C313.023 94.8014 312.715 88.8534 312.451 87.4354C312.404 86.8599 312.267 86.6942 312.87 86.7674C313.51 87.3054 313.597 87.3344 313.996 87.5117C314.642 87.6299 315.207 86.5383 314.817 85.5271C312.82 81.8432 310.822 78.1429 308.825 74.4587C308.585 74.2221 308.315 73.9727 308.004 73.9244L308.004 73.9243ZM122.038 74.1152C120.931 74.0835 119.71 74.7696 120.187 76.0998C119.909 76.8249 122.353 79.2758 122.782 80.6225C123.167 81.5815 122.401 84.6695 123.202 84.9545C123.939 85.2739 124.954 82.8169 125.339 80.5462C125.553 79.3023 125.391 75.0452 122.496 74.1721C122.348 74.1385 122.196 74.1194 122.038 74.1149L122.038 74.1152ZM333.884 74.1396C333.632 74.1646 333.325 74.5723 332.854 75.5709C331.721 77.426 331.332 80.7477 331.785 83.6811C334.512 102.125 336.538 119.985 336.957 136.332C336.722 137.884 336.654 138.709 335.926 140.664C334.317 142.727 332.542 145.314 330.869 146.561C329.197 147.807 325.64 148.996 324.476 149.92C320.786 152.053 320.767 154.506 323.751 154.595C328.894 153.998 334.979 153.576 339.17 147.248C340.292 145.475 341.612 140.667 341.67 137.725C342.062 120.476 341.45 103.61 338.865 91.143C338.699 89.9286 338.163 87.1373 338.369 86.7729C338.702 85.9192 340.384 86.8584 340.983 85.876C341.862 84.9786 336.632 78.2817 334.8 75.4183C334.434 74.6992 334.209 74.1075 333.884 74.1397L333.884 74.1396ZM279.955 74.4258C279.743 74.4625 279.429 74.7857 278.848 75.5518C277.412 80.2488 276.907 84.0846 277.455 87.0018C281.145 106.259 284.926 123.802 284.325 142.133C286.075 142.145 288.098 138.13 288.963 134.157C289.436 128.683 288.647 125.352 288.505 122.134C288.363 118.917 284.863 92.8135 284.154 90.3794C283.298 85.7765 287.557 89.7739 287.092 87.097C285.62 83.7222 281.945 78.8079 280.795 75.876C280.363 75.0909 280.309 74.3646 279.956 74.4257L279.955 74.4258ZM148.644 74.7884C148.19 74.867 147.752 75.2407 147.594 75.8571C147.494 76.2609 147.769 76.9325 147.403 77.1357C147.193 77.3474 146.397 77.2051 146.43 76.0861C146.43 75.7297 146.168 75.3578 146.01 75.1319C145.851 75.0279 145.744 74.9983 145.457 74.9983C145.106 75.0125 145.114 75.1049 144.922 75.3991C144.837 75.6983 144.727 75.9914 144.727 76.3334C144.683 76.7316 144.524 76.8665 144.231 76.925C143.903 76.925 143.981 76.9607 143.715 76.7914C143.558 76.6191 143.372 76.5513 143.372 76.2571C143.372 75.9524 143.292 75.466 143.2 75.2647C143.061 75.0813 142.841 74.9859 142.589 74.9212C141.217 74.9261 141.118 76.5027 141.196 77.0967C141.094 77.2088 141.043 80.003 142.914 80.7798C145.426 81.9776 150.136 81.4712 149.937 77.4211C149.937 77.0629 149.858 75.86 149.822 75.5318C149.566 74.9348 149.092 74.709 148.639 74.7876L148.644 74.7884ZM182.345 74.8266C181.477 74.8709 180.71 75.1197 180.055 75.4563C178.39 77.0505 178 79.6062 179.311 81.2004C180.587 81.803 181.86 83.0873 181.009 83.7957C177.401 87.6497 168.01 94.0897 167.537 95.2646C167.533 95.2742 167.52 95.294 167.518 95.3028C167.516 95.3112 167.518 95.3333 167.518 95.341C167.518 95.3446 167.517 95.3566 167.518 95.36C167.521 95.3697 167.531 95.3903 167.537 95.3982C167.539 95.4006 167.553 95.415 167.556 95.4172C167.559 95.4191 167.571 95.4154 167.575 95.4172C167.578 95.4191 167.59 95.4349 167.594 95.4363C167.598 95.4375 167.608 95.4351 167.613 95.4363C167.614 95.4375 167.63 95.454 167.632 95.4553C168.109 95.7754 173.985 95.7679 174.636 95.4744C174.64 95.4719 174.651 95.4578 174.655 95.4553C174.656 95.4541 174.672 95.4566 174.674 95.4553C174.675 95.4541 174.672 95.4376 174.674 95.4363C176.693 94.6921 186.276 83.7384 186.276 83.7384C185.78 83.313 185.322 82.9996 184.826 82.5743C184.294 82.1139 184.348 81.6613 184.826 81.2003C187.199 79.8191 186.447 76.7802 185.208 75.399C184.18 74.9382 183.213 74.7822 182.345 74.8265L182.345 74.8266ZM270.434 74.8648C270.181 74.8898 269.874 75.2784 269.403 76.2769C268.271 78.1321 267.501 81.3627 267.59 84.3872C270.044 101.372 270.796 116.236 272.399 133.222C272.53 134.864 272.289 137.251 271.197 138.202C267.158 142.42 261.334 147.621 254.995 150.015C254.313 150.781 256.691 154.045 259.766 154.042C264.909 153.445 269.429 150.558 273.621 142.954C274.742 141.181 276.712 137.385 276.77 134.443C277.162 117.193 275.9 103.782 273.316 91.3146C273.15 90.1002 273.263 88.6638 273.468 88.2994C273.801 87.9018 274.93 88.3085 275.529 87.3261C276.408 86.4287 273.182 78.9875 271.35 76.1241C270.984 75.4049 270.758 74.8324 270.434 74.8646L270.434 74.8648ZM133.968 75.3838C133.258 75.4668 132.591 76.0447 132.27 76.8151C132.151 79.5393 132.135 82.2622 132.441 84.7727C133.68 89.1761 134.073 93.0491 134.674 97.5588C134.841 103.599 131.186 100.172 131.354 97.1772C132.197 93.2877 131.97 87.1647 131.22 85.6124C130.625 84.0607 129.937 83.6776 128.491 83.933C127.343 83.8629 124.378 87.0941 123.548 92.4445C123.548 92.4445 122.858 95.1904 122.556 97.6352C122.15 100.398 120.32 102.355 119.045 97.2535C117.942 93.5457 117.265 84.41 115.419 86.5479C114.89 93.6811 114.262 106.233 120.323 107.521C127.654 108.225 123.605 95.1278 126.258 92.7498C126.76 91.5748 127.69 91.5539 127.766 93.0361V104.162C127.699 107.779 130.079 108.853 131.926 109.601C133.848 109.452 135.123 109.505 135.876 111.375C136.177 117.788 136.492 124.218 136.792 130.63C136.792 130.63 141.236 131.907 141.449 119.81C141.662 112.707 140.034 106.746 140.991 105.364C141.024 104.006 142.765 103.939 143.968 104.601C145.884 105.952 146.734 107.616 149.712 106.948C154.243 105.7 156.973 103.5 157.04 100.02C156.775 96.7139 156.393 93.4038 154.96 90.0971C155.16 89.4957 154.092 87.9313 154.292 87.33C155.106 88.6053 156.338 88.4995 156.62 87.33C155.849 84.7885 154.648 82.3535 152.708 81.2997C151.104 79.8871 148.758 80.1858 147.899 83.1317C147.501 86.5263 149.129 90.5495 151.601 93.8373C152.126 95.1219 152.86 97.2584 152.536 99.1806C151.221 99.9309 149.917 99.6188 148.815 98.4555C148.815 98.4554 145.208 95.7554 145.208 95.1541C146.165 89.026 145.414 88.3244 144.884 86.6237C144.513 84.2761 143.401 83.5326 142.498 81.9292C141.596 80.9727 140.372 80.9727 139.788 81.9292C138.194 84.6928 138.942 90.6263 140.094 93.2839C140.926 95.7281 142.202 97.2532 141.601 97.2532C141.106 98.6344 140.075 98.3131 139.33 96.7189C138.268 93.424 138.052 88.5134 138.052 86.2997C137.733 83.5551 137.377 77.6924 135.571 76.2048C135.089 75.5482 134.52 75.3197 133.968 75.3842L133.968 75.3838ZM159.711 75.422C159.347 75.468 158.945 75.6751 158.471 75.7846C156.912 76.2807 155.453 77.628 155.914 80.2501C157.756 91.4448 158.957 99.9886 160.799 111.184C161.082 112.495 159.983 114.223 158.566 114.046C156.157 112.417 155.559 109.116 151.448 109.257C148.472 109.292 145.079 112.531 144.655 115.65C144.159 118.128 143.982 120.816 144.655 122.978C146.746 125.493 149.252 125.224 151.448 124.657C153.255 123.913 154.741 122.133 155.38 122.558C155.381 122.56 155.397 122.555 155.399 122.558C155.4 122.56 155.397 122.574 155.399 122.577C155.793 123.265 155.361 129.088 146.887 133.588C141.679 135.926 137.534 136.485 135.303 132.233C133.922 129.576 135.404 119.455 132.002 121.794C121.941 147.727 155.573 151.347 159.329 122.863C159.573 122.059 160.314 121.253 160.837 121.451C161.066 121.548 161.277 121.86 161.352 122.443C160.572 148.234 135.334 150.002 131.048 141.889C129.985 139.977 129.666 135.719 129.559 133.168C129.365 131.625 128.978 130.734 128.529 130.382C127.506 129.614 126.132 131.617 125.838 135.096C125.413 137.894 125.533 138.663 125.533 141.355C126.879 161.726 159.356 152.973 164.634 136.145C167.247 127.446 164.581 120.883 165.455 120.077C165.463 120.071 165.485 120.064 165.493 120.058C165.501 120.053 165.523 120.043 165.531 120.039C165.54 120.035 165.56 120.023 165.57 120.02C165.599 120.012 165.649 120.001 165.684 120.001C168.908 123.474 173.432 120.442 174.424 119.238C174.849 118.635 175.913 118.249 176.657 119.028C179.172 120.836 183.58 119.983 184.5 116.795C185.032 113.678 185.481 110.468 185.588 107.139C183.95 107.648 182.628 108.029 182.095 108.59C181.969 108.728 181.875 108.881 181.847 109.048C181.705 109.969 181.57 110.893 181.428 111.815C181.412 111.891 181.388 111.961 181.351 112.025C181.281 112.138 181.166 112.242 181.046 112.311C180.467 112.627 179.457 112.446 179.405 111.605C178.625 108.062 175.419 107.601 173.47 113.093C172.159 114.156 169.768 114.363 169.519 112.769C169.838 109.084 168.354 108.59 165.378 110.326C164.422 103.028 163.473 96.0604 162.516 88.7623C163.756 88.7265 164.893 89.6258 166.027 88.2089C164.8 84.393 162.204 76.6288 160.741 75.9003C160.73 75.8948 160.714 75.8856 160.703 75.8812C160.637 75.8015 160.558 75.7281 160.493 75.6713C160.466 75.6484 160.425 75.6143 160.398 75.595C160.371 75.5763 160.329 75.553 160.302 75.5377C160.244 75.5055 160.17 75.4792 160.111 75.4614C159.978 75.4236 159.848 75.4058 159.711 75.4232L159.711 75.422ZM260.068 75.4792C258.781 75.441 257.357 76.2521 257.912 77.8646C257.589 78.7441 260.677 81.7277 261.175 83.3606C262.071 85.8695 260.491 88.2626 261.423 88.6085C262.281 88.9957 263.475 86.0184 263.923 83.2652C264.441 81.0395 262.853 76.4783 260.603 75.5366C260.43 75.496 260.252 75.4848 260.068 75.4794L260.068 75.4792ZM181.885 78.2272C182.471 78.1675 183.179 78.706 183.526 79.4676C183.896 80.28 183.71 81.0562 183.106 81.2042C182.502 81.3522 181.72 80.8143 181.35 80.0019C180.98 79.1896 181.166 78.3943 181.77 78.2463C181.808 78.237 181.845 78.2312 181.885 78.2272ZM326.918 81.9866C325.744 81.9455 324.466 82.8364 324.971 84.5819C324.677 85.5341 327.476 88.7682 327.929 90.5359C328.337 91.794 327.308 95.8485 328.158 96.2228C328.941 96.6419 330.04 93.4214 330.448 90.4405C330.675 88.8088 329.466 83.0826 327.414 82.0627C327.257 82.0188 327.086 81.9923 326.918 81.9864V81.9866ZM246.731 83.9713C246.839 84.4498 246.946 84.9315 247.018 85.4216C247.258 86.4791 247.465 87.5295 247.685 88.5703C246.759 87.2948 245.992 86.2643 245.663 85.8986C243.567 83.4077 245.71 84.2629 246.731 83.9713H246.731ZM265.204 93.0549C264.75 93.1335 264.313 93.5262 264.154 94.1426C264.055 94.5464 264.348 95.199 263.983 95.4021C263.773 95.6139 262.957 95.4906 262.99 94.3716C262.99 94.0153 262.729 93.6243 262.57 93.3984C262.412 93.2943 262.304 93.2648 262.017 93.2648C261.667 93.279 261.675 93.3713 261.483 93.6655C261.401 93.9653 261.292 94.2608 261.292 94.6006C261.248 94.9988 261.108 95.1337 260.815 95.1922C260.487 95.1922 260.546 95.2278 260.28 95.0586C260.123 94.8862 259.937 94.8185 259.937 94.5242C259.937 94.2196 259.857 93.7332 259.765 93.5319C259.626 93.3485 259.406 93.2721 259.154 93.2075C257.782 93.2124 257.702 94.77 257.78 95.3639C257.678 95.4759 257.608 98.2893 259.479 99.0661C261.991 100.264 266.72 99.7384 266.52 95.6883C266.52 95.3301 266.423 94.1272 266.387 93.7991C266.13 93.202 265.657 92.9762 265.204 93.0548L265.204 93.0549ZM180.859 93.8946C180.549 93.863 180.143 93.9767 179.675 94.2572C177.454 95.4587 176.594 99.0228 177.977 101.108C179.269 102.945 181.312 102.272 181.584 102.272C183.76 102.544 185.057 98.1885 185.057 98.1885C185.057 98.1885 185.122 96.9637 182.538 99.2762C181.45 99.4799 181.302 99.0871 181.03 98.4747C180.804 97.3415 180.853 96.1926 181.374 95.0587C181.615 94.379 181.375 93.9473 180.859 93.8947L180.859 93.8946ZM300.091 94.448C298.858 94.388 297.546 95.1866 297.21 96.8716C297.215 97.8657 297.658 98.412 297.572 99.3143C297.444 99.8301 296.912 100.169 295.645 99.5624C295.843 99.3802 294.824 97.9403 294.824 97.9403C293.836 97.3384 292.516 97.973 291.656 98.5319C291.184 99.3912 290.834 100.864 291.37 102.368C292.789 104.989 297.656 109.462 299.977 109.505C300.02 107.142 300.25 103.998 300.378 102.043C300.432 101.305 300.606 100.492 301.313 100.307C302.019 100.122 303.246 101.018 303.259 100.25C303.131 98.7458 302.83 96.5269 301.981 95.4787C301.546 94.834 300.831 94.4842 300.091 94.4482L300.091 94.448ZM201.395 102.673C201.363 102.685 201.33 102.713 201.3 102.73C201.285 102.739 201.258 102.758 201.243 102.768C200.997 102.953 200.707 103.378 200.06 103.837C198.967 105.08 198.771 105.945 198.838 108.436C198.9 108.7 200.912 114.294 202.617 118.226C203.766 122.313 204.829 126.993 204.048 131.413C201.358 137.256 195.949 142.496 190.728 145.343C188.068 146.195 185.771 145.905 185.156 145.324C185.151 145.319 185.141 145.31 185.137 145.305C183.609 144.278 183.574 142.45 183.667 142.137C183.667 142.135 183.667 142.12 183.667 142.118C183.671 142.114 183.683 142.102 183.686 142.099C188.092 139.031 193.124 136.547 197.064 128.264C198.227 125.098 198.582 123.197 197.426 118.303C196.976 116.479 196.419 114.978 195.174 113.684C195.177 113.681 195.19 113.669 195.193 113.665C195.943 113.307 197.889 114.74 198.19 113.837C197.729 111.5 196.146 108.362 194.354 106.757C192.784 105.331 191.077 105.166 189.64 106.471C188.022 107.371 187.678 110.605 188.457 113.436C189.322 115.567 191.659 115.941 193.323 120.23C193.323 120.234 193.323 120.247 193.323 120.249C193.358 120.518 193.895 123.45 193.056 124.638C192.376 126.759 183.637 133.651 183.018 134.065C183.011 134.072 182.967 134.097 182.961 134.104C182.957 134.107 182.945 134.119 182.942 134.123C182.94 134.124 182.927 134.138 182.923 134.142C182.921 134.143 182.905 134.159 182.904 134.161C182.902 134.161 182.887 134.161 182.885 134.161C182.883 134.161 182.87 134.161 182.866 134.161C182.862 134.158 182.85 134.145 182.846 134.142C182.847 134.14 182.846 134.124 182.846 134.123C182.843 134.116 182.831 134.091 182.827 134.084C182.801 133.912 182.847 133.474 182.827 132.768C182.77 131.477 183.304 128.555 183.266 128.054C183.266 128.052 183.266 128.037 183.266 128.035C183.263 128.031 183.251 128.019 183.247 128.016C183.247 128.014 183.247 127.999 183.247 127.997C183.243 127.997 183.229 127.997 183.228 127.997C180.34 129.862 179.386 135.579 178.858 137.272C171.545 142.324 163.241 146.084 158.458 151.202C155.967 155.092 175.62 146.735 177.904 145.725C177.924 145.74 177.943 145.764 177.962 145.783C178.396 146.26 178.433 147.926 179.736 149.427C181.779 152.195 186.121 153.899 190.347 152.843C197.432 150.282 201.514 145.453 205.671 140.096C206.265 139.232 207.196 138.551 208.056 139.218C210.912 145.612 219.146 150.161 229.792 150.63C232.255 147.634 231.077 146.161 230.078 145.535C229.771 145.33 224.784 143.386 224.01 141.451C223.522 139.65 224.708 138.053 227.082 136.852C233.917 136.025 240.637 135.107 247.139 133.016C247.205 130.832 248.492 127.565 249.353 126.146C249.951 125.162 250.335 125.064 250.479 124.925C250.483 124.92 250.494 124.911 250.498 124.906C250.499 124.903 250.515 124.889 250.517 124.887C250.52 124.884 250.532 124.871 250.536 124.868C250.536 124.861 250.536 124.836 250.536 124.83C250.539 124.786 250.535 124.712 250.517 124.639L249.41 123.99L227.597 123.894C227.328 123.791 227.128 123.687 227.006 123.589C226.997 123.581 226.976 123.559 226.968 123.551C226.964 123.547 226.952 123.536 226.949 123.532C226.945 123.528 226.933 123.517 226.93 123.513C226.927 123.506 226.914 123.481 226.911 123.475C226.909 123.473 226.894 123.458 226.892 123.456C226.892 123.454 226.891 123.439 226.892 123.437C226.89 123.435 226.875 123.42 226.872 123.418C226.872 123.416 226.872 123.4 226.872 123.398C226.872 123.397 226.872 123.381 226.872 123.379C226.872 123.378 226.872 123.362 226.872 123.36C226.872 123.357 226.873 123.344 226.872 123.341C226.873 123.34 226.873 123.326 226.872 123.322C226.872 123.32 226.873 123.305 226.872 123.303C226.872 123.301 226.873 123.286 226.872 123.284C226.872 123.282 226.873 123.267 226.872 123.265C226.876 123.261 226.888 123.249 226.892 123.246C226.896 123.236 226.904 123.218 226.911 123.208C227.017 123.064 227.275 122.929 227.598 122.807C232.806 122.097 242.059 120.581 242.674 111.681C242.578 107.046 240.69 104.011 235.003 103.17C230.823 103.493 227.842 107.536 228.323 111.987C228.123 113.185 228.729 115.537 227.502 115.803C219.486 116.536 210.735 121.559 210.442 125.154C210.44 125.154 210.424 125.154 210.423 125.154C210.42 125.158 210.407 125.17 210.404 125.173C210.397 125.176 210.375 125.187 210.365 125.192C210.359 125.192 210.334 125.192 210.327 125.192C210.314 125.196 210.283 125.208 210.27 125.211C210.266 125.211 210.256 125.211 210.251 125.211C210.24 125.211 210.22 125.211 210.213 125.211C210.209 125.211 210.199 125.211 210.194 125.211C210.186 125.211 210.162 125.211 210.156 125.211C210.135 125.207 210.097 125.197 210.079 125.192C209.558 125.047 208.886 124.187 208.991 122.978C208.686 116.764 206.663 109.731 203.495 104.315C202.365 103.185 201.872 102.727 201.549 102.674C201.539 102.673 201.521 102.674 201.511 102.674C201.497 102.674 201.471 102.674 201.454 102.674C201.451 102.674 201.437 102.674 201.435 102.674C201.433 102.674 201.417 102.674 201.415 102.674C201.413 102.675 201.399 102.673 201.396 102.674L201.395 102.673ZM222.273 105.955C221.819 106.034 221.382 106.408 221.223 107.024C221.124 107.428 221.417 108.1 221.051 108.303C220.842 108.514 220.026 108.391 220.059 107.272C220.059 106.916 219.797 106.525 219.639 106.299C219.48 106.195 219.392 106.165 219.105 106.165C218.755 106.18 218.744 106.272 218.552 106.566C218.47 106.866 218.361 107.161 218.361 107.501C218.317 107.899 218.177 108.034 217.884 108.093C217.556 108.093 217.634 108.128 217.368 107.959C217.211 107.787 217.006 107.719 217.006 107.425C217.006 107.12 216.945 106.634 216.853 106.432C216.714 106.249 216.475 106.173 216.223 106.108C214.851 106.113 214.771 107.67 214.849 108.264C214.747 108.376 214.677 111.19 216.548 111.967C219.06 113.164 225.046 112.459 223.589 108.589C223.589 108.231 223.492 107.028 223.456 106.7C223.199 106.103 222.726 105.877 222.273 105.955L222.273 105.955ZM306.527 109.409C306.463 109.398 306.391 109.403 306.317 109.429C306.317 109.429 294.678 117.709 294.39 117.997C293.236 119.023 293.813 122.631 294.39 122.214C295.224 122.535 306.941 114.594 306.718 113.665C307.228 113.695 307.474 109.58 306.527 109.409L306.527 109.409ZM233.271 110.637C233.746 110.587 234.369 110.748 234.969 111.095C235.838 111.597 236.374 112.356 236.305 112.908C236.303 112.923 236.308 112.95 236.305 112.965C236.301 112.98 236.271 113.008 236.267 113.022C236.262 113.036 236.253 113.066 236.248 113.08C236.244 113.089 236.233 113.109 236.229 113.118C236.225 113.126 236.215 113.147 236.21 113.156C236.181 113.202 236.134 113.251 236.095 113.289C235.678 113.68 234.714 113.624 233.805 113.099C232.944 112.601 232.412 111.836 232.47 111.286C232.471 111.271 232.486 111.243 232.489 111.228C232.503 111.16 232.53 111.098 232.565 111.038C232.577 111.016 232.588 110.981 232.603 110.961C232.606 110.958 232.619 110.946 232.622 110.942C232.648 110.912 232.687 110.872 232.718 110.847C232.856 110.738 233.052 110.66 233.271 110.637V110.637ZM131.345 112.736C125.314 112.846 116.482 120.641 116.249 124.968C122.613 121.912 128.864 118.971 135.333 115.808C134.289 114.25 135.27 112.846 131.344 112.736L131.345 112.736ZM150.886 115.446C151.477 115.453 152.101 115.744 152.432 116.572C152.73 117.331 152.446 118.124 152.088 118.518C152.086 118.521 152.09 118.534 152.088 118.537C152.083 118.546 152.075 118.567 152.069 118.576C151.816 118.902 150.927 118.766 150.294 118.766C149.529 118.733 149.151 118.607 148.691 117.984C148.472 117.292 149.141 116.611 149.436 116.095C149.439 116.09 149.452 116.08 149.455 116.076C149.487 116.028 149.539 115.97 149.588 115.923C149.817 115.713 150.213 115.517 150.638 115.465C150.72 115.455 150.802 115.445 150.886 115.446L150.886 115.446ZM304.261 117.846C303.189 117.978 302.169 118.992 302.639 120.613C302.345 121.565 304.094 124.895 304.547 126.662C304.955 127.92 304.022 131.479 304.872 131.853C305.654 132.272 307.711 129.74 307.639 126.567C307.865 124.935 307.057 118.923 305.005 117.903C304.769 117.837 304.508 117.815 304.261 117.846L304.261 117.846ZM174 123.723C173.052 123.79 172.206 124.296 172.587 125.632C172.53 126.601 175.265 127.779 175.431 130.021C175.822 130.945 174.846 133.906 175.66 134.181C176.407 134.489 177.444 132.135 177.835 129.945C178.052 128.745 176.897 124.549 174.935 123.8C174.634 123.735 174.316 123.702 174 123.724V123.723ZM212.987 129.048C213.059 129.043 213.122 129.048 213.197 129.048C213.209 129.048 213.223 129.048 213.235 129.048C215.665 129.708 219.247 129.777 222.357 130.097C224.89 130.258 226.142 132.241 223.769 133.074C221.429 133.876 219.181 134.502 219.17 137.883C219.478 139.559 219.413 140.438 219.151 140.841C219.131 140.872 219.098 140.912 219.075 140.937C219.072 140.94 219.059 140.953 219.056 140.956C219.052 140.959 219.04 140.972 219.037 140.975C219.033 140.978 219.021 140.991 219.018 140.994L218.999 141.013C218.992 141.016 218.967 141.029 218.961 141.032C218.927 141.053 218.883 141.076 218.846 141.089C218.813 141.1 218.766 141.102 218.732 141.108C218.175 141.19 217.367 140.659 216.766 140.345C215.323 139.309 211.274 136.8 210.697 131.414C210.615 130.199 211.525 129.151 212.987 129.048L212.987 129.048ZM117.76 133.189C117.608 133.194 117.304 133.647 116.901 134.162C113.313 139.878 112.994 148.41 114.974 150.955C116.026 152.158 117.76 152.687 119.038 152.31C121.292 151.333 122.283 146.767 121.748 145.097C120.996 143.92 120.4 143.733 119.649 144.735C118.063 147.955 117.403 145.752 117.264 143.952C117.02 140.539 117.351 137.396 117.722 134.907C117.919 133.631 117.912 133.185 117.76 133.19L117.76 133.189ZM239.991 140.694C239.724 140.68 239.439 140.721 239.151 140.866C239.094 140.866 236.583 142.564 235.773 143.747C235.28 144.123 235.336 144.449 235.487 145.102C235.872 145.987 236.55 145.709 237.319 145.293C238.34 145.154 238.834 145.823 238.75 147.049C238.279 148.578 238.96 149.147 238.96 149.243C238.96 149.339 239.944 150.183 241.098 149.511C243.534 148.58 245.052 147.676 248.463 146.934C249.359 146.916 249.307 144.52 247.891 144.434C246.043 144.527 244.338 144.622 242.49 146.075C241.353 146.338 241.159 145.646 240.906 145.026C240.618 143.486 241.556 142.401 241.364 141.247C241.416 141.298 240.791 140.737 239.99 140.694H239.991ZM318.254 143.614C317.801 143.628 317.323 143.691 316.632 143.747C315.884 143.906 315.623 144.234 315.487 145.14C315.54 146.515 316.381 146.447 317.242 146.991C317.741 147.626 318.065 148.2 317.204 149.243C316.388 149.991 315.807 150.404 314.99 151.151C314.605 151.809 314.365 152.819 315.544 153.136C317.72 153.748 322.757 150.476 322.757 150.407C323.573 149.795 323.303 148.632 323.234 148.632C322.758 148.088 321.685 148.415 320.963 148.327C320.62 148.327 319.492 148.16 320.028 147.163C320.476 146.543 320.641 146.172 320.944 145.407C321.284 144.66 320.985 144.155 319.761 143.747C319.138 143.634 318.707 143.599 318.253 143.614L318.254 143.614ZM285.559 209.81C285.554 209.812 285.544 209.826 285.54 209.829C281.92 210.758 282.032 214.516 284.356 216.165C246.132 216.165 187.474 215.516 174.894 215.516C167.856 215.516 145.59 214.676 145.162 214.676C149.937 221.66 156.855 223.083 165.906 223.225C182.884 223.225 261.549 223.016 283.936 223.016C282.344 225.841 284.08 230.389 285.329 231.222C285.355 231.239 285.398 231.265 285.424 231.279C285.471 231.302 285.532 231.325 285.577 231.336C285.592 231.34 285.62 231.334 285.634 231.336C287.116 231.686 287.768 230.613 288.268 229.828C290.672 230.04 304.204 230.236 305.443 229.809C305.447 229.808 305.457 229.792 305.462 229.79C306.299 231.023 307.131 232.188 308.725 231.985C311.515 231.387 313.712 231.083 313.782 225.42C313.782 225.42 313.497 215.771 307.16 216.375C305.66 216.602 301.454 217.024 301.454 217.024C296.586 216.445 293.015 216.386 287.542 216.184C288.047 215.543 288.939 212.946 287.848 212.005C287.563 211.768 287.138 211.636 286.55 211.681C286.546 211.681 286.535 211.681 286.531 211.681C286.523 211.68 286.501 211.682 286.493 211.681C286.488 211.679 286.478 211.663 286.474 211.662C286.458 211.656 286.431 211.652 286.416 211.643C286.387 211.622 286.348 211.58 286.321 211.547C286.314 211.539 286.289 211.518 286.283 211.509C286.006 211.106 285.855 210.118 285.672 209.868C285.67 209.865 285.655 209.851 285.653 209.849C285.651 209.847 285.636 209.831 285.634 209.83C285.627 209.825 285.603 209.813 285.596 209.811C285.594 209.81 285.579 209.811 285.577 209.811C285.574 209.811 285.56 209.81 285.558 209.811L285.559 209.81ZM288.154 223.607C288.161 223.604 288.166 223.61 288.173 223.607C293.75 223.879 298.989 223.66 304.566 223.932C305.45 224.683 305.008 226.404 304.432 226.718C304.406 226.731 304.363 226.749 304.337 226.756C304.316 226.761 304.281 226.755 304.26 226.756C304.239 226.756 304.205 226.761 304.184 226.756C302.371 226.71 301.322 226.668 299.509 226.622C299.506 226.532 299.496 226.435 299.471 226.355C299.041 225.082 295.928 225.167 295.196 226.164C295.186 226.179 295.167 226.207 295.158 226.222C295.146 226.242 295.129 226.278 295.12 226.298C295.108 226.324 295.09 226.367 295.081 226.393C295.07 226.431 295.067 226.487 295.062 226.527C295.057 226.573 295.039 226.632 295.043 226.68C292.595 226.974 290.392 226.598 287.944 226.508C287.226 225.614 287.31 223.996 288.154 223.607L288.154 223.607Z" fill="white"/>
</g>
</svg>
