<svg width="450" height="302" viewBox="0 0 450 302" fill="none" xmlns="http://www.w3.org/2000/svg">
<g id="SIN">
<g id="Group 1764">
<path id="Vector" d="M447 3H3V151H447V3Z" fill="#ED2939"/>
<path id="Vector_2" d="M447 151H3V299H447V151Z" fill="white"/>
<g id="Group">
<path id="Vector_3" d="M67.5813 77C67.5813 48.6816 89.9622 25.5916 118 24.4497C112.249 22.4394 106.066 21.3458 99.6295 21.3458C68.8928 21.3458 43.9753 46.2633 43.9753 77C43.9753 107.737 68.8928 132.654 99.6295 132.654C106.068 132.654 112.249 131.561 118 129.55C89.9622 128.408 67.5813 105.318 67.5813 77Z" fill="white"/>
<path id="Vector_4" d="M101.828 63.2473L98.9531 53.8822L96.0825 63.2483L86.7236 63.2288L94.3086 68.9936L91.3979 78.3454L98.9562 72.5425L106.518 78.3423L103.604 68.9916L111.187 63.2237L101.828 63.2473Z" fill="white"/>
<path id="Vector_5" d="M170.509 63.2237L161.15 63.2473L158.275 53.8822L155.405 63.2483L146.046 63.2288L153.63 68.9936L150.72 78.3454L158.279 72.5425L165.839 78.3423L162.926 68.9916L170.509 63.2237Z" fill="white"/>
<path id="Vector_6" d="M133.295 46.9755L140.878 41.2076L131.519 41.2313L128.645 31.8661L125.774 41.2323L116.415 41.2117L123.999 46.9776L121.09 56.3293L128.648 50.5265L136.208 56.3262L133.295 46.9755Z" fill="white"/>
<path id="Vector_7" d="M110.053 89.1093L107.183 98.4754L97.8236 98.4548L105.409 104.221L102.498 113.572L110.056 107.77L117.617 113.569L114.704 104.219L122.287 98.4507L112.928 98.4744L110.053 89.1093Z" fill="white"/>
<path id="Vector_8" d="M150.05 98.4744L147.176 89.1093L144.305 98.4754L134.946 98.4548L142.53 104.221L139.62 113.572L147.179 107.77L154.739 113.569L151.826 104.219L159.409 98.4507L150.05 98.4744Z" fill="white"/>
</g>
</g>
<rect id="Rectangle 33" x="1.5" y="1.5" width="447" height="299" stroke="#D1D1D1" stroke-width="3"/>
</g>
</svg>
