<svg width="456" height="231" viewBox="0 0 456 231" fill="none" xmlns="http://www.w3.org/2000/svg">
<g id="TKJ">
<rect id="Rectangle 17" x="1.5" y="1.5" width="453" height="228" stroke="#D1D1D1" stroke-width="3"/>
<g id="Group 1777">
<path id="Vector" d="M3 3H453V228H3V3Z" fill="#006600"/>
<path id="Vector_2" d="M3 3H453V163.714H3V3Z" fill="white"/>
<path id="Vector_3" d="M3 3H453V67.2857H3V3Z" fill="#CC0000"/>
<g id="Group">
<path id="Vector_4" d="M219 112.51C219.439 111.756 220.112 111.165 220.916 110.826C221.721 110.488 222.614 110.421 223.46 110.635C224.306 110.85 225.059 111.334 225.606 112.014C226.153 112.694 226.463 113.534 226.489 114.407V130.478H229.511V114.407C229.538 113.534 229.848 112.694 230.394 112.014C230.941 111.334 231.694 110.85 232.541 110.635C233.387 110.421 234.28 110.488 235.084 110.826C235.889 111.165 236.561 111.756 237 112.51C237.473 111.086 237.6 109.569 237.372 108.085C237.144 106.601 236.567 105.193 235.688 103.975C234.81 102.758 233.655 101.767 232.318 101.083C230.981 100.4 229.501 100.043 228 100.043C226.499 100.043 225.019 100.4 223.683 101.083C222.346 101.767 221.191 102.758 220.312 103.975C219.433 105.193 218.856 106.601 218.628 108.085C218.4 109.569 218.528 111.086 219 112.51Z" fill="#F8C300"/>
<path id="Vector_5" d="M221.153 108.316C222.472 108.046 223.843 108.198 225.071 108.748C226.299 109.299 227.324 110.222 228 111.386C228.676 110.222 229.7 109.299 230.929 108.748C232.157 108.198 233.527 108.046 234.846 108.316C234.619 106.662 233.8 105.145 232.542 104.048C231.283 102.95 229.67 102.346 228 102.346C226.33 102.346 224.717 102.95 223.458 104.048C222.199 105.145 221.381 106.662 221.153 108.316Z" fill="white"/>
<path id="a" d="M226.489 124.059C226.285 126.339 225.443 128.516 224.061 130.341C222.678 132.166 220.811 133.566 218.671 134.38C216.532 135.195 214.206 135.392 211.96 134.949C209.714 134.506 207.638 133.441 205.968 131.874C205.254 133.666 204.142 135.271 202.716 136.568C201.29 137.865 199.587 138.821 197.736 139.362C195.886 139.903 193.936 140.015 192.036 139.691C190.135 139.366 188.334 138.613 186.768 137.489C187.941 149.197 205.491 146.807 206.799 135.422C212.313 145.102 224.437 142.33 227.984 130.472L226.489 124.059Z" fill="#F8C300"/>
<path id="a_2" d="M229.495 124.059C229.7 126.339 230.542 128.516 231.924 130.341C233.306 132.166 235.174 133.566 237.313 134.38C239.453 135.195 241.778 135.392 244.024 134.949C246.271 134.506 248.347 133.441 250.017 131.874C250.73 133.666 251.842 135.271 253.269 136.568C254.695 137.865 256.398 138.821 258.248 139.362C260.099 139.903 262.048 140.015 263.949 139.691C265.849 139.366 267.651 138.613 269.217 137.489C268.044 149.197 250.493 146.807 249.186 135.422C243.672 145.102 231.548 142.33 228 130.472L229.495 124.059Z" fill="#F8C300"/>
<path id="Vector_6" d="M196.822 156.643C217.166 150.587 238.834 150.587 259.179 156.643" stroke="#F8C300" stroke-width="16"/>
<g id="Group_2">
<g id="Group_3">
<path id="c" d="M228 71.8875L232.853 86.8217L220.149 77.5918H235.852L223.148 86.8217L228 71.8875Z" fill="#F8C300"/>
</g>
</g>
</g>
<g id="Frame" clip-path="url(#clip0)">
<g id="Group_4">
<path id="Vector_7" d="M211.087 144.336C210.714 142.671 209.254 141.234 208.207 140.52C207.21 141.62 206.5 143.654 206.847 145.123C205.005 145.457 203.282 146.676 203.282 146.676C207.564 150.944 212.459 150.035 214.905 144.75C214.905 144.747 213.668 144.001 211.087 144.336Z" fill="#F8C300"/>
<path id="Vector_8" d="M228.142 138.887C226.978 139.81 225.946 141.703 226.049 143.207C224.175 143.24 222.282 144.159 222.282 144.159C225.811 149.067 230.787 148.967 234.065 144.149C234.065 144.149 232.963 143.211 230.363 143.121C230.266 141.417 229.058 139.765 228.142 138.887Z" fill="#F8C300"/>
<path id="Vector_9" d="M249.578 145.062C249.761 143.365 248.838 141.536 248.077 140.523C246.778 141.243 245.454 142.944 245.309 144.445C243.458 144.172 241.436 144.77 241.436 144.77C244.12 150.186 249.044 150.899 253.062 146.679C253.062 146.676 252.127 145.573 249.578 145.062Z" fill="#F8C300"/>
<path id="Vector_10" d="M228.138 71.7859L226.284 77.4912H220.286L225.139 81.0173L223.285 86.7195L228.138 83.1934L232.989 86.7195L231.137 81.0173L235.988 77.4912H229.99L228.138 71.7859Z" fill="#F8C300"/>
<path id="Vector_11" d="M205.638 89.2234L210.489 92.7495L208.637 87.0441L213.488 83.5181H207.49L205.638 77.8159L203.784 83.5181H197.786L202.639 87.0441L200.785 92.7495L205.638 89.2234Z" fill="#F8C300"/>
<path id="Vector_12" d="M191.02 99.9912L189.165 94.2859L187.314 99.9912H181.316L186.166 103.517L184.315 109.219L189.165 105.693L194.019 109.219L192.164 103.517L197.018 99.9912H191.02Z" fill="#F8C300"/>
<path id="Vector_13" d="M184.99 122.491L183.138 116.786L181.284 122.491H175.286L180.139 126.017L178.285 131.719L183.138 128.193L187.989 131.719L186.137 126.017L190.988 122.491H184.99Z" fill="#F8C300"/>
<path id="Vector_14" d="M252.49 83.5181L250.638 77.8159L248.784 83.5181H242.786L247.639 87.0441L245.785 92.7495L250.638 89.2234L255.489 92.7495L253.637 87.0441L258.488 83.5181H252.49Z" fill="#F8C300"/>
<path id="Vector_15" d="M267.108 105.693L271.962 109.219L270.107 103.517L274.961 99.9912H268.963L267.108 94.2859L265.254 99.9912H259.256L264.109 103.517L262.255 109.219L267.108 105.693Z" fill="#F8C300"/>
<path id="Vector_16" d="M276.137 126.017L280.988 122.491H274.99L273.138 116.786L271.284 122.491H265.286L270.139 126.017L268.285 131.719L273.138 128.193L277.989 131.719L276.137 126.017Z" fill="#F8C300"/>
</g>
</g>
</g>
</g>
<defs>
<clipPath id="clip0">
<rect width="105.702" height="77.6186" fill="white" transform="translate(175.286 71.7859)"/>
</clipPath>
</defs>
</svg>
