<svg width="450" height="300" viewBox="0 0 450 300" fill="none" xmlns="http://www.w3.org/2000/svg">
<g id="TKM">
<path id="Vector" d="M0 0H450V300H0V0Z" fill="#00843D"/>
<g id="Group">
<path id="Vector_2" d="M223.411 33.2715C236.711 38.9815 246.029 52.1965 246.029 67.585C246.029 88.1975 229.314 104.912 208.702 104.912C199.474 104.912 191.029 101.56 184.513 96.01C188.655 97.7852 193.086 98.7934 197.588 98.9855C218.181 99.8845 235.609 83.9145 236.508 63.322C237.03 51.367 231.865 40.4785 223.411 33.2715Z" fill="white"/>
<path id="a" d="M187.808 60.7099L192.037 47.6934L180.965 55.7384H194.651L183.579 47.6934L187.808 60.7099Z" fill="white"/>
</g>
<path id="Vector_3" d="M53.999 0H134.999V300H53.999V0Z" fill="#D22730"/>
<path id="Intersect" fill-rule="evenodd" clip-rule="evenodd" d="M134.999 19.4895L127.611 12.6319L129.147 11.1754L125.916 8.15642L128.697 5.56142L126.525 3.54842L122.977 6.85842L115.741 0.19043H117.887L122.976 4.84642L125.518 2.48942H123.399L123.691 0.820923H126.551L132.723 6.56742V8.52742H130.365V6.32942L128.406 8.15642L131.663 11.1754L130.127 12.6319L134.999 17.1596V19.4895ZM134.999 0.19043V5.21742L133.41 3.62792V1.32392H131.371L130.237 0.19043H134.999ZM121.839 0.19043L121.704 0.979923L120.858 0.19043H121.839Z" fill="#FFC72C"/>
<path id="Intersect_2" fill-rule="evenodd" clip-rule="evenodd" d="M54.0014 19.4887L61.3875 12.6319L59.8515 11.1754L63.0825 8.15642L60.3015 5.56142L62.4735 3.54842L66.022 6.85842L73.2578 0.19043H71.1118L66.023 4.84642L63.481 2.48942H65.5995L65.3075 0.820923H62.4475L56.276 6.56742V8.52742H58.6335V6.32942L60.593 8.15642L57.3355 11.1754L58.8715 12.6319L54.0014 17.1587V19.4887ZM54.0009 5.21653L55.589 3.62792V1.32392H57.628L58.762 0.19043H54.0009V5.21653ZM67.16 0.19043L67.2945 0.979923L68.1415 0.19043H67.16Z" fill="#FFC72C"/>
<path id="Vector_4" d="M60.57 265.412C60.97 267.115 62.324 268.401 62.647 270.168C63.293 268.326 63.889 266.782 63.444 264.766C63.1255 263.325 61.913 262.296 61.7725 260.815C60.4505 262.004 60.166 263.69 60.57 265.412ZM60.235 272.55C61.3565 274.087 62.915 275.267 64.6365 276.053C64.2975 274.706 64.9335 273.692 65.6395 272.623C66.4895 271.336 66.9045 270.072 66.211 268.59C65.888 269.36 65.454 270 64.9445 270.659C64.1915 271.687 63.696 272.601 63.5795 273.919C62.7085 273.273 62.326 272.309 61.86 271.376C61.15 270.04 60.004 268.922 58.6875 268.192C59.0375 269.691 59.3065 271.276 60.235 272.55ZM66.524 277.133C66.284 277.987 66.0775 278.833 66.124 279.726C65.383 278.927 64.399 278.326 63.521 277.683C62.326 276.716 60.932 276.034 59.9545 274.803C60.1005 276.615 60.876 278.092 62.3485 279.195C63.905 280.36 65.782 280.986 67.315 282.21C67.085 280.561 67.691 279.241 68.207 277.726C68.637 276.279 68.221 274.809 67.2395 273.706C67.254 274.929 66.868 275.979 66.5245 277.133H66.524ZM70.017 282.699C70.3395 283.949 71.2355 284.966 71.847 286.081C70.1975 285.57 68.742 284.675 67.2515 283.834C65.4755 282.867 63.5465 282.251 61.939 280.974C62.739 283.936 64.7225 285.654 67.6235 286.529C69.607 287.128 71.2785 286.829 73.6855 287.802C73.4095 286.173 72.923 284.414 72.1525 282.945C71.555 281.883 70.892 280.835 70.5225 279.664C69.9875 280.626 69.7345 281.604 70.017 282.699ZM76.0865 287.232C76.6471 288.2 77.4144 289.032 78.3335 289.669C75.992 289.819 74.108 288.335 71.825 288.27C70.415 288.23 69.0765 288.668 67.6385 288.537C69.345 289.688 71.1315 290.694 73.209 290.962C75.9095 291.312 78.4 290.632 81.3795 290.898C79.987 289.915 79.2905 288.6 78.4225 287.186C77.2925 285.42 76.226 284.161 74.028 283.877C74.9105 284.869 75.424 286.097 76.0865 287.232V287.232ZM84.402 291.118C80.277 291.82 76.324 292.727 72.1115 292.769C76.827 294.413 81.2705 294.71 85.9475 293.013C88.475 292.095 90.4125 291.604 92.3215 291.741C95.1115 291.941 98.5015 293.042 102.254 296.999L103.729 295.819C98.351 291.028 91.3145 289.943 84.402 291.118V291.118Z" fill="#FFC72C"/>
<path id="Vector_5" d="M64.1331 35.1701L57.6426 31.1896V21.6221L64.1331 17.6421V12.5796L70.2666 8.8856H75.1666L84.4906 3.6416H104.507L113.831 8.8856H118.731L124.865 12.5796V17.6421L131.355 21.6221V31.1896L124.865 35.1696V40.2321L118.731 43.9256H113.831L104.507 49.1701H84.4906L75.1666 43.9256H70.2666L64.1331 40.2321V35.1701Z" fill="#383739"/>
<path id="Vector_6" d="M84.5342 3.86621L75.2122 9.10971H70.3392L64.3542 12.7112V17.7697L57.8657 21.7422V31.0642L64.3542 35.0367V40.1217L70.3127 43.7232H75.2122L84.5342 48.9667H104.449L113.771 43.7232H118.671L124.656 40.1212V35.0362L131.144 31.0642V21.7422L124.656 17.7697V12.7112L118.671 9.10971H113.771L104.449 3.86621H84.5342ZM85.0902 5.79921H103.92L113.242 11.0432H118.115L122.643 13.7707V18.8297L129.158 22.8022V30.0047L122.643 33.9772V39.0357L118.115 41.7632H113.242L103.92 47.0072H85.0902L75.7682 41.7632H70.8957L66.3407 39.0357V33.9772L59.8522 30.0047V22.8017L66.3402 18.8292V13.7707L70.8952 11.0432H75.7682L85.0902 5.79921Z" fill="#00843D"/>
<path id="Vector_7" d="M94.3914 26.5128V6.00879H85.1384L75.8149 11.2528H70.9539L66.5564 13.9008V18.9508L60.0664 22.9308V26.2988H94.6064V46.8033H103.859L113.183 41.5588H118.045L122.442 38.9108V33.8608L128.932 29.8808V26.5133L94.3914 26.5128Z" fill="#FFC72C"/>
<path id="Vector_8" d="M60.0654 26.5128V29.8808L66.5554 33.8608V38.9108L70.9529 41.5588H75.8139L85.1379 46.8033H94.3909V26.2983H128.931V22.9308L122.441 18.9508V13.9008L118.044 11.2528H113.182L103.858 6.00879H94.6059V26.5128H60.0654Z" fill="white"/>
<g id="e">
<g id="d">
<path id="Vector_9" d="M74.2239 13.1399L72.6259 11.6509L71.0429 12.6269L72.6434 14.1194L70.5884 15.3924H75.0729L78.9379 19.0374L80.1739 17.7324L76.4164 14.1874V11.7819L74.2239 13.1399Z" fill="#383739"/>
<path id="Vector_10" d="M81.7864 12.4861L80.1884 10.9971L78.6054 11.9731L80.2059 13.4651L78.1509 14.7386H82.6354L86.5004 18.3836L87.7364 17.0786L83.9789 13.5336V11.1276L81.7864 12.4861ZM73.6694 17.4181L72.0714 15.9286L70.4889 16.9051L72.0889 18.3971L70.0339 19.6706H74.5189L78.3829 23.3156L79.6194 22.0101L75.8619 18.4656V16.0596L73.6694 17.4181Z" fill="#383739"/>
<path id="Vector_11" d="M94.4985 5.79443H90.452L88.3345 7.83493H84.207L81.157 9.41793L81.868 11.1514L84.588 9.72243H85.7795L89.95 14.5459L94.4985 11.7759V5.79443Z" fill="#383739"/>
<path id="Vector_12" d="M72.5993 11.9186L74.0353 13.2566L72.8323 14.0016L71.3943 12.6616L72.5993 11.9186ZM76.2018 12.1661V14.2796L79.8708 17.7401L78.9288 18.7351L75.1578 15.1781H71.3403L76.2018 12.1661ZM80.1618 11.2646L81.5978 12.6026L80.3948 13.3476L78.9568 12.0076L80.1618 11.2646ZM83.7643 11.5116V13.6251L87.4333 17.0861L86.4913 18.0811L82.7203 14.5241H78.9028L83.7643 11.5116Z" fill="#D22730"/>
<path id="Vector_13" d="M72.0454 16.1963L73.4809 17.5348L72.2779 18.2798L70.8404 16.9398L72.0454 16.1963ZM75.6479 16.4438V18.5573L79.3164 22.0183L78.3749 23.0133L74.6039 19.4563H70.7859L75.6479 16.4438ZM94.3914 6.0083H90.5384L88.4209 8.0483H84.2589L81.4289 9.5173L81.9764 10.8523L84.5349 9.5083H85.8774L89.9934 14.2688L94.3914 11.5908V6.0083Z" fill="#D22730"/>
</g>
<path id="Vector_14" d="M71.5268 19.8548L69.5973 19.1343L69.5513 19.1663L67.0603 20.8948V21.3598L63.0703 26.4053L67.0603 31.4513V31.9163L69.5973 33.6763L71.5268 32.9558L70.3493 32.1758V30.6923L70.8173 30.1323H72.9078V22.6788H70.8173L70.3493 22.1188V20.6348L71.5268 19.8548Z" fill="#383739"/>
<path id="Vector_15" d="M67.2743 21.007L69.6273 19.374L71.0583 19.909L70.1353 20.5205V22.1965L70.7173 22.8925H72.6933V29.919H70.7173L70.1353 30.615V32.291L71.0583 32.9025L69.6273 33.4375L67.2743 31.8045V31.377L63.3433 26.4055L67.2748 21.434L67.2743 21.007Z" fill="#D22730"/>
</g>
<path id="Vector_16" d="M68.1016 30.6409L67.0151 29.7009V29.2479L64.6851 26.4054L67.0156 23.5629V23.1099L68.1021 22.1699L70.0531 23.7569L68.9271 23.7484L70.5911 25.4374H74.3936L77.3836 23.0989V16.9314H84.8636L93.5496 11.6014V10.2034L92.2211 9.31793H91.8001L90.3536 10.2859L90.1296 11.0079L88.9976 9.46293L91.1971 7.61543H91.5486L94.0306 5.79443H94.9661L97.4481 7.61543H97.7996L99.9991 9.46293L98.8676 11.0079L98.6436 10.2859L97.1966 9.31793H96.7761L95.4476 10.2029V11.6014L104.134 16.9314H111.613V23.0989L114.603 25.4374H118.406L120.07 23.7484L118.944 23.7569L120.895 22.1704L121.981 23.1104V23.5629L124.312 26.4054L121.981 29.2479V29.7009L120.895 30.6409L118.944 29.0544L120.07 29.0629L118.406 27.3739H114.604L111.613 29.7124V35.8799H104.134L95.4476 41.2099V42.6079L96.7761 43.4929H97.1966L98.6436 42.5254L98.8676 41.8029L99.9991 43.3479L97.7996 45.1959H97.4481L94.9661 47.0169H94.0306L91.5486 45.1959H91.1971L88.9971 43.3479L90.1296 41.8029L90.3536 42.5254L91.7996 43.4934H92.2206L93.5496 42.6084V41.2099L84.8631 35.8799H77.3841V29.7119L74.3931 27.3734H70.5911L68.9271 29.0624L70.0531 29.0539L68.1016 30.6409Z" fill="#383739"/>
<path id="Vector_17" d="M94.6053 43.6598L95.5558 44.3868L94.6053 45.1133V43.6603V43.6598ZM91.5833 44.9818H91.6183L94.1003 46.8033H94.3903V45.3823L93.0883 44.3868L94.3903 43.3908V40.7223L85.0958 35.0183H78.2248V29.2873L74.6773 26.5123H69.3268L67.9818 28.0333L66.6368 26.5128H65.0488L67.2288 29.1718V29.6033L68.0923 30.3533L69.4793 29.2733L68.6653 29.2798V29.0098L70.4798 27.1598H74.4668L77.5978 29.6088V35.6653H84.9233L93.7633 41.0903V42.7223L92.2853 43.7073H91.7338L90.1708 42.6608L90.0508 42.2723L89.2883 43.3123L91.2748 44.9813H91.5833V44.9818ZM67.9833 25.1018L69.0418 26.2988H66.9238L67.9833 25.1018ZM94.3908 7.69829L93.4408 8.42479L94.3908 9.15179V7.69829ZM119.954 26.5133L121.013 27.7098L122.072 26.5128L119.954 26.5133ZM97.3773 7.82979L94.8953 6.00879H94.6053V7.42879L95.9083 8.42529L94.6053 9.42129V12.0898L103.9 17.7933H110.771V23.5253L114.318 26.2998H119.668L121.013 24.7793L122.358 26.2993H123.947L121.767 23.6408V23.2088L120.904 22.4588L119.516 23.5388L120.331 23.5323V23.8023L118.516 25.6523H114.529L111.398 23.2033V17.1453H104.072L95.2328 11.7203V10.0883L96.7108 9.10329H97.2618L98.8253 10.1503L98.9453 10.5383L99.7078 9.49829L97.7213 7.82879H97.3773V7.82979Z" fill="#FFC72C"/>
<path id="Vector_18" d="M94.3908 45.1128L93.4408 44.3863L94.3908 43.6598V45.1128ZM69.0418 26.5128L67.9828 27.7098L66.9238 26.5128H69.0418ZM97.4123 44.9813H97.3773L94.8953 46.8028H94.6053V45.3828L95.9083 44.3863L94.6053 43.3898V40.7218L103.9 35.0178H110.771V29.2868L114.318 26.5123H119.668L121.013 28.0328L122.358 26.5123H123.947L121.767 29.1713V29.6028L120.904 30.3528L119.516 29.2728L120.331 29.2793V29.0093L118.516 27.1593H114.529L111.398 29.6083V35.6658H104.072L95.2328 41.0898V42.7218L96.7108 43.7068H97.2618L98.8253 42.6603L98.9453 42.2718L99.7078 43.3123L97.7213 44.9808H97.4123V44.9813ZM121.013 25.1013L119.954 26.2983H122.073L121.013 25.1013ZM91.6198 7.82979L94.1013 6.00879H94.3913V7.42879L93.0888 8.42529L94.3918 9.42129V12.0898L85.0968 17.7938H78.2268V23.5248L74.6788 26.2993H69.3273L67.9823 24.7788L66.6373 26.2988H65.0498L67.2298 23.6403V23.2088L68.0933 22.4588L69.4798 23.5388L68.6658 23.5318V23.8023L70.4808 25.6513H74.4673L77.5983 23.2028V17.1453H84.9238L93.7638 11.7208V10.0883L92.2858 9.10379H91.7348L90.1713 10.1503L90.0513 10.5383L89.2888 9.49829L91.2758 7.82929H91.6193L91.6198 7.82979ZM94.6058 9.15229L95.5563 8.42529L94.6058 7.69829V9.15229Z" fill="white"/>
<path id="Vector_19" d="M94.3914 26.5123V12.3398L85.1569 18.0068H78.4399V23.6283L75.0259 26.2983H94.6059V40.4708L103.839 34.8038H110.557V29.1828L113.971 26.5128L94.3914 26.5123Z" fill="#00843D"/>
<path id="Vector_20" d="M75.0254 26.5123L78.4399 29.1823V34.8038H85.1569L94.3914 40.4708V26.2978L113.971 26.2983L110.557 23.6283V18.0068H103.839L94.6059 12.3403V26.5123H75.0254Z" fill="#D22730"/>
<path id="Vector_21" d="M84.5588 19.5315L82.9613 18.0425L81.3783 19.0185L82.9783 20.5105L80.9233 21.784H85.4083L89.2728 25.429L90.5088 24.124L86.7513 20.579V18.1735L84.5588 19.5315ZM104.436 33.28L106.034 34.769L107.617 33.7925L106.017 32.3005L108.072 31.0275H103.587L99.7228 27.382L98.4863 28.6875L102.244 32.2325V34.638L104.436 33.28ZM84.5588 33.28L82.9608 34.769L81.3783 33.7925L82.9783 32.3005L80.9233 31.0275H85.4083L89.2723 27.382L90.5088 28.6875L86.7513 32.2325V34.638L84.5588 33.28ZM104.436 19.5315L106.034 18.0425L107.617 19.0185L106.017 20.5105L108.072 21.784H103.587L99.7228 25.429L98.4863 24.124L102.244 20.579V18.1735L104.436 19.5315Z" fill="#383739"/>
<path id="Vector_22" d="M106.061 34.5011L104.625 33.1626L105.828 32.4176L107.266 33.7576L106.061 34.5011ZM102.458 34.2536V32.1401L98.7898 28.6796L99.7318 27.6846L103.502 31.2416H107.32L102.458 34.2536ZM82.9348 18.3101L84.3708 19.6486L83.1673 20.3936L81.7298 19.0536L82.9348 18.3101ZM86.5378 18.5581V20.6711L90.2063 24.1321L89.2643 25.1271L85.4938 21.5701H81.6758L86.5378 18.5581Z" fill="#D22730"/>
<path id="Vector_23" d="M106.061 18.3101L104.625 19.6486L105.828 20.3936L107.266 19.0536L106.061 18.3101ZM102.458 18.5581V20.6711L98.7898 24.1321L99.7318 25.1271L103.502 21.5701H107.32L102.458 18.5581ZM82.9348 34.5011L84.3703 33.1626L83.1673 32.4176L81.7298 33.7576L82.9348 34.5011ZM86.5373 34.2536V32.1401L90.2063 28.6796L89.2643 27.6846L85.4938 31.2416H81.6758L86.5373 34.2536Z" fill="#00843D"/>
<path id="Vector_24" d="M104.428 26.4061L94.4983 33.0236L84.5688 26.4061L94.4983 19.7881L104.428 26.4061Z" fill="#383739"/>
<path id="Vector_25" d="M94.3917 20.1162L85.1162 26.2982H103.882L94.6062 20.1162V32.6947L103.882 26.5122H85.1157L94.3917 32.6947V20.1162Z" fill="white"/>
<path id="Vector_26" d="M97.1542 28.6816V30.5011H91.8442V28.6811H88.4072V24.1301H91.8437V22.3101H97.1542V24.1301H100.591V28.6816H97.1542Z" fill="#383739"/>
<path id="Vector_27" d="M92.0581 22.5239V24.3439H88.6216V26.2984H94.3916V22.5239H92.0581ZM94.6061 26.2984H100.376V24.3434H96.9401V22.5239H94.6061V26.2984ZM88.6216 26.5124V28.4674H92.0581V30.2869H94.3916V26.5124H88.6216ZM94.6066 30.2869H96.9401V28.4674H100.377V26.5124H94.6066V30.2874V30.2869Z" fill="#D22730"/>
<path id="Vector_28" d="M111.438 101.805V98.8902H119.432V95.9752H127.426V69.6342H119.432V66.7192H111.438V63.8042H103.444V60.8892H85.5533V63.8042H77.5588V66.7192H69.5648V69.6342H61.5698V95.9752H69.5643V98.8902H77.5583V101.805H85.5528V104.72H103.444V101.805H111.438Z" fill="#383739"/>
<path id="Vector_29" d="M85.7792 61.0967V64.0097H77.7812V66.9232H69.7832V69.8362H61.7852V95.7632H69.7832V98.6767H77.7812V101.589H85.7792V104.502H103.231V101.589H111.229V98.6767H119.228V95.7632H127.225V69.8362H119.228V66.9232H111.229V64.0097H103.231V61.0967H85.7792ZM87.8977 63.2152H101.113V66.1282H109.111V69.0417H117.109V71.9547H125.106V93.6447H117.109V96.5577H109.111V99.4707H101.112V102.383H87.8977V99.4707H79.9002V96.5577H71.9022V93.6442H63.9042V71.9542H71.9022V69.0417H79.9002V66.1282H87.8982L87.8977 63.2152Z" fill="#FFC72C"/>
<path id="Vector_30" d="M80.1047 99.2596V96.3446H72.1107V93.4296H64.1162V72.1796H72.1107V69.2641H80.1047V66.3491H88.0987V63.4341H100.899V66.3491H108.894V69.2641H116.887V72.1791H124.882V93.4291H116.887V96.3441H108.894V99.2596H100.899V102.175H88.0992V99.2596H80.1047Z" fill="#D22730"/>
<path id="Vector_31" d="M81.9603 68.5071L79.8898 66.9421V69.9471L77.9068 71.2071L77.9018 69.3261L76.0003 71.0341L74.0983 69.3261L74.0933 71.2076L71.8963 69.8111V72.5976L70.1203 73.8831L70.1153 72.1746L68.0058 73.7026L65.8963 72.1746L65.8913 73.8831L63.9013 72.4426V80.8831H61.5703V84.7256H63.9013V93.1661L65.8913 91.7251L65.8963 93.4341L68.0063 91.9061L70.1153 93.4341L70.1203 91.7251L71.8958 93.0106V95.7976L74.0933 94.4011L74.0983 96.2826L75.9998 94.5746L77.9018 96.2826L77.9068 94.4011L79.8893 95.6611V98.6666L81.9603 97.1016L81.9648 99.2006L83.9938 97.3856L86.0233 99.2006L86.0278 97.1016L87.8843 98.5046V101.71L90.6598 99.1801V102.153L94.4988 99.6851L98.3378 102.153V99.1801L101.113 101.71V98.5051L102.969 97.1016L102.974 99.2006L105.003 97.3856L107.033 99.2006L107.037 97.1016L109.107 98.6666V95.6611L111.091 94.4011L111.096 96.2826L112.998 94.5746L114.899 96.2826L114.904 94.4011L117.102 95.7976V93.0106L118.878 91.7256L118.883 93.4341L120.992 91.9061L123.102 93.4341L123.107 91.7251L125.097 93.1661V84.7251H127.427V80.8826H125.096V72.4421L123.106 73.8826L123.101 72.1741L120.992 73.7021L118.882 72.1741L118.878 73.8826L117.102 72.5971V69.8106L114.905 71.2071L114.9 69.3256L112.998 71.0336L111.096 69.3256L111.091 71.2071L109.108 69.9466V66.9416L107.038 68.5066L107.033 66.4071L105.004 68.2221L102.974 66.4071L102.97 68.5066L101.113 67.1031V63.8981L98.3383 66.4281V63.4551L94.4988 65.9231L90.6598 63.4551V66.4281L87.8848 63.8981V67.1031L86.0278 68.5066L86.0233 66.4071L83.9938 68.2221L81.9648 66.4071L81.9603 68.5071Z" fill="#383739"/>
<path id="Vector_32" d="M66.1052 74.302L66.1102 72.593L68.0067 73.967L68.0702 73.9205L69.9027 72.593L69.9077 74.302L71.8967 72.862V92.7465L69.9077 91.3065L69.9027 93.0155L68.0067 91.6415L66.1102 93.0155L66.1052 91.3065L64.1162 92.7465V84.511H61.7852V81.0975H64.1162V72.8625L66.1052 74.302ZM82.1782 66.886L83.9942 68.51L85.8107 66.886L85.8152 68.937L87.8847 67.3725V98.2365L85.8147 96.6715L85.8107 98.723L83.9942 97.0985L82.1782 98.723L82.1742 96.672L80.1047 98.2365V67.3725L82.1742 68.9375L82.1782 66.886ZM106.82 66.886L105.004 68.51L103.188 66.886L103.183 68.937L101.114 67.3725V98.2365L103.183 96.6715L103.188 98.723L105.004 97.0985L106.82 98.723L106.825 96.672L108.894 98.2365V67.3725L106.825 68.9375L106.82 66.886ZM122.893 74.302L122.888 72.593L120.992 73.967L120.928 73.9205L119.095 72.593L119.09 74.302L117.102 72.862V92.7465L119.09 91.3065L119.095 93.0155L120.992 91.6415L122.888 93.0155L122.893 91.3065L124.882 92.7465V84.511H127.213V81.0975H124.882V72.8625L122.893 74.302Z" fill="#00843D"/>
<path id="Vector_33" d="M74.3114 69.8056L75.9999 71.3226L77.6889 69.8056L77.6939 71.5971L79.8899 70.2011V95.4076L77.6939 94.0121L77.6889 95.8031L75.9999 94.2866L74.3114 95.8031L74.3064 94.0121L72.1099 95.4076V70.2011L74.3064 71.5971L74.3114 69.8056ZM90.8739 66.9136L88.0984 64.3836V101.225L90.8739 98.6951V101.761L94.4984 99.4306L98.1234 101.761V98.6951L100.898 101.225V64.3836L98.1234 66.9136V63.8481L94.4984 66.1781L90.8739 63.8481V66.9136ZM114.686 69.8056L112.998 71.3226L111.309 69.8056L111.304 71.5971L109.107 70.2011V95.4076L111.304 94.0121L111.309 95.8031L112.998 94.2866L114.686 95.8031L114.691 94.0121L116.888 95.4076V70.2011L114.691 71.5971L114.686 69.8056Z" fill="#FFC72C"/>
<g id="g">
<g id="f">
<path id="Vector_34" d="M67.1441 79.183C67.3866 79.428 67.6771 79.5515 68.0061 79.5515C68.3356 79.5515 68.6256 79.428 68.8686 79.183C69.6276 78.418 69.6536 77.0345 69.6456 76.0385L68.6096 77.1335L68.0061 76.092C68.0061 76.092 67.5136 76.943 67.4026 77.1335L66.3666 76.0385C66.3591 77.0345 66.3846 78.418 67.1441 79.183ZM75.4831 77.04L74.8431 76.401V75.128L73.3746 76.489L76.0001 79.115L78.6261 76.489L77.1571 75.128V76.401L76.5176 77.04V74.7845L77.6501 73.812L76.0001 72.395L74.3501 73.812L75.4831 74.7845V77.04ZM83.4766 74.51L82.8371 73.8705V72.5975L81.3686 73.959L83.9941 76.5845L86.6196 73.959L85.1511 72.5975V73.8705L84.5111 74.51V72.254L85.6441 71.2815L83.9941 69.865L82.3441 71.2815L83.4766 72.254V74.51Z" fill="#383739"/>
<path id="Vector_35" d="M68.0066 76.5194L68.5681 77.4894L69.4226 76.5864C69.3926 77.7114 69.1461 78.5994 68.7166 79.0314C68.5156 79.2344 68.2766 79.3374 68.0066 79.3374C67.7366 79.3374 67.4976 79.2344 67.2966 79.0319C66.8671 78.5994 66.6201 77.7109 66.5906 76.5869L67.4446 77.4894L68.0066 76.5194ZM84.2976 72.1559V75.0274L85.3656 73.9599V73.0884L86.3111 73.9654L83.9946 76.2819L81.6776 73.9654L82.6231 73.0884V73.9599L83.6911 75.0274V72.1559L82.6736 71.2819L83.9946 70.1479L85.3156 71.2819L84.2976 72.1559Z" fill="white"/>
<path id="Vector_36" d="M76.3036 74.686V77.5575L77.3716 76.4895V75.6185L78.3171 76.495L76.0001 78.812L73.6836 76.495L74.6291 75.6185V76.4895L75.6971 77.5575V74.686L74.6796 73.812L76.0001 72.678L77.3216 73.812L76.3036 74.686Z" fill="#D22730"/>
</g>
<path id="Vector_37" d="M97.6413 75.4684L96.7812 74.2799L98.9868 72.2439L96.9303 70.5539V71.7509L96.0703 72.4869V70.3159L98.0127 68.8839L94.4983 66.2939L90.9837 68.8839L92.9273 70.3159V72.4869L92.0673 71.7509V70.5539L90.0103 72.2439L92.2163 74.2799L91.3563 75.4684H97.6413Z" fill="#383739"/>
<path id="Vector_38" d="M91.7759 75.2546L92.5009 74.2516L90.3369 72.2536L91.8529 71.0081V71.8501L93.1414 72.9531V70.2081L91.3454 68.8846L94.4989 66.5601L97.6519 68.8846L95.8564 70.2081V72.9531L97.1449 71.8501V71.0081L98.6609 72.2536L96.4964 74.2516L97.2219 75.2546H91.7759Z" fill="#D22730"/>
<path id="Vector_39" d="M92.8926 68.8844L94.4986 70.0679L96.1046 68.8844L94.4986 67.7004L94.4351 67.7479L92.8926 68.8844Z" fill="#383739"/>
<path id="Vector_40" d="M94.4984 67.9668L95.7434 68.8843L94.4984 69.8018L93.2534 68.8843L94.4984 67.9668Z" fill="#00843D"/>
</g>
<path id="Vector_41" d="M122.951 81.5749H119.432V80.1724H108.677L101.19 75.2544H87.8074L80.3204 80.1724H69.5654V81.5749H66.0464V84.0339H69.5649V85.4364H80.3204L87.8074 90.3544H101.19L108.677 85.4364H119.432V84.0339H122.951V81.5749Z" fill="#383739"/>
<path id="Vector_42" d="M87.8712 75.4766L80.3762 80.3761H69.7832V81.7796H66.2612V83.8186H69.7832V85.2226H80.3767L87.8712 90.1481H101.139L108.607 85.2226H119.227V83.8186H122.749V81.7796H119.227V80.3761H108.607L101.139 75.4766H87.8712ZM88.0302 76.1916H100.954L107.813 80.6936V81.3821H115.467V84.2421H107.813V84.9311L100.954 89.4066H88.0302L81.1977 84.9311V84.2426H73.5177V81.3826H81.1977V80.6936L88.0302 76.1916Z" fill="#D22730"/>
<path id="Vector_43" d="M100.9 76.4131L107.589 80.8046V81.5846H115.255V84.0246H107.589V84.8041L100.9 89.1956H88.0977L81.4077 84.8041V84.0241H73.7422V81.5841H81.4082V80.8046L88.0977 76.4131H100.9Z" fill="#D22730"/>
<g id="Group_2">
<path id="Vector_44" d="M84.7755 85.2989L87.672 87.4734L89.577 86.0424L88.4695 85.2109L87.672 85.8099L86.991 85.2989L97.8985 77.1094H95.6835L84.7755 85.2989ZM91.098 88.4989H93.313L104.221 80.3099L101.325 78.1359L99.4195 79.5659L100.527 80.3974L101.325 79.7984L102.006 80.3099L91.098 88.4989ZM95.6835 88.4989H97.8985L86.991 80.3099L87.672 79.7984L88.4695 80.3974L89.5775 79.5664L87.672 78.1359L84.7755 80.3099L95.6835 88.4989ZM102.006 85.2989L101.325 85.8099L100.527 85.2109L99.4195 86.0424L101.325 87.4734L104.221 85.2989L93.313 77.1094H91.098L102.006 85.2989ZM82.582 82.8044L84.5285 84.0974L86.4755 82.8044L84.5285 81.5114L82.582 82.8044Z" fill="#383739"/>
<path id="Vector_45" d="M92.552 82.8045L94.4985 84.0975L96.4455 82.8045L94.4985 81.5115L92.552 82.8045ZM106.416 82.8045L104.469 84.0975L102.522 82.8045L104.469 81.5115L106.416 82.8045Z" fill="#383739"/>
<path id="Vector_46" d="M103.865 85.299L101.326 87.2055L99.7766 86.0425L100.528 85.479L101.326 86.078L102.363 85.299L91.7406 77.324H93.2421L103.865 85.299ZM97.2566 88.285H95.7551L85.1331 80.31L87.6726 78.4035L89.2206 79.5665L88.4701 80.1295L87.6726 79.5305L86.6346 80.31L97.2566 88.285ZM93.2421 88.285H91.7406L102.363 80.31L101.326 79.5305L100.528 80.1295L99.7766 79.5665L101.326 78.4035L103.865 80.31L93.2421 88.285ZM95.7551 77.324H97.2566L86.6346 85.299L87.6726 86.078L88.4701 85.479L89.2206 86.0425L87.6726 87.2055L85.1326 85.299L95.7551 77.324Z" fill="#FFC72C"/>
<path id="Vector_47" d="M84.5285 81.769L86.088 82.8045L84.5285 83.84L82.969 82.805L84.5285 81.769ZM94.499 81.769L96.0585 82.8045L94.499 83.84L92.94 82.805L94.499 81.769ZM104.469 81.769L102.91 82.8045L104.469 83.84L106.028 82.805L104.469 81.769Z" fill="#00843D"/>
</g>
<g id="Group_3">
<path id="Vector_48" d="M60.2572 137.076L59.4932 138.156L60.8627 139.203L59.4927 140.25L60.2567 141.33L61.8477 141.515L63.3882 140.325L67.2292 142.765V140.739L64.8117 139.203L67.2292 137.668V135.641L63.3882 138.081L61.8482 136.891L60.2572 137.076Z" fill="#383739"/>
<path id="Vector_49" d="M60.2572 130.037L59.4932 131.117L60.8627 132.164L59.4927 133.211L60.2567 134.292L61.8477 134.477L63.3882 133.286L67.2292 135.726V133.7L64.8117 132.165L67.2292 130.629V128.602L63.3882 131.042L61.8482 129.852L60.2572 130.037ZM60.2572 148.37L59.4932 147.29L60.8627 146.242L59.4927 145.195L60.2567 144.115L61.8477 143.93L63.3882 145.12L67.2292 142.68V144.707L64.8117 146.242L67.2292 147.778V149.804L63.3882 147.364L61.8482 148.554L60.2572 148.37ZM128.741 137.076L129.505 138.156L128.136 139.203L129.505 140.25L128.741 141.33L127.151 141.515L125.61 140.325L121.769 142.765V140.739L124.187 139.203L121.769 137.668V135.641L125.61 138.081L127.15 136.891L128.741 137.076Z" fill="#383739"/>
<path id="Vector_50" d="M128.741 130.036L129.505 131.117L128.136 132.164L129.505 133.211L128.741 134.291L127.151 134.476L125.61 133.286L121.769 135.726V133.699L124.187 132.164L121.769 130.628V128.602L125.61 131.042L127.15 129.852L128.741 130.036ZM128.741 148.369L129.505 147.289L128.136 146.242L129.505 145.195L128.741 144.115L127.151 143.93L125.61 145.12L121.769 142.68V144.706L124.187 146.242L121.769 147.777V149.804L125.61 147.364L127.15 148.554L128.741 148.369ZM113.364 117.865V120.793H115.494V122.087H117.586V119.73H115.72V117.865H113.364ZM119.642 122.482V125.41H121.769V126.704H123.864V124.348H121.998V122.482H119.642ZM75.6348 117.865V120.793H73.5048V122.087H71.4128V119.73H73.2788V117.865H75.6348ZM113.364 160.541V157.613H115.494V156.319H117.586V158.675H115.72V160.541H113.364ZM75.6348 160.541V157.613H73.5048V156.319H71.4128V158.675H73.2788V160.541H75.6348ZM119.642 155.924V152.996H121.769V151.702H123.864V154.058H121.998V155.924H119.642ZM69.3573 122.482V125.41H67.2292V126.704H65.1353V124.348H67.0013V122.482H69.3573ZM69.3573 155.924V152.996H67.2292V151.702H65.1353V154.058H67.0013V155.924H69.3573ZM102.377 117.797L100.752 116.219L99.1548 117.698L100.546 119.049L98.7503 120.793H101.417L102.377 119.861L103.337 120.793H106.003L104.207 119.049L105.598 117.698L104.002 116.219C103.459 116.744 102.918 117.271 102.377 117.797ZM94.4993 117.797L92.8743 116.219L91.2777 117.698L92.6693 119.049L90.8727 120.793H93.5397L94.4993 119.861L95.4593 120.793H98.1258L96.3298 119.049L97.7207 117.698L96.1247 116.219C95.5822 116.744 95.0413 117.271 94.4993 117.797ZM86.6223 117.797L88.2473 116.219L89.8443 117.698L88.4528 119.049L90.2487 120.793H87.5817L86.6223 119.861L85.6623 120.793H82.9958L84.7923 119.049L83.4007 117.698L84.9973 116.219C85.5398 116.744 86.0808 117.271 86.6223 117.797ZM102.377 160.609L100.752 162.187L99.1548 160.708L100.546 159.357L98.7503 157.613H101.417L102.377 158.545L103.337 157.613H106.003L104.207 159.357L105.598 160.707L104.002 162.187C103.459 161.662 102.918 161.135 102.377 160.609ZM94.4993 160.609L92.8743 162.187L91.2777 160.708L92.6693 159.357L90.8727 157.613H93.5397L94.4993 158.545L95.4593 157.613H98.1258L96.3298 159.357L97.7207 160.707L96.1247 162.187C95.5822 161.662 95.0413 161.135 94.4993 160.609ZM86.6223 160.609L88.2473 162.187L89.8443 160.708L88.4528 159.357L90.2487 157.613H87.5817L86.6223 158.545L85.6623 157.613H82.9958L84.7923 159.357L83.4007 160.707L84.9973 162.187C85.5398 161.662 86.0808 161.135 86.6223 160.609Z" fill="#383739"/>
</g>
<path id="Vector_51" d="M67.0146 140.857V142.375L63.3756 140.064L61.7856 141.293L60.3761 141.129L59.7871 140.295L61.2151 139.203L59.7871 138.111L60.3766 137.278L61.7851 137.114L63.3756 138.343L67.0146 136.032V137.55L64.4116 139.203L67.0146 140.857ZM67.0146 133.818V135.336L63.3756 133.025L61.7856 134.254L60.3761 134.09L59.7871 133.256L61.2151 132.164L59.7871 131.073L60.3766 130.239L61.7851 130.075L63.3756 131.304L67.0146 128.993V130.511L64.4116 132.164L67.0146 133.818ZM67.0146 144.589V143.071L63.3756 145.382L61.7856 144.153L60.3761 144.317L59.7871 145.151L61.2151 146.243L59.7871 147.335L60.3766 148.168L61.7851 148.332L63.3756 147.103L67.0146 149.414V147.896L64.4116 146.243L67.0146 144.589ZM121.984 140.857V142.375L125.623 140.064L127.213 141.293L128.622 141.129L129.211 140.295L127.783 139.203L129.211 138.111L128.622 137.278L127.213 137.114L125.623 138.343L121.984 136.032V137.55L124.587 139.203L121.984 140.857ZM121.984 133.818V135.336L125.623 133.025L127.213 134.254L128.622 134.09L129.211 133.256L127.783 132.164L129.211 131.073L128.622 130.239L127.213 130.075L125.623 131.304L121.984 128.993V130.511L124.587 132.164L121.984 133.818ZM121.984 144.589V143.071L125.623 145.382L127.213 144.153L128.622 144.317L129.211 145.151L127.783 146.243L129.211 147.335L128.622 148.168L127.213 148.332L125.623 147.103L121.984 149.414V147.896L124.587 146.243L121.984 144.589ZM115.506 118.08V119.946H117.371V121.873H115.708V120.579H113.578V118.08H115.506ZM121.783 122.697V124.562H123.649V126.49H121.985V125.196H119.856V122.697H121.783ZM73.4926 118.08V119.946H71.6271V121.873H73.2906V120.579H75.4201V118.08H73.4926ZM115.506 160.327V158.461H117.371V156.534H115.708V157.827H113.578V160.327H115.506ZM73.4926 160.327V158.461H71.6266V156.534H73.2901V157.827H75.4201V160.327H73.4926ZM121.783 155.71V153.844H123.649V151.917H121.985V153.21H119.856V155.71H121.783ZM67.2151 122.697V124.562H65.3496V126.49H67.0131V125.196H69.1426V122.697H67.2151ZM67.2156 155.71V153.844H65.3496V151.917H67.0131V153.21H69.1431V155.71H67.2156ZM100.748 116.515L102.377 118.096L104.005 116.515L105.287 117.702L103.899 119.049L105.475 120.579H103.424L102.377 119.563L101.33 120.579H99.2786L100.854 119.049L99.4661 117.702L100.748 116.515ZM92.8706 116.515L94.4991 118.096L96.1276 116.515L97.4091 117.702L96.0216 119.049L97.5971 120.579H95.5456L94.4991 119.563L93.4521 120.579H91.4011L92.9761 119.049L91.5886 117.702L92.8706 116.515ZM88.2511 116.515L86.6226 118.096L84.9941 116.515L83.7121 117.702L85.1001 119.049L83.5246 120.579H85.5756L86.6226 119.563L87.6696 120.579H89.7206L88.1451 119.049L89.5331 117.702L88.2511 116.515ZM100.748 161.892L102.377 160.311L104.005 161.892L105.287 160.705L103.899 159.358L105.475 157.828H103.424L102.377 158.844L101.33 157.828H99.2786L100.854 159.358L99.4661 160.705L100.748 161.892ZM92.8706 161.892L94.4991 160.311L96.1276 161.892L97.4091 160.705L96.0216 159.358L97.5971 157.828H95.5456L94.4991 158.844L93.4521 157.828H91.4011L92.9761 159.358L91.5886 160.705L92.8706 161.892ZM88.2511 161.892L86.6226 160.311L84.9941 161.892L83.7121 160.705L85.1001 159.358L83.5246 157.828H85.5756L86.6226 158.844L87.6696 157.828H89.7206L88.1451 159.358L89.5331 160.705L88.2511 161.892Z" fill="#00843D"/>
<path id="Vector_52" d="M73.2901 153.211V157.828H115.708V153.211H121.983V125.196H115.708V120.579H73.2901V125.196H67.0151V153.211H73.2901Z" fill="#383739"/>
<path id="Vector_53" d="M73.5172 120.789V125.398H67.2407V152.993H73.5172V157.601H115.492V152.993H121.77V125.398H115.493V120.789H73.5172ZM76.2187 122.564H112.792V127.013L114.301 128.126H119.995V150.292H114.275L112.792 151.377V155.853H76.2187V151.404L74.7087 150.292H68.9887V128.126H74.6827L76.2187 127.013V122.564V122.564Z" fill="#FFC72C"/>
<path id="Vector_54" d="M76.4301 122.775V126.854L81.9386 122.775H76.4301ZM107.044 122.775L112.553 126.854V122.775H107.044ZM69.2266 128.337V132.151L74.4176 128.337H69.2271H69.2266ZM114.566 128.337L119.783 132.177V128.337H114.566ZM119.783 146.212L114.566 150.079H119.783V146.212ZM69.2266 146.239V150.079H74.4171L69.2266 146.239ZM76.4301 151.562V155.614H81.9121L76.4301 151.562ZM112.553 151.562L107.071 155.614H112.553V151.562Z" fill="#D22730"/>
<path id="Vector_55" d="M106.688 122.78L119.782 132.451V145.956L106.688 155.627H82.3083L69.2148 145.956V132.45L82.3083 122.779L106.688 122.78Z" fill="#00843D"/>
<path id="Vector_56" d="M72.3336 147.51L70.8286 145.763L72.2416 144.123L70.8281 142.483L72.2416 140.843L70.8281 139.203L72.2416 137.563L70.8281 135.923L72.2411 134.283L70.8281 132.643L72.3336 130.896H116.664L118.17 132.643L116.757 134.283L118.17 135.923L116.757 137.563L118.17 139.203L116.757 140.843L118.17 142.483L116.757 144.123L118.17 145.763L116.665 147.51H72.3336ZM102.807 124.892L101.059 123.387L99.4191 124.8L97.7791 123.387L96.1391 124.8L94.4991 123.387L92.8591 124.8L91.2186 123.387L89.5786 124.8L87.9386 123.387L86.1916 124.892V153.514L87.9386 155.019L89.5786 153.606L91.2186 155.019L92.8586 153.606L94.4986 155.019L96.1386 153.606L97.7786 155.019L99.4186 153.606L101.059 155.019L102.807 153.514V124.892Z" fill="#383739"/>
<g id="Group_4">
<path id="Vector_57" d="M99.3113 124.991L97.7788 123.67L96.2458 124.991V153.416L97.7788 154.736L99.3113 153.416V124.991ZM92.7513 124.991L91.2183 123.67L89.6858 124.991V153.416L91.2183 154.736L92.7513 153.416V124.991Z" fill="#FFC72C"/>
<path id="Vector_58" d="M72.4313 147.297L71.1108 145.764L72.4313 144.231H116.566L117.886 145.764L116.566 147.297H72.4313ZM116.566 137.67L117.887 139.203L116.566 140.736H72.4318L71.1108 139.203L72.4318 137.67H116.566ZM116.566 134.176L117.886 132.643L116.566 131.111H72.4313L71.1108 132.643L72.4313 134.176H116.566Z" fill="#FFC72C"/>
</g>
<g id="Group_5">
<path id="Vector_59" d="M102.592 124.991L101.059 123.67L99.5263 124.991V153.416L101.059 154.736L102.591 153.416L102.592 124.991ZM89.4713 124.991L87.9383 123.67L86.4053 124.991V153.416L87.9383 154.736L89.4713 153.416V124.991Z" fill="#D22730"/>
<path id="Vector_60" d="M72.4318 144.016L71.1108 142.483L72.4318 140.95H116.566L117.887 142.483L116.566 144.016H72.4318ZM72.4318 137.456L71.1108 135.923L72.4318 134.39H116.566L117.887 135.923L116.566 137.456H72.4318Z" fill="#D22730"/>
<path id="Vector_61" d="M96.0318 153.416L94.4988 154.736L92.9658 153.416V124.991L94.4988 123.67L96.0318 124.991V153.416Z" fill="#D22730"/>
</g>
<path id="Vector_62" d="M109.315 125.545H79.5754V127.907H75.7744V150.499H79.5754V152.861H109.422V150.499H113.223V127.907H109.422V125.545H109.315Z" fill="#383739"/>
<path id="Vector_63" d="M79.7935 125.768V128.125H75.98V150.291H79.7935V152.648H82.9185L76.695 147.431V130.985L82.9185 125.768H79.7935V125.768ZM106.091 125.768L112.288 130.985V147.431L106.091 152.648H109.216V150.291H113.003V128.125H109.216V125.768H106.091Z" fill="#D22730"/>
<g id="Group_6">
<path id="Vector_64" d="M83.2627 125.768L76.9067 131.091V147.325C76.9817 147.388 83.2037 152.598 83.2627 152.648H105.747L112.076 147.325V131.091L105.747 125.768H83.2627ZM83.5807 126.668H105.403L111.176 131.515V146.901L105.403 151.721H83.5802L77.8332 146.901V131.515L83.5807 126.668Z" fill="#00843D"/>
<path id="Vector_65" d="M89.3603 147.144L90.3373 147.566L90.5168 148.707L89.2868 149.789L91.0733 151.516H89.3548L88.1258 150.333L86.8968 151.516H85.1778L86.9643 149.789L85.7343 148.707L85.9143 147.566L86.8908 147.144L88.1258 148.132L88.1928 148.078L89.3603 147.144ZM95.7343 147.144L96.7108 147.566L96.8908 148.707L95.6608 149.789L97.4473 151.516H95.7288L94.4993 150.333L93.2708 151.516H91.5518L93.3383 149.789L92.1083 148.707L92.2883 147.566L93.2648 147.144L94.4998 148.132L94.5663 148.078L95.7343 147.144ZM99.6388 147.144L98.6623 147.566L98.4823 148.707L99.7123 149.789L97.9258 151.516H99.6443L100.874 150.333L102.102 151.516H103.821L102.035 149.789L103.265 148.707L103.085 147.566L102.108 147.144L100.873 148.132L100.806 148.078L99.6388 147.144ZM89.3603 131.261L90.3373 130.839L90.5168 129.699L89.2868 128.617L91.0733 126.89H89.3548L88.1258 128.072L86.8968 126.89H85.1778L86.9643 128.617L85.7343 129.698L85.9143 130.839L86.8908 131.261L88.1258 130.274L88.1928 130.328L89.3603 131.261ZM95.7343 131.261L96.7108 130.839L96.8908 129.699L95.6608 128.617L97.4473 126.89H95.7288L94.4993 128.072L93.2708 126.89H91.5518L93.3383 128.617L92.1083 129.698L92.2883 130.839L93.2648 131.261L94.4998 130.274L94.5663 130.328L95.7343 131.261ZM99.6388 131.261L98.6623 130.839L98.4823 129.699L99.7123 128.617L97.9258 126.89H99.6443L100.874 128.072L102.102 126.89H103.821L102.035 128.617L103.265 129.698L103.085 130.839L102.108 131.261L100.873 130.274L100.806 130.328L99.6388 131.261ZM110.951 133.083L109.976 133.891L110.951 134.698V136.036L109.451 134.8L108.375 135.775L107.221 135.63L106.815 134.88L107.808 133.89L106.815 132.9L107.221 132.15C107.317 132.139 108.289 132.016 108.375 132.005L109.451 132.98L110.951 131.745V133.083ZM110.951 138.396L109.976 139.203L110.951 140.01V141.348L109.451 140.113L108.375 141.088C108.289 141.077 107.317 140.954 107.221 140.943L106.815 140.193L107.808 139.203L106.815 138.213L107.221 137.463C107.317 137.451 108.289 137.329 108.375 137.318L109.451 138.293L110.951 137.058V138.396ZM110.951 145.323L109.976 144.515L110.951 143.708V142.37L109.451 143.606L108.375 142.631L107.221 142.776L106.815 143.526L107.808 144.516L106.815 145.506L107.221 146.256C107.317 146.267 108.289 146.39 108.375 146.401L109.451 145.426L110.951 146.661V145.323ZM78.0488 133.083L79.0238 133.891L78.0488 134.698V136.036L79.5483 134.8L80.6243 135.775L81.7783 135.63L82.1848 134.88L81.1918 133.89L82.1848 132.9L81.7783 132.15C81.6823 132.139 80.7103 132.016 80.6243 132.005L79.5483 132.98L78.0488 131.745V133.083ZM78.0488 138.396L79.0238 139.203L78.0488 140.01V141.348L79.5483 140.113L80.6243 141.088C80.7103 141.077 81.6823 140.954 81.7783 140.943L82.1848 140.193L81.1918 139.203L82.1848 138.213L81.7783 137.463C81.6823 137.451 80.7103 137.329 80.6243 137.318L79.5483 138.293L78.0488 137.058V138.396ZM78.0488 145.323L79.0238 144.515L78.0488 143.708V142.37L79.5483 143.606L80.6243 142.631L81.7783 142.776L82.1848 143.526L81.1918 144.516L82.1848 145.506L81.7783 146.256C81.6823 146.267 80.7103 146.39 80.6243 146.401L79.5483 145.426L78.0488 146.661V145.323Z" fill="#00843D"/>
</g>
<path id="Vector_66" d="M83.6599 126.88C83.6019 126.929 78.3589 131.318 78.1249 131.515C78.5974 131.907 79.0549 132.316 79.5284 132.707C79.6484 132.598 80.5614 131.779 80.5614 131.779L81.9119 131.965L82.4419 132.945L81.4884 133.898C81.6179 134.027 82.4414 134.851 82.4414 134.851L81.9119 135.831L80.5614 135.99C80.5614 135.99 79.6484 135.198 79.5284 135.09L78.0454 136.334V136.758C78.5444 137.171 79.0279 137.59 79.5284 138.003C79.6484 137.895 80.5614 137.103 80.5614 137.103L81.9119 137.261L82.4419 138.241L81.4884 139.195C81.6179 139.323 82.4414 140.148 82.4414 140.148L81.9119 141.154L80.5614 141.313C80.5614 141.313 79.6484 140.495 79.5284 140.386L78.0454 141.631V142.081L79.5284 143.326C79.6484 143.218 80.5614 142.399 80.5614 142.399L81.9119 142.584L82.4419 143.564L81.4884 144.518L82.4414 145.471L81.9119 146.451L80.5614 146.636C80.5614 146.636 79.6484 145.818 79.5284 145.709C79.0564 146.098 78.5959 146.486 78.1249 146.875L83.6599 151.51H84.8779L86.6529 149.788L85.5139 148.782L85.7254 147.404L86.9174 146.901L88.1354 147.855L89.3274 146.901L90.5189 147.404L90.7574 148.782L89.5924 149.788L91.3134 151.43L93.0349 149.788L91.8699 148.782L92.0814 147.404L93.2999 146.901L94.4914 147.855L95.7094 146.901L96.9014 147.404L97.1134 148.782L95.9744 149.788L97.6694 151.456L99.3909 149.788L98.2519 148.782L98.4639 147.404L99.6819 146.901L100.874 147.855L102.065 146.901L103.284 147.404L103.496 148.782L102.357 149.788L104.131 151.509H105.323L110.858 146.875C110.386 146.486 109.927 146.099 109.454 145.71C109.334 145.818 108.448 146.636 108.448 146.636L107.097 146.451L106.541 145.471L107.494 144.518L106.541 143.564L107.097 142.584L108.448 142.399C108.448 142.399 109.334 143.218 109.454 143.326L110.937 142.081V141.631L109.454 140.386C109.334 140.495 108.448 141.313 108.448 141.313L107.097 141.154L106.541 140.148L107.494 139.195L106.541 138.241L107.097 137.261L108.448 137.103C108.448 137.103 109.334 137.895 109.454 138.003C109.951 137.593 110.441 137.193 110.937 136.785V136.308L109.454 135.09C109.334 135.198 108.448 135.99 108.448 135.99L107.097 135.831L106.541 134.851L107.494 133.898L106.541 132.945L107.097 131.965L108.448 131.78C108.448 131.78 109.334 132.598 109.454 132.706C109.929 132.315 110.41 131.932 110.884 131.541L105.323 126.88H104.131L102.357 128.601L103.495 129.608L103.284 130.985L102.065 131.515L100.874 130.561L99.6819 131.515L98.4639 130.985L98.2519 129.608L99.3909 128.601L97.6959 126.959L95.9744 128.601L97.1134 129.608L96.9014 130.985L95.7094 131.515L94.4914 130.561L93.2999 131.515L92.0814 130.985L91.8694 129.608L93.0344 128.601L91.3134 126.959L89.5919 128.601L90.7569 129.608L90.5189 130.985L89.3274 131.515L88.1354 130.561L86.9174 131.515L85.7254 130.985L85.5139 129.608L86.6524 128.601L84.8514 126.88H83.6599ZM78.0454 138.665V139.751L78.6809 139.195L78.0454 138.665Z" fill="#D22730"/>
<path id="Vector_67" d="M88.1354 150.635L87.2084 151.509H89.0354L88.1354 150.635ZM94.4914 150.635L93.5914 151.509H95.4184L94.4914 150.635ZM100.873 150.635L99.9469 151.509H101.8L100.873 150.635ZM87.1819 126.88L88.1354 127.78L89.0624 126.88H87.1819ZM93.5644 126.88L94.4914 127.78L95.4449 126.88H93.5644ZM99.9474 126.88L100.874 127.78L101.801 126.88H99.9474ZM110.937 133.368L110.302 133.898L110.937 134.401V133.368ZM110.937 138.665L110.302 139.195L110.937 139.724V138.665ZM110.937 143.988L110.302 144.518L110.937 145.047V143.988ZM78.0454 133.342V134.428L78.6809 133.898L78.0454 133.342ZM78.0454 138.665V139.75L78.6809 139.194L78.0454 138.665ZM78.0454 143.962V145.047L78.6809 144.517L78.0454 143.962Z" fill="white"/>
<g id="Group_7">
<path id="Vector_68" d="M99.9504 137.429V135.533H98.0319V133.455H90.966V135.533H89.0474V137.429H86.3979V140.978H89.0479V142.873H90.966V144.952H98.0319V142.873H99.9504V140.978H102.6V137.429H99.9504Z" fill="#383739"/>
<path id="Vector_69" d="M94.3913 133.669V135.811L91.3543 137.538V139.096H86.6118V137.643H89.2613V135.747H91.1798V133.669H94.3913ZM94.6058 144.737V142.595L97.6428 140.868V139.31H102.385V140.763H99.7358V142.659H97.8173V144.737H94.6058Z" fill="#FFC72C"/>
<path id="Vector_70" d="M97.6428 139.096V137.538L94.6058 135.811V133.669H97.8173V135.747H99.7358V137.642H102.385V139.096H97.6428ZM86.6123 139.31H91.3543V140.868L94.3918 142.595V144.737H91.1803V142.659H89.2618V140.763H86.6123V139.31Z" fill="white"/>
<path id="Vector_71" d="M91.5688 139.311V140.755L94.3913 142.36V139.311H91.5688Z" fill="#D22730"/>
<path id="Vector_72" d="M94.3913 136.047L91.5688 137.652V139.096H94.3913V136.047Z" fill="#00843D"/>
<path id="Vector_73" d="M97.4289 139.096V137.652L94.6064 136.047V139.096H97.4289Z" fill="#D22730"/>
<path id="Vector_74" d="M94.606 142.36L97.4285 140.755V139.311H94.606V142.36Z" fill="#00843D"/>
</g>
<path id="Vector_75" d="M68.8235 176.865V182.724H63.241V188.037H57.5825V203.167H63.241V208.48H68.8235V214.339H89.1225L92.6925 216.484L90.9765 217.514H83.7385L83.1145 216.81H89.674L87.826 214.949H78.4425L82.694 219.375H91.493L94.4985 217.569L97.5045 219.375H106.304L110.555 214.949H101.172L99.324 216.81H105.884L105.259 217.514H98.0205L96.3055 216.484L99.8755 214.339H120.174V208.48H125.757V203.167H131.415V188.037H125.757V182.724H120.174V176.865H99.8755L96.3055 174.72L98.0205 173.69H105.259L105.884 174.394H99.324L101.172 176.255H110.555L106.304 171.829H97.504L94.499 173.635L91.493 171.829H82.694L78.4425 176.255H87.826L89.674 174.394H83.114L83.739 173.69H90.9765L92.692 174.721L89.122 176.865H68.8235Z" fill="#D22730"/>
<path id="Vector_76" d="M99.8146 214.115H119.968V208.262H125.53V202.939H131.197V188.241H125.53V182.944H119.968V177.091H99.8151L91.4466 172.033H82.7866L78.9466 176.032H87.7386L89.1686 174.602H82.6276L83.6341 173.463H91.0491L100.53 179.183H117.85V185.036H123.438V190.359H129.106V200.847H123.438V206.17H117.85V212.023H100.53L91.0491 217.716H83.6341L82.6276 216.604H89.1691L87.7391 215.174H78.9466L82.7866 219.173H91.4466L99.8146 214.115ZM88.4536 212.023H71.1336V206.17H65.5721V200.847H59.9046V190.359H65.5721V185.036H71.1336V179.184H88.4536L97.9606 173.463H105.35L106.357 174.602H99.8416L101.272 176.032H110.064L106.224 172.033H97.5641L89.1956 177.091H69.0421V182.944H63.4541V188.241H57.7866V202.939H63.4541V208.262H69.0421V214.115H89.1956L97.5641 219.173H106.224L110.064 215.174H101.272L99.8416 216.604H106.357L105.35 217.716H97.9616L88.4536 212.023Z" fill="#FFC72C"/>
<path id="Vector_77" d="M116.171 204.477V210.336H100.071L94.4984 213.684L88.9264 210.336H72.8265V204.477H67.2435V199.163H61.5854V192.04H67.2435V186.727H72.8265V180.868H88.9264L94.4984 177.52L100.071 180.868H116.171V186.727H121.753V192.04H127.411V199.163H121.753V204.477H116.171Z" fill="#00843D"/>
<g id="Group_8">
<path id="Vector_78" d="M74.9346 202.424V208.094H83.7846L74.9346 202.224V202.424ZM74.9346 188.779V183.109H83.7846L74.9346 188.978V188.779ZM114.064 202.424V208.094H105.214L114.064 202.224V202.424ZM114.064 188.779V183.109H105.214L114.064 188.978V188.779Z" fill="#383739"/>
<path id="Vector_79" d="M75.1489 202.624L83.0739 207.88H75.1489V202.624ZM75.1489 188.579C75.4569 188.374 82.5339 183.681 83.0739 183.323H75.1489V188.579ZM113.849 202.624L105.924 207.88H113.849V202.624ZM113.849 188.579L105.924 183.323H113.849V188.579Z" fill="#D22730"/>
</g>
<g id="h">
<path id="Vector_80" d="M86.2225 194.047V191.151H85.235L80.4965 188.189L80.44 188.224L75.759 191.151H74.771V194.047H72.5435V197.157H74.771V200.052H75.759L80.4965 203.014L85.235 200.052H86.2225V197.157H89.6135V194.047H86.2225Z" fill="#383739"/>
<path id="Vector_81" d="M80.4971 188.442L84.8311 191.152H76.1636L80.4971 188.442ZM84.8306 200.052L80.4971 202.762L76.1641 200.052H84.8306ZM83.7811 194.261V196.943H78.3766V194.261H83.7811Z" fill="#D22730"/>
<path id="Vector_82" d="M86.0083 197.156V199.838H80.6038V197.156H86.0083ZM80.3898 197.156V199.838H74.9853V197.156H80.3898ZM89.3993 194.261V196.943H83.9948V194.261H89.3993ZM78.1623 194.261V196.943H72.7578V194.261H78.1623ZM86.0083 191.366V194.047H80.6038V191.366H86.0083ZM80.3898 191.366V194.047H74.9853V191.366H80.3898Z" fill="#FFC72C"/>
<path id="Vector_83" d="M76.6746 194.857V196.347H74.2471V194.857H76.6746ZM78.9021 191.961V193.451H76.4746V191.961H78.9021ZM84.5201 191.961V193.451H82.0926V191.961H84.5201ZM82.2926 194.857V196.347H79.8651V194.857H82.2926ZM87.9111 194.857V196.347H85.4836V194.857H87.9111ZM84.5201 197.752V199.242H82.0926V197.752H84.5201ZM78.9021 197.752V199.242H76.4746V197.752H78.9021Z" fill="#383739"/>
<path id="Vector_84" d="M76.4456 195.085H74.4756V196.118H76.4456V195.085ZM78.6731 192.19H76.7031V193.222H78.6731V192.19ZM84.2916 192.19H82.3216V193.222H84.2916V192.19ZM82.0641 195.085H80.0941V196.118H82.0641V195.085ZM87.6826 195.085H85.7126V196.118H87.6826V195.085ZM84.2916 197.981H82.3216V199.013H84.2916V197.981ZM78.6731 197.981H76.7031V199.013H78.6731V197.981Z" fill="white"/>
</g>
<g id="i">
<path id="Vector_85" d="M100.224 189.21V192.105H99.2369L94.4984 195.068L94.4419 195.032L89.7609 192.105H88.7729V189.21H85.9639V186.1H88.7729V183.205H89.7609L94.4984 180.242L99.2369 183.205H100.224V186.1H103.033V189.21H100.224Z" fill="#383739"/>
<path id="Vector_86" d="M94.499 194.815L98.833 192.105H90.165L94.499 194.815ZM98.8325 183.205L94.499 180.495L90.166 183.205H98.8325Z" fill="#FFC72C"/>
<path id="Vector_87" d="M100.01 186.1V183.419H94.6057V186.1H100.01ZM94.3917 186.1V183.419H88.9872V186.1H94.3917ZM102.819 188.995V186.314H97.4147V188.995H102.819ZM97.2007 188.995V186.314H91.7962V188.995H97.2007ZM91.5822 188.995V186.314H86.1782V188.995H91.5822ZM100.01 191.891V189.209H94.6057V191.891H100.01ZM94.3917 191.891V189.209H88.9872V191.891H94.3917Z" fill="#D22730"/>
<path id="Vector_88" d="M92.9035 184.014V185.504H90.476V184.014H92.9035ZM98.522 184.014V185.504H96.0945V184.014H98.522ZM90.094 186.91V188.4H87.6665V186.91H90.094ZM95.713 186.91V188.4H93.2855V186.91H95.713ZM101.332 186.91V188.4H98.904V186.91H101.332ZM92.9035 189.805V191.295H90.476V189.805H92.9035ZM98.522 189.805V191.295H96.0945V189.805H98.522Z" fill="#383739"/>
<path id="Vector_89" d="M92.675 184.243H90.705V185.275H92.675V184.243ZM98.2935 184.243H96.3235V185.275H98.2935V184.243ZM89.8655 187.138H87.8955V188.171H89.8655V187.138ZM95.4845 187.138H93.5145V188.171H95.4845V187.138ZM101.103 187.138H99.1325V188.171H101.103V187.138ZM92.675 190.034H90.705V191.066H92.675V190.034ZM98.2935 190.034H96.3235V191.066H98.2935V190.034Z" fill="white"/>
</g>
<path id="Vector_90" d="M63.8379 239.677L84.8639 228.361H104.133L125.159 239.677V258.322L104.133 269.637H84.8634L63.8379 258.322V239.677Z" fill="#383739"/>
<path id="Vector_91" d="M84.9315 228.575L64.0625 239.804V258.183L84.9315 269.412H104.078L124.948 258.183V239.805L104.078 228.576L84.9315 228.575ZM85.3015 230.085H103.707L123.465 240.704V257.309L103.707 267.929H85.2905L65.5345 257.309V240.704L85.3015 230.085Z" fill="#00843D"/>
<path id="Vector_92" d="M94.6059 248.892V267.712H103.653L123.245 257.169V249.107H94.3919V230.287H85.3444L65.7524 240.83V248.892H94.6059Z" fill="#FFC72C"/>
<path id="Vector_93" d="M94.3914 248.892V267.712H85.3439L65.7524 257.169V249.107H94.6054V230.287H103.653L123.245 240.83V248.892H94.3914Z" fill="white"/>
<path id="Vector_94" d="M96.257 266.659V261.219L94.4985 262.335L92.7395 261.219V266.659H87.2685L90.96 263.952V260.09L85.33 256.518H81.3965V241.482H85.3305L90.9605 237.91V234.048L87.2685 231.341H92.7395V236.781L94.4985 235.665L96.257 236.781V231.341H101.728L98.0365 234.048V237.91L103.666 241.482H107.6V256.518H103.666L98.036 260.09V263.952L101.728 266.659H96.257Z" fill="#383739"/>
<path id="Vector_95" d="M96.4781 231.567V237.182L94.5976 235.99V237.579L103.205 243.06H106.038V248.888H107.389V241.684H103.602L97.8291 238.029V233.95L101.086 231.567H96.4781V231.567ZM81.6211 249.099V256.303H85.3811L91.1811 259.983V264.062L87.9241 266.445H92.5321V260.831L94.3856 262.023V260.381L85.7791 254.952H82.9716V249.099H81.6211Z" fill="#FFC72C"/>
<path id="Vector_96" d="M87.9236 231.567L91.1811 233.95V238.029L85.3811 241.684H81.6211V248.888H82.9711V243.06H85.7786L94.3856 237.605V235.99L92.5321 237.181V231.567H87.9236V231.567ZM106.038 249.099V254.952H103.204L94.5971 260.381V262.023L96.4776 260.831V266.445H101.086L97.8286 264.062V259.983L103.602 256.303H107.389V249.099H106.038Z" fill="white"/>
<path id="Vector_97" d="M83.1758 254.729H85.8448L94.4983 260.219L103.152 254.729H105.821V243.271H103.152L94.4983 237.781L85.8448 243.271H83.1758V254.729Z" fill="#D22730"/>
<path id="Vector_98" d="M100.489 251.722H102.336V250.848H100.946V249.259H103.917V253.312H101.069V256.077H95.2071V252.104H97.7871V253.693H96.7876V254.488H99.4886V252.968L88.5081 246.277H86.6606V247.151H88.0506V248.74H85.0796V244.688H87.9276V241.923H93.7896V245.895H91.2096V244.306H92.2091V243.512H89.5081V245.031L100.489 251.722ZM99.4886 245.031V243.512H96.7876V244.306H97.7871V245.895H95.2071V241.923H101.07V244.688H103.917V248.74H100.947V247.151H102.337V246.277H100.489L89.5086 252.968V254.487H92.2086V253.692H91.2096V252.104H93.7896V256.076H87.9276V253.311H85.0796V249.259H88.0506V250.848H86.6606V251.722H88.5081L99.4886 245.031Z" fill="#383739"/>
<path id="Vector_99" d="M99.7029 252.848V254.702H96.5729V253.479H97.5729V252.318H95.4214V255.862H100.855V253.097H103.703V249.474H101.16V250.634H102.55V251.937H100.428L89.2934 245.151V243.298H92.4234V244.521H91.4239V245.681H93.5754V242.137H88.1419V244.902H85.2944V248.526H87.8359V247.365H86.4459V246.063H88.5679L99.7029 252.848ZM100.428 246.063H102.551V247.365H101.161V248.526H103.703V244.902H100.855V242.137H95.4214V245.681H97.5729V244.521H96.5734V243.298H99.7029V245.151L88.5679 251.936H86.4464V250.634H87.8364V249.473H85.2944V253.097H88.1419V255.862H93.5754V252.318H91.4239V253.479H92.4234V254.701H89.2934V252.848L100.428 246.063Z" fill="white"/>
<path id="Vector_100" d="M119.021 249.942V255.823H116.519V253.746H113.996V255.823H111.493V249.942H113.996V252.019H116.519V249.942H119.021ZM110.066 257.75V263.631H107.564V261.554H105.041V263.631H102.538V257.75H105.041V259.827H107.564V257.75L110.066 257.75ZM119.021 248.057V242.176H116.519V244.253H113.996V242.176H111.493V248.057H113.996V245.98H116.519V248.057H119.021ZM69.9766 249.942V255.823H72.4791V253.746H75.0021V255.823H77.5046V249.942H75.0021V252.019H72.4791V249.942H69.9766ZM69.9766 248.057V242.176H72.4791V244.253H75.0021V242.176H77.5046V248.057H75.0021V245.98H72.4791V248.057H69.9766ZM110.066 240.25V234.369H107.564V236.446H105.041V234.369H102.538V240.25H105.041V238.173H107.564V240.25L110.066 240.25ZM78.9321 257.75V263.631H81.4346V261.554H83.9576V263.631H86.4601V257.75H83.9576V259.827H81.4346V257.75L78.9321 257.75ZM78.9321 240.25V234.369H81.4346V236.446H83.9576V234.369H86.4601V240.25H83.9576V238.173H81.4346V240.25L78.9321 240.25ZM111.559 236.128V240.594H119.858L111.559 236.128ZM77.4386 261.871V257.405H69.1401L77.4386 261.871ZM77.4386 236.128V240.594H69.1401L77.4386 236.128ZM111.559 261.871V257.405H119.858L111.559 261.871Z" fill="#383739"/>
<path id="Vector_101" d="M116.732 253.532V255.609H118.806V250.157H116.732V252.234H113.781V250.157H111.707V255.609H113.781V253.532H116.732ZM107.777 261.339V263.416H109.851V257.964H107.777V260.041H104.826V257.964H102.752V263.416H104.826V261.339H107.777ZM116.732 244.467V242.39H118.806V247.843H116.732V245.765H113.781V247.843H111.707V242.39H113.781V244.467H116.732ZM72.2649 253.532V255.609H70.1909V250.157H72.2649V252.234H75.2164V250.157H77.2904V255.609H75.2164V253.532H72.2649ZM72.2649 244.467V242.39H70.1909V247.843H72.2649V245.765H75.2164V247.843H77.2904V242.39H75.2164V244.467H72.2649ZM107.777 236.66V234.583H109.851V240.036H107.777V237.958H104.826V240.036H102.752V234.583H104.826V236.66H107.777ZM81.2199 261.339V263.416H79.1459V257.964H81.2199V260.041H84.1714V257.964H86.2454V263.416H84.1714V261.339H81.2199ZM81.2199 236.66V234.583H79.1459V240.036H81.2199V237.958H84.1714V240.036H86.2454V234.583H84.1714V236.66H81.2199Z" fill="#D22730"/>
<path id="Vector_102" d="M111.785 236.493V240.386H119.016L111.785 236.493ZM69.9951 257.627L77.2251 261.52V257.627H69.9951Z" fill="#FFC72C"/>
<path id="Vector_103" d="M77.2246 236.493L69.9946 240.386H77.2246V236.493ZM111.785 257.627V261.52L119.015 257.627H111.785Z" fill="white"/>
<path id="Vector_104" d="M128.448 265.412C128.049 267.115 126.694 268.401 126.372 270.168C125.725 268.326 125.13 266.782 125.574 264.766C125.893 263.325 127.105 262.296 127.246 260.815C128.568 262.004 128.853 263.69 128.448 265.412ZM128.783 272.55C127.662 274.087 126.103 275.267 124.382 276.053C124.721 274.706 124.085 273.692 123.379 272.623C122.529 271.336 122.114 270.072 122.807 268.59C123.13 269.36 123.564 270 124.074 270.659C124.827 271.687 125.322 272.601 125.439 273.919C126.31 273.273 126.693 272.309 127.159 271.376C127.869 270.04 129.015 268.922 130.331 268.192C129.981 269.691 129.712 271.276 128.784 272.55H128.783ZM122.494 277.133C122.734 277.987 122.941 278.833 122.894 279.726C123.636 278.927 124.619 278.326 125.497 277.683C126.693 276.716 128.086 276.034 129.064 274.803C128.918 276.615 128.142 278.092 126.67 279.195C125.114 280.36 123.237 280.986 121.704 282.21C121.933 280.561 121.328 279.241 120.811 277.726C120.381 276.279 120.798 274.809 121.779 273.706C121.764 274.929 122.15 275.979 122.494 277.133ZM119.001 282.699C118.679 283.949 117.783 284.966 117.171 286.081C118.821 285.57 120.276 284.675 121.767 283.834C123.543 282.867 125.472 282.251 127.079 280.974C126.279 283.936 124.296 285.654 121.395 286.529C119.412 287.128 117.74 286.829 115.333 287.802C115.609 286.173 116.095 284.414 116.866 282.945C117.464 281.883 118.127 280.835 118.496 279.664C119.031 280.626 119.284 281.604 119.001 282.699ZM112.932 287.232C112.371 288.2 111.604 289.032 110.685 289.669C113.026 289.819 114.911 288.335 117.193 288.27C118.603 288.23 119.942 288.668 121.38 288.537C119.673 289.688 117.887 290.694 115.81 290.962C113.109 291.312 110.618 290.632 107.639 290.898C109.031 289.915 109.728 288.6 110.596 287.186C111.726 285.42 112.792 284.161 114.991 283.877C114.108 284.869 113.595 286.097 112.932 287.232V287.232ZM104.616 291.118C108.741 291.82 112.694 292.727 116.907 292.769C112.191 294.413 107.748 294.71 103.071 293.013C100.544 292.095 98.6056 291.604 96.6966 291.741C93.9066 291.941 90.5166 293.042 86.7646 296.999L85.2896 295.819C90.6676 291.028 97.7036 289.943 104.616 291.118V291.118Z" fill="#FFC72C"/>
</g>
</svg>
