<svg width="455" height="304" viewBox="0 0 455 304" fill="none" xmlns="http://www.w3.org/2000/svg">
<g id="TWN">
<g id="Group">
<path id="Vector" fill-rule="evenodd" clip-rule="evenodd" d="M0 0H455V303.333H0V0Z" fill="#FE0000"/>
<path id="Vector_2" fill-rule="evenodd" clip-rule="evenodd" d="M0 0H227.5V151.667H0V0Z" fill="#000095"/>
</g>
<path id="Vector_3" d="M113.75 18.9583L85.3125 125.089L163.005 47.3958L56.875 75.8333L163.005 104.271L85.3125 26.578L113.75 132.708L142.188 26.578L64.4947 104.271L170.625 75.8333L64.4947 47.3958L142.188 125.089L113.75 18.9583Z" fill="white"/>
<path id="Vector_4" d="M113.75 106.167C130.503 106.167 144.083 92.586 144.083 75.8333C144.083 59.0807 130.503 45.5 113.75 45.5C96.9973 45.5 83.4166 59.0807 83.4166 75.8333C83.4166 92.586 96.9973 106.167 113.75 106.167Z" fill="white" stroke="#000095" stroke-width="7.5"/>
</g>
</svg>
