<svg width="456" height="231" viewBox="0 0 456 231" fill="none" xmlns="http://www.w3.org/2000/svg">
<g id="UZB">
<rect id="Rectangle 16" x="1.5" y="1.5" width="453" height="228" stroke="#D1D1D1" stroke-width="3"/>
<g id="Group 1844">
<path id="Vector" d="M453 3H3V228H453V3Z" fill="#1EB53A"/>
<path id="Vector_2" d="M453 3H3V115H453V3Z" fill="#0099B5"/>
<path id="Vector_3" d="M453 75H3V156H453V75Z" fill="#CE1126"/>
<path id="Vector_4" d="M453 79H3V151H453V79Z" fill="white"/>
<path id="Vector_5" d="M70 12.378C68.5563 12.135 67.0771 12 65.5714 12C50.8951 12 39 24.087 39 39C39 53.913 50.8951 66 65.5714 66C67.0771 66 68.5563 65.865 70 65.622C57.4317 63.48 47.8571 52.374 47.8571 39C47.8571 25.626 57.4317 14.52 70 12.378Z" fill="white"/>
<path id="Vector_6" d="M126.8 58.8249L125.5 55L124.2 58.8249H120L123.4 61.1843L122.1 65L125.5 62.6406L128.9 65L127.6 61.1843L131 58.8249H126.8Z" fill="white"/>
<path id="Vector_7" d="M125.5 34L124.2 37.4424H120L123.4 39.5659L122.1 43L125.5 40.8765L128.9 43L127.6 39.5659L131 37.4424H126.8L125.5 34Z" fill="white"/>
<path id="Vector_8" d="M125.5 12L124.2 15.8249H120L123.4 18.1843L122.1 22L125.5 19.6406L128.9 22L127.6 18.1843L131 15.8249H126.8L125.5 12Z" fill="white"/>
<path id="Vector_9" d="M148.182 58.8249L147 55L145.818 58.8249H142L145.091 61.1843L143.909 65L147 62.6406L150.091 65L148.909 61.1843L152 58.8249H148.182Z" fill="white"/>
<path id="Vector_10" d="M147 34L145.818 37.4424H142L145.091 39.5659L143.909 43L147 40.8765L150.091 43L148.909 39.5659L152 37.4424H148.182L147 34Z" fill="white"/>
<path id="Vector_11" d="M147 12L145.818 15.8249H142L145.091 18.1843L143.909 22L147 19.6406L150.091 22L148.909 18.1843L152 15.8249H148.182L147 12Z" fill="white"/>
<path id="Vector_12" d="M169.8 58.8249L168.5 55L167.2 58.8249H163L166.4 61.1843L165.1 65L168.5 62.6406L171.9 65L170.6 61.1843L174 58.8249H169.8Z" fill="white"/>
<path id="Vector_13" d="M168.5 34L167.2 37.4424H163L166.4 39.5659L165.1 43L168.5 40.8765L171.9 43L170.6 39.5659L174 37.4424H169.8L168.5 34Z" fill="white"/>
<path id="Vector_14" d="M165.1 22L168.5 19.6406L171.9 22L170.6 18.1843L174 15.8249H169.8L168.5 12L167.2 15.8249H163L166.4 18.1843L165.1 22Z" fill="white"/>
<path id="Vector_15" d="M83.1821 58.8249L82 55L80.8179 58.8249H77L80.0911 61.1843L78.9089 65L82 62.6406L85.0911 65L83.9089 61.1843L87 58.8249H83.1821Z" fill="white"/>
<path id="Vector_16" d="M105.182 58.8249L104 55L102.818 58.8249H99L102.091 61.1843L100.909 65L104 62.6406L107.091 65L105.909 61.1843L109 58.8249H105.182Z" fill="white"/>
<path id="Vector_17" d="M104 34L102.818 37.4424H99L102.091 39.5659L100.909 43L104 40.8765L107.091 43L105.909 39.5659L109 37.4424H105.182L104 34Z" fill="white"/>
</g>
</g>
</svg>
