<svg width="163" height="146" viewBox="0 0 163 146" fill="none" xmlns="http://www.w3.org/2000/svg">
<path fill-rule="evenodd" clip-rule="evenodd" d="M121.066 16.2222H146.778C155.7 16.2222 163 23.5222 163 32.4445V129.778C163 138.7 155.7 146 146.778 146H17C8.07788 146 0.777832 138.7 0.777832 129.778V32.4445C0.777832 23.5222 8.07788 16.2222 17 16.2222H42.7124L57.5557 0H106.222L121.066 16.2222ZM17 129.778H146.778V32.4445H113.928L109.142 27.1722L99.0845 16.2222H64.6934L54.6355 27.1722L49.8501 32.4445H17V129.778ZM57.5557 81.1111C57.5557 67.6467 68.4246 56.7778 81.8889 56.7778H114.171C106.709 46.9633 95.1101 40.5555 81.8889 40.5555C59.5022 40.5555 41.3335 58.7244 41.3335 81.1111C41.3335 83.0084 41.4868 84.9056 41.7412 86.75H37.8757L50 101L62.1243 86.75H58.2695C57.8193 84.9423 57.5557 83.0455 57.5557 81.1111ZM81.8892 105.444C95.3535 105.444 106.222 94.5756 106.222 81.1111C106.222 78.7356 105.825 76.4169 105.172 74.25H100.876L113 60L125.124 74.25H121.88C122.272 76.4727 122.445 78.7919 122.445 81.1111C122.445 103.498 104.276 121.667 81.8892 121.667C68.668 121.667 57.0691 115.259 49.6069 105.444H81.8892Z" fill="white"/>
</svg>
