<svg width="98" height="95" viewBox="0 0 98 95" fill="none" xmlns="http://www.w3.org/2000/svg">
<g opacity="0.75">
<path d="M48.3685 86.6289C48.3692 86.3834 48.8809 85.9265 49.176 86.2792C49.4732 86.6319 49.3438 87.1244 49.9376 87.1266C50.5306 87.128 51.5916 87.3077 51.7624 87.0977C51.9325 86.887 52.6971 86.7155 52.6986 86.328C52.7008 85.9598 52.7304 78.7075 52.7304 78.4029C52.7311 78.1152 54.1789 78.411 54.1811 77.9444C54.1833 77.4823 54.1974 73.7697 54.1974 73.766C54.1974 73.7652 55.2644 73.7009 55.5631 73.6307C55.8625 73.5597 56.9317 73.0975 57.1868 73.2447C57.4427 73.3911 57.7799 73.9013 57.9521 73.7209C58.1237 73.5419 58.5526 73.1841 58.9792 73.1878C59.2114 73.19 59.5937 73.1086 59.9493 73.0399C59.8791 72.9326 59.8347 72.8328 59.8354 72.7567C59.8377 72.4483 57.2379 72.7929 56.8038 72.9119C56.3698 73.031 54.9996 73.2048 54.5671 73.0184C54.1345 72.8313 51.3905 73.0007 51.3905 73.0014C51.2219 72.858 51.0541 72.7138 50.8862 72.5703C50.8862 72.5681 46.4091 72.557 45.904 72.5592C45.3983 72.5592 45.0374 72.4979 44.6041 72.2539C44.1701 72.0084 43.7383 72.0091 43.231 72.1925C42.726 72.3781 42.9434 71.9485 42.5818 71.9492C42.2202 71.95 42.0761 72.2568 42.0761 72.2576C41.926 72.2908 41.7751 72.3248 41.625 72.3589C41.5777 72.7337 41.9674 73.4207 42.4391 73.9582C42.9308 74.518 43.5283 75.5635 43.8477 76.4456C44.1679 77.327 45.0848 78.3127 45.3177 78.9752C45.5528 79.6377 45.1476 80.5849 45.3805 81.0116C45.6142 81.4397 45.7621 82.1695 45.89 82.8971C46.0164 83.6262 46.0785 85.1634 46.8631 85.7986C47.1611 86.0404 47.4694 86.376 47.7533 86.7509C48.1023 86.7805 48.3678 86.8153 48.3685 86.6289Z" fill="#F6F6F6"/>
<path d="M67.6111 70.7836C67.5409 70.6497 67.4721 70.5166 67.4018 70.3828C66.9893 70.388 66.5766 70.3939 66.164 70.3991C65.3522 70.5691 65.3507 70.7873 65.3492 71.0061C65.3477 71.2243 64.5765 71.7212 64.0205 71.8594C63.4659 71.9977 62.8611 73.0787 62.5195 73.2185C62.1778 73.3597 61.0288 72.9841 60.6864 72.9449C60.5311 72.9264 60.2487 72.976 59.9492 73.0329C60.1614 73.3538 60.6043 73.7353 60.7678 73.7376C60.9837 73.7405 61.048 75.0249 61.5508 75.2127C62.0543 75.4013 62.9875 75.839 62.986 76.0823C62.9845 76.3263 63.5598 76.6376 63.5561 77.0021C63.5531 77.3666 64.1195 77.8717 64.5565 77.8643C65.4771 77.8517 65.5696 78.1756 65.5673 78.3907C65.5651 78.6052 66.7793 78.4077 66.9368 78.6251C67.0824 78.8255 68.2788 78.7686 68.5687 78.9069C69.0722 78.5061 69.7917 77.9781 70.0401 77.706C70.4268 77.2823 70.114 76.6842 70.4342 76.5274C70.7551 76.3706 71.465 75.6815 71.2099 75.6223C70.9548 75.5647 71.1514 75.0264 70.7714 74.6951C70.392 74.3639 71.2239 74.216 71.1648 73.6178C71.1071 73.0211 71.3089 71.8269 71.1182 71.7145C70.9274 71.6021 70.0327 71.5319 69.4604 71.1954C68.8903 70.8583 67.6111 70.7836 67.6111 70.7836Z" fill="#F6F6F6"/>
<path d="M64.5564 77.8665C64.1194 77.8732 63.553 77.3696 63.556 77.0044C63.5589 76.6391 62.9837 76.3285 62.9859 76.0845C62.9881 75.8413 62.0549 75.4035 61.5507 75.215C61.0478 75.0272 60.9835 73.7428 60.7676 73.7398C60.6049 73.7383 60.1613 73.3553 59.9491 73.0352C59.5934 73.1039 59.2111 73.1853 58.9789 73.183C58.5523 73.1786 58.1227 73.5372 57.9519 73.7162C57.7796 73.8966 57.4424 73.3864 57.1866 73.24C56.9315 73.0928 55.8623 73.5557 55.5628 73.626C55.2641 73.6962 54.1971 73.7613 54.1971 73.7613C54.1971 73.765 54.1831 77.4776 54.1809 77.9397C54.1786 78.4063 52.7316 78.1105 52.7301 78.3982C52.7301 78.5313 52.7235 80.1898 52.7168 81.9496C53.0288 82.0472 53.3239 82.1737 53.3963 82.3282C53.5657 82.6853 53.9435 83.4676 53.8577 83.6791C53.7727 83.8906 53.5605 83.7486 53.5597 83.9616C53.559 84.1738 53.3867 84.4917 53.8119 84.494C54.2363 84.4962 54.9572 84.7128 55.256 84.4318C55.5547 84.1509 56.5359 83.5201 56.581 83.2022C56.6246 82.8835 56.8413 82.1744 57.5615 82.5715C58.2824 82.9671 58.3238 83.0395 59.2592 83.0477C60.1938 83.0565 60.4489 83.0233 60.622 82.5286C60.7965 82.0324 60.6293 81.6391 61.1817 81.645C61.734 81.6509 62.418 81.2309 62.4202 80.91C62.4232 80.5891 62.6812 80.0929 63.0228 80.0966C63.363 80.1003 64.0876 79.7521 64.1771 79.3949C64.2643 79.0385 64.8588 79.1894 65.074 78.9771C65.179 78.8736 65.3875 78.6259 65.5724 78.3989C65.5724 78.3967 65.5672 78.3952 65.5672 78.3952C65.5694 78.1778 65.4762 77.8532 64.5564 77.8665Z" fill="#F6F6F6"/>
<path d="M68.7845 83.2461C68.4295 83.2409 67.8003 83.9471 67.7988 84.095C67.7974 84.2436 68.2292 85.1871 68.6721 85.2174C69.1157 85.2485 69.4403 85.23 69.4744 84.9594C69.4899 84.8255 69.606 84.7191 69.7198 84.6444C69.688 84.4115 69.6208 83.9123 69.5986 83.6121C69.339 83.462 69.0129 83.2498 68.7845 83.2461Z" fill="#F6F6F6"/>
<path d="M64.8665 86.8799C64.6994 86.5959 63.5925 87.0751 63.4202 87.3538C63.2487 87.6333 62.5625 88.3964 62.5625 88.3964C62.8413 88.7269 63.12 89.0567 63.3988 89.3865C63.5955 89.4124 63.7929 89.4375 63.9896 89.4634C63.9896 89.4634 64.1634 89.1166 64.3364 88.8378C64.5079 88.5606 65.2658 88.9214 65.2695 88.6404C65.2725 88.3602 65.7842 88.0866 65.7871 87.8056C65.7908 87.5246 65.0329 87.1631 64.8665 86.8799Z" fill="#F6F6F6"/>
<path d="M69.7384 84.7833C69.7384 84.7833 69.7317 84.7345 69.7213 84.6584C69.6075 84.7331 69.4914 84.8395 69.4759 84.9734C69.4418 85.244 69.118 85.2632 68.6736 85.2314C68.2314 85.2011 67.7989 84.2576 67.8003 84.109C67.8026 83.9618 68.4311 83.255 68.786 83.2601C69.0152 83.2638 69.3413 83.4753 69.6001 83.6254C69.5912 83.5174 69.5897 83.4339 69.5957 83.4006C69.6304 83.2416 69.8744 81.4064 69.4936 81.2119C69.1136 81.0204 68.752 79.1386 68.6255 78.9478C68.5006 78.7578 67.0957 78.8436 66.9382 78.6269C66.7829 78.4125 65.5976 78.6018 65.5732 78.3984C65.3884 78.6262 65.1798 78.8731 65.0748 78.9767C64.8604 79.1889 64.2652 79.038 64.1779 79.3944C64.0884 79.7516 63.3638 80.0998 63.0237 80.0962C62.6828 80.0917 62.424 80.5886 62.4211 80.9095C62.4188 81.2304 61.7349 81.6497 61.1825 81.6445C60.6302 81.6386 60.7965 82.032 60.6228 82.5281C60.4498 83.0228 60.1946 83.0561 59.26 83.0472C58.3246 83.0383 58.284 82.9666 57.5623 82.571C56.8421 82.1739 56.6255 82.883 56.5818 83.2017C56.5375 83.5197 55.5555 84.1504 55.2568 84.4314C54.9573 84.7131 54.2371 84.4957 53.8127 84.4935C53.3876 84.4913 53.5598 84.1733 53.5606 83.9611C53.5613 83.7481 53.7735 83.8909 53.8586 83.6786C53.9443 83.4672 53.5672 82.6841 53.3972 82.3277C53.3254 82.1739 53.0297 82.0453 52.7176 81.9491C52.7095 83.9685 52.6999 86.1165 52.6991 86.3221C52.6977 86.7095 51.9324 86.8811 51.763 87.0918C51.5922 87.3018 50.5312 87.1221 49.9381 87.1207C49.3444 87.1192 49.473 86.626 49.1765 86.2733C48.8815 85.9206 48.3691 86.3775 48.3691 86.623C48.3691 86.8094 48.1029 86.7739 47.7539 86.7458C48.2183 87.3565 48.622 88.0678 48.832 88.6438C49.1684 89.5733 49.9914 90.4458 50.2006 90.9856C50.4099 91.5269 50.6406 92.0304 50.1969 92.0799C49.7526 92.1302 49.7511 92.4437 50.214 93.0338C50.6776 93.6231 50.2738 93.9669 50.6761 94.0372C51.0769 94.1074 50.9489 94.3137 51.2654 94.3329C51.5826 94.3507 51.8141 94.611 52.0233 94.835C52.2333 95.0606 52.7191 95.0628 52.9528 94.7884C53.1872 94.5141 53.9051 94.432 54.6446 94.4365C55.3847 94.4417 55.2383 94.1814 55.957 94.0143C56.6765 93.8471 57.5431 93.8361 58.1538 94.015C58.7653 94.1917 59.2304 94.0409 59.5284 93.8893C59.8257 93.7363 60.3913 94.1392 60.4379 93.7429C60.4845 93.3451 61.0753 93.4205 61.624 93.4264C62.1726 93.4323 63.511 92.7388 64.5779 91.9365C65.6449 91.1364 67.4225 89.3648 68.0266 88.5507C68.63 87.7359 69.6127 87.0482 70.1044 86.6874C70.4719 86.4175 70.6959 85.4466 70.8061 84.7353C70.3062 84.7205 69.7384 84.7841 69.7384 84.7833ZM65.273 88.6498C65.2693 88.9308 64.5114 88.5692 64.3399 88.8472C64.1676 89.1267 63.993 89.472 63.993 89.4727C63.7956 89.4469 63.599 89.4217 63.4023 89.3958C63.1235 89.0661 62.8447 88.7355 62.566 88.4058C62.566 88.4058 63.2514 87.6434 63.4237 87.3632C63.5967 87.0851 64.7036 86.6053 64.87 86.8892C65.0364 87.1724 65.7943 87.5347 65.7906 87.8142C65.7876 88.0967 65.2767 88.3695 65.273 88.6498Z" fill="#F6F6F6"/>
<path d="M42.5813 71.9434C42.9429 71.9427 42.7255 72.3723 43.2305 72.1867C43.737 72.0033 44.1696 72.0026 44.6036 72.248C45.0362 72.4921 45.3978 72.5534 45.9036 72.5534C46.4086 72.5512 50.8858 72.5623 50.8858 72.5645C51.0543 72.708 51.2222 72.8521 51.39 72.9956C51.39 72.9949 54.134 72.8255 54.5666 73.0126C54.9992 73.1989 56.3693 73.0252 56.8034 72.9061C56.8788 72.8854 57.0193 72.8588 57.1989 72.8292C56.6533 72.1874 56.1068 71.5456 55.5604 70.903C55.6144 69.5395 55.6691 68.1724 55.7223 66.8C56.4373 66.8266 57.1531 66.854 57.8674 66.8813C57.9916 66.7763 58.1151 66.6721 58.2386 66.5671C58.3436 65.7478 58.4486 64.9278 58.5528 64.1055C58.4404 64.0582 58.3103 64.0368 58.1617 64.0893C57.7121 64.2505 57.3276 64.1921 56.878 64.1884C56.4292 64.1847 56.3641 64.5706 56.1068 64.513C55.8502 64.4553 56.0447 63.7965 56.1098 63.5207C56.1756 63.2449 55.7275 62.745 55.4066 62.5217C55.0864 62.2991 55.7948 60.9209 55.6033 60.753C55.411 60.5852 55.3482 60.1422 55.3489 59.7541C55.3496 59.3659 55.0273 59.5855 54.3854 59.581C53.7429 59.5766 53.68 59.2986 53.6793 59.2986C53.6793 59.2986 52.9081 59.1278 52.5221 59.2919C52.1361 59.4568 52.1982 60.455 51.9424 60.3988C51.6851 60.3419 50.9139 60.4491 50.2713 60.6133C49.6287 60.7767 49.3729 60.4994 49.0513 59.8332C48.7311 59.1662 48.3436 59.3873 48.4738 58.8889C48.6032 58.3891 48.2179 57.8316 48.2179 57.8323C48.2179 57.8308 43.9759 57.7724 43.5248 57.8301C43.3422 57.853 43.022 58.0231 42.7063 58.2175C42.9688 59.073 43.791 60.4942 43.9751 60.827C44.1674 61.1782 43.7393 61.491 43.7393 62.1365C43.7393 62.7812 44.5534 63.9584 44.6377 64.7481C44.7242 65.5378 44.1238 66.0317 43.6106 66.5456C43.0967 67.0588 42.5636 68.2115 42.5643 68.9221C42.5643 69.6335 41.7946 70.327 41.816 70.6539C41.839 70.9814 41.7103 71.9449 41.6253 72.3065C41.6216 72.322 41.6238 72.339 41.6231 72.3538C41.7732 72.3198 41.9232 72.2865 42.0741 72.2525C42.0756 72.2517 42.2198 71.9441 42.5813 71.9434Z" fill="#F6F6F6"/>
<path d="M68.3971 61.413C68.2034 61.41 67.7465 61.1387 67.3553 60.8828C67.0751 61.146 66.0961 61.0869 65.614 61.0795C65.1008 61.0721 65.5474 61.6873 65.2258 61.904C64.9041 62.1206 64.7747 62.4504 65.0306 62.5643C65.2872 62.6781 64.9618 63.612 64.9603 63.9433C64.9588 64.2745 64.442 64.9829 64.6335 65.0953C64.825 65.2084 65.1407 65.9833 65.5896 66.0987C66.0369 66.2155 66.3601 65.8355 66.5516 65.8384C66.7438 65.8414 66.7409 66.336 66.7386 66.7205C66.7364 67.105 66.4791 67.2648 66.4791 67.2648C66.4791 67.2648 65.773 67.474 65.4543 67.25C65.1348 67.0267 64.8819 66.4196 64.8834 66.1993C64.8849 65.9796 64.1159 65.9693 63.7957 65.9649C63.4756 65.9604 63.1569 65.4606 63.0304 65.2395C62.9025 65.0184 62.5173 65.289 62.5165 65.4532C62.5158 65.6188 62.1949 65.6144 61.8747 65.6114C61.5538 65.6077 60.915 65.1604 60.6576 65.2676C60.4003 65.3748 60.1459 64.8772 60.2103 64.6568C60.2761 64.4372 59.5692 64.5962 59.3126 64.7034C59.0561 64.8114 58.9296 64.4239 58.9296 64.4239C58.9296 64.4239 58.7825 64.2006 58.551 64.1023C58.446 64.9238 58.3418 65.7452 58.2368 66.5638C58.1133 66.668 57.9891 66.773 57.8656 66.878C57.1506 66.8507 56.4355 66.8233 55.7205 66.7967C55.6665 68.1691 55.6133 69.537 55.5586 70.8998C56.1058 71.5423 56.6515 72.1849 57.1972 72.8259C58.0549 72.6847 59.8346 72.4932 59.8332 72.7476C59.8324 72.8237 59.8768 72.9235 59.9471 73.0308C60.2465 72.9731 60.529 72.925 60.6842 72.9428C61.0259 72.982 62.1757 73.3568 62.5173 73.2164C62.8581 73.0766 63.4637 71.9963 64.0183 71.8573C64.5743 71.7183 65.3456 71.2221 65.347 71.004C65.3485 70.7851 65.35 70.567 66.1619 70.3969C66.5745 70.3918 66.9871 70.3859 67.3997 70.3807C67.4278 70.3807 67.4559 70.3799 67.484 70.3799C67.3864 70.0746 67.2902 69.7699 67.1926 69.4645C67.1926 69.4638 70.9807 68.3184 71.1973 68.2948C71.0324 68.0005 70.8631 67.7816 70.9467 67.7476C71.0953 67.6877 71.1744 66.8019 71.1759 66.5497C71.1774 66.2961 72.0632 66.5024 71.7689 66.2421C71.4761 65.9848 71.5596 64.5267 71.709 64.2095C71.8591 63.8952 72.2266 64.2191 72.2281 63.9655C72.2296 63.7104 71.7911 62.8741 71.5715 62.6153C71.4125 62.4289 70.0963 61.9498 69.7266 61.881C69.3569 61.8115 68.7661 61.4189 68.3971 61.413Z" fill="#F6F6F6"/>
<path d="M67.8258 51.8711C67.5071 51.9436 67.167 52.0278 67.0258 52.087C66.8195 52.1743 66.713 52.2282 66.3034 52.1861C66.2538 52.2371 66.1976 52.2807 66.1267 52.3014C65.7732 52.4087 65.8353 53.1074 65.8353 53.1074C65.8353 53.1074 65.5144 53.1311 65.5137 53.466C65.5137 53.6938 65.6889 53.7943 65.8028 53.835C65.9839 53.8439 66.151 53.8594 66.2804 53.8816C67.0953 54.0228 67.0221 53.5067 67.0228 53.5067C67.0228 53.5067 68.2081 53.5895 68.2828 53.2693C68.3582 52.9484 68.0624 52.4279 68.0624 52.4279C67.9833 52.2415 67.9049 52.0567 67.8258 51.8711Z" fill="#F6F6F6"/>
<path d="M86.4174 38.6223C86.6733 38.7435 87.0896 39.3484 87.3779 39.4149C87.6656 39.48 89.2627 40.0116 90.2853 40.4139C91.3065 40.8146 91.9446 40.8664 92.2633 40.8775C92.5827 40.8886 93.0604 40.9906 92.7742 41.177C92.4888 41.3633 89.364 44.0422 88.947 44.423C88.5314 44.8031 88.2756 44.6545 87.3498 44.6249C86.4233 44.596 85.7202 45.4745 85.4643 45.4382C85.3127 45.4161 84.767 45.4834 84.296 45.5632C84.0661 45.8523 83.8368 46.1407 83.6069 46.4298C83.3851 46.7256 83.1632 47.0221 82.9414 47.3179C82.9636 48.83 82.985 50.3399 83.0043 51.8461C83.2416 52.1825 83.4782 52.5189 83.7156 52.8554C84.282 52.2136 85.803 50.9891 86.9254 49.9909C88.1425 48.9083 88.7614 48.6666 89.4417 48.3893C90.1234 48.1127 91.8492 46.6938 93.0205 45.4249C93.7577 44.6256 94.5718 43.7391 94.6782 43.1438C94.7832 42.5471 95.462 41.7848 95.9715 41.2221C96.4809 40.6601 97.3261 39.2094 97.3032 38.7568C97.281 38.3051 97.7232 37.363 97.7838 36.5571C97.843 35.7504 97.0799 35.6439 96.8484 36.0868C96.6163 36.529 94.7936 36.7582 93.6246 36.7338C92.4563 36.7094 91.7553 36.7789 91.3309 37.1212C90.9057 37.4643 89.8417 36.9756 89.4601 37.3579C89.0793 37.7401 87.5672 38.0293 87.0755 37.1094C86.8677 36.7212 86.5934 36.5009 86.3346 36.3589C85.9235 36.7183 85.431 37.2551 85.5213 37.4362C85.6484 37.695 86.1616 38.501 86.4174 38.6223Z" fill="#F6F6F6"/>
<path d="M12.1294 14.7305C12.1146 13.8934 12.091 13.0675 12.1146 12.9862C12.1634 12.8176 14.0955 11.7661 14.4261 11.5916C14.7551 11.4171 15.3622 11.6515 15.3651 11.3188C15.3688 10.9853 16.1637 11.1332 16.6347 11.0378C17.1042 10.9439 17.3882 10.6452 17.3919 10.2703C17.3956 9.89465 18.0514 9.96342 18.4736 9.91166C18.8966 9.86138 18.8522 9.52864 19.1339 9.52272C19.4149 9.51607 19.2781 9.14488 19.3284 8.72711C19.3787 8.31008 19.3787 8.39288 19.8001 8.38475C20.2216 8.37588 20.6468 8.15849 20.649 7.90857C20.6512 7.65864 22.4776 7.78879 22.7601 7.78361C23.041 7.77843 23.1372 7.48562 23.092 7.27784C23.0469 7.0708 22.8185 6.45043 22.5368 6.4142C22.2565 6.37797 22.4488 5.7502 22.4539 5.25035C22.4584 4.75124 22.3689 4.29501 22.045 3.92752C21.9778 3.84914 21.8964 3.70792 21.8129 3.53933C21.3004 3.55782 20.6838 3.22877 20.1506 3.22655C19.4083 3.2236 18.2585 3.58887 17.7143 3.05427C17.1686 2.52041 16.7892 2.35996 16.3848 2.5389C15.9796 2.71784 15.215 4.62258 14.7832 5.17937C14.3521 5.73763 13.1601 6.14653 12.5871 6.16205C12.014 6.17758 11.9408 6.95324 11.4913 7.28672C11.0417 7.6202 11.2051 8.12596 10.669 8.51785C10.1337 8.91122 10.374 10.0566 10.6447 10.4647C10.9153 10.8722 9.64718 12.2135 8.92107 12.6128C8.19422 13.012 7.95241 13.7367 6.80335 13.9437C6.35674 14.0243 6.02031 14.2055 5.75781 14.4303C7.54351 14.3718 10.1936 14.2942 11.1016 14.2698C12.2115 14.2373 11.9542 14.4665 12.1294 14.7305Z" fill="#F6F6F6"/>
<path d="M37.0395 2.4843C37.3781 2.93461 36.9507 3.69104 36.6091 3.84484C36.2682 3.9979 36.0109 4.67965 35.6708 4.68261C35.3314 4.68556 35.6663 5.81465 36.2616 6.03796C36.8568 6.25979 36.8553 6.63689 36.8546 6.8639C36.8539 7.0909 37.7057 7.31125 37.96 7.61293C38.2151 7.91387 38.6366 9.34835 38.6359 9.87851C38.6359 10.0138 38.6869 10.124 38.763 10.2142C38.9826 10.0811 39.2518 9.92658 39.362 9.74172C39.5542 9.41933 39.7043 8.86995 39.62 8.7191C39.535 8.56826 39.5572 8.30355 39.7494 8.15123C39.9409 7.99964 40.7092 7.27797 40.8585 7.22104C41.0079 7.16336 41.4974 7.23878 41.4767 6.82249C41.4686 6.65686 41.4915 6.4025 41.5211 6.15627C41.1765 5.95958 40.968 5.72963 40.968 5.61502C40.968 5.37027 40.5857 4.95545 40.3735 5.1832C40.1598 5.4102 39.3516 5.22534 39.2459 4.75433C39.1409 4.28332 39.7783 4.2981 40.3757 3.86258C40.9717 3.42559 41.0575 2.59522 40.4208 2.14565C39.7842 1.69609 40.2315 1.44911 40.6781 1.03356C41.1247 0.618001 40.7225 0.393223 40.4881 0.581775C40.2537 0.770328 39.8722 0.829487 39.8093 0.376961C39.7464 -0.0740855 38.3667 -0.142857 37.8343 0.293402C37.6472 0.446462 37.3626 0.494527 37.0616 0.494527C36.9315 1.24356 36.8139 2.18336 37.0395 2.4843Z" fill="#F6F6F6"/>
<path d="M22.453 5.25034C22.4486 5.75019 22.2556 6.37795 22.5358 6.41418C22.8176 6.45041 23.046 7.0708 23.0911 7.27783C23.1362 7.48561 23.0401 7.77842 22.7591 7.78359C22.4767 7.78803 20.6503 7.6579 20.6481 7.90856C20.6459 8.15848 20.2207 8.37587 19.7992 8.38474C19.3778 8.39362 19.3785 8.31006 19.3275 8.72709C19.2765 9.14561 19.414 9.5168 19.133 9.52271C18.8505 9.52863 18.8957 9.86137 18.4727 9.91165C18.0505 9.96341 17.3946 9.89464 17.3909 10.2703C17.3872 10.6452 17.1033 10.9439 16.6338 11.0378C16.1635 11.1324 15.3679 10.9853 15.3642 11.3188C15.3612 11.6522 14.7542 11.4171 14.4251 11.5916C14.0946 11.7669 12.1618 12.8176 12.1137 12.9862C12.09 13.0675 12.113 13.8927 12.1285 14.7305C12.1765 14.8037 12.2557 14.8783 12.4087 14.953C13.0979 15.2695 25.9305 22.5713 26.349 22.9469C26.7542 23.3003 27.2593 24.1041 27.2593 24.1041C27.2593 24.1041 28.1747 24.181 28.8845 24.533C29.5966 24.8849 29.5921 25.875 29.5921 25.875C29.5921 25.875 30.5083 25.6842 31.0177 25.5881C31.5264 25.492 33.2582 24.9337 33.2582 24.9345C34.141 24.2963 35.0246 23.6582 35.9075 23.0216C37.9794 21.8651 40.0497 20.7131 42.1194 19.5663C42.1194 19.5663 42.1253 19.5663 42.1349 19.5663C41.9441 18.9614 41.7393 18.4741 41.4066 18.4756C41.0339 18.4771 40.7677 18.1946 40.3403 18.1961C39.9137 18.1976 39.3806 18.0105 39.3281 17.6793C39.2748 17.3495 39.4885 17.1114 39.1691 16.6884C38.8504 16.264 38.5317 16.0769 38.5317 15.8884C38.5325 15.6991 39.0737 15.3279 39.1595 15.251C39.2453 15.1756 38.9458 14.8739 38.9465 14.6654C38.9473 14.4569 38.7343 14.099 38.948 13.8698C39.1624 13.6405 39.2911 13.4135 39.056 12.9987C38.8216 12.5832 39.3776 12.2016 39.1018 11.6537C38.8245 11.1058 38.4001 10.674 38.4423 10.484C38.4615 10.4026 38.599 10.3139 38.7624 10.2133C38.687 10.1231 38.6352 10.0129 38.6352 9.87763C38.636 9.34747 38.2145 7.91299 37.9594 7.61205C37.705 7.31037 36.8525 7.08928 36.854 6.86302C36.8547 6.63601 36.8562 6.25891 36.261 6.03708C35.6657 5.81451 35.3308 4.68469 35.6702 4.68173C36.011 4.67877 36.2683 3.99776 36.6085 3.84396C36.9501 3.69016 37.3775 2.93447 37.0388 2.48342C36.8133 2.18322 36.9309 1.24342 37.0603 0.493647C36.4983 0.493647 35.8757 0.316924 35.7093 0.27034C35.4557 0.197137 34.7119 0.390866 34.2438 0.413788C33.7772 0.43671 32.6267 1.10737 32.2466 0.791633C31.8666 0.474422 27.9558 1.08813 26.8526 1.14433C25.7486 1.19979 25.2732 2.22537 24.6151 2.23646C23.957 2.24755 22.9122 2.75627 22.3554 3.31379C22.1979 3.47129 22.0123 3.53267 21.8112 3.53932C21.8955 3.70791 21.9753 3.84988 22.0434 3.92752C22.3687 4.29427 22.4582 4.75123 22.453 5.25034Z" fill="#F6F6F6"/>
<path d="M40.8581 7.22492C40.7095 7.28186 39.9405 8.00279 39.7489 8.15511C39.5567 8.30817 39.5345 8.57215 39.6195 8.72299C39.7046 8.87383 39.5545 9.42396 39.3615 9.74561C39.1685 10.068 38.486 10.2987 38.4424 10.488C38.4002 10.678 38.8247 11.1098 39.102 11.6577C39.3778 12.2057 38.8217 12.5872 39.0561 13.0028C39.2905 13.4176 39.1626 13.6453 38.9481 13.8738C38.7345 14.1023 38.9467 14.4609 38.9467 14.6694C38.9459 14.8779 39.2454 15.1796 39.1596 15.255C39.0738 15.3319 38.5318 15.7031 38.5318 15.8924C38.5311 16.081 38.8505 16.2688 39.1692 16.6925C39.4879 17.1154 39.275 17.3535 39.3282 17.6833C39.3807 18.0153 39.9138 18.2016 40.3405 18.2001C40.7671 18.1987 41.034 18.4811 41.4067 18.4796C41.7387 18.4782 41.9443 18.9647 42.135 19.5703C42.2948 19.5718 43.6797 19.588 44.2542 19.9274C44.865 20.2875 45.1696 20.7386 45.1696 20.7386C45.983 20.3482 46.7971 19.9577 47.6097 19.5695C51.2913 21.3308 54.9773 23.1084 58.6641 24.9015C58.6633 24.6752 58.6633 24.4497 58.6626 24.2235C59.1084 24.2286 59.5551 24.2331 60.0017 24.2383C60.0046 24.2383 59.9595 12.5428 59.9514 11.677C59.947 10.8096 59.4996 10.2514 59.9418 9.78331C60.3832 9.316 59.7606 9.07126 60.1111 8.20835C60.1525 8.10705 60.1954 8.00057 60.2405 7.89188C60.2272 7.87561 60.2065 7.85935 60.1998 7.8416C60.0911 7.57689 59.5166 7.54879 58.2603 7.36467C57.004 7.18203 57.4677 6.43079 56.0628 6.34206C54.6579 6.25185 52.8737 7.24193 52.8537 7.77135C52.8337 8.30078 53.5162 8.89084 53.0496 9.43653C52.5831 9.98148 51.5604 10.0318 50.8329 9.44244C50.1075 8.85312 49.0412 8.58397 48.1687 8.58175C47.2947 8.57954 46.6766 8.08709 46.7387 7.67227C46.8023 7.25672 46.5265 7.06668 45.8026 6.93433C45.0787 6.80197 44.4613 6.27181 43.1835 6.46332C42.4996 6.56462 41.9191 6.38568 41.5228 6.16016C41.4932 6.40638 41.4703 6.66074 41.4784 6.82638C41.4969 7.24267 41.0074 7.16725 40.8581 7.22492Z" fill="#F6F6F6"/>
<path d="M13.0867 33.4348C13.3847 33.1885 13.8698 33.6544 14.3016 33.6921C14.7342 33.7298 15.1948 33.4562 15.1948 33.4562C15.1948 33.4562 15.1135 33.4104 14.4111 33.3793C13.7093 33.3483 13.6576 32.6081 13.0357 32.8869C12.4153 33.1649 11.9828 33.247 11.2056 33.1982C11.1946 33.4082 11.0585 33.6928 11.0156 33.9723C11.2153 33.9228 11.3676 33.8895 11.4378 33.8829C11.8704 33.8481 12.788 33.6803 13.0867 33.4348Z" fill="#F6F6F6"/>
<path d="M12.0532 34.8704C12.3239 34.8866 12.8651 34.5628 12.8651 34.5628C12.8651 34.5628 14.676 34.3993 14.9732 34.3698C15.0782 34.3587 15.2106 34.3956 15.3377 34.4467C15.3437 34.3786 15.3422 34.3284 15.3422 34.3284C15.3422 34.3284 16.3034 34.4755 16.367 34.6729C16.4306 34.8704 17.7446 34.9827 18.4832 34.7417C18.5372 34.724 18.5897 34.7055 18.6429 34.6885C18.6526 34.4289 18.6651 34.0075 18.6363 33.8795C18.5942 33.6917 18.1246 33.2865 17.8695 33.0647C17.6137 32.8436 17.6573 32.2757 17.6573 32.2757C17.5693 32.1611 17.4813 32.0472 17.3933 31.9334C17.3933 31.9334 17.1922 31.2176 16.5829 31.052C15.9736 30.8864 15.5714 29.9059 15.5714 29.9059C15.4021 29.9096 15.2327 29.914 15.0634 29.9177C15.0634 29.9177 14.6589 29.4785 14.2545 29.3077C13.8493 29.1376 13.1372 29.4253 13.1372 29.4253C13.1372 29.4253 12.3239 29.5354 11.8174 29.4593C11.3109 29.3824 11.4092 30.0094 11.0018 30.11C10.9855 30.1144 10.9544 30.1225 10.9278 30.1284C10.8805 30.4952 10.808 30.8716 10.5929 31.1607C10.1204 31.7973 10.7777 32.6854 11.1179 32.9597C11.1881 33.0166 11.2088 33.1002 11.2029 33.1985C11.98 33.2473 12.4126 33.1652 13.033 32.8872C13.6548 32.6092 13.7066 33.3486 14.4083 33.3797C15.1115 33.4107 15.1921 33.4566 15.1921 33.4566C15.1921 33.4566 14.7314 33.7294 14.2988 33.6925C13.8678 33.6555 13.382 33.1889 13.084 33.4351C12.786 33.6806 11.8676 33.8477 11.4351 33.8825C11.3641 33.8884 11.2118 33.9217 11.0129 33.972C10.9803 34.1849 11.001 34.3927 11.1755 34.5628C11.231 34.616 11.2761 34.6633 11.3205 34.7114C12.0532 34.5287 11.827 34.8556 12.0532 34.8704Z" fill="#F6F6F6"/>
<path d="M13.416 36.3794C13.7369 36.1739 14.3795 35.6489 14.6035 35.728C14.8276 35.8086 15.1167 35.6311 15.1174 35.518C15.1174 35.4056 14.6701 35.047 15.0228 34.9257C15.2653 34.8429 15.3252 34.5937 15.3407 34.4421C15.2136 34.3919 15.0812 34.3541 14.9762 34.3652C14.6782 34.3955 12.8681 34.5582 12.8681 34.5582C12.8681 34.5582 12.3261 34.8821 12.0562 34.8658C11.83 34.851 12.0562 34.5249 11.3242 34.7076C11.6888 35.1017 11.7368 35.3021 12.4799 35.4684C13.3125 35.6548 12.4141 36.0548 13.0959 36.4149C13.1602 36.4489 13.2097 36.4844 13.2608 36.5184C13.3236 36.4541 13.3798 36.4031 13.416 36.3794Z" fill="#F6F6F6"/>
<path d="M61.994 42.3031C61.994 42.0679 61.9948 41.832 61.4587 41.4335C60.9219 41.0342 60.564 40.9514 60.564 40.7163C60.564 40.4804 60.385 40.3998 59.9377 39.9243C59.4903 39.4489 58.7753 39.4408 58.7753 39.4408C58.7154 39.3091 58.6555 39.1775 58.5956 39.0459C58.3871 39.0178 58.1786 38.989 57.9694 38.9609C57.9694 38.9609 57.6115 38.722 58.149 38.4906C58.6844 38.2599 58.1491 37.6255 58.0588 37.3881C57.9812 37.1826 57.2255 36.3729 57.0303 36.1681C56.9356 36.1636 56.8454 36.1511 56.7789 36.1163C56.4802 35.9625 55.879 36.2605 55.5803 36.5208C55.2801 36.7833 55.4938 36.9356 55.2808 37.1227C55.0664 37.309 54.3373 37.8702 53.8663 38.3952C53.3946 38.9195 52.193 38.5734 51.8078 38.7598C51.4218 38.9468 51.9786 39.2507 51.722 39.4378C51.4647 39.6249 50.6927 39.9221 50.4354 40.0345C50.1788 40.1469 49.1481 40.1048 48.8479 40.4434C48.5484 40.7813 48.2046 40.0648 47.9036 40.4412C47.6042 40.8176 47.2603 40.8545 47.0895 40.7414C47.0481 40.7148 47.006 40.6689 46.9616 40.6076C46.6836 40.8331 46.3435 41.086 46.2311 41.3987C46.0381 41.9348 45.5234 42.414 45.5234 42.6676C45.5234 42.9219 45.7164 43.2599 45.7164 43.7109C45.7164 44.162 45.8443 44.3875 46.1342 44.7254C46.424 45.0626 46.3597 45.4863 46.3597 45.4855C46.3597 45.4855 46.4558 45.6548 46.6806 45.9077C46.9054 46.1613 47.5487 46.5281 47.613 46.7255C47.6433 46.8165 47.7535 46.8875 47.8637 46.9392C47.8918 46.8986 47.9199 46.8549 47.9517 46.8202C48.3096 46.4298 48.2201 45.8818 48.2201 45.8818C48.4878 45.8308 48.7562 45.7791 49.0253 45.728C49.2338 45.6763 49.4424 45.6253 49.6509 45.5742C50.0687 45.6275 50.4864 45.6815 50.9035 45.7347C50.9035 45.4486 50.9035 45.1616 50.9035 44.8748C50.9035 44.8748 51.7989 43.8595 52.4252 43.8625C53.0515 43.8662 53.5883 44.5746 53.5883 44.5746C54.5126 44.7372 55.4361 44.8999 56.3604 45.0648C56.3604 45.0648 56.5401 44.3616 56.8077 44.2071C57.0761 44.0533 57.6122 44.3712 57.9701 44.2174C58.328 44.0644 58.8648 43.8351 59.4904 43.8418C60.1159 43.8484 60.3843 44.1642 60.6527 43.6976C60.9211 43.231 62.2602 43.8743 62.2602 43.8743C62.6181 43.8263 62.9752 43.7789 63.3331 43.7309C63.2141 43.4684 63.095 43.2059 62.976 42.9427C62.9775 42.9427 61.994 42.5374 61.994 42.3031Z" fill="#F6F6F6"/>
<path d="M39.1962 41.5006C39.3685 41.4622 39.753 41.5738 40.0539 41.3845C40.3541 41.196 40.9982 41.6448 41.0832 42.0204C41.169 42.3975 41.427 41.8689 41.6843 41.4541C41.9417 41.0392 42.7572 39.7948 42.7565 39.4938C42.7565 39.1914 43.4434 38.9274 43.4442 38.7389C43.4442 38.5503 43.4005 38.1363 43.6164 38.0594C43.8309 37.9839 44.0017 37.4183 43.9588 37.229C43.9159 37.0404 44.6879 35.9831 44.8165 35.8315C44.9452 35.6807 45.6314 35.7568 45.6757 35.4167C45.7179 35.0773 45.8465 34.6994 45.5885 34.624C45.3312 34.5486 44.9888 34.2839 44.9888 34.0946C44.9888 33.9889 45.0043 33.6776 45.0783 33.4062C44.7352 33.3633 44.7167 33.0609 44.5163 32.8849C44.3034 32.6964 44.3034 32.5448 44.0032 32.6209C43.7022 32.6971 43.3599 33.3404 42.9739 33.4535C42.5879 33.5681 42.0304 33.3034 41.7731 33.1918C41.5165 33.0786 40.3157 33.1962 39.929 33.1607C39.5437 33.1245 39.157 33.6169 38.8575 33.7692C38.5573 33.9223 37.7003 33.8513 37.443 33.7766C37.1857 33.7034 36.5853 33.2539 36.328 33.2553C36.0707 33.2568 35.5568 33.3352 35.1279 33.5659C34.6991 33.7959 34.5711 33.1548 34.3145 32.8923C34.0572 32.6298 33.4997 32.862 33.1574 32.6002C32.8143 32.3385 32.5991 32.9086 32.3004 32.8731C32.0002 32.8383 31.2289 32.6949 30.9716 32.8871C30.7143 33.0794 30.7557 33.7966 30.6278 33.9112C30.4991 34.0266 29.9838 34.5604 29.983 34.8251C29.983 34.9471 29.9313 35.0329 29.8455 35.0795C29.9024 35.3923 29.9741 35.7908 29.9919 35.938C30.0237 36.1931 30.1501 37.4641 29.8285 37.7503C29.5068 38.0372 29.2813 38.4927 29.2813 38.4927C29.2813 38.4927 28.7667 38.8099 28.6691 39.4332C28.5722 40.0558 28.7001 40.4499 28.7001 40.9298C28.6994 41.2685 28.9863 41.5095 29.1438 41.928C29.1497 41.9339 29.1563 41.9339 29.1608 41.9399C29.4174 42.2386 30.6396 42.2807 31.3243 42.4049C32.0105 42.5299 32.7174 43.3684 32.6974 43.6886C32.676 44.008 33.147 44.624 33.4686 44.7704C33.7903 44.9182 34.583 44.4798 34.9482 44.4768C35.3135 44.4738 36.6208 44.4835 36.8788 44.2757C36.9543 44.215 37.0319 44.2217 37.111 44.2646C37.4208 43.54 37.534 42.8989 37.534 42.8989C37.534 42.8989 39.0246 41.5391 39.1962 41.5006Z" fill="#F6F6F6"/>
<path d="M28.6678 39.44C28.7647 38.8166 29.2801 38.4994 29.2801 38.4994C29.2801 38.4994 29.5056 38.044 29.8272 37.7571C30.1489 37.4709 30.0225 36.1991 29.9907 35.9447C29.9729 35.7983 29.9012 35.3983 29.8443 35.0863C29.7422 35.1417 29.5884 35.1447 29.3814 35.0656C28.9954 34.9192 29.34 34.5739 28.9118 34.4666C28.483 34.3587 28.3114 34.7757 28.3965 35.0781C28.4808 35.3776 28.1821 35.3813 28.0098 35.5736C27.8375 35.7651 27.067 35.8116 26.8097 35.8153C26.5524 35.819 26.2529 36.239 25.9956 36.3189C25.9372 36.3366 25.8573 36.3403 25.7656 36.3359C25.8233 37.3297 26.0111 37.2506 26.5501 37.5175C27.1602 37.8207 26.5812 38.2525 26.8378 38.475C27.0944 38.6983 26.9975 39.2647 27.0611 39.9702C27.0995 40.3975 27.1491 41.5044 27.1823 42.3134C27.535 42.249 27.9025 42.2269 28.1517 42.2239C28.6124 42.218 28.8904 41.6797 29.1425 41.9355C28.9858 41.5178 28.6989 41.276 28.6989 40.9373C28.6996 40.4567 28.5717 40.0626 28.6678 39.44Z" fill="#F6F6F6"/>
<path d="M26.8374 38.4688C26.5808 38.2469 27.1598 37.8144 26.5497 37.5112C26.0114 37.2443 25.8229 37.3234 25.7652 36.3296C25.4554 36.3171 24.9992 36.2054 24.6679 36.181C24.5984 36.1751 24.5437 36.1899 24.4941 36.2113C24.5629 36.5707 24.6635 36.9707 24.784 37.0284C25.0088 37.1378 25.1692 37.3626 25.1367 37.787C25.1034 38.2122 24.974 39.1461 25.1663 39.5675C25.3585 39.9883 25.5508 40.6634 25.55 41.3118C25.5493 41.7171 25.8111 42.3152 26.0795 42.7685C26.1911 42.7153 26.2924 42.6598 26.3738 42.5977C26.5653 42.4535 26.8692 42.364 27.1834 42.3064C27.1494 41.4974 27.0999 40.3905 27.0622 39.9631C26.9964 39.2592 27.0939 38.6921 26.8374 38.4688Z" fill="#F6F6F6"/>
<path d="M41.5989 47.3572C41.5989 47.3557 44.9995 47.5073 45.4475 47.4304C45.8942 47.3521 47.5046 48.0567 47.5046 48.0575C47.5046 48.0575 47.5815 47.3491 47.8647 46.9269C47.7538 46.8751 47.6444 46.8041 47.6141 46.7132C47.5497 46.5158 46.9064 46.149 46.6816 45.8954C46.4561 45.6425 46.3607 45.4732 46.3607 45.4732C46.3607 45.4739 46.4243 45.0502 46.1352 44.7131C45.8454 44.3751 45.7175 44.1496 45.7175 43.6986C45.7175 43.2483 45.5245 42.9096 45.5245 42.6552C45.5245 42.4016 46.0391 41.9217 46.2321 41.3864C46.3452 41.0736 46.6846 40.82 46.9626 40.5952C46.8192 40.3993 46.6639 40.0481 46.5323 39.6732C46.3607 39.1829 45.8897 39.0321 45.3307 38.5803C44.7732 38.127 44.9884 37.8631 44.9884 37.6745C44.9884 37.486 45.7174 37.4852 46.2321 37.5237C46.746 37.5621 47.0462 37.4497 46.8332 37.3366C46.6173 37.2227 46.1892 36.3539 46.2321 35.7505C46.275 35.1464 46.0176 34.9571 46.0605 34.617C46.1034 34.2769 45.5888 33.4073 45.1599 33.4073C45.1304 33.4073 45.1059 33.4014 45.0786 33.3984C45.0046 33.6698 44.9891 33.9804 44.9891 34.0868C44.9891 34.2761 45.3315 34.5408 45.5888 34.6163C45.8468 34.6917 45.7182 35.0703 45.676 35.4089C45.6324 35.7498 44.9462 35.6729 44.8168 35.8237C44.6882 35.9753 43.9162 37.0327 43.9591 37.2212C44.002 37.4105 43.8312 37.9762 43.6168 38.0516C43.4008 38.1278 43.4445 38.5419 43.4445 38.7311C43.4445 38.9197 42.7568 39.1844 42.7568 39.4861C42.7568 39.7878 41.942 41.0315 41.6846 41.4463C41.4273 41.8611 41.17 42.3891 41.0835 42.0127C40.9985 41.6371 40.3544 41.1882 40.0542 41.3768C39.7533 41.5661 39.3688 41.4544 39.1965 41.4929C39.025 41.5321 37.535 42.8911 37.5343 42.8919C37.5343 42.8919 37.4211 43.5329 37.1113 44.2576C37.3014 44.3604 37.5032 44.6946 37.7154 44.9585C38.0157 45.3327 38.5946 45.048 38.8305 45.1597C39.0671 45.2713 39.3244 46.152 39.2379 46.396C39.1551 46.6311 38.8002 47.2286 38.9643 47.5221C39.6342 47.5192 40.3034 47.5169 40.9726 47.5147C41.1811 47.463 41.3896 47.4097 41.5989 47.3572Z" fill="#F6F6F6"/>
<path d="M20.5396 43.5135C20.3466 43.2916 19.8978 42.3415 19.9296 42.1152C19.9621 41.8882 20.5085 41.2013 20.4767 40.8634C20.445 40.5255 21.0239 40.2888 21.0239 40.0064C21.0239 39.7912 20.876 38.7265 20.5218 38.0373C20.4486 38.0425 20.3592 38.0107 20.2564 37.9212C19.9998 37.7001 18.9314 37.7578 18.5454 38.1431C18.1601 38.5283 17.3911 37.8273 17.2632 37.6425C17.1346 37.4561 16.58 37.0539 16.1511 37.3267C15.7223 37.5996 15.5951 37.5279 15.6387 37.187C15.6831 36.8461 14.9984 36.9755 14.9119 37.2787C14.8261 37.5826 14.2693 37.8591 14.0985 37.6373C13.9277 37.4155 13.5447 37.1226 13.3724 37.4665C13.2526 37.7046 13.0515 37.689 12.8821 37.5826C12.7742 38.0055 12.6404 38.4884 12.8777 38.5993C13.1653 38.7338 13.1971 39.0156 13.1328 39.1864C13.0685 39.3572 13.6127 39.7683 13.3879 39.9709C13.1631 40.1728 12.8755 39.7853 12.7143 40.0715C12.5538 40.3576 13.0337 40.6001 12.8415 40.8308C12.6492 41.0601 12.3608 41.0963 12.4237 41.5459C12.4873 41.9954 12.4548 42.306 12.2625 42.4524C12.0703 42.5981 12.2943 42.5921 12.7431 42.8347C13.192 43.0765 13.9284 43.3419 13.8648 43.7656C13.8064 44.1516 13.6149 44.2448 13.4367 44.959C14.3063 44.9539 15.8657 44.3623 17.7032 44.0473C18.8515 43.8514 19.8223 43.9749 20.5122 44.1368C20.5884 43.8957 20.6365 43.6251 20.5396 43.5135Z" fill="#F6F6F6"/>
<path d="M25.1674 39.5633C24.9752 39.1418 25.1045 38.2079 25.1378 37.7827C25.1704 37.3583 25.0107 37.1343 24.7851 37.0241C24.6646 36.9664 24.564 36.5664 24.4953 36.207C24.2402 36.3128 24.2187 36.6817 24.1115 36.5257C23.9828 36.3379 20.6436 36.2832 20.4736 36.5139C20.3013 36.7431 20.7701 37.5653 20.7279 37.7923C20.7013 37.9277 20.6296 38.0208 20.5216 38.0304C20.8751 38.7203 21.0244 39.7843 21.0237 39.9995C21.023 40.282 20.4455 40.5186 20.4765 40.8565C20.5076 41.1944 19.9619 41.8813 19.9293 42.1084C19.8975 42.3346 20.3464 43.284 20.5394 43.5066C20.6362 43.6183 20.5874 43.8889 20.5142 44.1299C21.0969 44.2667 21.4821 44.4309 21.5989 44.4538C21.8563 44.5063 23.6753 43.7432 24.4051 43.4127C24.9862 43.148 25.6347 42.9779 26.0806 42.765C25.8129 42.3117 25.5512 41.7135 25.5512 41.3083C25.5519 40.6591 25.3589 39.984 25.1674 39.5633Z" fill="#F6F6F6"/>
<path d="M6.31516 38.4415C6.34769 38.1302 6.63532 38.2344 6.98729 38.281C7.33925 38.3276 7.75553 38.0622 8.0757 38.0525C8.39513 38.0437 9.22552 39.0086 9.22552 39.2911C9.22478 39.5728 9.25657 39.8271 9.41629 40.0482C9.43699 40.0771 9.45178 40.1067 9.46139 40.1362C9.97825 40.0179 10.4056 39.9506 10.5054 39.9484C10.6622 39.9447 10.9765 40.6021 10.9129 41.0198C10.8493 41.4376 11.3846 41.7297 11.6065 41.4465C11.8268 41.1625 12.11 40.7951 12.1736 41.0428C12.1928 41.1167 12.3104 41.1766 12.4605 41.2269C12.5403 41.0605 12.7119 40.991 12.8428 40.835C13.035 40.6035 12.5544 40.3618 12.7156 40.0756C12.8768 39.7894 13.1637 40.1784 13.3892 39.975C13.614 39.7717 13.0698 39.3613 13.1341 39.1905C13.1984 39.019 13.1674 38.7372 12.879 38.6034C12.6416 38.4925 12.7755 38.0097 12.8834 37.5867C12.8102 37.5416 12.7415 37.4787 12.6897 37.4122C12.5196 37.1911 12.649 36.6964 12.3503 36.7038C12.0508 36.7112 12.0952 36.3327 12.3518 36.2513C12.6091 36.1707 11.8401 35.9252 11.8408 35.6613C11.8416 35.398 11.4593 34.7651 11.2885 34.7318C11.1177 34.6985 10.518 35.3936 10.2614 35.4002C10.0056 35.4069 9.45253 34.9692 9.28024 35.3514C9.10796 35.733 8.72566 35.1777 8.46908 35.4882C8.21177 35.7966 8.04391 35.1599 8.04391 35.1599C8.04391 35.1599 8.04835 35.0712 8.05352 34.9492C8.00102 34.9677 7.94853 34.9854 7.89455 35.0039C7.15735 35.2509 5.84709 35.1488 5.78424 34.9529C5.72065 34.7562 4.76237 34.6165 4.76237 34.6172C4.76237 34.6172 4.79194 35.0971 4.43998 35.2206C4.08801 35.3448 4.53463 35.699 4.53389 35.8114C4.53389 35.9245 4.24478 36.1034 4.02148 36.0251C3.79817 35.9474 3.15708 36.4768 2.83691 36.6854C2.80068 36.7098 2.74597 36.7608 2.68164 36.8266C3.17409 37.1608 3.12899 37.5534 3.70721 37.9098C4.24033 38.2404 4.91986 38.6877 5.32655 39.4234C5.73914 39.1025 6.29297 38.6544 6.31516 38.4415Z" fill="#F6F6F6"/>
<path d="M12.7466 42.8396C12.2978 42.5971 12.0738 42.603 12.266 42.4574C12.4575 42.311 12.4908 42.0004 12.4272 41.5508C12.4073 41.4066 12.4257 41.3076 12.4627 41.2277C12.3126 41.1789 12.195 41.1175 12.1758 41.0436C12.1122 40.7951 11.829 41.1634 11.6087 41.4473C11.3861 41.7305 10.8515 41.4384 10.9151 41.0207C10.9787 40.6022 10.6644 39.9448 10.5077 39.9492C10.4079 39.9522 9.98045 40.0187 9.4636 40.1371C9.53163 40.3374 9.37784 40.5615 9.32164 40.7855C9.25805 41.0414 8.48758 41.4288 8.16815 41.6632C8.07942 41.7283 7.96185 41.8939 7.83984 42.1002C8.44099 42.4182 9.14345 42.7871 9.71502 43.1524C10.7606 43.8186 12.3414 44.6993 13.0897 44.9248C13.1888 44.9551 13.3086 44.9655 13.4417 44.9647C13.6199 44.2497 13.8114 44.1573 13.8698 43.7713C13.9319 43.3469 13.1947 43.0822 12.7466 42.8396Z" fill="#F6F6F6"/>
<path d="M19.9195 40.5331C19.9838 40.278 20.1768 40.0199 20.0164 39.7973C19.8567 39.574 19.8249 39.3204 19.8249 39.038C19.8249 38.7555 18.9923 37.7832 18.6714 37.7891C18.3505 37.795 17.9327 38.0582 17.5807 38.0094C17.228 37.9599 16.9389 37.8534 16.9064 38.1647C16.8834 38.3777 16.3289 38.8213 15.9141 39.1393C15.9939 39.2835 16.0679 39.4358 16.1241 39.6044C16.4642 40.6314 16.7844 40.8325 17.2768 41.1786C17.4986 41.3361 17.9334 41.569 18.4333 41.8374C18.556 41.6319 18.6728 41.4677 18.7623 41.4026C19.084 41.1705 19.8552 40.7882 19.9195 40.5331Z" fill="#F6F6F6"/>
<path d="M16.2622 20.851C16.2644 20.5582 17.7728 20.1485 17.7751 19.8572C17.7765 19.5659 17.8002 16.4337 17.8002 16.4337C17.7995 16.4307 22.5 16.4189 22.6419 16.3361C22.7151 16.291 22.7063 15.3837 22.687 14.4912C22.5103 14.2258 22.7676 13.9995 21.6556 14.0209C20.7453 14.0379 18.0886 14.0919 16.2984 14.1356C15.8858 14.4868 15.6596 14.9541 15.4999 15.3282C15.2389 15.939 13.6343 16.8685 13.5626 17.7225C13.4909 18.5765 11.9884 19.9393 10.9938 21.7834C10.7203 22.2921 10.5946 22.6847 10.5605 22.9997C12.4549 22.9472 14.3508 22.8999 16.2482 22.8556C16.2489 22.8548 16.26 21.1438 16.2622 20.851Z" fill="#F6F6F6"/>
<path d="M1.25338 29.7811C1.7584 29.8535 2.5688 29.736 2.5688 29.7367C2.5688 29.7367 3.27865 29.4439 3.68238 29.6103C4.08536 29.7774 4.48834 30.2129 4.4876 30.2129C4.65619 30.2077 4.82551 30.2025 4.9941 30.1966C4.9941 30.1966 5.39413 31.1726 6.00119 31.3331C6.3502 31.4263 6.56168 31.6991 6.68072 31.9158C7.11402 31.8936 7.4512 31.7575 7.45194 31.481C7.45342 31.1372 7.65085 30.6721 8.29489 31.1704C8.93892 31.6673 8.94113 31.2089 9.07127 31.0329C9.20215 30.8577 9.65394 31.0743 10.0414 31.0639C10.4296 31.0536 10.9487 30.8103 10.9487 30.8103C10.9479 30.8066 16.3242 30.732 16.5853 30.6151C16.8441 30.4953 16.7842 29.5208 16.7842 29.5215C16.6341 29.3914 16.4825 29.2612 16.3324 29.1311C15.8961 25.3734 15.4665 21.6097 15.0451 17.8498C15.8547 17.8298 16.6636 17.8113 17.4733 17.7928C14.892 16.3288 12.6863 15.0962 12.4061 14.9608C12.253 14.8869 12.1746 14.8115 12.1258 14.7383C12.1421 15.63 12.148 16.5373 12.0755 16.5824C11.9336 16.6667 7.24342 16.7192 7.2449 16.7221C7.24416 16.7221 7.21237 19.8521 7.21015 20.1434C7.20719 20.4355 5.70247 20.857 5.69951 21.1498C5.69656 21.4426 5.68103 23.1529 5.68103 23.1529C3.78886 23.2128 1.89815 23.2764 0.00966658 23.3444C-0.0805428 24.1711 0.482156 24.4424 0.801586 24.7604C1.24376 25.1981 0.451104 26.0196 1.10327 26.8093C1.75544 27.5998 0.939118 28.8745 0.61673 29.3396C0.441488 29.5925 0.420793 30.0199 0.364597 30.4591C0.391216 30.4525 0.422265 30.4443 0.438532 30.4399C0.845213 30.3334 0.748353 29.7086 1.25338 29.7811Z" fill="#F6F6F6"/>
<path d="M29.5943 25.8791C29.5943 25.8791 29.5987 24.889 28.8867 24.537C28.1761 24.1858 27.2614 24.1082 27.2614 24.1082C27.2614 24.1082 26.7571 23.3044 26.3512 22.951C26.1072 22.7373 21.3623 19.9918 17.4781 17.7891C16.6685 17.8068 15.8588 17.826 15.0499 17.846C15.4714 21.6067 15.901 25.3696 16.3372 29.1273C16.4873 29.2575 16.6382 29.3876 16.789 29.5178C16.789 29.5178 16.8489 30.4916 16.5901 30.6114C16.3298 30.7282 10.9527 30.8036 10.9535 30.8066C10.9535 30.8066 10.4344 31.0498 10.0462 31.0602C9.65877 31.0705 9.20623 30.8546 9.0761 31.0291C8.94596 31.2051 8.94375 31.6635 8.29971 31.1667C7.65568 30.669 7.45898 31.1334 7.45676 31.4772C7.45528 31.753 7.11885 31.8898 6.68555 31.912C6.77354 32.0732 6.81273 32.2033 6.81273 32.2033C6.89998 32.3165 6.98798 32.4303 7.07597 32.5435C7.07597 32.5435 7.03161 33.1113 7.28671 33.3295C7.54107 33.5491 8.00912 33.9498 8.05052 34.1377C8.09193 34.3255 8.04682 35.1573 8.04682 35.1566C8.04682 35.1566 8.21394 35.7925 8.472 35.4849C8.72932 35.1751 9.11085 35.7304 9.28313 35.3481C9.45542 34.9658 10.0078 35.4043 10.2643 35.3969C10.5209 35.3895 11.1206 34.6952 11.2914 34.7284C11.4622 34.761 11.8445 35.3939 11.8438 35.6579C11.843 35.9219 12.6113 36.1666 12.3547 36.248C12.0981 36.33 12.0545 36.7086 12.3532 36.7005C12.6527 36.6931 12.5226 37.1878 12.6926 37.4088C12.8627 37.6307 13.2043 37.8111 13.3766 37.4673C13.5489 37.1234 13.9311 37.4162 14.1027 37.6381C14.2735 37.8599 14.8303 37.5834 14.916 37.2795C15.0026 36.9756 15.6865 36.8469 15.6429 37.1878C15.6 37.5286 15.7272 37.6011 16.1553 37.3275C16.2855 37.2447 16.426 37.2284 16.565 37.244C16.718 36.8018 16.8925 36.3929 16.9709 36.2539C17.0996 36.0239 16.6736 35.5056 16.8873 35.425C17.1018 35.3444 17.8279 35.4812 18.0431 34.9473C18.259 34.4149 18.5163 34.1443 18.5163 34.1443C18.5163 34.1443 18.605 33.0108 18.9888 33.1919C19.374 33.3724 19.8428 33.6659 19.8872 33.2112C19.9315 32.7564 20.4011 33.013 20.5305 32.5945C20.6599 32.1752 20.9164 32.2093 21.2167 32.2788C21.5154 32.3497 21.7727 32.2314 21.7734 32.0037C21.7742 31.7782 22.4581 31.8787 23.0164 31.5282C23.5732 31.1778 23.8741 30.9086 24.0864 31.0935C24.3008 31.2798 25.7131 31.2192 25.9275 31.1408C26.1419 31.0617 26.5708 30.7156 27.0847 30.7836C27.5979 30.8517 28.8401 30.5707 29.354 30.564C29.8679 30.5574 30.0838 30.1396 30.2546 29.9858C30.4261 29.8335 30.557 29.151 30.7286 29.0349C30.8661 28.9425 30.8439 26.5645 30.8306 25.6262C30.3093 25.7297 29.5943 25.8791 29.5943 25.8791Z" fill="#F6F6F6"/>
<path d="M28.3972 35.0555C28.1791 34.8803 27.8862 34.8292 27.8101 34.8307C27.6822 34.8322 27.779 34.2081 27.7154 34.1238C27.6511 34.0395 27.2326 34.3005 26.976 34.2192C26.7194 34.1379 26.6233 33.7711 26.3985 33.7741C26.1745 33.7778 26.1427 33.5515 26.1427 33.2957C26.1434 33.0406 25.7264 32.7921 25.4698 32.6258C25.2132 32.4594 25.1504 31.9788 24.9899 31.896C24.8983 31.8486 24.9345 31.4996 24.9818 31.2098C24.5825 31.2105 24.1877 31.1795 24.0819 31.087C23.869 30.9029 23.5688 31.1721 23.012 31.5218C22.4545 31.8716 21.7698 31.771 21.769 31.9973C21.7683 32.225 21.511 32.3426 21.2122 32.2723C20.9128 32.2028 20.6562 32.1688 20.5261 32.5881C20.3967 33.0058 19.9271 32.75 19.8828 33.2047C19.8384 33.6595 19.3696 33.3659 18.9844 33.1855C18.5999 33.0043 18.5119 34.1379 18.5119 34.1379C18.5119 34.1379 18.2546 34.4085 18.0386 34.9409C17.8235 35.4748 17.0974 35.338 16.8829 35.4186C16.6692 35.4992 17.0951 36.0175 16.9665 36.2475C16.8881 36.3865 16.7129 36.7954 16.5605 37.2375C16.877 37.2767 17.1735 37.5067 17.263 37.6368C17.3909 37.8217 18.1592 38.5219 18.5451 38.1374C18.9311 37.7529 19.9996 37.6945 20.2562 37.9156C20.512 38.1374 20.6843 38.0198 20.7279 37.7943C20.7701 37.5673 20.3013 36.7451 20.4736 36.5159C20.6436 36.2852 23.9829 36.3399 24.1115 36.5277C24.2387 36.7148 24.2402 36.1491 24.669 36.1794C25.0972 36.2105 25.7397 36.3894 25.997 36.3103C26.2543 36.2312 26.5538 35.8104 26.8111 35.8067C27.0685 35.8031 27.8397 35.7557 28.0112 35.565C28.1835 35.3735 28.4822 35.3698 28.3979 35.0696C28.3979 35.0644 28.3987 35.0599 28.3972 35.0555Z" fill="#F6F6F6"/>
<path d="M46.4044 21.8345C46.4044 21.6489 46.3556 20.8111 46.3193 20.1885C45.937 20.3712 45.554 20.5546 45.171 20.7387C45.171 20.7387 44.8664 20.2876 44.2556 19.9275C43.6463 19.5667 42.1209 19.5697 42.1209 19.5704C40.052 20.7172 37.9809 21.8693 35.909 23.0257C35.0262 23.6624 34.1433 24.3005 33.2597 24.9386C33.2597 24.9386 31.528 25.4961 31.0192 25.5922C30.9601 25.6033 30.8943 25.6159 30.8263 25.6292C30.8396 26.5675 30.8618 28.9448 30.7242 29.0379C30.5527 29.1533 30.4225 29.8365 30.2502 29.9888C30.0787 30.1426 29.8635 30.5604 29.3496 30.5671C28.8357 30.5737 27.5935 30.8547 27.0804 30.7867C26.5665 30.7186 26.1376 31.064 25.9232 31.1438C25.8152 31.1837 25.3945 31.2185 24.9819 31.2185C24.9345 31.5091 24.8991 31.8566 24.99 31.9047C25.1505 31.9867 25.2133 32.4681 25.4699 32.6345C25.7265 32.8001 26.1435 33.0493 26.1428 33.3044C26.142 33.5602 26.1746 33.7858 26.3986 33.7828C26.6234 33.7798 26.7195 34.1466 26.9761 34.2279C27.2334 34.3093 27.6512 34.049 27.7155 34.1325C27.7791 34.2168 27.6815 34.8409 27.8102 34.8394C27.8863 34.8387 28.1791 34.889 28.3973 35.0642C28.3204 34.764 28.4919 34.361 28.9148 34.4668C29.343 34.5747 28.9991 34.9193 29.3844 35.0657C29.7696 35.2114 29.9848 35.096 29.9855 34.8313C29.9863 34.5666 30.5009 34.032 30.6303 33.9174C30.7582 33.802 30.7168 33.0855 30.9741 32.8933C31.2315 32.701 32.0027 32.8445 32.3029 32.8792C32.6016 32.914 32.8168 32.3446 33.1599 32.6064C33.5015 32.8681 34.0597 32.6367 34.3171 32.8985C34.5729 33.161 34.7008 33.802 35.1304 33.5721C35.5585 33.3414 36.0732 33.2637 36.3305 33.2615C36.5878 33.2593 37.1882 33.7096 37.4456 33.7828C37.7029 33.8575 38.5599 33.9277 38.8601 33.7754C39.1603 33.6231 39.5463 33.1306 39.9315 33.1669C40.3175 33.2024 41.5183 33.0848 41.7756 33.1979C42.0329 33.3103 42.5904 33.5743 42.9764 33.4597C43.3624 33.3458 43.7047 32.7032 44.0057 32.6271C44.1003 32.6034 44.161 32.6086 44.212 32.6234C44.2164 32.4762 44.2194 32.3358 44.2194 32.2115C44.2194 31.5305 44.3909 31.7952 44.5203 31.115C44.649 30.4332 46.6632 28.6542 46.8347 28.541C47.0063 28.4287 47.0048 25.7394 47.0041 25.3601C47.0041 24.9815 47.0898 24.5275 47.2606 23.9966C47.4322 23.4657 46.9612 23.5041 47.0033 23.0109C47.0455 22.5185 46.4044 22.1392 46.4044 21.8345Z" fill="#F6F6F6"/>
<path d="M58.6624 24.8945C54.9757 23.1021 51.2897 21.3238 47.6081 19.5625C47.1777 19.7688 46.7467 19.9751 46.3163 20.1821C46.3525 20.8055 46.4021 21.6432 46.4014 21.8281C46.4014 22.1327 47.0424 22.512 47.0003 23.0045C46.9581 23.4977 47.4284 23.4593 47.2576 23.9902C47.0875 24.5211 47.001 24.9751 47.001 25.3536C47.001 25.733 47.0033 28.4222 46.8317 28.5346C46.6602 28.6478 44.646 30.4268 44.5173 31.1086C44.3879 31.7888 44.2164 31.5241 44.2164 32.2051C44.2164 32.3286 44.2134 32.4698 44.209 32.617C44.3192 32.6502 44.3694 32.756 44.5158 32.8854C44.7317 33.0739 44.731 33.4148 45.1591 33.4148C45.588 33.4156 46.1026 34.2844 46.0597 34.6245C46.0169 34.9646 46.2749 35.1539 46.2313 35.758C46.1884 36.3614 46.6165 37.2302 46.8324 37.3441C47.0461 37.4572 46.7452 37.5696 46.2313 37.5312C45.7167 37.4927 44.9876 37.4935 44.9876 37.682C44.9876 37.8706 44.7724 38.1353 45.3299 38.5878C45.8882 39.0403 46.36 39.1904 46.5315 39.6807C46.7038 40.1709 46.9167 40.6227 47.0898 40.7366C47.2606 40.8497 47.6044 40.8135 47.9039 40.4364C48.2048 40.0607 48.5486 40.7765 48.8481 40.4386C49.1483 40.0999 50.1783 40.1413 50.4356 40.0297C50.6922 39.9173 51.4649 39.6193 51.7222 39.433C51.9795 39.2459 51.4213 38.942 51.808 38.7549C52.1932 38.5686 53.3948 38.9146 53.8665 38.3904C54.3376 37.8654 55.0659 37.3042 55.2811 37.1178C55.494 36.9308 55.2811 36.7777 55.5805 36.5159C55.88 36.2549 56.4804 35.9569 56.7791 36.1115C56.8464 36.1462 56.9359 36.1588 57.0305 36.1632C57.0024 36.1329 56.9839 36.1144 56.9839 36.1144C57.0438 35.9311 57.103 35.7477 57.1629 35.565C57.1621 35.565 56.4479 35.2441 56.4471 34.7709C56.4464 34.2984 56.6246 33.8274 56.178 33.8237C55.7306 33.82 55.6404 33.4237 55.9976 33.1124C56.3554 32.7996 55.4607 32.1607 56.0863 32.1659C56.7126 32.1711 56.2645 31.3001 56.7111 31.2254C57.1577 31.1507 57.2457 30.8357 57.2457 30.4409C57.2457 30.046 58.2269 29.819 58.4953 29.7428C58.7637 29.6674 58.6713 28.4038 58.6713 28.4038C58.6684 27.234 58.6654 26.0642 58.6624 24.8945Z" fill="#F6F6F6"/>
<path d="M74.2267 11.1575C73.8755 10.3981 73.5235 9.64021 73.1716 8.88156C73.0984 8.98212 73.0429 9.05311 73.0126 9.07899C72.844 9.22687 72.1393 8.83202 71.4813 8.96881C70.8232 9.1056 70.3108 8.88747 69.6704 8.59097C69.0301 8.29372 66.9493 8.61242 66.675 8.96808C66.4014 9.32226 65.699 9.30968 65.0586 9.07233C64.419 8.83424 63.5872 8.48153 62.416 8.36914C61.3209 8.26562 60.4395 8.11478 60.2398 7.87891C60.1947 7.9876 60.1519 8.09334 60.1105 8.19538C59.76 9.05829 60.3833 9.30303 59.9411 9.77034C59.4989 10.2384 59.9463 10.7959 59.9507 11.664C59.9544 12.2622 59.9811 18.0215 59.9921 21.5323C62.9321 21.5671 65.8705 21.6122 68.806 21.6684C68.806 21.6684 69.0619 21.5212 69.317 21.3748C69.5728 21.2284 70.0017 21.6159 70.0017 21.6151C70.6272 21.6277 71.2528 21.6403 71.8783 21.6536C71.8776 21.6536 72.2236 22.0403 72.6488 22.0499C73.0762 22.0595 72.8167 21.4473 73.4991 21.4628C74.1801 21.4783 74.0042 20.5651 74.4301 20.5748C74.8567 20.5844 74.7724 20.6598 75.1946 20.14C75.2072 20.1245 75.2279 20.1037 75.2419 20.0875C75.2087 19.9226 75.2035 19.7503 75.2331 19.5728C75.3359 18.9695 74.8663 18.9954 74.5617 18.1369C74.257 17.2777 73.0525 15.9815 73.0074 15.4883C72.9601 14.9958 72.2983 14.6971 72.3146 14.1669C72.3309 13.6375 71.9907 13.5739 71.323 12.7265C70.6561 11.8807 70.4505 10.4196 70.6428 10.3671C70.8335 10.3146 71.3984 11.613 71.6143 12.033C71.831 12.4544 72.566 13.7381 73.0777 13.7499C73.5893 13.7617 73.7624 11.8548 73.9332 11.9546C73.9487 11.9627 73.959 11.9842 73.9694 12.0108C73.9864 11.8954 74.0042 11.7808 74.0212 11.6662C74.0892 11.4976 74.158 11.3276 74.2267 11.1575Z" fill="#F6F6F6"/>
<path d="M41.4521 54.9245C42.1693 54.923 41.9009 54.5348 41.631 53.9122C41.3626 53.2904 42.0806 53.3665 42.5287 53.3658C42.9775 53.3651 42.7971 52.6641 43.1557 52.6633C43.5143 52.6626 43.603 53.5203 43.9631 53.4419C44.3217 53.3636 44.5901 53.6749 45.039 53.5972C45.4871 53.5189 45.4878 52.7402 45.4871 52.1162C45.4871 51.4921 45.5765 51.0233 45.1292 50.7897C44.6804 50.5545 44.3225 50.0088 44.8608 49.7737C45.3991 49.5393 45.4878 49.0698 45.0397 48.757C44.5909 48.4435 43.6045 49.0698 43.6045 48.7577C43.6045 48.5862 43.6844 47.9754 43.7576 47.4519C42.7194 47.4231 41.6007 47.375 41.6014 47.375C41.5119 47.3979 41.4232 47.4209 41.3337 47.443C41.3966 48.3614 41.2739 49.0742 41.2739 49.0742C41.2739 49.0735 39.659 49.1577 39.3003 49.16C39.2227 49.1607 38.9765 49.191 38.6297 49.2398C38.5565 49.3411 38.4574 49.4417 38.3827 49.5075C38.1897 49.6761 38.8338 49.8979 38.941 50.1397C39.0482 50.3822 38.1254 50.312 38.1461 50.6669C38.169 51.0211 37.8252 51.3035 37.5679 51.4721C37.3105 51.6415 38.254 52.3461 38.2755 52.5872C38.2977 52.8297 38.5121 53.0523 39.3269 53.7385C40.1041 54.3928 39.7329 54.5614 40.7614 55.2831C40.8975 55.1012 41.1134 54.9252 41.4521 54.9245Z" fill="#F6F6F6"/>
<path d="M41.2713 49.0687C41.2713 49.0687 41.3941 48.3559 41.3312 47.4375C41.2114 47.4671 41.0924 47.4974 40.9726 47.527C40.3027 47.5292 39.6335 47.5314 38.9643 47.5344C38.9695 47.5462 38.9725 47.561 38.9799 47.5713C39.1943 47.8508 39.0878 48.2634 38.6368 48.3965C38.1865 48.5304 38.2079 48.8853 38.5724 48.9015C38.7965 48.9126 38.7447 49.0731 38.6264 49.2336C38.9732 49.1848 39.2187 49.1544 39.2971 49.1537C39.6572 49.1522 41.2713 49.0687 41.2713 49.0687Z" fill="#F6F6F6"/>
<path d="M43.5146 56.0675C43.783 56.1451 43.9619 56.5333 44.4995 56.1451C45.0378 55.7562 45.6648 55.8345 45.6648 56.2227C45.6648 56.6109 45.8445 56.5325 46.2926 56.1451C46.7399 55.7569 47.1888 56.2242 47.1888 55.4463C47.1895 54.6699 47.7271 55.3709 47.7278 54.5147C47.7286 53.6584 47.818 52.8014 47.8188 52.4118C47.8188 52.0221 49.075 51.6354 49.075 51.0113C49.075 50.3865 50.1516 49.1398 50.1524 48.3568C50.1531 47.5737 50.423 47.4177 50.6922 47.0273C50.8785 46.7574 51.0153 46.2235 50.9073 45.7133C50.9073 45.717 50.9073 45.7193 50.9073 45.723C50.4895 45.669 50.0718 45.6157 49.6547 45.5625C49.4462 45.6143 49.2377 45.6653 49.0292 45.7163C48.7608 45.7673 48.4931 45.8191 48.224 45.8701C48.224 45.8701 48.3134 46.418 47.9555 46.8084C47.5969 47.1996 47.5075 48.058 47.5075 48.058C47.5075 48.058 45.897 47.3526 45.4504 47.431C45.2589 47.4643 44.5313 47.4547 43.7586 47.434C43.6847 47.9575 43.6055 48.5682 43.6055 48.7398C43.6055 49.0518 44.5919 48.4248 45.0408 48.7391C45.4888 49.0518 45.4001 49.5214 44.8618 49.7558C44.3235 49.9909 44.6807 50.5373 45.1302 50.7717C45.5783 51.0061 45.4888 51.4742 45.4881 52.0982C45.4881 52.7216 45.4874 53.5009 45.04 53.5793C44.5912 53.6569 44.3228 53.3464 43.9642 53.424C43.6048 53.5024 43.5168 52.6447 43.1567 52.6454C42.7981 52.6461 42.9785 53.3471 42.5297 53.3479C42.0816 53.3486 41.3636 53.2724 41.632 53.8943C41.9019 54.5169 42.1703 54.9043 41.4531 54.9066C41.1144 54.9073 40.8978 55.0825 40.7617 55.2674C40.8098 55.3014 40.8578 55.3347 40.9148 55.3717C41.5152 55.7732 41.8975 56.2323 42.157 56.6945C42.7515 56.3396 43.366 56.0253 43.5146 56.0675Z" fill="#F6F6F6"/>
<path d="M74.4328 20.5888C74.0068 20.5792 74.1828 21.4917 73.5018 21.4769C72.8186 21.4614 73.0781 22.0736 72.6515 22.064C72.2256 22.0551 71.881 21.6677 71.881 21.6677C71.2554 21.6543 70.6299 21.641 70.0044 21.6292C70.0044 21.6292 69.5748 21.2425 69.3197 21.3889C69.0646 21.536 68.8087 21.6832 68.8087 21.6824C65.8732 21.627 62.934 21.5819 59.9948 21.5464C60 23.1191 60.0037 24.2394 60.0037 24.2394C59.5578 24.2342 59.1112 24.229 58.6646 24.2246C58.6683 25.6206 58.672 27.0166 58.675 28.4112C58.675 28.4112 58.7674 29.6748 58.499 29.7503C58.2313 29.8264 57.2493 30.0534 57.2493 30.4483C57.2501 30.8431 57.1621 31.1574 56.7147 31.2328C56.2689 31.3075 56.7162 32.1793 56.0899 32.1733C55.4644 32.1682 56.3591 32.807 56.0012 33.1198C55.6441 33.4311 55.7343 33.8274 56.1816 33.8311C56.6282 33.8348 56.4508 34.3051 56.4508 34.7783C56.4508 35.2516 57.1665 35.5725 57.1665 35.5725C57.1066 35.7558 57.0475 35.9392 56.9876 36.1219C56.9876 36.1219 57.9725 37.1541 58.062 37.3907C58.1522 37.6273 58.6875 38.2625 58.1522 38.4932C57.6154 38.7239 57.9732 38.9634 57.9725 38.9634C58.181 38.9915 58.3895 39.0196 58.5988 39.0485C58.6587 39.1801 58.7186 39.3117 58.7785 39.4433C58.7785 39.4433 59.4928 39.4507 59.9408 39.9269C60.3882 40.4031 60.5664 40.483 60.5671 40.7188C60.5671 40.9547 60.925 41.0368 61.4618 41.4361C61.9972 41.8354 61.9964 42.0712 61.9972 42.3056C61.9972 42.5408 62.9806 42.946 62.9806 42.946C63.0923 43.1915 63.2039 43.4369 63.3156 43.6824C63.4841 43.7623 63.618 43.8584 63.6904 44.0196C63.8694 44.4152 64.3175 44.657 64.3175 44.657C64.3175 44.657 64.855 44.9786 65.2129 44.6703C65.5715 44.3612 66.0181 44.762 66.0181 44.7612C66.0181 44.7612 66.467 44.4544 66.7346 44.6148C66.9173 44.7243 67.7158 45.3136 68.4072 45.88C68.51 45.8482 69.1814 45.6449 69.4779 45.6241C69.7988 45.6012 70.2469 46.0878 70.3763 45.9214C70.5049 45.755 71.1793 45.5147 71.4359 45.6323C71.6932 45.7499 72.3017 45.7898 72.3343 45.5938C72.3557 45.4607 72.63 45.3313 72.8238 45.1923C72.914 45.128 72.9886 45.06 73.0086 44.989C73.0729 44.7649 73.8427 44.3871 74.1628 44.3368C74.4845 44.288 74.8683 44.2681 75.0294 44.4403C75.1049 44.5209 75.2424 44.583 75.3895 44.6407C75.4997 43.9227 75.6809 43.5323 75.414 43.5264C75.0568 43.5183 74.341 43.1892 74.0734 42.5548C73.805 41.9204 72.9997 41.5108 72.8215 41.1122C72.6419 40.7151 71.6569 40.775 71.4787 40.4563C71.2983 40.1376 71.7472 40.1465 71.7464 39.7539C71.7464 39.3605 72.8201 39.6178 72.9081 39.5409C72.9975 39.464 73.0863 38.6004 73.0855 38.1272C73.0848 37.6547 73.7991 37.1977 73.5299 36.9544C73.2615 36.7127 73.7976 36.6461 74.1555 36.4169C74.5126 36.1877 74.242 35.4719 74.5991 35.1636C74.9555 34.8574 75.221 34.2319 75.4894 34.2378C75.7585 34.2437 76.1127 33.9361 76.112 33.6204C76.1112 33.3054 76.7346 32.6887 76.6444 32.1334C76.5512 31.5781 76.2813 30.8609 76.7257 30.3973C77.1693 29.9344 77.3468 29.544 77.2559 29.1462C77.1642 28.7483 77.789 28.6848 78.0552 28.4555C78.243 28.2914 78.9232 28.0592 79.4261 27.3531C79.0992 26.9915 78.7502 26.6928 78.5254 26.5952C78.0123 26.3748 77.6662 25.5711 77.6596 24.5684C77.6529 23.565 77.3705 22.762 77.3246 22.4403C77.2795 22.1172 76.7205 21.4214 76.0587 21.0828C75.5892 20.8439 75.326 20.4972 75.2454 20.1016C75.2321 20.1178 75.2106 20.1378 75.198 20.1541C74.7743 20.6739 74.8587 20.5992 74.4328 20.5888Z" fill="#F6F6F6"/>
<path d="M84.9875 34.8178C84.9054 34.9354 84.5638 35.4145 84.2902 35.6844C83.976 35.992 84.1579 36.5939 84.2481 36.7551C84.339 36.9178 84.7886 36.8904 85.057 36.7403C85.2663 36.6235 85.423 36.6996 85.7373 36.9703C85.8992 36.7669 86.1247 36.5407 86.331 36.3595C85.9739 36.165 85.6456 36.1244 85.5583 36.0445C85.4097 35.9085 85.9828 35.5491 86.3872 35.4862C86.7917 35.4234 86.598 35.0034 86.2571 34.7276C86.2009 34.6825 86.1358 34.6263 86.0656 34.5664C85.8756 34.6588 85.721 34.7431 85.6759 34.7949C85.5709 34.9169 85.3343 34.8629 84.9875 34.8178Z" fill="#F6F6F6"/>
<path d="M78.052 28.4462C77.785 28.6754 77.161 28.7398 77.2527 29.1368C77.3436 29.5346 77.1669 29.9258 76.7225 30.3879C76.2803 30.8486 76.5458 31.5599 76.6389 32.1137C77.1772 32.093 77.7347 32.0997 77.8471 32.1995C78.0734 32.4036 78.1621 32.2077 78.296 31.8135C78.4298 31.4187 78.699 31.466 78.9703 31.6723C79.2402 31.8786 79.4214 32.2017 79.8702 32.0147C80.319 31.8276 80.2747 31.9459 80.5002 32.0317C80.7257 32.1182 81.6241 32.0235 81.9384 32.0723C82.2541 32.1211 85.0062 34.789 85.0055 34.789C85.0055 34.789 84.9988 34.7978 84.987 34.8156C85.3338 34.8607 85.5704 34.9147 85.6754 34.7927C85.7205 34.7409 85.875 34.6566 86.0651 34.5642C85.7138 34.2618 85.2044 33.7693 84.5249 32.9922C83.7108 32.0605 82.7495 31.5422 82.2371 31.5274C81.7254 31.5126 81.6367 30.7362 81.3172 30.6889C80.9971 30.643 80.2665 29.5065 80.2406 28.7878C80.2266 28.3834 79.8443 27.8103 79.4236 27.3438C78.9201 28.0499 78.2398 28.2821 78.052 28.4462Z" fill="#F6F6F6"/>
<path d="M72.8211 41.1093C72.9993 41.5071 73.8045 41.9175 74.0729 42.5519C74.3406 43.1863 75.0564 43.5153 75.4135 43.5235C75.6805 43.5294 75.4993 43.9198 75.3891 44.6378C75.5592 44.7021 75.7426 44.7598 75.8616 44.8219C76.0864 44.9395 77.0158 44.8485 77.336 45.1095C77.6554 45.3706 78.681 45.9858 79.0004 45.9939C79.3214 46.0013 80.4741 46.1721 80.6656 46.2889C80.8571 46.4072 81.1144 45.88 81.6269 45.6397C82.1385 45.4009 82.7796 45.25 82.875 45.4504C82.9704 45.6493 83.3224 45.8283 83.5782 45.7233C83.6825 45.6804 83.9723 45.6197 84.2969 45.5658C84.7687 45.4859 85.3129 45.4194 85.4652 45.4408C85.7203 45.4763 86.4242 44.5979 87.3507 44.6274C88.2772 44.6563 88.5323 44.8064 88.9479 44.4256C89.3649 44.0455 92.489 41.3658 92.7751 41.1795C93.062 40.9932 92.5836 40.8911 92.2642 40.8801C91.9455 40.8682 91.3074 40.8179 90.2862 40.4164C89.2636 40.0149 87.6672 39.4825 87.3788 39.4175C87.0912 39.3509 86.6742 38.7461 86.4183 38.6248C86.1625 38.5035 85.65 37.6976 85.5206 37.4388C85.477 37.3501 85.5776 37.1719 85.7395 36.9715C85.4253 36.7016 85.2678 36.6254 85.0593 36.7415C84.7901 36.8924 84.3405 36.919 84.2503 36.7563C84.1601 36.5951 83.9782 35.9932 84.2925 35.6856C84.606 35.3773 85.0082 34.7924 85.0082 34.7924C85.009 34.7924 82.2576 32.1238 81.9411 32.0758C81.6269 32.027 80.7277 32.1216 80.503 32.0351C80.2774 31.9493 80.3218 31.831 79.873 32.0181C79.4241 32.2052 79.243 31.882 78.9731 31.6757C78.7017 31.4694 78.4326 31.4221 78.2987 31.817C78.1649 32.2111 78.0762 32.4078 77.8499 32.2029C77.7383 32.1024 77.18 32.0972 76.6417 32.1172C76.6417 32.1201 76.6424 32.1246 76.6439 32.1275C76.7349 32.6836 76.1108 33.2995 76.1115 33.6145C76.1123 33.9302 75.7581 34.2386 75.4889 34.2319C75.2205 34.226 74.9551 34.8508 74.5987 35.1577C74.2415 35.466 74.5122 36.1818 74.155 36.411C73.7971 36.6402 73.2618 36.7068 73.5295 36.9485C73.7979 37.1918 73.0836 37.6488 73.0851 38.1213C73.0858 38.5952 72.9971 39.4589 72.9076 39.535C72.8189 39.6119 71.7452 39.3546 71.746 39.748C71.7467 40.1414 71.2979 40.1325 71.4783 40.4504C71.6573 40.7721 72.6407 40.7122 72.8211 41.1093Z" fill="#F6F6F6"/>
<path d="M74.6886 7.18063C74.4727 7.25309 74.395 7.98216 74.3965 8.09677C74.3972 8.17959 74.537 8.55225 74.937 8.92122C75.0124 8.3637 75.0235 7.62945 75.0775 7.42981C75.0916 7.37805 75.1071 7.29006 75.1241 7.18211C74.9097 7.16584 74.7499 7.16141 74.6886 7.18063Z" fill="#F6F6F6"/>
<path d="M74.1679 11.3149C74.2159 11.3393 74.2655 11.3652 74.3172 11.3903C74.4304 10.625 74.6071 9.72665 74.7587 9.54771C74.843 9.44863 74.8969 9.21201 74.9347 8.93177C74.5346 8.5628 74.3949 8.19014 74.3941 8.10732C74.3926 7.99271 74.4703 7.2629 74.6862 7.19118C74.7476 7.17195 74.908 7.17639 75.1217 7.19266C75.158 6.96492 75.1979 6.64178 75.2312 6.3475C74.9879 6.24989 74.7454 6.15229 74.5028 6.05469C74.3971 6.26099 74.3128 6.46359 74.281 6.6477C74.1679 7.32575 73.5009 8.43487 73.1719 8.89332C73.5231 9.65122 73.8751 10.4099 74.227 11.1693C74.2078 11.2173 74.1878 11.2669 74.1679 11.3149Z" fill="#F6F6F6"/>
<path d="M82.9395 47.3219C83.1613 47.0261 83.3832 46.7296 83.605 46.4338C83.8349 46.1447 84.0642 45.8564 84.2941 45.5672C83.9695 45.6212 83.6797 45.6811 83.5754 45.7247C83.3196 45.829 82.9676 45.6508 82.8722 45.4519C82.7761 45.2515 82.1358 45.4031 81.6241 45.6412C81.1117 45.8807 80.8551 46.408 80.6628 46.2904C80.4713 46.1728 79.3186 46.0028 78.9977 45.9954C78.6775 45.9872 77.6534 45.3713 77.3332 45.111C77.0123 44.85 76.0836 44.9402 75.8588 44.8234C75.6348 44.7058 75.186 44.6112 75.0262 44.4389C74.8658 44.2666 74.4813 44.2858 74.1596 44.3354C73.8395 44.3849 73.0697 44.7627 73.0054 44.9875C72.9862 45.0585 72.9108 45.1258 72.8205 45.1909C73.0402 45.3706 73.2598 45.5502 73.4794 45.7299C73.5282 46.0338 73.577 46.3377 73.6265 46.6409C73.8239 46.7969 74.0206 46.9522 74.2173 47.1074C74.2173 47.1074 74.2166 47.6258 74.1426 48.1434C74.0672 48.6588 73.5489 49.2961 73.1762 49.6119C73.0675 49.7058 72.9115 50.0089 72.7459 50.3883C73.3115 50.5228 73.7337 50.7203 73.7012 50.8681C73.6369 51.1743 72.6756 51.0153 72.6741 51.6586C72.6741 51.7022 72.6697 51.7436 72.666 51.7858C74.485 52.6657 76.3025 53.5471 78.117 54.4307C78.0919 54.6873 78.0667 54.9453 78.0409 55.2019C78.0409 55.2019 79.2639 56.0108 80.4543 56.7569C80.9926 55.5953 81.6958 54.302 81.8792 54.061C82.2001 53.6425 82.5203 53.7253 82.799 53.4347C83.077 53.1448 83.1606 53.5936 83.5895 53.0095C83.6235 52.9651 83.6656 52.9134 83.7137 52.8601C83.4771 52.5237 83.239 52.1873 83.0024 51.8508C82.9824 50.3439 82.9617 48.834 82.9395 47.3219Z" fill="#F6F6F6"/>
<path d="M73.6247 46.6414C73.5759 46.3375 73.5264 46.0336 73.4776 45.7304C73.258 45.5508 73.0384 45.3703 72.8188 45.1914C72.6243 45.3304 72.3515 45.4598 72.3293 45.5929C72.2968 45.7889 71.6882 45.7489 71.4309 45.6314C71.1751 45.5138 70.5007 45.7541 70.3713 45.9205C70.2426 46.0868 69.7938 45.601 69.4729 45.6232C69.1513 45.6447 68.3815 45.885 68.3815 45.885C68.3815 45.885 68.2521 46.6695 68.2521 46.9793C68.2521 47.2884 68.7335 47.3527 68.7327 47.6056C68.7327 47.8585 68.3468 48.0766 68.3142 48.2445C68.2824 48.4131 68.0251 48.5203 67.7042 48.5994C67.3833 48.6785 67.4144 49.1281 67.157 49.2915C66.8997 49.4556 66.9633 49.8778 66.8021 50.1832C66.6409 50.4879 66.5441 50.9079 66.5433 51.2702C66.5426 51.5637 66.4989 51.9741 66.3008 52.1841C66.7112 52.227 66.8169 52.1723 67.0232 52.085C67.3197 51.9615 68.505 51.7227 68.5058 51.7227C68.908 51.7005 69.3102 51.6791 69.7125 51.6576C69.9816 51.004 70.3794 50.4125 70.8142 50.3082C71.3776 50.1736 72.143 50.2476 72.7441 50.3895C72.909 50.0109 73.065 49.707 73.1745 49.6131C73.5471 49.2974 74.0654 48.6608 74.1409 48.1447C74.2148 47.6278 74.2155 47.1087 74.2155 47.1087C74.0181 46.9527 73.8214 46.7974 73.6247 46.6414Z" fill="#F6F6F6"/>
<path d="M66.4549 59.3438C65.7517 59.0036 65.4759 54.7985 65.8278 54.6898C65.8737 54.6765 65.9181 54.7209 65.9624 54.8089C65.9402 54.4909 65.9173 54.1722 65.8951 53.8535C65.8951 53.8535 65.8537 53.8462 65.7997 53.8262C65.6866 53.7855 65.5099 53.685 65.5106 53.4572C65.5114 53.1223 65.8323 53.0979 65.8323 53.0986C65.8323 53.0986 65.7709 52.3991 66.1236 52.2926C66.1946 52.2719 66.2508 52.2283 66.3003 52.1773C66.4978 51.968 66.5421 51.5562 66.5429 51.2634C66.5436 50.9003 66.6405 50.481 66.8017 50.1764C66.9636 49.871 66.8993 49.4488 67.1566 49.2847C67.4132 49.1213 67.3829 48.6717 67.7038 48.5926C68.0247 48.5134 68.282 48.4062 68.3138 48.2376C68.3463 48.0698 68.7316 47.8517 68.7323 47.5988C68.733 47.3466 68.2509 47.2816 68.2517 46.9725C68.2524 46.6627 68.3811 45.8781 68.3811 45.8781C68.3811 45.8781 68.3937 45.8745 68.4025 45.8722C67.7112 45.3058 66.9126 44.7173 66.7299 44.6071C66.4623 44.4459 66.0142 44.7535 66.0134 44.7535C66.0127 44.7535 65.5661 44.3527 65.2082 44.6625C64.8496 44.9716 64.3128 44.65 64.3128 44.6492C64.3128 44.6492 63.8654 44.4075 63.6858 44.0119C63.6133 43.8514 63.4787 43.7545 63.3109 43.6747C63.3183 43.6917 63.3256 43.7094 63.333 43.7264C62.9752 43.7738 62.618 43.8218 62.2602 43.8699C62.2602 43.8699 60.9203 43.2266 60.6526 43.6932C60.3842 44.1605 60.1158 43.844 59.4903 43.8374C58.864 43.8307 58.3279 44.0607 57.97 44.213C57.6122 44.3668 57.0761 44.0488 56.8077 44.2026C56.54 44.3579 56.3596 45.0604 56.3603 45.0604C55.436 44.8955 54.5125 44.7328 53.5882 44.5701C53.5882 44.5701 53.0514 43.8618 52.4251 43.8581C51.7988 43.8544 50.9034 44.8703 50.9034 44.8703C50.9034 45.1535 50.9034 45.4367 50.9034 45.7207C51.0113 46.2316 50.8738 46.7647 50.6882 47.0346C50.4183 47.425 50.1492 47.581 50.1484 48.3641C50.1484 49.1471 49.0718 50.3938 49.0711 51.0186C49.0711 51.6427 47.8148 52.0294 47.8148 52.4191C47.8148 52.8087 47.7246 53.6665 47.7239 54.522C47.7231 55.3767 47.1856 54.6758 47.1848 55.4537C47.1848 56.2315 46.736 55.7642 46.2887 56.1524C45.8406 56.5406 45.6609 56.6182 45.6609 56.23C45.6616 55.8411 45.0331 55.7627 44.4956 56.1524C43.958 56.5406 43.7783 56.1531 43.5107 56.0748C43.362 56.0326 42.7483 56.3469 42.1523 56.7011C42.4208 57.1802 42.5598 57.6601 42.6677 58.0838C42.6773 58.1237 42.6906 58.1666 42.7047 58.2102C43.0212 58.0157 43.3413 57.8464 43.5232 57.8228C43.9735 57.7651 48.2163 57.8235 48.2163 57.825C48.2163 57.825 48.6016 58.3818 48.4722 58.8816C48.3428 59.3807 48.7295 59.1596 49.0497 59.8258C49.3706 60.4913 49.6271 60.7694 50.2697 60.6059C50.9123 60.4418 51.6835 60.3346 51.9408 60.3915C52.1966 60.4477 52.1345 59.4502 52.5205 59.2846C52.9065 59.1204 53.6777 59.2913 53.6777 59.2913C53.6777 59.2913 53.7413 59.5693 54.3838 59.5737C55.0264 59.5781 55.348 59.3578 55.3473 59.7467C55.3466 60.1349 55.4094 60.5778 55.6017 60.7457C55.7932 60.9135 55.0848 62.2918 55.405 62.5144C55.7259 62.7377 56.1732 63.2375 56.1082 63.5133C56.0431 63.7891 55.8486 64.448 56.1052 64.5056C56.3625 64.5633 56.4276 64.1773 56.8764 64.181C57.326 64.1847 57.7105 64.2424 58.1601 64.082C58.3087 64.0295 58.4388 64.0509 58.5512 64.0982C58.7819 64.1966 58.9291 64.4199 58.9298 64.4199C58.9298 64.4199 59.0562 64.8066 59.3128 64.6994C59.5687 64.5922 60.2763 64.4332 60.2105 64.6528C60.1461 64.8724 60.3998 65.3708 60.6578 65.2636C60.9151 65.1563 61.554 65.6037 61.8749 65.6074C62.1951 65.6111 62.516 65.6148 62.5167 65.4491C62.5175 65.2843 62.9027 65.0144 63.0306 65.2354C63.1578 65.4573 63.4758 65.9571 63.7959 65.9608C64.1168 65.9645 64.8851 65.9756 64.8836 66.1952C64.8821 66.4156 65.135 67.0219 65.4545 67.2459C65.7731 67.47 66.4793 67.2607 66.4793 67.2607C66.4793 67.2607 66.7359 67.101 66.7388 66.7165C66.741 66.332 66.744 65.8373 66.5517 65.8344C66.3602 65.8314 66.0371 66.2115 65.5898 66.0947C65.1409 65.9786 64.8259 65.2044 64.6337 65.0913C64.4422 64.9789 64.9583 64.2698 64.9605 63.9392C64.962 63.6095 65.2873 62.6748 65.0308 62.5602C64.7749 62.4464 64.9043 62.1166 65.226 61.8999C65.5476 61.6833 65.101 61.0681 65.6141 61.0755C66.0963 61.0821 67.076 61.142 67.3555 60.8788C67.3747 60.8603 67.3984 60.847 67.4102 60.8255C67.4472 60.7649 67.4775 60.6998 67.5049 60.6348C67.1773 60.1645 66.8512 59.5367 66.4549 59.3438Z" fill="#F6F6F6"/>
<path d="M65.9654 54.8176C66.0785 55.0417 66.1917 55.5519 66.3218 56.1294C66.6087 55.9741 66.8424 55.8551 66.9414 55.8218C67.3119 55.6998 68.1312 54.3622 68.1312 54.3614C68.0077 54.2949 67.885 54.2291 67.7615 54.1625C67.7615 54.1625 67.8021 53.8815 67.7045 53.5C67.3725 53.5288 67.0228 53.5059 67.0228 53.5059C67.0228 53.5059 67.096 54.0228 66.2804 53.8808C66.1503 53.8586 65.9839 53.8431 65.8027 53.8342C65.8567 53.8542 65.8981 53.8616 65.8981 53.8616C65.9203 54.181 65.9432 54.4997 65.9654 54.8176Z" fill="#F6F6F6"/>
<path d="M82.4198 69.5636C82.2756 69.2331 81.9924 67.7476 82.0833 67.1472C82.1743 66.5468 81.9769 64.9474 81.9835 64.1762C81.9835 64.1585 81.9806 64.1444 81.9798 64.1289C81.2737 64.3862 80.5128 64.6842 80.4455 64.7973C80.3154 65.0147 79.7645 64.7441 79.4207 64.9925C79.0776 65.2417 78.8676 65.0169 78.5696 64.9364C78.2724 64.8565 78.1407 65.1833 78.0979 65.4022C78.0528 65.6211 77.4575 65.4968 77.2438 65.4562C77.0309 65.4148 76.3477 65.5826 76.0068 65.5752C75.6652 65.5678 75.9232 65.3179 75.5409 65.1996C75.1579 65.0813 74.9006 65.3319 74.6862 65.3275C74.5575 65.3246 74.1597 65.2765 73.8684 65.2388C73.8625 65.4081 73.8388 65.5567 73.7885 65.6669C73.5075 66.2828 74.3497 67.7025 74.386 68.2955C74.6995 68.5359 75.0618 68.8272 75.2533 69.0335C75.6326 69.4416 75.2496 69.3973 75.2836 70.272C75.3191 71.1445 74.854 70.7726 74.4673 71.0543C74.0821 71.3368 74.4155 71.9971 74.329 72.1775C74.2418 72.3564 73.106 70.8828 73.0225 70.6624C72.9397 70.4428 73.4587 69.5799 73.3352 69.0675C73.211 68.5543 72.442 68.8671 72.1862 68.8989C71.9296 68.9314 71.3373 68.3007 71.2087 68.2978C71.0815 68.2941 67.1914 69.4697 67.1914 69.4705C67.289 69.7759 67.3859 70.0812 67.4827 70.3859C67.4546 70.3859 67.4265 70.3866 67.3984 70.3866C67.4679 70.5205 67.5382 70.6543 67.6077 70.7874C67.6077 70.7874 68.8869 70.8621 69.4592 71.1985C70.0315 71.5349 70.9262 71.6052 71.117 71.7176C71.3078 71.83 71.1052 73.0234 71.1636 73.6208C71.222 74.219 70.3901 74.3662 70.7702 74.6982C71.1503 75.0302 70.9536 75.5677 71.2087 75.6254C71.463 75.6846 70.7539 76.3737 70.433 76.5305C70.1121 76.6872 70.4249 77.2854 70.0389 77.7091C69.7905 77.982 69.071 78.5092 68.5675 78.9099C68.5919 78.9218 68.6141 78.9343 68.6229 78.9499C68.7494 79.1414 69.1109 81.0224 69.491 81.214C69.8718 81.4084 69.627 83.2437 69.593 83.4026C69.559 83.5616 69.7358 84.7854 69.7358 84.7854C69.7358 84.7854 70.3036 84.7218 70.805 84.7358C70.8412 84.4948 70.8663 84.2848 70.8789 84.1413C70.9277 83.5757 70.4567 84.0282 70.3125 83.6718C70.1676 83.3154 71.364 82.6788 72.5773 82.3283C73.7915 81.9778 74.2603 81.773 74.3934 81.4195C74.525 81.0661 74.3904 80.0649 74.5656 79.6737C74.7394 79.2841 74.4673 79.0475 74.3298 78.1476C74.1908 77.247 73.8099 77.0961 73.6465 76.5896C73.4816 76.0824 73.529 75.6875 73.8898 75.6757C74.2514 75.6646 74.2529 75.5204 74.556 75.0405C74.8592 74.5592 75.1971 74.7647 75.7761 74.4157C76.3536 74.0675 76.3794 73.6149 77.3 73.0382C78.2206 72.4607 79.2203 72.5021 80.118 72.0703C81.0149 71.6385 82.5654 69.8971 82.4198 69.5636Z" fill="#F6F6F6"/>
<path d="M80.9712 62.9638C80.9342 62.2088 80.4225 62.1955 80.4484 61.6802C80.4736 61.1655 80.5202 60.7049 80.3065 60.6442C80.0935 60.5829 80.2251 60.1436 80.5675 59.7089C80.912 59.2741 79.9538 59.1942 79.8066 58.6367C79.7452 58.3986 80.0543 57.6097 80.4529 56.7482C79.2617 56.0021 78.0394 55.1932 78.0394 55.1932C78.0645 54.9359 78.0904 54.6793 78.1155 54.422C76.301 53.5384 74.4835 52.6563 72.6646 51.7771C72.6276 52.3568 72.3525 52.8005 71.9628 52.9498C71.5451 53.1088 72.5381 53.6589 72.0567 53.7336C71.5761 53.8083 70.487 53.3129 69.7157 53.5783C69.1981 53.7573 69.3083 52.6326 69.7128 51.6484C69.3105 51.6699 68.9083 51.6913 68.506 51.7135C68.506 51.7135 68.1777 51.7793 67.8235 51.8599C67.9027 52.0448 67.981 52.2304 68.0602 52.416C68.0602 52.416 68.3552 52.9365 68.2805 53.2574C68.2465 53.4038 67.9803 53.4637 67.703 53.4889C67.8006 53.8704 67.7592 54.1514 67.76 54.1514C67.8834 54.2179 68.0069 54.2845 68.1297 54.3503C68.1297 54.3503 67.3111 55.6879 66.94 55.8106C66.8409 55.8439 66.6065 55.963 66.3203 56.1182C66.5355 57.0706 66.798 58.1982 67.1973 58.5214C67.9323 59.1151 67.8021 59.7791 67.9596 60.1703C68.1186 60.5614 68.7575 61.0147 68.3079 61.1722C68.018 61.275 67.7614 61.0028 67.5056 60.6346C67.479 60.6997 67.4479 60.7648 67.411 60.8254C67.3991 60.8461 67.3747 60.8601 67.3562 60.8786C67.7481 61.1345 68.2044 61.4058 68.3981 61.4088C68.7678 61.4147 69.3578 61.8073 69.7268 61.8776C70.0965 61.9464 71.4127 62.4262 71.5717 62.6118C71.5998 62.6444 71.6308 62.6872 71.6641 62.736C71.9784 62.7287 72.3924 62.7264 72.6364 62.7568C72.6897 62.7168 72.7548 62.688 72.8487 62.6902C73.3359 62.7006 73.9016 64.3051 73.8691 65.2286C74.1604 65.2663 74.5582 65.3152 74.6869 65.3174C74.9013 65.3218 75.1586 65.0711 75.5416 65.1895C75.9239 65.307 75.6659 65.5577 76.0075 65.5651C76.3483 65.5725 77.0308 65.4046 77.2445 65.446C77.4575 65.4867 78.0535 65.6109 78.0986 65.3921C78.1414 65.1732 78.2738 64.8464 78.5703 64.9262C78.8683 65.0068 79.0783 65.2316 79.4214 64.9824C79.7652 64.7347 80.3161 65.0039 80.4462 64.7872C80.5135 64.6741 81.2736 64.3761 81.9805 64.1188C81.945 63.4111 81.0067 63.7025 80.9712 62.9638Z" fill="#F6F6F6"/>
<path d="M75.2566 69.0303C75.0651 68.824 74.7027 68.5319 74.3892 68.2923C74.3959 68.3825 74.3833 68.4543 74.3441 68.5001C73.9655 68.9571 72.9141 67.4871 72.7936 66.5784C72.6708 65.6696 73.411 65.2437 72.9688 64.3815C72.5991 63.6606 72.3699 62.9678 72.639 62.7637C72.3943 62.7334 71.9809 62.7356 71.6667 62.743C71.8974 63.0809 72.2323 63.7456 72.2309 63.9689C72.2294 64.2226 71.8619 63.898 71.7118 64.213C71.5624 64.5294 71.4796 65.9876 71.7717 66.2456C72.066 66.5052 71.1801 66.2989 71.1787 66.5532C71.1772 66.8061 71.0981 67.6912 70.9494 67.7511C70.8666 67.7851 71.036 68.004 71.2001 68.2982C71.2023 68.2982 71.2119 68.2953 71.2127 68.2953C71.3406 68.2975 71.9336 68.929 72.1902 68.8964C72.446 68.8654 73.215 68.5519 73.3393 69.065C73.4635 69.5774 72.9437 70.4404 73.0265 70.66C73.11 70.881 74.2465 72.3547 74.333 72.175C74.4195 71.9954 74.0861 71.335 74.4713 71.0519C74.858 70.7701 75.3224 71.1421 75.2876 70.2695C75.2536 69.3941 75.6366 69.4392 75.2566 69.0303Z" fill="#F6F6F6"/>
</g>
</svg>
