<svg width="122" height="101" viewBox="0 0 122 101" fill="none" xmlns="http://www.w3.org/2000/svg">
<path opacity="0.75" d="M121.796 56.4256C122.322 56.1491 121.576 54.145 121.115 54.3732C120.657 54.6031 120.712 51.3546 121.06 49.9236C121.402 48.4909 121.21 48.6392 120.355 49.2873C119.5 49.9336 118.629 47.5547 118.445 46.9334C118.261 46.3153 117.315 44.5128 116.211 44.5911C115.109 44.6727 115.845 43.1134 114.809 43.1434C113.768 43.1717 113.603 41.6025 113.817 40.2081C114.033 38.8121 113.111 39.81 112.667 39.1519C112.224 38.4922 111.7 38.8937 110.983 39.0303C110.267 39.1686 110.098 37.6559 110.302 37.0895C110.506 36.5231 110.194 35.7635 109.235 34.9722C108.274 34.1809 108.218 33.6378 108.296 32.8715C108.373 32.1069 102.852 28.7051 101.625 28.3003C100.398 27.8905 101.455 26.8427 100.942 26.3529C100.433 25.8631 100.263 24.2855 100.283 22.9711C100.303 21.6567 98.4994 20.9854 98.5803 19.9209C98.6595 18.8514 98.0948 17.7535 98.2398 16.5741C98.3848 15.3946 96.3836 14.8182 96.328 14.1502C96.274 13.4805 95.1647 13.9287 94.0622 13.9003C92.9596 13.8687 93.0474 12.4394 93.194 11.075C93.3424 9.71063 92.786 7.34839 91.8891 6.56209C90.9905 5.77912 90.9535 3.4785 90.505 3.05537C90.0566 2.6339 88.5494 3.99828 88.6016 4.78791C88.6556 5.58088 88.4533 6.45713 87.8616 6.85861C87.2682 7.26175 88.219 9.25751 87.4283 9.81225C86.6393 10.3687 87.3137 13.1057 87.0929 14.5784C86.8737 16.051 86.9074 17.6769 86.1083 18.5915C85.3076 19.5044 85.1456 21.1053 83.566 21.4352C81.9897 21.7667 79.9212 20.3607 80.0021 19.591C80.0847 18.8197 78.3297 18.115 77.4109 18.1167C76.4921 18.1184 75.9948 16.8523 74.5753 15.6479C73.1558 14.4451 72.0128 15.5629 71.5812 14.3052C71.148 13.0474 70.6927 12.8109 69.6559 12.0162C68.6225 11.2233 68.9479 11.2632 69.9459 10.7285C70.9439 10.1921 70.7635 9.32414 70.2544 8.4762C69.7452 7.6266 70.8546 7.94977 72.178 7.455C73.4981 6.9619 72.2049 6.01235 73.1912 5.77579C74.1791 5.5409 73.6025 4.68128 72.559 4.36643C71.5137 4.05158 71.8223 5.2377 71.4278 5.30766C71.0333 5.3793 70.6675 3.70174 70.3387 3.72006C70.01 3.73672 68.7405 5.14608 68.0965 4.28148C67.4542 3.41355 63.7908 2.28741 62.3444 1.92758C60.9013 1.56775 60.4696 -0.179791 59.6081 0.0151185C58.7466 0.21336 59.7245 0.876394 60.6955 1.96589C61.6666 3.05205 57.3711 3.18864 56.1235 2.67555C54.876 2.16079 56.3039 3.54349 55.2502 3.35524C54.1932 3.16533 53.9588 4.83123 53.0838 5.57088C52.2055 6.3122 52.7872 6.98689 51.8465 7.41669C50.9075 7.84816 50.8282 8.44288 51.9257 9.72062C53.0232 10.9967 51.3677 10.8601 50.3933 9.83889C49.4222 8.81937 48.4258 8.70276 48.4696 9.73228C48.5101 10.7618 47.2626 10.1354 47.4885 9.01429C47.7161 7.89314 46.1078 8.24796 45.8599 7.55495C45.6087 6.86027 44.2399 5.61252 43.3733 5.57253C42.5102 5.53255 42.4899 6.37717 41.6234 6.27721C40.7585 6.17559 40.5477 6.57709 40.659 7.43502C40.772 8.29462 39.3306 7.22344 38.3258 7.22844C37.3244 7.2351 38.2955 8.3729 37.7628 8.3729C37.2267 8.37123 37.2064 9.21585 36.3382 9.11756C35.4682 9.02094 35.5576 10.7785 35.6672 11.6964C35.7734 12.6126 34.3421 11.125 33.4671 11.2682C32.5905 11.4115 33.639 12.3127 33.8768 13.3639C34.1145 14.4134 33.3828 14.2735 32.9007 14.64C32.4219 15.0082 31.7307 13.3656 31.7559 12.4643C31.7812 11.5631 30.6197 12.2778 29.3806 13.2856C28.1415 14.2952 29.6959 16.2126 29.1497 16.4508C28.6051 16.6924 26.1252 18.4666 24.6636 19.8093C23.2036 21.1503 20.2061 19.9342 19.2368 20.5522C18.2674 21.1703 17.2778 20.5256 16.3084 21.0853C15.3407 21.6451 13.5402 22.7163 13.3665 21.9183C13.1929 21.1187 10.7366 21.4685 9.68632 22.3214C8.63602 23.1744 6.97879 23.8441 5.82397 23.7891C4.66915 23.7325 4.61018 25.2834 4.12128 25.5932C3.63238 25.9031 3.82964 24.3072 3.84649 23.8907C3.86335 23.4726 2.73381 24.4987 2.2095 25.7032C1.6852 26.906 3.29351 27.544 2.22298 28.7518C1.14909 29.9612 0.142638 31.1723 1.49807 32.9715C2.85014 34.7706 3.61551 35.9151 3.10301 36.6964C2.59051 37.4777 1.68352 34.8939 1.33118 35.1572C0.978829 35.4187 2.56184 36.6431 2.12858 37.1345C1.69699 37.626 0.349976 34.9406 0.0195461 35.5036C-0.27548 36.0117 2.86698 40.3514 2.86192 41.8274C2.85855 43.3067 5.43625 44.9793 5.19517 47.0766C4.95072 49.174 7.21313 52.8056 7.59077 53.3687C7.9684 53.9334 6.53544 55.1961 6.71583 56.7937C6.90128 58.3913 5.98413 58.8828 4.82932 58.7662C3.67618 58.6529 4.26117 60.3454 5.54075 60.587C6.82538 60.8319 6.30448 61.5382 7.68183 62.4911C9.05918 63.444 12.4646 63.4973 13.6161 63.6172C14.7675 63.7355 15.194 62.2662 16.7551 62.3695C18.3146 62.4728 18.2016 62.053 18.9906 61.32C19.7812 60.5853 23.2812 61.1867 26.8451 61.7465C30.4073 62.3062 32.0071 61.5499 32.6124 60.3271C33.1299 59.2859 35.7009 59.4975 36.7495 58.7962C37.7998 58.0932 38.6748 58.1331 41.2845 58.5429C43.8942 58.9561 46.364 58.0099 48.0634 57.6184C49.7644 57.2269 52.8259 57.8216 54.4409 57.66C56.0577 57.4984 56.2263 59.6308 58.0352 59.6708C59.8425 59.7124 60.6113 60.452 61.5469 60.5053C62.4826 60.5603 62.3173 61.1867 63.2429 61.4733C64.1667 61.7631 64.0015 62.4478 63.3693 63.1308C62.7337 63.8138 64.7349 64.0004 65.9285 65.6696C67.1221 67.3372 65.9133 67.4238 66.5219 68.6649C67.1322 69.9077 67.6126 69.6761 69.0203 68.2151C70.4263 66.7541 71.8408 67.9836 72.1021 66.6125C72.3634 65.2415 73.8319 63.7838 74.7287 64.6018C75.6273 65.4181 74.0207 65.5663 73.3025 68.1684C72.5826 70.7656 71.5812 69.2363 71.3468 69.966C71.1125 70.694 74.0864 71.4819 74.1505 70.0876C74.2145 68.6932 74.7742 68.1218 75.8464 69.5428C76.9169 70.9655 75.076 71.7818 75.3154 72.3949C75.5531 73.0096 76.8529 72.4165 77.5154 72.5598C78.6938 72.8147 80.1977 75.2985 79.8757 76.4796C79.5553 77.6591 79.1002 78.7636 81.3154 80.0413C83.534 81.3207 82.659 81.379 84.323 81.5989C85.9852 81.8188 89.394 83.4347 90.2943 84.256C91.1945 85.0723 93.6441 84.1877 94.1651 82.8633C94.6894 81.5389 96.3583 83.1065 95.4109 83.4414C94.46 83.7762 95.8105 85.0673 95.9083 84.3243C96.0044 83.5813 96.4308 82.9982 96.7275 83.9145C97.0242 84.8274 98.2212 84.9923 98.6579 85.7503C99.0945 86.5083 99.607 87.103 99.6289 86.5249C99.6525 85.9485 99.9375 85.4621 101.015 85.2639C102.089 85.0656 102.78 84.5209 103.935 83.8695C105.093 83.2132 109.732 83.6996 110.196 83.7679C110.658 83.8345 111.036 80.3861 111.353 78.6169C111.674 76.8494 113.392 76.8045 113.709 74.9137C114.031 73.0279 116.417 69.7861 117.009 69.6961C117.605 69.6062 118.73 69.2413 118.819 68.1352C118.912 67.0307 120.439 66.0161 120.468 64.6668C120.495 63.3157 121.375 61.8497 121.25 61.4199C121.127 60.9885 120.63 59.6158 121.624 58.8162C122.616 58.0215 121.27 56.7038 121.796 56.4256ZM57.3423 1.008C57.226 0.266682 52.509 0.53322 53.4952 1.38782C54.1493 1.95089 57.462 1.74933 57.3423 1.008ZM69.865 72.9362C70.5697 73.6059 73.0411 73.7442 73.4795 72.9829C73.9178 72.2216 69.2328 72.3348 69.865 72.9362ZM99.2277 92.9753C97.4205 92.8937 94.7888 90.9345 94.1482 90.9962C93.4064 91.0678 96.2994 95.4591 95.3165 96.362C94.332 97.265 97.8773 100.587 99.1467 100.94C100.409 101.293 99.9981 99.967 100.866 100.145C101.735 100.327 101.436 99.4773 101.593 98.9209C101.751 98.3678 102.569 99.6938 103.319 99.4573C104.071 99.219 103.237 96.6119 104.305 96.7635C105.373 96.9168 104.628 93.7982 104.331 92.7704C104.037 91.7408 101.038 93.0536 99.2277 92.9753Z" fill="#F6F6F6"/>
</svg>
