<svg width="148" height="96" viewBox="0 0 148 96" fill="none" xmlns="http://www.w3.org/2000/svg">
<g opacity="0.75">
<path d="M69.0904 90.5695C68.9284 90.3774 68.4941 90.6729 68.0462 90.437C67.929 90.3748 67.7829 90.3288 67.632 90.293C67.6209 90.3009 67.6119 90.3093 67.5971 90.3162C67.5001 90.3531 67.2004 90.6354 66.9102 90.9219C67.2304 91.1235 68.4329 91.3419 68.7638 91.3066C68.9194 91.2897 69.0033 91.2148 69.0745 91.1536C69.1247 90.8697 69.1447 90.6338 69.0904 90.5695Z" fill="#DAF0F2"/>
<path d="M70.0893 91.053C70.1315 90.9723 69.8482 90.5634 70.4043 90.4647C70.961 90.3671 71.3741 90.2647 71.4606 89.9307C71.5472 89.5962 72.2057 89.6791 72.3919 89.6405C72.546 89.6084 73.0436 89.1351 73.5253 89.1018C73.538 88.6649 72.8969 88.8728 72.4616 88.5103C71.9967 88.1241 70.9683 88.4328 70.4112 88.6924C69.8534 88.9509 69.2208 88.6048 68.6209 88.9884C68.6135 88.9926 68.6072 88.9958 68.5998 89C68.4673 89.1672 68.2863 89.3757 68.0753 89.5561C67.6706 89.9038 67.7772 90.1909 67.6289 90.2938C67.7803 90.3296 67.926 90.3761 68.0431 90.4378C68.4911 90.6737 68.9253 90.3787 69.0873 90.5702C69.1416 90.6346 69.1216 90.8705 69.072 91.1538C69.1564 91.0821 69.2208 91.0298 69.3585 91.1227C69.4825 91.2061 69.4582 91.3285 69.4414 91.4493C69.5601 91.4102 69.6793 91.3717 69.798 91.3327C69.7986 91.3327 70.0476 91.1338 70.0893 91.053Z" fill="#DAF0F2"/>
<path d="M65.3045 89.0751C65.4063 89.044 66.4669 89.0561 66.5735 88.796C66.679 88.5358 65.7889 88.0847 65.8917 88.0151C65.9946 87.9459 66.0458 87.3291 66.2094 87.3101C66.3724 87.2906 67.8667 87.1587 67.9495 87.1112C68.0324 87.0642 68.3279 86.5329 68.5748 86.4865C68.6872 86.4659 68.8613 86.5735 69.0175 86.6965C69.2982 86.4263 69.4053 85.8765 69.4665 85.4333C69.5409 84.8898 69.3525 84.7321 69.657 84.4012C69.9614 84.0688 70.2812 84.014 70.2047 83.6056C70.1287 83.1972 69.715 83.6604 69.3784 83.5C69.0428 83.3396 68.741 83.5127 67.8683 83.7317C66.9956 83.9506 66.5861 84.3358 66.6162 84.9057C66.6468 85.4766 66.3133 85.2576 66.3244 85.7515C66.3355 86.2454 65.6369 86.3456 65.6738 86.639C65.7108 86.9308 65.124 86.7028 64.9568 86.6237C64.789 86.5445 62.9654 87.2742 62.7132 87.3449C62.46 87.4146 62.0073 86.9366 61.65 87.0004C61.2928 87.0632 61.1556 86.5672 61.1219 86.1567C61.0886 85.7467 60.4259 85.4534 60.1415 85.1141C59.8566 84.7748 59.8344 83.9485 59.827 83.4167C59.8191 82.8853 59.7801 81.982 60.2075 80.8813C60.2645 80.7336 60.2929 80.608 60.303 80.4978C60.1605 80.4313 60.0212 80.3891 59.9141 80.4086C59.5558 80.4751 58.767 80.1136 58.6108 80.1342C58.4552 80.1543 58.4879 79.7918 58.3607 79.6187C58.233 79.4456 58.3333 79.0742 58.1592 78.9708C57.985 78.8673 57.4669 78.4516 57.3091 77.8828C57.1508 77.314 56.0739 77.1646 55.6766 77.1984C55.2788 77.2311 55.0297 78.0648 54.9179 78.1213C54.806 78.1788 54.0705 77.8173 53.8536 77.7424C53.6368 77.6675 53.5339 77.4717 53.5428 77.2185C53.5518 76.9647 53.1038 76.6286 52.973 76.6054C52.8416 76.5816 51.9509 75.8471 51.9515 75.8477C51.4681 75.9168 50.9854 75.9859 50.5031 76.0561C50.396 76.197 50.2889 76.3384 50.1823 76.4792C49.3064 76.6133 48.4332 76.7489 47.562 76.8855C47.5604 76.8845 45.5897 76.4703 45.2267 76.4444C44.8616 76.4165 44.231 76.0751 44.231 76.0756C43.5287 76.2729 42.828 76.4713 42.1289 76.6702C42.227 76.8766 42.3669 77.0961 42.5806 77.3324C42.9837 77.7767 43.2528 78.6336 43.2823 78.9412C43.3108 79.2494 43.887 79.4145 44.3825 79.6525C44.8774 79.8894 44.8542 80.5785 44.7877 80.7637C44.7207 80.9494 44.1033 80.7505 44.0569 80.9331C44.0099 81.1162 44.8378 81.6749 45.1639 81.5873C45.49 81.4992 45.6456 81.6718 46.14 82.029C46.635 82.3867 46.579 82.9038 46.3711 83.0911C46.1632 83.279 46.7632 83.5227 47.4043 83.8414C48.0448 84.1601 48.297 84.6339 48.353 84.8418C48.4084 85.0497 48.6996 84.8128 48.8099 84.5026C48.9202 84.1934 48.6157 84.158 48.6247 83.8235C48.6342 83.4884 48.1007 83.624 47.857 83.6203C47.6132 83.6161 47.8934 83.0658 47.6554 82.8653C47.4175 82.6648 47.2111 82.1071 47.1025 81.6923C46.9938 81.2771 46.3764 80.9378 46.1284 80.5051C45.8799 80.0719 45.6087 79.7411 45.4304 79.6504C45.252 79.5596 45.7042 79.3153 45.5485 79.1634C45.3924 79.0109 45.1481 79.0668 44.8494 78.975C44.5502 78.8837 44.3566 78.6795 44.3682 78.3645C44.3798 78.0495 44.2052 77.334 44.1144 77.0939C44.0231 76.8539 44.3455 76.8433 44.4416 76.9452C44.5381 77.0475 44.6146 77.153 44.7597 77.0528C44.9043 76.9525 45.1449 76.9742 45.2383 77.1752C45.3317 77.3757 45.6836 77.1267 45.8424 77.2005C46.0013 77.2739 45.4689 77.4717 45.9633 78.2975C46.4587 79.1233 46.1115 78.6668 46.0899 79.2763C46.0688 79.8862 46.4033 79.5622 46.5083 79.4488C46.6133 79.3354 46.8877 79.5881 47.142 79.8641C47.3958 80.14 47.905 80.0846 47.8992 80.2619C47.8934 80.4392 47.9836 80.7785 48.3292 80.7874C48.6743 80.7959 48.7239 81.1615 48.9476 81.1689C49.1713 81.1758 49.2046 81.4064 49.0742 81.6797C48.9439 81.9535 49.0595 82.1524 49.6267 82.287C50.1939 82.4226 49.9264 82.4996 50.3659 82.85C50.8044 83.1998 52.0438 84.3632 52.3029 84.702C52.5614 85.0397 52.6363 85.3441 52.7329 85.6058C52.8295 85.8681 52.5171 86.048 52.6764 86.2622C52.8358 86.477 52.3641 86.4422 52.3804 86.6168C52.3968 86.7915 52.6458 87.6415 53.0991 87.6204C53.5529 87.5987 54.0589 88.062 54.4261 88.309C54.7933 88.5554 55.3537 88.4229 55.9114 88.548C56.4686 88.6725 56.9382 89.0841 57.7476 89.1991C58.557 89.3136 59.3464 89.55 59.865 89.8022C60.3837 90.0533 61.0359 89.8365 61.7756 89.4708C62.5154 89.1057 63.0784 89.3938 63.4978 89.5025C63.7041 89.5558 64.1073 89.8354 64.5114 90.1293C64.8913 89.5843 65.257 89.0899 65.3045 89.0751Z" fill="#DAF0F2"/>
<path d="M68.072 89.5557C68.2826 89.3753 68.4641 89.1669 68.5965 88.9996C68.2604 89.2054 68.1617 89.0555 68.2134 88.8313C68.053 88.8693 67.8932 88.9067 67.7333 88.9447C67.7586 88.3411 67.7845 87.737 67.8114 87.1328C67.4241 87.1919 66.344 87.2874 66.2063 87.3038C66.0427 87.3228 65.9915 87.9401 65.8887 88.0087C65.7852 88.0778 66.6759 88.5295 66.5704 88.7896C66.4638 89.0497 65.4032 89.0376 65.3014 89.0687C65.2539 89.084 64.8877 89.5784 64.5078 90.1229C64.9236 90.4237 65.3404 90.7403 65.5425 90.8379C65.9414 91.0289 66.6015 90.697 66.8743 90.9039C66.8827 90.9091 66.8943 90.916 66.9044 90.9223C67.194 90.6358 67.4943 90.353 67.5913 90.3166C67.7971 90.2359 67.6373 89.9293 68.072 89.5557Z" fill="#DAF0F2"/>
<path d="M67.95 87.1084C67.9374 87.1163 67.8862 87.1258 67.8144 87.1363C67.7875 87.7405 67.7617 88.3446 67.7363 88.9483C67.8962 88.9103 68.0566 88.8728 68.2165 88.8348C68.2534 88.676 68.3653 88.4802 68.5241 88.3489C68.9109 88.0291 68.3547 86.9818 68.8032 86.8324C68.8855 86.8039 68.9547 86.7533 69.018 86.6926C68.8618 86.5697 68.6877 86.462 68.5747 86.4831C68.3289 86.5301 68.0329 87.0609 67.95 87.1084Z" fill="#DAF0F2"/>
<path d="M71.6065 92.9963C71.8176 93.0723 72.3489 92.9182 72.5605 93.0433C72.6629 93.1039 72.8375 93.0876 73.038 93.0427C72.9768 92.9662 72.9293 92.904 72.9061 92.8654C72.7579 92.6243 73.019 92.0819 73.1515 91.692C73.2834 91.3015 73.057 90.4145 73.296 90.1513C73.5345 89.8885 73.4074 89.7624 73.5214 89.1957C73.5287 89.1593 73.524 89.1345 73.5245 89.1055C73.0423 89.1392 72.5447 89.612 72.3911 89.6442C72.2049 89.6832 71.5459 89.6004 71.4599 89.9344C71.3733 90.2689 70.9602 90.3702 70.4035 90.4684C69.8474 90.5676 70.1302 90.976 70.0885 91.0567C70.0468 91.1379 69.7978 91.3363 69.7978 91.3363C69.6791 91.3749 69.5598 91.4139 69.4411 91.4529C69.4232 91.578 69.4126 91.7015 69.5857 91.7743C69.9244 91.9146 70.3877 92.5578 70.7491 92.6966C70.9232 92.7631 71.0304 92.8923 71.0757 93.0232C71.2847 92.9857 71.4973 92.9567 71.6065 92.9963Z" fill="#DAF0F2"/>
<path d="M73.8387 94.6229C73.8075 94.5237 73.8271 94.2589 73.989 94.041C73.6397 93.7275 73.2482 93.297 73.0398 93.0379C72.8393 93.0833 72.6647 93.0996 72.5623 93.0384C72.3507 92.9139 71.8199 93.0675 71.6083 92.9915C71.4996 92.9519 71.287 92.9815 71.077 93.0184C71.1255 93.1593 71.1013 93.3038 71.0015 93.3767C70.8079 93.516 70.7836 93.9924 71.2527 94.1212C71.7218 94.2488 71.574 93.9882 71.8088 93.9634C72.0442 93.9386 72.0204 94.2768 72.2346 94.2552C72.4489 94.233 72.9401 94.4193 72.9169 94.738C72.8942 95.0561 73.0862 95.1749 73.4725 95.1353C73.5432 95.1279 73.6229 95.1263 73.7067 95.1274C73.7732 94.9105 73.8719 94.729 73.8387 94.6229Z" fill="#DAF0F2"/>
<path d="M78.7749 94.1368C78.4314 93.6941 77.8045 93.7944 77.4167 93.6735C77.0289 93.5527 76.5324 93.8197 76.0348 94.2856C75.5378 94.7504 74.9152 94.5747 74.4867 94.4006C74.3596 94.3489 74.1818 94.2117 73.9913 94.0408C73.8293 94.2582 73.8098 94.523 73.8409 94.6227C73.8741 94.7293 73.7755 94.9103 73.709 95.1282C74.1337 95.1335 74.6862 95.2496 74.9547 95.5203C75.2761 95.8442 75.4702 95.5873 75.6634 95.8843C75.8565 96.1819 76.3092 95.84 76.4174 95.6321C76.5261 95.4237 76.1815 95.3789 76.1393 95.1652C76.0971 94.9515 76.5709 94.9837 76.658 94.6787C76.745 94.3732 77.4357 94.1669 77.7381 94.2566C78.0399 94.3457 78.2979 94.5193 78.0161 94.8433C77.8061 95.0844 78.2314 95.4411 78.587 95.7176C78.8377 95.458 79.1263 95.1625 79.246 95.0707C79.3115 95.0201 79.3526 94.9108 79.3816 94.7779C79.2102 94.7204 79.0128 94.4444 78.7749 94.1368Z" fill="#DAF0F2"/>
<path d="M144.365 2.62159C143.336 2.64534 142.495 2.79677 142.407 3.36979C142.318 3.94386 141.048 3.29486 140.48 3.50856C139.91 3.72225 140.23 3.05373 139.66 3.28906C139.089 3.52492 138.442 4.07313 137.757 4.31532C137.073 4.55698 136.532 5.13 136.11 5.18857C135.688 5.24661 137.075 4.13381 137.778 3.58612C138.481 3.03632 138.161 2.43375 137.267 2.52662C136.373 2.61948 136.537 3.05268 136.029 3.15715C135.523 3.25898 133.056 4.29263 132.965 4.01034C132.876 3.72489 135.002 3.16718 134.988 2.97142C134.975 2.77356 132.363 2.84109 131.184 3.01838C130.005 3.19303 127.896 3.80826 127.892 3.54444C127.888 3.27903 130.343 2.80627 131.574 2.65325C132.834 2.49443 135.044 2.59627 136.011 2.26069C136.977 1.92405 138.394 1.86126 138.66 1.61433C138.925 1.36792 137.618 1.08088 136.952 1.12309C136.286 1.16478 135.626 1.12098 135.701 0.858745C135.776 0.597036 134.702 0.56696 134.607 0.376482C134.512 0.185476 132.426 0.406029 132.002 0.206581C131.578 0.00660535 130.289 -0.0551282 129.179 0.0519828C128.067 0.158039 125.801 0.22927 125.271 0.295753C124.742 0.36118 124.393 0.527387 123.925 0.526332C123.457 0.525804 122.723 0.688318 122.975 0.915203C123.431 1.32624 122.162 1.56051 122.28 1.22915C122.398 0.897792 121.251 0.799122 120.865 1.05661C120.423 1.34998 118.623 0.883545 118.314 1.18219C118.004 1.47978 115.822 1.50669 115.173 1.63068C114.524 1.7531 116.117 2.03855 116.037 2.2628C115.955 2.48599 113.952 2.37677 114.321 2.75245C114.691 3.12813 115.993 3.34235 116.577 3.82039C117.161 4.29844 116.052 4.04781 115.371 3.70906C114.69 3.37032 113.756 3.55657 113.355 3.20411C112.954 2.85112 111.322 2.66117 110.877 2.9081C110.346 3.20305 111.924 3.59667 111.889 3.88793C111.855 4.17813 110.783 3.88793 110.574 4.01193C110.364 4.1354 109.498 3.32336 108.942 3.35871C108.385 3.39406 108.807 3.76552 108.737 4.32693C108.667 4.88834 107.536 5.29832 107.89 4.89467C108.244 4.4905 108.147 3.51911 107.585 3.37876C107.024 3.23682 105.447 3.89585 104.669 3.92698C103.892 3.95758 102.833 4.23195 103.46 4.50105C104.088 4.76962 103.366 4.99914 102.826 4.70208C102.286 4.40396 100.315 4.88306 100.674 5.08146C101.034 5.27932 101.086 5.92726 100.798 6.22011C100.51 6.51242 99.7721 6.02541 99.0118 6.12882C98.2525 6.22591 94.3036 7.99825 94.473 8.37974C94.6434 8.75384 96.2838 8.29796 96.7577 8.48896C97.2315 8.67891 96.4464 9.59173 95.7831 9.99379C95.1199 10.3943 92.8616 10.2639 92.7502 10.6913C92.6384 11.1156 89.0647 11.5071 88.9739 12.1951C88.9396 12.4552 89.0736 12.6995 89.4572 12.7338C89.95 12.7787 90.5869 12.5829 90.9821 12.9681C91.3768 13.3538 92.64 13.2631 93.5486 12.9027C94.4566 12.5428 95.0624 12.8177 94.9811 13.2462C94.9004 13.6746 93.0309 13.2509 92.402 13.6134C91.772 13.9743 89.9754 13.8809 90.0176 14.207C90.0598 14.5326 90.97 14.3774 91.687 14.4302C92.4041 14.4835 91.6955 14.8069 91.6359 15.0718C91.5752 15.3377 92.0036 15.2507 92.6991 15.4955C93.395 15.7403 94.5864 15.8248 94.2334 15.5008C93.8815 15.1768 95.0328 15.123 95.2048 15.3209C95.3768 15.5187 95.9752 14.9473 96.4981 15.0212C97.0204 15.0945 97.2821 14.5304 97.6779 14.7336C98.0736 14.9362 100.035 14.9167 100.68 15.1731C101.324 15.429 102.25 15.428 102.115 15.8881C101.981 16.3487 102.597 16.6331 103.332 16.8621C104.068 17.0911 104.146 17.7058 104.076 18.1179C104.005 18.53 104.829 18.7553 104.668 18.96C104.507 19.1642 104.594 19.4217 105.069 19.771C105.544 20.1208 104.204 20.5123 104.485 20.8294C104.766 21.1465 103.932 21.8652 104.835 21.9179C105.738 21.9707 105.656 21.3212 106.342 21.2705C107.027 21.2199 106.266 21.7855 106.608 22.0768C106.951 22.3675 107.729 22.2366 108.4 22.7004C109.071 23.1648 108.592 23.4439 107.969 23.0735C107.347 22.7026 105.422 22.9442 105.408 23.0919C105.394 23.2381 107.421 24.114 107.923 23.932C108.422 23.7489 109.017 24.4659 108.709 24.7334C108.401 25.001 108.493 25.6104 108.411 25.9122C108.329 26.214 107.635 25.9686 107.171 26.0525C106.707 26.1364 106.381 26.2836 106.345 26.7068C106.31 27.1305 105.566 27.4835 105.436 28.0148C105.307 28.5462 105.97 28.4718 106.327 28.6686C106.683 28.8659 105.606 29.0965 105.518 29.478C105.429 29.8589 106.413 30.4594 106.776 30.6071C107.138 30.7549 106.725 31.6392 106.838 32.0587C106.95 32.4787 107.482 31.9094 107.382 32.4708C107.284 33.0327 107.806 32.9689 107.812 33.2971C107.817 33.6252 108.719 33.5081 108.512 33.9782C108.306 34.4494 108.718 34.7491 108.904 34.9892C109.09 35.2298 109.816 35.6097 109.939 35.9321C110.062 36.254 110.471 36.6581 111.003 36.4946C111.535 36.3294 111.537 36.7642 111.948 36.6845C112.359 36.6059 112.987 36.7668 113.087 37.0422C113.187 37.3161 114.426 37.4902 114.773 37.5192C115.121 37.5477 115.213 36.9795 115.543 36.8059C115.873 36.6312 115.825 35.5126 116.121 35.4182C116.417 35.3227 116.4 34.1555 116.116 34.0727C115.831 33.9888 115.973 33.5746 116.638 33.6094C117.303 33.6442 117.106 33.0739 117.431 32.9789C117.755 32.8829 117.643 32.3594 117.879 32.2951C118.115 32.2302 118.108 31.8772 117.946 31.6862C117.785 31.4946 117.998 31.3305 118.35 31.2593C118.702 31.1875 118.642 30.7649 118.186 30.6409C117.731 30.5174 117.906 30.0563 118.352 30.3053C118.799 30.5544 119.161 30.3322 118.919 30.0463C118.676 29.7597 119.266 29.5751 119.879 29.4901C120.491 29.4046 120.829 29.1107 120.737 28.7161C120.647 28.323 121.457 28.3013 121.232 28.6644C121.007 29.0258 121.101 29.3703 121.407 29.1034C121.713 28.8369 122.254 28.9815 123.256 28.6781C124.259 28.3757 125.257 27.6265 125.528 26.9437C125.8 26.2604 126.926 26.28 126.807 25.841C126.689 25.402 127.046 25.212 127.751 25.4748C128.458 25.7375 127.908 25.2701 128.718 25.2326C129.529 25.1957 129.398 24.9545 130.181 24.8954C130.964 24.8353 133.007 24.4548 133.725 23.9362C134.444 23.4164 135.939 22.9447 136.561 22.6055C137.182 22.2657 137.34 21.9929 136.956 22.177C136.572 22.3612 135.791 22.4134 135.22 22.3132C134.649 22.2124 133.747 21.833 133.067 22.177C132.387 22.5216 132.832 21.7232 133.384 21.6288C133.936 21.5344 133.716 21.3238 133.599 20.8437C133.481 20.364 134.528 20.6374 134.962 21.1787C135.394 21.7211 136.276 21.9322 137.065 21.7101C137.853 21.4884 137.129 20.9787 137.463 20.6041C137.795 20.2274 135.149 19.1885 135.028 18.8107C134.906 18.4308 135.723 18.6645 136.456 18.9025C137.189 19.1404 137.4 18.3648 137.417 18.0298C137.434 17.6942 135.831 17.7253 135.096 18.0883C134.36 18.4508 133.715 17.7095 134.695 17.577C135.673 17.4457 134.804 17.1433 135.105 16.8948C135.403 16.6452 136.583 17.5317 137.224 17.3428C137.862 17.1544 138.311 17.3301 138.872 16.9544C139.433 16.5793 137.933 16.2954 137.636 15.9973C137.337 15.6986 139.216 15.7556 139.787 15.762C140.357 15.7678 140.533 15.0539 140.07 15.2095C139.606 15.3646 138.01 14.8027 138.375 14.3679C138.739 13.9332 139.34 14.407 140.068 14.0798C140.795 13.7517 140.197 12.6257 139.687 12.642C139.175 12.6573 137.99 12.5555 138.002 12.346C138.013 12.136 137.031 11.9825 137.326 11.7646C137.621 11.5461 137.965 11.9983 138.638 11.583C139.311 11.1683 140.645 11.6142 141.246 11.505C141.845 11.3952 141.04 10.5183 140.693 10.6898C140.345 10.8612 139.182 10.9414 139.124 10.4602C139.066 9.97902 140.226 10.427 140.437 10.1911C140.646 9.95475 138.844 9.41286 138.534 9.90462C138.224 10.3964 137.216 10.2682 137.769 9.9748C138.322 9.68143 138.48 8.89894 138.446 8.51429C138.413 8.12858 140.385 8.04627 140.194 7.41943C140.006 6.79312 141.164 6.62639 141.809 6.60898C142.453 6.59157 141.817 5.93571 141.197 6.02013C140.577 6.1035 139.9 6.6839 139.605 6.46862C139.31 6.25229 140.37 5.81857 140.93 5.8038C141.49 5.78797 142.837 5.70829 143.324 5.47349C143.811 5.23922 142.507 5.06985 141.608 5.18329C140.708 5.29673 140.726 4.98384 142.069 4.92686C143.411 4.8704 143.199 4.65354 144.154 4.54273C145.107 4.43193 144.815 4.12906 145.402 4.09371C145.99 4.05783 147.546 3.51964 147.555 3.27851C147.566 3.03421 145.391 2.5968 144.365 2.62159ZM107.546 24.6696C107.609 24.2728 107.07 24.5572 106.825 24.1098C106.579 23.6623 105.135 23.579 104.96 23.9568C104.89 24.1087 104.411 24.3662 104.753 24.6833C105.094 25.001 105.366 24.8326 105.766 25.1466C106.166 25.4605 107.483 25.0669 107.546 24.6696Z" fill="#DAF0F2"/>
<path d="M37.2429 58.8136C37.0017 58.5857 36.3232 58.7645 36.2409 58.5287C36.1575 58.2933 35.6024 57.4882 35.2653 57.5684C34.9276 57.6491 34.4923 57.7472 34.1166 57.5277C33.7414 57.3077 33.4866 57.3357 33.2001 57.562C32.9136 57.7879 33.4813 57.7214 33.4491 57.9198C33.4169 58.1176 33.6058 58.1984 33.8454 58.1161C34.0839 58.0337 34.191 58.4954 34.4263 58.4717C34.6622 58.4479 34.7176 58.803 34.994 58.7529C35.2705 58.7028 35.3101 59.0041 35.4378 59.1544C35.5655 59.3054 35.8916 59.0922 35.881 59.2679C35.871 59.4251 36.1791 59.5106 36.2467 59.6932C36.7854 59.6599 37.2481 59.6277 37.6607 59.4468C37.6729 59.3228 37.713 59.1819 37.7779 59.0658C37.9325 58.7883 37.484 59.0405 37.2429 58.8136ZM39.1814 28.3175C39.8906 28.3402 39.8378 29.5385 40.3238 29.4535C40.6467 29.3971 40.4456 29.0599 40.9706 28.9686C41.4962 28.8774 41.4038 28.6331 41.8856 28.5872C42.3673 28.5412 42.7894 28.3202 42.8485 27.7915C42.9076 27.2622 43.2944 27.0116 43.7946 26.8159C44.2948 26.6206 43.9122 26.1305 44.6214 25.864C45.329 25.5965 47.3361 24.5312 47.6912 24.2547C48.0458 23.9766 47.3451 23.7951 46.6597 23.5028C45.9743 23.21 45.4165 23.191 44.8055 23.6231C44.195 24.0552 44.728 23.268 44.2578 23.5302C43.7872 23.792 42.6258 23.5097 42.486 23.3498C42.3446 23.1883 40.0837 24.1645 39.5603 24.2579C39.0347 24.3502 39.5397 24.7771 39.8731 24.977C40.2061 25.1765 38.8595 26.2254 39.0812 26.3721C39.3022 26.5177 38.7625 27.0934 38.1325 27.7994C37.503 28.5059 38.4723 28.2948 39.1814 28.3175ZM59.2951 28.1429C59.5737 27.8426 60.5229 28.4874 60.6284 27.916C60.7334 27.344 59.5594 27.2512 59.0962 27.0216C58.6334 26.7921 58.4086 26.972 57.6821 26.5594C56.9566 26.1479 57.9807 25.7395 57.4499 25.4113C56.9191 25.0826 56.8468 23.9888 57.3064 23.5556C57.766 23.1213 58.2905 22.4966 57.5776 22.3431C56.8648 22.189 55.6058 22.8501 55.7119 22.9815C55.8169 23.1129 56.7867 23.4838 56.7598 23.7086C56.7323 23.9323 55.886 23.2126 55.533 23.4479C55.18 23.6838 54.8766 23.1783 54.5421 23.5951C54.2076 24.012 54.7104 25.225 54.9141 25.5643C55.1177 25.903 54.6223 25.9774 54.2841 26.1025C53.9453 26.2275 54.0366 25.1058 53.7564 24.7438C53.4757 24.3808 52.2173 24.0943 52.0991 24.4077C51.9809 24.7201 52.8858 24.5813 52.7133 25.0129C52.5413 25.445 52.1276 24.8446 51.6353 25.253C51.1436 25.6614 51.2523 25.4234 51.3747 25.072C51.4971 24.7211 50.8022 24.4605 49.9727 24.6652C49.1438 24.8694 49.5327 25.3242 49.2646 25.5511C48.9966 25.778 47.8046 25.674 48.5993 25.3991C49.395 25.1242 49.1164 24.7639 48.8789 24.3966C48.642 24.0299 47.8046 24.6404 46.4908 25.2609C45.1775 25.8814 44.557 26.4302 44.7148 26.4407C44.8736 26.4513 44.8921 26.6322 44.3613 27.0918C43.8305 27.5509 44.2805 27.8094 44.7274 27.7345C45.1749 27.6596 44.7433 28.0585 45.0467 28.0891C45.3226 28.1165 46.8581 27.2696 47.2369 27.4686C47.6142 27.6648 44.7839 28.2795 44.7354 28.7354C44.6847 29.1897 46.2011 29.1961 47.3651 28.8204C48.5286 28.4431 50.4982 28.4658 50.4692 28.7307C50.4397 28.995 49.0953 29.1338 48.078 29.262C47.0596 29.3892 45.2762 29.9828 45.3253 30.2735C45.3796 30.598 45.4915 30.5806 46.5014 30.8613C47.5118 31.142 48.689 30.2798 48.5787 30.9325C48.4689 31.5852 49.0647 31.6369 50.4946 31.4475C51.925 31.2586 52.6537 30.512 53.3491 30.4423C54.0451 30.3727 54.387 30.2091 54.7669 29.7047C55.1468 29.2003 55.4069 29.4219 55.4639 29.6372C55.5214 29.8519 56.4347 29.6783 56.6205 29.8371C57.0943 30.2413 58.8598 29.844 59.5578 29.4462C60.2554 29.0483 59.3932 28.3529 59.0191 28.7792C58.6456 29.205 58.3807 29.0203 58.3184 28.8436C58.2577 28.6642 59.0165 28.4431 59.2951 28.1429ZM44.766 21.3194C45.4909 21.273 46.3009 20.5575 46.3025 20.2293C46.303 19.8995 44.4045 21.3416 44.766 21.3194ZM41.5173 20.8382C41.788 20.9021 41.4392 21.4735 41.7827 21.2688C42.1262 21.064 42.2116 21.0134 42.447 21.0472C42.8701 21.1084 43.0031 20.7343 43.2305 20.5142C43.4574 20.2937 43.269 21.1648 43.7988 21.0772C44.2468 21.0028 44.2774 20.1217 44.6525 20.3159C45.0277 20.5095 45.197 20.1175 45.3115 19.8436C45.426 19.5703 45.483 19.1239 45.9426 18.9772C46.4022 18.8305 45.9716 19.3724 46.1336 19.6742C46.3689 20.1138 46.9467 19.5798 47.0163 19.3508C47.086 19.1213 47.8041 19.1529 47.7967 18.9002C47.7893 18.6469 48.0447 18.534 47.879 18.2702C47.7128 18.0064 48.2363 17.9963 48.5117 17.7362C48.7871 17.4761 48.1882 17.7505 47.8226 17.4819C47.4569 17.2133 47.2343 17.6829 47.2047 17.9051C47.1752 18.1272 46.4217 18.0655 45.9911 17.9895C45.5606 17.913 44.9058 18.6353 44.2151 19.04C43.5244 19.4447 43.4184 19.9724 42.8121 20.0367C42.2048 20.1006 41.2466 20.7738 41.5173 20.8382ZM47.9054 19.6093C47.3271 19.737 47.3018 20.2515 47.9571 20.1475C48.6125 20.0441 48.794 20.1977 47.8564 20.309C46.9187 20.4214 46.4164 21.2329 47.0897 20.9786C47.763 20.7248 48.5418 20.6013 48.0315 20.8282C47.5208 21.0546 46.1716 21.3727 46.3346 21.5753C46.4386 21.7046 46.9747 21.5817 47.4833 21.683C47.992 21.7848 48.3059 21.8439 48.7671 21.369C49.2277 20.8941 49.8139 20.4019 49.5379 20.9923C49.2625 21.5832 50.1748 21.0377 51.2897 20.8303C52.4051 20.6235 51.008 21.4561 49.8498 21.7109C48.6916 21.9658 48.8325 22.4565 49.7115 22.5013C50.5895 22.5451 52.6109 21.5395 53.1164 21.0635C53.6214 20.586 53.9538 21.1564 54.4455 20.7918C54.9373 20.4272 55.762 20.6335 56.5666 20.3713C57.3713 20.108 57.6684 18.7593 57.1191 18.6211C56.5688 18.4823 56.506 18.963 56.0411 19.1028C55.5763 19.2426 55.3963 18.7609 55.0687 18.4828C54.7405 18.2042 55.0718 17.5415 54.5257 17.6935C53.9833 17.8439 52.7217 18.7931 53.4129 18.763C54.1041 18.7329 53.8134 19.1023 53.423 19.3059C53.0325 19.5091 54.2361 19.5845 54.0424 19.8315C53.8482 20.0779 51.9767 20.1776 51.9429 19.8193C51.9081 19.4605 50.5141 19.0189 49.8788 19.2632C49.2435 19.507 49.567 18.8754 48.9565 18.934C48.346 18.9946 48.4837 19.4822 47.9054 19.6093ZM50.3901 16.615C50.655 16.1417 49.0784 16.454 49.1871 16.5823C49.4303 16.8698 50.1247 17.0883 50.3901 16.615ZM53.835 15.9206C54.3817 15.7692 54.1844 15.4378 53.3032 15.6753C52.4215 15.9116 50.9388 16.1332 50.8644 16.6873C50.8048 17.1294 51.0628 17.3067 51.9999 17.2381C52.937 17.169 53.872 16.2393 53.4187 16.3058C52.965 16.3728 53.2884 16.0731 53.835 15.9206ZM51.9102 15.5217C52.3023 15.6072 52.7803 15.0695 53.0383 15.2468C53.2963 15.4241 54.5505 15.4204 54.6323 14.8352C54.7141 14.2501 53.1138 14.41 52.6711 14.6907C52.2273 14.9698 50.3236 15.3275 50.8085 15.6146C51.1056 15.7908 51.5182 15.4362 51.9102 15.5217ZM58.9722 13.4043C59.5114 13.0455 60.3567 13.3948 60.1441 13.7441C59.9309 14.0934 58.5516 13.896 58.6197 14.1662C58.6461 14.2696 58.7495 14.6838 59.781 14.2928C60.8126 13.9029 61.6178 13.9741 62.2166 14.3588C62.8155 14.744 63.4138 14.8437 63.9378 14.3113C64.4617 13.7794 63.4318 13.8422 63.6914 13.4523C63.951 13.0629 63.1089 12.959 62.6514 13.0186C62.1939 13.0782 62.1322 12.3764 61.737 12.5706C61.3423 12.7648 61.0569 13.0518 61.1249 12.5806C61.1925 12.1095 59.0397 12.3617 58.4751 12.6181C57.9106 12.8724 58.4334 13.7631 58.9722 13.4043ZM58.8344 16.4308C59.2154 16.0177 57.7201 15.0774 57.5613 15.6383C57.403 16.1987 58.4292 16.8698 58.8344 16.4308ZM64.9113 10.9587C65.2664 10.4901 63.2714 10.4115 63.722 10.7218C63.9811 10.9001 64.5562 11.4267 64.9113 10.9587ZM59.0703 19.8689C59.3985 19.5323 58.5685 19.0316 58.2525 19.5851C57.9369 20.1386 58.7363 20.2124 59.0703 19.8689ZM64.1061 16.6535C64.0154 17.025 63.1168 16.7115 62.4034 16.5554C61.69 16.3992 62.043 17.1073 62.5665 17.4698C63.0899 17.8322 62.2456 17.7288 61.5201 17.3584C60.7946 16.988 60.7693 17.7853 61.1091 17.9916C61.4489 18.1979 60.9434 18.6285 60.5229 18.1082C60.1029 17.5879 59.9383 16.9975 59.1547 17.0703C58.3722 17.1426 58.635 17.809 58.8925 18.1177C59.2434 18.5388 59.6439 18.5915 60.2644 18.8316C60.8849 19.0717 62.0283 18.4448 62.5126 18.4881C62.997 18.5314 61.8847 19.2242 62.1702 19.5492C62.4551 19.8737 63.4038 19.4911 64.1167 19.3603C64.83 19.2294 64.5441 18.9049 64.9947 18.5926C65.4453 18.2802 64.6063 18.4258 65.0226 17.7578C65.4384 17.0899 64.1969 16.2815 64.1061 16.6535ZM66.1518 14.2765C66.777 14.1973 67.2878 14.0617 67.8555 13.8132C68.4238 13.5652 67.5891 13.6681 68.0254 13.188C68.4623 12.7083 67.1743 12.8313 67.0704 12.9869C66.9659 13.1415 65.4859 12.3337 65.1894 12.6909C64.8928 13.0476 65.526 14.3551 66.1518 14.2765ZM69.507 14.0375C69.4527 13.828 66.2431 14.553 66.6916 14.8152C67.4498 15.2537 69.5598 14.2438 69.507 14.0375ZM68.3352 19.4299C69.0923 19.2975 68.8195 18.5351 68.056 18.0897C67.292 17.6434 65.269 19.0194 65.5714 19.2046C65.9128 19.4141 67.5775 19.5613 68.3352 19.4299ZM62.3565 25.3432C63.207 25.7796 63.0339 24.8071 64.0718 24.7037C65.1097 24.5998 65.3345 23.0633 65.5703 22.4839C65.8056 21.9041 64.7994 22.0734 64.9999 22.4496C65.1999 22.8258 64.8585 23.2743 64.8337 22.801C64.8095 22.3283 63.9626 22.8807 63.7167 22.5483C63.4708 22.2148 64.6839 22.0154 65.0358 21.4946C65.3877 20.9738 64.1277 21.2139 64.4665 20.8044C64.8042 20.3945 62.6287 21.0867 63.2255 21.226C63.8222 21.3643 63.2023 21.7394 62.6662 21.4476C62.1296 21.1548 60.4401 21.9996 60.9608 22.3399C61.3761 22.6111 62.8176 21.864 61.9085 22.9409C60.9999 24.0204 60.8178 22.8353 60.057 23.0522C59.2967 23.2696 59.5278 24.0436 60.6137 24.1856C61.6985 24.328 61.507 24.9074 62.3565 25.3432ZM69.8938 18.5108C70.0922 19.2094 70.4932 18.6538 70.9164 18.8912C71.3395 19.1287 72.0292 19.2263 72.4439 18.8865C72.8586 18.5472 73.0544 18.3077 73.1478 18.5493C73.2992 18.9429 74.2194 18.8902 76.2334 18.6944C78.2485 18.5002 77.8401 17.7906 78.3925 18.0164C78.945 18.2428 80.2936 18.0945 80.8978 17.9214C81.5019 17.7484 81.8966 16.9142 81.905 16.5195C81.9114 16.1206 77.4496 16.2826 76.6017 16.778C75.7511 17.2698 74.5671 16.8313 73.9002 17.1975C73.2332 17.5642 73.5282 16.8814 72.4012 16.9796C71.2746 17.0788 72.5568 16.4219 72.7958 16.1786C73.0338 15.9354 71.1855 15.5819 70.3718 15.8251C69.5577 16.0673 69.1467 15.7602 68.4349 15.5623C67.722 15.3634 65.6748 15.6921 66.0162 16.1549C66.2573 16.4815 68.5763 16.9432 68.877 16.5474C69.1767 16.1512 69.6959 16.8767 70.0194 17.2328C70.3433 17.589 69.6959 17.8122 69.8938 18.5108ZM72.6027 13.952C71.8941 13.7151 70.8546 14.516 71.5976 14.6764C72.2371 14.8136 73.3113 14.1889 72.6027 13.952ZM67.1659 10.6431C67.741 10.8326 67.3258 11.222 67.9563 11.3919C68.5863 11.5607 70.5903 10.7576 70.7006 11.1328C70.8098 11.5064 68.676 11.7976 68.9319 12.0145C69.1873 12.2303 70.3418 12.4814 70.1439 12.7173C69.9455 12.9531 72.0329 13.3067 72.283 12.9954C72.5331 12.6825 73.1082 12.6862 73.6269 12.8038C74.1461 12.9199 74.3698 11.623 74.7164 11.796C75.0631 11.9686 75.1175 11.2921 75.7765 11.0088C76.4355 10.7249 77.3409 10.6241 77.4348 10.3709C77.5024 10.1883 77.3288 9.96195 76.5648 10.1155C75.8013 10.269 75.3354 10.0754 75.7221 9.68336C76.1089 9.29132 74.9534 9.31401 75.4135 8.98424C75.8741 8.65499 74.7038 8.50514 74.7655 8.91617C74.8278 9.3272 74.0078 9.03489 73.9408 8.65921C73.8738 8.28406 72.1822 8.33365 71.1865 7.61501C70.1914 6.89583 68.9372 7.5976 69.5872 7.62609C70.2378 7.65458 70.1523 7.94267 69.6157 7.97064C69.0791 7.99808 68.1093 8.18275 68.9414 8.3632C69.7735 8.54366 68.7984 8.76315 68.0898 8.8481C67.3812 8.93253 67.2208 9.7224 68.122 9.71924C69.0232 9.71607 68.2866 10.2601 67.5627 10.173C66.8398 10.0854 66.5417 10.4384 67.1659 10.6431ZM72.7473 6.53967C73.381 6.15872 73.8068 6.31912 73.2733 6.58505C72.7394 6.85098 72.8845 6.9734 73.6 6.85995C74.3154 6.74651 73.2807 7.06784 73.2264 7.42031C73.1726 7.77277 74.04 7.46832 74.0279 7.81657C74.0157 8.16481 75.7912 8.10782 76.3991 7.62714C77.0064 7.14699 76.7173 7.69626 76.6334 7.9833C76.5489 8.26875 79.1064 8.23973 79.2842 7.87619C79.462 7.51159 79.8177 7.61342 80.3047 7.66724C80.7912 7.71948 83.3349 6.98184 83.4383 6.56131C83.5423 6.13919 84.2024 6.69269 83.3402 7.22508C82.4775 7.75747 80.8962 7.84823 80.1585 8.0978C79.4209 8.34737 80.5305 8.64813 81.1769 9.03489C81.8232 9.42112 80.2234 9.34092 79.6414 8.81064C79.0589 8.28036 77.553 8.43918 76.7531 8.56054C75.9532 8.68084 76.0208 9.89442 76.607 9.83163C77.1932 9.76778 77.753 9.88123 78.2279 10.6009C78.7033 11.3212 79.987 11.0098 79.9375 11.3665C79.8873 11.7232 78.3408 11.2552 77.4396 11.213C76.5379 11.1697 75.0008 11.834 74.8784 12.4139C74.7555 12.9938 76.149 12.7648 77.1362 12.197C78.1239 11.6304 77.3678 12.3121 76.8571 12.7226C76.3458 13.1325 77.858 13.2486 77.8 13.6813C77.7414 14.1134 76.6276 14.095 76.5558 13.7124C76.484 13.3304 76.1189 12.9806 75.0198 13.1763C73.9202 13.3726 74.1239 13.9884 74.785 13.9842C75.4456 13.9799 75.4288 14.4084 74.6742 14.4949C73.9197 14.5809 72.1627 15.1903 72.6344 15.5539C73.1567 15.956 75.3586 15.2352 75.6984 15.4837C76.0377 15.7307 77.0729 15.7212 77.3678 15.3671C77.6633 15.0125 78.4843 15.0642 79.3254 14.973C80.1664 14.8812 80.3627 14.9677 80.7036 15.2167C81.045 15.4658 81.733 15.2853 82.2332 14.9476C82.7339 14.6105 82.7339 14.6105 83.3233 14.5498C83.9132 14.4891 84.0815 14.152 83.8383 13.7863C83.5951 13.4206 82.7477 14.1815 82.7012 13.9029C82.6442 13.5578 81.9636 13.5172 80.7669 13.7863C79.5702 14.0559 80.1812 13.2101 80.8714 13.3146C81.5615 13.4185 82.5387 13.246 83.3624 12.9848C84.1855 12.7242 83.5972 12.4661 83.6362 12.1807C83.6747 11.8947 84.6598 11.9717 85.4175 11.8968C86.1747 11.8208 87.4067 10.6843 87.5307 10.0807C87.6547 9.476 85.913 9.78097 85.073 9.86381C84.233 9.94613 85.6924 9.27866 87.279 9.19899C88.8657 9.11878 88.2341 8.58903 88.5575 8.35159C88.8804 8.11416 89.5732 8.49986 90.3911 8.28828C91.2084 8.07617 90.7398 7.56699 91.2859 7.51845C91.6727 7.48468 92.6135 6.91747 94.4439 5.97985C96.2737 5.04434 97.5949 5.07917 97.7401 4.62698C97.8857 4.17479 95.3525 4.81534 94.9525 4.71351C94.5536 4.60956 96.7418 4.06135 97.2298 4.12572C97.7174 4.19009 98.4028 4.0318 100.212 3.22556C102.02 2.42302 101.291 2.31116 100.567 2.46365C99.8422 2.61666 99.0766 2.47315 99.1715 2.09905C99.266 1.72548 98.1326 2.14337 98.1199 1.94445C98.1078 1.74553 97.0916 1.92123 95.9561 2.3444C94.8206 2.7681 95.9223 2.01199 96.4014 1.84262C96.8805 1.6706 93.6461 2.05789 93.1501 1.79988C92.6541 1.53922 91.9038 2.40297 91.4653 2.03837C91.0274 1.67324 89.6814 2.12121 89.8012 2.41352C89.9215 2.70531 89.5453 2.73749 89.0968 2.44043C88.6488 2.14337 87.6304 2.60189 86.7699 2.57815C85.9093 2.55388 86.1779 3.20393 85.2708 2.94961C84.3649 2.69476 83.2948 2.96438 83.5703 3.03983C83.8462 3.11529 83.4378 3.35642 83.0368 3.2931C82.6358 3.22978 82.238 3.40285 82.3926 3.72682C82.5472 4.05079 80.8635 3.77273 80.8038 4.15316C80.7442 4.53306 80.0852 4.80321 79.6383 4.5072C79.1914 4.21067 77.6222 4.26818 78.0316 4.53358C78.4416 4.79846 76.5901 4.81851 77.0418 5.08022C77.4934 5.34087 76.3279 5.70336 76.3553 5.52871C76.3827 5.35406 75.3887 5.1504 74.9217 5.50972C74.4547 5.86904 74.269 6.26847 74.0933 6.08063C73.9176 5.89331 72.9884 6.06322 72.0687 6.44206C71.1454 6.82302 72.1136 6.92063 72.7473 6.53967ZM79.5444 37.2035C79.8462 37.1312 80.5268 36.1023 79.757 36.2274C78.9866 36.3524 79.0753 37.3164 79.5444 37.2035ZM75.8783 36.792C76.5226 37.0954 77.6354 35.9377 77.5789 35.6417C77.5214 35.3431 75.1 36.4237 75.8783 36.792ZM79.1296 34.3258C79.2499 33.9332 77.7768 33.9506 77.9023 33.5211C78.0269 33.0906 76.5753 32.9207 76.1321 32.7476C75.6884 32.574 74.9803 32.5455 75.0256 32.0891C75.071 31.6322 74.0221 32.096 73.9123 32.7877C73.8026 33.48 73.3952 33.3781 73.5435 34.0018C73.6918 34.626 72.5368 34.9204 72.6307 35.2491C72.7251 35.5784 73.3103 35.1273 73.8173 35.0655C74.3249 35.0038 73.62 35.7235 74.2606 35.6934C74.7645 35.6702 75.7042 35.0275 75.9448 34.6956C76.1854 34.3638 76.6202 34.1991 77.1784 34.512C77.7372 34.826 79.0088 34.7178 79.1296 34.3258ZM93.4139 29.5285C93.9257 29.5184 93.96 30.0777 94.7241 30.6091C95.4886 31.1415 95.611 30.7167 95.7762 30.2883C95.9419 29.8598 96.8156 30.1194 96.8088 29.7068C96.8019 29.2947 97.6198 28.7354 98.1527 28.5022C98.6856 28.2685 97.7786 27.8986 97.0884 27.9967C96.3972 28.0954 96.3059 27.6928 96.3302 27.4295C96.3539 27.1662 95.1261 26.6438 94.6877 26.7963C94.2481 26.9478 93.577 26.4149 93.0245 26.4296C92.4716 26.4439 91.6954 26.1468 91.8331 25.615C91.9703 25.0836 92.9296 25.6598 93.1839 25.2287C93.4382 24.7982 92.1333 25.1422 92.1212 24.8478C92.1085 24.5533 92.4394 24.6325 92.7137 24.423C92.9886 24.2125 92.5565 23.8848 92.2726 23.764C91.9893 23.6437 91.8584 24.0975 91.5593 24.1259C91.2606 24.1544 91.5587 23.7207 91.7988 23.4405C92.0384 23.1604 90.876 22.9767 90.3494 23.1746C89.8223 23.3725 89.6793 23.1298 89.7109 22.8332C89.7426 22.5367 88.8171 22.9203 88.453 23.1772C88.0884 23.4342 87.7112 23.0311 88.1407 22.9514C88.5702 22.8717 89.1126 22.5251 89.0208 22.2048C88.929 21.8845 87.8283 21.9568 87.5714 22.3853C87.3144 22.8137 86.515 22.0518 86.5525 21.7199C86.5894 21.387 85.1991 21.8212 85.4312 21.2503C85.6634 20.6789 83.9433 20.7116 83.4779 20.7612C83.0125 20.8103 82.2971 21.2144 82.3387 21.5753C82.381 21.9362 81.8058 21.8518 81.7678 21.4545C81.7304 21.0567 80.4904 22.0312 80.1522 22.0697C79.814 22.1067 80.4883 20.9728 80.3585 20.6604C80.2292 20.347 79.9892 20.2641 79.8024 19.7407C79.6156 19.2168 78.3245 19.5782 77.9472 19.9481C77.5699 20.3174 76.4925 20.2947 75.8408 20.8804C75.1892 21.4661 75.7585 21.9114 75.9896 22.0676C76.2202 22.2233 75.0483 22.6533 75.3924 22.906C75.7364 23.1593 76.3442 22.9414 76.3305 23.42C76.3168 23.8985 74.9565 23.4342 74.7945 23.0501C74.632 22.666 74.9702 22.2602 74.7112 21.9985C74.4521 21.7368 74.7492 21.3363 75.3586 20.7549C75.9685 20.1739 76.3806 20.1998 76.4165 19.9048C76.4524 19.6104 74.0965 19.8805 72.5758 21.159C71.0541 22.4375 71.2984 23.878 71.348 24.1666C71.3971 24.4547 72.6328 24.155 73.3261 24.2552C74.02 24.3555 73.6116 24.6626 73.0728 24.6546C72.5346 24.6462 71.6271 24.6108 71.6308 24.9422C71.634 25.2736 72.6972 25.7701 73.3878 25.539C74.0785 25.3079 74.0785 25.3073 74.3355 25.6091C74.5924 25.911 75.4061 25.7025 76.2039 25.6466C77.0017 25.5896 77.9023 25.7447 78.2796 25.7389C78.6558 25.7331 79.146 25.4556 79.2932 25.2546C79.4404 25.053 80.9537 25.3643 81.4249 25.2762C81.895 25.1876 81.6391 24.8462 81.3547 24.767C81.0703 24.6874 81.2507 24.1887 81.6116 24.3338C81.9726 24.4784 82.5962 24.5212 82.687 24.8441C82.764 25.1184 83.1376 24.9433 83.1524 25.2002C83.1666 25.4572 84.4936 25.6118 84.5052 25.9078C84.5163 26.2022 83.1408 26.4972 83.4959 26.7193C83.851 26.9409 84.5084 26.2766 85.0229 26.1869C85.5368 26.0956 85.4328 27.1082 85.8317 26.9193C86.3752 26.6607 86.7498 27.01 87.1978 27.5968C87.6463 28.1846 87.0332 28.8446 87.0537 29.0668C87.0743 29.2894 88.0642 29.1132 88.6451 28.7935C89.226 28.4737 89.6851 28.9892 90.0813 29.2873C90.4776 29.5849 88.4124 30.3521 88.6124 30.0329C88.8113 29.7121 87.5297 28.9417 86.2523 29.4857C84.9743 30.0302 85.7658 30.5859 85.8586 30.952C85.951 31.3187 84.6762 31.8274 83.5571 31.6095C82.439 31.391 82.7255 31.925 82.257 31.9762C81.7884 32.0274 81.2159 32.7312 81.6027 33.1043C81.9894 33.4768 82.9629 32.993 83.7275 32.9486C84.4926 32.9043 84.5606 33.0869 84.6804 32.6959C84.8007 32.3054 85.5948 32.4104 86.1404 32.4669C86.686 32.5234 86.4955 33.223 87.1735 33.2293C87.8521 33.2351 87.2411 33.9037 87.6331 34.2815C88.0251 34.6582 89.4181 34.291 89.8946 34.7004C90.37 35.1077 92.4858 35.8153 92.8219 35.4454C93.1955 35.0275 91.1044 33.4789 90.4755 33.3913C89.845 33.3016 91.1488 32.9845 91.917 33.4794C92.6853 33.9744 93.8698 34.1295 94.5304 33.3855C95.191 32.6426 94.055 32.9365 94.0967 32.441C94.1384 31.9456 93.8107 31.2966 93.2092 31.353C92.6066 31.409 91.1567 30.494 91.7355 30.2139C92.3133 29.9332 91.612 29.6999 92.0795 29.243C92.5465 28.7855 92.9021 29.5385 93.4139 29.5285ZM84.5638 28.6141C85.0825 28.4843 85.0577 27.7967 84.8049 27.4701C84.6187 27.2295 84.0694 27.2496 83.5982 27.3377C83.1265 27.4248 82.2533 28.1518 82.6136 28.7481C82.9745 29.3433 84.0451 28.7428 84.5638 28.6141ZM80.33 19.5012C80.0192 20.0067 80.8207 19.9191 80.7975 20.4668C80.7743 21.015 81.5563 21.1115 82.1868 20.7163C82.8168 20.3206 84.4599 20.5728 84.51 20.1438C84.5564 19.7386 82.8669 19.1904 82.2206 19.3687C81.5742 19.5471 80.6408 18.9957 80.33 19.5012ZM93.5522 50.4009C93.6192 50.7074 96.0964 51.4287 96.2094 50.9887C96.3196 50.5439 93.492 50.1355 93.5522 50.4009ZM104.537 51.8276C104.347 52.1321 104.107 51.6498 104.502 51.3564C104.896 51.0636 104.461 50.9918 104.101 51.177C103.741 51.3617 103.873 50.4848 104.204 50.3017C104.534 50.1181 103.436 49.8885 103.422 50.1782C103.407 50.469 102.625 50.346 102.552 50.0891C102.478 49.8331 101.926 49.7988 102.14 49.5978C102.354 49.3978 101.483 49.3625 101.378 49.6854C101.274 50.0083 101.039 49.5028 101.5 49.0464C101.961 48.5895 101.836 48.2344 102.256 47.9906C102.677 47.7479 102.252 47.5469 101.804 47.7395C101.357 47.9315 100.109 49.4738 100.088 49.8696C100.066 50.2648 100.012 50.7412 99.6047 50.7486C99.1969 50.7565 98.7114 51.1385 99.0217 51.3227C99.3314 51.5068 98.1305 52.2054 98.6729 52.4302C99.0433 52.5827 99.6707 52.2672 100.195 52.2766C100.718 52.2867 101.156 52.2766 101.61 51.9511C102.065 51.625 102.037 52.1801 102.508 52.0899C102.98 51.9996 102.228 52.4539 102.242 52.7426C102.258 53.0317 102.748 52.5447 103.109 52.359C103.468 52.1722 103.901 52.2972 103.712 52.5753C103.523 52.8523 104.655 53.0296 104.94 52.5858C105.224 52.1437 104.728 51.5237 104.537 51.8276ZM29.3251 54.5724C28.5975 55.079 30.1661 56.5236 30.535 56.235C30.7866 56.0356 30.1767 55.4193 30.2078 54.9618C30.2389 54.5038 30.0516 54.0659 29.3251 54.5724ZM97.4361 54.1545C97.1275 54.221 97.3902 53.763 97.4451 53.5414C97.5 53.3193 96.7834 53.6965 96.7486 53.9567C96.7138 54.2168 96.2273 54.3577 96.2189 54.517C96.1956 54.9803 96.1423 54.7407 95.7841 54.9302C95.4253 55.119 94.0788 55.0811 94.0497 54.8072C94.0202 54.5334 93.0451 54.4832 93.0219 54.1107C92.9981 53.7382 92.5248 53.6633 92.9396 53.2116C93.3543 52.7594 92.9079 52.6033 92.5201 52.9541C92.1328 53.3055 91.9418 52.8312 92.4526 52.6064C92.9633 52.3822 93.9099 52.1178 93.4751 51.3712C93.0393 50.623 89.98 51.9321 89.1991 52.4033C88.4166 52.8724 87.3914 54.2342 86.9799 54.2754C86.5683 54.3165 87.7323 53.5303 87.9207 53.257C88.109 52.9821 87.9069 52.7468 88.1396 52.8222C88.3723 52.8972 89.0994 51.8825 89.5738 51.5226C90.0481 51.1628 90.5298 51.4113 90.61 51.148C90.6902 50.8853 90.9182 50.6869 91.3735 50.2906C91.8252 49.8891 97.0283 49.477 97.5337 49.4585C98.035 49.4342 99.0534 48.7393 99.3604 48.322C99.6675 47.9041 100.039 47.873 100.737 47.8545C101.436 47.836 101.796 47.2393 102.159 46.9944C102.522 46.7501 102.395 46.662 102.092 46.6283C101.789 46.594 101.515 46.4399 101.822 46.3956C102.13 46.3512 102.292 46.1813 102.443 45.8183C102.595 45.4543 102.345 45.6305 101.959 45.1735C101.572 44.7177 101.315 45.382 100.902 45.3767C100.489 45.3719 101.217 44.8438 100.879 44.6765C100.541 44.5098 99.8775 44.7018 99.3304 45.1377C98.7827 45.574 98.8513 45.1588 98.369 45.5899C97.8867 46.0215 97.9231 45.4337 98.1511 45.258C98.379 45.0823 98.521 45.2453 98.7315 44.9936C98.9425 44.7414 99.1241 44.9604 99.6443 44.6237C100.164 44.2882 100.592 44.3889 100.759 44.161C100.924 43.9331 100.55 43.6724 100.064 43.8101C99.5773 43.9484 99.2934 43.2915 98.9763 43.5131C98.6587 43.7341 98.7552 43.2403 98.3943 43.4661C98.0334 43.6914 97.8535 43.4545 97.7253 43.0968C97.5971 42.739 96.7022 42.2166 96.1487 42.1116C95.5947 42.0061 95.983 41.7006 96.2732 41.8684C96.5639 42.0362 96.938 41.6162 97.0816 41.4099C97.2251 41.2036 96.8895 41.0601 96.7175 41.0558C96.5449 41.0511 96.5624 40.7983 96.6199 40.6005C96.6769 40.4021 96.0437 40.2079 96.0358 40.0159C96.0279 39.8238 95.6691 39.7214 95.7034 39.5452C95.7377 39.369 95.3662 39.1526 95.3831 38.9199C95.4 38.6878 94.7853 38.2826 94.7842 38.015C94.7831 37.7465 94.4518 37.5855 94.3473 37.269C94.2428 36.9534 94.0582 37.1239 93.893 37.5982C93.7279 38.0736 93.2757 38.0968 93.3939 38.2388C93.6355 38.5316 93.434 38.5612 93.2245 38.7727C93.0156 38.9843 93.3179 39.2444 92.9939 39.275C92.6694 39.3057 92.776 39.8919 92.6235 39.637C92.471 39.3822 92.0547 39.4982 92.0347 39.7695C92.0146 40.0407 91.3044 40.3593 91.0253 40.3673C90.7462 40.3741 90.7852 39.8512 90.5362 40.0296C90.2871 40.2079 90.3758 39.6027 90.008 39.6581C89.6402 39.7135 89.3843 39.7003 89.5141 39.399C89.6445 39.0978 88.9226 39.0355 89.1733 38.8376C89.4234 38.6403 89.1464 38.3606 89.1437 37.8636C89.1406 37.366 89.5099 37.2922 89.5252 37.0991C89.5405 36.907 89.2825 36.9323 89.0118 37.1117C88.7417 37.2911 88.7712 36.9255 88.49 36.9729C88.2093 37.0199 87.3745 37.0669 87.3603 36.7244C87.3461 36.383 87.0527 36.5841 86.9519 36.2707C86.8506 35.9572 86.4865 36.2422 86.506 36.0116C86.5256 35.781 86.3836 35.7008 86.1283 35.7082C85.8729 35.7156 85.809 35.475 85.4692 35.4729C85.1305 35.4702 84.6804 35.7647 84.4815 35.8623C84.2826 35.9594 83.8204 35.6665 83.6167 35.8216C83.4125 35.9768 83.3898 35.7509 82.868 35.6744C82.3456 35.5979 81.6449 35.637 81.5874 35.8148C81.5293 35.9926 81.0977 36.0971 81.1262 36.4933C81.1547 36.8901 81.6101 36.7635 81.6934 37.0215C81.7768 37.279 81.465 37.2183 81.4222 37.471C81.3795 37.7238 81.1035 37.7359 81.0888 37.909C81.074 38.0831 81.2692 38.023 81.3468 38.3585C81.4243 38.6941 81.6396 38.6508 81.6649 39.1078C81.6908 39.5647 81.4634 39.4945 81.2449 39.5758C81.0265 39.6576 81.2423 39.8634 80.9178 40.2063C80.5933 40.5493 80.3105 40.9081 80.53 41.0754C80.7495 41.2431 81.5995 41.4758 81.9013 41.9634C82.2026 42.4509 82.1192 43.2703 81.9683 43.8671C81.8174 44.4639 81.0787 44.6802 80.5062 45.2474C79.9338 45.8152 79.3834 45.7993 79.1254 45.8484C78.8674 45.8964 78.9824 46.3491 79.3196 46.68C79.6567 47.0113 79.3491 47.1622 79.5138 47.5326C79.6789 47.903 79.4647 48.2381 79.7185 48.5605C79.9728 48.8829 79.7923 49.0396 79.4536 49.3308C79.1149 49.6221 79.5744 49.4342 79.5734 49.7661C79.5728 50.098 79.414 49.9202 79.1476 49.7746C78.8811 49.6289 78.5904 50.1687 78.5756 50.3851C78.5614 50.6014 77.9319 50.165 77.781 50.202C77.6301 50.2389 77.8459 49.8627 77.4797 49.6321C77.114 49.4015 76.8191 49.3767 76.8381 49.1024C76.8571 48.8275 76.2097 48.7082 76.2318 48.3948C76.254 48.0808 76.3965 47.2678 76.2645 47.0504C76.1326 46.8335 76.2788 46.5639 76.4228 46.3338C76.5663 46.1038 76.3141 45.8036 75.9311 45.8489C75.548 45.8943 75.0246 45.84 74.4906 45.9423C73.9561 46.0452 73.6649 46.003 73.5055 45.8869C73.3462 45.7714 72.8803 45.5376 72.2355 45.4622C71.5907 45.3872 71.319 45.1129 71.2694 44.9456C71.2198 44.7778 70.575 44.7235 70.441 44.5673C70.3069 44.41 69.6812 44.3942 69.4247 44.4649C69.1683 44.5356 68.5784 44.0914 68.198 44.1605C67.817 44.2291 66.9052 44.695 66.757 44.734C66.6082 44.7731 66.8013 44.4396 66.9174 44.2892C67.0335 44.1388 66.6609 43.6112 66.5881 43.2366C66.5153 42.862 66.4045 42.4546 65.9592 42.5718C65.5133 42.6889 65.0495 42.5401 64.9303 42.4799C64.8105 42.4187 64.8849 41.317 65.0311 40.8395C65.1762 40.3609 65.7835 39.5922 65.8093 39.3035C65.8357 39.0139 66.204 38.8313 66.5259 38.7126C66.8477 38.5933 66.6467 38.0683 66.9654 37.9881C67.2841 37.9079 67.3152 37.7892 67.4002 37.5507C67.4846 37.3112 67.8481 37.4156 67.6561 37.251C67.464 37.0864 67.6376 37.0062 68.1204 36.9434C68.6037 36.8801 69.3334 36.6337 69.2701 36.2063C69.2063 35.7784 67.9146 36.268 67.9494 35.9034C67.9837 35.5383 66.3908 35.7298 66.5169 35.5056C66.642 35.2808 68.0961 35.4475 68.6248 35.5689C69.153 35.6897 69.3023 35.6523 69.7461 35.5763C70.1898 35.5003 69.9445 35.0207 70.0495 34.7996C70.1539 34.578 70.9443 35.007 71.4408 34.8318C71.9368 34.6556 72.4877 33.6995 72.9135 33.4029C73.3388 33.1053 73.0021 32.9201 72.2165 33.0742C71.4303 33.2288 71.015 33.0172 70.6225 32.784C70.2299 32.5518 70.2953 32.3181 70.7333 32.2996C71.1712 32.2812 72.1468 32.9312 72.5463 32.9006C72.9451 32.87 73.7134 32.0606 74.0743 31.7915C74.4352 31.5224 73.7904 31.5061 73.5752 31.3641C73.3604 31.2217 74.0052 31.0301 74.3429 30.9895C74.6806 30.9489 74.8019 31.1969 74.9154 31.314C75.0288 31.4317 75.6435 31.1335 75.94 31.0982C76.236 31.0628 75.9416 30.6661 75.4725 30.5531C75.004 30.4408 75.5438 30.0582 75.6651 30.3057C75.786 30.5531 76.13 30.4561 76.2688 30.7405C76.4708 31.1541 76.6555 30.8444 77.0924 30.6624C77.5293 30.4798 77.7641 30.2281 78.0205 29.9743C78.2764 29.7205 78.2923 29.9801 78.6041 29.5891C78.9159 29.1982 78.5487 28.9037 78.2332 28.7164C77.9176 28.5291 78.3018 28.2616 77.9788 28.1497C77.6559 28.0373 77.6227 27.7624 78.0374 27.7888C78.4527 27.8152 78.8036 27.6633 79.022 27.3789C79.2404 27.0939 78.421 27.1314 78.822 26.8998C79.223 26.6686 78.9254 26.5177 78.5445 26.561C78.1635 26.6043 77.8643 26.4718 77.8738 26.1932C77.8833 25.9141 77.2074 26.1774 76.8249 26.055C76.4418 25.9331 75.5517 26.0751 75.3385 26.1188C75.1254 26.1621 75.0198 26.9346 75.3343 26.9161C75.6488 26.8976 75.8699 27.1678 75.5849 27.295C75.3005 27.4216 75.5849 27.6849 75.3755 27.6907C75.1665 27.6975 74.8389 27.6432 74.7233 28.1408C74.6077 28.6389 74.5455 28.833 74.1688 29.0462C73.792 29.2599 74.1424 28.5085 73.8031 28.5687C73.4638 28.6283 73.3593 29.2193 73.6063 29.2451C73.8532 29.271 73.8759 29.4546 73.9092 29.7311C73.9429 30.0076 73.4374 29.863 73.191 30.2302C72.9446 30.5969 72.9747 30.1062 72.7035 29.9163C72.4323 29.7247 72.1141 29.3907 72.1653 29.1053C72.2101 28.8547 72.37 28.7444 72.6059 28.6779C72.8412 28.6114 72.6302 28.451 72.646 28.1144C72.6613 27.7778 72.3753 27.9244 72.0777 27.6078C71.7801 27.2918 71.4229 27.3366 71.215 27.5298C71.0071 27.7229 71.0984 28.0273 70.7918 28.1777C70.4853 28.3276 70.5539 28.8404 70.298 28.9101C70.0415 28.9797 70.2932 27.9983 70.0933 27.9313C69.8938 27.8638 69.9397 27.6348 70.2584 27.5577C70.5776 27.4802 70.8003 27.1551 70.527 27.1894C70.2537 27.2237 69.7999 27.0216 69.62 26.9705C69.4395 26.9193 69.0807 27.3546 68.8881 27.2311C68.695 27.1076 68.9678 26.7014 69.0121 26.4924C69.0564 26.2835 69.3366 26.5436 69.5767 26.2539C69.8157 25.9642 69.019 26.0661 69.0512 25.7848C69.0833 25.5036 68.4628 25.5094 68.2645 25.4429C68.0661 25.3759 68.476 24.862 68.3932 24.6889C68.3104 24.5148 67.6081 23.9988 67.2677 24.0985C66.9263 24.1982 66.8957 23.7608 67.082 23.755C67.2677 23.7492 67.4276 23.6184 67.826 23.2179C68.2238 22.8185 68.2792 22.7013 68.037 22.6591C67.7954 22.6169 67.6967 22.4101 68.1341 22.3721C68.571 22.3346 69.3139 22.4961 69.5857 22.2971C69.8569 22.0972 70.7871 20.9047 71.1501 20.4789C71.5126 20.052 70.9723 20.0826 70.2114 20.2309C69.4506 20.3802 69.3224 20.0874 68.6998 20.1296C68.0766 20.1718 66.8884 20.4699 66.7 20.6583C66.5122 20.8467 66.9738 20.9321 66.8884 21.1258C66.8029 21.3194 66.4662 21.053 66.2895 21.149C66.1133 21.245 66.3127 21.4556 66.1702 22.1141C66.0278 22.7731 66.2325 22.7831 66.4119 22.9979C66.5913 23.2131 66.5116 23.535 66.4631 23.9455C66.414 24.3565 65.9777 24.3956 65.8204 24.5085C65.6632 24.6214 66.1681 24.7016 66.0531 24.9749C65.9391 25.2482 65.5481 24.8942 65.2891 25.0024C65.03 25.1105 64.7472 25.7759 64.9947 25.9463C65.2421 26.1162 65.3508 26.065 65.1144 26.3373C64.8775 26.6096 64.6074 26.9974 65.068 27.2881C65.5286 27.5788 66.4525 27.4184 66.9026 27.6379C67.3527 27.8574 66.6805 27.7788 66.8335 28.0743C66.9865 28.3703 66.4721 28.5497 66.4657 28.7929C66.4599 29.0356 66.6625 28.8784 66.9591 28.4299C67.2561 27.9819 67.3859 28.4853 67.3263 28.8473C67.2662 29.2092 66.9332 29.0478 66.6219 29.4435C66.3111 29.8387 66.0536 29.9289 65.6648 29.9063C65.2754 29.8841 65.4421 30.4402 65.5756 30.7405C65.7086 31.0407 65.4875 31.1826 65.04 31.1309C64.5921 31.0797 64.3488 30.8502 64.6126 30.4967C64.877 30.1426 65.0849 29.7416 64.8095 29.8166C64.5335 29.8915 63.9135 29.92 63.7547 29.6804C63.5959 29.4409 63.8966 29.5116 64.4538 29.4915C65.0115 29.472 64.5747 29.1396 64.992 29.0831C65.4099 29.0272 65.7006 29.1929 66.0874 28.8621C66.4736 28.5317 65.9486 28.0616 65.6458 28.1956C65.3429 28.3286 64.8707 28.5038 64.9002 28.24C64.9292 27.9761 65.4099 28.097 65.688 28.0041C65.966 27.9112 65.5856 27.6279 65.1577 27.7783C64.7298 27.9287 64.4348 27.9872 64.1372 27.7118C63.8396 27.4369 63.2561 27.3308 63.0276 28.0859C62.7997 28.842 62.2609 28.5265 62.0045 28.804C61.7486 29.0816 62.2293 29.1818 62.7896 29.1232C63.35 29.0647 63.7157 29.4804 63.4445 29.5174C63.1732 29.5543 63.2592 29.8973 62.9817 29.8049C62.7042 29.7126 62.3981 29.8857 62.5818 30.0841C62.7654 30.283 62.4636 30.4175 62.4599 30.6428C62.4562 30.8676 62.0203 30.7225 61.5877 30.7457C61.1545 30.7689 60.3298 31.0164 59.7362 31.2137C59.1421 31.4111 58.52 31.3145 58.2978 31.1035C58.0752 30.8929 57.7401 30.9789 57.3259 31.0402C56.9123 31.1014 57.0753 30.722 56.5397 30.7827C56.0042 30.8433 56.1736 30.4075 56.1387 30.1701C56.1034 29.9332 55.0212 30.169 54.6049 30.4566C54.1886 30.7436 53.4367 30.7653 53.1861 31.2153C52.9354 31.6649 53.3322 31.5477 53.5591 31.5129C53.8741 31.4649 53.8836 31.1262 54.4529 31.1146C55.0217 31.1029 55.5024 30.4144 55.7256 30.6054C55.9488 30.7959 54.6629 31.4185 54.1194 31.5768C53.576 31.7351 53.6567 32.115 54.0978 32.7413C54.5395 33.3676 53.8393 33.0805 53.8039 33.424C53.768 33.767 52.8484 33.4583 53.2515 33.2837C53.6541 33.109 53.5063 32.775 53.2219 32.5946C52.9375 32.4136 52.708 32.6737 52.775 32.4205C52.842 32.1667 52.4437 32.4901 52.1783 32.3255C51.9129 32.1609 51.7867 32.0121 51.3773 32.2632C50.9673 32.5149 50.522 32.5286 49.6487 32.7993C48.7744 33.07 47.2079 33.2884 46.9509 33.0689C46.6929 32.8489 47.7619 32.2057 48.0606 32.2321C48.3497 32.2574 48.2151 31.9071 47.782 31.6417C47.3482 31.3757 46.3315 31.3377 46.3299 31.5441C46.3278 31.7504 45.7373 31.6607 44.9992 31.6543C44.2621 31.6475 44.1866 31.4174 43.7017 31.4813C43.2337 31.5425 42.5024 31.5367 41.9805 31.2164C41.4577 30.8956 40.1143 31.2428 39.9138 31.6522C39.7127 32.0611 39.2722 32.1208 38.83 32.1999C38.3878 32.2791 39.078 31.6934 38.9271 31.6411C38.7261 31.5715 39.0126 31.0101 38.6949 31.0296C38.3773 31.0486 37.942 32.3962 37.3447 32.4679C36.7469 32.5392 36.6229 31.2544 36.158 31.0043C35.6932 30.7536 35.2352 30.8201 35.6019 31.2554C35.9691 31.6913 35.2267 31.4739 35.232 31.8089C35.2368 32.144 34.4785 32.6774 34.5176 32.4838C34.5566 32.2901 34.1588 32.1582 33.628 32.7819C33.0977 33.405 32.7679 33.3934 32.7468 33.2109C32.7247 33.0273 31.251 33.9839 31.289 34.2018C31.3264 34.4192 31.033 34.6445 30.6595 34.6983C30.2859 34.7521 30.6109 34.3891 30.9222 34.1786C31.2715 33.9427 32.254 33.0605 32.7389 32.8943C33.2228 32.727 34.1751 32.1931 34.2163 31.9804C34.2575 31.7672 33.762 32.0274 33.4491 32.0311C33.1368 32.0337 32.5453 32.4822 31.9875 32.8136C31.4298 33.1449 30.8241 33.1877 30.9528 33.462C31.0816 33.7364 30.4621 33.5195 30.3038 33.757C30.1456 33.9939 29.9108 33.815 30.1192 33.662C30.3276 33.5085 29.6765 33.4304 29.6638 33.5639C29.6512 33.6974 29.5161 33.8926 29.0433 33.986C28.5705 34.0794 28.0682 34.4978 28.3616 34.6645C28.6544 34.8313 28.8407 34.9062 28.6692 35.0909C28.4977 35.2745 28.0577 34.8186 27.3659 35.0138C26.6737 35.2085 25.3794 34.6862 25.3968 34.4957C25.4105 34.3405 24.4412 34.6339 23.7843 34.703C23.3918 39.1004 23.0335 43.5231 22.709 47.9611C22.709 47.9611 23.0235 48.1405 23.1628 47.959C23.3026 47.778 23.5179 47.9357 23.97 47.6392C24.4222 47.3432 24.5441 47.7484 24.5288 47.9537C24.5135 48.1595 25.1066 48.3668 25.3398 48.6481C25.5725 48.9304 25.6812 49.1868 25.9782 48.9488C26.2753 48.7114 26.8003 48.504 26.8256 48.169C26.8499 47.835 28.0471 47.5442 28.0139 47.9827C27.9806 48.4196 29.1626 48.6924 29.7525 49.7461C30.3429 50.8008 30.2194 51.0794 31.184 51.2757C32.1495 51.4736 32.1094 51.6852 31.9538 52.0466C31.7987 52.4064 32.5189 52.4492 32.0799 52.8122C31.9116 52.9515 31.6747 53.1536 31.4467 53.3488C31.4541 53.5156 31.6018 53.5958 31.7902 53.7224C32.0118 53.8722 31.3449 53.9983 31.529 54.1361C31.7132 54.2732 31.4594 54.5898 31.6409 54.7661C31.8224 54.9423 32.1812 54.7982 32.4091 54.583C32.6376 54.3672 32.7679 54.727 32.5711 55.051C32.3748 55.3755 32.7331 55.519 32.9252 55.2726C33.1162 55.0257 33.4523 55.5195 33.6232 55.5839C33.7942 55.6477 33.952 55.9068 33.6565 55.9617C33.361 56.0166 33.3668 56.5147 33.5821 56.4936C33.7974 56.4735 33.7599 56.7495 33.7483 56.9246C33.7367 57.0993 34.41 57.2254 34.6722 57.1014C34.9339 56.9769 35.156 57.1668 35.2605 57.3599C35.365 57.5525 35.8298 57.6227 36.0177 57.4544C36.2045 57.2855 36.2984 57.6538 36.3205 57.9198C36.3422 58.1852 36.7495 57.9588 36.9885 57.8971C37.2281 57.8348 37.3457 58.1419 37.5088 58.0554C37.8676 57.8638 37.9346 58.4453 38.1446 58.7571C46.398 57.2676 54.9009 55.9126 63.5885 54.7038C63.5885 54.7038 63.646 54.0949 63.9399 54.2632C64.2338 54.4326 63.9315 54.8104 64.2866 54.8937C64.6422 54.9761 64.8807 55.1528 65.0817 55.0483C65.2827 54.9439 65.6363 54.6373 65.9492 54.9613C66.2626 55.2842 66.5354 54.9365 66.7169 55.1481C66.8984 55.3586 67.2524 55.4963 67.5236 55.175C67.7437 54.9138 68.5045 55.0985 68.8749 55.1808C69.3598 54.7756 69.774 53.9915 70.1888 53.9398C70.7391 53.8707 72.1321 53.8174 72.1753 54.478C72.2181 55.1391 73.1077 54.4046 73.1541 55.0267C73.1931 55.5544 73.7308 55.9105 73.6195 56.206C73.7762 56.2809 73.9714 56.3817 74.1466 56.4941C74.422 56.378 75.1375 56.4007 75.6066 56.5036C76.1933 56.6323 77.1167 56.0952 77.3784 56.7342C77.6396 57.3737 78.3086 57.8042 77.6522 57.9235C77.0929 58.0258 76.4049 57.3948 76.426 57.7863C76.4466 58.1778 76.1152 58.0184 76.0825 58.6131C76.0498 59.2077 75.5775 60.09 75.3232 60.0794C75.3137 60.0789 75.3069 60.0747 75.299 60.0725C75.2436 60.3026 75.2251 60.596 75.4182 60.7564C75.7554 60.4994 76.2429 60.0683 76.6434 60.0483C77.2839 60.015 77.437 60.3538 77.8807 60.0282C78.3244 59.7021 78.4163 59.5744 78.4922 59.7628C78.5017 59.7871 78.4917 59.8188 78.4727 59.8536C78.6405 59.7549 78.7603 59.6642 78.7714 59.5998C78.7888 59.4985 78.7661 59.3676 78.735 59.251C78.3012 59.3565 78.1598 59.4014 78.0554 59.1397C77.9044 58.7624 79.385 58.2036 80.0694 58.2089C80.7178 58.2131 81.2001 57.7414 81.4154 57.9768C81.8486 57.5895 82.5857 56.9537 82.7656 56.9352C83.0226 56.9062 86.1093 56.5632 86.1108 56.5648C86.1103 56.5648 87.212 55.8498 87.3867 55.2805C87.5608 54.7112 88.329 53.3214 88.7179 53.5731C89.1068 53.8237 89.9874 53.5287 90.0017 53.7905C90.0154 54.0321 89.6487 54.9592 90.6961 56.1997C91.1002 55.9358 91.5155 55.7211 91.7466 55.7111C92.1381 55.6942 92.7512 55.1639 92.9412 54.85C93.1311 54.5365 93.3411 55.0906 92.9871 55.2214C92.633 55.3528 93.2535 55.5327 93.8661 55.4583C94.4787 55.3839 93.5717 55.682 93.1148 55.7042C92.6573 55.7258 92.4578 55.8034 91.8194 56.4165C91.181 57.0291 91.3255 57.1742 91.6606 57.4206C91.9962 57.667 92.46 57.5056 92.9591 57.084C93.4577 56.6624 93.4551 56.2867 93.9347 56.2635C94.4143 56.2398 95.6817 55.7121 96.2368 55.5063C96.7919 55.2995 96.4452 55.2504 96.4563 55.032C96.4669 54.8135 97.4309 54.7302 97.7928 54.4822C98.1521 54.2321 97.7448 54.088 97.4361 54.1545ZM44.4546 35.8475C43.8616 36.5619 43.6759 36.6833 43.1377 36.6859C42.6 36.6891 42.2386 37.0062 42.4934 37.1418C42.7493 37.2774 42.7504 37.4272 42.1774 37.6462C41.6038 37.8657 41.197 38.3422 40.9775 38.3358C40.7569 38.3295 42.0191 37.3128 41.7352 37.1534C41.4508 36.9935 40.643 37.7048 40.6029 37.967C40.5628 38.2287 40.0652 38.3322 39.7639 38.3701C39.4616 38.4087 39.0885 38.2055 39.3946 38.1211C39.7011 38.0367 39.5233 37.7528 39.9533 37.5275C40.3828 37.3011 39.909 37.1608 40.0536 36.9703C40.1976 36.7793 41.0128 36.9661 41.0588 36.6585C41.1041 36.3509 40.2641 36.2443 39.9592 36.478C39.6542 36.7118 38.9419 37.2574 38.1778 37.0658C37.9356 37.0051 40.2188 36.3704 40.6377 35.9688C41.0535 35.5657 42.8248 34.8845 42.9245 35.1668C43.0226 35.4486 41.9431 35.8301 42.4301 36.0148C42.9166 36.2 43.7719 35.8733 43.9935 35.552C44.214 35.2307 45.0482 35.1341 44.4546 35.8475ZM49.0161 41.1698C48.336 41.7935 48.3977 41.6479 47.8384 41.8294C47.2791 42.0114 47.6706 42.4625 47.0026 42.6171C46.3346 42.7723 44.7332 43.101 44.5391 42.786C44.4736 42.681 45.4118 42.6082 45.4994 42.3375C45.587 42.0652 45.8819 41.6077 46.2856 41.5407C46.6897 41.4737 46.7024 40.9741 46.0682 40.7767C45.434 40.5804 47.067 40.1119 47.3952 40.5419C47.7229 40.9714 48.356 41.2157 48.7607 40.8031C49.1638 40.3884 51.3879 39.0693 51.3462 39.5294C51.3034 39.9884 49.6952 40.5456 49.0161 41.1698ZM62.2683 53.1763C61.8077 53.286 62.3881 52.0318 61.5835 51.7158C60.6374 51.3443 60.2696 50.4642 60.3071 49.9561C60.3446 49.4474 61.1956 49.096 61.5006 49.4406C61.8045 49.7846 62.1897 51.3211 62.4467 51.7912C62.7031 52.2608 62.6467 53.0855 62.2683 53.1763Z" fill="#DAF0F2"/>
<path d="M31.7711 53.2919C31.9267 52.9304 31.9668 52.7183 31.0012 52.521C30.0367 52.3247 30.1602 52.0461 29.5697 50.9914C28.9798 49.9377 27.7979 49.6649 27.8312 49.228C27.8639 48.7895 26.6672 49.0802 26.6429 49.4142C26.6176 49.7498 26.0926 49.9567 25.7955 50.1941C25.4985 50.4315 25.3898 50.1751 25.1571 49.8933C24.9239 49.6121 24.3308 49.4047 24.3461 49.199C24.3614 48.9937 24.2395 48.5885 23.7873 48.8845C23.3357 49.181 23.1199 49.0233 22.98 49.2042C22.8407 49.3852 22.5257 49.2064 22.5263 49.2064C22.8513 44.7689 23.2085 40.3457 23.6016 35.9483C23.4475 35.9647 23.3103 35.9684 23.2069 35.951C22.6619 35.8591 21.8614 35.6534 21.4082 35.8438C20.9544 36.0338 20.0569 36.3393 19.7614 36.2538C19.4665 36.1678 19.0533 36.1261 18.4117 36.3604C17.7706 36.5952 17.4039 36.2449 16.6162 36.2332C15.8279 36.2211 14.6855 36.7245 14.4127 36.8807C14.1394 37.0368 14.226 36.6416 13.8814 36.7582C13.5369 36.8749 13.817 36.6232 13.6498 36.3805C13.482 36.1377 12.5143 36.6237 12.1724 36.7414C11.8299 36.859 11.7513 36.6712 11.783 36.495C11.8146 36.3182 11.4896 36.4512 11.3408 36.7113C11.192 36.9714 10.8132 37.098 10.6739 36.9814C10.5346 36.8643 11.0089 36.6955 11.0406 36.5198C11.0722 36.3435 10.571 36.3683 10.3874 36.3557C10.2037 36.343 9.88452 36.6627 9.46557 37.1197C9.04663 37.5761 8.47097 37.6779 8.11956 37.7259C7.76815 37.774 7.31702 37.9592 7.32124 38.1649C7.32599 38.3702 7.75444 38.2467 7.47637 38.5776C7.19883 38.9084 7.14818 38.3016 6.86905 38.6514C6.59046 39.0013 5.81536 39.1748 5.63332 39.1828C5.45181 39.1901 4.80123 40.0296 4.606 40.2671C4.41078 40.5045 4.73 40.5931 4.20183 41.2717C3.67366 41.9502 2.37039 42.1718 2.09865 42.2431C1.82639 42.3133 2.0079 42.586 1.85066 42.834C1.69448 43.0815 1.99049 43.1918 2.72285 43.2097C3.45574 43.2277 3.90582 44.1294 3.9818 44.3547C4.05778 44.5795 5.00384 44.0772 5.36686 44.0429C5.72935 44.0086 5.29405 44.6444 5.59586 44.7193C5.89714 44.7942 6.3889 44.446 6.46383 44.6913C6.53875 44.9362 5.83963 44.8459 5.45709 45.2242C5.07402 45.602 4.88407 45.7825 4.7511 45.6084C4.61761 45.4348 4.00871 45.7202 3.69846 45.8379C3.38768 45.9545 3.70374 45.4411 3.73276 45.2454C3.7623 45.0496 3.3328 45.0269 2.71494 45.544C2.09812 46.06 2.32237 45.8711 2.23426 46.1756C2.14667 46.4811 1.91873 46.088 1.52775 46.4341C1.13571 46.7803 0.517313 47.1127 0.397011 47.3886C0.276181 47.6641 1.18056 47.5965 1.53619 47.5796C1.89129 47.5622 1.08769 48.016 1.36998 48.0366C1.65227 48.0572 1.51086 48.3764 1.94669 48.5078C2.38147 48.6397 3.40615 48.1321 3.67841 48.0635C3.95014 47.9944 4.18389 48.274 4.41605 47.9706C4.64769 47.6672 5.50774 46.7734 5.90453 47.0705C6.30026 47.3675 5.42754 47.5279 5.63174 47.7221C5.83593 47.9163 6.0739 48.4407 5.65495 48.8465C5.23653 49.2523 4.86771 49.1378 4.65085 49.1731C4.43452 49.2095 4.53583 49.6163 4.17597 49.9899C3.81665 50.3635 3.59663 49.8358 3.16343 49.9461C2.73129 50.0564 2.78881 50.6252 2.79092 50.9069C2.79303 51.1887 2.1472 51.0156 1.94986 51.7448C1.75199 52.4735 1.10458 52.0577 1.51561 52.6096C1.92717 53.1621 1.87757 52.7611 2.22159 52.9362C2.56509 53.1114 1.7884 53.7821 2.14192 53.7662C2.49544 53.7509 2.85265 54.3377 3.09062 54.5223C3.32858 54.707 3.67208 54.2432 4.05145 54.1287C4.43083 54.0147 4.2815 53.5056 4.48623 53.6618C4.69148 53.8174 4.96427 54.3524 4.75743 54.5556C4.5506 54.7577 4.6862 55.1951 4.63766 55.4336C4.58859 55.6715 5.4592 55.3803 5.52885 55.099C5.59797 54.8178 6.29076 54.5709 6.64797 54.9181C7.00413 55.2658 7.1276 55.3112 7.14712 54.9666C7.16664 54.6215 7.517 54.1588 7.51858 54.4416C7.52016 54.7244 7.82514 54.7255 8.40765 54.3213C8.99123 53.9166 8.71738 54.2664 8.40238 54.7191C7.9676 55.346 8.3264 56.0224 8.03039 56.1691C7.73386 56.3158 7.45262 57.159 6.97669 57.331C6.50076 57.503 5.6539 58.6358 5.53782 58.8152C5.42068 58.9946 4.43716 58.7841 4.27095 59.2595C4.10369 59.7349 3.48054 60.2129 3.63039 60.3433C3.73117 60.4314 4.57909 59.7871 4.62816 59.5481C4.67618 59.3102 4.78223 59.3218 4.91678 59.4584C5.05133 59.5951 5.4249 59.2584 5.59586 59.0653C5.76681 58.8727 6.03433 58.8638 6.19631 58.8432C6.3583 58.8226 6.44272 58.5757 6.93817 58.3609C7.43363 58.1472 7.33338 58.0201 7.45737 57.7256C7.58084 57.4307 8.78123 56.5759 9.00494 56.4667C9.22814 56.3569 9.12208 56.004 9.36163 55.9274C9.60118 55.852 9.98636 55.4578 10.3151 55.1159C10.6443 54.774 10.7113 54.8716 10.9567 54.7191C11.2026 54.5672 11.048 54.1113 11.2907 54.0169C11.5334 53.9229 11.7302 53.6876 11.7434 53.476C11.7561 53.265 11.1456 53.4074 11.0986 53.2866C11.0511 53.1652 11.6189 52.5405 11.822 52.512C12.0246 52.4846 12.3734 52.1759 12.4114 51.8646C12.4499 51.5533 12.7512 51.4267 13.0103 51.1022C13.2699 50.7771 13.2292 50.5603 13.473 50.4848C13.7173 50.4099 13.9642 50.0131 14.2365 49.7994C14.5093 49.5857 14.2233 49.991 14.7283 49.896C15.2337 49.8 15.0886 50.3054 14.7251 50.2184C14.3621 50.1303 14.1922 50.1883 13.8339 50.5914C13.4762 50.9951 13.7316 51.0315 13.4461 51.4562C13.1617 51.8804 13.1279 52.1147 13.4609 52.0767C13.7943 52.0382 13.4609 52.3601 13.138 52.5289C12.8156 52.6972 13.0266 52.8386 13.4545 52.74C13.883 52.6418 14.5589 51.8636 15.1799 51.4198C15.8004 50.9776 16.2326 51.184 16.4056 51.0885C16.5792 50.9935 16.2405 50.7851 16.4542 50.6426C16.6679 50.5001 16.2194 50.5429 16.1128 50.2078C16.0057 49.8722 16.3291 50.0268 16.4241 49.7219C16.5191 49.4169 16.7191 49.4855 16.8985 49.5783C17.0778 49.6712 17.3612 49.343 17.5063 49.6712C17.6514 49.9989 17.8725 49.496 18.1585 49.6791C18.4444 49.8627 18.0867 49.9034 17.7596 50.0511C17.4324 50.1988 17.5722 50.6041 17.8329 50.3381C18.0936 50.0717 18.3115 49.8923 18.5246 50.0543C18.7373 50.2163 18.8391 50.0991 19.0428 49.8654C19.2465 49.6322 19.2317 49.8432 19.2206 49.9973C19.21 50.1514 19.6047 50.1223 20.1698 50.096C20.7344 50.069 21.777 49.715 22.0472 49.6395C22.3173 49.5641 22.1907 50.0073 22.7769 49.9983C23.3636 49.9899 23.5705 49.2449 23.8601 49.4317C24.1503 49.6179 23.8348 49.7783 23.6475 50.0073C23.4602 50.2358 23.8243 50.1793 24.0485 50.2284C24.2728 50.2769 24.8015 50.3202 25.0347 50.5197C25.2674 50.7196 25.4024 50.9576 25.9992 51.1412C26.5965 51.3254 26.0752 50.3651 26.5342 50.6152C26.9933 50.8653 26.8429 50.5724 27.2059 50.842C27.5689 51.1127 27.4697 50.6368 27.3378 50.0928C27.2059 49.5483 27.5272 49.8643 27.6824 50.1002C27.8375 50.3355 27.7985 50.8573 27.6565 51.2283C27.5141 51.5992 26.9526 51.4256 27.0249 51.2209C27.0972 51.0156 26.4514 51.2214 26.4123 51.4958C26.3733 51.7702 26.7622 52.2065 27.0687 52.2028C27.3748 52.1991 27.1072 52.7289 27.2977 52.7479C27.5584 52.7748 27.5088 53.2782 27.6702 53.17C27.8306 53.0624 27.8153 52.474 27.6602 52.2382C27.5046 52.0018 27.6106 51.5992 27.8386 51.6309C28.0665 51.6615 27.8032 52.1142 27.9103 52.2266C28.0174 52.339 28.1731 52.0414 28.457 51.833C28.7414 51.624 28.3841 51.2557 28.4986 51.0046C28.6131 50.7534 28.8938 51.1175 28.9809 51.5C29.068 51.8836 28.6601 51.9453 28.6448 52.158C28.6295 52.3711 28.2665 52.3463 28.1409 52.4862C28.0158 52.6255 28.019 53.3879 28.1736 53.3763C28.3277 53.3647 28.4723 52.6877 28.5461 52.9975C28.62 53.3072 29.0442 52.4804 29.1197 52.7706C29.1946 53.0613 29.6383 53.3188 29.8198 53.2075C30.0014 53.0961 29.7708 52.8159 29.4985 52.8497C29.2263 52.8835 29.2975 52.4308 29.5529 52.3617C29.8082 52.2931 30.2103 52.864 30.1744 53.1003C30.1385 53.3362 29.9243 53.3589 29.6932 53.6333C29.4621 53.9071 29.2131 53.3441 28.9582 53.4132C28.7034 53.4818 28.9292 53.8195 29.0279 54.0675C29.1255 54.316 28.6712 54.7677 28.9878 54.9165C29.3043 55.0653 29.231 54.735 29.3006 54.5688C29.3698 54.4026 29.6104 54.5466 29.7766 54.6484C29.9317 54.7429 29.9934 54.3007 30.0056 54.1261C30.0177 53.952 30.3042 53.9915 30.4446 54.1947C30.5849 54.3968 30.6382 53.9087 30.8709 53.9024C31.1036 53.8966 30.9205 54.2944 30.9057 54.5076C30.891 54.7207 31.3294 54.2548 31.274 54.4949C31.2656 54.5313 31.264 54.5635 31.2656 54.5936C31.4935 54.3983 31.7304 54.1968 31.8988 54.057C32.3367 53.6939 31.6159 53.6517 31.7711 53.2919ZM0.0962555 63.0079C0.528393 62.7097 0.716233 62.4354 0.551082 62.2518C0.38593 62.0681 -0.236158 63.2379 0.0962555 63.0079ZM3.19773 60.5274C2.8115 60.4731 1.74777 61.4038 2.09971 61.369C2.34664 61.3442 2.46695 61.0503 2.75187 60.9786C3.0368 60.9068 3.58291 60.5818 3.19773 60.5274ZM12.6916 53.8063C12.7232 53.5911 12.4246 53.6786 12.0267 54.2063C11.6289 54.7339 11.3012 55.0373 11.2332 55.2616C11.1651 55.4858 10.7557 55.3349 10.6111 55.6335C10.466 55.9327 10.6507 56.4767 10.9213 56.224C11.191 55.9718 11.1978 56.1596 11.364 56.1211C11.5297 56.082 12.3206 55.3687 12.5048 55.0611C12.6879 54.754 12.2294 54.784 12.2214 54.6157C12.2135 54.4474 12.6214 54.353 12.833 54.191C13.044 54.0285 12.6599 54.0216 12.6916 53.8063ZM1.22963 54.3788C1.20958 54.0823 0.430252 54.5672 0.505177 54.8305C0.579047 55.0927 1.29083 55.0932 1.60689 54.9022C1.87915 54.7376 1.98468 54.4094 1.7979 54.2691C1.61217 54.1292 1.24968 54.6748 1.22963 54.3788ZM89.8179 55.0363C89.8036 54.7751 88.923 55.0695 88.5341 54.8189C88.1453 54.5677 87.377 55.9565 87.2029 56.5263C87.0283 57.0956 85.9265 57.8106 85.9271 57.8106C85.9255 57.809 82.8393 58.152 82.5818 58.181C82.4019 58.2 81.6648 58.8353 81.2316 59.2226C81.2437 59.2358 81.2548 59.25 81.2654 59.2669C81.5487 59.7502 80.4021 60.1876 79.3252 60.3443C78.9939 60.3923 78.7438 60.4504 78.5506 60.4968C78.5818 60.6134 78.6039 60.7443 78.5871 60.8456C78.576 60.91 78.4562 61.0007 78.2884 61.0994C78.108 61.4249 76.7609 62.1657 76.0085 62.6079C75.1743 63.0965 74.0736 63.0258 74.1042 62.4301C74.1354 61.8349 74.7268 61.885 74.8408 62.1483C74.8835 62.247 75.0318 62.1552 75.2344 62.0017C75.0408 61.8412 75.0598 61.5479 75.1152 61.3178C74.8751 61.2466 75.3046 60.3148 74.8165 60.2193C74.3126 60.1196 73.67 61.0218 73.7829 60.4963C73.8963 59.9713 74.6889 59.4458 74.2578 58.8274C73.8272 58.209 72.9751 58.3103 72.7751 58.8448C72.5751 59.3798 71.9931 59.2131 71.7583 59.6341C71.523 60.0557 71.2618 60.9527 71.3979 61.5663C71.5335 62.1805 71.304 62.523 70.6487 62.9567C69.9928 63.3904 69.7063 62.5288 70.0176 61.34C70.2308 60.5269 70.7405 59.718 70.3163 59.7703C69.8921 59.822 70.922 58.753 71.8269 58.448C72.7308 58.1425 73.8346 58.0908 73.8488 57.8533C73.8515 57.8059 73.8942 57.7689 73.9633 57.7388C73.7887 57.6264 73.5935 57.5251 73.4362 57.4507C73.4167 57.503 73.3792 57.5542 73.3128 57.6027C72.9487 57.8718 73.078 57.2772 72.44 57.3537C71.8016 57.4302 71.132 58.0602 70.6371 57.8861C70.1422 57.7114 70.416 57.3642 69.9496 57.4212C69.4837 57.4787 70.3395 56.5506 69.6398 56.9896C68.9402 57.4291 67.8728 58.4258 67.4327 58.0897C66.9921 57.7541 66.5394 58.3219 66.2213 58.0491C65.9031 57.7768 67.4744 56.7131 68.1909 56.6625C68.3672 56.6493 68.5329 56.5569 68.6917 56.4245C68.3213 56.3422 67.5609 56.1575 67.3404 56.4187C67.0692 56.74 66.7157 56.6023 66.5336 56.3918C66.3521 56.1807 66.0793 56.5284 65.7659 56.205C65.453 55.881 65.0995 56.1876 64.8985 56.292C64.6974 56.397 64.4584 56.2203 64.1033 56.1374C63.7482 56.0546 64.05 55.6763 63.7567 55.5069C63.4628 55.3391 63.4052 55.9475 63.4052 55.9475C54.7176 57.1558 46.2147 58.5113 37.9613 60.0008C37.9861 60.0372 38.0125 60.071 38.0421 60.0984C38.3212 60.3586 38.0674 60.6345 38.1439 60.9881C38.2204 61.3421 38.1086 61.8829 37.8099 61.9346C37.5118 61.9869 37.4917 61.6618 37.7181 61.5062C37.9445 61.3505 37.8516 60.9416 37.6326 60.9801C37.5049 61.0023 37.4627 60.8646 37.4786 60.6915C37.0659 60.8725 36.6032 60.9047 36.0645 60.9379C36.0719 60.959 36.0793 60.9796 36.0793 61.0039C36.0845 61.2345 36.1711 61.7394 36.4634 62.0935C36.7562 62.447 36.5225 62.7398 36.8111 62.8438C37.0997 62.9477 37.0691 63.1271 36.7937 63.1366C36.5183 63.1472 36.7013 63.3656 36.5684 63.9692C36.4349 64.5723 36.3863 65.7806 36.3067 66.1621C36.2265 66.5436 35.7579 67.2258 35.9948 67.572C36.2312 67.9181 36.3811 68.4347 36.2175 68.947C36.0539 69.4604 36.0587 69.7495 36.2581 70.0841C36.4576 70.4181 36.2481 71.0945 36.4792 71.19C36.7108 71.2865 36.9156 71.5235 37.1177 71.8379C37.3192 72.1535 37.5282 71.9044 37.5514 72.25C37.5746 72.5956 37.572 72.6542 37.8838 72.7376C38.1962 72.8215 37.9809 73.2072 37.9719 73.4029C37.9629 73.5981 38.365 73.8815 38.8641 74.2466C39.3633 74.6112 38.9085 75.0565 39.2878 74.9943C39.6672 74.932 40.0181 75.0887 40.389 75.2629C40.7594 75.437 40.8855 75.2803 41.1446 75.2972C41.4026 75.314 41.8622 75.7868 41.9477 76.144C41.9878 76.3113 42.0421 76.4865 42.1292 76.6701C42.8283 76.4711 43.529 76.2728 44.2313 76.0754C44.2313 76.0754 44.8618 76.4163 45.227 76.4442C45.5905 76.4706 47.5607 76.8838 47.5623 76.8853C48.4334 76.7487 49.3067 76.6131 50.1826 76.4791C50.2892 76.3382 50.3963 76.1968 50.5034 76.0559C50.9851 75.9862 51.4679 75.9166 51.9517 75.8475C51.9512 75.847 52.8424 76.5814 52.9733 76.6052C53.1036 76.6284 53.5521 76.964 53.5431 77.2183C53.5341 77.4716 53.6365 77.6673 53.8539 77.7422C54.0708 77.8172 54.8063 78.1786 54.9181 78.1211C55.03 78.0641 55.2791 77.2304 55.6769 77.1982C56.0742 77.1645 57.1511 77.3138 57.3094 77.8826C57.4672 78.4509 57.9848 78.8672 58.1594 78.9706C58.3336 79.074 58.2333 79.4455 58.361 79.6185C58.4887 79.7916 58.4554 80.1541 58.6111 80.134C58.7673 80.1135 59.5566 80.4754 59.9144 80.4084C60.021 80.3889 60.1603 80.4316 60.3032 80.4971C60.3671 79.7837 59.602 79.7631 60.0648 79.3795C60.5993 78.9358 60.0658 78.6883 60.3217 78.4973C60.5776 78.3068 61.0224 78.0915 61.0303 77.8536C61.0382 77.6156 61.2688 77.5861 61.6028 77.5834C61.9374 77.5802 62.5853 76.945 62.551 76.7323C62.5162 76.5192 62.6222 76.4669 63.019 76.4954C63.4158 76.525 63.3704 76.0163 63.6205 76.0649C63.8706 76.1124 64.0764 76.2258 64.1033 76.0438C64.1308 75.8623 64.3819 75.8712 64.5634 76.086C64.7449 76.3007 65.2916 76.2933 65.3433 76.01C65.3955 75.7267 65.7021 75.9657 65.9675 76.211C66.2329 76.4558 66.3627 76.3609 66.7637 76.3324C67.1652 76.3039 67.1684 76.2047 67.1979 75.9636C67.227 75.7224 67.6253 76.4268 68.0274 76.4194C68.4289 76.4121 68.1197 76.1704 67.8306 75.9873C67.5409 75.8042 67.9044 75.6612 67.6564 75.513C67.4085 75.3642 67.9883 75.0565 68.497 75.017C69.0056 74.9763 68.9803 75.0982 69.1813 74.7975C69.3824 74.4957 69.5639 74.7526 69.556 74.9911C69.5475 75.2301 70.3902 74.7553 70.8376 74.7036C71.285 74.6524 71.6781 74.9637 71.7124 75.1985C71.7472 75.4328 72.0422 75.5177 72.3709 75.2228C72.6996 74.9283 72.9877 74.597 73.2779 74.8428C73.5676 75.0887 73.8552 75.4343 74.2087 75.733C74.5622 76.0316 74.0129 76.5102 74.1981 76.7476C74.3833 76.9861 74.158 77.3687 74.5786 77.6014C74.9996 77.834 74.597 78.454 74.9379 78.4968C75.2793 78.5395 75.5447 79.008 75.5821 79.2027C75.6201 79.398 76.258 79.589 76.3098 79.2455C76.3615 78.902 76.7166 78.4662 76.7683 78.1422C76.82 77.8182 76.5514 76.7123 76.2834 76.3825C76.0153 76.0538 76.3615 75.9366 76.0306 75.5546C75.7003 75.1721 75.5098 74.4577 75.5521 73.8562C75.5937 73.2552 76.3805 72.1962 76.7567 71.8569C77.1329 71.5187 77.536 71.6343 77.6336 71.3055C77.7312 70.9774 78.1987 70.5299 78.4567 70.5025C78.7153 70.475 78.9928 70.5051 79.0461 70.2413C79.0994 69.9769 79.5426 69.6118 80.1067 69.4736C80.6712 69.3348 80.3583 69.0889 80.2169 68.8657C80.0755 68.642 80.3657 68.3729 80.467 68.5212C80.5683 68.67 80.9134 68.6536 81.135 68.4916C81.3566 68.3296 81.8695 67.8991 81.3946 67.9281C80.9198 67.9571 80.8195 67.7893 81.1044 67.6601C81.3894 67.5313 81.1714 67.0776 80.7847 67.0776C80.3979 67.0781 80.5351 66.8855 80.782 66.6407C81.029 66.3964 80.4618 66.0988 80.1895 65.9489C79.9172 65.7991 80.3736 65.6519 80.5916 65.5896C80.809 65.5273 80.6776 64.6282 80.7958 64.3982C80.9134 64.1681 81.2801 64.1296 81.1197 64.3639C80.9583 64.5987 80.7261 64.9802 80.9936 65.2498C81.2606 65.5194 81.3329 65.8292 81.2052 66.2998C81.078 66.7694 81.2986 66.6275 81.6484 65.9954C81.9983 65.3633 82.0647 64.8409 81.8516 64.8034C81.6379 64.7665 81.6869 64.166 81.9117 64.4204C82.1365 64.6742 82.2214 64.7058 82.605 64.3085C82.9886 63.9122 83.4071 63.2548 83.1754 63.1398C82.9438 63.0247 83.2968 62.8496 83.7284 62.8258C84.16 62.801 85.1039 62.448 85.1746 62.3225C85.4042 61.9119 83.6714 62.6528 83.682 62.4338C83.6925 62.2143 84.7852 61.885 85.2849 61.8159C85.7846 61.7463 85.5757 61.1527 85.7799 61.3896C85.984 61.627 86.3117 61.5542 86.6014 61.3674C86.8916 61.1806 86.6964 60.7438 86.375 60.6968C86.0532 60.6493 86.6273 60.3939 86.5275 60.2261C86.4278 60.0573 86.7892 59.3091 87.2055 59.1893C87.6218 59.0696 87.4388 58.8495 87.7865 58.8158C88.1342 58.782 88.2181 58.3984 88.5368 58.0908C88.8555 57.7826 89.2533 58.4564 89.7525 58.0137C89.9567 57.8322 90.231 57.6259 90.5112 57.4428C89.4654 56.205 89.8321 55.2774 89.8179 55.0363Z" fill="#DAF0F2"/>
<path d="M143.49 30.3928C144.061 30.3527 144.063 29.8118 144.296 29.8314C144.53 29.8503 144.921 29.4388 145.075 29.1845C145.228 28.9307 144.935 28.4875 144.585 28.4969C144.235 28.5064 143.979 28.2753 144.058 28.0991C144.136 27.9218 143.88 27.7044 143.9 27.5799C143.918 27.4549 143.463 27.5789 143.227 27.6358C142.992 27.6918 142.515 27.1699 142.294 27.276C142.071 27.382 142.222 27.639 142.159 27.7904C142.096 27.9419 141.581 27.6701 141.575 27.8453C141.569 28.02 141.349 28.0511 141.181 27.8696C141.012 27.6875 140.6 27.8126 140.609 27.9614C140.618 28.1107 140.434 27.992 140.105 27.8279C139.776 27.6643 139.412 28.05 139.434 28.2363C139.456 28.4231 139.308 28.4769 139.047 28.0738C138.787 27.6712 138.449 28.1308 138.585 28.3513C138.722 28.5708 138.653 28.8484 138.439 28.7428C138.224 28.6378 137.926 28.8352 137.787 29.0156C137.649 29.195 137.21 28.5228 137.552 28.3492C137.894 28.1746 136.524 27.5372 136.088 27.5541C135.652 27.5699 135.93 27.8342 136.213 28.0231C136.495 28.212 136.002 28.1804 135.85 28.011C135.697 27.8427 135.386 27.9909 135.199 28.2474C135.014 28.5038 134.716 28.6531 134.68 28.8294C134.642 29.0056 135.159 29.1734 135.618 28.994C136.077 28.8146 136.588 28.7708 136.814 28.9502C137.039 29.1291 136.38 29.2288 136.607 29.3707C136.834 29.5127 136.639 29.6451 136.086 29.6282C135.533 29.6108 134.856 29.7744 134.951 29.9342C135.046 30.0931 136.373 29.7427 136.381 29.9057C136.389 30.0688 136.363 30.3453 136.719 30.2076C137.074 30.0698 136.826 30.4297 136.999 30.4862C137.172 30.5431 137.116 30.8465 136.647 30.8893C136.178 30.9315 135.947 31.0207 136.139 31.1847C136.379 31.3905 136.897 31.2196 137.398 31.1019C137.899 30.9832 138.597 31.476 139.175 31.6591C139.753 31.8422 140.774 31.5319 140.901 31.2634C141.027 30.9943 141.814 31.0718 142.142 30.8734C142.472 30.6729 142.918 30.4339 143.49 30.3928Z" fill="#DAF0F2"/>
</g>
</svg>
