<svg width="82" height="106" viewBox="0 0 82 106" fill="none" xmlns="http://www.w3.org/2000/svg">
<g opacity="0.75">
<path d="M51.1609 67.2903C52.1668 66.6121 51.8912 66.2571 52.3372 65.4862C52.7849 64.7143 52.3646 64.4273 53.1506 63.7279C53.9365 63.0285 52.9563 62.647 53.9762 62.1834C54.9971 61.7188 54.8805 62.5075 54.0672 63.4577C53.2548 64.4088 53.117 64.6649 54.1979 63.9186C55.2797 63.1715 55.6471 62.1843 56.2335 61.0548C56.8207 59.927 57.2905 59.5535 57.8451 59.4608C58.3997 59.368 58.3564 58.2068 58.2522 57.3934C58.148 56.5792 57.8248 55.8383 58.2142 55.2784C58.6055 54.7194 58.1789 54.2346 58.7 54.2063C59.221 54.1781 59.9805 53.4707 60.7788 52.7289C61.578 51.9871 62.0981 51.8961 62.9547 51.7875C63.8105 51.6798 63.3186 51.4501 63.8749 51.2938C64.4304 51.1384 64.7916 50.6739 65.1572 50.3675C65.5219 50.061 67.0647 50.3039 67.9628 50.2597C68.8609 50.2147 69.4623 50.2509 69.4491 49.7723C69.4358 49.2936 69.8376 48.8892 70.3622 48.8644C70.8867 48.8397 71.1084 48.7019 71.0925 48.0617C71.0757 47.4215 71.2912 47.0267 71.7337 46.7167C72.1779 46.4068 72.2361 45.7621 72.3765 45.3373C72.517 44.9117 73.0115 45.1457 72.9974 44.5355C72.9832 43.9244 73.2314 43.2355 73.2208 42.7516C73.2102 42.2677 73.8134 42.3039 74.0686 41.9365C74.3247 41.5691 73.8266 41.1399 74.2196 40.1164C74.6143 39.0938 74.1825 38.171 74.1657 37.2614C74.1489 36.3518 74.1339 35.4051 74.5057 35.0942C74.8775 34.7834 74.6867 34.6288 74.383 34.5123C74.0801 34.3966 74.413 34.0204 74.677 34.0743C74.942 34.1272 75.2519 34.6032 75.7367 34.3198C76.2233 34.0354 76.6587 32.905 77.0596 31.9689C77.4623 31.032 78.1423 31.0346 78.6686 30.8147C79.195 30.5939 80.313 29.43 81.0142 27.7857C81.7145 26.1431 80.9426 24.5906 80.63 23.4797C80.3174 22.3687 79.9032 22.6169 79.1473 22.6858C78.3913 22.752 76.9528 22.6531 75.0497 20.954C73.1484 19.2549 71.3018 19.4792 70.0611 19.8413C68.8194 20.2043 67.5336 19.4413 66.7053 19.3203C65.876 19.1993 65.0936 20.1689 64.4949 20.4003C63.8944 20.6317 64.7881 19.5887 64.8216 18.9573C64.8543 18.325 62.5556 17.5541 60.8273 17.0569C59.0982 16.5579 58.3511 16.9023 58.3573 17.864C58.3635 18.8257 57.6809 17.6053 57.1634 18.6641C56.6467 19.723 55.6692 19.118 56.3032 18.7489C56.9364 18.3798 57.5307 17.5806 57.7515 16.9377C57.9714 16.2921 55.2744 15.9565 54.3419 16.3469C53.4084 16.7372 54.0151 17.895 53.2645 17.5753C52.5147 17.2574 53.1073 16.3239 53.7051 16.3195C54.303 16.3169 54.9706 15.1794 55.3786 14.3555C55.7875 13.5324 54.6642 13.4671 53.9886 12.8436C53.321 12.2281 53.4535 10.2959 52.7717 10.0353C52.0405 10.7268 51.0611 11.7998 50.7874 12.5566C50.4359 13.5263 49.9802 13.014 49.0221 13.3479C48.0648 13.6817 47.6091 13.3505 47.3565 13.0079C47.1031 12.6626 46.1467 13.0891 45.4923 13.0882C44.8379 13.0882 45.2433 13.8256 44.7911 14.0817C44.339 14.3369 43.1794 13.7426 42.7785 14.1753C42.3785 14.6072 42.1259 14.2212 41.9263 14.5939C41.7267 14.9683 41.0229 14.7935 40.8233 15.0319C40.6238 15.2704 39.9217 15.4541 39.0147 14.6222C38.1078 13.7903 38.2535 12.2952 38.6544 11.995C39.0545 11.6965 39.0527 10.9308 38.5017 10.7454C37.9497 10.5626 38.5008 9.57437 37.7987 9.5364C37.0975 9.49931 37.1982 10.302 36.7478 10.4698C36.2966 10.6385 35.1971 11.3962 34.6964 11.345C34.1965 11.2929 33.5466 11.5225 33.5475 12.0161C33.5484 12.5116 32.9999 12.418 32.8984 12.0214C32.7977 11.6258 31.7504 11.9305 31.4501 11.6841C31.1507 11.4368 29.7545 11.6823 30.3533 11.9499C30.952 12.2175 31.0024 12.5283 31.0041 13.022C31.005 13.5156 31.4545 13.347 31.4563 13.9298C31.4589 14.5127 31.9561 14.0702 32.3049 14.0437C32.6546 14.0164 32.6564 14.5559 32.108 14.6875C31.5596 14.82 31.3115 15.107 31.164 15.568C31.0165 16.0281 30.5167 15.7525 30.0698 16.1455C29.623 16.5403 29.2264 16.9288 28.9271 16.7734C28.6277 16.6189 28.3796 16.7725 28.0325 16.9783C27.6854 17.184 27.5344 17.018 27.0355 16.7001C26.6619 16.4626 26.4244 15.8338 25.7629 15.2969C25.3708 15.4964 24.5743 15.8205 24.146 15.8559C23.5667 15.9036 21.7501 15.9353 21.653 16.2285C21.5558 16.5191 21.789 16.9765 22.0866 17.011C22.3842 17.0463 23.0121 17.1584 22.4213 17.5947C21.8287 18.0301 21.298 17.5541 21.3041 18.491C21.3103 19.428 22.6491 19.9261 22.3798 20.8127C22.2402 21.2693 22.0557 22.427 22.061 22.865C22.0654 23.3022 21.8888 24.807 21.4507 24.9297C21.0127 25.0551 20.6171 24.6498 20.0378 25.1355C19.4594 25.6194 18.7255 25.419 18.0517 25.9585C17.3779 26.4964 16.6467 26.3833 16.6052 26.9547C16.5645 27.5269 15.9384 27.8855 16.0921 28.3959C16.2457 28.9072 15.8068 28.8127 15.3759 29.2419C14.9458 29.6711 15.4342 29.8901 15.1489 30.2204C14.8628 30.5498 15.2593 30.994 15.6081 31.4426C15.9561 31.8921 16.3517 32.2065 16.312 32.6445C16.2705 33.0825 16.6626 33.2238 17.1474 33.139C17.6322 33.0551 17.2604 33.955 18.0384 33.8906C18.8164 33.8261 19.5971 33.9365 19.7843 33.5303C19.9716 33.124 20.5014 32.7761 20.512 33.3413C20.5226 33.9047 20.4087 35.4333 20.9403 35.2161C21.4728 34.9989 22.5458 34.9565 23.0871 35.088C23.6267 35.2187 24.1592 35.0033 24.4957 34.673C24.8313 34.3418 25.2216 34.3127 25.898 33.9126C26.5754 33.5126 27.2033 33.0295 27.84 32.9801C28.4758 32.9315 29.547 32.5023 29.4084 32.9474C29.2697 33.3934 29.2044 35.0068 30.0071 35.7689C30.809 36.5337 31.2576 36.8039 31.9914 36.6635C32.7253 36.5231 32.6361 36.8772 33.1748 36.7951C33.7144 36.7121 33.3832 37.2993 33.8751 37.2631C34.3661 37.2278 35.2527 37.2517 35.2633 37.7268C35.2739 38.2019 36.7408 37.7109 37.0922 37.9449C37.4428 38.1798 37.8411 38.3688 37.7563 38.8933C37.6698 39.4179 38.5176 39.7482 38.0301 39.9981C37.5426 40.248 38.1944 40.6339 38.2579 41.1903C38.3206 41.7466 39.0156 41.9135 40.0992 41.7979C41.1828 41.6831 41.4812 41.7493 41.4998 42.4381C41.5183 43.1243 42.2601 43.1622 42.5242 43.7892C42.7891 44.4171 42.2672 45.1793 42.3811 45.6862C42.4686 46.0756 42.2063 46.5092 41.9025 46.7026C42.2955 47.0965 42.3326 47.2828 41.997 47.4682C41.5537 47.7129 42.5737 48.2551 42.3538 49.2212C42.1356 50.1882 42.0915 50.3622 43.2439 50.3322C44.3964 50.3012 44.3063 50.6094 44.6993 50.3675C45.0931 50.1273 45.7246 51.0377 45.8915 51.5031C46.0584 51.9659 46.5476 53.0539 46.7481 53.0415C46.9494 53.0291 47.5323 52.4763 48.1434 52.698C48.7103 52.9046 48.071 54.5587 48.0763 55.2634C48.494 55.2254 49.0053 55.1954 49.1766 55.2581C49.4813 55.3685 49.6959 57.0843 49.559 57.412C49.4203 57.7396 48.1937 58.0999 47.5711 58.4894C46.9476 58.8797 45.4632 60.2123 44.7955 61.2385C44.399 61.846 43.8073 62.3644 43.3932 62.8112C43.5998 62.8227 43.7729 62.8042 43.8886 62.7538C44.2189 62.6064 44.7417 62.5728 45.328 63.1053C45.9135 63.6387 45.8968 64.082 46.1193 64.037C46.3427 63.9911 46.5714 63.251 47.0448 63.7588C47.5173 64.2675 48.6953 64.6057 48.9691 64.8424C49.2428 65.0773 50.1109 65.215 50.1418 65.873C50.1639 66.3454 49.9405 67.2497 50.4165 67.9765C50.6143 67.7407 50.8448 67.5032 51.1609 67.2903Z" fill="#F6F6F6"/>
<path d="M50.1365 65.8776C50.1064 65.2197 49.2375 65.0819 48.9637 64.847C48.6899 64.6103 47.5128 64.2721 47.0394 63.7634C46.567 63.2557 46.3374 63.9957 46.1139 64.0416C45.8914 64.0867 45.9082 63.6433 45.3227 63.1099C44.7363 62.5774 44.2135 62.6101 43.8832 62.7585C43.7675 62.8088 43.5944 62.8274 43.3878 62.8159C43.1034 63.1232 42.9003 63.3978 42.9109 63.6425C42.9383 64.2412 42.4464 64.9344 42.4641 66.0674C42.48 67.1978 42.0994 67.0336 42.1055 67.9114C42.1126 68.7874 42.4764 68.6081 42.6319 68.7238C42.7184 68.7865 42.6319 69.0718 42.5383 69.3128C42.7007 69.4188 42.8659 69.5901 43.2077 69.5372C43.8664 69.4338 44.5394 69.6078 45.3651 69.8648C46.1908 70.1209 45.8755 69.7403 46.6535 69.7853C47.4315 69.8303 48.319 69.8374 49.1456 69.357C49.7117 69.0276 49.9784 68.5004 50.4093 67.982C49.9351 67.2543 50.1577 66.3491 50.1365 65.8776Z" fill="#F6F6F6"/>
<path d="M31.9469 103.86C31.0408 103.902 29.1457 102.745 28.5717 102.448C27.9976 102.153 28.3624 101.781 27.7203 101.917C27.0783 102.052 27.4651 101.537 27.8131 101.367C28.1327 101.21 27.6258 100.763 27.1772 100.718C27.1984 101.491 27.3282 104.901 27.5941 104.908C27.8599 104.92 29.755 104.562 30.3476 104.805C30.5701 104.842 30.881 104.955 31.0876 104.745C31.4188 104.411 32.5182 104.494 33.0702 104.172C33.6203 103.847 32.8529 103.82 31.9469 103.86ZM49.1779 55.2598C49.0066 55.1971 48.4953 55.2281 48.0776 55.2652C48.0785 55.319 48.0811 55.3676 48.09 55.41C48.2127 56.0025 47.8197 57.5647 47.319 57.5515C46.8174 57.5409 46.4421 58.2456 46.0394 58.1856C45.6358 58.1264 45.1095 58.7552 44.599 58.5309C44.0886 58.3074 43.4042 58.6925 42.9953 58.5044C42.5865 58.318 41.4455 58.5618 41.4358 58.3074C41.4252 58.0513 41.978 58.1026 41.9471 57.3343C41.9162 56.5677 43.3821 55.6166 43.1711 55.3305C42.96 55.0426 40.3875 54.5657 40.0246 54.2037C39.6608 53.8407 39.1494 53.5299 38.1489 53.5122C37.1483 53.4936 37.1828 53.0618 36.2688 52.6494C35.5058 52.3068 34.3056 51.3353 33.8923 50.7728C33.2839 50.7604 32.4211 50.711 32.2559 50.9009C32.0202 51.1737 31.6713 52.3862 31.3075 51.8184C30.9428 51.2506 30.1118 51.3106 29.3762 51.2779C28.6405 51.2479 28.6688 50.6501 27.912 51.429C27.5764 51.776 27.1357 52.1248 26.7348 52.3854C26.7118 53.0733 26.597 53.8522 26.461 54.0818C26.2738 54.3971 24.6675 55.1618 24.6321 55.5071C24.5959 55.8524 24.8626 56.3037 24.5756 56.5395C24.2877 56.7752 25.3209 57.7652 24.7884 58.0628C24.255 58.3587 25.2132 58.7137 24.8785 58.9954C24.5438 59.2753 23.908 59.4519 23.9212 59.7487C23.9345 60.0463 23.9177 60.7704 23.4815 60.9735C23.0443 61.1766 22.7785 61.8337 22.8006 62.2991C22.8227 62.7636 22.1179 62.5207 22.3935 63.0929C22.6681 63.6661 22.9993 64.3593 22.4641 64.5262C21.9272 64.6949 22.1241 65.6504 21.8283 65.6734C21.5325 65.6963 21.4371 66.7146 21.9069 67.1826C22.3767 67.6506 22.4986 68.0613 22.5233 68.5223C22.548 68.9806 23.1521 69.1855 22.9825 69.7021C22.8138 70.2169 22.9383 70.6673 22.6045 70.9004C22.2716 71.1345 22.6028 71.735 22.1692 71.9354C21.7364 72.1359 22.601 73.3996 22.2716 73.6743C21.9422 73.9489 21.0697 74.2245 21.1253 75.1314C21.181 76.0375 21.3806 76.5364 21.2878 76.9373C21.2101 77.2729 21.7947 77.144 21.7311 77.6862C21.6667 78.2249 20.8595 77.96 20.8321 78.2902C20.8048 78.6214 21.0935 79.2581 20.8012 79.3208C20.5098 79.3844 20.3782 79.6405 20.4162 80.2128C20.4551 80.7824 20.0683 80.8945 20.0391 81.1833C20.0091 81.4712 20.4241 81.7661 20.4471 82.0902C20.4701 82.4152 20.7915 83.4891 20.4515 83.5562C20.1115 83.6242 20.0029 84.8517 20.3094 84.9886C20.6149 85.1254 20.6387 85.4487 20.5098 85.7012C20.3809 85.9538 21.2313 86.1286 20.8171 86.526C20.4038 86.9226 20.7889 87.357 21.3594 87.1689C21.8406 87.0109 22.1886 87.7068 21.6499 87.7491C21.1103 87.7915 20.5716 87.8348 21.0344 88.0803C21.4971 88.3249 21.9687 88.6896 21.3479 88.9387C20.7271 89.1895 21.294 89.5039 21.1845 89.9931C21.075 90.4823 21.6985 90.8718 21.2189 91.0299C20.7385 91.1871 21.4821 91.8458 20.8039 91.9801C20.1257 92.1134 20.6078 92.5921 20.191 92.9047C19.7733 93.2164 20.841 93.6068 20.3261 93.9247C19.8122 94.2426 20.2564 94.8405 19.7194 94.8837C19.1808 94.9279 18.9388 95.5407 18.9149 95.8189C18.8902 96.0962 18.597 96.6738 19.0712 97.027C19.5455 97.3811 19.0368 97.737 19.4413 97.8607C19.8466 97.9834 21.1448 97.6425 20.9911 98.1256C20.8383 98.6078 20.9805 99.6127 21.2242 99.5915C21.468 99.5721 21.6693 100.14 22.0561 100.068C22.4429 99.9969 24.1879 99.7019 24.9359 99.7973C25.3051 99.8459 25.6239 99.9925 25.8508 100.128C26.2562 99.9483 27.217 100.347 27.4104 100.169C27.6453 99.9501 26.4204 99.2992 26.4328 99.0396C26.4451 98.7791 26.189 98.3667 26.1634 98.0806C26.1378 97.7935 25.9003 97.1762 26.3816 96.8495C26.8628 96.5236 26.8743 96.2322 27.2046 96.2649C27.5349 96.2967 28.161 95.9593 28.138 95.2643C28.1151 94.5685 28.4913 94.2779 29.1748 93.7304C29.9193 93.1343 31.1918 92.5302 30.9913 92.3112C30.79 92.0922 31.2015 91.3001 31.1786 91.0078C31.1556 90.7155 29.9263 90.8647 29.5175 90.7773C29.1095 90.689 27.5932 89.9799 28.2343 88.838C28.8763 87.6953 30.3935 87.4639 30.828 87.4039C31.2616 87.3429 30.8244 86.8704 31.175 86.6665C31.5256 86.4625 31.5768 86.1631 31.5442 85.718C31.508 85.2155 31.4506 84.4128 32.1014 84.3068C32.7523 84.2008 32.9139 83.89 32.5067 83.83C32.0996 83.769 31.8912 83.3955 32.5421 83.2886C33.1929 83.1835 33.0101 83.7045 33.4835 83.671C33.9577 83.6374 34.7136 82.9265 34.0681 82.5821C33.4225 82.2368 33.2786 82.8179 32.9554 82.9C32.6313 82.9822 32.3478 82.5821 32.0202 82.606C31.6916 82.6298 31.8594 81.8668 31.6961 81.6081C31.5318 81.3493 31.2695 80.7055 31.5389 80.3541C31.8082 80.0035 33.1037 80.755 34.2014 80.74C35.3 80.7249 36.0692 80.1607 36.048 79.8286C36.0268 79.4992 35.4766 78.9314 36.1125 78.526C36.7474 78.1198 36.1919 78.0359 35.9791 77.5661C35.7663 77.0945 36.2237 76.7598 36.5302 76.9824C36.8375 77.204 38.9852 76.9082 40.7638 76.4896C42.5406 76.0692 43.7575 75.4458 43.8431 75.0148C43.9288 74.583 45.0123 73.5083 45.249 73.1259C45.4866 72.7444 45.242 72.2993 44.501 72.2543C43.761 72.2101 43.7592 71.5036 44.1434 71.0806C44.5275 70.6567 43.8829 70.3273 43.1808 70.3105C42.4796 70.2929 41.3563 69.9653 41.9551 69.4336C42.2438 69.1767 42.394 69.2155 42.545 69.3135C42.6377 69.0724 42.7251 68.7872 42.6386 68.7245C42.484 68.6088 42.1193 68.7889 42.1122 67.912C42.1052 67.0351 42.4876 67.1985 42.4708 66.0681C42.4522 64.9351 42.945 64.241 42.9176 63.6431C42.8903 63.0444 44.1284 62.2708 44.7969 61.2437C45.4645 60.2176 46.949 58.8841 47.5725 58.4946C48.195 58.1052 49.4217 57.744 49.5603 57.4173C49.6972 57.087 49.4826 55.3702 49.1779 55.2598Z" fill="#F6F6F6"/>
<path d="M22.0555 100.071C21.6687 100.143 21.4674 99.5742 21.2236 99.5945C20.979 99.6157 20.8369 98.6108 20.9905 98.1286C21.1442 97.6455 19.846 97.9864 19.4407 97.8637C19.0362 97.74 19.5449 97.3841 19.0706 97.03C18.5964 96.6768 18.8896 96.0992 18.9143 95.8219C18.9391 95.5438 19.1802 94.9309 19.7188 94.8867C20.2558 94.8435 19.8116 94.2456 20.3255 93.9277C20.8404 93.6089 19.7727 93.2194 20.1904 92.9077C20.6072 92.5951 20.1251 92.1173 20.8033 91.9831C21.4815 91.8497 20.7379 91.1901 21.2184 91.0329C21.6988 90.8748 21.0753 90.4862 21.1839 89.9961C21.2925 89.5069 20.7256 89.1907 21.3473 88.9417C21.9681 88.6926 21.4965 88.3279 21.0338 88.0833C20.571 87.8369 21.1097 87.7945 21.6493 87.7522C22.188 87.7098 21.8401 87.0139 21.3588 87.1719C20.7883 87.3592 20.4032 86.9247 20.8165 86.529C21.2298 86.1325 20.3803 85.9568 20.5092 85.7042C20.6381 85.4517 20.6143 85.1284 20.3088 84.9916C20.0023 84.8547 20.1101 83.6272 20.4509 83.5592C20.7909 83.4921 20.4686 82.4191 20.4465 82.0932C20.4236 81.77 20.0094 81.4742 20.0385 81.1863C20.0677 80.8975 20.4536 80.7854 20.4156 80.2158C20.3768 79.6444 20.5083 79.3874 20.8006 79.3238C21.0921 79.2602 20.8042 78.6253 20.8315 78.2933C20.8589 77.963 21.6661 78.2288 21.7306 77.6892C21.795 77.1479 21.2104 77.2759 21.2872 76.9403C21.38 76.5385 21.1804 76.0405 21.1247 75.1344C21.0691 74.2275 21.9425 73.9519 22.271 73.6773C22.6004 73.4026 21.7359 72.1389 22.1686 71.9384C22.6022 71.7371 22.271 71.1384 22.6039 70.9035C22.9377 70.6694 22.8123 70.2191 22.9819 69.7051C23.1515 69.1894 22.5474 68.9836 22.5227 68.5253C22.498 68.0652 22.3761 67.6545 21.9063 67.1856C21.4365 66.7176 21.5327 65.6993 21.8277 65.6764C22.1235 65.6543 21.9266 64.6979 22.4635 64.5292C22.9987 64.3623 22.6675 63.6691 22.3929 63.0959C22.1173 62.5237 22.8221 62.7674 22.8 62.3021C22.7779 61.8375 23.0446 61.1805 23.4809 60.9765C23.918 60.7743 23.9339 60.0493 23.9206 59.7517C23.9074 59.4549 24.5432 59.2783 24.8779 58.9984C25.2126 58.7167 24.2544 58.3625 24.7878 58.0658C25.3203 57.7691 24.2871 56.7783 24.575 56.5425C24.862 56.3067 24.5962 55.8554 24.6315 55.5101C24.6669 55.1639 26.2741 54.4001 26.4604 54.0848C26.5964 53.8552 26.7112 53.0754 26.7342 52.3884C26.2344 52.7133 25.7963 52.9014 25.7089 52.7425C25.5517 52.4564 25.7133 51.5529 25.2612 51.205C24.8082 50.8571 25.074 50.0702 24.6298 49.9351C24.1847 49.7982 23.623 49.0741 24.0036 48.7888C24.3843 48.5027 23.978 48.0232 24.311 47.7406C24.643 47.4598 24.1061 47.4562 23.6018 46.9829C23.0985 46.5087 23.7608 45.8154 23.1638 45.4754C22.5677 45.1363 22.5536 44.6656 22.4132 44.8908C22.2737 45.1178 22.2472 45.8472 21.7676 46.0989C21.6882 46.1404 21.5645 46.2331 21.417 46.355C21.4321 46.7082 21.3058 47.3158 21.4753 47.6514C21.7094 48.115 21.8983 50.4349 21.7129 51.3401C21.5266 52.2479 21.3349 52.9924 21.1371 53.5487C20.9393 54.1042 21.6696 54.0795 21.3879 54.355C21.1071 54.6305 21.2404 55.2558 21.2828 56.2643C21.3243 57.2754 20.7053 59.0257 20.6938 59.5609C20.6814 60.0969 20.224 60.4784 20.3246 61.0675C20.4253 61.6565 20.0412 62.0309 19.6544 62.3427C19.2676 62.6553 20.3662 63.4775 20.3547 63.9773C20.3423 64.4789 19.5899 64.7553 19.8125 65.5492C20.0906 66.5401 19.9546 68.2736 19.9741 68.6127C19.9926 68.9518 19.5184 68.958 19.6632 69.5965C19.808 70.235 19.2358 70.4345 19.1793 71.3635C19.1227 72.2934 18.3668 73.6737 18.0833 74.4014C17.7999 75.1291 17.8246 75.5247 17.3901 75.5592C16.9547 75.5945 16.8717 75.999 17.2356 76.58C17.6003 77.1611 17.0898 77.7201 17.565 78.2897C18.0392 78.8602 17.9076 79.0827 17.7292 79.6735C17.5508 80.2634 17.2629 80.3173 17.3 80.8587C17.3371 81.4 16.862 81.8919 17.1941 82.4668C17.5261 83.0434 17.4678 83.2581 17.1066 83.2881C16.7454 83.3172 16.598 83.8109 16.5256 84.807C16.454 85.8014 16.4876 85.7678 17.3513 85.638C18.214 85.5117 17.3548 83.2086 17.8988 83.1635C18.4419 83.1203 17.9429 82.7688 18.4781 82.6054C19.0124 82.4429 18.5796 83.0187 18.9488 83.0796C19.317 83.1406 19.5873 83.3596 19.0998 83.6687C18.6123 83.9787 19.2667 84.4661 19.0371 84.8132C18.8084 85.1611 18.4728 85.547 18.7183 85.9162C18.9638 86.2853 18.4913 86.2933 18.494 86.8002C18.4957 87.3071 18.8605 87.3071 18.6158 87.4457C18.3721 87.5843 18.9797 87.9217 18.6229 88.0109C18.2661 88.0992 18.5125 88.4648 18.7571 88.8022C19.0018 89.1377 18.2988 88.9867 17.9562 89.2525C17.6135 89.5175 18.3615 89.7824 18.1708 90.1242C17.98 90.465 17.3618 90.012 17.0951 89.8566C16.8276 89.7003 17.4501 89.294 17.7478 88.9134C18.0454 88.5337 17.3327 87.7883 16.8046 88.0091C16.2765 88.2308 17.3998 88.6441 17.4298 89.0282C17.4599 89.4115 16.5194 89.0141 16.5883 89.4239C16.6571 89.8336 15.9957 89.7391 15.6945 90.0615C15.3943 90.382 16.1732 90.5843 15.8191 90.7026C15.4649 90.82 14.8856 91.2828 14.8733 91.5786C14.8618 91.8754 15.2998 91.8974 15.2751 91.6042C15.2512 91.311 15.8208 91.1751 16.0328 91.5407C16.2447 91.9072 16.4664 91.5044 16.9786 91.5513C17.4917 91.5981 17.4696 92.2189 17.1782 92.2127C16.8876 92.2083 16.6324 92.641 16.741 93.0719C16.8505 93.5047 17.8237 92.9819 18.267 93.0649C18.7103 93.1452 18.6176 93.7687 18.3474 93.5859C18.0772 93.404 17.4696 93.0993 17.247 93.4711C17.0236 93.8411 16.6121 93.6998 16.2783 93.6098C15.9436 93.5197 14.8415 94.2297 15.2583 94.4293C15.6742 94.628 15.6716 95.0086 15.9215 94.9591C16.1705 94.9088 16.5547 94.7304 16.6792 94.4858C16.8037 94.2403 17.2885 93.9665 17.3698 94.4858C17.451 95.0068 16.7066 94.8046 16.5883 95.1066C16.469 95.4086 16.2006 95.6647 15.7917 95.9623C15.3819 96.2599 15.8535 96.6564 16.2006 96.4825C16.5485 96.3067 16.1237 96.8375 16.6333 96.8534C17.104 96.8684 17.225 96.5699 17.0916 96.29C16.9583 96.01 17.2621 95.3433 17.7239 95.625C18.184 95.9076 17.5632 96.2803 17.5888 96.569C17.6144 96.8578 17.3954 97.2552 17.4237 97.5705C17.4519 97.8866 16.968 97.7541 17.036 98.0968C17.104 98.4394 16.0372 98.2964 16.5273 98.488C17.0166 98.6779 16.2898 99.0585 16.5626 99.266C16.8364 99.4735 17.0024 98.9101 17.4095 98.9914C17.8166 99.0726 17.7531 99.1654 18.2414 98.9508C18.7298 98.7362 19.0636 99.1998 18.6061 99.3534C18.1478 99.5071 17.6833 99.9787 17.9058 100.018C18.1275 100.057 18.7077 99.6634 18.887 100.022C19.0662 100.381 19.4159 100.238 19.4142 99.8339C19.4124 99.4312 20.3105 99.7023 20.4863 100.033C20.6629 100.364 19.6358 100.65 19.0874 100.61C18.5381 100.569 18.2971 101.079 18.6927 101.418C19.0892 101.758 19.4857 101.352 19.8522 101.006C20.2187 100.66 22.1748 100.584 22.3514 100.915C22.528 101.244 21.455 101.045 21.3658 101.253C21.2757 101.461 20.4995 101.697 20.3697 101.479C20.239 101.26 19.5122 101.636 19.5122 102.009C19.5122 102.381 18.9355 102.429 19.5979 102.517C20.2602 102.603 20.0138 101.938 21.0285 101.911C22.0432 101.884 22.5086 101.045 22.8406 101.476C23.1727 101.907 22.09 102.366 21.6661 102.115C21.2422 101.864 20.8201 102.387 20.8978 102.807C20.9755 103.229 19.733 102.791 19.151 102.783C18.569 102.775 18.8684 103.236 19.4151 103.616C19.9608 103.997 20.2019 103.493 20.8457 103.752C21.4895 104.011 21.523 104.349 21.9239 104.004C22.3258 103.657 21.8957 103.722 21.5945 103.605C21.2916 103.487 21.4965 102.985 22.2065 103.183C22.9166 103.381 23.6628 102.837 23.3811 102.175C23.0985 101.513 23.8986 101.132 24.7075 100.838C25.5164 100.546 25.1446 101.232 24.5503 101.48C23.9551 101.727 23.8615 101.879 24.3684 102.238C24.8753 102.596 25.4263 101.895 25.8537 102.176C26.2803 102.455 25.1561 102.488 25.006 102.813C24.8558 103.138 25.7575 103.435 25.1667 103.71C24.5759 103.985 24.7508 102.805 24.379 102.722C24.0072 102.638 23.7069 102.919 24.1317 103.538C24.5565 104.156 23.7069 103.658 23.3157 103.377C22.9245 103.096 22.4644 103.589 22.9307 103.892C23.397 104.194 22.0988 103.931 22.1527 104.467C22.2065 105.002 22.7011 104.507 23.3616 104.566C24.0213 104.626 23.8067 105.38 24.3039 105.62C24.8011 105.862 24.2854 104.717 24.7817 104.591C25.278 104.467 24.9079 105.486 26.0542 105.675C27.2005 105.864 26.1099 105.501 26.5858 105.18C27.0627 104.86 27.824 105.927 28.3768 105.995C28.9287 106.064 28.5057 105.48 28.0756 105.174C27.6456 104.869 28.4589 105.004 29.0144 105.1C29.5698 105.198 30.0079 105.22 30.0856 104.904C30.1147 104.785 30.2154 104.78 30.3479 104.802C29.7553 104.56 27.8602 104.918 27.5943 104.905C27.3294 104.898 27.1996 101.506 27.1784 100.715C27.1387 100.712 27.0989 100.705 27.0609 100.708C26.5911 100.744 25.5517 100.913 25.6789 100.33C25.701 100.227 25.7637 100.163 25.8511 100.125C25.6233 99.9893 25.3053 99.8427 24.9362 99.795C24.1864 99.704 22.4423 99.999 22.0555 100.071Z" fill="#F6F6F6"/>
<path d="M48.1411 52.7017C47.5299 52.4801 46.9471 53.0329 46.7458 53.0453C46.5453 53.0576 46.056 51.9688 45.8891 51.5069C45.7222 51.0424 45.0908 50.131 44.697 50.3712C44.304 50.6132 44.3932 50.305 43.2416 50.3359C42.0892 50.3659 42.1333 50.192 42.3514 49.225C42.5713 48.2589 41.5522 47.7166 41.9947 47.472C42.3302 47.2874 42.2932 47.1002 41.9002 46.7064C41.8083 46.7647 41.713 46.8035 41.622 46.8097C41.2272 46.8353 40.7168 46.2692 40.028 46.3152C39.3374 46.3611 38.5991 46.3681 38.1134 46.6154C37.6277 46.8627 36.6855 46.6702 36.1061 47.0534C35.5268 47.4358 34.8142 48.2103 34.8742 48.5053C34.9325 48.8011 34.7488 50.645 34.4574 50.7501C34.37 50.7819 34.1501 50.7828 33.8887 50.7775C34.302 51.3391 35.5021 52.3114 36.2651 52.6541C37.1791 53.0656 37.1447 53.4974 38.1452 53.5168C39.1458 53.5345 39.658 53.8454 40.0209 54.2083C40.3839 54.5695 42.9564 55.0473 43.1674 55.3352C43.3785 55.6213 41.9125 56.5715 41.9434 57.3389C41.9743 58.1063 41.4215 58.056 41.4321 58.3121C41.4427 58.5664 42.5837 58.3218 42.9917 58.509C43.4006 58.6971 44.085 58.3121 44.5954 58.5355C45.1049 58.7598 45.6322 58.1311 46.0357 58.1902C46.4393 58.2512 46.8129 57.5456 47.3154 57.5562C47.817 57.5685 48.2091 56.0072 48.0863 55.4146C47.9644 54.8203 48.7513 52.9234 48.1411 52.7017Z" fill="#F6F6F6"/>
<path d="M8.47865 6.28482C7.90376 5.5439 6.85463 5.71169 6.20555 5.50946C5.55647 5.30723 4.72548 5.75407 3.89272 6.53385C3.06083 7.31186 2.01877 7.01779 1.30169 6.72637C1.08886 6.63982 0.791262 6.41023 0.472462 6.1241C0.20135 6.48794 0.168672 6.93125 0.220775 7.09816C0.276411 7.27655 0.111271 7.57944 0 7.94416C0.710897 7.95299 1.6355 8.14729 2.085 8.60032C2.6228 9.14254 2.94779 8.71246 3.271 9.20965C3.59422 9.70772 4.35192 9.13547 4.53296 8.78753C4.71487 8.4387 4.13822 8.36364 4.06757 8.00599C3.99692 7.64833 4.78995 7.7022 4.93566 7.19177C5.08137 6.68045 6.23735 6.33516 6.74336 6.48529C7.2485 6.63453 7.68033 6.92507 7.20875 7.46729C6.85728 7.87087 7.56906 8.46785 8.16427 8.93059C8.58374 8.49611 9.0668 8.00157 9.26727 7.84791C9.37677 7.76313 9.44565 7.58032 9.49422 7.35778C9.20721 7.26152 8.87693 6.79967 8.47865 6.28482Z" fill="#F6F6F6"/>
<path d="M9.5002 19.1508C9.95411 19.3504 10.597 19.2232 10.7471 19.0369C10.8973 18.8515 11.3141 19.1915 11.9252 19.7558C11.9517 19.7805 11.9738 19.8017 11.9994 19.8246C12.5072 19.6772 13.1483 19.5332 13.4088 19.6577C13.8662 19.8759 13.7603 20.8164 14.3882 20.812C15.0161 20.8075 15.4788 21.3365 15.4249 21.6509C15.3702 21.9662 16.1146 22.0562 16.0625 22.5252C16.0104 22.9941 17.7254 22.7433 17.9524 22.5693C18.1793 22.3936 18.6359 22.2532 18.9247 22.3839C19.2134 22.5137 19.7247 22.1613 20.0135 22.2399C20.3014 22.3203 21.453 22.6373 21.2269 23.017C21.0008 23.3977 20.2051 24.0309 20.3809 24.3267C20.5204 24.5589 21.1209 24.6605 21.37 24.9475C21.3973 24.944 21.4229 24.9431 21.4503 24.9351C21.8883 24.8124 22.065 23.3076 22.0605 22.8705C22.0561 22.4324 22.2398 21.2747 22.3793 20.8181C22.6487 19.9306 21.3108 19.4334 21.3037 18.4965C21.2975 17.5595 21.8283 18.0355 22.4208 17.6001C23.0125 17.1639 22.3838 17.0517 22.0862 17.0164C21.7885 16.9828 21.5563 16.5245 21.6526 16.2339C21.7497 15.9416 23.5662 15.909 24.1455 15.8613C24.7231 15.8136 25.9789 15.2343 25.9948 15.1583C26.0115 15.0833 26.1422 14.6982 25.6927 14.4209C25.245 14.1445 25.4093 13.6818 25.7554 13.295C26.1025 12.9073 25.5382 12.5947 25.1072 12.1973C24.6763 11.799 25.0057 10.1997 25.502 9.42523C25.9983 8.65075 24.4926 8.93954 23.568 9.12234C22.6434 9.30514 21.8512 9.04285 21.2578 8.40525C20.6652 7.76765 19.8563 8.27103 18.4416 8.42557C17.0269 8.58099 17.3095 7.10356 17.3775 6.54279C17.4446 5.98202 16.6569 5.97849 16.6586 5.61907C16.6604 5.25876 16.2497 5.29673 15.8877 5.35855C15.5265 5.42125 15.8894 4.9541 16.1385 4.64766C16.3857 4.33946 16.3707 4.11603 16.3902 3.51464C16.4113 2.91236 17.366 2.31715 17.8473 1.68661C17.9647 1.53472 18.1449 1.42699 18.3498 1.35104C18.4089 1.20533 18.5264 1.08345 18.7516 1.02252C19.4819 0.823823 19.851 0.357552 19.1604 0.0528823C18.4707 -0.251788 18.0601 0.852083 17.2936 1.02076C16.527 1.19031 16.3787 1.63628 15.8665 1.91623C15.3552 2.19529 14.4111 2.08401 14.3714 2.48671C14.3281 2.92649 14.0446 2.51673 13.6093 2.45756C13.173 2.39751 12.0418 3.40161 12.0744 3.89791C12.108 4.39245 12.2864 4.84106 11.4863 5.38064C10.6862 5.92021 10.2111 6.82803 9.84725 7.25987C9.73598 7.39233 9.61676 7.41354 9.49136 7.36938C9.44367 7.59192 9.37392 7.77383 9.26441 7.8595C9.06395 8.01227 8.58088 8.50769 8.16141 8.94218C8.36452 9.10113 8.55439 9.24332 8.68333 9.35812C9.18934 9.80762 8.8626 10.235 9.00743 10.4867C9.15226 10.7366 9.2962 11.1199 9.00743 11.3142C8.71777 11.5067 8.97211 13.3012 9.29885 13.6014C9.6256 13.9017 9.29973 14.2284 8.94031 14.9225C8.58 15.6167 8.25503 15.9434 7.60507 16.037C6.95422 16.1324 6.99483 17.0517 6.77759 17.072C6.60538 17.0888 6.48087 17.4332 6.45703 17.722C7.06637 18.1291 8.15965 18.5901 8.4758 18.5609C8.81667 18.5274 9.0454 18.9539 9.5002 19.1508Z" fill="#F6F6F6"/>
<path d="M42.5234 43.7881C42.2585 43.1602 41.5167 43.1231 41.499 42.4369C41.4805 41.7481 41.182 41.6828 40.0984 41.7967C39.0148 41.9124 38.3198 41.7455 38.2571 41.1891C38.1936 40.6327 37.5418 40.2468 38.0293 39.9969C38.5168 39.7479 37.669 39.4176 37.7555 38.8922C37.8412 38.3676 37.4429 38.1786 37.0914 37.9437C36.7409 37.7088 35.2731 38.2007 35.2625 37.7256C35.2519 37.2505 34.3653 37.2266 33.8743 37.2619C33.3833 37.2973 33.7145 36.7109 33.174 36.7939C32.6353 36.8751 32.7254 36.5219 31.9907 36.6623C31.2568 36.8027 30.8082 36.5325 30.0063 35.7677C29.2036 35.0056 29.2689 33.3931 29.4076 32.9462C29.5462 32.5012 28.475 32.9303 27.8392 32.9789C27.2025 33.0275 26.5755 33.5105 25.8973 33.9115C25.2199 34.3115 24.8305 34.3415 24.4949 34.6718C24.1584 35.0021 23.6259 35.2167 23.0863 35.0869C22.9353 35.0498 22.7419 35.0286 22.5318 35.0197C22.8329 35.6335 23.5517 36.6235 23.7151 36.9873C23.9218 37.4474 23.4846 37.6099 23.2939 37.7998C23.1022 37.987 23.4325 39.5165 23.4917 39.8574C23.5491 40.1983 22.8338 40.9003 23.1323 41.092C23.4307 41.2836 22.7667 41.9821 22.7773 42.3689C22.7879 42.7548 23.4219 42.7054 23.4308 43.0048C23.4387 43.3059 22.9221 44.0327 22.5874 44.2305C22.4108 44.3347 22.4152 44.5776 22.4664 44.8354C22.5671 44.7983 22.651 45.1816 23.1623 45.4721C23.7593 45.8121 23.0969 46.5054 23.6003 46.9796C24.1046 47.4529 24.6415 47.4556 24.3094 47.7373C23.9765 48.0199 24.3827 48.4994 24.0021 48.7855C23.6206 49.0708 24.1831 49.7949 24.6282 49.9318C25.0724 50.0678 24.8075 50.8546 25.2597 51.2017C25.7118 51.5496 25.5493 52.4539 25.7074 52.7392C25.8646 53.0235 27.1539 52.2067 27.9098 51.4287C28.6667 50.6507 28.6384 51.2476 29.374 51.2776C30.1105 51.3112 30.9415 51.2503 31.3054 51.8181C31.6701 52.3868 32.018 51.1734 32.2538 50.9006C32.4896 50.6286 34.1675 50.8502 34.4589 50.7451C34.7495 50.6409 34.934 48.7961 34.8757 48.5003C34.8157 48.2053 35.5292 47.4309 36.1077 47.0485C36.6861 46.6652 37.6284 46.8586 38.115 46.6105C38.5998 46.3632 39.3389 46.3561 40.0295 46.3102C40.7183 46.2643 41.2297 46.8303 41.6235 46.8047C42.0165 46.7791 42.4934 46.191 42.3803 45.685C42.2664 45.1781 42.7883 44.4159 42.5234 43.7881Z" fill="#F6F6F6"/>
<path d="M22.4153 44.8813C22.4347 44.8504 22.4533 44.8354 22.47 44.8292C22.4188 44.5713 22.4144 44.3285 22.591 44.2243C22.9266 44.0273 23.4432 43.2996 23.4344 42.9985C23.4265 42.6991 22.7924 42.7486 22.7809 42.3627C22.7703 41.9759 23.4344 41.2782 23.1359 41.0857C22.8374 40.8941 23.5527 40.1911 23.4953 39.8511C23.4371 39.5103 23.1059 37.9807 23.2975 37.7935C23.4883 37.6045 23.9245 37.4412 23.7188 36.9811C23.5554 36.6172 22.8365 35.6273 22.5354 35.0135C21.9905 34.9879 21.3282 35.0532 20.9432 35.2087C20.4115 35.4268 20.5255 33.8973 20.5149 33.3338C20.5034 32.7695 19.9744 33.1166 19.7872 33.5228C19.6 33.9299 18.8184 33.8187 18.0413 33.8831C17.2633 33.9485 17.6351 33.0486 17.1502 33.1316C16.6654 33.2164 16.2733 33.0751 16.3148 32.6371C16.3546 32.1991 15.9589 31.8856 15.611 31.4352C15.2631 30.9866 14.8665 30.5424 15.1518 30.213C15.4379 29.8827 14.9487 29.6637 15.3787 29.2345C15.8088 28.8053 16.2486 28.8989 16.0949 28.3885C15.9413 27.878 16.5674 27.5195 16.608 26.9473C16.6486 26.3759 17.3799 26.4889 18.0545 25.9511C18.7283 25.4115 19.4622 25.6129 20.0406 25.1281C20.5846 24.6706 20.9661 24.9947 21.3732 24.9347C21.1242 24.6477 20.5237 24.5461 20.3842 24.3138C20.2084 24.018 21.0041 23.3848 21.2302 23.0042C21.4563 22.6245 20.3047 22.3074 20.0168 22.2271C19.7289 22.1485 19.2167 22.5017 18.9279 22.371C18.64 22.2403 18.1826 22.3816 17.9556 22.5565C17.7287 22.7296 16.0128 22.9812 16.0658 22.5123C16.1179 22.0434 15.3734 21.9542 15.4282 21.638C15.4821 21.3237 15.0202 20.7956 14.3914 20.7991C13.7636 20.8035 13.8695 19.8639 13.4121 19.6449C13.1516 19.5204 12.5095 19.6652 12.0026 19.8118C12.5537 20.3213 12.7506 20.5377 12.3912 20.8335C11.9135 21.2248 12.3948 21.2451 11.4975 22.4214C10.6003 23.5994 9.05574 24.0109 8.30334 24.2865C7.55094 24.5602 7.26393 25.8504 6.86212 26.7759C6.45942 27.6997 6.11679 27.4241 5.69643 26.9517C5.27607 26.4792 4.9449 27.123 4.45036 26.7609C3.95671 26.398 4.1819 26.3768 4.44065 26.0103C4.58018 25.8134 4.41946 25.5361 4.11656 25.2808C3.5814 25.4327 3.04712 26.1569 2.78749 26.6956C2.50666 27.2784 3.31382 28.2807 3.42774 28.6622C3.54166 29.0429 2.9959 28.7355 2.92966 29.1003C2.86255 29.465 4.13246 29.8685 4.71619 30.2059C5.29903 30.5432 5.82359 31.6039 6.37553 32.0745C6.92659 32.5452 6.97163 32.9965 7.57478 34.2117C8.17794 35.425 9.38425 37.4597 10.2038 38.2942C11.0224 39.1296 11.4039 39.8087 11.2291 40.0825C11.0542 40.3563 11.2909 41.0469 11.8799 41.3506C12.4698 41.6544 12.9564 42.194 14.5018 42.7415C16.0455 43.2873 18.8873 44.3443 19.3085 44.9219C19.7271 45.4986 21.0588 45.971 21.3185 46.0796C21.39 46.1088 21.4139 46.2086 21.42 46.3428C21.5675 46.2218 21.6912 46.1282 21.7706 46.0867C22.2493 45.8377 22.2758 45.1082 22.4153 44.8813Z" fill="#F6F6F6"/>
<path d="M17.8516 1.67874C17.3704 2.30928 16.4148 2.90448 16.3945 3.50676C16.3751 4.10815 16.3901 4.33158 16.1428 4.63978C15.8938 4.9471 15.5317 5.41427 15.892 5.35068C16.2541 5.28887 16.6647 5.25089 16.663 5.6112C16.6612 5.97062 17.4498 5.97414 17.3818 6.53491C17.3147 7.09568 17.0312 8.57311 18.446 8.41769C19.8616 8.26314 20.6705 7.7589 21.2622 8.39738C21.8547 9.0341 22.6469 9.29726 23.5724 9.11446C24.4979 8.93165 26.0027 8.64288 25.5064 9.41736C25.0101 10.1927 24.6807 11.7911 25.1116 12.1894C25.5426 12.5868 26.106 12.8994 25.7598 13.2871C25.4127 13.6748 25.2494 14.1358 25.6971 14.4131C26.1457 14.6895 26.0159 15.0745 25.9991 15.1505C25.9947 15.1708 25.9055 15.2238 25.7669 15.2944C26.4292 15.8304 26.6659 16.4592 27.0394 16.6977C27.5393 17.0156 27.6894 17.1825 28.0364 16.9758C28.3835 16.7701 28.6316 16.6164 28.931 16.7709C29.2313 16.9264 29.6269 16.5387 30.0738 16.1431C30.5206 15.7501 31.0204 16.0256 31.1679 15.5655C31.3154 15.1045 31.5627 14.8166 32.112 14.6851C32.6604 14.5535 32.6586 14.0139 32.3089 14.0413C31.9601 14.0678 31.462 14.5102 31.4602 13.9274C31.4585 13.3436 31.0098 13.5132 31.0081 13.0195C31.0063 12.5259 30.956 12.215 30.3572 11.9474C29.7585 11.6799 31.1547 11.4352 31.4541 11.6816C31.7534 11.928 32.8017 11.6225 32.9023 12.019C33.0039 12.4155 33.5523 12.5082 33.5514 12.0137C33.5505 11.5191 34.1996 11.2895 34.7003 11.3425C35.2002 11.3946 36.3005 10.636 36.7518 10.4674C36.9867 10.3791 37.0723 10.1194 37.2013 9.89512C36.871 9.51627 36.3455 8.92812 36.1071 8.76739C35.7477 8.52542 36.3473 8.31878 36.2873 7.94522C36.2281 7.57256 36.2881 7.29792 37.067 7.18488C37.8459 7.07184 37.7276 6.54021 37.3081 6.35564C36.8887 6.17195 37.49 5.53083 37.9095 5.28444C38.0817 5.18288 38.3131 4.9003 38.525 4.51704C37.7285 4.30509 36.5849 4.41547 36.1062 4.47817C35.4775 4.55942 36.5151 3.8132 36.5548 3.20916C36.5937 2.60512 34.7833 2.64397 34.083 2.56538C33.3827 2.4859 33.5699 1.80414 34.3091 1.71319C35.0474 1.62134 33.9055 1.24249 32.9094 1.45531C31.9124 1.66726 30.51 2.28101 29.6984 2.74729C28.886 3.21357 27.4977 1.75998 26.5784 2.17062C25.6582 2.58038 24.3751 2.68901 24.4166 2.01962C24.4572 1.34935 24.0581 0.816832 23.1423 0.962544C22.2265 1.10737 22.4526 0.188065 21.7576 0.248999C21.0626 0.30905 21.7514 1.01641 21.2745 1.2575C20.7977 1.49859 19.1507 2.01079 19.0376 2.62101C18.9246 3.23035 19.9048 4.14171 19.5737 4.7696C19.2425 5.39748 18.1492 4.99478 17.8251 4.39339C17.4993 3.79023 18.7824 2.7102 18.5661 2.36491C18.4159 2.12382 18.2243 1.66815 18.3559 1.34405C18.1492 1.41823 17.9682 1.52597 17.8516 1.67874Z" fill="#F6F6F6"/>
<path d="M43.0068 8.91728C43.2479 9.33145 42.7065 9.58666 42.2253 9.67409C41.744 9.7624 41.8658 10.7259 41.5665 11.0164C41.2653 11.307 42.711 11.9057 42.9529 12.4806C43.0969 12.8215 43.5791 13.5536 43.95 14.094C44.2838 14.147 44.6008 14.1929 44.7916 14.0843C45.2437 13.8282 44.8384 13.0899 45.4927 13.0908C46.1471 13.0926 47.1035 12.6652 47.357 13.0104C47.4038 13.0723 47.4603 13.1332 47.5212 13.1915C47.7314 12.8939 47.9566 12.5698 48.0166 12.4576C48.1367 12.2342 48.1341 11.1021 47.8303 10.4751C47.5274 9.84718 47.7694 8.96673 48.1314 8.67265C48.2083 8.60995 48.3248 8.30793 48.4591 7.87874C47.8594 7.7083 47.2837 7.55907 46.7794 7.65003C45.8857 7.81075 44.9567 8.24259 44.622 7.83194C44.2873 7.42218 43.8034 7.52286 43.3583 7.88758C43.3071 7.9282 43.2514 7.94409 43.1923 7.94144C43.0395 8.34237 42.8858 8.70798 43.0068 8.91728Z" fill="#F6F6F6"/>
<path d="M37.9062 5.28783C37.4867 5.53509 36.8853 6.17534 37.3048 6.35902C37.7243 6.54448 37.8435 7.07523 37.0637 7.18827C36.284 7.30042 36.2239 7.57506 36.284 7.94861C36.344 8.32216 35.7444 8.52881 36.1038 8.77078C36.3413 8.93238 36.8677 9.51965 37.198 9.8985C37.3145 9.69363 37.4647 9.51877 37.7993 9.53643C38.5005 9.57529 37.9495 10.5626 38.5023 10.7454C39.0534 10.9309 39.0551 11.6965 38.6551 11.995C38.2542 12.2944 38.1075 13.7903 39.0154 14.6222C39.9223 15.455 40.6244 15.2695 40.824 15.032C41.0236 14.7927 41.7274 14.9684 41.927 14.594C42.1266 14.2213 42.3791 14.6072 42.7792 14.1754C43.0105 13.9254 43.4945 14.0164 43.9502 14.0915C43.5793 13.551 43.0971 12.8189 42.9531 12.478C42.7112 11.9031 41.2664 11.3053 41.5667 11.0139C41.8669 10.7242 41.7442 9.76074 42.2255 9.67154C42.7067 9.58412 43.2481 9.32979 43.007 8.91473C42.886 8.70544 43.0397 8.33894 43.1925 7.93889C42.7297 7.93095 42.0453 6.77674 41.6514 6.80588C41.2064 6.83768 40.6871 6.54271 40.8001 5.96693C40.9123 5.39115 39.7634 5.40793 39.1346 4.82067C38.9862 4.67938 38.7699 4.58488 38.5217 4.51953C38.3098 4.90368 38.0793 5.18627 37.9062 5.28783Z" fill="#F6F6F6"/>
<path d="M47.8306 10.4743C48.1343 11.1013 48.137 12.2344 48.0169 12.4569C47.9568 12.569 47.7317 12.8932 47.5215 13.1908C47.797 13.4495 48.2403 13.6208 49.0228 13.3488C49.9809 13.0159 50.4375 13.5272 50.7881 12.5576C51.0618 11.8008 52.0412 10.7278 52.7724 10.0363C52.7645 10.0328 52.7574 10.0266 52.7486 10.024C52.0377 9.80318 50.9532 8.33811 49.8723 8.20918C49.3998 8.15354 48.923 8.00961 48.4584 7.87891C48.3242 8.30809 48.2068 8.61012 48.1308 8.67282C47.7688 8.96601 47.5268 9.84734 47.8306 10.4743Z" fill="#F6F6F6"/>
<path d="M11.9246 19.7387C11.3144 19.1744 10.8967 18.8344 10.7466 19.0198C10.5964 19.2062 9.95353 19.3333 9.49962 19.1337C9.04482 18.9368 8.8161 18.5103 8.47522 18.5421C8.15995 18.5712 7.06491 18.1102 6.45645 17.7031C6.45027 17.7764 6.44939 17.8471 6.45645 17.9062C6.49443 18.1994 5.95308 18.4476 5.34021 18.5394C4.72733 18.6313 4.8024 19.2485 4.80593 19.676C4.80858 20.1034 4.30345 20.152 4.09062 20.6324C3.8778 21.1128 4.16657 21.1834 3.66408 21.4616C3.16072 21.7389 3.02119 22.1469 3.31261 22.5134C3.60404 22.8781 3.28347 23.2702 3.21371 23.506C3.14394 23.7427 3.64907 23.793 4.15862 24.1709C4.66817 24.5489 4.73352 23.9528 4.95429 24.2593C5.17419 24.5675 4.82007 25.1901 4.2434 25.2448C4.19925 25.2492 4.15509 25.2642 4.11093 25.2775C4.41383 25.5318 4.57456 25.81 4.43503 26.0069C4.17628 26.3734 3.9511 26.3946 4.44475 26.7576C4.93929 27.1187 5.27044 26.475 5.6908 26.9483C6.11204 27.4208 6.45469 27.6963 6.8565 26.7726C7.2592 25.8471 7.54619 24.5569 8.29771 24.2831C9.05011 24.0076 10.5947 23.5952 11.4919 22.418C12.3891 21.2417 11.9087 21.2214 12.3856 20.8302C12.7644 20.522 12.5357 20.3012 11.9246 19.7387Z" fill="#F6F6F6"/>
<path d="M35.1802 2.31C34.9594 2.14044 35.5105 1.73068 35.1413 1.60528C34.7722 1.479 35.9847 0.935882 36.368 1.20081C36.7504 1.46839 36.791 1.91613 36.4483 2.07156C36.1048 2.2261 35.378 2.46101 35.1802 2.31Z" fill="#F6F6F6"/>
</g>
</svg>
